<?xml version="1.0" encoding="utf-8"?>
<!-- Generator: Adobe Illustrator 26.1.0, SVG Export Plug-In . SVG Version: 6.00 Build 0)  -->
<svg version="1.1" id="Layer_1" xmlns="http://www.w3.org/2000/svg" xmlns:xlink="http://www.w3.org/1999/xlink" x="0px" y="0px"
	 viewBox="0 0 372 36.9" style="enable-background:new 0 0 372 36.9;" xml:space="preserve">
<g>
	<path d="M9.1,7.2c0,2.4,0.5,4.8,0.5,7.1c0,0.5-0.6,0.9-1.2,0.9c-0.3,0-0.5-0.1-0.6-0.3c-0.3-0.5-0.5-2.1-0.6-3.8
		c-0.1-1.6-0.1-3.3-0.1-4C6.6,7.2,6,7.3,5.4,7.3c-0.7,0-1.2-0.4-1.2-0.9c0-0.3,0.2-0.6,0.6-0.7c1.1-0.4,5.1-0.6,6.4-0.6
		c1,0,1.5,0.2,1.5,1.2c0,0.5-0.8,0.8-1.2,0.8C11,7.1,10.6,7,10.2,7S9.5,7,9.1,7V7.2z"/>
	<path d="M16,12c0,0.8,0,1.5,0,2.3c0,0.5-0.4,1.2-1.1,1.2c-0.9,0-1-1.1-1-1.8c0-0.8,0-2.6,0-4.3c0-1.7,0.1-3.3,0.3-3.9
		c0.2-0.4,0.5-0.6,1-0.6c0.9,0,0.9,0.6,0.9,1.1c0,1.3,0,2.7-0.1,4c0.4-0.1,0.9-0.1,1.4-0.2c0.4,0,0.9,0,1.4,0c0-1.1-0.1-2.2-0.1-3.4
		c0-0.7,0.2-1.4,1.3-1.4c0.6,0,0.9,1.2,0.9,2.4c0.1,1.2,0,2.4,0,2.8c0,1.2,0.3,2.5,0.3,3.7c0,0.5-0.3,1.2-1.1,1.2
		c-0.4,0-0.8-0.3-0.9-0.6c-0.1-0.2-0.2-0.7-0.2-1.3c0-0.5-0.1-1.1-0.1-1.3C17.8,11.9,16.9,12,16,12z"/>
	<path d="M25.5,13.1c0.1,0.1,0.3,0.1,0.5,0.1c0.4,0,0.7-0.1,1.1-0.3c0.2,0,0.3-0.1,0.6-0.2c0.2,0,0.3,0,0.6,0c0.5,0,0.9,0.4,0.9,0.8
		c0,1-1.8,1.7-2.8,1.7c-3.1,0-3.9-3.4-3.9-5.5c0-0.7,0.5-3.8,1.2-4.2c0.2-0.1,0.4-0.1,0.6-0.1c0.2,0,0.4,0,0.6,0
		c0.9,0,1.7-0.1,2.5-0.1c0.3,0,0.5,0,0.7,0c0.2,0,0.4,0,0.6,0.1C28.8,5.5,29,5.8,29,6.3c0,0.5-0.2,0.7-0.6,0.8
		c-0.2,0-0.4,0.1-0.6,0.1c-0.2,0-0.4,0-0.6,0c-0.1,0-0.2,0-0.3,0l-0.7,0c-0.1,0-0.2,0-0.3,0c-0.4,0-0.8,0-1.2,0
		c-0.2,0.6-0.3,1.8-0.3,2.4c1-0.2,2.1-0.2,3.1-0.2c0.8,0,1.6,0.3,1.6,1.1c0,0.8-0.8,1-1.5,1l-0.4-0.1c-0.9,0-1.7,0-2.6,0.1
		C24.9,12,25.3,12.9,25.5,13.1z"/>
	<path d="M40.4,15.3c-3.5,0-5.6-3.1-5.6-5.7c0-1.8,1.7-4.8,4.2-4.8c0.4,0,1,0.1,1.1,0.6c3,0.4,4.2,2.7,4.2,5.1
		c0,0.9-0.3,1.8-0.8,2.6c0.2,0.2,0.6,0.5,0.9,0.8c0.4,0.3,0.7,0.7,0.7,1c0,0.3-0.4,0.9-0.9,0.9c-0.7,0-1.6-0.8-2.1-1.2
		C41.8,15,41.1,15.3,40.4,15.3z M39.3,11.7c-0.5-0.6-0.9-1.2-0.9-1.8c0-0.5,0.6-0.8,1.1-0.8c0.3,0,0.6,0.3,0.7,0.5
		c0.5,0.7,1.2,1.5,1.8,2.1c0.2-0.6,0.3-1.1,0.3-1.7c0-1.2-0.8-2.3-2.1-2.6c-0.3-0.1-0.6-0.1-0.9-0.3c-0.3-0.1-0.5-0.3-0.6-0.4
		c-0.9,0.6-1.7,2-1.7,2.9c0,1.4,1,3.6,3,3.6c0.3,0,0.6,0,0.8-0.1C40.4,12.8,39.8,12.3,39.3,11.7z"/>
	<path d="M45.6,9.3c0-0.4,0-1.3,0.1-2.2c0.1-0.9,0.4-1.7,1-1.8h0.3c0.6,0,0.9,0.3,0.9,0.7c0,0.9-0.2,1.7-0.2,2.6
		c0,1.2,0.2,4.5,1.7,4.5c0.9,0,1.3-1.1,1.5-2.4C51.1,9.4,51,8,51,7.4c0-0.2,0-0.3,0-0.6c0-0.2,0-0.5,0.1-0.7c0.1-0.4,0.4-0.8,1-0.8
		c0.9,0,1,1.4,1,2.1c0,2-0.2,7.8-3.6,7.8C46.7,15.2,45.6,11.1,45.6,9.3z"/>
	<path d="M55.4,14.6c0-0.1-0.1-0.2-0.1-0.3C55.2,14.1,55,8.7,55,8.1c0-0.5,0-1.9,0.1-2.3c0.2-0.4,0.7-0.6,1.2-0.6
		C56.8,5.2,57,5.6,57,6c0,0.4,0,0.9,0,1.2c0,1.8,0.2,3.7,0.2,5.6c0,0.5,0.2,1.1,0.2,1.5s-0.6,1-1.1,1c-0.3,0-0.6-0.2-0.7-0.4
		C55.6,14.8,55.5,14.7,55.4,14.6z"/>
	<path d="M58.7,10.2c0-1.3,0.5-2.7,1.3-3.8C60.6,5.5,61.5,5,62.8,5c0.3,0,0.5,0,0.7,0c1,0.1,2.3,1.5,2.3,2.4c0,0.4-0.6,0.9-1.1,0.9
		c-0.2,0-0.4-0.1-0.5-0.2c0-0.1-0.3-0.4-0.4-0.5c-0.3-0.3-0.6-0.7-1.3-0.7c-0.3,0-0.7,0.4-1,0.9c-0.5,0.9-0.7,1.8-0.7,2.8
		c0,0.9,1.4,3,2.4,3c0.3,0,0.6-0.2,1-0.3c0.2-0.1,0.3-0.2,0.5-0.3c0.2,0,0.4-0.1,0.6-0.1c0.5,0,1,0.3,1,0.7c0,1-1.8,2-2.8,2
		C61,15.7,58.7,12.8,58.7,10.2z"/>
	<path d="M69.9,14.7c0,0.4-0.5,1-1,1c-0.7,0-0.9-0.6-1.1-1.3c-0.1-0.7-0.1-1.4-0.1-1.8c0-0.3,0-0.6,0-1l0-2c0-0.3,0-0.6,0-1
		c0-0.8,0-1.5,0-2.3c0-0.6,0.2-1.4,1.1-1.4c0.6,0,0.9,0.3,0.9,0.8c0,0.3,0,0.6,0,0.9c0,1,0,2,0.1,3c0.7-0.8,1.6-1.5,2.2-2.3
		c0.5-0.6,0.9-1.2,1.4-1.7c0.3-0.3,0.7-0.5,1.2-0.5c0.6,0,0.8,0.5,0.8,0.9c0,0.2,0,0.3,0,0.5c-0.2,0.7-3.1,3.8-3.9,4.4
		c0.4,0.2,0.8,0.5,1.2,0.7c0.2,0.1,0.5,0.2,0.8,0.3c0.3,0.1,0.6,0.3,0.9,0.4c0.6,0.3,1.2,0.6,1.2,1.1s-0.5,1-1.1,1
		c-0.8,0-1.6-0.3-2.4-0.7c-0.6-0.4-1.4-0.8-2.1-1.1C69.9,13.4,69.9,14,69.9,14.7z"/>
	<path d="M88.3,12.5c0,1.5-3.3,3-4.8,3c-0.7,0-1.1-0.3-1.3-0.9c-0.4-0.7-0.8-6.8-0.8-8c0-0.5,0.2-1.4,1.1-1.4c0.1,0,0.3,0,0.4,0.1
		C83.4,5.1,83.9,5,84.4,5c2,0,3.2,0.8,3.2,2.6c0,0.9-1.1,2.2-1.8,2.9C87,10.6,88.3,11.3,88.3,12.5z M83.7,9.7
		c0.7-0.6,1.8-1.7,1.8-2.4c0-0.1-0.1-0.3-0.3-0.3c-0.2-0.1-0.5-0.1-0.6-0.1c-0.4,0-0.8,0-1.1,0.2L83.7,9.7z M84,13.3
		c0.3,0,0.7-0.2,1.2-0.3c0.2,0,0.9-0.3,0.9-0.6c0,0,0,0-0.1-0.1c-0.1,0-0.2,0-0.3,0c-0.3,0-0.6,0-0.6,0c-0.3,0-0.7,0-1.1,0L84,13.3z
		"/>
	<path d="M91.8,14.3c0,0.6-0.4,1.2-1.2,1.2c-0.3,0-0.6-0.2-0.8-0.5c-0.1-0.2-0.2-0.5-0.3-0.7c-0.1-0.4-0.1-0.9-0.2-1.3
		c0-0.4,0-0.9,0-1.3c-0.1-1.7-0.2-3.3-0.2-5c0-0.1-0.1-0.2-0.1-0.3c0-1,1-1.1,1.9-1.1c2.4,0,5.5,1.2,5.5,3.6c0,1.5-0.9,2.6-2.4,3.2
		c0.6,0.5,2.3,1.7,2.3,2.4c0,0.4-0.5,1.1-1,1.1c-0.3,0-0.6-0.2-0.7-0.3c-0.9-0.9-1.8-1.4-3-1.9C91.8,13.5,91.8,13.9,91.8,14.3z
		 M91.6,10.8c0.5,0,0.9-0.2,1.3-0.4c0.9-0.4,1.6-0.8,1.6-1.8V8.5c0-0.8-2.3-1.5-3.1-1.5h-0.1L91.6,10.8z"/>
	<path d="M99.3,5.9c0-0.6,0.6-0.8,1.2-0.8c0.3,0,0.9,0,1.4,0.1c0.5,0.1,1,0.3,1.1,0.6c1.9,1,2.6,3.6,2.6,5.4c0,1.7-1.3,4.2-3.7,4.2
		c-3,0-4.5-2.7-4.5-5.4c0-1.4,0.8-2.8,1.9-3.8C99.3,6,99.3,6,99.3,5.9z M99.6,10.6c0,1,0.7,2.7,2.1,2.7c1.7,0,1.8-1.7,1.8-2.9
		c0-1.1-0.8-3-2.2-3.3C100,7.8,99.6,9.4,99.6,10.6z"/>
	<path d="M109.9,9.8c0-0.1,0-0.3,0-0.4c0-0.7,0.5-1.2,1.2-1.2c0.4,0,0.6,0.2,0.8,0.5c0.1,0.2,0.2,0.5,0.3,0.9
		c0.1,0.4,0.2,0.9,0.3,1.3c0.2,0.9,0.4,1.6,0.7,1.9c0.6-0.8,0.9-2.6,0.9-3.6c0-0.6-0.2-1.1-0.4-1.6c-0.1-0.3-0.2-0.5-0.2-0.7
		c-0.1-0.3-0.1-0.5-0.1-0.7c0-0.4,0.3-0.8,0.9-0.8c1.9,0,1.9,3.8,1.9,5.1c0,1.3-1.1,4.4-3.1,4.4c-0.9,0-1.7-1-2-1.6
		c-0.3,0.7-1.1,1.6-2,1.6c-0.6,0-1-0.5-1.3-0.9c-0.1-0.3-0.3-0.6-0.4-0.8c-0.1-0.3-0.2-0.5-0.3-0.6c-0.2-0.6-0.3-1.2-0.3-1.9
		c0-1,0.3-4,0.9-4.8c0.2-0.3,0.4-0.4,0.8-0.4c0.6,0,1.1,0.4,1.1,0.9c0,0.2-0.1,0.4-0.2,0.6c-0.6,0.8-0.6,2.3-0.6,3.3
		c0,0.7,0,1.6,0.3,2.4C109.5,11.6,109.8,10.7,109.9,9.8z"/>
	<path d="M120,10.5c0,0.3,0,0.6,0,0.9l0.1,1.8c0,0.3,0,0.6,0,0.9c0,0.3,0,0.6-0.1,0.9c-0.1,0.3-0.3,0.6-0.8,0.6
		c-1.2,0-1.2-2.4-1.2-3.2c0-1.6,0-3.3,0.3-4.9c0.1-0.6,0.3-1.4,1.2-1.5c0.1,0,0.2,0,0.3,0c0.4,0,0.6,0.1,0.8,0.4
		c0.2,0.3,0.3,0.6,0.5,1c0.3,0.6,0.6,1.3,0.9,2c0.5,1.2,1.1,2.2,1.8,3.3c0.1-0.7,0.2-1.4,0.2-2c0-1.4-0.2-2.8-0.6-4.2
		c0-0.1-0.1-0.3-0.1-0.4c0-0.1-0.1-0.3-0.1-0.4c0-0.5,0.6-0.8,1.1-0.8c0.5,0,0.7,0.4,0.9,0.7c0.4,1.1,0.9,4,0.9,5.1
		c0,1.3,0,2.7-0.9,3.9c-0.2,0.3-0.6,0.8-1.1,0.8c-1,0-1.9-1.2-2.7-2.5c-0.6-1.2-1.2-2.4-1.5-3.2C120,9.9,120,10.2,120,10.5z"/>
	<path d="M135,10c0.2,0,0.3,0,0.5,0l1,0c0.7,0,2.3,0,2.3,1s-1.2,1.1-2.1,1.1c-0.8,0-1.5,0-2.3,0c0,0.3,0.1,0.8,0.3,1.1
		c0.1,0.4,0.3,0.8,0.3,1.2c0,0.3-0.6,1-1,1c-1.5,0-1.8-3.9-1.8-5.1c0-3.4,0.3-5.3,4.4-5.3c0.9,0,2.4,0.1,2.4,1.2
		c0,0.5-0.5,0.8-1,0.8c-0.6,0-1.1-0.1-1.7-0.1c-0.5,0-1.2,0-1.5,0.3c-0.3,0.3-0.4,2.2-0.4,2.8H135z"/>
	<path d="M141.5,5.9c0-0.6,0.6-0.8,1.2-0.8c0.3,0,0.9,0,1.4,0.1c0.5,0.1,1,0.3,1.1,0.6c1.9,1,2.6,3.6,2.6,5.4c0,1.7-1.3,4.2-3.7,4.2
		c-3,0-4.5-2.7-4.5-5.4c0-1.4,0.8-2.8,1.9-3.8C141.5,6,141.5,6,141.5,5.9z M141.8,10.6c0,1,0.7,2.7,2.1,2.7c1.7,0,1.8-1.7,1.8-2.9
		c0-1.1-0.8-3-2.2-3.3C142.2,7.8,141.8,9.4,141.8,10.6z"/>
	<path d="M150.9,14.9c-0.1,0.2-0.3,0.4-0.7,0.4c-0.6,0-1.1-0.2-1.1-0.9c0-0.4,0.4-1.2,0.9-2c0.5-0.8,1-1.5,1.2-1.9
		c-0.6-0.9-2.9-3.7-2.9-4.5c0-0.5,0.7-0.9,1.2-0.9c0.4,0,0.6,0.2,0.8,0.6c0.6,1.2,1.3,2.2,2.1,3.2c0.5-0.8,2.1-3.2,2.7-3.6
		c0.1-0.1,0.3-0.1,0.4-0.1c0.5,0,1.1,0.3,1.1,0.8c0,0.4-2.4,3.9-2.9,4.5c0.3,0.3,1,0.9,1.7,1.6c0.6,0.7,1.2,1.4,1.2,1.8
		s-0.4,0.9-0.9,0.9c-0.4,0-1.1-0.5-1.7-1.1c-0.6-0.5-1.1-1.1-1.4-1.4C152.1,13,151.5,14.1,150.9,14.9z"/>
	<path d="M163.5,7.2c-0.6,0-1.3-0.2-1.3-0.8c0-0.4,0.2-0.9,0.7-1.1c1.1-0.3,4.3-0.4,5.6-0.4c0.7,0,2.6,0,2.6,1
		c0,0.6-0.6,0.9-1.2,0.9C169.3,7,168.7,7,168.1,7c0.3,1.5,0.4,3.1,0.4,4.7c0,0.5,0,1.4-0.3,1.8c-0.4,0.9-1,1.8-2.4,1.8
		c-1.3,0-2.3-0.5-2.9-1.4c0-0.1-0.1-0.2-0.2-0.3c0-0.1,0-0.2,0-0.3c0-0.3,0.3-0.8,0.7-0.8c0.1,0,0.3,0,0.4,0.1
		c0.2,0,0.3,0.2,0.6,0.3c0.4,0.2,0.9,0.3,1.3,0.3c0.3,0,0.4-0.1,0.4-0.4c0-0.5,0.1-0.9,0.1-1.4c0-1.5-0.2-2.9-0.3-4.4
		C165.3,7.2,164.4,7.2,163.5,7.2z"/>
	<path d="M172.2,9.3c0-0.4,0-1.3,0.1-2.2c0.1-0.9,0.4-1.7,1-1.8h0.3c0.6,0,0.9,0.3,0.9,0.7c0,0.9-0.2,1.7-0.2,2.6
		c0,1.2,0.2,4.5,1.7,4.5c0.9,0,1.3-1.1,1.5-2.4c0.2-1.3,0.1-2.7,0.1-3.3c0-0.2,0-0.3,0-0.6c0-0.2,0-0.5,0.1-0.7
		c0.1-0.4,0.4-0.8,1-0.8c0.9,0,1,1.4,1,2.1c0,2-0.2,7.8-3.6,7.8C173.3,15.2,172.2,11.1,172.2,9.3z"/>
	<path d="M183.2,11.4c0,0.6,0.1,1.2,0.3,1.8c0.1,0.2,0.4,0.8,0.4,1c0,0.5-0.5,0.9-1.1,0.9c-1.4,0-1.5-3.6-1.5-4.5
		c0-0.8,0.2-3,0.6-3.8c0.3-0.7,1.1-1.3,2-1.3c0.9,0,1.6,1.2,2,1.9c0.4-0.9,1-1.8,2.4-1.8c0.3,0,0.8,0.1,1.1,0.3
		c1.7,1.1,1.9,5.8,1.9,7.7c0,0.3,0,0.7-0.2,1c-0.1,0.4-0.4,0.7-0.9,0.7c-0.3,0-0.5,0-0.6-0.2c-0.4-0.4-0.5-1.2-0.6-2.1
		c-0.1-0.9,0-1.8-0.1-2.3c0-0.6-0.4-2.5-0.8-3c-0.7,1.1-1,2.5-1,3.8V12c0,0.1,0,0.2,0,0.3c0,0.6-0.4,1.2-1.2,1.2
		c-1.1,0-1.3-2.9-1.3-3.7c-0.1-0.8-0.3-1.5-0.8-2.1C183.3,8.8,183.2,10.2,183.2,11.4z"/>
	<path d="M195,14.1c0,0.5-0.4,1.2-1.1,1.2c-0.8,0-1-0.8-1.2-1.6c-0.1-0.8-0.1-1.7-0.1-2.1c0-0.8,0-1.5,0-2.3c0-0.6,0-1.3,0-1.9
		c0-0.3,0-0.5,0-0.8c0-1.6,0.9-1.9,2.4-1.9c2.3,0,4.5,1.2,4.5,3.8c0,2.1-2.9,2.8-4.8,2.9C195,12.3,195,13.2,195,14.1z M197.6,8.1
		c0-0.7-1.2-1.5-2.1-1.5c-0.3,0-0.5,0-0.8,0c0,0.9,0,1.9,0,2.9C195.9,9.5,197.6,9.2,197.6,8.1z"/>
	<path d="M202.2,12.8c0.2,0,0.4,0,0.6,0c0.2,0.1,0.4,0.1,0.6,0.2c0.5,0.2,0.9,0.3,1.3,0.3c0,0,0.1,0,0.1,0c0.1,0,0.1,0,0.1-0.1
		c0-0.2-0.2-0.4-0.6-0.6s-0.9-0.5-1.4-0.8c-1-0.6-2-1.5-2-3.1s1.8-3.8,3.9-3.8c1.3,0,2.4,1.5,2.4,2.4c0,0.4-0.6,0.9-1.1,0.9
		c-0.3,0-0.4-0.1-0.6-0.3c0,0-0.1-0.1-0.2-0.2c0-0.1-0.1-0.2-0.1-0.3c-0.2-0.4-0.3-0.7-0.7-0.7c-0.8,0-1.5,1.2-1.5,1.8
		c0,0.3,0.1,0.6,0.3,0.9c0.2,0.3,0.6,0.5,0.9,0.7s0.8,0.5,1.2,0.7c0.9,0.5,1.6,1.2,1.6,2.4c0,1-1.6,1.9-2.7,1.9
		c-0.9,0-2.9-0.6-2.9-1.6C201.5,13.3,201.7,12.8,202.2,12.8z"/>
	<path d="M214.7,5.9c0-0.6,0.6-0.8,1.2-0.8c0.3,0,0.9,0,1.4,0.1c0.5,0.1,1,0.3,1.1,0.6c1.9,1,2.6,3.6,2.6,5.4c0,1.7-1.3,4.2-3.7,4.2
		c-3,0-4.5-2.7-4.5-5.4c0-1.4,0.8-2.8,1.9-3.8C214.7,6,214.7,6,214.7,5.9z M215,10.6c0,1,0.7,2.7,2.1,2.7c1.7,0,1.8-1.7,1.8-2.9
		c0-1.1-0.8-3-2.2-3.3C215.4,7.8,215,9.4,215,10.6z"/>
	<path d="M225.9,8c0.4-1.4,0.9-2.7,1.1-2.9c0.1-0.1,0.3-0.3,0.6-0.3c0.6,0,1.1,0.1,1.1,0.8c0,0.3-0.1,0.7-0.2,1
		c-0.1,0.3-0.2,0.7-0.3,1c-0.5,1.5-1,3.1-1.4,4.6c-0.2,0.8-0.3,1.5-0.5,2.3c-0.2,0.6-0.7,0.9-1.4,0.9c-0.2,0-0.4-0.2-0.5-0.3
		c-0.4-0.5-3.1-8.7-3.1-9.1c0-0.6,0.3-0.8,0.9-0.8c0.4,0,0.7,0.2,0.9,0.5c0.1,0.1,0.1,0.2,0.2,0.3c0.6,1.7,1.2,3.4,1.8,5.1
		C225.1,10.5,225.5,9.2,225.9,8z"/>
	<path d="M232.8,13.1c0.1,0.1,0.3,0.1,0.5,0.1c0.4,0,0.7-0.1,1.1-0.3c0.2,0,0.3-0.1,0.6-0.2c0.2,0,0.3,0,0.6,0
		c0.5,0,0.9,0.4,0.9,0.8c0,1-1.8,1.7-2.8,1.7c-3.1,0-3.9-3.4-3.9-5.5c0-0.7,0.5-3.8,1.2-4.2c0.2-0.1,0.4-0.1,0.6-0.1
		c0.2,0,0.4,0,0.6,0c0.9,0,1.7-0.1,2.5-0.1c0.3,0,0.5,0,0.7,0c0.2,0,0.4,0,0.6,0.1c0.4,0.2,0.6,0.4,0.6,0.9c0,0.5-0.2,0.7-0.6,0.8
		c-0.2,0-0.4,0.1-0.6,0.1c-0.2,0-0.4,0-0.6,0c-0.1,0-0.2,0-0.3,0l-0.7,0c-0.1,0-0.2,0-0.3,0c-0.4,0-0.8,0-1.2,0
		c-0.2,0.6-0.3,1.8-0.3,2.4c1-0.2,2.1-0.2,3.1-0.2c0.8,0,1.6,0.3,1.6,1.1c0,0.8-0.8,1-1.5,1l-0.4-0.1c-0.9,0-1.7,0-2.6,0.1
		C232.3,12,232.6,12.9,232.8,13.1z"/>
	<path d="M240.8,14.3c0,0.6-0.4,1.2-1.2,1.2c-0.3,0-0.6-0.2-0.8-0.5c-0.1-0.2-0.2-0.5-0.3-0.7c-0.1-0.4-0.1-0.9-0.2-1.3
		c0-0.4,0-0.9,0-1.3c-0.1-1.7-0.2-3.3-0.2-5c0-0.1-0.1-0.2-0.1-0.3c0-1,1-1.1,1.9-1.1c2.4,0,5.5,1.2,5.5,3.6c0,1.5-0.9,2.6-2.4,3.2
		c0.6,0.5,2.3,1.7,2.3,2.4c0,0.4-0.5,1.1-1,1.1c-0.3,0-0.6-0.2-0.7-0.3c-0.9-0.9-1.8-1.4-3-1.9C240.8,13.5,240.8,13.9,240.8,14.3z
		 M240.6,10.8c0.5,0,0.9-0.2,1.3-0.4c0.9-0.4,1.6-0.8,1.6-1.8V8.5c0-0.8-2.3-1.5-3.1-1.5h-0.1L240.6,10.8z"/>
	<path d="M255.7,7.2c0,2.4,0.5,4.8,0.5,7.1c0,0.5-0.6,0.9-1.2,0.9c-0.3,0-0.5-0.1-0.6-0.3c-0.3-0.5-0.5-2.1-0.6-3.8
		c-0.1-1.6-0.1-3.3-0.1-4c-0.6,0.1-1.2,0.2-1.8,0.2c-0.7,0-1.2-0.4-1.2-0.9c0-0.3,0.2-0.6,0.6-0.7c1.1-0.4,5.1-0.6,6.4-0.6
		c1,0,1.5,0.2,1.5,1.2c0,0.5-0.8,0.8-1.2,0.8c-0.4,0-0.7-0.1-1.1-0.1s-0.8,0-1.2,0V7.2z"/>
	<path d="M262.6,12c0,0.8,0,1.5,0,2.3c0,0.5-0.4,1.2-1.1,1.2c-0.9,0-1-1.1-1-1.8c0-0.8,0-2.6,0-4.3c0-1.7,0.1-3.3,0.3-3.9
		c0.2-0.4,0.5-0.6,1-0.6c0.9,0,0.9,0.6,0.9,1.1c0,1.3,0,2.7-0.1,4c0.4-0.1,0.9-0.1,1.4-0.2c0.4,0,0.9,0,1.4,0c0-1.1-0.1-2.2-0.1-3.4
		c0-0.7,0.2-1.4,1.3-1.4c0.6,0,0.9,1.2,0.9,2.4c0.1,1.2,0,2.4,0,2.8c0,1.2,0.3,2.5,0.3,3.7c0,0.5-0.3,1.2-1.1,1.2
		c-0.4,0-0.8-0.3-0.9-0.6c-0.1-0.2-0.2-0.7-0.2-1.3c0-0.5-0.1-1.1-0.1-1.3C264.4,11.9,263.5,12,262.6,12z"/>
	<path d="M272.1,13.1c0.1,0.1,0.3,0.1,0.5,0.1c0.4,0,0.7-0.1,1.1-0.3c0.2,0,0.3-0.1,0.6-0.2c0.2,0,0.3,0,0.6,0
		c0.5,0,0.9,0.4,0.9,0.8c0,1-1.8,1.7-2.8,1.7c-3.1,0-3.9-3.4-3.9-5.5c0-0.7,0.5-3.8,1.2-4.2c0.2-0.1,0.4-0.1,0.6-0.1
		c0.2,0,0.4,0,0.6,0c0.9,0,1.7-0.1,2.5-0.1c0.3,0,0.5,0,0.7,0c0.2,0,0.4,0,0.6,0.1c0.4,0.2,0.6,0.4,0.6,0.9c0,0.5-0.2,0.7-0.6,0.8
		c-0.2,0-0.4,0.1-0.6,0.1c-0.2,0-0.4,0-0.6,0c-0.1,0-0.2,0-0.3,0l-0.7,0c-0.1,0-0.2,0-0.3,0c-0.4,0-0.8,0-1.2,0
		c-0.2,0.6-0.3,1.8-0.3,2.4c1-0.2,2.1-0.2,3.1-0.2c0.8,0,1.6,0.3,1.6,1.1c0,0.8-0.8,1-1.5,1l-0.4-0.1c-0.9,0-1.7,0-2.6,0.1
		C271.5,12,271.9,12.9,272.1,13.1z"/>
	<path d="M286.1,13.2c0.7,0,1.6,0.2,1.6,1c0,0.7-0.8,1-1.6,1.1c-0.8,0.1-1.5,0.1-2.3,0.1c-1.7,0-2.5-0.6-2.5-2.1c0-0.2,0-0.4,0-0.7
		c0.3-2.1,0.3-4.3,0.4-6.5c0-0.7,0.3-0.9,0.9-0.9c0.6,0,1,0.1,1,0.7c0,0.2,0,0.3,0,0.6c0,0.3,0.1,0.7,0.1,1.1c0,1.9-0.1,3.8-0.3,5.7
		C284.4,13.2,285.3,13.2,286.1,13.2z"/>
	<path d="M291.4,14.4c-0.2,0.5-0.6,1-1.1,1c-0.8,0-1-0.5-1-1.1c0-0.3,1.7-5.1,1.8-5.4c0.1-0.3,0.3-1.1,0.7-1.9
		c0.3-0.8,0.6-1.6,0.9-1.7c0.2-0.1,0.4-0.2,0.7-0.2c0.3,0,0.6,0.2,0.7,0.4c0.1,0.2,0.2,0.4,0.2,0.7c0,0.1,0.2,0.8,0.5,1.5
		c0.3,0.7,0.6,1.5,0.6,1.7c0.3,0.9,1.6,4.4,1.6,5.1c0,0.5-0.5,1-1.1,1c-0.1,0-0.2,0-0.2,0c-0.1,0-0.1-0.1-0.2-0.1c0,0-0.1,0-0.1,0
		c0,0-0.1,0-0.1-0.1c-0.2-0.1-0.4-0.6-0.6-1c-0.1-0.4-0.3-0.8-0.3-1.1c-0.2,0-0.4,0-0.6,0c-0.6,0-1.2,0-1.9-0.1
		C291.8,13.3,291.6,13.8,291.4,14.4z M292.4,11.1h1.4L293.1,9L292.4,11.1z"/>
	<path d="M302.7,12.5c0.6-0.1,1.3-0.1,1.9-0.1c0.5,0,1.4,0,1.4,0.7c0,1.4-4.6,1.8-5.7,1.8c-1,0-1.9-0.4-1.9-1.4c0-1.2,3-4.6,3.8-5.4
		c0.2-0.3,0.5-0.5,0.6-0.8c-1.6,0-3.2,0.2-4.8,0.2c-0.7,0-1.2-0.3-1.2-1c0-0.5,0.4-0.7,0.9-0.9c0.6-0.2,4.5-0.3,5.4-0.3
		c0.2,0,0.5,0,0.8,0c0.3,0,0.5,0.1,0.7,0.2c0.4,0.3,0.7,0.7,0.7,1.2c0,0.6-0.9,1.8-1.9,3c-0.5,0.6-1.1,1.2-1.5,1.8
		c-0.4,0.5-0.8,0.9-1,1.2C301.5,12.7,302.1,12.6,302.7,12.5z"/>
	<path d="M310.1,10.8c-0.1-0.1-0.1-0.1-0.2-0.2c-0.5-0.3-0.8-0.8-1.2-1.3c-0.3-0.4-0.6-0.9-1-1.3c-0.2-0.3-0.4-0.5-0.6-0.7
		c-0.2-0.3-0.4-0.6-0.4-1c0-0.5,0.6-0.9,1.1-0.9c0.3,0,0.5,0.2,0.6,0.4c0.9,1.2,1.8,2.3,2.8,3.3c0.2-0.3,0.6-1.1,1-1.8
		c0.4-0.7,0.9-1.5,1.1-1.7c0.2-0.2,0.5-0.3,0.8-0.3c0.7,0,0.9,0.8,0.9,1.2c0,0.3-0.1,0.5-0.2,0.7c-0.1,0.1-0.2,0.3-0.3,0.5
		c-1.1,1.6-2.1,3.3-3.1,5c-0.2,0.3-0.4,0.8-0.7,1.2c-0.3,0.4-0.5,0.8-0.8,1.2c-0.2,0.1-0.3,0.3-0.6,0.3c-0.5,0-1.1-0.5-1.1-0.9
		s1.6-2.9,1.9-3.4C310.2,10.9,310.1,10.8,310.1,10.8z"/>
	<path d="M321.1,10.7c0-0.5-0.1-4.3-0.2-4.4c0-0.1-0.1-0.2-0.1-0.3c0-0.1-0.1-0.2-0.1-0.4c0-0.6,0.6-0.7,1.2-0.7c0.2,0,0.3,0,0.5,0
		c2.1,0.3,3.6,1.2,4.6,2.8c0.5,0.8,0.9,1.7,0.9,2.6c0,2.3-2.3,4.2-4.8,4.8c-0.2,0-0.4,0.1-0.6,0.1c-0.5,0-0.8-0.3-1-0.6
		C321.2,14.5,321.1,11.3,321.1,10.7z M325.6,10.5c0-1.4-0.9-3-2.5-3.3c0.1,1.9,0.4,3.8,0.3,5.7C324.6,12.4,325.6,12,325.6,10.5z"/>
	<path d="M330.9,5.9c0-0.6,0.6-0.8,1.2-0.8c0.3,0,0.9,0,1.4,0.1c0.5,0.1,1,0.3,1.1,0.6c1.9,1,2.6,3.6,2.6,5.4c0,1.7-1.3,4.2-3.7,4.2
		c-3,0-4.5-2.7-4.5-5.4c0-1.4,0.8-2.8,1.9-3.8C330.9,6,330.9,6,330.9,5.9z M331.2,10.6c0,1,0.7,2.7,2.1,2.7c1.7,0,1.8-1.7,1.8-2.9
		c0-1.1-0.8-3-2.2-3.3C331.6,7.8,331.2,9.4,331.2,10.6z"/>
	<path d="M338.3,10.8c0-2.1,1.5-5.5,4.5-5.5c1.2,0,2,0.9,2,1.8c0,0.5-0.5,0.9-1.1,0.9c-0.4,0-0.6-0.3-0.6-0.4c0-0.2-0.1-0.3-0.3-0.4
		c-0.1,0-0.2,0-0.3,0.1c-0.1,0.1-0.2,0.1-0.3,0.2c-1.2,0.7-1.8,2.1-1.8,3.3c0,1.3,0.6,2.5,2.1,2.5c1.1,0,2.4-0.4,2.4-1.5
		c0-0.1,0-0.2,0-0.3c0-0.1-0.1-0.2-0.2-0.2c-0.6,0-1,0.3-1.3,0.6c0,0.1-0.1,0.2-0.2,0.3c0,0.1-0.1,0.1-0.2,0.2
		c-0.1,0.1-0.3,0.2-0.5,0.2c-0.6,0-1.1-0.5-1.1-0.9c0-0.3,0.2-0.6,0.4-0.9c0.6-0.9,1.5-1.5,2.8-1.5c1.5,0,2.5,1.4,2.5,2.5
		c0,1.9-2.3,3.6-4.5,3.6c-2.3,0-3.3-1.2-4-2.9C338.4,11.9,338.3,11.3,338.3,10.8z"/>
	<path d="M5.3,23.4c-0.6,0-1.1-0.3-1.1-0.9c0-0.5,0.1-0.8,0.8-0.9c1.5-0.3,2.1-0.3,3.6-0.3c0.4,0,1.2,0,1.9,0
		c0.7,0.1,1.4,0.3,1.4,0.9c0,0.7-0.5,0.9-1.2,1c-0.3,0-0.6,0-1,0c-0.3,0-0.6,0-0.8,0c0.2,2.3,0.2,4.6,0.5,6.9c0,0.7-0.3,1.2-1.1,1.2
		c-0.3,0-0.6-0.2-0.7-0.4c-0.3-0.5-0.5-2.1-0.6-3.7c-0.1-1.6,0-3.2-0.1-3.9C6.4,23.3,5.8,23.4,5.3,23.4z"/>
	<path d="M15.5,29c0,0.7-0.2,1.7-1.1,1.7c-0.3,0-0.5-0.1-0.7-0.3c-0.4-0.3-0.5-1.8-0.6-3.3c0-1.5,0-3,0-4.4c0-0.2,0-0.4,0.1-0.6
		c0.2-0.5,0.5-0.8,1.2-0.8c0.3,0,0.5,0.1,0.6,0.3c0.2,0.3,0.3,1.2,0.3,2.1c0,0.9,0,1.7,0,2.1c0.7-0.2,1.5-0.2,2.2-0.2
		c0.5,0,1,0,1.5,0.1c0-1.1,0.1-2.2,0.1-3.3c0-0.8,0.2-1.4,1.3-1.4c0.5,0,0.7,0.8,0.8,1.5c0.1,0.8,0,1.6,0,1.8c0,0.7,0,1.4,0,2.1
		c0.1,0.1,0.1,0.3,0.1,0.4c0,0.2-0.1,0.3-0.2,0.4c0,0.2,0,0.5,0,0.7c0,0.1,0,0.3,0,0.4v0.8c0,0.1,0,0.3,0,0.4c0,0.9-0.1,1.9-1.3,1.9
		c-0.5,0-0.7-0.6-0.9-1.1c-0.1-0.6-0.1-1.2-0.1-1.5c0-0.4,0-0.8,0-1.2c-0.4,0-0.9,0-1.3,0c-0.8,0-1.5,0-2.2,0.1
		C15.5,28.1,15.5,28.6,15.5,29z"/>
	<path d="M22.9,24.1c0-0.7,0.1-1.5,0.3-1.8v-0.1c0-0.2,0.1-0.4,0.3-0.6c0.2-0.1,1-0.1,1.9-0.1c0.8,0,1.7,0,2,0c0.3,0,0.5,0,0.8,0
		s0.5,0,0.7,0.1c0.5,0.1,0.8,0.4,0.8,1c0,0.6-0.7,0.8-1.3,0.8c-1.2,0-2.3,0-3.4-0.1c0,0.2,0,0.3,0,0.5c0,0.6,0,1.1,0,1.6
		c0.9-0.1,1.7-0.3,2.6-0.3c0.6,0,1.7,0.3,1.7,1c0,0.6-0.9,0.9-1.9,1c-0.9,0.1-1.9,0.1-2.4,0.2c0,0.1,0,0.3,0,0.4
		c0,0.6,0.1,1.6,1,1.6c0.5,0,1-0.3,1.6-0.5c0.3-0.1,0.6-0.2,0.8-0.3c0.3-0.1,0.5-0.2,0.8-0.2c0.5,0,1.2,0.4,1.2,0.9
		c0,0.3-0.5,0.7-1,1c-0.5,0.3-1.2,0.5-1.5,0.7c-0.6,0.2-1.1,0.4-1.8,0.4c-1.9,0-3.1-1.4-3.2-3.2c-0.1-0.7,0-1.5,0-2.1v0
		C22.9,25.6,22.9,24.8,22.9,24.1z"/>
	<path d="M41,31.4c-3.4,0-5.2-3-5.2-5.6c0-1.2,0.5-2.6,1.4-3.5c0-0.9,1.3-1.4,2.2-1.4c3.3,0,5.4,2.4,5.4,5.1c0,0.8-0.2,1.6-0.5,2.4
		c0.3,0.2,0.7,0.6,1.1,1c0.4,0.4,0.8,0.9,0.8,1.2c0,0.4-0.3,0.8-0.8,0.8c-0.3,0-0.8-0.3-1.2-0.6c-0.3-0.3-0.7-0.6-0.9-0.7
		C42.8,30.9,42.1,31.4,41,31.4z M40.2,27.5c-0.3-0.3-0.5-0.6-0.5-1c0-0.4,0.5-0.9,1-0.9c0.2,0,0.6,0.3,1,0.6
		c0.3,0.3,0.7,0.6,0.9,0.7c0.1-0.5,0.1-0.9,0.1-1.4c0-1.4-1.9-2.7-3.2-2.7c0,0.2-0.1,0.3-0.3,0.5c-0.1,0-0.4,0.3-0.5,0.4
		c-0.6,0.5-0.8,1.7-0.8,2.4c0,1.7,1.1,3.2,2.9,3.2c0.4,0,0.8-0.1,1-0.4L40.2,27.5z"/>
	<path d="M46.3,25c0-0.4,0-1.4,0.1-2.2c0.1-0.8,0.4-1.6,1.2-1.7h0.3c0.3,0,0.5,0.1,0.6,0.3c0.1,0.2,0.1,0.4,0.1,0.6
		c0,0.1,0,0.3,0,0.5l0,0.9c0,0.2,0,0.3,0,0.5c0,1.1,0.4,5.3,1.9,5.3c0.1,0,0.2,0,0.3-0.1c0.1-0.1,0.1-0.2,0.2-0.3
		c0.6-0.7,0.9-1.6,1-2.5c0.1-0.9,0.1-1.8,0.1-2.7c0-0.5,0-1.1,0-1.6c0-0.5,0.3-1.1,0.9-1.1c0.4,0,0.7,0.1,0.9,0.4
		c0.3,0.4,0.4,3.2,0.4,3.8c0,2.1-0.6,3.9-2.2,5.4c-0.3,0.3-0.8,0.7-1.3,0.7C47.3,31.3,46.3,27.1,46.3,25z"/>
	<path d="M57.2,23.1c-0.3,0-0.5,0-0.7,0c-0.8,0-1.2-0.2-1.2-0.9c0-0.6,0.1-0.8,0.8-0.9c1.2-0.2,2.8-0.3,4-0.3c0.6,0,1.2,0.4,1.2,0.9
		c0,0.9-1.3,1-2,1c0,1.6,0,3.3,0.2,4.9c0,0.5,0,0.9,0,1.4c0.8,0,2.1,0.1,2.1,1c0,0.8-0.9,1.1-1.7,1.1c-0.9,0-1.8-0.1-2.6-0.1
		c-0.6,0-1.5-0.3-1.5-1c0-0.7,0.9-1,1.5-1.1C57.2,27.1,57.2,25.1,57.2,23.1z"/>
	<path d="M61.7,25.9c0-2.1,1.2-5.3,4.3-5.3c1.2,0,2.1,1,2.1,1.9c0,0.5-0.7,0.7-1.1,0.7c-0.3,0-0.6-0.2-0.7-0.4c0,0,0-0.1-0.1-0.1
		s-0.1-0.1-0.1-0.1c0-0.1-0.1-0.1-0.2-0.1c0,0-0.1,0-0.3,0c-0.1,0-0.2,0.1-0.3,0.2c-1.2,0.8-1.5,2-1.5,3.3c0,1.3,0.7,3.2,2.4,3.2
		c0.7,0,1.2-0.3,1.8-0.7c0.2-0.2,0.5-0.4,0.7-0.5c0.2-0.2,0.4-0.3,0.6-0.3c0.5,0,0.9,0.3,0.9,0.8c0,1.2-2.7,2.8-4,2.8
		C63.6,31.3,61.7,28.4,61.7,25.9z"/>
	<path d="M74,29.9c0,0.4-0.2,1.4-0.9,1.4c-0.5,0-0.9-0.4-1-0.7c-0.4-1.1-0.5-6.6-0.5-8c0-0.7,0.2-1.2,1.2-1.2c0.3,0,0.6,0.2,0.7,0.5
		c0.3,0.9,0.3,3,0.3,3.9c1.4-1.3,2.7-2.7,4.2-3.9c0.2-0.1,0.4-0.3,0.7-0.3c0.5,0,1,0.5,1,0.9c0,0.4-0.3,0.8-0.6,1.1
		c-1.2,1.2-2.5,2.4-3.7,3.6c0.3,0.1,0.5,0.3,0.7,0.4c0.3,0.2,0.5,0.3,0.7,0.5c0.4,0.2,1,0.4,1.5,0.7c0.5,0.3,0.9,0.6,0.9,1.2
		c0,0.6-0.6,0.7-1.1,0.7c-1.2,0-3.2-1.2-4.2-1.8C73.9,29.2,74,29.5,74,29.9z"/>
	<path d="M86.8,31.2c-0.4,0-0.7-0.3-0.9-0.6c-0.4-0.6-0.4-4.8-0.4-5.7c0-0.3,0-1,0-1.6c0-0.6,0-1.2,0.1-1.5c0.1-0.2,0.2-0.4,0.4-0.5
		c0.3-0.1,2-0.4,2.3-0.4c1.8,0,4.2,1.3,4.2,3c0,0.9-0.8,1.8-1.5,2.4c1.1,0.4,2.4,1.2,2.4,2.4c0,1.6-2.3,2.2-3.7,2.6
		c-0.3,0.1-1.4,0.3-1.7,0.3c-0.3,0-0.7-0.1-0.9-0.3C87,31.2,86.9,31.2,86.8,31.2z M88.4,25.7c0.3-0.2,0.6-0.4,1-0.6
		c0.6-0.4,1.2-0.9,1.2-1.4c0-0.4-1.7-1.2-2.2-1.2c-0.3,0-0.6,0.1-0.9,0.2c0.1,1.2,0.2,2.3,0.2,3.4C87.9,26,88.1,25.9,88.4,25.7z
		 M89.7,29.2c0.4-0.1,0.8-0.2,1.1-0.3c0.3-0.1,0.5-0.2,0.5-0.3c0,0-0.1-0.1-0.3-0.2c-0.1-0.1-0.3-0.2-0.6-0.2
		c-0.8-0.2-1.1-0.2-1.9-0.2c-0.3,0-0.6,0-0.8-0.2c0,0.6,0,1.3,0,1.9C88.1,29.5,88.9,29.4,89.7,29.2z"/>
	<path d="M97.2,30.6c0,0.5-0.6,1.1-1.2,1.1c-0.4,0-0.6-0.2-0.8-0.5c-0.4-0.8-0.6-4.8-0.6-5.8c0-0.9,0-1.8,0.1-2.7
		c-0.2-0.1-0.3-0.3-0.3-0.5c0-1.4,2-1.4,3.1-1.4c2.1,0,4.4,0.9,4.4,3c0,1.5-1.1,2.7-2.6,3.5c0.9,0.6,2.9,2.3,2.9,3.3
		c0,0.4-0.6,0.9-1,0.9c-0.5,0-1.1-0.8-1.4-1.1c-0.7-0.8-1.7-1.5-2.9-1.9C97.1,29.1,97.2,29.9,97.2,30.6z M100,23.8
		c0-0.2-0.1-0.3-0.2-0.4c-0.5-0.6-1.2-0.7-2.1-0.7c-0.3,0-0.7,0-1,0c0.1,1.1,0.2,2.3,0.2,3.4C98,25.8,100,24.8,100,23.8z"/>
	<path d="M107.1,20.9c3.3,0,5.4,2.8,5.4,5.4c0,2.1-1.7,5.1-4.6,5.1c-2.9,0-4.7-3.3-4.7-5.4c0-1.6,1-3.5,2.7-4.3
		C106,21,106.6,20.9,107.1,20.9z M107.4,23c0,0-0.1,0-0.1,0c-0.1,0-0.1,0-0.2,0.1c-0.4,0.2-1,1-1.3,1.5c-0.3,0.4-0.3,0.9-0.3,1.4
		c0,1.4,0.7,3.3,2.6,3.3c1.7,0,2.5-1.8,2.5-3c0-1.6-1.2-2.9-3-3.5C107.5,22.9,107.4,23,107.4,23z"/>
	<path d="M116.9,25.6c0,0,0-0.1,0-0.1s0-0.1,0-0.1c0-0.6,0.3-1,1-1c0.4,0,0.7,0.2,0.9,0.6c0,0.1,0.1,0.2,0.1,0.4
		c0,0.1,0,0.2,0.1,0.3c0.2,0.7,1.3,3,2.1,3.4c0.4-0.7,0.6-1.7,0.6-2.4c0-0.8-0.2-1.8-0.6-2.5c0-0.1-0.2-0.3-0.3-0.4
		c-0.1-0.2-0.2-0.3-0.3-0.4c-0.2-0.3-0.4-0.6-0.4-0.9c0-0.3,0.2-0.9,0.7-0.9c0.5,0,0.9,0.3,1.1,0.6c1.4,1.3,1.8,3.4,1.8,5.1
		c0,1-0.2,2.7-1.1,3.5c-0.3,0.3-0.8,0.7-1.4,0.7c-1.1,0-2.2-1.4-2.7-2.1c-0.3,0.9-0.9,2.2-2.2,2.2c-2.1,0-2.5-5.1-2.5-6.5
		c0-0.9,0-3.3,1.3-3.3c0.7,0,0.9,0.3,0.9,0.9c0,0.8-0.3,1.5-0.3,2.3c0,1.2,0.2,2.9,0.5,4.1C116.7,27.7,116.9,26.7,116.9,25.6z"/>
	<path d="M131.8,24.4c0-0.9-0.2-1.9-0.2-2.8c0-0.6,0.4-1.2,1.2-1.2c0.6,0,0.9,1,1,2c0.1,1,0.1,2.1,0.1,2.4c0,1.2-0.1,6.5-2.3,6.5
		c-0.6,0-1-0.4-1.4-0.7c-1.5-1.5-2.1-3.6-2.6-5.4c-0.3,0.9-0.3,1.9-0.3,2.9c0,0.8,0.2,1.6,0.2,2.4c0,0.5-0.3,1.1-1,1.1
		c-0.7,0-1-0.9-1.1-1.8c-0.1-0.9-0.1-2-0.1-2.4c0-1.5,0.5-3.4,1.2-4.8c0.2-0.3,1-0.8,1.4-0.8c1.1,0,1.7,2.4,1.9,3.3
		c0.3,1.1,0.9,2.9,1.6,3.9C131.8,27.4,131.8,25.9,131.8,24.4z"/>
	<path d="M142.9,29.4c0.1,0.3,0.2,0.6,0.2,0.9s-0.4,1-0.9,1c-1.8,0-2-4.8-2-6.1c0-2,0.2-3.4,2.8-4c0.3-0.1,0.7-0.1,1-0.1
		c0.9,0,3.3,0.3,3.3,1.4c0,0.5-0.5,0.9-1,0.9c-0.1,0-0.3,0-0.4,0c-0.2,0-0.3-0.1-0.5-0.1c-0.4-0.1-0.8-0.2-1.2-0.2
		c-0.9,0-1.3,0.2-1.5,0.6c-0.2,0.3-0.2,0.9-0.2,1.5c0,0.5,0,0.9,0,1.4c0.8,0,1.5,0,2.3,0c0.7,0,2.4,0,2.4,1c0,0.9-1,1.1-1.8,1.1
		c-0.9,0-1.8,0-2.7,0C142.8,28.9,142.8,29.1,142.9,29.4z"/>
	<path d="M151.9,20.9c3.3,0,5.4,2.8,5.4,5.4c0,2.1-1.7,5.1-4.6,5.1c-2.9,0-4.7-3.3-4.7-5.4c0-1.6,1-3.5,2.7-4.3
		C150.7,21,151.4,20.9,151.9,20.9z M152.1,23c0,0-0.1,0-0.1,0c-0.1,0-0.1,0-0.2,0.1c-0.4,0.2-1,1-1.3,1.5c-0.3,0.4-0.3,0.9-0.3,1.4
		c0,1.4,0.7,3.3,2.6,3.3c1.7,0,2.5-1.8,2.5-3c0-1.6-1.2-2.9-3-3.5C152.3,22.9,152.2,23,152.1,23z"/>
	<path d="M160.9,29.9c-0.4,0.7-0.9,1.4-1.3,1.4c-0.5,0-0.9-0.5-0.9-0.9c0-0.9,1.2-3,1.7-3.8c-0.3-0.4-1-1.3-1.7-2.2
		c-0.7-0.9-1.3-1.8-1.3-2.2c0-0.4,0.4-0.9,0.9-0.9c0.4,0,0.9,0.4,1.1,0.8c0.1,0.1,0.2,0.2,0.3,0.3c0.6,0.8,1.2,1.5,1.8,2.3
		c0.2-0.3,0.6-1,1.1-1.6c0.4-0.7,0.9-1.3,1.3-1.5c0.2-0.1,0.6-0.2,0.8-0.2c0.6,0,0.8,0.6,0.8,1c0,0.3-0.2,0.5-0.3,0.7
		c-0.8,1-1.5,2.2-2.3,3.3c0.6,0.8,1.9,2.3,2.7,2.8c0.3,0.2,0.5,0.4,0.5,0.7c0,0.4-0.4,0.9-1,0.9c-0.3,0-0.6-0.2-0.9-0.3
		c-0.6-0.4-1.8-1.7-2.3-2.3C161.5,28.6,161.2,29.3,160.9,29.9z"/>
	<path d="M174.7,26.9c-0.2-1.2-0.3-2.4-0.4-3.6c-0.4,0-0.9,0-1.3,0c-0.7,0-1.7-0.1-1.7-1c0-0.5,0.1-0.9,0.9-0.9
		c1.2,0,2.5-0.1,3.8-0.1c0.9,0,1.7,0.1,2.6,0.1c0.7,0,1.2,0.3,1.2,1c0,0.6-0.1,0.9-0.9,0.9c-0.9,0-1.7-0.1-2.6-0.1
		c0.4,1.9,0.7,3.7,0.7,5.6c0,1.4-0.3,2.5-2.2,2.5c-0.8,0-3.7-0.4-3.7-1.5c0-0.4,0.3-0.9,0.9-0.9c0.2,0,0.4,0,0.6,0.1
		c0.2,0,0.4,0.1,0.6,0.1c0.6,0.1,1.1,0.2,1.7,0.2h0.1C174.9,28.5,174.8,27.7,174.7,26.9z"/>
	<path d="M180.9,25c0-0.4,0-1.4,0.1-2.2c0.1-0.8,0.4-1.6,1.2-1.7h0.3c0.3,0,0.5,0.1,0.6,0.3c0.1,0.2,0.1,0.4,0.1,0.6
		c0,0.1,0,0.3,0,0.5l0,0.9c0,0.2,0,0.3,0,0.5c0,1.1,0.4,5.3,1.9,5.3c0.1,0,0.2,0,0.3-0.1c0.1-0.1,0.1-0.2,0.2-0.3
		c0.6-0.7,0.9-1.6,1-2.5c0.1-0.9,0.1-1.8,0.1-2.7c0-0.5,0-1.1,0-1.6c0-0.5,0.3-1.1,0.9-1.1c0.4,0,0.7,0.1,0.9,0.4
		c0.3,0.4,0.4,3.2,0.4,3.8c0,2.1-0.6,3.9-2.2,5.4c-0.3,0.3-0.8,0.7-1.3,0.7C181.9,31.3,180.9,27.1,180.9,25z"/>
	<path d="M192.4,26.9c0,0.9,0,1.8,0.2,2.7c0,0.2,0,0.4,0,0.6c0,0.5-0.6,0.8-1.1,0.8c-0.6,0-0.9-1-1-1.9c-0.1-1-0.1-2.1-0.1-2.3
		c0-1.2,0.1-5.6,2.3-5.6c0.6,0,1.1,0.5,1.4,1.1c0.1,0.3,0.3,0.6,0.3,0.9c0.1,0.2,0.1,0.4,0.2,0.6c0.3-0.7,0.7-1.8,1.2-2.3
		c0.3-0.4,0.9-0.6,1.4-0.6c2.7,0,2.8,7.1,2.8,8.6c0,0.3,0,0.7-0.1,1.1c-0.2,0.3-0.4,0.6-0.9,0.6c-0.3,0-0.6-0.1-0.8-0.3
		c-0.1-0.2-0.2-0.7-0.3-1.4c0-0.6-0.1-1.5-0.2-2.4c-0.1-1.7-0.3-3.3-0.6-4c-0.3,0.6-0.6,1.2-0.7,1.8c-0.2,0.7-0.3,1.4-0.5,2.1
		c-0.2,0.6-0.6,1-1.4,1c-0.6,0-0.9-0.9-1.2-1.9c-0.1-0.5-0.3-1-0.4-1.5c-0.1-0.3-0.2-0.6-0.3-0.8C192.5,24.9,192.4,26.1,192.4,26.9z
		"/>
	<path d="M204.6,29.7c0,0.6-0.2,1.6-1,1.6c-0.8,0-1.1-1.3-1.2-2.6c-0.2-1.3-0.1-2.7-0.2-3.1c-0.1-1.1-0.2-2.1-0.2-3.1
		c0-0.6,0.1-1.6,1.3-1.4c0.3-0.1,0.5-0.1,0.8-0.1c2.4,0,5.5,1.2,5.5,3.6c0,2-3.2,3.1-5.1,3.1C204.5,28.4,204.6,29,204.6,29.7z
		 M204.3,25.9c0.6,0,1.1-0.1,1.6-0.3c0.5-0.2,1.6-0.9,1.6-1.3c0-0.7-2.6-1.4-3.3-1.4H204L204.3,25.9z"/>
	<path d="M211.6,29.1c0.1,0,0.3,0,0.4,0c0.1,0,0.3,0.1,0.4,0.1c0.3,0,0.5,0.1,0.8,0.1c0.2,0,0.5,0,0.8-0.1c0.1,0,0.3,0,0.4-0.1
		c0.1,0,0.1-0.1,0.1-0.2c-0.2-0.2-0.5-0.4-0.9-0.6c-0.3-0.2-0.7-0.3-0.9-0.5c-1.4-0.8-2.4-2.1-2.4-3.6c0-1.6,1.7-3.3,3.7-3.3
		c1.1,0,2.1,0.3,2.1,1.4c0,0.5-0.3,0.7-0.8,0.7c-0.1,0-0.7-0.1-0.8-0.2c-0.1,0-0.1,0-0.2,0c0,0-0.1,0-0.1,0c-0.1,0-0.1,0-0.2,0
		c-1,0.3-1.6,0.6-1.6,1.6c0,0.9,1,1.5,2.1,2.1c0.3,0.2,0.5,0.3,0.8,0.5c0.6,0.3,1.4,1,1.4,1.7c0,1.5-1.8,2.5-3.4,2.5
		c-0.9,0-2.7-0.4-2.7-1.5C210.6,29.6,211.1,29.1,211.6,29.1z"/>
	<path d="M226,20.9c3.3,0,5.4,2.8,5.4,5.4c0,2.1-1.7,5.1-4.6,5.1c-2.9,0-4.7-3.3-4.7-5.4c0-1.6,1-3.5,2.7-4.3
		C224.9,21,225.5,20.9,226,20.9z M226.2,23c0,0-0.1,0-0.1,0c-0.1,0-0.1,0-0.2,0.1c-0.4,0.2-1,1-1.3,1.5c-0.3,0.4-0.3,0.9-0.3,1.4
		c0,1.4,0.7,3.3,2.6,3.3c1.7,0,2.5-1.8,2.5-3c0-1.6-1.2-2.9-3-3.5C226.4,22.9,226.3,23,226.2,23z"/>
	<path d="M236.4,25.8c0.3-0.8,0.6-1.6,1-2.4c0.1-0.3,0.3-0.6,0.4-0.9c0.1-0.3,0.3-0.6,0.6-0.9c0.2-0.2,0.4-0.3,0.8-0.3
		c0.6,0,0.9,0.4,0.9,0.9c0,0.3,0,0.5-0.1,0.8c-0.1,0.3-0.3,0.5-0.3,0.7c-0.8,1.6-1.4,3.2-1.8,4.9c-0.1,0.3-0.2,0.8-0.3,1.3
		c-0.2,0.9-0.5,1.6-1.5,1.6c-1.3,0-2.6-3.8-2.9-4.8c-0.2-0.5-1.2-4.2-1.2-4.5c0-0.4,0.5-0.9,1-0.9c0.3,0,0.6,0.3,0.6,0.5
		c0.1,0.1,0.2,0.3,0.2,0.5c0.5,1.5,1,3.1,1.5,4.6c0.2,0.4,0.3,0.9,0.4,1.3C235.9,27.3,236.1,26.5,236.4,25.8z"/>
	<path d="M241.6,24.1c0-0.7,0.1-1.5,0.3-1.8v-0.1c0-0.2,0.1-0.4,0.3-0.6c0.2-0.1,1-0.1,1.9-0.1c0.8,0,1.7,0,2,0c0.3,0,0.5,0,0.8,0
		c0.3,0,0.5,0,0.7,0.1c0.5,0.1,0.8,0.4,0.8,1c0,0.6-0.7,0.8-1.3,0.8c-1.2,0-2.3,0-3.4-0.1c0,0.2,0,0.3,0,0.5c0,0.6,0,1.1,0,1.6
		c0.9-0.1,1.7-0.3,2.6-0.3c0.6,0,1.7,0.3,1.7,1c0,0.6-0.9,0.9-1.9,1c-0.9,0.1-1.9,0.1-2.4,0.2c0,0.1,0,0.3,0,0.4
		c0,0.6,0.1,1.6,1,1.6c0.5,0,1-0.3,1.6-0.5c0.3-0.1,0.6-0.2,0.8-0.3c0.3-0.1,0.5-0.2,0.8-0.2c0.5,0,1.2,0.4,1.2,0.9
		c0,0.3-0.5,0.7-1,1c-0.5,0.3-1.2,0.5-1.5,0.7c-0.6,0.2-1.1,0.4-1.8,0.4c-1.9,0-3.1-1.4-3.2-3.2c-0.1-0.7,0-1.5,0-2.1v0
		C241.6,25.6,241.6,24.8,241.6,24.1z"/>
	<path d="M252.9,30.6c0,0.5-0.6,1.1-1.2,1.1c-0.4,0-0.6-0.2-0.8-0.5c-0.4-0.8-0.6-4.8-0.6-5.8c0-0.9,0-1.8,0.1-2.7
		c-0.2-0.1-0.3-0.3-0.3-0.5c0-1.4,2-1.4,3.1-1.4c2.1,0,4.4,0.9,4.4,3c0,1.5-1.1,2.7-2.6,3.5c0.9,0.6,2.9,2.3,2.9,3.3
		c0,0.4-0.6,0.9-1,0.9c-0.5,0-1.1-0.8-1.4-1.1c-0.7-0.8-1.7-1.5-2.9-1.9C252.9,29.1,252.9,29.9,252.9,30.6z M255.8,23.8
		c0-0.2-0.1-0.3-0.2-0.4c-0.5-0.6-1.2-0.7-2.1-0.7c-0.3,0-0.7,0-1,0c0.1,1.1,0.2,2.3,0.2,3.4C253.7,25.8,255.8,24.8,255.8,23.8z"/>
	<path d="M264.4,23.4c-0.6,0-1.1-0.3-1.1-0.9c0-0.5,0.1-0.8,0.8-0.9c1.5-0.3,2.1-0.3,3.6-0.3c0.4,0,1.2,0,1.9,0
		c0.7,0.1,1.4,0.3,1.4,0.9c0,0.7-0.5,0.9-1.2,1c-0.3,0-0.6,0-1,0c-0.3,0-0.6,0-0.8,0c0.2,2.3,0.2,4.6,0.5,6.9c0,0.7-0.3,1.2-1.1,1.2
		c-0.3,0-0.6-0.2-0.7-0.4c-0.3-0.5-0.5-2.1-0.6-3.7s0-3.2-0.1-3.9C265.5,23.3,264.9,23.4,264.4,23.4z"/>
	<path d="M274.6,29c0,0.7-0.2,1.7-1.1,1.7c-0.3,0-0.5-0.1-0.7-0.3c-0.4-0.3-0.5-1.8-0.6-3.3c0-1.5,0-3,0-4.4c0-0.2,0-0.4,0.1-0.6
		c0.2-0.5,0.5-0.8,1.2-0.8c0.3,0,0.5,0.1,0.6,0.3c0.2,0.3,0.3,1.2,0.3,2.1c0,0.9,0,1.7,0,2.1c0.7-0.2,1.5-0.2,2.2-0.2
		c0.5,0,1,0,1.5,0.1c0-1.1,0.1-2.2,0.1-3.3c0-0.8,0.2-1.4,1.3-1.4c0.5,0,0.7,0.8,0.8,1.5c0.1,0.8,0,1.6,0,1.8c0,0.7,0,1.4,0,2.1
		c0.1,0.1,0.1,0.3,0.1,0.4c0,0.2-0.1,0.3-0.2,0.4c0,0.2,0,0.5,0,0.7c0,0.1,0,0.3,0,0.4v0.8c0,0.1,0,0.3,0,0.4c0,0.9-0.1,1.9-1.3,1.9
		c-0.5,0-0.7-0.6-0.9-1.1c-0.1-0.6-0.1-1.2-0.1-1.5c0-0.4,0-0.8,0-1.2c-0.4,0-0.9,0-1.3,0c-0.8,0-1.5,0-2.2,0.1
		C274.6,28.1,274.6,28.6,274.6,29z"/>
	<path d="M282,24.1c0-0.7,0.1-1.5,0.3-1.8v-0.1c0-0.2,0.1-0.4,0.3-0.6c0.2-0.1,1-0.1,1.9-0.1c0.8,0,1.7,0,2,0c0.3,0,0.5,0,0.8,0
		c0.3,0,0.5,0,0.7,0.1c0.5,0.1,0.8,0.4,0.8,1c0,0.6-0.7,0.8-1.3,0.8c-1.2,0-2.3,0-3.4-0.1c0,0.2,0,0.3,0,0.5c0,0.6,0,1.1,0,1.6
		c0.9-0.1,1.7-0.3,2.6-0.3c0.6,0,1.7,0.3,1.7,1c0,0.6-0.9,0.9-1.9,1c-0.9,0.1-1.9,0.1-2.4,0.2c0,0.1,0,0.3,0,0.4
		c0,0.6,0.1,1.6,1,1.6c0.5,0,1-0.3,1.6-0.5c0.3-0.1,0.6-0.2,0.8-0.3c0.3-0.1,0.5-0.2,0.8-0.2c0.5,0,1.2,0.4,1.2,0.9
		c0,0.3-0.5,0.7-1,1c-0.5,0.3-1.2,0.5-1.5,0.7c-0.6,0.2-1.1,0.4-1.8,0.4c-1.9,0-3.1-1.4-3.2-3.2c-0.1-0.7,0-1.5,0-2.1v0
		C282,25.6,282,24.8,282,24.1z"/>
	<path d="M298,29.1c0.3,0,0.5,0,0.8,0c0.1,0,0.2,0,0.3,0l0.6,0c0.1,0,0.2,0,0.3,0c0.8,0,1.5,0.2,1.5,1c0,1.2-1.7,1.2-2.6,1.2h-1.3
		c-2.1,0-2.6-1.3-2.6-2.8c0-1.9,0.4-3.9,0.4-5.8c0-0.3,0-0.6,0.1-0.8c0.1-0.3,0.4-0.6,0.8-0.6c0.6,0,0.9,0.3,1,0.7
		c0.1,0.2,0.1,0.4,0.1,0.6s0,0.4,0,0.6c0,1.8-0.2,3.5-0.2,5.3c0,0.2,0,0.4,0,0.6C297.5,29.1,297.7,29.1,298,29.1z"/>
	<path d="M305.3,30.3c-0.2,0.6-0.5,1.1-1,1.1c-0.6,0-1-0.7-1-1.2c0-1,1.8-8.6,2.4-9.1c0.2-0.1,0.6-0.3,0.9-0.3
		c0.2,0,0.3,0.1,0.5,0.2c0.9,0.9,4.2,8.4,4.2,9.3c0,0.4-0.3,1.1-1,1.1c-0.5,0-1-0.6-1.1-0.9l-0.7-1.8c-0.5,0-0.9,0.1-1.4,0.1
		c-0.5,0-0.9,0.1-1.4,0C305.5,29.2,305.4,29.8,305.3,30.3z M306.6,24.6L306,27c0.5-0.1,1.1-0.1,1.6-0.1L306.6,24.6z"/>
	<path d="M317.4,28.9c0.7,0,1.3,0.2,1.3,0.9s-0.8,1-1.5,1c-1.4,0-2.7,0.4-4.2,0.4c-0.9,0-1.5-0.7-1.5-1.5c0-0.3,0.1-0.6,0.3-0.9
		c0.2-0.3,0.4-0.7,0.6-1c0.2-0.3,0.5-0.6,0.7-1c0.8-1.1,1.5-2.2,2.3-3.3c-0.9,0.1-1.7,0.1-2.6,0.1c-0.9,0-1.6-0.1-1.6-1.1
		c0-0.6,0.3-0.7,0.9-0.8c1.5-0.1,3-0.2,4.5-0.2c1,0,1.8,0.1,1.8,1.2c0,0.2,0,0.4-0.1,0.6c-0.1,0.2-0.2,0.4-0.3,0.6
		c-0.1,0.2-0.3,0.4-0.4,0.6c-1.1,1.6-2.2,3.1-3.3,4.7C315.2,29.1,316.3,28.9,317.4,28.9z"/>
	<path d="M320.3,23.9c-0.2-0.3-1-1.6-1-1.8c0-0.4,0.6-0.9,1-0.9c0.3,0,0.5,0.1,0.6,0.3c0.4,0.3,0.8,0.9,1,1.3c0.5,0.6,1,1.3,1.6,1.9
		c0.2-0.4,0.6-1.3,1.1-2.1c0.5-0.9,1.2-1.8,1.5-1.8c0.6,0,1.1,0.5,1.1,1c0,0.4-0.8,2.1-1.7,3.8c-0.9,1.7-1.9,3.5-2.2,4.1
		c-0.2,0.2-0.3,0.5-0.4,0.8c-0.2,0.3-0.3,0.5-0.6,0.7c-0.2,0.1-0.3,0.3-0.6,0.3c-0.6,0-0.9-0.6-0.9-0.9c0-0.6,1.3-3.1,1.7-3.8
		C321.6,25.8,320.8,24.8,320.3,23.9z"/>
	<path d="M334.4,31.1c-0.4,0-0.9-0.3-1-0.6c-0.4-0.9-0.5-7.1-0.5-8.2c0-0.6,0.1-1.5,1.2-1.5c2,0,6.7,3.5,6.7,5.9
		c0,2.4-3,4.1-5.1,4.6c-0.1,0-0.2,0-0.3,0c-0.3,0-0.5-0.1-0.7-0.3C334.6,31.1,334.5,31.1,334.4,31.1z M338.7,27.2
		c0-1.8-1.9-3.3-3.6-4.1c0.2,2.1,0.3,4.2,0.3,6.3C336.3,29,338.7,27.9,338.7,27.2z"/>
	<path d="M345.8,20.9c3.3,0,5.4,2.8,5.4,5.4c0,2.1-1.7,5.1-4.6,5.1c-2.9,0-4.7-3.3-4.7-5.4c0-1.6,1-3.5,2.7-4.3
		C344.7,21,345.3,20.9,345.8,20.9z M346,23c0,0-0.1,0-0.1,0c-0.1,0-0.1,0-0.2,0.1c-0.4,0.2-1,1-1.3,1.5c-0.3,0.4-0.3,0.9-0.3,1.4
		c0,1.4,0.7,3.3,2.6,3.3c1.7,0,2.5-1.8,2.5-3c0-1.6-1.2-2.9-3-3.5C346.2,22.9,346.1,23,346,23z"/>
	<path d="M356.6,29.2c0.8,0,2.3-0.7,2.3-1.5c0-0.2-0.1-0.3-0.3-0.3c-0.3,0-0.7,0.2-1,0.4c-0.2,0.1-0.3,0.2-0.5,0.3
		c-0.1,0.1-0.3,0.1-0.4,0.1c-0.6,0-0.9-0.6-0.9-1c0-0.9,1.8-1.8,2.7-1.8c1.5,0,2.5,1.1,2.5,2.2c0,1.6-2.3,3.6-4.1,3.6
		c-2.4,0-4.1-2.8-4.1-4.6c0-1.6,0.3-2.8,1.4-4.2c0.7-0.8,1.7-1.7,3-1.7s2.3,0.7,2.3,1.8c0,0.5-0.4,0.8-1,0.8c-0.4,0-0.6-0.2-0.8-0.4
		c0,0-0.1-0.2-0.2-0.3c0,0-0.1-0.1-0.2-0.1c0,0-0.1,0-0.1,0c-0.6,0.1-1.4,1-1.6,1.5c-0.4,0.7-0.7,1.5-0.7,2.3c0,0.6,0.1,1.1,0.5,1.6
		c0.1,0.1,0.2,0.2,0.3,0.3C355.8,28.9,356.1,29.2,356.6,29.2z"/>
</g>
</svg>
