<?xml version="1.0" encoding="utf-8"?>
<!-- Generator: Adobe Illustrator 26.1.0, SVG Export Plug-In . SVG Version: 6.00 Build 0)  -->
<svg version="1.1" id="Layer_1" xmlns="http://www.w3.org/2000/svg" xmlns:xlink="http://www.w3.org/1999/xlink" x="0px" y="0px"
	 viewBox="0 0 372 36.9" style="enable-background:new 0 0 372 36.9;" xml:space="preserve">
<rect width="372" height="36.9" fill="white"/>
<g>
	<path d="M11,7.2c-0.6,2.4-0.7,4.8-1.2,7.1c-0.1,0.5-0.8,0.9-1.4,0.9c-0.3,0-0.4-0.1-0.6-0.3c-0.2-0.5,0-2.1,0.3-3.8
		c0.3-1.6,0.7-3.3,0.9-4C8.4,7.2,7.8,7.3,7.2,7.3c-0.6,0-1.1-0.4-0.9-0.9C6.3,6,6.6,5.8,6.9,5.7c1.2-0.4,5.2-0.6,6.5-0.6
		c1,0,1.5,0.2,1.2,1.2c-0.1,0.5-0.9,0.8-1.5,0.8c-0.3,0-0.7-0.1-1.1-0.1S11.4,7,11,7L11,7.2z"/>
	<path d="M19.5,11.9c-0.9,0-1.8,0.1-2.7,0.2c-0.2,0.8-0.4,1.5-0.6,2.3c-0.1,0.5-0.6,1.2-1.3,1.2c-0.5,0-0.7-0.3-0.7-0.7
		c0-0.3,0-0.8,0.1-1.1c0.4-1.8,1.5-6.9,2.2-8.2c0.3-0.4,0.6-0.6,1.2-0.6c0.9,0,0.7,0.6,0.6,1.1c-0.3,1.3-0.6,2.7-1,4
		c0.4-0.1,0.9-0.1,1.4-0.2c0.5,0,0.9,0,1.4,0c0.3-1.1,0.5-2.2,0.7-3.4C20.9,5.7,21.2,5,22.3,5c0.6,0,0.6,1.2,0.3,2.4
		c-0.2,1.2-0.6,2.4-0.6,2.8c-0.3,1.2-0.3,2.5-0.6,3.7c-0.1,0.5-0.6,1.2-1.4,1.2c-0.4,0-0.7-0.3-0.8-0.6c-0.1-0.2,0-0.7,0-1.3
		C19.4,12.7,19.5,12.1,19.5,11.9L19.5,11.9z"/>
	<path d="M26,13.1c0.1,0.1,0.3,0.1,0.4,0.1c0.4,0,0.8-0.1,1.2-0.3c0.2,0,0.4-0.1,0.6-0.2c0.2,0,0.4,0,0.6,0c0.5,0,0.8,0.4,0.7,0.8
		c-0.2,1-2.2,1.7-3.2,1.7c-3.1,0-3.2-3.4-2.7-5.5C23.8,9,25,5.9,25.8,5.4c0.2-0.1,0.4-0.1,0.6-0.1c0.2,0,2.7-0.1,3.1-0.1
		c0.3,0,0.5,0,0.7,0c0.2,0,0.4,0,0.6,0.1c0.3,0.2,0.5,0.4,0.4,0.9C31,6.8,30.7,7,30.3,7.1c-0.2,0-0.4,0.1-0.6,0.1
		c-0.2,0-0.4,0-0.6,0c-0.1,0-0.3,0-0.3,0l-0.7,0c-0.1,0-0.2,0-0.3,0c-0.4,0-0.8,0-1.2,0C26.3,7.8,26,9,25.8,9.6
		c1-0.2,2.1-0.2,3.1-0.2c0.8,0,1.5,0.3,1.4,1.1c-0.1,0.6-0.8,1-1.5,1c-0.3,0-0.5-0.1-0.8-0.1c-0.8,0-1.6,0-2.4,0.1
		C25.7,12,25.8,12.9,26,13.1z"/>
	<path d="M40.4,15.3c-3.5,0-4.9-3.1-4.2-5.7c0.4-1.8,2.8-4.8,5.2-4.8c0.4,0,1,0.1,1,0.6c2.9,0.4,3.6,2.7,3.1,5
		c-0.2,0.9-0.7,1.8-1.4,2.6c0.2,0.2,0.5,0.5,0.8,0.8c0.3,0.3,0.5,0.7,0.5,1c-0.1,0.3-0.6,0.9-1.1,0.9c-0.7,0-1.5-0.8-1.8-1.2
		C41.9,15,41.1,15.3,40.4,15.3z M40.2,11.7c-0.3-0.6-0.6-1.2-0.5-1.8c0.1-0.5,0.8-0.8,1.3-0.8c0.3,0,0.5,0.2,0.6,0.4
		c0.3,0.7,0.8,1.5,1.3,2.1c0.3-0.6,0.5-1.1,0.6-1.7c0.3-1.2-0.2-2.3-1.5-2.6c-0.2,0-0.5-0.1-0.8-0.3c-0.3-0.1-0.5-0.2-0.6-0.4
		c-1,0.6-2.2,2-2.4,2.9c-0.3,1.4,0.2,3.6,2.1,3.6c0.3,0,0.6,0,0.9-0.1C41,12.8,40.5,12.3,40.2,11.7z"/>
	<path d="M47,9.3c0.2-1,0.9-3.9,2.1-4h0.3c0.6,0,0.8,0.3,0.7,0.7c-0.2,0.9-0.6,1.7-0.8,2.6C49.2,9,49.1,9.5,49,9.9
		c-0.1,0.8-0.2,3.2,1,3.2c1.8,0,2.8-4.9,3-6.3c0-0.2,0.1-0.5,0.3-0.7c0.2-0.4,0.5-0.8,1.1-0.8c0.5,0,0.7,0.4,0.7,0.9
		c0,0.4-0.1,0.9-0.2,1.2c-0.4,2-1.9,7.8-5.4,7.8C46.7,15.2,46.6,11.1,47,9.3z"/>
	<path d="M55.6,14.6c0-0.1,0-0.2-0.1-0.3c0-0.2,1-5.6,1.2-6.2c0.1-0.5,0.4-1.9,0.7-2.3c0.3-0.4,0.8-0.6,1.3-0.6
		c0.5,0,0.6,0.4,0.5,0.9c0,0.4-0.2,0.9-0.2,1.2c-0.4,1.8-0.7,3.7-1.1,5.6c-0.1,0.5-0.1,1.1-0.2,1.5c-0.1,0.4-0.8,1-1.3,1
		c-0.3,0-0.5-0.2-0.6-0.4C55.7,14.8,55.6,14.7,55.6,14.6z"/>
	<path d="M59.9,10.2C60.2,8.9,61,7.5,62,6.4C63.3,5,64.2,5,65.9,5c1,0.1,1.9,1.5,1.7,2.4c-0.1,0.4-0.8,0.9-1.2,0.9
		c-0.2,0-0.3-0.1-0.5-0.2c0-0.1-0.1-0.2-0.1-0.2c0-0.1-0.1-0.2-0.1-0.3c-0.2-0.3-0.5-0.7-1.2-0.7c-0.7,0-1.7,1.5-2,2.1
		c-0.3,0.5-0.4,1-0.6,1.5c-0.2,0.9,0.7,3,1.8,3c0.3,0,0.7-0.2,1.1-0.3c0.2-0.1,0.4-0.2,0.6-0.3c0.2,0,0.4-0.1,0.6-0.1
		c0.5,0,0.9,0.3,0.8,0.7c-0.3,1-2.2,2-3.3,2c-2.2,0-3.6-2.2-3.7-3.8C59.7,11.3,59.8,10.8,59.9,10.2z"/>
	<path d="M70.1,14.7c-0.1,0.4-0.7,1-1.3,1c-0.7,0-0.8-0.6-0.8-1.3c0-0.7,0.3-1.4,0.3-1.8c0.1-0.3,0.2-0.6,0.3-1l0.4-2
		c0.3-1.1,0.5-2.1,0.8-3.3c0.1-0.6,0.5-1.4,1.5-1.4c0.6,0,0.8,0.3,0.7,0.8c-0.1,0.3-0.2,0.6-0.3,0.9c-0.2,1-0.4,2-0.6,3
		c0.9-0.8,1.9-1.5,2.7-2.3c0.6-0.6,1.2-1.2,1.8-1.7C76,5.4,76.5,5.2,77,5.2c0.6,0,0.6,0.5,0.6,0.9c0,0.2-0.1,0.3-0.2,0.5
		c-0.3,0.6-4.1,3.8-4.9,4.4c0.4,0.2,0.7,0.5,1.1,0.7c0.1,0.1,0.4,0.2,0.6,0.3c0.3,0.1,0.6,0.3,0.9,0.4c0.6,0.3,1,0.6,0.9,1.1
		c-0.1,0.5-0.7,1-1.3,1c-0.8,0-1.5-0.3-2.2-0.7c-0.3-0.2-0.7-0.4-1-0.6c-0.3-0.2-0.6-0.3-0.9-0.5C70.4,13.4,70.2,14,70.1,14.7z"/>
	<path d="M89,12.5c-0.3,1.5-4,3-5.5,3c-0.7,0-1-0.3-1.2-0.9c-0.2-0.7,0.9-6.8,1.1-8c0.1-0.5,0.5-1.4,1.4-1.4c0.1,0,0.3,0,0.3,0.1
		C85.7,5.1,86.3,5,86.8,5c2,0,3,0.8,2.6,2.6c-0.2,0.9-1.6,2.2-2.5,2.9C88.1,10.6,89.2,11.3,89,12.5z M84.5,13.3
		c0.7-0.1,1.4-0.3,2-0.6c0.2-0.1,0.3-0.2,0.3-0.3c0,0,0,0-0.1-0.1c-0.1,0-0.2,0-0.3,0c-0.3,0-0.5,0-0.6,0c-0.3,0-0.7,0-1.1,0
		L84.5,13.3z M85,9.7c0.9-0.6,2.2-1.7,2.4-2.4c0-0.1,0-0.3-0.3-0.3c-0.2-0.1-0.4-0.1-0.6-0.1c-0.3,0-0.8,0-1.2,0.2L85,9.7z"/>
	<path d="M92.1,14.3c-0.1,0.6-0.6,1.2-1.4,1.2c-0.4,0-0.6-0.2-0.7-0.5c-0.1-0.2-0.1-0.5-0.1-0.7c0-0.4,0.1-0.9,0.2-1.3
		c0.1-0.4,0.2-0.9,0.3-1.3c0.3-1.7,0.6-3.3,1-5c0-0.1,0-0.2,0-0.3c0.3-1,1.3-1.1,2.1-1.1c2.5,0,5.2,1.2,4.7,3.6
		c-0.3,1.5-1.5,2.6-3.1,3.2c0.6,0.5,1.9,1.7,1.8,2.4c-0.1,0.4-0.7,1.1-1.2,1.1c-0.3,0-0.5-0.2-0.6-0.3c-0.1-0.2-0.3-0.3-0.4-0.4
		c-0.4-0.6-1.4-1.1-2.1-1.5C92.2,13.5,92.2,13.9,92.1,14.3z M92.7,10.8c1.2-0.1,3.1-1,3.4-2.2V8.5C96.2,7.7,94.1,7,93.3,7h-0.1
		L92.7,10.8z"/>
	<path d="M101.5,5.9c0.1-0.6,0.8-0.8,1.4-0.8c0.3,0,0.8,0,1.3,0.1c0.5,0.1,1,0.3,1,0.6c1.6,1,1.8,3.6,1.3,5.4
		c-0.4,1.7-2.3,4.2-4.6,4.2c-1.2,0-1.9-0.4-2.6-1.1c-1-1-0.9-2.9-0.6-4.4c0.3-1.4,1.5-2.8,2.8-3.8C101.5,6,101.5,6,101.5,5.9z
		 M100.7,10.6c-0.3,1,0.1,2.7,1.5,2.7c1.7,0,2.2-1.7,2.5-2.9c0.3-1.1-0.1-3-1.5-3.3C101.8,7.8,101,9.4,100.7,10.6z"/>
	<path d="M111.2,9.8c0-0.1,0-0.3,0.1-0.4c0-0.1,0.1-0.3,0.2-0.4c0.2-0.4,0.9-0.8,1.3-0.8c0.4,0,0.6,0.2,0.6,0.5c0,0.2,0,0.5,0,0.9
		s0,0.9,0,1.3c0,0.9,0,1.6,0.3,1.9c0.8-0.8,1.5-2.6,1.8-3.6c0.1-0.6,0-1.1,0-1.6c0-0.3,0-0.5-0.1-0.7c0-0.3,0-0.5,0.1-0.7
		c0.1-0.4,0.5-0.8,1-0.8c0.3,0,0.5,0.1,0.7,0.2c0.9,0.6,0.2,3.9,0,4.9c-0.3,1.3-2.1,4.4-4.1,4.4c-0.9,0-1.4-1-1.6-1.6
		c-0.5,0.7-1.4,1.6-2.4,1.6s-1.4-1.6-1.4-2.4c-0.1-0.6,0-1.2,0.1-1.9c0.3-1,1.3-4,2.1-4.8c0.2-0.3,0.6-0.4,0.9-0.4
		c0.6,0,1,0.4,0.9,0.9c0,0.2-0.1,0.4-0.3,0.6c-0.7,0.8-1.1,2.3-1.3,3.3c-0.2,0.7-0.3,1.6-0.3,2.4C110.3,11.6,110.8,10.7,111.2,9.8z"
		/>
	<path d="M121.1,10.5c-0.3,1.2-0.4,2.4-0.7,3.6c0,0.3-0.1,0.6-0.3,0.9c-0.2,0.3-0.5,0.6-0.9,0.6c-0.6,0-0.8-0.7-0.8-1.4
		c0.1-1.9,1.1-5.1,1.8-6.7c0.3-0.6,0.6-1.4,1.5-1.5c0.1,0,0.2,0,0.3,0c0.4,0,0.6,0.1,0.7,0.4c0.1,0.3,0.2,0.6,0.3,1
		c0.2,0.6,0.3,1.3,0.5,2c0.3,1.2,0.6,2.2,1,3.3c0.3-0.7,0.5-1.4,0.6-2c0.3-1.4,0.5-2.8,0.4-4.2l0-0.4c0-0.1,0-0.3,0-0.4
		c0.1-0.5,0.8-0.8,1.3-0.8c0.5,0,0.6,0.4,0.7,0.7c0.2,1.1,0,4-0.2,5.1c-0.3,1.3-0.7,2.7-1.8,3.9c-0.3,0.3-0.8,0.8-1.3,0.8
		c-1,0-1.6-1.2-2.1-2.5c-0.3-1.2-0.6-2.4-0.7-3.2C121.2,9.9,121.2,10.2,121.1,10.5z"/>
	<path d="M136.3,10c0.6,0,1.3,0,2,0c0.7,0,1.7,0.3,1.5,1c-0.2,1-1.5,1.1-2.3,1.1c-0.8,0-1.6,0-2.4,0c0,0.2,0,0.3,0,0.5s0,0.4,0,0.6
		c0,0.4,0.1,0.8,0,1.2c-0.1,0.3-0.8,1-1.2,1c-0.8,0-1-1.1-1-2.2c0-1.2,0.2-2.4,0.3-2.9c0.9-3.5,1.4-5.3,5.6-5.3
		c0.9,0,2.4,0.1,2.1,1.2c-0.1,0.5-0.6,0.8-1.2,0.8c-0.6,0-1.1-0.1-1.6-0.1c-0.5,0-1.2,0-1.6,0.3c-0.4,0.3-0.9,2.2-1.1,2.8H136.3z"/>
	<path d="M143.7,5.9c0.1-0.6,0.8-0.8,1.4-0.8c0.3,0,0.8,0,1.3,0.1c0.5,0.1,1,0.3,1,0.6c1.6,1,1.8,3.6,1.3,5.4
		c-0.4,1.7-2.3,4.2-4.6,4.2c-1.2,0-1.9-0.4-2.6-1.1c-1-1-0.9-2.9-0.6-4.4c0.3-1.4,1.5-2.8,2.8-3.8C143.7,6,143.7,6,143.7,5.9z
		 M142.8,10.6c-0.3,1,0.1,2.7,1.5,2.7c1.7,0,2.2-1.7,2.5-2.9c0.3-1.1-0.1-3-1.5-3.3C143.9,7.8,143.1,9.4,142.8,10.6z"/>
	<path d="M150.9,14.9c-0.2,0.2-0.4,0.4-0.8,0.4c-0.6,0-1.1-0.2-0.9-0.9c0.1-0.4,0.7-1.2,1.4-2c0.6-0.8,1.4-1.5,1.7-1.9
		c-0.5-0.9-2-3.7-1.8-4.5c0.1-0.5,0.9-0.9,1.4-0.9c0.4,0,0.6,0.2,0.6,0.6c0.3,1.1,0.8,2.2,1.4,3.2c0.6-0.8,2.8-3.1,3.6-3.6
		c0.2-0.1,0.3-0.1,0.5-0.1c0.5,0,0.9,0.3,0.9,0.8c0,0.2-0.9,1.2-1.8,2.2c-0.9,1-1.8,2-2.1,2.3c0.3,0.3,0.8,0.9,1.3,1.6
		c0.5,0.7,0.9,1.4,0.8,1.8c-0.1,0.4-0.6,0.9-1.1,0.9c-0.5,0-1-0.5-1.5-1.1c-0.4-0.5-0.8-1.1-1-1.4C152.6,13,151.8,14.1,150.9,14.9z"
		/>
	<path d="M165.4,7.2c-0.6,0-1.2-0.2-1.1-0.8c0.1-0.4,0.4-0.9,1-1.1c1.1-0.3,4.4-0.4,5.6-0.4c0.4,0,1,0,1.5,0.1
		c0.5,0.1,1,0.4,0.9,0.9c-0.1,0.6-0.8,0.9-1.5,0.9C171.2,7,170.7,7,170.1,7c0,1.9-0.4,3.8-0.9,5.6c-0.1,0.3-0.3,0.6-0.4,0.9
		c-0.6,0.9-1.5,1.8-2.8,1.8c-1.3,0-2.2-0.5-2.6-1.4c0-0.1,0-0.2-0.1-0.3c0-0.1,0-0.2,0-0.3c0.1-0.3,0.5-0.8,0.9-0.8
		c0.1,0,0.3,0,0.4,0.1c0.2,0,0.3,0.2,0.5,0.3c0.3,0.2,0.8,0.3,1.2,0.3c0.3,0,0.4-0.1,0.5-0.4c0.2-0.5,0.3-0.9,0.4-1.4
		c0.3-1.5,0.5-2.9,0.7-4.4C167.1,7.2,166.2,7.2,165.4,7.2z"/>
	<path d="M173.6,9.3c0.2-1,0.9-3.9,2.1-4h0.3c0.6,0,0.8,0.3,0.7,0.7c-0.2,0.9-0.6,1.7-0.8,2.6c-0.1,0.4-0.2,0.9-0.3,1.3
		c-0.1,0.8-0.2,3.2,1,3.2c1.8,0,2.8-4.9,3-6.3c0-0.2,0.1-0.5,0.3-0.7c0.2-0.4,0.5-0.8,1.1-0.8c0.5,0,0.7,0.4,0.7,0.9
		c0,0.4-0.1,0.9-0.2,1.2c-0.4,2-1.9,7.8-5.4,7.8C173.3,15.2,173.2,11.1,173.6,9.3z"/>
	<path d="M184.1,11.4c-0.1,0.6-0.2,1.2-0.2,1.8c0,0.1,0.1,0.3,0.1,0.5s0.1,0.4,0,0.5c-0.1,0.5-0.7,0.9-1.3,0.9
		c-0.6,0-0.8-0.9-0.8-1.8c0-1.8,0.9-5.3,1.8-6.6c0.5-0.6,0.9-1,1.7-1.2c0.2,0,0.4-0.1,0.6-0.1c0.9,0,1.4,1.2,1.5,1.9
		c0.6-0.9,1.5-1.8,2.8-1.8c0.3,0,0.7,0.1,1,0.3c0.9,0.6,0.9,3.2,0.8,4.2c-0.1,1.2-0.4,2.4-0.6,3.5c-0.1,0.7-0.6,1.7-1.4,1.7
		c-0.3,0-0.5,0-0.6-0.2c-0.3-0.4-0.2-1.2-0.1-2.1c0.2-0.9,0.4-1.8,0.4-2.3c0.1-0.6,0.1-1.2,0.1-1.8c0-0.3,0-0.9-0.2-1.2
		c-1.2,1.4-1.8,3-2.1,4.8c-0.1,0.6-0.6,1.2-1.4,1.2c-0.6,0-0.7-0.8-0.7-1.6c0-0.9,0.1-1.8,0.2-2.1c0.1-0.8,0.1-1.5-0.3-2.1
		C184.8,8.8,184.4,10.2,184.1,11.4z"/>
	<path d="M195.3,14.1c-0.1,0.5-0.6,1.2-1.3,1.2c-0.8,0-0.9-0.8-0.8-1.6c0-0.8,0.3-1.7,0.4-2.1c0.1-0.8,0.3-1.5,0.5-2.3
		c0.1-0.6,0.3-1.3,0.4-1.9c0-0.1,0-0.1,0-0.2l0.1-0.4c0.5-1.7,1.1-2.1,2.9-2.1c0.9,0,1.4,0.2,2.2,0.5c1.3,0.5,1.8,2,1.5,3.3
		c-0.5,2.1-3.6,2.8-5.5,2.9C195.6,12.3,195.5,13.2,195.3,14.1z M199.2,8.1c0.2-0.7-0.9-1.5-1.7-1.5c-0.3,0-0.5,0-0.8,0
		c-0.2,0.9-0.4,1.9-0.6,2.9C197.2,9.5,199,9.2,199.2,8.1z"/>
	<path d="M202.8,12.8c0.2,0,0.3,0,0.5,0c0.2,0.1,0.3,0.1,0.5,0.2c0.5,0.2,0.8,0.3,1.3,0.3c0,0,0.1,0,0.1,0c0.1,0,0.1,0,0.2-0.1
		c0-0.2-0.1-0.4-0.5-0.6c-0.3-0.2-0.8-0.5-1.2-0.8c-0.9-0.6-1.7-1.5-1.3-3.1c0.3-1.6,2.7-3.8,4.7-3.8c1.3,0,2.1,1.5,1.8,2.4
		c-0.1,0.4-0.8,0.9-1.3,0.9c-0.3,0-0.4-0.1-0.5-0.3c0,0-0.1-0.1-0.1-0.2c0-0.1,0-0.2-0.1-0.3c-0.1-0.4-0.2-0.7-0.6-0.7
		c-0.9,0-1.8,1.2-1.9,1.8c-0.1,0.3-0.1,0.6,0,0.9c0.2,0.3,0.4,0.5,0.8,0.7s0.7,0.5,1.1,0.7c0.7,0.5,1.3,1.2,1,2.4
		c-0.3,1-2,1.9-3.1,1.9c-0.9,0-2.8-0.6-2.6-1.6C201.9,13.3,202.3,12.8,202.8,12.8z"/>
	<path d="M216.9,5.9c0.1-0.6,0.8-0.8,1.4-0.8c0.3,0,0.8,0,1.3,0.1c0.5,0.1,1,0.3,1,0.6c1.6,1,1.8,3.6,1.3,5.4
		c-0.4,1.7-2.3,4.2-4.6,4.2c-1.2,0-1.9-0.4-2.6-1.1c-1-1-0.9-2.9-0.6-4.4c0.3-1.4,1.5-2.8,2.8-3.8C216.9,6,216.9,6,216.9,5.9z
		 M216,10.6c-0.3,1,0.1,2.7,1.5,2.7c1.7,0,2.2-1.7,2.5-2.9c0.3-1.1-0.1-3-1.5-3.3C217.1,7.8,216.3,9.4,216,10.6z"/>
	<path d="M227.6,8c0.7-1.4,1.5-2.7,1.7-2.9c0.2-0.1,0.4-0.3,0.6-0.3c0.6,0,1.1,0.1,0.9,0.8c0,0.3-0.2,0.7-0.4,1
		c-0.2,0.3-0.4,0.6-0.5,1c-0.8,1.5-1.7,3-2.4,4.6l-1,2.3c-0.3,0.6-0.9,0.9-1.6,0.9c-0.2,0-0.3-0.2-0.4-0.3c-0.2-0.5-1.1-8.7-1-9.1
		c0.1-0.6,0.4-0.8,1-0.8c0.4,0,0.6,0.2,0.8,0.5c0,0.1,0,0.2,0.1,0.3c0,0.1,0,0.3,0,0.4c0.2,1.6,0.3,3.2,0.6,4.8
		C226.2,10.5,226.9,9.2,227.6,8z"/>
	<path d="M233.4,13.1c0.1,0.1,0.3,0.1,0.4,0.1c0.4,0,0.8-0.1,1.2-0.3c0.2,0,0.4-0.1,0.6-0.2c0.2,0,0.4,0,0.6,0
		c0.5,0,0.8,0.4,0.7,0.8c-0.2,1-2.2,1.7-3.2,1.7c-3.1,0-3.2-3.4-2.7-5.5c0.2-0.7,1.4-3.8,2.1-4.2c0.2-0.1,0.4-0.1,0.6-0.1
		c0.2,0,2.7-0.1,3.1-0.1c0.3,0,0.5,0,0.7,0c0.2,0,0.4,0,0.6,0.1c0.3,0.2,0.5,0.4,0.4,0.9c-0.1,0.5-0.4,0.7-0.8,0.8
		c-0.2,0-0.4,0.1-0.6,0.1c-0.2,0-0.4,0-0.6,0c-0.1,0-0.3,0-0.3,0l-0.7,0c-0.1,0-0.2,0-0.3,0c-0.4,0-0.8,0-1.2,0
		c-0.3,0.6-0.7,1.8-0.8,2.4c1-0.2,2.1-0.2,3.1-0.2c0.8,0,1.5,0.3,1.4,1.1c-0.1,0.6-0.8,1-1.5,1c-0.3,0-0.5-0.1-0.8-0.1
		c-0.8,0-1.6,0-2.4,0.1C233.1,12,233.2,12.9,233.4,13.1z"/>
	<path d="M241,14.3c-0.1,0.6-0.6,1.2-1.4,1.2c-0.4,0-0.6-0.2-0.7-0.5c-0.1-0.2-0.1-0.5-0.1-0.7c0-0.4,0.1-0.9,0.2-1.3
		c0.1-0.4,0.2-0.9,0.3-1.3c0.3-1.7,0.6-3.3,1-5c0-0.1,0-0.2,0-0.3c0.3-1,1.3-1.1,2.1-1.1c2.5,0,5.2,1.2,4.7,3.6
		c-0.3,1.5-1.5,2.6-3.1,3.2c0.6,0.5,1.9,1.7,1.8,2.4c-0.1,0.4-0.7,1.1-1.2,1.1c-0.3,0-0.5-0.2-0.6-0.3c-0.1-0.2-0.3-0.3-0.4-0.4
		c-0.4-0.6-1.4-1.1-2.1-1.5C241.2,13.5,241.2,13.9,241,14.3z M241.6,10.8c1.2-0.1,3.1-1,3.4-2.2V8.5c0.2-0.8-1.9-1.5-2.8-1.5h-0.1
		L241.6,10.8z"/>
	<path d="M257.6,7.2c-0.6,2.4-0.7,4.8-1.2,7.1c-0.1,0.5-0.8,0.9-1.4,0.9c-0.3,0-0.4-0.1-0.6-0.3c-0.2-0.5,0-2.1,0.3-3.8
		s0.7-3.3,0.9-4c-0.6,0.1-1.2,0.2-1.9,0.2c-0.6,0-1.1-0.4-0.9-0.9c0.1-0.3,0.4-0.6,0.7-0.7c1.2-0.4,5.2-0.6,6.5-0.6
		c1,0,1.5,0.2,1.2,1.2c-0.1,0.5-0.9,0.8-1.5,0.8c-0.3,0-0.7-0.1-1.1-0.1s-0.8,0-1.2,0L257.6,7.2z"/>
	<path d="M266.1,11.9c-0.9,0-1.8,0.1-2.7,0.2c-0.2,0.8-0.4,1.5-0.6,2.3c-0.1,0.5-0.6,1.2-1.3,1.2c-0.5,0-0.7-0.3-0.7-0.7
		c0-0.3,0-0.8,0.1-1.1c0.4-1.8,1.5-6.9,2.2-8.2c0.3-0.4,0.6-0.6,1.2-0.6c0.9,0,0.7,0.6,0.6,1.1c-0.3,1.3-0.6,2.7-1,4
		c0.4-0.1,0.9-0.1,1.4-0.2c0.5,0,0.9,0,1.4,0c0.3-1.1,0.5-2.2,0.7-3.4c0.2-0.7,0.5-1.4,1.6-1.4c0.6,0,0.6,1.2,0.3,2.4
		c-0.2,1.2-0.6,2.4-0.6,2.8c-0.3,1.2-0.3,2.5-0.6,3.7c-0.1,0.5-0.6,1.2-1.4,1.2c-0.4,0-0.7-0.3-0.8-0.6c-0.1-0.2,0-0.7,0-1.3
		C266,12.7,266.1,12.1,266.1,11.9L266.1,11.9z"/>
	<path d="M272.6,13.1c0.1,0.1,0.3,0.1,0.4,0.1c0.4,0,0.8-0.1,1.2-0.3c0.2,0,0.4-0.1,0.6-0.2c0.2,0,0.4,0,0.6,0
		c0.5,0,0.8,0.4,0.7,0.8c-0.2,1-2.2,1.7-3.2,1.7c-3.1,0-3.2-3.4-2.7-5.5c0.2-0.7,1.4-3.8,2.1-4.2c0.2-0.1,0.4-0.1,0.6-0.1
		c0.2,0,2.7-0.1,3.1-0.1c0.3,0,0.5,0,0.7,0c0.2,0,0.4,0,0.6,0.1c0.3,0.2,0.5,0.4,0.4,0.9c-0.1,0.5-0.4,0.7-0.8,0.8
		c-0.2,0-0.4,0.1-0.6,0.1c-0.2,0-0.4,0-0.6,0c-0.1,0-0.3,0-0.3,0l-0.7,0c-0.1,0-0.2,0-0.3,0c-0.4,0-0.8,0-1.2,0
		c-0.3,0.6-0.7,1.8-0.8,2.4c1-0.2,2.1-0.2,3.1-0.2c0.8,0,1.5,0.3,1.4,1.1c-0.1,0.6-0.8,1-1.5,1c-0.3,0-0.5-0.1-0.8-0.1
		c-0.8,0-1.6,0-2.4,0.1C272.3,12,272.4,12.9,272.6,13.1z"/>
	<path d="M286.6,13.2c0.8,0,1.6,0.2,1.4,1c-0.2,0.7-1,1-1.8,1.1c-0.8,0.1-1.5,0.1-2.3,0.1c-1.7,0-2.4-0.6-2-2.1
		c0-0.2,0.1-0.4,0.2-0.7c0.7-2.1,1.2-4.3,1.9-6.5c0.2-0.6,0.4-0.9,1.1-0.9c0.6,0,1,0.1,0.9,0.7c0,0.2-0.1,0.3-0.2,0.6
		c-0.1,0.3-0.1,0.7-0.2,1.1c-0.4,1.9-1,3.8-1.5,5.7C284.9,13.2,285.8,13.2,286.6,13.2z"/>
	<path d="M291.6,14.4c-0.3,0.5-0.8,1-1.3,1c-0.8,0-0.9-0.5-0.7-1.1c0-0.3,2.8-5.1,3-5.4c0.3-0.6,1.9-3.4,2.4-3.6
		c0.3-0.1,0.5-0.2,0.7-0.2c0.4,0,0.6,0.2,0.6,0.4c0.1,0.2,0,0.4,0,0.7c0,0.1,0.1,0.8,0.2,1.5c0,0.7,0.2,1.5,0.2,1.7
		c0,0.3,0.2,1.5,0.3,2.5c0.1,1.1,0.2,2.2,0.2,2.5c-0.1,0.5-0.7,1-1.3,1c0,0-0.1,0-0.2,0l-0.3-0.2c0,0-0.1,0-0.1-0.1
		c-0.3-0.2-0.4-1.6-0.4-2.1c-0.2,0-0.4,0-0.6,0c-0.6,0-1.2,0-1.8-0.1C292.2,13.3,292,13.8,291.6,14.4z M293.4,11.1h1.4L294.6,9
		L293.4,11.1z"/>
	<path d="M303.3,12.5c0.7-0.1,1.3-0.1,2-0.1c0.5,0,1.3,0,1.2,0.7c-0.3,1.4-5.1,1.8-6.2,1.8c-1,0-1.8-0.4-1.6-1.4
		c0.1-0.3,0.3-0.7,0.6-0.9c1.1-1.3,3.1-3.3,4.5-4.4c0.3-0.3,0.6-0.5,0.9-0.8c-1.6,0-3.3,0.2-4.8,0.2c-0.8,0-1.1-0.3-0.9-1
		c0.1-0.5,0.6-0.7,1-0.9c0.7-0.2,4.6-0.3,5.4-0.3c0.3,0,0.5,0,0.8,0c0.3,0,0.6,0.1,0.7,0.2c0.3,0.3,0.6,0.7,0.4,1.2
		c-0.1,0.6-1.3,1.8-2.6,3c-0.6,0.6-1.3,1.2-1.9,1.8c-0.5,0.5-0.9,0.9-1.2,1.2C302.1,12.7,302.7,12.6,303.3,12.5z"/>
	<path d="M311.1,10.8c0-0.1-0.1-0.1-0.2-0.2c-0.3-0.3-0.6-0.8-0.9-1.3c-0.2-0.4-0.4-0.9-0.7-1.3c-0.1-0.3-0.3-0.5-0.4-0.7
		c-0.1-0.3-0.3-0.6-0.2-1c0.1-0.5,0.8-0.9,1.3-0.9c0.3,0,0.5,0.2,0.6,0.4c0.3,0.6,0.6,1.2,1,1.7c0.3,0.6,0.7,1.1,1.1,1.6
		c0.3-0.3,0.9-1.1,1.5-1.8c0.6-0.7,1.2-1.5,1.5-1.7c0.3-0.2,0.6-0.3,0.9-0.3c0.7,0,0.8,0.8,0.6,1.2c0,0.3-0.2,0.5-0.3,0.7
		c-0.1,0.1-0.3,0.3-0.4,0.5c-1.5,1.6-2.9,3.3-4.3,5c-0.3,0.3-0.6,0.8-0.9,1.2c-0.3,0.4-1.1,1.4-1.8,1.4c-0.5,0-1-0.5-0.9-0.9
		c0-0.2,0.6-1,1.2-1.7c0.6-0.7,1.2-1.5,1.5-1.7C311.2,10.9,311.1,10.8,311.1,10.8z"/>
	<path d="M321.8,12.8c0.2-1.5,0.5-2.9,0.8-4.4c0.2-1,0.4-2,0.4-2.1c0-0.1-0.1-0.2-0.1-0.3c0-0.1,0-0.2,0-0.4
		c0.1-0.6,0.8-0.7,1.3-0.7c0.2,0,0.3,0,0.5,0c2.1,0.3,3.3,1.2,3.9,2.8c0.3,0.8,0.5,1.7,0.3,2.6c-0.5,2.3-3.2,4.2-5.9,4.8
		c-0.2,0-0.4,0.1-0.6,0.1c-0.5,0-0.7-0.3-0.9-0.6C321.5,14.6,321.6,13.7,321.8,12.8z M326.4,11.4c0.1-0.3,0.3-0.6,0.3-0.9
		c0.3-1.4-0.2-3-1.8-3.3c-0.3,1.9-0.5,3.8-1,5.7C324.7,12.6,326,12,326.4,11.4z"/>
	<path d="M333.1,5.9c0.1-0.6,0.8-0.8,1.4-0.8c0.3,0,0.8,0,1.3,0.1c0.5,0.1,1,0.3,1,0.6c1.6,1,1.8,3.6,1.3,5.4
		c-0.4,1.7-2.3,4.2-4.6,4.2c-1.2,0-1.9-0.4-2.6-1.1c-1-1-0.9-2.9-0.6-4.4c0.3-1.4,1.5-2.8,2.8-3.8C333.1,6,333.1,6,333.1,5.9z
		 M332.3,10.6c-0.3,1,0.1,2.7,1.5,2.7c1.7,0,2.2-1.7,2.5-2.9c0.3-1.1-0.1-3-1.5-3.3C333.3,7.8,332.6,9.4,332.3,10.6z"/>
	<path d="M339.4,10.8c0.5-2.1,2.7-5.5,5.7-5.5c1.2,0,1.8,0.9,1.5,1.8C346.5,7.5,346,8,345.4,8c-0.3,0-0.5-0.3-0.5-0.4
		c0-0.1,0-0.2-0.1-0.3c0,0-0.1-0.1-0.1-0.1c-0.1,0-0.2,0-0.3,0.1c-0.1,0.1-0.3,0.1-0.3,0.2c-1.3,0.7-2.2,2.1-2.5,3.3
		c-0.2,0.6-0.1,1.9,0.5,2.3c0.3,0.2,0.6,0.2,1,0.2c1.1,0,2.5-0.4,2.7-1.5c0-0.1,0.1-0.2,0-0.3c0-0.1,0-0.2-0.1-0.2
		c-0.6,0-1.1,0.3-1.4,0.6c-0.1,0.1-0.2,0.2-0.3,0.3c-0.1,0.1-0.2,0.1-0.3,0.2c-0.2,0.1-0.3,0.2-0.6,0.2c-0.6,0-0.9-0.5-0.9-0.9
		c0.1-0.3,0.4-0.6,0.6-0.9c0.9-0.9,1.8-1.5,3.1-1.5c1.5,0,2.2,1.4,1.9,2.5c-0.4,1.9-3.2,3.6-5.4,3.6c-2.3,0-3-1.2-3.4-2.9
		C339.2,11.9,339.3,11.3,339.4,10.8z"/>
	<path d="M7.1,23.4c-0.6,0-1-0.3-0.9-0.9c0.1-0.5,0.3-0.8,1-0.9c1.6-0.3,2.1-0.3,3.7-0.3c0.4,0,1.2,0,1.9,0c0.6,0.1,1.2,0.3,1.1,0.9
		c-0.1,0.7-0.7,0.9-1.3,1c-0.3,0-0.7,0-1,0c-0.3,0-0.6,0-0.9,0c-0.3,2.3-0.8,4.6-1.1,6.9c0,0,0,0.1,0,0.2c-0.1,0.6-0.6,1-1.4,1
		c-0.3,0-0.5-0.2-0.6-0.4c-0.2-0.5,0-2.1,0.3-3.7c0.3-1.6,0.7-3.2,0.9-3.9C8.2,23.3,7.6,23.4,7.1,23.4z"/>
	<path d="M16,29c-0.1,0.3-0.2,0.7-0.4,1.1c-0.2,0.3-0.6,0.6-1.1,0.6c-0.3,0-0.5-0.1-0.6-0.3c-0.3-0.3-0.1-1.8,0.2-3.3
		c0.3-1.5,0.6-3.1,0.8-3.7c0-0.2,0.1-0.4,0.1-0.7c0.1-0.2,0.2-0.4,0.3-0.6c0.3-0.5,0.6-0.8,1.3-0.8c0.3,0,0.4,0.1,0.5,0.3
		c0.2,0.3,0,1.2-0.1,2.1c-0.1,0.9-0.4,1.7-0.5,2.1c0.7-0.2,1.5-0.2,2.2-0.2c0.5,0,1,0,1.5,0.1c0.3-1.1,0.6-2.2,0.8-3.3
		c0.2-0.8,0.5-1.4,1.6-1.4c0.5,0,0.5,0.8,0.4,1.5c-0.1,0.8-0.3,1.6-0.3,1.8c-0.2,0.7-0.3,1.4-0.5,2.1c0,0.1,0,0.3,0,0.4
		c0,0.2-0.1,0.3-0.3,0.4c-0.1,0.3-0.2,0.7-0.3,1.1l-0.2,0.8c-0.1,0.5-0.2,1.2-0.5,1.6c-0.2,0.4-0.6,0.7-1.2,0.7
		c-0.5,0-0.6-0.6-0.6-1.1c0-0.6,0.2-1.2,0.2-1.5c0.1-0.4,0.2-0.8,0.3-1.2c-0.4,0-0.9,0-1.3,0c-0.8,0-1.5,0-2.3,0.1
		C16.2,28.1,16.1,28.6,16,29z"/>
	<path d="M24.1,26c0.2-0.8,0.8-3.2,1.3-3.7v-0.1c0.1-0.2,0.2-0.4,0.5-0.6c0.2-0.1,1.1-0.1,1.9-0.1c0.8,0,1.7,0,2,0
		c0.3,0,0.5,0,0.8,0c0.3,0,0.5,0,0.7,0.1c0.4,0.1,0.6,0.4,0.5,1c-0.1,0.6-0.9,0.8-1.4,0.8c-1.2,0-2.3,0-3.4-0.1
		c0,0.2-0.1,0.3-0.1,0.5c-0.1,0.6-0.3,1.1-0.4,1.6c0.9-0.1,1.8-0.3,2.6-0.3c0.6,0,1.6,0.3,1.5,1c-0.1,0.6-1.2,0.9-2.1,1
		c-0.9,0.1-2,0.1-2.4,0.2c0,0.1,0,0.3-0.1,0.4c-0.2,0.6-0.3,1.6,0.6,1.6c0.5,0,1.1-0.3,1.7-0.5c0.3-0.1,0.6-0.2,0.9-0.3
		c0.3-0.1,0.6-0.2,0.8-0.2c0.5,0,1.1,0.4,0.9,0.9c-0.1,0.3-0.6,0.7-1.2,1c-0.6,0.3-1.3,0.5-1.6,0.7c-0.6,0.2-1.2,0.4-1.8,0.4
		c-1.1,0-1.8-0.5-2.3-1.2c-0.3-0.5-0.3-1.2-0.2-1.9C23.7,27.4,23.9,26.7,24.1,26L24.1,26L24.1,26z"/>
	<path d="M41,31.4c-3.4,0-4.5-3-3.9-5.6c0.3-1.2,1.1-2.6,2.2-3.5c0.3-0.9,1.6-1.4,2.5-1.4c3.3,0,4.8,2.4,4.2,5.1
		c-0.2,0.8-0.6,1.6-1,2.4c0.2,0.2,0.6,0.6,0.9,1c0.3,0.4,0.6,0.9,0.6,1.2c-0.1,0.4-0.5,0.8-1,0.8c-0.3,0-0.7-0.3-1-0.6
		c-0.3-0.3-0.6-0.6-0.7-0.7C42.9,30.9,42,31.4,41,31.4z M41.1,27.5c-0.2-0.3-0.3-0.6-0.3-1c0.1-0.4,0.6-0.9,1.2-0.9
		c0.3,0,1.4,1.1,1.6,1.4c0.2-0.4,0.3-0.9,0.4-1.4c0.3-1.1-1.1-2.7-2.4-2.7c0,0-0.1,0-0.2,0c0,0.2-0.2,0.3-0.3,0.5
		c-0.1,0-0.2,0.1-0.3,0.2c-0.1,0-0.2,0.1-0.3,0.2c-0.7,0.5-1.2,1.7-1.4,2.4c-0.2,1-0.1,2.1,0.8,2.7c0.4,0.3,0.9,0.5,1.4,0.5
		c0.4,0,0.9-0.2,1.2-0.4L41.1,27.5z"/>
	<path d="M47.7,25c0.2-1.1,0.8-3.8,2.2-3.9h0.3c0.3,0,0.4,0.1,0.5,0.3c0,0.2,0,0.4,0,0.6c-0.1,0.6-0.4,1.2-0.6,1.9
		c-0.3,1.1-0.9,5.3,0.7,5.3c0.1,0,0.2,0,0.3-0.1c0.9-0.9,1.4-1.5,1.8-2.7c0.3-0.9,0.5-1.8,0.7-2.7c0.1-0.5,0.3-1.1,0.4-1.6
		c0.1-0.5,0.5-1.1,1.2-1.1c0.3,0,0.6,0.1,0.8,0.4c0.2,0.4-0.4,3.2-0.5,3.8C55,27.2,54,29,52,30.6c-0.3,0.3-1,0.7-1.5,0.7
		C47.3,31.3,47.3,27.1,47.7,25z"/>
	<path d="M59.1,23.1c-0.2,0-0.5,0-0.7,0c-0.8,0-1.1-0.2-0.9-0.9c0.1-0.6,0.3-0.8,1-0.9c1.2-0.2,2.9-0.3,4.1-0.3
		c0.6,0,1.1,0.4,0.9,0.9c-0.2,0.9-1.5,1-2.3,1c-0.3,1.6-0.7,3.3-0.9,4.9c-0.1,0.5-0.2,0.9-0.3,1.4c0.7,0,2.1,0.1,1.8,1
		c-0.2,0.8-1.2,1.1-1.9,1.1c-0.9,0-1.7-0.1-2.6-0.1c-0.6,0-1.4-0.3-1.2-1c0.2-0.7,1.1-1,1.8-1.1C58.2,27.1,58.6,25.1,59.1,23.1z"/>
	<path d="M62.9,25.9c0.5-2.1,2.5-5.3,5.6-5.3c1.2,0,1.9,1,1.7,1.9c-0.1,0.5-0.9,0.7-1.3,0.7c-0.4,0-0.5-0.2-0.6-0.4
		c0,0,0-0.1-0.1-0.1c0,0,0-0.1-0.1-0.1c0-0.1-0.1-0.1-0.1-0.1c-0.1,0-0.2,0-0.3,0c-0.1,0-0.2,0.1-0.3,0.2c-1.5,0.8-2,2-2.3,3.3
		c-0.3,1.3,0,3.2,1.7,3.2c0.7,0,1.3-0.3,1.9-0.7c0.3-0.3,1.1-0.8,1.5-0.8c0.6,0,0.9,0.3,0.7,0.8c-0.3,1.2-3.3,2.8-4.6,2.8
		c-2.1,0-2.8-1.6-3.3-3C62.7,27.6,62.7,26.8,62.9,25.9z"/>
	<path d="M73,31.3c-0.5,0-0.8-0.4-0.9-0.7c-0.2-1.1,1-6.6,1.4-8c0.2-0.7,0.4-1.2,1.5-1.2c0.4,0,0.6,0.2,0.6,0.5c0.1,0.4,0,1.2-0.2,2
		c-0.1,0.7-0.3,1.4-0.4,1.9c1.7-1.3,3.3-2.7,5.1-3.9c0.2-0.1,0.5-0.3,0.7-0.3c0.5,0,0.9,0.5,0.8,0.9c-0.1,0.4-0.6,0.8-0.9,1.1
		c-1.5,1.2-3,2.4-4.5,3.6c0.2,0.1,0.4,0.3,0.6,0.4c0.2,0.2,0.4,0.3,0.6,0.5c0.3,0.2,0.9,0.4,1.4,0.7c0.4,0.3,0.8,0.6,0.7,1.2
		c-0.2,0.6-0.7,0.7-1.3,0.7c-1.2,0-2.8-1.2-3.8-1.8C74.4,29.6,74.1,31.3,73,31.3z"/>
	<path d="M86.8,31.2c-0.4,0-0.6-0.3-0.7-0.6c-0.2-0.6,0.8-4.8,1-5.7c0.1-0.3,0.2-1,0.3-1.6c0.2-0.6,0.3-1.2,0.5-1.5
		c0.1-0.2,0.3-0.4,0.5-0.5c0.3-0.2,2.1-0.4,2.4-0.4c1.8,0,3.8,1.3,3.4,3c-0.2,0.9-1.2,1.8-2.1,2.4c1,0.4,2.1,1.2,1.8,2.4
		c-0.3,1.6-2.8,2.3-4.2,2.6c-0.3,0.1-1.5,0.3-1.8,0.3c-0.3,0-0.6-0.1-0.8-0.3C87,31.2,86.9,31.2,86.8,31.2z M90.2,29.2
		c0.5-0.1,0.9-0.2,1.2-0.3c0.3-0.1,0.5-0.3,0.5-0.3c0,0,0-0.1-0.2-0.2c-0.1-0.1-0.3-0.2-0.6-0.2c-0.4-0.1-0.9-0.2-1.1-0.2
		c-0.3,0-0.5,0-0.8,0c-0.3,0-0.6,0-0.7-0.2c-0.1,0.6-0.3,1.3-0.4,1.9C88.5,29.5,89.4,29.4,90.2,29.2z M89.7,25.7
		c0.3-0.2,0.7-0.3,1.1-0.6c0.7-0.4,1.3-0.9,1.5-1.4c0.1-0.4-1.4-1.2-1.9-1.2c-0.3,0-0.6,0.1-0.9,0.2c0,0.3-0.1,0.6-0.1,0.9L89,25.3
		c0,0.3-0.1,0.6-0.1,0.9C89.1,26,89.4,25.9,89.7,25.7z"/>
	<path d="M97.4,30.6c-0.1,0.5-0.9,1.1-1.5,1.1c-0.4,0-0.6-0.2-0.7-0.5c-0.2-0.8,0.6-4.8,0.8-5.8c0.2-0.9,0.5-1.8,0.7-2.7
		c-0.2-0.1-0.2-0.3-0.2-0.5c0.3-1.4,2.4-1.4,3.4-1.4c2.1,0,4.2,0.9,3.7,3c-0.3,1.5-1.8,2.7-3.5,3.5c0.8,0.6,2.4,2.3,2.2,3.3
		c-0.1,0.4-0.8,0.9-1.2,0.9c-0.3,0-0.5-0.2-0.7-0.4c-0.2-0.3-0.3-0.5-0.4-0.7c-0.6-0.8-1.3-1.5-2.4-1.9
		C97.6,29.1,97.5,29.9,97.4,30.6z M101.7,23.8c0-0.2,0-0.3-0.1-0.4c-0.4-0.6-1-0.7-1.9-0.7c-0.4,0-0.7,0-1.1,0
		c-0.2,1.1-0.3,2.3-0.6,3.4C99.3,25.8,101.5,24.8,101.7,23.8z"/>
	<path d="M109.5,20.9c3.3,0,4.8,2.8,4.2,5.4c-0.5,2.1-2.8,5.1-5.8,5.1c-2.9,0-3.9-3.3-3.5-5.4c0.4-1.6,1.8-3.5,3.7-4.3
		C108.4,21,109,20.9,109.5,20.9z M109.3,23l-0.2,0c0,0-0.1,0-0.2,0.1c-1.1,0.5-2,1.8-2.3,2.9c-0.3,1.4,0,3.3,1.9,3.3
		c1.7,0,2.9-1.8,3.2-3c0.4-1.6-0.5-2.9-2.1-3.5C109.5,22.9,109.4,23,109.3,23z"/>
	<path d="M118.2,25.8c0,0,0-0.1,0-0.2c0,0,0-0.1,0-0.1s0-0.1,0-0.1c0.1-0.6,0.5-1,1.2-1c0.4,0,0.7,0.2,0.8,0.6c0,0.1,0,0.2,0,0.4
		c0,0.1,0,0.2,0,0.3c0,0.7,0.7,3,1.3,3.4c0.6-0.7,0.9-1.7,1.2-2.4c0.2-0.8,0.2-1.8,0-2.5c0-0.1-0.1-0.3-0.2-0.4
		c-0.1-0.2-0.2-0.3-0.3-0.4c-0.1-0.3-0.3-0.6-0.2-0.9c0.1-0.3,0.4-0.9,1-0.9c0.4,0,0.7,0.3,0.9,0.6c1,1.3,1,3.4,0.6,5.1
		c-0.3,1-0.9,2.7-1.9,3.5c-0.4,0.3-0.9,0.7-1.5,0.7c-1.1,0-1.9-1.4-2.2-2.1c-0.5,0.9-1.4,2.2-2.7,2.2c-0.5,0-0.7-0.3-0.9-0.6
		c-0.9-1.3-0.4-4.3,0-5.9c0.1-0.3,0.3-1.2,0.6-1.9c0.3-0.7,0.8-1.4,1.5-1.4c0.7,0,0.9,0.3,0.8,0.9c-0.2,0.8-0.6,1.5-0.8,2.3
		c-0.3,1.2-0.5,2.9-0.4,4.1C117.4,27.9,118,26.7,118.2,25.8z"/>
	<path d="M133.4,24.4c0.3-0.9,0.3-1.9,0.5-2.8c0.1-0.6,0.7-1.2,1.5-1.2c0.6,0,0.7,1,0.6,2c-0.1,1-0.3,2.1-0.4,2.4
		c-0.3,1.2-1.6,6.5-3.8,6.5c-0.6,0-0.9-0.4-1.2-0.7c-1.2-1.5-1.3-3.6-1.3-5.4c-0.5,0.9-0.8,1.9-1,2.9c-0.2,0.8-0.2,1.6-0.4,2.4
		c-0.1,0.5-0.6,1.1-1.3,1.1c-0.7,0-0.8-0.9-0.7-1.8c0.2-2.4,1.3-5.3,2.8-7.1c0.2-0.3,1.2-0.8,1.6-0.8c0.6,0,0.9,0.7,1,1.4
		c0.1,0.7,0.1,1.5,0.2,1.9c0,1.1,0.2,2.9,0.7,3.9C132.7,27.4,133,25.9,133.4,24.4z"/>
	<path d="M143.4,29.4c0,0.3,0,0.6,0,0.9c-0.1,0.3-0.7,1-1.2,1c-1,0-1.1-1.3-1.1-2.7c0.1-1.4,0.4-2.9,0.5-3.4c0.4-2,1-3.4,3.7-4
		c0.3-0.1,0.7-0.1,1.1-0.1c0.9,0,3.2,0.3,2.9,1.4c-0.2,0.6-0.7,0.9-1.3,0.9l-0.2,0c0,0,0,0-0.1,0c-0.2,0-0.3-0.1-0.5-0.1
		c-0.3-0.1-0.7-0.2-1.2-0.2c-0.9,0-1.4,0.2-1.7,0.6c-0.3,0.3-0.4,0.9-0.6,1.5c-0.1,0.5-0.2,0.9-0.3,1.4c0.8,0,1.5,0,2.3,0
		c0.3,0,0.9,0,1.4,0.1c0.5,0.1,0.9,0.4,0.8,0.9c-0.2,0.9-1.3,1.1-2.1,1.1c-0.9,0-1.8,0-2.7,0C143.3,28.9,143.4,29.1,143.4,29.4z"/>
	<path d="M154.3,20.9c3.3,0,4.8,2.8,4.2,5.4c-0.5,2.1-2.8,5.1-5.8,5.1c-2.9,0-3.9-3.3-3.5-5.4c0.4-1.6,1.8-3.5,3.7-4.3
		C153.1,21,153.8,20.9,154.3,20.9z M154,23l-0.2,0c0,0-0.1,0-0.2,0.1c-1.1,0.5-2,1.8-2.3,2.9c-0.3,1.4,0,3.3,1.9,3.3
		c1.7,0,2.9-1.8,3.2-3c0.4-1.6-0.5-2.9-2.1-3.5C154.2,22.9,154.1,23,154,23z"/>
	<path d="M159.6,31.3c-0.5,0-0.8-0.5-0.7-0.9c0.2-0.9,1.8-3,2.5-3.8c-0.2-0.4-0.7-1.3-1.2-2.2c-0.5-0.9-0.9-1.8-0.8-2.2
		c0.1-0.4,0.6-0.9,1.2-0.9c0.3,0,0.6,0.3,0.7,0.5c0.1,0.1,0.1,0.2,0.2,0.3c0,0.1,0.1,0.2,0.2,0.3c0.4,0.8,0.8,1.6,1.2,2.3
		c0.3-0.3,0.8-1,1.4-1.6c0.6-0.7,1.3-1.3,1.7-1.5c0.2-0.1,0.6-0.2,0.9-0.2c0.6,0,0.6,0.7,0.5,1c0,0.3-0.3,0.5-0.5,0.7
		c-1.1,1-2,2.2-3,3.3c0.2,0.4,0.6,0.9,0.9,1.5c0.3,0.6,0.8,1.1,1.1,1.3c0.3,0.2,0.4,0.4,0.3,0.7c-0.1,0.4-0.7,0.9-1.2,0.9
		c-0.3,0-0.6-0.2-0.8-0.3c-0.5-0.4-1.4-1.7-1.8-2.3C161.9,29,160.3,31.3,159.6,31.3z"/>
	<path d="M175.7,26.9c0.1-1.2,0.3-2.4,0.4-3.6c-0.4,0-0.9,0-1.3,0c-0.7,0-1.6-0.1-1.5-1c0.1-0.5,0.4-0.9,1.1-0.9
		c1.3,0,2.6-0.1,3.8-0.1c0.9,0,1.7,0.1,2.6,0.1c0.6,0,1.2,0.3,1,1c-0.1,0.6-0.3,0.9-1.1,0.9c-0.9,0-1.7-0.1-2.5-0.1
		c0,1.9-0.2,3.7-0.6,5.6c-0.3,1.4-0.9,2.5-2.8,2.5c-0.8,0-3.6-0.4-3.3-1.5c0.1-0.4,0.6-0.9,1.2-0.9c0.2,0,0.4,0,0.6,0.1
		s0.3,0.1,0.5,0.1c0.6,0.1,1.1,0.2,1.6,0.2h0.1C175.6,28.5,175.6,27.7,175.7,26.9z"/>
	<path d="M182.4,25c0.2-1.1,0.8-3.8,2.2-3.9h0.3c0.3,0,0.4,0.1,0.5,0.3c0,0.2,0,0.4,0,0.6c-0.1,0.6-0.4,1.2-0.6,1.9
		c-0.3,1.1-0.9,5.3,0.7,5.3c0.1,0,0.2,0,0.3-0.1c0.9-0.9,1.4-1.5,1.8-2.7c0.3-0.9,0.5-1.8,0.7-2.7c0.1-0.5,0.3-1.1,0.4-1.6
		c0.1-0.5,0.5-1.1,1.2-1.1c0.3,0,0.6,0.1,0.8,0.4c0.2,0.4-0.4,3.2-0.5,3.8c-0.5,2.1-1.5,3.9-3.5,5.4c-0.3,0.3-1,0.7-1.5,0.7
		C181.9,31.3,181.9,27.1,182.4,25z"/>
	<path d="M192.9,29.6c0,0.2,0,0.4,0,0.6c-0.1,0.5-0.8,0.8-1.3,0.8c-0.6,0-0.6-1-0.5-1.9c0.1-1,0.4-2,0.4-2.3
		c0.3-1.2,1.4-5.6,3.6-5.6c1,0,1.3,1.2,1.3,2c0,0.2,0,0.4,0.1,0.6c0.7-1.2,1.6-2.9,3.2-2.9c2.7,0,1.2,7.1,0.9,8.6
		c-0.2,0.8-0.6,1.7-1.5,1.7c-0.3,0-0.5-0.1-0.6-0.3c-0.1-0.2-0.1-0.7,0-1.4c0.1-0.6,0.3-1.5,0.4-2.4c0.3-1.7,0.5-3.3,0.3-4
		c-0.5,0.6-0.9,1.2-1.2,1.8c-0.3,0.7-0.6,1.4-1,2.1c-0.3,0.6-0.8,1-1.6,1c-0.5,0-0.7-0.9-0.8-1.9c0-0.5,0-1,0-1.5
		c0-0.3,0-0.6-0.1-0.8C193.8,25.2,193.1,28.3,192.9,29.6z"/>
	<path d="M204.9,29.7c-0.1,0.7-0.5,1.6-1.4,1.6c-0.8,0-0.8-1.3-0.6-2.6c0.1-1.3,0.5-2.7,0.6-3.1c0.2-1.1,0.3-2.1,0.6-3.1
		c0.1-0.6,0.5-1.6,1.6-1.3c0.3-0.1,0.5-0.1,0.8-0.1c2.4,0,5.3,1.2,4.7,3.6c-0.5,2-3.9,3.1-5.9,3.1C205.2,28.4,205.1,29,204.9,29.7z
		 M205.6,25.9c0.6,0,1.1-0.1,1.7-0.3c0.5-0.2,1.8-0.9,1.9-1.3c0.2-0.7-2.3-1.4-3-1.4h-0.2L205.6,25.9z"/>
	<path d="M212.1,29.1c0.1,0,0.3,0,0.4,0s0.3,0.1,0.4,0.1c0.3,0,0.5,0.1,0.8,0.1c0.1,0,0.5,0,0.8-0.1c0.1,0,0.6-0.1,0.6-0.3
		c-0.1-0.2-0.4-0.4-0.7-0.6c-0.3-0.2-0.6-0.3-0.8-0.5c-1.2-0.8-1.9-2.1-1.6-3.6c0.4-1.6,2.4-3.3,4.4-3.3c1.1,0,2.1,0.3,1.9,1.4
		c-0.1,0.5-0.5,0.7-1,0.7c-0.2,0-0.4,0-0.6-0.1c0,0-0.1,0-0.2-0.1c-0.1,0-0.1,0-0.2,0c0,0-0.1,0-0.2,0c0,0-0.1,0-0.2,0
		c-1.1,0.3-1.7,0.6-1.9,1.6c-0.2,0.9,0.6,1.5,1.6,2.1c0.3,0.2,0.5,0.3,0.7,0.5c0.2,0.1,0.4,0.3,0.6,0.5c0.3,0.3,0.5,0.7,0.4,1.2
		c-0.4,1.5-2.4,2.5-4,2.5c-0.9,0-2.6-0.4-2.4-1.5C211,29.6,211.6,29.1,212.1,29.1z"/>
	<path d="M228.4,20.9c3.3,0,4.8,2.8,4.2,5.4c-0.5,2.1-2.8,5.1-5.8,5.1c-2.9,0-3.9-3.3-3.5-5.4c0.4-1.6,1.8-3.5,3.7-4.3
		C227.3,21,227.9,20.9,228.4,20.9z M228.2,23l-0.2,0c0,0-0.1,0-0.2,0.1c-1.1,0.5-2,1.8-2.3,2.9c-0.3,1.4,0,3.3,1.9,3.3
		c1.7,0,2.9-1.8,3.2-3c0.4-1.6-0.5-2.9-2.1-3.5C228.4,22.9,228.3,23,228.2,23z"/>
	<path d="M237.6,25.8c0.5-0.8,1-1.6,1.5-2.4c0.2-0.3,0.4-0.6,0.6-1c0.2-0.3,0.5-0.6,0.8-0.9c0.3-0.2,0.6-0.3,0.9-0.3
		c0.6,0,0.9,0.4,0.8,0.9c0,0.3-0.2,0.5-0.3,0.8c-0.1,0.3-0.3,0.5-0.5,0.7c-1.2,1.6-2.1,3.2-2.9,4.9c-0.1,0.3-0.3,0.8-0.6,1.3
		c-0.4,0.8-0.9,1.6-1.9,1.6c-1.3,0-1.8-3.9-1.8-4.8c-0.1-1.4-0.1-2.8-0.2-4.2c0-0.1,0-0.2,0-0.3c0.1-0.4,0.6-0.9,1.2-0.9
		c0.3,0,0.5,0.3,0.6,0.5c0.1,0.2,0.1,0.3,0.1,0.5c0,0.4,0.1,0.8,0.1,1.2l0.3,2.3c0,0.4,0.1,0.8,0.1,1.2c0,0.4,0,0.9,0.1,1.3
		C236.8,27.3,237.2,26.5,237.6,25.8z"/>
	<path d="M242.8,26c0.2-0.8,0.8-3.2,1.3-3.7v-0.1c0.1-0.2,0.2-0.4,0.5-0.6c0.2-0.1,1.1-0.1,1.9-0.1c0.8,0,1.7,0,2,0
		c0.3,0,0.5,0,0.8,0c0.3,0,0.5,0,0.7,0.1c0.4,0.1,0.6,0.4,0.5,1c-0.1,0.6-0.9,0.8-1.4,0.8c-1.2,0-2.3,0-3.4-0.1
		c0,0.2-0.1,0.3-0.1,0.5c-0.1,0.6-0.3,1.1-0.4,1.6c0.9-0.1,1.8-0.3,2.6-0.3c0.6,0,1.6,0.3,1.5,1c-0.1,0.6-1.2,0.9-2.1,1
		c-0.9,0.1-2,0.1-2.4,0.2c0,0.1,0,0.3-0.1,0.4c-0.2,0.6-0.3,1.6,0.6,1.6c0.5,0,1.1-0.3,1.7-0.5c0.3-0.1,0.6-0.2,0.9-0.3
		c0.3-0.1,0.6-0.2,0.8-0.2c0.5,0,1.1,0.4,0.9,0.9c-0.1,0.3-0.6,0.7-1.2,1c-0.6,0.3-1.3,0.5-1.6,0.7c-0.6,0.2-1.2,0.4-1.8,0.4
		c-1.1,0-1.8-0.5-2.3-1.2c-0.3-0.5-0.3-1.2-0.2-1.9C242.4,27.4,242.6,26.7,242.8,26L242.8,26L242.8,26z"/>
	<path d="M253.1,30.6c-0.1,0.5-0.9,1.1-1.5,1.1c-0.4,0-0.6-0.2-0.7-0.5c-0.2-0.8,0.6-4.8,0.8-5.8c0.2-0.9,0.5-1.8,0.7-2.7
		c-0.2-0.1-0.2-0.3-0.2-0.5c0.3-1.4,2.4-1.4,3.4-1.4c2.1,0,4.2,0.9,3.7,3c-0.3,1.5-1.8,2.7-3.5,3.5c0.8,0.6,2.4,2.3,2.2,3.3
		c-0.1,0.4-0.8,0.9-1.2,0.9c-0.3,0-0.5-0.2-0.7-0.4c-0.2-0.3-0.3-0.5-0.4-0.7c-0.6-0.8-1.3-1.5-2.4-1.9
		C253.4,29.1,253.3,29.9,253.1,30.6z M257.5,23.8c0-0.2,0-0.3-0.1-0.4c-0.4-0.6-1-0.7-1.9-0.7c-0.4,0-0.7,0-1.1,0
		c-0.2,1.1-0.3,2.3-0.6,3.4C255,25.8,257.2,24.8,257.5,23.8z"/>
	<path d="M266.2,23.4c-0.6,0-1-0.3-0.9-0.9c0.1-0.5,0.3-0.8,1-0.9c1.6-0.3,2.1-0.3,3.7-0.3c0.4,0,1.2,0,1.9,0
		c0.6,0.1,1.2,0.3,1.1,0.9c-0.1,0.7-0.7,0.9-1.3,1c-0.3,0-0.7,0-1,0c-0.3,0-0.6,0-0.9,0c-0.3,2.3-0.8,4.6-1.1,6.9c0,0,0,0.1,0,0.2
		c-0.1,0.6-0.6,1-1.4,1c-0.3,0-0.5-0.2-0.6-0.4c-0.2-0.5,0-2.1,0.3-3.7s0.7-3.2,0.9-3.9C267.3,23.3,266.7,23.4,266.2,23.4z"/>
	<path d="M275.1,29c-0.1,0.3-0.2,0.7-0.4,1.1c-0.2,0.3-0.6,0.6-1.1,0.6c-0.3,0-0.5-0.1-0.6-0.3c-0.3-0.3-0.1-1.8,0.2-3.3
		c0.3-1.5,0.6-3.1,0.8-3.7c0-0.2,0.1-0.4,0.1-0.7c0.1-0.2,0.2-0.4,0.3-0.6c0.3-0.5,0.6-0.8,1.3-0.8c0.3,0,0.4,0.1,0.5,0.3
		c0.2,0.3,0,1.2-0.1,2.1c-0.1,0.9-0.4,1.7-0.5,2.1c0.7-0.2,1.5-0.2,2.2-0.2c0.5,0,1,0,1.5,0.1c0.3-1.1,0.6-2.2,0.8-3.3
		c0.2-0.8,0.5-1.4,1.6-1.4c0.5,0,0.5,0.8,0.4,1.5c-0.1,0.8-0.3,1.6-0.3,1.8c-0.2,0.7-0.3,1.4-0.5,2.1c0,0.1,0,0.3,0,0.4
		c0,0.2-0.1,0.3-0.3,0.4c-0.1,0.3-0.2,0.7-0.3,1.1l-0.2,0.8c-0.1,0.5-0.2,1.2-0.5,1.6c-0.2,0.4-0.6,0.7-1.2,0.7
		c-0.5,0-0.6-0.6-0.6-1.1c0-0.6,0.2-1.2,0.2-1.5c0.1-0.4,0.2-0.8,0.3-1.2c-0.4,0-0.9,0-1.3,0c-0.8,0-1.5,0-2.3,0.1
		C275.3,28.1,275.2,28.6,275.1,29z"/>
	<path d="M283.2,26c0.2-0.8,0.8-3.2,1.3-3.7v-0.1c0.1-0.2,0.2-0.4,0.5-0.6c0.2-0.1,1.1-0.1,1.9-0.1c0.8,0,1.7,0,2,0
		c0.3,0,0.5,0,0.8,0c0.3,0,0.5,0,0.7,0.1c0.4,0.1,0.6,0.4,0.5,1c-0.1,0.6-0.9,0.8-1.4,0.8c-1.2,0-2.3,0-3.4-0.1
		c0,0.2-0.1,0.3-0.1,0.5c-0.1,0.6-0.3,1.1-0.4,1.6c0.9-0.1,1.8-0.3,2.6-0.3c0.6,0,1.6,0.3,1.5,1c-0.1,0.6-1.2,0.9-2.1,1
		c-0.9,0.1-2,0.1-2.4,0.2c0,0.1,0,0.3-0.1,0.4c-0.2,0.6-0.3,1.6,0.6,1.6c0.5,0,1.1-0.3,1.7-0.5c0.3-0.1,0.6-0.2,0.9-0.3
		c0.3-0.1,0.6-0.2,0.8-0.2c0.5,0,1.1,0.4,0.9,0.9c-0.1,0.3-0.6,0.7-1.2,1c-0.6,0.3-1.3,0.5-1.6,0.7c-0.6,0.2-1.2,0.4-1.8,0.4
		c-1.1,0-1.8-0.5-2.3-1.2c-0.3-0.5-0.3-1.2-0.2-1.9C282.8,27.4,283,26.7,283.2,26L283.2,26L283.2,26z"/>
	<path d="M298.5,29.1c0.3,0,0.5,0,0.8,0c0.4,0,0.9,0,1.3,0c0.8,0,1.5,0.2,1.3,1c-0.3,1.2-2,1.2-2.9,1.2h-1.3c-2.1,0-2.3-1.3-2-2.8
		c0.5-1.9,1.3-3.9,1.8-5.8c0.1-0.3,0.1-0.6,0.3-0.8c0.2-0.3,0.5-0.6,0.9-0.6c0.6,0,0.9,0.3,0.9,0.7c0,0.2,0,0.4-0.1,0.6
		s-0.1,0.4-0.1,0.6c-0.4,1.8-1,3.5-1.4,5.3c0,0.2-0.1,0.4-0.1,0.6C298,29.1,298.2,29.1,298.5,29.1z"/>
	<path d="M305.5,30.3c-0.3,0.6-0.7,1.1-1.3,1.1c-0.6,0-0.8-0.7-0.7-1.2c0.2-1,3.8-8.6,4.5-9.1c0.2-0.1,0.7-0.3,0.9-0.3
		c0.2,0,0.3,0.1,0.5,0.2c0.6,0.9,2.2,8.4,2,9.3c-0.1,0.4-0.6,1.1-1.2,1.1c-0.5,0-0.9-0.6-0.9-0.9l-0.3-1.8c-0.5,0-0.9,0.1-1.4,0.1
		c-0.5,0-0.9,0.1-1.4,0C306,29.2,305.8,29.8,305.5,30.3z M308.2,24.6L307,27c0.6-0.1,1.1-0.1,1.7-0.1L308.2,24.6z"/>
	<path d="M318,28.9c0.7,0,1.2,0.2,1.1,0.9c-0.2,0.7-1,1-1.8,1c-1.4,0-2.8,0.4-4.2,0.4c-0.9,0-1.4-0.7-1.2-1.5
		c0.1-0.3,0.3-0.6,0.5-0.9c0.3-0.3,0.6-0.7,0.9-1c0.3-0.3,0.6-0.6,0.9-1c1-1.1,2.1-2.2,3.1-3.3c-0.9,0.1-1.8,0.1-2.6,0.1
		s-1.6-0.1-1.4-1.1c0.1-0.6,0.4-0.7,1-0.8c1.5-0.1,3-0.2,4.5-0.2c1,0,1.7,0.1,1.5,1.2c0,0.2-0.1,0.4-0.3,0.6
		c-0.1,0.2-0.3,0.4-0.5,0.6c-0.2,0.2-0.4,0.4-0.6,0.6c-1.4,1.6-2.9,3.1-4.4,4.7C315.7,29.1,316.9,28.9,318,28.9z"/>
	<path d="M322,23.9c-0.1-0.2-0.2-0.6-0.3-0.9c-0.1-0.3-0.3-0.7-0.2-0.9c0.1-0.4,0.8-0.9,1.2-0.9c0.2,0,0.4,0.1,0.5,0.3
		c0.2,0.2,0.3,0.4,0.4,0.6c0.1,0.2,0.2,0.4,0.3,0.7c0.3,0.6,0.7,1.3,1.2,1.9c0.5-0.7,2.8-4,3.6-4c0.6,0,1,0.5,0.9,1
		c-0.1,0.4-1.3,2.1-2.6,3.8c-1.3,1.7-2.7,3.5-3.2,4.1c-0.2,0.2-0.4,0.5-0.6,0.8c-0.3,0.4-0.8,1-1.4,1c-0.6,0-0.8-0.6-0.7-0.9
		c0.2-0.6,2-3.1,2.6-3.8C322.8,25.8,322.3,24.8,322,23.9z"/>
	<path d="M334.5,31.1c-0.4,0-0.8-0.3-0.9-0.6c-0.2-0.9,1.1-7.1,1.4-8.2c0.1-0.6,0.5-1.5,1.5-1.5c2,0,4.5,2.7,5.1,4.2
		c0.2,0.6,0.3,1.1,0.2,1.8c-0.5,2.4-3.9,4.1-6.1,4.6c-0.1,0-0.2,0-0.3,0c-0.3,0-0.5-0.1-0.7-0.3C334.7,31.1,334.5,31.1,334.5,31.1z
		 M339.6,27.2c0.4-1.8-1.2-3.3-2.7-4.1c-0.3,2.1-0.6,4.2-1.1,6.3C336.8,29,339.4,27.9,339.6,27.2z"/>
	<path d="M348.2,20.9c3.3,0,4.8,2.8,4.2,5.4c-0.5,2.1-2.8,5.1-5.8,5.1c-2.9,0-3.9-3.3-3.5-5.4c0.4-1.6,1.8-3.5,3.7-4.3
		C347.1,21,347.7,20.9,348.2,20.9z M348,23l-0.2,0c0,0-0.1,0-0.2,0.1c-1.1,0.5-2,1.8-2.3,2.9c-0.3,1.4,0,3.3,1.9,3.3
		c1.7,0,2.9-1.8,3.2-3c0.4-1.6-0.5-2.9-2.1-3.5C348.2,22.9,348,23,348,23z"/>
	<path d="M357,29.2c0.8,0,2.5-0.7,2.7-1.5c0-0.2,0-0.3-0.3-0.3c-0.4,0-0.8,0.2-1.1,0.4c-0.2,0.1-0.3,0.2-0.5,0.3
		c-0.2,0.1-0.3,0.1-0.5,0.1c-0.5,0-0.8-0.6-0.7-1c0.2-0.9,2.2-1.8,3.1-1.8c1.4,0,2.2,1.1,1.9,2.2c-0.3,1.6-3.1,3.6-4.9,3.6
		c-2.4,0-3.5-2.8-3-4.6c0.3-1.6,0.9-2.8,2.4-4.2c0.9-0.8,2.1-1.7,3.3-1.7c1.3,0,2.2,0.7,1.9,1.8c-0.1,0.5-0.6,0.8-1.2,0.8
		c-0.4,0-0.6-0.2-0.6-0.4c0,0,0-0.1-0.1-0.1c0,0,0-0.1,0-0.1c0,0-0.1-0.1-0.2-0.1c0,0-0.1,0-0.1,0c-1.4,0.3-2.8,2.5-3.2,3.8
		c-0.1,0.6-0.1,1.1,0.1,1.6c0,0.1,0.1,0.2,0.2,0.3c0,0.1,0.1,0.3,0.2,0.4C356.5,29.1,356.7,29.2,357,29.2z"/>
</g>
</svg>
