<?xml version="1.0" encoding="utf-8"?>
<!-- Generator: Adobe Illustrator 26.1.0, SVG Export Plug-In . SVG Version: 6.00 Build 0)  -->
<svg version="1.1" id="Layer_1" xmlns="http://www.w3.org/2000/svg" xmlns:xlink="http://www.w3.org/1999/xlink" x="0px" y="0px"
	 viewBox="0 0 372 36.9" style="enable-background:new 0 0 372 36.9;" xml:space="preserve">
<g>
	<path d="M6.2,6.3c0-0.7,1.2-0.8,1.2-0.8c1.7-0.3,6.3-0.5,6.6-0.3c0.3,0.1,0.3,0.6,0.2,0.9c-0.1,0.3-0.8,0.6-1.4,0.5
		c-0.5-0.1-2.3,0-2.3,0c-0.4,1.5-1.2,7.7-1.4,8.1C9,15,8.4,15.2,8.1,15.2s-0.4-0.6-0.3-1.5c0.1-0.9,1.4-7,1.4-7S7.9,6.8,7.1,6.9
		C7.1,6.9,6.2,6.9,6.2,6.3z"/>
	<path d="M16,5.3c0.2-0.4,0.6-0.5,1-0.4c0.4,0,0.3,0.5,0.2,0.9c-0.1,0.3-1.1,4.5-1.1,4.5c0.5-0.3,3.4-0.3,3.4-0.3s0.2-0.9,0.4-2.1
		s0.5-2.4,0.8-2.7C21,5,21.3,5,21.6,5c0.4,0,0.3,0.7,0.3,1.2c0,0.5-0.4,2.5-0.7,3.7c-0.3,1.2-0.5,3.1-0.6,4c-0.2,0.9-0.6,1.1-1,1.2
		c-0.3,0.1-0.6-0.3-0.6-0.5c-0.1-0.2,0.3-2.9,0.3-2.9c-0.3-0.1-3.4,0.2-3.4,0.2s-0.5,2-0.6,2.5c-0.1,0.6-0.3,0.7-0.6,0.9
		c-0.3,0.3-0.6,0.2-0.8,0c-0.2-0.2-0.2-0.2-0.2-0.6c0-0.5,1.8-7.4,2.1-8.3C15.6,6.3,15.8,5.7,16,5.3z"/>
	<path d="M24.8,5.4c0.3-0.2,0.9-0.1,0.9-0.1c0.4-0.1,3,0,3.6,0c0.6,0.1,0.5,0.6,0.3,1c-0.1,0.4-1.1,0.4-2.4,0.3
		c-1.2,0-1.9,0.1-1.9,0.1c-0.6,0.6-1.1,3.2-1.1,3.2c0.6-0.3,3.9-0.4,4.2-0.3c0.3,0.1,0.7,0.5,0.5,0.9c-0.3,0.6-0.9,0.8-1.4,0.6
		c-0.4-0.1-3.4,0.1-3.4,0.1s0.2,1.7,0.5,2c0.1,0.1,0.3,0.2,0.6,0.2c0.5,0,1.1-0.1,1.3-0.2c0.3,0,0.7-0.3,1-0.3c0.2,0,0.3,0,0.4,0.2
		c0.3,0.4,0,0.8-0.9,1.4c-0.9,0.6-1.9,0.6-2.6,0.5c-0.7-0.1-1.1-0.6-1.5-1.2c-0.4-0.7-0.4-2.1-0.3-3.5c0.1-1.4,1-3.3,1.7-4.3
		C24.3,6,24.4,5.6,24.8,5.4z"/>
	<path d="M43.2,15.4c-0.1,0.1-0.2,0.3-0.6,0.2C42,15.6,41,14.4,41,14.4s-1.1,0.8-2.1,0.9c-0.9,0-2.1-0.1-3.2-1.4
		c-1.1-1.3-1.2-2.5-1-4.2c0.3-1.6,1.8-3.3,3-4.2c1-0.8,2.2-0.8,2.6-0.6c0.3,0.1,0.2,0.5,0.2,0.5c2.2,0.2,2.7,1.4,3.1,2.1
		c0.3,0.8,0.3,1.6,0,2.9c-0.3,1.3-1.5,2.7-1.5,2.7s0.6,0.6,1.1,1.2C43.8,15,43.3,15.3,43.2,15.4z M42.4,9.5c0.1-1.2-0.5-2.2-1.8-2.5
		C39,6.6,39.5,6,39.5,6c-0.3,0.1-2.9,1.7-3.2,3.8C36,12,37.1,13.2,38,13.5c0.9,0.3,1.9,0,2.1-0.3c0,0-1.5-2-1.6-2.5
		c-0.1-0.5-0.3-1.1,0.2-1.3c0.6-0.2,0.8-0.3,1,0.1c0.1,0.5,1.3,2.3,1.7,2.6C41.4,12.2,42.3,10.7,42.4,9.5z"/>
	<path d="M47.8,5.7c0,0.5-0.7,1.9-0.8,2.8c-0.2,0.9-0.5,2-0.4,3c0.2,1.2,0.5,1.9,1.3,1.9c0.9,0,1.6-0.8,2.2-2.2
		c0.5-1.4,0.9-2.7,1.1-3.6c0.1-0.9,0.5-2.1,0.9-2.2c0.5,0,1.3-0.3,0.4,2.7c-0.9,3.1-1.8,5.4-3.6,6.5c-0.5,0.3-1,0.4-1.4,0.4
		c-1.5,0-2.1-1.4-2.4-2.6c-0.2-1-0.2-2.2,0.2-3.6c0.5-1.8,1-3.6,1.7-3.6C47.4,5.3,47.9,5.2,47.8,5.7z"/>
	<path d="M55.6,5.3c0.3,0,0.7-0.3,0.8,0.1s0,0.9-0.2,1.5c-0.2,0.5-1.3,7-1.3,7.2s0,0.3,0,0.5c-0.2,0.2-0.5,0.6-0.8,0.6
		c-0.2,0.1-0.4,0.1-0.6-0.3c-0.2-0.4-0.1-0.4-0.2-0.6c0-0.2,0.5-2.7,0.8-4.4c0.3-1.8,0.7-3.2,0.9-3.8C55.1,5.6,55.3,5.3,55.6,5.3z"
		/>
	<path d="M63.2,7.5c-0.2-0.7-0.8-1.1-1.6-1c-0.8,0-1.8,1.5-2.2,2.4c-0.5,0.8-0.4,1.1-0.6,1.7c-0.1,0.6,0,1.6,0.9,2.7
		c0.4,0.6,0.8,0.7,1.2,0.7c0.3,0,0.7-0.2,1-0.3c0.7-0.3,1.2-0.6,1.7-0.3c0.5,0.3,0.1,1-1.3,1.8c-0.6,0.3-1,0.4-1.5,0.4
		c-1.9,0-3.4-2.1-3.6-3.8c-0.2-2.1,0.9-4,2.2-5.4C60.6,4.9,62.1,4.9,63,5c0.9,0.1,1.4,1.1,1.5,1.7c0.2,0.6-0.1,0.8-0.5,1
		C64,7.7,63.3,8.1,63.2,7.5z"/>
	<path d="M66.7,6.2c0,0,0.3-1.1,0.9-1.2c0.6,0,0.7,0,0.8,0.3c0,0.3-0.3,0.9-0.3,1.4c0,0.5-0.7,3.6-0.7,3.6s1.6-1.5,2.1-1.8
		c0.4-0.3,2.1-2,2.7-2.4c0.5-0.5,0.8-0.9,1.1-0.9c0.4,0,0.4-0.1,0.6,0c0.3,0.1,0.2,0.6,0,1s-1.6,1.6-2,2c-0.4,0.4-3.3,2.8-3.3,2.8
		c0.2,0,0.9,0.5,1.4,0.9c0.6,0.3,1.3,0.6,1.8,0.9c0.4,0.3,0.9,0.6,0.4,1.1c-0.5,0.5-0.9,0.4-1.3,0.3c-0.5-0.1-1.4-0.4-2-0.9
		c-0.6-0.5-1.9-1-1.9-1s-0.5,2-0.6,2.4c-0.1,0.4-0.7,0.8-1,0.8s-0.4-0.5-0.4-1c0-0.5,0.9-4.5,1.2-6L66.7,6.2z"/>
	<path d="M84.9,12.5c-0.4,1.4-3.8,2.8-5.3,2.8c-0.6,0-0.8-0.3-0.9-0.7c-0.3-0.6,1-7.5,1.2-8.2c0.1-0.5,0.3-0.9,0.7-1.1
		c0.4-0.3,0.7,0,0.7,0C81.7,5.1,82.4,5,83,5c0.4,0,0.9,0.1,1.3,0.2c1,0.2,1.2,1.1,1.1,2.2c-0.3,1.2-3,3.2-3,3.2
		C84.1,10.5,85.1,11.6,84.9,12.5z M83.3,12.5c0.2-0.8-2.8-0.4-2.8-0.4l-0.3,1.6C80.3,13.8,83.1,13.3,83.3,12.5z M84,7
		c0.1-0.5-0.5-0.7-1.2-0.7c-0.6,0-1.2,0.2-1.5,0.3l-0.4,3.5C80.8,10.2,83.7,8.3,84,7z"/>
	<path d="M90.8,11.9c0,0,0.8,0.6,1.6,1.5c0.8,0.9,0.6,1.2,0.1,1.6c-0.2,0.2-0.4,0.3-0.5,0.3c-0.2,0-0.5-0.2-0.9-0.7
		c-0.6-0.8-2.7-1.8-2.7-1.8s-0.2,1.5-0.3,1.9c-0.1,0.4-0.6,0.8-1,0.8c-0.3,0-0.5-0.1-0.6-1c0-0.9,1.5-8.1,1.5-8.1s-0.2-0.1,0.1-0.6
		c0.3-0.5,0.7-0.4,1.6-0.5c0.9-0.1,3,0.4,3.7,1.1c0.6,0.7,1.3,1.3,0.6,3.1C93.4,11.2,90.8,11.9,90.8,11.9z M92.9,8.4
		c0.3-1.1-2.2-2.1-3.5-1.9L88.8,11c0,0,0.6,0.1,1.8-0.4C91.8,10,92.6,9.6,92.9,8.4z"/>
	<path d="M101.9,12.6c-1.3,2-3,2.5-3.8,2.5s-1.5-0.2-2.4-1c-0.9-0.8-1.1-2.6-0.6-4.5S98,5.9,98,5.9s-0.2-0.3,0.3-0.6
		c0.2-0.1,0.5-0.2,0.8-0.2c0.5,0,1,0.1,1,0.1c1.3,0.1,1.1,0.5,1.1,0.5s0.2,0.1,0.9,0.8C102.6,7.1,103.2,10.7,101.9,12.6z M101.2,9
		c-0.1-0.8-0.7-2.1-1.8-2.4c0,0-1.7,0.7-2.4,2.4c-0.7,1.7-0.7,2.2-0.5,2.9c0.1,0.6,0.3,1.5,1.3,1.7c1,0.2,2.1-0.2,2.7-1.3
		C101,11.1,101.4,9.8,101.2,9z"/>
	<path d="M106.5,5.4c0.2,0,0.3,0.1,0.5,0.2c0.4,0.2,0.2,0.6,0,0.9c-0.2,0.2-0.8,0.9-1.4,3.6c-0.6,2.6-0.2,3.2-0.2,3.2
		s0.3-0.3,1.3-2.3c1.1-2,0.5-2,1.5-2.4c1.1-0.4,0.8,0.9,0.8,0.9c-0.2,3.9,0.6,3.9,0.6,3.9s1-0.9,1.7-2.7c1-2.4,0.5-3.3,0.4-4.2
		c0-0.6,0.3-0.9,0.7-0.9c0.2,0,0.4,0,0.6,0.2c0.6,0.4,0.3,2.9-0.1,4.9c-0.5,2.1-2.4,4.2-3.7,4.3c-1.3,0.2-1.7-2.2-1.7-2.2
		c-0.4,0.8-1.5,2.2-2.5,2.2c-0.7,0-1-0.9-1.2-2.4c-0.3-1.9,1.5-5.4,1.8-6.1C105.7,5.7,106.1,5.4,106.5,5.4z"/>
	<path d="M115.6,7.2c0.3-0.7,0.6-1.3,1.3-1.4c0.8-0.1,0.8,0.3,0.8,0.3s0.4,1.6,0.7,3.1c0.3,1.4,1.2,4.1,1.2,4.1
		c1.1-1.4,1.5-5.6,1.5-7.2c0-0.9-0.1-1.1,0.6-1.3c0.8-0.2,0.8,0.4,0.8,1.3c0,0.9,0,2.4-0.1,3.5c-0.2,1.2-0.9,3.3-1.1,3.7
		c-0.4,0.6-1.2,1.8-1.9,1.7c-0.7-0.1-1.2-1.2-1.5-1.7s-1.2-5-1.2-5c-0.3,0.4-0.8,2.5-1.1,4c-0.3,1.5-0.4,2.6-0.8,2.8
		c-0.4,0.3-0.6,0.2-0.9-0.1c-0.3-0.3,0.1-2.6,0.6-4.6C114.5,10.5,115.3,8,115.6,7.2z"/>
	<path d="M131.7,5.1c1.2-0.3,3-0.2,3-0.2s0.8,0.1,0.9,0.4c0.1,0.3,0.1,0.5,0.1,0.5c0,0.3-0.3,0.4-0.5,0.5c-0.3,0.1-0.2,0.1-1.4,0
		c-1.2,0-1.9,0-2.5,0.4c-0.6,0.4-1.3,3.4-1.3,3.4s1.8,0,3,0c1.2,0,1.5,0.4,1.5,0.7c0,0.3-0.5,0.8-1,0.9c-0.6,0.1-3.6,0-3.6,0
		c-0.3,0.4,0,2.4-0.1,2.7c-0.1,0.3-0.6,0.6-0.8,0.7c-0.1,0-0.2,0.2-0.6-0.3c-0.5-0.4-0.2-1.7-0.2-3.2c0-1.5,0.9-3.7,1.2-4.6
		C129.8,6.1,130.5,5.5,131.7,5.1z"/>
	<path d="M142.3,12.6c-1.3,2-3,2.5-3.8,2.5s-1.5-0.2-2.4-1c-0.9-0.8-1.1-2.6-0.6-4.5s2.8-3.7,2.8-3.7s-0.2-0.3,0.3-0.6
		c0.2-0.1,0.5-0.2,0.8-0.2c0.5,0,1,0.1,1,0.1c1.3,0.1,1.1,0.5,1.1,0.5s0.2,0.1,0.9,0.8C143.1,7.1,143.6,10.7,142.3,12.6z M141.7,9
		c-0.1-0.8-0.7-2.1-1.8-2.4c0,0-1.7,0.7-2.4,2.4c-0.7,1.7-0.7,2.2-0.5,2.9c0.1,0.6,0.3,1.5,1.3,1.7c1,0.2,2.1-0.2,2.7-1.3
		C141.5,11.1,141.9,9.8,141.7,9z"/>
	<path d="M145.9,5.1c0.2,0,0.4,0.1,0.4,0.4c0,0.7,1.6,3.8,1.6,3.8s3.6-4.1,4-4.2c0.5-0.1,1.1,0.2,0.7,0.8c-0.5,0.6-3.9,4.5-3.9,4.5
		s1.2,1.5,1.8,2.5c0.7,1,0.2,1.3-0.2,1.5c-0.3,0.2-0.6,0-1-0.3c-0.4-0.3-1.8-2.4-1.8-2.4s-1.5,1.6-2.4,2.7c-0.9,1-0.9,0.8-1.3,0.8
		c-0.5,0-0.6-0.4-0.1-1.2c0.5-0.7,3-3.6,3-3.6c-1.5-2.4-1.8-4-1.9-4.6C144.7,5.4,145.4,5.1,145.9,5.1z"/>
	<path d="M164.2,4.9c0.5,0,1.9,0,2.2,0.3c0.3,0.2,0.5,0.4,0.1,0.8c-0.1,0.1-0.4,0.4-1.2,0.5c-0.8,0-1.2,0-1.8,0
		c0,1.5-0.6,5.9-1.3,6.9c-0.6,0.7-1.2,1.6-2.1,1.7c-0.9,0.2-2.3-0.2-2.6-0.9c-0.3-0.7-0.4-0.8-0.2-1.1c0.2-0.3,0.4-0.4,0.6-0.3
		c0.2,0.1,1,0.6,1.5,0.7c0.4,0.1,1.2,0.2,1.4-0.6c0.2-0.8,0.3-0.9,0.6-2.1c0.2-1.1,0.7-4.3,0.7-4.3s-3,0.3-3.4,0.2
		c-0.4-0.2-0.5-0.4-0.3-0.7c0.2-0.3,0.3-0.6,0.6-0.6c0.3-0.1,1.2-0.2,1.2-0.2C160.8,5.1,163.8,4.9,164.2,4.9z"/>
	<path d="M169.6,5.7c0,0.5-0.7,1.9-0.8,2.8c-0.2,0.9-0.5,2-0.4,3c0.2,1.2,0.5,1.9,1.3,1.9c0.9,0,1.6-0.8,2.2-2.2
		c0.5-1.4,0.9-2.7,1.1-3.6c0.1-0.9,0.5-2.1,0.9-2.2c0.5,0,1.3-0.3,0.4,2.7c-0.9,3.1-1.8,5.4-3.6,6.5c-0.5,0.3-1,0.4-1.4,0.4
		c-1.5,0-2.1-1.4-2.4-2.6c-0.2-1-0.2-2.2,0.2-3.6c0.5-1.8,1-3.6,1.7-3.6C169.2,5.3,169.6,5.2,169.6,5.7z"/>
	<path d="M176.8,6.6c0.6-0.7,0.9-0.9,1.6-1.2c0.8-0.3,1,0.1,1.4,0.7c0.3,0.6,0.5,1.7,0.5,1.7c0.7-1.1,1.5-2.4,2.9-2.4
		c0.3,0,0.7,0.1,0.9,0.3c0.7,0.5,0.9,2.7,0.7,4.2c-0.2,1.5-0.8,4.3-1,4.6c-0.3,0.3-0.4,0.5-0.8,0.5c-0.4,0-0.4,0-0.6-0.6
		c-0.1-0.5,0.4-2.7,0.6-4.1c0.1-1.4,0.1-3.5-0.3-3.5c-0.4,0-1.2,1.3-1.8,2.7c-0.6,1.3-0.6,2.8-0.9,3.1c-0.2,0.3-0.9,0.6-1.1,0.5
		c-0.3-0.1-0.3-1.8,0-3.6c0.3-1.7-0.5-2.7-0.6-2.7c-0.1,0-1.2,2.3-1.8,4.5c-0.4,2.2,0.1,2.6,0,2.9c-0.1,0.3-0.3,0.5-0.9,0.6
		c-0.6,0.1-0.5-0.6-0.6-1c-0.1-0.4-0.1-1.8,0.3-3.4C175.3,10.5,176.2,7.4,176.8,6.6z"/>
	<path d="M190.7,10.7c-1.2,0.4-2.8,0.5-2.8,0.5s-0.5,2.4-0.5,3c-0.1,0.6-0.6,1-1.1,1c-0.5,0-0.5-0.4-0.6-0.9c0-0.5,1-5.4,1.4-7
		c0.4-1.3,0.6-2.3,1.8-2.4c1.7-0.3,2.4,0.2,3.1,0.4c0.7,0.3,1.5,1,1.5,2.7C193.4,9.7,191.9,10.3,190.7,10.7z M191.6,6.9
		c-0.2-0.2-0.9-0.7-1.7-0.7c-0.8,0-1,0.1-1,0.1s-0.6,3-0.8,3.6c0,0,2.8-0.2,3.5-1.2C192.4,7.6,191.8,7.1,191.6,6.9z"/>
	<path d="M199.3,7.2c-0.1-0.3-0.2-0.7-0.5-0.9c-0.6-0.3-1.2,0.2-1.8,0.7c-0.8,0.7-1.1,1.9-0.8,2.5c0.3,0.6,1.4,0.9,2.1,1.7
		c0.7,0.8,0.9,1.5,0.8,2.1s-1.4,1.8-2.8,1.8c-1.2,0-1.9-0.6-2.3-1s0.2-1.2,0.6-1c0.3,0.1,1.3,0.5,2.1,0.5c0.4,0,0.7-0.1,0.8-0.3
		c0.3-0.8-0.6-0.9-1.9-1.9c-1.3-1.1-1.2-1.8-1.1-2.7c0.2-1,1.2-2.3,2-2.8c0.8-0.6,1.8-1.1,2.7-1c1,0.2,1.2,1.1,1.3,1.8
		c0.2,0.6-0.1,0.9-0.8,1.2C199.4,8,199.3,7.2,199.3,7.2z"/>
	<path d="M212.6,12.6c-1.3,2-3,2.5-3.8,2.5s-1.5-0.2-2.4-1c-0.9-0.8-1.1-2.6-0.6-4.5s2.8-3.7,2.8-3.7s-0.2-0.3,0.3-0.6
		c0.2-0.1,0.5-0.2,0.8-0.2c0.5,0,1,0.1,1,0.1c1.3,0.1,1.1,0.5,1.1,0.5s0.2,0.1,0.9,0.8C213.3,7.1,213.9,10.7,212.6,12.6z M211.9,9
		c-0.1-0.8-0.7-2.1-1.8-2.4c0,0-1.7,0.7-2.4,2.4c-0.7,1.7-0.7,2.2-0.5,2.9c0.1,0.6,0.3,1.5,1.3,1.7c1,0.2,2.1-0.2,2.7-1.3
		C211.7,11.1,212.1,9.8,211.9,9z"/>
	<path d="M216.1,6.1c0,1.1,0.6,5.9,0.6,5.9s3.5-6.7,3.9-7c0.3-0.3,0.3-0.2,0.6-0.2c0.3,0,0.7,0,0.4,0.7c-0.3,0.8-3,5.7-3.4,6.6
		c-0.3,0.9-0.9,1.7-1.1,2.4c-0.2,0.6-1,0.6-1.2,0.6c-0.2,0-0.3-0.3-0.4-1.4c-0.1-1.1-0.5-4.5-0.6-5.7c-0.1-1.1-0.6-3,0.3-3
		C215.8,5.1,216,5,216.1,6.1z"/>
	<path d="M223.9,5.4c0.3-0.2,0.9-0.1,0.9-0.1c0.4-0.1,3,0,3.6,0c0.6,0.1,0.5,0.6,0.3,1c-0.1,0.4-1.1,0.4-2.4,0.3
		c-1.2,0-1.9,0.1-1.9,0.1c-0.6,0.6-1.1,3.2-1.1,3.2c0.6-0.3,3.9-0.4,4.2-0.3c0.3,0.1,0.7,0.5,0.5,0.9c-0.3,0.6-0.9,0.8-1.4,0.6
		c-0.4-0.1-3.4,0.1-3.4,0.1s0.2,1.7,0.5,2c0.1,0.1,0.3,0.2,0.6,0.2c0.5,0,1.1-0.1,1.3-0.2c0.3,0,0.7-0.3,1-0.3c0.2,0,0.3,0,0.4,0.2
		c0.3,0.4,0,0.8-0.9,1.4c-0.9,0.6-1.9,0.6-2.6,0.5c-0.7-0.1-1.1-0.6-1.5-1.2c-0.4-0.7-0.4-2.1-0.3-3.5c0.1-1.4,1-3.3,1.7-4.3
		C223.5,6,223.5,5.6,223.9,5.4z"/>
	<path d="M233.5,11.9c0,0,0.8,0.6,1.6,1.5c0.8,0.9,0.6,1.2,0.1,1.6c-0.2,0.2-0.4,0.3-0.5,0.3c-0.2,0-0.5-0.2-0.9-0.7
		c-0.6-0.8-2.7-1.8-2.7-1.8s-0.2,1.5-0.3,1.9s-0.6,0.8-1,0.8c-0.3,0-0.5-0.1-0.6-1c0-0.9,1.5-8.1,1.5-8.1s-0.2-0.1,0.1-0.6
		c0.3-0.5,0.7-0.4,1.6-0.5c0.9-0.1,3,0.4,3.7,1.1c0.6,0.7,1.3,1.3,0.6,3.1C236.1,11.2,233.5,11.9,233.5,11.9z M235.5,8.4
		c0.3-1.1-2.2-2.1-3.5-1.9l-0.6,4.4c0,0,0.6,0.1,1.8-0.4C234.5,10,235.2,9.6,235.5,8.4z"/>
	<path d="M242.8,6.3c0-0.7,1.2-0.8,1.2-0.8c1.7-0.3,6.3-0.5,6.6-0.3c0.3,0.1,0.3,0.6,0.2,0.9c-0.1,0.3-0.8,0.6-1.4,0.5
		c-0.5-0.1-2.3,0-2.3,0c-0.4,1.5-1.2,7.7-1.4,8.1c-0.1,0.3-0.7,0.6-1.1,0.6c-0.3,0-0.4-0.6-0.3-1.5c0.1-0.9,1.4-7,1.4-7
		s-1.3,0.2-2.1,0.2C243.7,6.9,242.8,6.9,242.8,6.3z"/>
	<path d="M252.6,5.3c0.2-0.4,0.6-0.5,1-0.4c0.4,0,0.3,0.5,0.2,0.9c-0.1,0.3-1.1,4.5-1.1,4.5c0.5-0.3,3.4-0.3,3.4-0.3
		s0.2-0.9,0.4-2.1c0.2-1.2,0.5-2.4,0.8-2.7c0.3-0.3,0.5-0.3,0.9-0.3c0.4,0,0.3,0.7,0.3,1.2c0,0.5-0.4,2.5-0.7,3.7
		c-0.3,1.2-0.5,3.1-0.6,4c-0.2,0.9-0.6,1.1-1,1.2c-0.3,0.1-0.6-0.3-0.6-0.5c-0.1-0.2,0.3-2.9,0.3-2.9c-0.3-0.1-3.4,0.2-3.4,0.2
		s-0.5,2-0.6,2.5c-0.1,0.6-0.3,0.7-0.6,0.9c-0.3,0.3-0.6,0.2-0.8,0c-0.2-0.2-0.2-0.2-0.2-0.6c0-0.5,1.8-7.4,2.1-8.3
		C252.2,6.3,252.4,5.7,252.6,5.3z"/>
	<path d="M261.4,5.4c0.3-0.2,0.9-0.1,0.9-0.1c0.4-0.1,3,0,3.6,0c0.6,0.1,0.5,0.6,0.3,1c-0.1,0.4-1.1,0.4-2.4,0.3
		c-1.2,0-1.9,0.1-1.9,0.1c-0.6,0.6-1.1,3.2-1.1,3.2c0.6-0.3,3.9-0.4,4.2-0.3c0.3,0.1,0.7,0.5,0.5,0.9c-0.3,0.6-0.9,0.8-1.4,0.6
		c-0.4-0.1-3.4,0.1-3.4,0.1s0.2,1.7,0.5,2c0.1,0.1,0.3,0.2,0.6,0.2c0.5,0,1.1-0.1,1.3-0.2c0.3,0,0.7-0.3,1-0.3c0.2,0,0.3,0,0.4,0.2
		c0.3,0.4,0,0.8-0.9,1.4c-0.9,0.6-1.9,0.6-2.6,0.5c-0.7-0.1-1.1-0.6-1.5-1.2c-0.4-0.7-0.4-2.1-0.3-3.5c0.1-1.4,1-3.3,1.7-4.3
		C261,6,261,5.6,261.4,5.4z"/>
	<path d="M273.8,5.2c0.7,0,0.1,0.6,0.1,1.5c0,0.8-1.8,6.9-1.8,6.9s2.6-0.1,3.3-0.1c0.6,0,0.9,0.4,0.8,0.8c-0.1,0.3-0.4,0.6-1,0.8
		c-0.5,0.2-1.6,0.1-3,0.1s-1.3-0.2-1.5-0.5c-0.3-0.3-0.3-0.9,0.1-2c0.4-1.2,1.8-6.1,2-6.8C272.9,5.2,273,5.2,273.8,5.2z"/>
	<path d="M284.8,13.3c0.1,0.9,0.1,1.3-0.2,1.5c-0.2,0.2-0.3,0.4-0.6,0.4c-0.3,0-0.3-0.1-0.6-0.3c-0.3-0.2-0.3-2.2-0.3-2.2
		c-0.4,0.2-2.9,0-2.9,0s-1,1.8-1.3,2.1c-0.3,0.4-0.8,0.3-1,0.2c-0.3-0.1-0.1-0.7-0.1-0.7s4.8-9,5.4-9.3c0.3-0.1,0.4-0.2,0.6-0.2
		c0.6,0,0.4,0.9,0.4,0.9S284.7,12.4,284.8,13.3z M282.8,7.9l-1.9,3.5h2.2L282.8,7.9z"/>
	<path d="M293,5.4c0.6,0,1.2,0.1,1.3,0.2c0.4,0.5,0.8,0.9-0.3,2.1c-1.1,1.2-4.6,4.2-5.6,5.5c0,0,3.9-0.6,4.4-0.6c0.5,0,1,0,1,0.4
		c0.1,0.5-1.2,1.2-2.3,1.3c-0.7,0.1-2.4,0.4-3.6,0.4c-0.5,0-0.9,0-1.1-0.2c-0.6-0.6-0.3-1.2,0.2-1.8c0.5-0.6,3.8-4,4.5-4.5
		c0.7-0.5,1.3-1.3,1.3-1.3s-2.9,0-4.5,0.2c-1.6,0.1-1.5,0-1.6-0.5c0-0.6,0.4-0.9,1.8-0.9C289.2,5.7,291.5,5.4,293,5.4z"/>
	<path d="M298.3,10.4c-0.3-0.3-0.8-1.5-1.6-2.7c-0.8-1.2-0.6-1.7-0.4-1.9c0.1-0.1,0.5-0.4,0.8-0.4c0.2,0,0.3,0.1,0.3,0.3
		c0.2,0.6,2.3,3.8,2.3,3.8s2.9-3.6,3.2-3.9c0.2-0.1,0.4-0.3,0.7-0.3c0.2,0,0.4,0.1,0.4,0.5c0.1,0.7-0.3,1-0.7,1.5
		c-0.4,0.5-5.9,7-6.3,7.5c-0.5,0.5-0.7,0.3-1,0.1c-0.3-0.3-0.3-0.5,0-0.9c0.3-0.3,2.6-3.3,2.6-3.3S298.6,10.6,298.3,10.4z"/>
	<path d="M315.4,10.4c-0.5,2.4-3.5,4.1-5.7,4.7c-1.1,0.3-1.1-0.1-1.2-0.4c-0.2-0.3,1.4-8.3,1.5-8.7c0,0-0.2-0.3,0-0.7
		s0.9-0.4,1.4-0.3c0.5,0.1,1.5,0.3,2.2,0.7c0.7,0.3,1.3,1.1,1.6,2.1C315.4,8.7,315.6,9.6,315.4,10.4z M313.5,8.1
		c-0.5-1.3-2.1-1.4-2.1-1.4s-1,6.2-1.2,6.7c0,0,2.7-0.9,3.2-2C313.9,10.4,314,9.4,313.5,8.1z"/>
	<path d="M323.7,12.6c-1.3,2-3,2.5-3.8,2.5c-0.8,0-1.5-0.2-2.4-1c-0.9-0.8-1.1-2.6-0.6-4.5s2.8-3.7,2.8-3.7s-0.2-0.3,0.3-0.6
		c0.2-0.1,0.5-0.2,0.8-0.2c0.5,0,1,0.1,1,0.1c1.3,0.1,1.1,0.5,1.1,0.5s0.2,0.1,0.9,0.8C324.4,7.1,324.9,10.7,323.7,12.6z M323,9
		c-0.1-0.8-0.7-2.1-1.8-2.4c0,0-1.7,0.7-2.4,2.4c-0.7,1.7-0.7,2.2-0.5,2.9c0.1,0.6,0.3,1.5,1.3,1.7c1,0.2,2.1-0.2,2.7-1.3
		C322.8,11.1,323.2,9.8,323,9z"/>
	<path d="M331.1,7c0-0.3-0.2-0.3-0.3-0.3c-0.4,0-1,0.4-1.6,0.8c-0.9,0.6-1.8,2.4-2,3.2c-0.2,0.8,0,2.2,0.6,2.6
		c0.3,0.2,0.7,0.3,1.2,0.3c0.6,0,1.3-0.1,1.9-0.4c1.2-0.5,1.4-1.5,1.3-2c0-0.2-0.2-0.3-0.4-0.3c-0.3,0-0.6,0.1-0.9,0.1
		c-0.4,0.1-1.2,1.2-1.7,1.2s-0.6-0.4-0.6-0.6s0.3-0.8,1.3-1.6c0.9-0.7,1.9-0.8,2.6-0.7c0.7,0.1,1.3,0.8,1.4,1.8c0,2.2-3.2,4-5.2,4
		c-2,0-2.8-0.9-3.2-2.8c-0.3-1.2,0.5-3.3,1.7-4.8c1.2-1.5,2.7-2,3.3-2.1c0.6-0.1,1.7-0.3,2,0.7s-0.2,1.3-0.6,1.4
		C331.7,7.5,331.2,7.8,331.1,7z"/>
	<path d="M6.9,21.6c0.3,0,0.9-0.2,1.9-0.3c1.2-0.1,3.2,0,4.2,0.1c0.8,0.1,0.5,0.7,0.5,0.7s-0.1,0.6-0.7,0.6c-0.6,0-2.5,0-2.5,0
		c-0.1,0.8-1.1,6.8-1.2,7.5c-0.1,0.6-0.5,0.9-0.9,1c-0.3,0-0.6,0-0.7-0.9c0-0.9,1.4-7.6,1.4-7.6s-1.5,0.1-1.8,0.2
		c-0.4,0.1-1,0-0.9-0.6C6.3,21.7,6.6,21.7,6.9,21.6z"/>
	<path d="M14.8,22c0.2-0.6,0.5-0.6,0.8-0.7c0.3-0.1,0.7-0.2,0.7,0.5c0,0.7-0.8,4.2-0.8,4.2c1.8-0.4,3.6-0.3,4.4-0.2
		c0,0,0.7-2.7,0.9-3.7c0.2-1,0.4-1.1,1-1.2c0.5-0.1,0.6-0.1,0.6,0.8c0,0.9-1,4.6-1,4.6c0.2,0.4-0.2,0.6-0.2,0.6s-0.2,0.5-0.5,1.9
		c-0.3,1.5-0.6,2.4-1.5,2.3c-0.9,0,0.3-3.9,0.3-3.9c-1.5-0.2-4.2,0-4.2,0s-0.2,1.6-0.5,2.4c-0.2,0.4-0.6,0.8-0.9,0.8
		c-0.2,0-0.3,0-0.5-0.2c-0.5-0.6,0.5-4.2,0.9-6.2C14.3,24.2,14.7,22.6,14.8,22z"/>
	<path d="M23.6,24.5c0.6-2.5,0.9-2.3,0.9-2.3c0-0.5,0.3-0.6,0.7-0.6c0.4,0,3.5-0.1,4.5,0c1,0.1,0.9,0.4,0.8,0.6c0,0.3,0,0.5-0.6,0.6
		c-0.5,0.1-4.4,0-4.4,0c0,0.4-0.6,2.8-0.6,2.8s0.7-0.1,2.2-0.3c0.7-0.1,1.2-0.1,1.5,0c0.4,0.2,0.6,0.6,0.4,0.8
		C28.2,27,24.5,27,24.5,27c-0.1,0.5-0.5,1.7-0.1,2.2c0.6,0.9,2,0.1,2.7,0c0.6-0.2,1.7-0.9,2.2-0.3c0.6,0.6-0.5,1-2.5,1.9
		c-2.1,0.9-3.3,0.2-3.9-0.8c-0.6-1-0.1-2.1,0.3-4.1C23.1,25.9,23,26.5,23.6,24.5z"/>
	<path d="M44.4,31.1c-0.3,0.3-0.6,0.2-0.9-0.1c-0.4-0.3-1.3-1.2-1.3-1.2c-0.6,0.7-1.4,1.4-2.4,1.5c-1,0.1-3.9-0.2-4.2-3.6
		c-0.3-3.4,2.4-5.4,2.4-5.4c0-0.6,0.8-1,1.5-1.2c0.6-0.2,2.4-0.1,3.4,0.6c1,0.7,1.7,1.9,1.6,3.6c-0.2,1.7-1.3,3.3-1.3,3.3
		s1,1.2,1.3,1.6C44.7,30.4,44.7,30.9,44.4,31.1z M42.1,23.3c-0.8-0.8-1.5-1-1.9-1c-0.4,0-0.6,0.2-0.6,0.2s0.4,0.1-0.7,0.9
		c-1.1,0.7-2.7,4.5-0.7,5.8c0.6,0.4,1.2,0.6,1.6,0.6c1,0,1.6-0.8,1.6-0.8l-1.5-1.7c0,0-0.6-0.7,0.1-1.2c0.7-0.5,0.7-0.1,0.9,0.1
		c0.2,0.2,1.4,1.3,1.4,1.3s0.1,0,0.5-1.3C42.9,25.1,43.2,24.5,42.1,23.3z"/>
	<path d="M48.2,22.7c-0.6,1.8-0.7,3.9-0.6,4.6c0,0.7,0.3,2.2,1.2,2.2c0,0,0.5,0.2,1.5-1.2c1-1.4,1.4-2.7,1.7-4.2
		c0.3-1.5,0.5-1.7,0.5-2.2c0-0.5,0.4-1,0.9-1s0.6,0.1,0.5,0.9c-0.1,0.9-0.5,3.6-1,4.6c-0.5,1-0.6,1.8-1.8,3
		c-1.2,1.2-1.9,1.8-2.5,1.8s-1.7-0.3-2.2-1.5c-0.5-1.2-0.5-3.8-0.2-5.1c0.4-1.2,0.4-1.7,0.6-2.1c0.1-0.3,0.5-1.5,1.3-1.5
		C48.4,21.1,48.8,20.9,48.2,22.7z"/>
	<path d="M56.1,21.3c0.6-0.1,2.8-0.3,3.9-0.3c1.1-0.1,1,0.9,0.5,1.2c-0.5,0.3-1.9,0.3-1.9,0.3s-0.9,4.2-1,5.4
		c-0.2,1-0.4,1.8-0.4,1.8s1.3-0.1,1.7,0.3c0.7,0.6-0.1,1.1-0.6,1.3c-0.5,0.2-2.7-0.1-3.3,0c-0.6,0-1.4-0.5-0.9-1.1
		c0.6-0.6,1.7-0.5,1.7-0.5s0.3-2.1,0.6-3.4c0.3-1.3,0.8-3.5,0.8-3.5c-1.9,0.3-1.8-0.1-1.7-0.6C55.5,21.6,55.5,21.4,56.1,21.3z"/>
	<path d="M65.7,22.2c-0.1-0.1-0.2-0.3-0.4-0.3c-0.3,0-0.7,0.2-1.5,0.8c-1.3,0.9-2.1,3.6-2,4.8c0.2,1.3,1.2,2.1,2.3,2
		c1.1-0.1,2.4-1.1,2.8-1.4c0.1-0.1,0.3-0.2,0.5-0.2c0.3,0,0.7,0.3,0.4,0.7c-0.4,0.8-3,2.7-4.7,2.4c-1.9-0.3-2.2-1.5-2.8-3
		c-0.5-1.4,0.3-4.2,1.8-5.7c1.4-1.5,2.5-1.8,3.4-1.8c0.9-0.1,1.6,0.4,1.7,1.2c0.1,0.7,0,0.8-0.6,0.9C65.9,22.9,65.9,22.6,65.7,22.2z
		"/>
	<path d="M70.5,22.6c0.2-0.9,0.5-1.2,0.9-1.2s0.7-0.2,0.6,0.9c-0.1,1-0.7,4.1-0.7,4.1s5.1-4,5.4-4.2c0.2-0.1,0.6-0.6,0.9-0.6
		c0.1,0,0.3,0,0.4,0.2c0.5,0.4,0.1,0.8-0.6,1.4c-1.3,1.1-5,4.1-5,4.1c0.5,0.1,1.3,0.9,2.1,1.3c0.8,0.3,1.6,0.8,1.5,1.3
		c-0.1,0.5-0.2,0.6-1.1,0.6c-1,0-4-2.1-4-2.1c-0.1,0.8-0.3,2.1-0.6,2.4c-0.3,0.3-0.4,0.4-0.6,0.4c-0.2,0-0.3-0.1-0.6-0.3
		c-0.5-0.4,0.4-3.3,0.6-5.1C69.9,25.8,70.4,23.5,70.5,22.6z"/>
	<path d="M89.8,29.3c-0.9,1.2-4.3,1.8-5.2,2c-0.9,0.2-1.1-0.4-1.1-0.4c-0.4,0.3-0.8,0.1-0.9-0.3c-0.2-0.7,1.3-7.7,1.9-9
		c0.1-0.4,0.8-0.5,0.8-0.5s0.4-0.2,1.5-0.3c1.7-0.2,3.6,0.9,3.7,2.4c0,1.5-2.5,3-2.5,3C89.9,26.9,90.7,28.1,89.8,29.3z M87.2,27.7
		c-0.9-0.3-2.1,0.3-2.1-0.5c-0.2-0.7,0-0.7,1.6-1.5c1.6-0.8,2.1-1.5,2.3-2.1s-1.4-1.5-2.2-1.5c-0.8,0-1.2,0.3-1.2,0.3
		s-1.2,6.9-1.5,7.7c0,0,0.2-0.2,0.7-0.2c0.5,0,3.5-0.7,3.8-1.2C88.8,28.3,88.1,28,87.2,27.7z"/>
	<path d="M97.8,31.1c-0.6,0.3-0.8,0.2-1.4-0.9c-0.9-1.4-2.1-2-3-2.2c0,0-0.3,1.8-0.4,2.6c-0.1,0.7-1.8,1.8-1.6,0
		c0.1-0.8,0.3-2.6,0.6-4.4c0.4-2,1-3.9,1-3.9s-0.4-0.1,0-0.6c0.2-0.3,0.2-0.5,0.6-0.6c0.6-0.2,2.3-0.5,3.5-0.2
		c1.5,0.3,2.3,0.9,2.5,1.6c0.1,0.6,0.1,1-0.2,1.8c-0.7,1.8-3.6,3-3.6,3s1.3,0.9,2,2.1C98.4,30.5,98.4,30.7,97.8,31.1z M97.5,24.6
		c1-1,0.7-1.4,0.2-2c-0.6-0.6-2.1-0.5-3.2-0.3c0,0-0.5,3.3-0.8,4.2C93.6,26.5,96.2,25.9,97.5,24.6z"/>
	<path d="M109.1,26.4c-0.6,2-2.1,3.7-4.1,4.5c-2,0.8-3.1-0.1-3.9-1.1c-0.8-1-1.4-3.2-0.2-5.3c1.2-2.2,3.2-3,3.2-3
		c0.1-0.6,0.8-0.6,1.3-0.6c0.6,0,1.2,0,2.4,0.8C108.8,22.5,109.7,24.4,109.1,26.4z M107.8,25.4c0.1-2.4-2.7-3.1-2.7-3.1
		c-0.2,0.3-0.2,0.2-0.7,0.4c-0.5,0.3-1.1,0.8-1.8,1.6c-0.8,0.9-1.7,4.2,0.4,5.1C105.2,30.4,107.7,28,107.8,25.4z"/>
	<path d="M112.5,23.2c-0.7,1.5-1.1,5.3-0.7,6.5c0,0,1.5-2.3,1.8-4c0,0-0.1-1.1,0.9-1.2c0.9-0.1,0.6,0.6,0.6,1.2c0,1,0.9,3.7,1.7,3.8
		c0,0,1.5-1.8,1.6-4.2c0-2.4-1.2-2.4-0.7-3.4c0.5-1,1.5,0.1,1.8,0.9c0.3,0.8,0.6,1.7,0.2,3.8c-0.4,2.1-1.3,3.4-1.9,3.9
		c-0.6,0.5-1.3,1-2.2,0.3c-0.9-0.7-1.5-2.4-1.5-2.4s-0.5,1.8-1.8,2.5c-1.2,0.6-1.4,0.2-1.8-0.4c-0.6-0.9-0.3-4.2,0.3-6.4
		c0.6-2,1-2.5,1.6-2.5C113,21.6,113.3,21.7,112.5,23.2z"/>
	<path d="M124.4,21.9c0.6-0.3,1.2-0.4,1.4,3.1c0.1,3.5,1,4.6,1,4.6s1.1-2.1,1.9-6.2c0.4-1.8,0-2.6,1.2-3.1c0.9-0.3,0.7,0.8,0.6,1.8
		c-0.2,2.3-1.4,7.7-3.5,8.8c-0.2,0.1-0.3,0.2-0.5,0.2c-0.6,0-1.2-0.6-1.7-1.7c-0.6-1.5-0.6-5.5-0.6-5.5c-1.5,2.2-1.9,5.4-2,6.2
		c0,0.8-0.3,1.1-0.8,1.2c-0.5,0.2-0.8-0.1-0.7-0.8c0.2-3.2,1.1-5.5,2.8-8.1C123.5,22.4,123.8,22.2,124.4,21.9z"/>
	<path d="M139.7,21.2c1.5-0.3,2.6,0.1,3.1,0.3c0.5,0.2,0.8,0.6,0.6,0.9c-0.2,0.4-0.7,0.6-1.2,0.4c-0.3-0.1-1-0.3-1.7-0.3
		c-0.6,0-1.2,0.1-1.6,0.3c-1,0.6-1.3,3.8-1.3,3.8s2.8,0,3.4,0c0.6,0,1.6,0.4,1,1c-0.5,0.6-1,0.6-1.5,0.6c-0.6,0-3.1,0-3.1,0
		c-0.2,0.8,0.2,2-0.1,2.3c-0.2,0.2-0.5,0.6-0.8,0.6c-0.2,0-0.3-0.1-0.5-0.3c-0.8-1.1,0-5.2,0.5-6.8C137,22.1,138.3,21.5,139.7,21.2z
		"/>
	<path d="M152.2,26.4c-0.6,2-2.1,3.7-4.1,4.5c-2,0.8-3.1-0.1-3.9-1.1c-0.8-1-1.4-3.2-0.2-5.3c1.2-2.2,3.2-3,3.2-3
		c0.1-0.6,0.8-0.6,1.3-0.6c0.6,0,1.2,0,2.4,0.8C151.9,22.5,152.8,24.4,152.2,26.4z M150.9,25.4c0.1-2.4-2.7-3.1-2.7-3.1
		c-0.2,0.3-0.2,0.2-0.7,0.4c-0.5,0.3-1.1,0.8-1.8,1.6c-0.8,0.9-1.7,4.2,0.4,5.1C148.3,30.4,150.9,28,150.9,25.4z"/>
	<path d="M159.7,21.6c0.3-0.1,0.6-0.2,0.8-0.2s0.3,0.1,0.3,0.5c0,0.7-0.4,0.6-1,1.4c-0.6,0.7-2.7,3-2.7,3s1.6,2.7,2.2,3.1
		c0.6,0.3,0.1,0.9-0.3,1.2c-0.4,0.2-0.9-0.1-1.3-0.7c-0.5-0.6-1.2-1.4-1.6-2.2c0,0-1.8,2.6-2.1,2.9c-0.3,0.4-0.6,0.7-1,0.4
		c-0.3-0.3-0.4-0.3,0-1.2c0.5-0.9,1.8-2.6,2.4-3.3c0,0-1.6-2.9-1.8-3.4c-0.1-0.6-0.7-1,0-1.6c0.2-0.1,0.3-0.2,0.4-0.2
		c0.4,0,0.7,0.6,0.9,1c0.3,0.5,1.5,2.8,1.5,2.8S159,21.8,159.7,21.6z"/>
	<path d="M167.6,21.4c0.4,0,1.5,0,3.1-0.1c1.6-0.1,2.9,0.1,3.4,0.1c0.5,0,0.9,0.2,0.8,0.8c-0.2,0.6-0.3,0.7-1.2,0.6
		c-0.9-0.1-2.5-0.1-2.5-0.1c0,1.5-0.3,3.9-0.5,5.5c-0.3,1.8-0.7,2.3-1.3,2.6c-0.3,0.2-0.8,0.3-1.3,0.3c-0.6,0-1.3-0.1-2-0.3
		c-1.2-0.4-1.3-0.7-1-1.2c0.3-0.3,0.4-0.5,0.7-0.5s0.6,0.1,1.1,0.2c0.9,0.1,1.8,0.3,2,0.1c0.2-0.1,0.3-1.6,0.4-2.7
		c0-1.1,0.5-4,0.5-4s-1.9,0-2.3,0c-0.4-0.1-0.7-0.1-0.5-0.8C167,21.5,167.2,21.4,167.6,21.4z"/>
	<path d="M177.5,22.7c-0.6,1.8-0.7,3.9-0.6,4.6c0,0.7,0.3,2.2,1.2,2.2c0,0,0.5,0.2,1.5-1.2c1-1.4,1.4-2.7,1.7-4.2
		c0.3-1.5,0.5-1.7,0.5-2.2c0-0.5,0.4-1,0.9-1s0.6,0.1,0.5,0.9c-0.1,0.9-0.5,3.6-1,4.6c-0.5,1-0.6,1.8-1.8,3
		c-1.2,1.2-1.9,1.8-2.5,1.8s-1.7-0.3-2.2-1.5c-0.5-1.2-0.5-3.8-0.2-5.1c0.4-1.2,0.4-1.7,0.6-2.1c0.1-0.3,0.5-1.5,1.3-1.5
		C177.8,21.1,178.1,20.9,177.5,22.7z"/>
	<path d="M183.6,30.2c-0.2-0.6,0.3-2.2,0.7-4.2c0.3-1.2,1.5-4.7,3.1-4.7c0.3,0,0.6,0.1,0.7,0.4c0.3,0.7,0.5,3,0.5,3
		c0.6-1.2,1.7-2.8,2.2-3.3c0.3-0.3,0.9-0.5,1.3-0.5c0.3,0,0.6,0,0.6,0.2c0.3,0.4,1,1.1,0.5,5.2c-0.5,4.1-0.9,4.8-1.7,4.8
		c-0.9,0-0.5-0.4,0-4.5c0.6-4.1,0-4,0-4c-0.6,0.5-1.2,1.5-2,3.2c-0.8,1.7-0.9,1.9-1.5,2.1c-0.6,0.1-0.9,0.2-0.8-1.9
		c0-2.1-0.3-2.7-0.3-2.7c-1.1,1.1-1.8,5.6-1.9,6.6c-0.1,0.9,0,0.9-0.7,1.1C183.6,31.1,183.8,30.9,183.6,30.2z"/>
	<path d="M200.8,26.6c-1.9,1-3.8,0.9-3.8,0.9c-0.4,2.4-0.5,3.6-1.5,3.7c-0.9,0.1-0.2-3,0.3-5.7c0,0,0.4-2.7,0.7-3.7s1.2-0.6,1.2-0.6
		s0.5-0.3,2.1,0c2.9,0.6,3.2,1.9,3.3,2.7C203,24.6,202.8,25.5,200.8,26.6z M199.8,22.7c-1.2-0.5-2.2-0.3-2.2-0.3l-0.4,3.6
		c0,0,1,0,2.1-0.3c1-0.3,2.1-1.2,2.2-1.6C201.4,24.2,201.7,23.5,199.8,22.7z"/>
	<path d="M207.2,27.1c0,0,1.7,1,1.3,2c-0.5,1.5-2.2,2.3-3.7,2.3c-0.9,0-1.7-0.2-2-0.6c-0.6-0.7,0.3-1.2,0.6-1.3s0.6,0.3,1.7,0.3
		s1.5-0.2,1.8-0.6c0.2-0.4-1.2-1.1-2-1.6c-0.8-0.6-1.2-1.8-1.2-2.9c0.1-1.9,2.4-3.5,4.2-3.5c0.5,0,1.7,0.1,1.7,0.7
		c0,0.5,0,0.9-0.6,0.9c-0.6,0-0.6-0.5-1.4-0.2c-0.8,0.3-1.9,0.6-2.2,2C205,26,205.9,26,207.2,27.1z"/>
	<path d="M223.5,26.4c-0.6,2-2.1,3.7-4.1,4.5c-2,0.8-3.1-0.1-3.9-1.1c-0.8-1-1.4-3.2-0.2-5.3c1.2-2.2,3.2-3,3.2-3
		c0.1-0.6,0.8-0.6,1.3-0.6c0.6,0,1.2,0,2.4,0.8C223.2,22.5,224.1,24.4,223.5,26.4z M222.2,25.4c0.1-2.4-2.7-3.1-2.7-3.1
		c-0.2,0.3-0.2,0.2-0.7,0.4c-0.5,0.3-1.1,0.8-1.8,1.6c-0.8,0.9-1.7,4.2,0.4,5.1C219.6,30.4,222.1,28,222.2,25.4z"/>
	<path d="M226.2,22c0,0.7,0.5,6.3,0.8,6.9c0,0,2.4-4.5,3.2-5.5s0.5-0.9,0.9-1.4c0.4-0.5,0.8-1,1.5-0.8c0.6,0.3-0.2,1.5-0.6,2
		c-0.6,0.8-2.1,3.1-3.1,5.1c-1,2.1-1,2.5-1.7,2.7c-0.7,0.2-0.9,0.4-1.5-1.5c-0.7-1.9-0.7-7-0.7-7.4c0-0.4,0.2-0.7,0.7-0.9
		C226,21,226.1,21.3,226.2,22z"/>
	<path d="M233.7,24.5c0.6-2.5,0.9-2.3,0.9-2.3c0-0.5,0.3-0.6,0.7-0.6s3.5-0.1,4.5,0c1,0.1,0.9,0.4,0.8,0.6s0,0.5-0.6,0.6
		c-0.5,0.1-4.4,0-4.4,0c0,0.4-0.6,2.8-0.6,2.8s0.7-0.1,2.2-0.3c0.7-0.1,1.2-0.1,1.5,0c0.4,0.2,0.6,0.6,0.4,0.8
		c-0.9,0.8-4.5,0.8-4.5,0.8c-0.1,0.5-0.5,1.7-0.1,2.2c0.6,0.9,2,0.1,2.7,0c0.6-0.2,1.7-0.9,2.2-0.3c0.6,0.6-0.5,1-2.5,1.9
		c-2.1,0.9-3.3,0.2-3.9-0.8c-0.6-1-0.1-2.1,0.3-4.1C233.2,25.9,233.1,26.5,233.7,24.5z"/>
	<path d="M247.4,31.1c-0.6,0.3-0.8,0.2-1.4-0.9c-0.9-1.4-2.1-2-3-2.2c0,0-0.3,1.8-0.4,2.6c-0.1,0.7-1.8,1.8-1.6,0
		c0.1-0.8,0.3-2.6,0.6-4.4c0.4-2,1-3.9,1-3.9s-0.4-0.1,0-0.6c0.2-0.3,0.2-0.5,0.6-0.6c0.6-0.2,2.3-0.5,3.5-0.2
		c1.5,0.3,2.3,0.9,2.5,1.6c0.1,0.6,0.1,1-0.2,1.8c-0.7,1.8-3.6,3-3.6,3s1.3,0.9,2,2.1C248.1,30.5,248,30.7,247.4,31.1z M247.1,24.6
		c1-1,0.7-1.4,0.2-2c-0.6-0.6-2.1-0.5-3.2-0.3c0,0-0.5,3.3-0.8,4.2C243.3,26.5,245.8,25.9,247.1,24.6z"/>
	<path d="M255.7,21.6c0.3,0,0.9-0.2,1.9-0.3c1.2-0.1,3.2,0,4.2,0.1c0.8,0.1,0.5,0.7,0.5,0.7s-0.1,0.6-0.7,0.6c-0.6,0-2.5,0-2.5,0
		c-0.1,0.8-1.1,6.8-1.2,7.5c-0.1,0.6-0.5,0.9-0.9,1c-0.3,0-0.6,0-0.7-0.9c0-0.9,1.4-7.6,1.4-7.6s-1.5,0.1-1.8,0.2
		c-0.4,0.1-1,0-0.9-0.6C255.1,21.7,255.4,21.7,255.7,21.6z"/>
	<path d="M263.6,22c0.2-0.6,0.5-0.6,0.8-0.7c0.3-0.1,0.7-0.2,0.7,0.5c0,0.7-0.8,4.2-0.8,4.2c1.8-0.4,3.6-0.3,4.4-0.2
		c0,0,0.7-2.7,0.9-3.7c0.2-1,0.4-1.1,1-1.2c0.5-0.1,0.6-0.1,0.6,0.8c0,0.9-1,4.6-1,4.6c0.2,0.4-0.2,0.6-0.2,0.6s-0.2,0.5-0.5,1.9
		c-0.3,1.5-0.6,2.4-1.5,2.3c-0.9,0,0.3-3.9,0.3-3.9c-1.5-0.2-4.2,0-4.2,0s-0.2,1.6-0.5,2.4c-0.2,0.4-0.6,0.8-0.9,0.8
		c-0.2,0-0.3,0-0.5-0.2c-0.5-0.6,0.5-4.2,0.9-6.2C263.1,24.2,263.4,22.6,263.6,22z"/>
	<path d="M272.4,24.5c0.6-2.5,0.9-2.3,0.9-2.3c0-0.5,0.3-0.6,0.7-0.6s3.5-0.1,4.5,0c1,0.1,0.9,0.4,0.8,0.6s0,0.5-0.6,0.6
		c-0.5,0.1-4.4,0-4.4,0c0,0.4-0.6,2.8-0.6,2.8s0.7-0.1,2.2-0.3c0.7-0.1,1.2-0.1,1.5,0c0.4,0.2,0.6,0.6,0.4,0.8
		c-0.9,0.8-4.5,0.8-4.5,0.8c-0.1,0.5-0.5,1.7-0.1,2.2c0.6,0.9,2,0.1,2.7,0c0.6-0.2,1.7-0.9,2.2-0.3c0.6,0.6-0.5,1-2.5,1.9
		c-2.1,0.9-3.3,0.2-3.9-0.8c-0.6-1-0.1-2.1,0.3-4.1C271.9,25.9,271.8,26.5,272.4,24.5z"/>
	<path d="M285.8,22.4c0.3-1,0.6-1.2,1-1.2s0.6,0,0.5,0.6c0,0.6-0.3,2-1,4.4c-0.8,2.9-0.8,3.1-0.8,3.1s1.1,0.1,1.8,0.1
		c0.7,0,2.7-0.4,2.4,0.7c-0.3,1.2-1.9,0.9-3.7,1c-1.7,0.1-1.9-0.4-2.1-1.2c-0.3-0.8,0.8-3.6,1.3-5.5
		C285.2,24.5,285.5,23.5,285.8,22.4z"/>
	<path d="M298.7,30.7c-0.1,0.3-0.5,0.6-0.7,0.6c-0.3,0-0.2,0-0.5-0.2c-0.3-0.2-0.3-0.5-0.3-0.5l-0.3-2.1c0,0-3.2,0.3-3.3,0.2
		c0,0-0.6,1.6-0.9,2c-0.2,0.4-0.7,0.6-0.9,0.6c-0.2,0-0.3-0.3-0.5-0.6c0-0.3,0.3-1.3,0.5-1.7c0.1-0.4,1-2.3,1.1-2.4
		c0.1-0.1,2.7-5.4,2.9-5.5c0,0,0.6-0.3,0.8-0.2c0.3,0.1,0.2,0.3,0.4,0.6c0.1,0.3,0.6,2.1,0.7,2.9c0.2,0.9,0.8,4.1,0.9,4.8
		C298.8,29.8,298.8,30.3,298.7,30.7z M296.7,27.1l-0.7-3.5l-1.9,3.8C294.4,27.1,296.7,27.1,296.7,27.1z"/>
	<path d="M301.6,21.8c0.3,0,4.4-0.3,5.2-0.2c0.9,0.1,0.6,0.6,0.6,0.6s0,0.4-0.2,0.8s-1.1,1.2-1.1,1.2s0,0-0.3,0.4
		c-0.3,0.4-4.6,5-4.6,5s2.7-0.3,3.5-0.3c0.8,0,1.5-0.1,1.5,0.5c-0.1,0.7-0.9,1-1.3,0.9c-0.4,0-2.4,0.2-3.8,0.3
		c-1.4,0.2-1.4-0.2-1.5-0.5c-0.2-0.3-0.2-0.8,0.4-1.5c0.6-0.8,5.4-6,5.4-6s-1.9,0.1-3,0.1c-1.2,0-1.5-0.1-1.4-0.7
		C300.9,21.8,301.2,21.9,301.6,21.8z"/>
	<path d="M314.7,21.3c0.4-0.4,0.5-0.9,1.1-0.6c0.6,0.3,0.4,0.8-0.3,1.7c-0.6,0.9-4.7,6.3-5.3,7c-0.6,0.8-1.4,2.1-2,1.6
		c-0.6-0.5,0.2-1.4,1.1-2.7c0.9-1.3,1.5-2,1.5-2s-1.2-1.1-1.8-2.8c-0.6-1.8-0.9-1.8,0-2.3c0.8-0.5,1,0.6,1.4,1.4
		c0.4,0.8,1.4,2.4,1.4,2.4S314.3,21.7,314.7,21.3z"/>
	<path d="M327.6,27.9c-1.1,1.8-4.8,3.1-5.4,3.2c-0.6,0.2-0.9-0.3-0.9-0.3c-0.3,0.3-0.6,0.2-0.9-0.1c-0.3-0.3,0-1.7,0.3-3.2
		c0.3-1.5,0.9-4.9,1.2-6c0,0,0.3-1,1.4-0.8c1.1,0.2,2.7,1.2,3.8,2.8C328.2,25.2,328.6,26.1,327.6,27.9z M326.4,27.1
		c0.3-1.2-0.4-3.3-3.3-4.7c0,0-1,6.3-1.4,7.4C321.8,29.8,326.1,28.4,326.4,27.1z"/>
	<path d="M338.2,26.4c-0.6,2-2.1,3.7-4.1,4.5c-2,0.8-3.1-0.1-3.9-1.1c-0.8-1-1.4-3.2-0.2-5.3c1.2-2.2,3.2-3,3.2-3
		c0.1-0.6,0.8-0.6,1.3-0.6c0.6,0,1.2,0,2.4,0.8C337.9,22.5,338.8,24.4,338.2,26.4z M336.9,25.4c0.1-2.4-2.7-3.1-2.7-3.1
		c-0.2,0.3-0.2,0.2-0.7,0.4c-0.5,0.3-1.1,0.8-1.8,1.6c-0.8,0.9-1.7,4.2,0.4,5.1C334.3,30.4,336.9,28,336.9,25.4z"/>
	<path d="M341.3,28.3c0.3,0.6,0.5,1.3,1.3,1.3c0.5,0,1.2-0.2,2.2-0.8c0.9-0.5,1.2-1.6,0.3-1.6c-0.2,0-0.5,0.1-0.9,0.2
		c-0.6,0.3-1,0.6-1.2,0.6c-0.2,0-0.3-0.1-0.4-0.3c-0.3-0.6,0.4-1.1,1.5-1.7c0.4-0.3,0.9-0.3,1.3-0.3c0.7,0,1.3,0.3,1.6,0.9
		c0.5,1,0,2.7-3,4.2c-0.6,0.3-1.1,0.4-1.5,0.4c-2.3,0-3.2-3-2.9-4.2c0.3-1.4,0.7-2.8,2.4-4.4c1.2-1.2,2.2-1.6,3.1-1.6
		c0.3,0,0.6,0,0.9,0.1c1.1,0.3,1,1.3,0.8,1.7c-0.1,0.2-0.5,0.3-0.8,0.3c-0.2,0-0.4-0.1-0.4-0.2c-0.1-0.3-0.2-0.7-0.8-0.6
		c-1,0.2-2.3,1.7-2.3,1.7C341.3,25.3,340.8,27.2,341.3,28.3z"/>
</g>
</svg>
