<?xml version="1.0" encoding="utf-8"?>
<!-- Generator: Adobe Illustrator 26.1.0, SVG Export Plug-In . SVG Version: 6.00 Build 0)  -->
<svg version="1.1" id="Layer_1" xmlns="http://www.w3.org/2000/svg" xmlns:xlink="http://www.w3.org/1999/xlink" x="0px" y="0px"
	 viewBox="0 0 372 36.9" style="enable-background:new 0 0 372 36.9;" xml:space="preserve">
<g>
	<path d="M4.2,6.3C4,5.6,5.2,5.5,5.2,5.5c1.6-0.3,6.2-0.5,6.5-0.3C12,5.2,12.1,5.7,12.2,6c0,0.3-0.7,0.6-1.2,0.5
		c-0.6-0.1-2.3,0-2.3,0C8.5,8,9.1,14.3,9,14.6c0,0.3-0.6,0.6-0.9,0.6s-0.5-0.6-0.6-1.5c-0.1-0.9-0.3-7-0.3-7S6,6.8,5.1,6.9
		C5.1,6.9,4.3,6.9,4.2,6.3z"/>
	<path d="M13.7,5.3c0.1-0.4,0.5-0.5,0.9-0.4C15,4.9,15,5.4,15,5.7c0,0.3-0.1,4.5-0.1,4.5c0.4-0.3,3.4-0.3,3.4-0.3s0-0.9,0-2.1
		s0-2.4,0.2-2.7C18.7,5,18.9,5,19.3,5c0.4,0,0.5,0.7,0.5,1.2c0.1,0.5,0.2,2.5,0.1,3.7c0,1.2,0.3,3.1,0.3,4c0,0.9-0.4,1.1-0.7,1.2
		c-0.3,0.1-0.6-0.3-0.8-0.5c-0.1-0.2-0.3-2.9-0.3-2.9C18,11.5,15,11.8,15,11.8s0,2,0,2.5c0,0.6-0.1,0.7-0.4,0.9
		c-0.3,0.3-0.6,0.2-0.8,0c-0.2-0.2-0.2-0.2-0.3-0.6c-0.1-0.5,0.1-7.4,0.1-8.3C13.5,6.3,13.6,5.7,13.7,5.3z"/>
	<path d="M22.5,5.4c0.3-0.2,0.9-0.1,0.9-0.1c0.3-0.1,3,0,3.6,0c0.6,0.1,0.6,0.6,0.6,1c0,0.4-1,0.4-2.3,0.3c-1.2,0-1.9,0.1-1.9,0.1
		c-0.4,0.6-0.4,3.2-0.4,3.2c0.5-0.3,3.8-0.4,4.1-0.3c0.3,0.1,0.8,0.5,0.7,0.9c-0.1,0.6-0.8,0.8-1.3,0.6c-0.5-0.1-3.3,0.1-3.3,0.1
		s0.6,1.7,0.9,2c0.1,0.1,0.4,0.2,0.6,0.2c0.5,0,1-0.1,1.3-0.2c0.3,0,0.7-0.3,1-0.3c0.1,0,0.3,0,0.4,0.2c0.4,0.4,0.2,0.8-0.6,1.4
		c-0.8,0.6-1.8,0.6-2.5,0.5c-0.8-0.1-1.2-0.6-1.8-1.2c-0.6-0.7-0.9-2.1-1.1-3.5c-0.2-1.4,0.3-3.3,0.7-4.3C22.2,6,22.2,5.6,22.5,5.4z
		"/>
	<path d="M43.2,15.4c-0.1,0.1-0.1,0.3-0.6,0.2c-0.5-0.1-1.8-1.3-1.8-1.3s-0.9,0.8-1.9,0.9c-0.9,0-2.1-0.1-3.5-1.4
		c-1.4-1.3-1.8-2.5-1.9-4.2c-0.1-1.6,1.1-3.3,2-4.2c0.9-0.8,2-0.8,2.4-0.6c0.4,0.1,0.3,0.5,0.3,0.5c2.3,0.2,3,1.4,3.6,2.1
		c0.5,0.8,0.7,1.6,0.7,2.9c0,1.3-0.9,2.7-0.9,2.7s0.7,0.6,1.4,1.2C43.8,15,43.4,15.3,43.2,15.4z M41.1,9.5c-0.2-1.2-1-2.2-2.4-2.5
		C37.1,6.6,37.4,6,37.4,6c-0.3,0.1-2.5,1.7-2.3,3.8c0.2,2.1,1.5,3.4,2.5,3.7c0.9,0.3,1.9,0,2.1-0.3c0,0-2-2-2.2-2.5
		c-0.2-0.5-0.6-1.1-0.1-1.3c0.5-0.2,0.7-0.3,1,0.1c0.3,0.5,1.8,2.3,2.3,2.6C40.7,12.2,41.3,10.7,41.1,9.5z"/>
	<path d="M45.6,5.7c0,0.5-0.3,1.9-0.2,2.8c0,0.9,0,2,0.3,3c0.4,1.2,0.9,1.9,1.7,1.9c0.9,0,1.5-0.8,1.7-2.2c0.2-1.4,0.3-2.7,0.3-3.6
		c0-0.9,0-2.1,0.5-2.2c0.4,0,1.2-0.3,1,2.7c-0.2,3.1-0.5,5.4-2.1,6.5c-0.5,0.3-0.9,0.4-1.3,0.4c-1.5,0-2.4-1.4-3-2.6
		c-0.4-1-0.7-2.2-0.7-3.6c0.1-1.8,0.2-3.6,0.9-3.6C45.1,5.3,45.6,5.2,45.6,5.7z"/>
	<path d="M53.4,5.3c0.3,0,0.6-0.3,0.8,0.1s0.2,0.9,0.2,1.5c0,0.5,0.3,7,0.3,7.2s0.1,0.3,0,0.5c-0.1,0.2-0.4,0.6-0.6,0.6
		c-0.2,0.1-0.4,0.1-0.7-0.3c-0.3-0.4-0.2-0.4-0.3-0.6c-0.1-0.2-0.1-2.7-0.2-4.4c-0.1-1.8,0-3.2,0-3.8C52.9,5.6,53,5.3,53.4,5.3z"/>
	<path d="M61.4,7.5c-0.3-0.7-1.1-1.1-1.8-1c-0.8,0-1.5,1.5-1.7,2.4c-0.3,0.8-0.1,1.1-0.2,1.7c0,1.1,1.5,3.5,2.8,3.5
		c0.3,0,0.7-0.2,1-0.3c0.6-0.3,1-0.6,1.6-0.3c0.6,0.3,0.3,1-0.9,1.8c-0.5,0.3-0.9,0.4-1.4,0.4c-2,0-3.9-2.1-4.5-3.8
		c-0.6-2.1,0-4,1-5.4c0.9-1.5,2.4-1.4,3.3-1.3c0.9,0.1,1.7,1.1,1.9,1.7c0.3,0.6,0,0.8-0.3,1C62.2,7.7,61.7,8.1,61.4,7.5z"/>
	<path d="M64.6,6.2c0,0,0-1.1,0.6-1.2c0.6,0,0.8,0,0.9,0.3c0.1,0.3-0.1,0.9,0,1.4c0,0.5,0.1,3.6,0.1,3.6s1.3-1.5,1.7-1.8
		c0.4-0.3,1.7-2,2.1-2.4c0.4-0.5,0.6-0.9,0.9-0.9c0.3,0,0.4-0.1,0.6,0c0.3,0.1,0.3,0.6,0.2,1c-0.1,0.4-1.2,1.6-1.5,2
		c-0.3,0.4-2.6,2.8-2.6,2.8c0.2,0,1,0.5,1.6,0.9c0.6,0.3,1.5,0.6,2,0.9c0.5,0.3,1,0.6,0.6,1.1c-0.3,0.5-0.8,0.4-1.2,0.3
		c-0.5-0.1-1.5-0.4-2.2-0.9c-0.7-0.5-2.1-1-2.1-1s0,2,0,2.4s-0.5,0.8-0.9,0.8c-0.3,0-0.6-0.5-0.7-1c-0.1-0.5-0.1-4.5-0.1-6L64.6,6.2
		z"/>
	<path d="M84.3,12.5c0,1.4-3.3,2.8-4.6,2.8c-0.6,0-0.9-0.3-1.1-0.7c-0.4-0.6-0.7-7.5-0.7-8.2c0-0.5,0.1-0.9,0.5-1.1
		c0.4-0.3,0.7,0,0.7,0C79.4,5.1,80,5,80.7,5c1.7,0,2.8,0.4,3,2.4c0,1.2-2.3,3.2-2.3,3.2C83.1,10.5,84.3,11.6,84.3,12.5z M82.1,7
		c0-0.5-0.6-0.7-1.3-0.7c-0.6,0-1.2,0.2-1.5,0.3l0.3,3.5C79.7,10.2,82.2,8.3,82.1,7z M82.7,12.5c0-0.8-2.9-0.4-2.9-0.4l0.1,1.6
		C80,13.8,82.7,13.3,82.7,12.5z"/>
	<path d="M90,11.9c0,0,0.9,0.6,1.9,1.5c1,0.9,0.9,1.2,0.5,1.6c-0.2,0.2-0.3,0.3-0.5,0.3c-0.2,0-0.5-0.2-1-0.7
		c-0.9-0.8-3.1-1.8-3.1-1.8s0.2,1.5,0.1,1.9c0,0.4-0.5,0.8-0.9,0.8c-0.3,0-0.6-0.1-0.8-1C86.2,13.5,86,6.3,86,6.3s-0.2-0.1,0-0.6
		c0.2-0.5,0.6-0.4,1.5-0.5s3.1,0.4,3.9,1.1c0.8,0.7,1.6,1.3,1.3,3.1C92.5,11.2,90,11.9,90,11.9z M91.3,8.4c0.1-1.1-2.7-2.1-3.9-1.9
		l0.4,4.4c0,0,0.6,0.1,1.7-0.4C90.6,10,91.3,9.6,91.3,8.4z"/>
	<path d="M101.3,12.6c-0.8,2-2.4,2.5-3.2,2.5s-1.6-0.2-2.7-1c-1-0.8-1.6-2.6-1.6-4.5c0-2,2-3.7,2-3.7S95.6,5.6,96,5.2
		c0.2-0.1,0.4-0.2,0.7-0.2c0.5,0,1.1,0.1,1.1,0.1C99.1,5.3,99,5.7,99,5.7s0.3,0.1,1,0.8C100.8,7.1,102.1,10.7,101.3,12.6z M99.8,9
		c-0.3-0.8-1.2-2.1-2.4-2.4c0,0-1.5,0.7-1.8,2.4c-0.3,1.7-0.2,2.2,0.1,2.9c0.3,0.6,0.7,1.5,1.7,1.7c1,0.2,2.1-0.2,2.4-1.3
		C100.1,11.1,100.2,9.8,99.8,9z"/>
	<path d="M104.2,5.4c0.2,0,0.3,0.1,0.5,0.2c0.4,0.2,0.3,0.6,0.2,0.9c-0.2,0.2-0.6,0.9-0.6,3.6c0,2.6,0.6,3.2,0.6,3.2
		s0.2-0.3,0.8-2.3c0.6-2,0-2,0.9-2.4c0.9-0.4,1,0.9,1,0.9c0.7,3.9,1.5,3.9,1.5,3.9s0.8-0.9,1.1-2.7c0.4-2.4-0.3-3.3-0.6-4.2
		c-0.1-0.6,0.1-0.9,0.6-0.9c0.2,0,0.4,0,0.6,0.2c0.7,0.4,1,2.9,1,4.9c0,2.1-1.4,4.2-2.7,4.3c-1.3,0.2-2.2-2.2-2.2-2.2
		s-0.3,1.4-1.4,2c-0.2,0.1-0.4,0.2-0.6,0.2c-0.7,0-1.2-0.9-1.7-2.4c-0.7-1.9,0.2-5.4,0.3-6.1C103.5,5.7,103.8,5.4,104.2,5.4z"/>
	<path d="M113.7,7.2c0.1-0.7,0.3-1.3,1-1.4c0.7-0.1,0.8,0.3,0.8,0.3s0.8,1.6,1.5,3.1c0.6,1.4,2.2,4.1,2.2,4.1
		c0.3-0.5,0.3-1.1,0.3-2.4c0.1-1.2-0.3-4-0.6-4.9c-0.3-0.9-0.4-1.1,0.3-1.3c0.7-0.2,0.9,0.4,1.1,1.3c0.2,0.9,0.6,2.4,0.7,3.5
		c0.1,1.2-0.1,3.3-0.3,3.7c-0.3,0.6-0.8,1.8-1.5,1.7c-0.8-0.1-1.5-1.2-1.9-1.7s-2.4-5-2.4-5c-0.2,0.4-0.2,2.5-0.1,4
		c0,1.5,0.2,2.6-0.2,2.8c-0.4,0.3-0.5,0.2-0.9-0.1c-0.4-0.3-0.5-2.6-0.4-4.6C113.4,10.5,113.6,8,113.7,7.2z"/>
	<path d="M129.3,5.1c1.1-0.3,3-0.2,3-0.2s0.8,0.1,1,0.4s0.2,0.5,0.2,0.5c0,0.3-0.2,0.4-0.4,0.5c-0.2,0.1-0.2,0.1-1.4,0
		c-1.2,0-1.9,0-2.4,0.4c-0.5,0.4-0.5,3.4-0.5,3.4s1.8,0,3,0c1.2,0,1.6,0.4,1.6,0.7c0,0.3-0.3,0.8-0.8,0.9c-0.5,0.1-3.6,0-3.6,0
		c-0.1,0.4,0.6,2.4,0.6,2.7c0,0.3-0.4,0.6-0.6,0.7c-0.1,0-0.1,0.2-0.7-0.3c-0.6-0.4-0.6-1.7-0.9-3.2c-0.3-1.5,0-3.7,0.1-4.6
		C127.7,6.1,128.3,5.5,129.3,5.1z"/>
	<path d="M141.7,12.6c-0.8,2-2.4,2.5-3.2,2.5s-1.6-0.2-2.7-1c-1-0.8-1.6-2.6-1.6-4.5c0-2,2-3.7,2-3.7s-0.3-0.3,0.1-0.6
		c0.2-0.1,0.4-0.2,0.7-0.2c0.5,0,1.1,0.1,1.1,0.1c1.3,0.1,1.2,0.5,1.2,0.5s0.3,0.1,1,0.8C141.3,7.1,142.6,10.7,141.7,12.6z M140.3,9
		c-0.3-0.8-1.2-2.1-2.4-2.4c0,0-1.5,0.7-1.8,2.4c-0.3,1.7-0.2,2.2,0.1,2.9c0.3,0.6,0.7,1.5,1.7,1.7c1,0.2,2.1-0.2,2.4-1.3
		C140.5,11.1,140.6,9.8,140.3,9z"/>
	<path d="M143.5,5.1c0.3,0,0.5,0.1,0.5,0.4c0.2,0.7,2.5,3.8,2.5,3.8s2.7-4.1,3.1-4.2c0.5-0.1,1.2,0.2,0.9,0.8
		c-0.3,0.6-2.9,4.5-2.9,4.5s1.5,1.5,2.4,2.5c0.9,1,0.5,1.3,0.2,1.5c-0.3,0.2-0.6,0-1.1-0.3c-0.4-0.3-2.4-2.4-2.4-2.4
		s-1.1,1.6-1.8,2.7c-0.6,1-0.7,0.8-1.1,0.8c-0.5,0-0.7-0.4-0.4-1.2c0.3-0.7,2.1-3.6,2.1-3.6c-2-2.4-2.7-4-3-4.6
		C142.5,5.4,143.1,5.1,143.5,5.1z"/>
	<path d="M161.9,4.9c0.5,0,1.9,0,2.3,0.3c0.3,0.2,0.6,0.4,0.3,0.8c-0.1,0.1-0.3,0.4-1.2,0.5c-0.8,0-1.2,0-1.8,0c0,0,0.4,1.8,0.4,2.7
		c0,0.9,0.2,3.6-0.1,4.2c-0.4,0.7-0.9,1.6-1.7,1.7c-0.9,0.2-2.4-0.2-2.8-0.9c-0.5-0.7-0.6-0.8-0.4-1.1c0.1-0.3,0.3-0.4,0.5-0.3
		c0.2,0.1,1.2,0.6,1.7,0.7c0.5,0.1,1.3,0.2,1.3-0.6c0-0.8,0.1-0.9,0.1-2.1c-0.1-1.1-0.3-4.3-0.3-4.3s-3,0.3-3.4,0.2S156,6.3,156.1,6
		c0.1-0.3,0.2-0.6,0.5-0.6c0.3-0.1,1.2-0.2,1.2-0.2C158.5,5.1,161.4,4.9,161.9,4.9z"/>
	<path d="M167.4,5.7c0,0.5-0.3,1.9-0.2,2.8c0,0.9,0,2,0.3,3c0.4,1.2,0.9,1.9,1.7,1.9c0.9,0,1.5-0.8,1.7-2.2c0.2-1.4,0.3-2.7,0.3-3.6
		c0-0.9,0-2.1,0.5-2.2c0.4,0,1.2-0.3,1,2.7c-0.2,3.1-0.5,5.4-2.1,6.5c-0.5,0.3-0.9,0.4-1.3,0.4c-1.5,0-2.4-1.4-3-2.6
		c-0.4-1-0.7-2.2-0.7-3.6c0.1-1.8,0.2-3.6,0.9-3.6C166.9,5.3,167.3,5.2,167.4,5.7z"/>
	<path d="M174.8,6.6c0.4-0.7,0.6-0.9,1.3-1.2c0.7-0.3,1,0.1,1.5,0.7c0.5,0.6,0.9,1.7,0.9,1.7c0.4-1.2,1-2.4,2.4-2.4
		c0.3,0,0.7,0.1,0.9,0.3c0.8,0.5,1.5,2.7,1.6,4.2c0.2,1.5,0.2,4.3,0,4.6c-0.2,0.3-0.3,0.5-0.6,0.5c-0.4,0-0.4,0-0.7-0.6
		c-0.3-0.5-0.2-2.7-0.3-4.1c-0.2-1.4-0.7-3.5-1.1-3.5c-0.4,0-0.8,1.3-1.2,2.7c-0.3,1.3,0,2.8-0.2,3.1c-0.1,0.3-0.7,0.6-1,0.5
		c-0.3-0.1-0.7-1.8-0.9-3.6c-0.1-1.7-1.1-2.7-1.2-2.7c-0.1,0-0.7,2.3-0.7,4.5c0,2.2,0.7,2.6,0.6,2.9c0,0.3-0.2,0.5-0.7,0.6
		c-0.6,0.1-0.7-0.6-0.9-1c-0.2-0.4-0.5-1.8-0.4-3.4C174.3,10.5,174.4,7.4,174.8,6.6z"/>
	<path d="M189.6,10.7c-1.2,0.4-2.7,0.5-2.7,0.5s0,2.4,0.1,3c0,0.6-0.3,1-0.8,1c-0.5,0-0.6-0.4-0.8-0.9c-0.2-0.5-0.2-5.4-0.2-7
		c0-1.3,0-2.3,1.2-2.4c1.7-0.3,2.4,0.2,3.2,0.4c0.8,0.3,1.8,1,2.1,2.7C192.1,9.7,190.8,10.3,189.6,10.7z M189.7,6.9
		c-0.2-0.2-1-0.7-1.8-0.7s-1,0.1-1,0.1s0,3,0,3.6c0,0,2.7-0.2,3.3-1.2C190.7,7.6,189.9,7.1,189.7,6.9z"/>
	<path d="M197.4,7.2c-0.2-0.3-0.3-0.7-0.7-0.9c-0.6-0.3-1.2,0.2-1.6,0.7c-0.6,0.7-0.6,1.9-0.2,2.5c0.5,0.6,1.5,0.9,2.5,1.7
		c0.9,0.8,1.3,1.5,1.3,2.1s-1,1.8-2.4,1.8c-1.2,0-2.1-0.6-2.5-1s-0.1-1.2,0.4-1c0.3,0.1,1.5,0.5,2.2,0.5c0.4,0,0.7-0.1,0.7-0.3
		c0.1-0.8-0.8-0.9-2.4-1.9c-1.6-1.1-1.7-1.8-1.7-2.7c-0.1-1,0.7-2.3,1.4-2.8c0.6-0.6,1.5-1.1,2.5-1c1,0.2,1.5,1.1,1.8,1.8
		c0.3,0.6,0.1,0.9-0.6,1.2C197.7,8,197.4,7.2,197.4,7.2z"/>
	<path d="M212,12.6c-0.8,2-2.4,2.5-3.2,2.5s-1.6-0.2-2.7-1c-1-0.8-1.6-2.6-1.6-4.5s2-3.7,2-3.7s-0.3-0.3,0.1-0.6
		c0.2-0.1,0.4-0.2,0.7-0.2c0.5,0,1.1,0.1,1.1,0.1c1.3,0.1,1.2,0.5,1.2,0.5s0.3,0.1,1,0.8C211.5,7.1,212.8,10.7,212,12.6z M210.5,9
		c-0.3-0.8-1.2-2.1-2.4-2.4c0,0-1.5,0.7-1.8,2.4c-0.3,1.7-0.2,2.2,0.1,2.9c0.3,0.6,0.7,1.5,1.7,1.7c1,0.2,2.1-0.2,2.4-1.3
		C210.8,11.1,210.9,9.8,210.5,9z"/>
	<path d="M214,6.1c0.3,1.1,2,5.9,2,5.9s1.9-6.7,2.2-7c0.3-0.3,0.3-0.2,0.6-0.2c0.3,0,0.7,0,0.6,0.7c-0.1,0.8-1.7,5.7-1.8,6.6
		c-0.2,0.9-0.5,1.7-0.5,2.4c0,0.6-0.9,0.6-1.1,0.6c-0.2,0-0.4-0.3-0.7-1.4c-0.3-1.1-1.5-4.5-1.9-5.7c-0.4-1.1-1.2-3-0.3-3
		C213.5,5.1,213.7,5,214,6.1z"/>
	<path d="M221.6,5.4c0.3-0.2,0.9-0.1,0.9-0.1c0.3-0.1,3,0,3.6,0c0.6,0.1,0.6,0.6,0.6,1c0,0.4-1,0.4-2.3,0.3c-1.2,0-1.9,0.1-1.9,0.1
		c-0.4,0.6-0.4,3.2-0.4,3.2c0.5-0.3,3.8-0.4,4.1-0.3c0.3,0.1,0.8,0.5,0.7,0.9c-0.1,0.6-0.8,0.8-1.3,0.6c-0.5-0.1-3.3,0.1-3.3,0.1
		s0.6,1.7,0.9,2c0.1,0.1,0.4,0.2,0.6,0.2c0.5,0,1-0.1,1.3-0.2c0.3,0,0.7-0.3,1-0.3c0.1,0,0.3,0,0.4,0.2c0.4,0.4,0.2,0.8-0.6,1.4
		c-0.8,0.6-1.8,0.6-2.5,0.5c-0.8-0.1-1.2-0.6-1.8-1.2c-0.6-0.7-0.9-2.1-1.1-3.5c-0.2-1.4,0.3-3.3,0.7-4.3
		C221.3,6,221.3,5.6,221.6,5.4z"/>
	<path d="M232.7,11.9c0,0,0.9,0.6,1.9,1.5c1,0.9,0.9,1.2,0.5,1.6c-0.2,0.2-0.3,0.3-0.5,0.3c-0.2,0-0.5-0.2-1-0.7
		c-0.9-0.8-3.1-1.8-3.1-1.8s0.2,1.5,0.1,1.9s-0.5,0.8-0.9,0.8c-0.3,0-0.6-0.1-0.8-1c-0.2-0.9-0.4-8.1-0.4-8.1s-0.2-0.1,0-0.6
		c0.2-0.5,0.6-0.4,1.5-0.5c0.9-0.1,3.1,0.4,3.9,1.1c0.8,0.7,1.6,1.3,1.3,3.1C235.2,11.2,232.7,11.9,232.7,11.9z M234,8.4
		c0.1-1.1-2.7-2.1-3.9-1.9l0.4,4.4c0,0,0.6,0.1,1.7-0.4C233.3,10,234,9.6,234,8.4z"/>
	<path d="M240.8,6.3c-0.2-0.7,1.1-0.8,1.1-0.8c1.6-0.3,6.2-0.5,6.5-0.3c0.3,0.1,0.4,0.6,0.4,0.9c0,0.3-0.7,0.6-1.2,0.5
		c-0.6-0.1-2.3,0-2.3,0c-0.1,1.5,0.5,7.7,0.4,8.1c0,0.3-0.6,0.6-0.9,0.6c-0.3,0-0.5-0.6-0.6-1.5c-0.1-0.9-0.3-7-0.3-7
		s-1.2,0.2-2.1,0.2C241.8,6.9,240.9,6.9,240.8,6.3z"/>
	<path d="M250.3,5.3c0.1-0.4,0.5-0.5,0.9-0.4c0.4,0,0.4,0.5,0.4,0.9c0,0.3-0.1,4.5-0.1,4.5C252,10,255,10,255,10s0-0.9,0-2.1
		s0-2.4,0.2-2.7c0.2-0.3,0.5-0.3,0.8-0.3c0.4,0,0.5,0.7,0.5,1.2c0.1,0.5,0.2,2.5,0.1,3.7c0,1.2,0.3,3.1,0.3,4c0,0.9-0.4,1.1-0.7,1.2
		c-0.3,0.1-0.6-0.3-0.8-0.5c-0.1-0.2-0.3-2.9-0.3-2.9c-0.3-0.1-3.4,0.2-3.4,0.2s0,2,0,2.5c0,0.6-0.1,0.7-0.4,0.9
		c-0.3,0.3-0.6,0.2-0.8,0c-0.2-0.2-0.2-0.2-0.3-0.6c-0.1-0.5,0.1-7.4,0.1-8.3C250.2,6.3,250.2,5.7,250.3,5.3z"/>
	<path d="M259.1,5.4c0.3-0.2,0.9-0.1,0.9-0.1c0.3-0.1,3,0,3.6,0c0.6,0.1,0.6,0.6,0.6,1c0,0.4-1,0.4-2.3,0.3c-1.2,0-1.9,0.1-1.9,0.1
		c-0.4,0.6-0.4,3.2-0.4,3.2c0.5-0.3,3.8-0.4,4.1-0.3c0.3,0.1,0.8,0.5,0.7,0.9c-0.1,0.6-0.8,0.8-1.3,0.6c-0.5-0.1-3.3,0.1-3.3,0.1
		s0.6,1.7,0.9,2c0.1,0.1,0.4,0.2,0.6,0.2c0.5,0,1-0.1,1.3-0.2c0.3,0,0.7-0.3,1-0.3c0.1,0,0.3,0,0.4,0.2c0.4,0.4,0.2,0.8-0.6,1.4
		c-0.8,0.6-1.8,0.6-2.5,0.5c-0.8-0.1-1.2-0.6-1.8-1.2c-0.6-0.7-0.9-2.1-1.1-3.5c-0.2-1.4,0.3-3.3,0.7-4.3
		C258.8,6,258.8,5.6,259.1,5.4z"/>
	<path d="M271.5,5.2c0.7,0,0.3,0.6,0.4,1.5c0.1,0.8-0.2,6.9-0.2,6.9s2.6-0.1,3.3-0.1c0.6,0,1,0.4,1,0.8c0,0.3-0.3,0.6-0.8,0.8
		c-0.5,0.2-1.5,0.1-3,0.1s-1.3-0.2-1.7-0.5c-0.3-0.3-0.5-0.9-0.4-2c0.2-1.2,0.4-6.1,0.4-6.8C270.6,5.2,270.7,5.2,271.5,5.2z"/>
	<path d="M284.4,13.3c0.3,0.9,0.4,1.3,0.2,1.5c-0.2,0.2-0.3,0.4-0.6,0.4c-0.3,0-0.3-0.1-0.6-0.3c-0.3-0.2-0.9-2.2-0.9-2.2
		c-0.3,0.2-2.9,0-2.9,0s-0.6,1.8-0.8,2.1c-0.3,0.4-0.7,0.3-1,0.2c-0.3-0.1-0.3-0.7-0.3-0.7s2.8-9,3.3-9.3C281,5,281.1,5,281.3,5
		c0.6,0,0.6,0.9,0.6,0.9S284.1,12.4,284.4,13.3z M281.1,7.9l-1.1,3.5h2.2L281.1,7.9z"/>
	<path d="M290.7,5.4c0.7,0,1.2,0.1,1.4,0.2c0.5,0.5,1,0.9,0.2,2.1c-0.9,1.2-3.6,4.2-4.3,5.5c0,0,3.7-0.6,4.3-0.6
		c0.5,0,0.9,0,1.1,0.4c0.2,0.5-1,1.2-2,1.3c-0.7,0.1-2.4,0.4-3.6,0.4c-0.5,0-0.9,0-1.1-0.2c-0.7-0.6-0.6-1.2-0.3-1.8
		c0.4-0.6,2.9-4,3.5-4.5c0.6-0.5,1-1.3,1-1.3s-2.9,0-4.5,0.2c-1.6,0.1-1.5,0-1.8-0.5c-0.2-0.6,0.2-0.9,1.6-0.9
		C287.1,5.7,289.2,5.4,290.7,5.4z"/>
	<path d="M297.2,10.4c-0.4-0.3-1.1-1.5-2.2-2.7c-1.1-1.2-1-1.7-0.9-1.9c0.1-0.1,0.4-0.4,0.7-0.4c0.2,0,0.3,0.1,0.4,0.3
		c0.3,0.6,3.2,3.8,3.2,3.8s2.1-3.6,2.4-3.9c0.1-0.1,0.4-0.3,0.6-0.3c0.2,0,0.4,0.1,0.6,0.5c0.3,0.7-0.1,1-0.4,1.5
		c-0.3,0.5-4.2,7-4.6,7.5c-0.4,0.5-0.6,0.3-1,0.1c-0.3-0.3-0.4-0.5-0.2-0.9c0.2-0.3,1.9-3.3,1.9-3.3S297.6,10.6,297.2,10.4z"/>
	<path d="M314.3,10.4c0,2.4-2.5,4.1-4.6,4.7c-1,0.3-1.1-0.1-1.3-0.4c-0.2-0.3-0.5-8.3-0.5-8.7c0,0-0.3-0.3-0.2-0.7s0.8-0.4,1.3-0.3
		c0.5,0.1,1.6,0.3,2.4,0.7c0.8,0.3,1.6,1.1,2.1,2.1C313.9,8.7,314.4,9.6,314.3,10.4z M311.9,8.1c-0.8-1.3-2.4-1.4-2.4-1.4
		s0.5,6.2,0.3,6.7c0,0,2.5-0.9,2.7-2C312.8,10.4,312.7,9.4,311.9,8.1z"/>
	<path d="M323.1,12.6c-0.8,2-2.4,2.5-3.2,2.5c-0.8,0-1.6-0.2-2.7-1c-1-0.8-1.6-2.6-1.6-4.5s2-3.7,2-3.7s-0.3-0.3,0.1-0.6
		c0.2-0.1,0.4-0.2,0.7-0.2c0.5,0,1.1,0.1,1.1,0.1c1.3,0.1,1.2,0.5,1.2,0.5s0.3,0.1,1,0.8C322.6,7.1,323.9,10.7,323.1,12.6z M321.6,9
		c-0.3-0.8-1.2-2.1-2.4-2.4c0,0-1.5,0.7-1.8,2.4c-0.3,1.7-0.2,2.2,0.1,2.9c0.3,0.6,0.7,1.5,1.7,1.7c1,0.2,2.1-0.2,2.4-1.3
		C321.9,11.1,321.9,9.8,321.6,9z"/>
	<path d="M329.2,7c-0.1-0.3-0.3-0.3-0.4-0.3c-0.4,0-0.9,0.4-1.4,0.8c-0.8,0.6-1.2,2.4-1.2,3.2s0.5,2.2,1.2,2.6
		c0.3,0.2,0.7,0.3,1.2,0.3c0.6,0,1.2-0.1,1.8-0.4c1.1-0.5,1.1-1.5,0.9-2c-0.1-0.2-0.3-0.3-0.4-0.3c-0.3,0-0.6,0.1-0.8,0.1
		c-0.4,0.1-1,1.2-1.4,1.2c-0.4,0-0.7-0.4-0.8-0.6c-0.1-0.2,0.2-0.8,0.9-1.6c0.8-0.7,1.8-0.8,2.4-0.7c0.7,0.1,1.5,0.8,1.8,1.8
		c0.3,1-0.2,2.2-1.8,3.3c-0.8,0.5-1.7,0.7-2.4,0.7c-2.1,0-3-1-3.9-2.8c-0.6-1.2-0.3-3.3,0.6-4.8c0.9-1.5,2.2-2,2.7-2.1
		c0.6-0.1,1.6-0.3,2.1,0.7s0.1,1.3-0.3,1.4C329.9,7.5,329.5,7.8,329.2,7z"/>
	<path d="M4.7,21.6c0.3,0,0.9-0.2,1.8-0.3c1.1-0.1,3.2,0,4.2,0.1c0.8,0.1,0.6,0.7,0.6,0.7s0,0.6-0.6,0.6c-0.6,0-2.5,0-2.5,0
		c0.1,0.8,0.5,6.8,0.6,7.5c0.1,0.6-0.3,0.9-0.6,1s-0.6,0-0.9-0.9c-0.3-0.9-0.4-7.6-0.4-7.6s-1.4,0.1-1.8,0.2c-0.4,0.1-1,0-1-0.6
		C4.2,21.7,4.4,21.7,4.7,21.6z"/>
	<path d="M12.7,22c0-0.6,0.4-0.6,0.6-0.7c0.3-0.1,0.7-0.2,0.8,0.5c0.2,0.7,0.2,4.2,0.2,4.2c1.6-0.4,3.5-0.3,4.4-0.2
		c0,0,0.1-2.7,0.1-3.7c0-1,0.2-1.1,0.7-1.2s0.6-0.1,0.7,0.8c0.2,0.9,0.1,4.6,0.1,4.6c0.3,0.4,0,0.6,0,0.6s-0.1,0.5,0,1.9
		c0,1.5,0,2.4-1,2.3c-0.9,0-0.6-3.9-0.6-3.9c-1.5-0.2-4.2,0-4.2,0s0.2,1.6,0.1,2.4c-0.1,0.4-0.4,0.8-0.7,0.8c-0.2,0-0.3,0-0.5-0.2
		c-0.6-0.6-0.5-4.2-0.6-6.2C12.6,24.2,12.6,22.6,12.7,22z"/>
	<path d="M22,24.5c0.1-2.5,0.4-2.3,0.4-2.3c-0.1-0.5,0.1-0.6,0.6-0.6s3.5-0.1,4.5,0c1,0.1,0.9,0.4,1,0.6c0,0.3,0,0.5-0.4,0.6
		c-0.4,0.1-4.4,0-4.4,0c0.2,0.4,0,2.8,0,2.8s0.7-0.1,2.2-0.3c0.7-0.1,1.2-0.1,1.5,0c0.5,0.2,0.8,0.6,0.6,0.8
		C27.3,27,23.6,27,23.6,27c0,0.5-0.1,1.7,0.4,2.2c0.8,0.9,2,0.1,2.6,0c0.6-0.2,1.5-0.9,2.2-0.3c0.7,0.6-0.2,1-2.1,1.9
		c-1.9,0.9-3.3,0.2-4-0.8c-0.8-1-0.6-2.1-0.6-4.1C21.9,25.9,21.9,26.5,22,24.5z"/>
	<path d="M44.4,31.1c-0.3,0.3-0.5,0.2-0.9-0.1c-0.5-0.3-1.6-1.2-1.6-1.2c-0.5,0.7-1.1,1.4-2.1,1.5c-1,0.1-3.9-0.3-5.1-3.7
		c-1.1-3.4,1.2-5.4,1.2-5.4c-0.1-0.6,0.6-1,1.2-1.2c0.6-0.2,2.4-0.1,3.6,0.6c1.2,0.7,2.1,1.9,2.4,3.6c0.3,1.7-0.5,3.3-0.5,3.3
		s1.3,1.2,1.7,1.5C44.6,30.4,44.7,30.9,44.4,31.1z M40.3,23.3c-1-0.8-1.7-1-2.1-1s-0.6,0.2-0.6,0.2s0.4,0.1-0.5,0.9
		c-0.9,0.7-1.7,4.5,0.6,5.8c0.7,0.4,1.2,0.6,1.7,0.6c1,0,1.4-0.8,1.4-0.8l-1.9-1.7c0,0-0.8-0.7-0.2-1.2c0.6-0.5,0.7-0.1,0.9,0.1
		c0.3,0.2,1.7,1.3,1.7,1.3s0.1,0,0.2-1.3C41.5,25.1,41.7,24.5,40.3,23.3z"/>
	<path d="M46.2,22.7c-0.2,1.8,0.2,3.9,0.4,4.6c0.2,0.7,0.8,2.2,1.8,2.2c0,0,0.5,0.2,1.2-1.2c0.7-1.4,0.8-2.7,0.7-4.2
		c-0.1-1.5,0.1-1.7,0-2.2c0-0.5,0.1-1,0.6-1c0.6,0,0.7,0.1,0.8,0.9c0.1,0.9,0.4,3.6,0.1,4.6c-0.3,1-0.2,1.8-1.2,3
		c-0.9,1.2-1.5,1.8-2.1,1.8s-1.8-0.3-2.6-1.5c-0.8-1.2-1.4-3.8-1.3-5.1c0.1-1.2,0-1.7,0.1-2.1c0-0.3,0.2-1.5,0.9-1.5
		C46.1,21.1,46.4,20.9,46.2,22.7z"/>
	<path d="M53.8,21.3c0.6-0.1,2.7-0.3,3.9-0.3c1.1-0.1,1.2,0.9,0.8,1.2c-0.4,0.3-1.8,0.3-1.8,0.3s0.1,4.2,0.2,5.4c0,1,0,1.8,0,1.8
		s1.3-0.1,1.8,0.3c0.8,0.6,0.1,1.1-0.3,1.3c-0.5,0.2-2.7-0.1-3.3,0c-0.6,0-1.5-0.5-1.1-1.1c0.4-0.6,1.5-0.5,1.5-0.5
		s-0.1-2.1-0.1-3.4c0-1.3,0-3.5,0-3.5c-1.9,0.3-1.8-0.1-1.8-0.6C53.3,21.6,53.3,21.4,53.8,21.3z"/>
	<path d="M63.6,22.2c-0.1-0.1-0.3-0.3-0.5-0.3c-0.3,0-0.6,0.2-1.3,0.8c-1.1,0.9-1.3,3.6-0.8,4.8c0.5,1.3,1.6,2.1,2.7,2
		c1.1-0.1,2.2-1.1,2.5-1.4c0.1-0.1,0.3-0.2,0.4-0.2c0.4,0,0.8,0.3,0.6,0.7c-0.2,0.8-2.3,2.7-4.2,2.4c-2-0.3-2.6-1.5-3.5-3
		c-0.8-1.4-0.6-4.2,0.4-5.7c1.1-1.5,2.1-1.8,3-1.8c0.9-0.1,1.7,0.4,1.9,1.2c0.3,0.7,0.2,0.8-0.4,0.9C64,22.9,63.9,22.6,63.6,22.2z"
		/>
	<path d="M68.6,22.6c0-0.9,0.2-1.2,0.6-1.2c0.5,0,0.7-0.2,0.9,0.9c0.2,1,0.3,4.1,0.3,4.1s4.1-4,4.4-4.2c0.2-0.1,0.5-0.6,0.9-0.6
		c0.1,0,0.3,0,0.4,0.2c0.6,0.4,0.3,0.8-0.3,1.4c-1.1,1.1-4.1,4.1-4.1,4.1c0.5,0.1,1.5,0.9,2.4,1.3c0.9,0.3,1.8,0.8,1.8,1.3
		c0,0.5,0,0.6-1,0.6c-0.9,0-4.5-2.1-4.5-2.1c0,0.8,0.2,2.1,0,2.4c-0.2,0.3-0.3,0.4-0.5,0.4c-0.2,0-0.3-0.1-0.6-0.3
		c-0.6-0.4-0.4-3.3-0.6-5.1C68.7,25.8,68.6,23.5,68.6,22.6z"/>
	<path d="M89.4,29.3c-0.6,1.2-3.9,1.8-4.7,2c-0.8,0.2-1.2-0.4-1.2-0.4c-0.3,0.3-0.7,0.1-1-0.3c-0.4-0.7-0.4-7.7-0.2-9
		c0-0.4,0.7-0.5,0.7-0.5s0.4-0.2,1.4-0.3c1.7-0.2,3.8,0.9,4.2,2.4c0.4,1.5-1.8,3-1.8,3C88.9,26.9,90,28.1,89.4,29.3z M86.4,27.7
		c-1-0.3-2,0.3-2.2-0.5c-0.3-0.7-0.2-0.7,1.2-1.5s1.8-1.5,1.8-2.1c0-0.6-1.7-1.5-2.5-1.5c-0.8,0-1.2,0.3-1.2,0.3s0.4,6.9,0.3,7.7
		c0,0,0.2-0.2,0.6-0.2c0.5,0,3.3-0.7,3.5-1.2C88.2,28.3,87.3,28,86.4,27.7z"/>
	<path d="M97.8,31.1c-0.5,0.3-0.7,0.2-1.6-0.9c-1.2-1.4-2.6-2-3.5-2.2c0,0,0.1,1.8,0.2,2.6c0.1,0.7-1.4,1.8-1.6,0
		c-0.1-0.8-0.3-2.6-0.3-4.4c0-2,0-3.9,0-3.9s-0.4-0.1-0.2-0.6c0.1-0.3,0.1-0.5,0.5-0.6c0.5-0.2,2.1-0.5,3.4-0.2
		c1.5,0.3,2.5,0.9,2.8,1.6c0.3,0.6,0.3,1,0.3,1.8c-0.3,1.8-3,3-3,3s1.5,0.9,2.5,2.1C98.3,30.5,98.3,30.7,97.8,31.1z M95.9,24.6
		c0.8-1,0.4-1.4-0.3-2c-0.7-0.6-2.2-0.5-3.3-0.3c0,0,0.3,3.3,0.2,4.2C92.6,26.5,94.9,25.9,95.9,24.6z"/>
	<path d="M108,26.4c-0.1,2-1.2,3.7-3.1,4.5c-1.8,0.8-3.1-0.1-4.2-1.1c-1.1-1-2.1-3.2-1.5-5.3c0.6-2.2,2.5-3,2.5-3
		c0-0.6,0.6-0.6,1.2-0.6c0.6,0,1.3,0,2.6,0.8C106.8,22.5,108.1,24.4,108,26.4z M106.5,25.4c-0.5-2.4-3.4-3.1-3.4-3.1
		c-0.1,0.3-0.2,0.2-0.6,0.4c-0.4,0.3-0.9,0.8-1.4,1.6c-0.6,0.9-0.7,4.2,1.5,5.1C105,30.4,107,28,106.5,25.4z"/>
	<path d="M110.7,23.2c-0.3,1.5,0.1,5.3,0.8,6.5c0,0,0.9-2.3,0.9-4c0,0-0.3-1.1,0.6-1.2c0.9-0.1,0.7,0.6,0.9,1.2
		c0.3,1,1.7,3.7,2.6,3.8c0,0,1.1-1.8,0.6-4.2c-0.5-2.4-1.7-2.4-1.5-3.4c0.3-1,1.5,0.1,1.9,0.9c0.5,0.8,1,1.7,1.1,3.8
		c0.1,2.1-0.5,3.4-1,3.9c-0.5,0.5-1.1,1-2.1,0.3c-1.1-0.7-2-2.4-2-2.4s-0.1,1.8-1.2,2.5c-1,0.6-1.4,0.2-1.9-0.4
		c-0.8-0.9-1.3-4.2-1.1-6.4c0.1-2,0.4-2.5,1-2.5C110.7,21.6,111.1,21.7,110.7,23.2z"/>
	<path d="M122.3,21.9c0.6-0.3,1.1-0.4,2.1,3.1c0.9,3.5,2.1,4.6,2.1,4.6s0.6-2.1,0.5-6.2c0-1.8-0.6-2.6,0.5-3.1
		c0.8-0.3,0.9,0.8,1,1.8c0.1,1,0.3,2.6,0,5c-0.1,0.9-0.5,4-1.9,4c-0.6,0-1.3-0.6-2.1-1.7c-1-1.5-1.9-5.5-1.9-5.5
		c-0.9,2.2-0.7,5.4-0.6,6.2c0.1,0.8,0,1.1-0.5,1.2c-0.4,0.2-0.8-0.1-0.9-0.8c-0.1-0.7-0.1-1.5-0.2-3.3c0-1.7,0.6-3.6,1.2-4.9
		C121.5,22.4,121.7,22.2,122.3,21.9z"/>
	<path d="M137.4,21.2c1.4-0.3,2.6,0.1,3.1,0.3c0.6,0.2,1,0.6,0.9,0.9c-0.2,0.4-0.6,0.6-1.2,0.4c-0.3-0.1-1-0.3-1.8-0.3
		c-0.6,0-1.2,0.1-1.5,0.3c-0.9,0.6-0.4,3.8-0.4,3.8s2.8,0,3.4,0s1.7,0.4,1.3,1c-0.4,0.6-0.9,0.6-1.5,0.6c-0.5,0-3,0-3,0
		c0,0.8,0.6,2,0.4,2.2c-0.1,0.2-0.3,0.6-0.6,0.6c-0.2,0-0.3-0.1-0.6-0.3c-1.1-1.1-1.2-5.2-1.1-6.8C135,22.1,136,21.5,137.4,21.2z"/>
	<path d="M151.1,26.4c-0.1,2-1.2,3.7-3.1,4.5c-1.8,0.8-3.1-0.1-4.2-1.1c-1.1-1-2.1-3.2-1.5-5.3c0.6-2.2,2.5-3,2.5-3
		c0-0.6,0.6-0.6,1.2-0.6c0.6,0,1.3,0,2.6,0.8C149.9,22.5,151.2,24.4,151.1,26.4z M149.6,25.4c-0.5-2.4-3.4-3.1-3.4-3.1
		c-0.1,0.3-0.2,0.2-0.6,0.4c-0.4,0.3-0.9,0.8-1.4,1.6c-0.6,0.9-0.7,4.2,1.5,5.1C148.1,30.4,150.1,28,149.6,25.4z"/>
	<path d="M157.5,21.6c0.3-0.1,0.6-0.2,0.8-0.2s0.3,0.1,0.4,0.5c0.1,0.7-0.2,0.7-0.7,1.5c-0.5,0.7-2,3-2,3s2.3,2.7,2.9,3.1
		c0.6,0.3,0.3,0.9,0,1.2c-0.4,0.2-0.9-0.1-1.5-0.7c-0.6-0.6-1.5-1.4-2.1-2.2c0,0-1.2,2.6-1.5,2.9c-0.3,0.4-0.5,0.7-0.9,0.4
		c-0.4-0.3-0.5-0.3-0.2-1.2c0.3-0.9,1.2-2.6,1.6-3.3c0,0-2.3-2.9-2.6-3.4c-0.3-0.6-0.9-1-0.3-1.6c0.1-0.1,0.3-0.2,0.4-0.2
		c0.4,0,0.9,0.6,1.2,1c0.4,0.5,2.1,2.8,2.1,2.8S156.9,21.8,157.5,21.6z"/>
	<path d="M165.3,21.4c0.4,0,1.5,0,3.1-0.1c1.6-0.1,2.9,0.1,3.4,0.1c0.5,0,1,0.2,0.9,0.8c0,0.6,0,0.7-1,0.6c-1-0.1-2.6-0.1-2.6-0.1
		c0.3,1.5,0.7,3.9,0.8,5.5c0.1,1.8-0.2,2.3-0.7,2.6c-0.3,0.2-0.7,0.3-1.3,0.3c-0.6,0-1.3-0.1-2.1-0.3c-1.3-0.4-1.5-0.7-1.3-1.2
		c0.2-0.3,0.3-0.5,0.6-0.5c0.3,0,0.6,0.1,1.1,0.2c1,0.1,1.9,0.3,2.1,0.1c0.1-0.1,0-1.6-0.2-2.7c-0.2-1.1-0.4-4-0.4-4s-1.9,0-2.3,0
		c-0.4-0.1-0.7-0.1-0.7-0.8C164.8,21.5,165,21.4,165.3,21.4z"/>
	<path d="M175.5,22.7c-0.2,1.8,0.2,3.9,0.4,4.6c0.2,0.7,0.8,2.2,1.8,2.2c0,0,0.5,0.2,1.2-1.2c0.7-1.4,0.8-2.7,0.7-4.2
		c-0.1-1.5,0.1-1.7,0-2.2c0-0.5,0.1-1,0.6-1c0.6,0,0.7,0.1,0.8,0.9c0.1,0.9,0.4,3.6,0.1,4.6c-0.3,1-0.2,1.8-1.2,3
		c-0.9,1.2-1.5,1.8-2.1,1.8s-1.8-0.3-2.6-1.5c-0.8-1.2-1.4-3.8-1.3-5.1c0.1-1.2,0-1.7,0.1-2.1c0-0.3,0.2-1.5,0.9-1.5
		C175.5,21.1,175.8,20.9,175.5,22.7z"/>
	<path d="M183.4,30.2c-0.3-0.6-0.3-2.2-0.3-4.2c0-2,0.8-4,1.1-4.3c0.2-0.2,0.5-0.4,0.9-0.4c0.3,0,0.6,0.1,0.8,0.4
		c0.5,0.7,1.2,3,1.2,3c0.2-1.2,1-2.8,1.4-3.3c0.2-0.3,0.8-0.4,1.2-0.4c1.8,0,2.3,4.3,2.4,5.4c0.4,4.1,0.2,4.8-0.6,4.8
		c-0.9,0-0.6-0.5-1-4.5c-0.4-4.1-0.9-4-0.9-4c-0.5,0.5-0.9,1.5-1.3,3.2c-0.4,1.7-0.5,1.9-1,2.1c-0.6,0.1-0.8,0.2-1.3-1.9
		c-0.5-2.1-0.9-2.7-0.9-2.7c-0.8,1.1-0.5,5.6-0.4,6.6c0.1,0.9,0.2,0.9-0.4,1.1C183.6,31.1,183.7,30.9,183.4,30.2z"/>
	<path d="M199.8,26.6c-1.7,1-3.6,0.9-3.6,0.9c0.1,2.4,0.3,3.6-0.6,3.7c-0.9,0.1-0.9-3-1.1-5.7c0,0-0.2-2.7-0.2-3.7
		c0.1-1,1-0.6,1-0.6s0.5-0.3,2.1,0c3.1,0.6,3.6,1.9,3.9,2.7C201.5,24.6,201.4,25.5,199.8,26.6z M197.8,22.7
		c-1.3-0.5-2.3-0.3-2.3-0.3l0.5,3.6c0,0,1,0,2-0.3c0.9-0.3,1.8-1.2,1.8-1.6C199.8,24.2,199.9,23.5,197.8,22.7z"/>
	<path d="M206.3,27.1c0,0,1.9,1,1.8,2c-0.2,1.6-1.8,2.3-3.2,2.3c-0.9,0-1.7-0.2-2.1-0.6c-0.8-0.7,0-1.2,0.3-1.3
		c0.3-0.1,0.7,0.3,1.8,0.3c1.1,0,1.5-0.2,1.6-0.6c0.1-0.4-1.5-1.1-2.4-1.6c-0.9-0.6-1.7-1.8-1.8-2.9c-0.1-0.6,0-1.7,0.9-2.4
		s2.1-1.1,2.5-1.1c0.5,0,1.7,0.1,1.8,0.7c0.2,0.5,0.2,0.9-0.5,0.9c-0.6,0-0.7-0.5-1.4-0.2s-1.8,0.6-1.8,2
		C203.8,26,204.7,26,206.3,27.1z"/>
	<path d="M222.3,26.4c-0.1,2-1.2,3.7-3.1,4.5c-1.8,0.8-3.1-0.1-4.2-1.1c-1.1-1-2.1-3.2-1.5-5.3c0.6-2.2,2.5-3,2.5-3
		c0-0.6,0.6-0.6,1.2-0.6c0.6,0,1.3,0,2.6,0.8C221.1,22.5,222.5,24.4,222.3,26.4z M220.8,25.4c-0.5-2.4-3.4-3.1-3.4-3.1
		c-0.1,0.3-0.2,0.2-0.6,0.4c-0.4,0.3-0.9,0.8-1.4,1.6c-0.6,0.9-0.7,4.2,1.5,5.1C219.4,30.4,221.4,28,220.8,25.4z"/>
	<path d="M224.1,22c0.2,0.7,2,6.3,2.4,6.9c0,0,1.4-4.5,1.9-5.5c0.5-1,0.3-0.9,0.6-1.4c0.3-0.5,0.6-1,1.3-0.8c0.7,0.3,0.1,1.5-0.2,2
		c-0.4,0.8-1.3,3.1-1.8,5.1c-0.6,2.1-0.4,2.5-1.1,2.7c-0.6,0.2-0.8,0.4-1.9-1.5c-1.1-1.9-2.3-7-2.4-7.5c-0.1-0.4,0-0.7,0.5-0.9
		S223.8,21.3,224.1,22z"/>
	<path d="M232.1,24.5c0.1-2.5,0.4-2.3,0.4-2.3c-0.1-0.5,0.1-0.6,0.6-0.6s3.5-0.1,4.5,0c1,0.1,0.9,0.4,1,0.6c0,0.3,0,0.5-0.4,0.6
		c-0.4,0.1-4.4,0-4.4,0c0.2,0.4,0,2.8,0,2.8s0.7-0.1,2.2-0.3c0.7-0.1,1.2-0.1,1.5,0c0.5,0.2,0.8,0.6,0.6,0.8
		c-0.6,0.8-4.3,0.8-4.3,0.8c0,0.5-0.1,1.7,0.4,2.2c0.8,0.9,2,0.1,2.6,0c0.6-0.2,1.5-0.9,2.2-0.3c0.7,0.6-0.2,1-2.1,1.9
		c-1.9,0.9-3.3,0.2-4-0.8c-0.8-1-0.6-2.1-0.6-4.1C232,25.9,232,26.5,232.1,24.5z"/>
	<path d="M247.4,31.1c-0.5,0.3-0.7,0.2-1.6-0.9c-1.2-1.4-2.6-2-3.5-2.2c0,0,0.1,1.8,0.2,2.6c0.1,0.7-1.4,1.8-1.6,0
		c-0.1-0.8-0.3-2.6-0.3-4.4c0-2,0-3.9,0-3.9s-0.4-0.1-0.2-0.6c0.1-0.3,0.1-0.5,0.5-0.6c0.5-0.2,2.1-0.5,3.4-0.2
		c1.5,0.3,2.5,0.9,2.8,1.6c0.3,0.6,0.3,1,0.3,1.8c-0.3,1.8-3,3-3,3s1.5,0.9,2.5,2.1C247.9,30.5,247.9,30.7,247.4,31.1z M245.5,24.6
		c0.8-1,0.4-1.4-0.3-2c-0.7-0.6-2.2-0.5-3.3-0.3c0,0,0.3,3.3,0.2,4.2C242.2,26.5,244.5,25.9,245.5,24.6z"/>
	<path d="M253.5,21.6c0.3,0,0.9-0.2,1.8-0.3c1.1-0.1,3.2,0,4.2,0.1c0.8,0.1,0.6,0.7,0.6,0.7s0,0.6-0.6,0.6c-0.6,0-2.5,0-2.5,0
		c0.1,0.8,0.5,6.8,0.6,7.5c0.1,0.6-0.3,0.9-0.6,1s-0.6,0-0.9-0.9c-0.3-0.9-0.4-7.6-0.4-7.6s-1.4,0.1-1.8,0.2c-0.4,0.1-1,0-1-0.6
		C252.9,21.7,253.2,21.7,253.5,21.6z"/>
	<path d="M261.5,22c0-0.6,0.4-0.6,0.6-0.7c0.3-0.1,0.7-0.2,0.8,0.5c0.2,0.7,0.2,4.2,0.2,4.2c1.6-0.4,3.5-0.3,4.4-0.2
		c0,0,0.1-2.7,0.1-3.7c0-1,0.2-1.1,0.7-1.2s0.6-0.1,0.7,0.8c0.2,0.9,0.1,4.6,0.1,4.6c0.3,0.4,0,0.6,0,0.6s-0.1,0.5,0,1.9
		c0,1.5,0,2.4-1,2.3c-0.9,0-0.6-3.9-0.6-3.9c-1.5-0.2-4.2,0-4.2,0s0.2,1.6,0.1,2.4c-0.1,0.4-0.4,0.8-0.7,0.8c-0.2,0-0.3,0-0.5-0.2
		c-0.6-0.6-0.5-4.2-0.6-6.2C261.4,24.2,261.4,22.6,261.5,22z"/>
	<path d="M270.8,24.5c0.1-2.5,0.4-2.3,0.4-2.3c-0.1-0.5,0.1-0.6,0.6-0.6s3.5-0.1,4.5,0c1,0.1,0.9,0.4,1,0.6c0,0.3,0,0.5-0.4,0.6
		c-0.4,0.1-4.4,0-4.4,0c0.2,0.4,0,2.8,0,2.8s0.7-0.1,2.2-0.3c0.7-0.1,1.2-0.1,1.5,0c0.5,0.2,0.8,0.6,0.6,0.8
		c-0.6,0.8-4.3,0.8-4.3,0.8c0,0.5-0.1,1.7,0.4,2.2c0.8,0.9,2,0.1,2.6,0c0.6-0.2,1.5-0.9,2.2-0.3c0.7,0.6-0.2,1-2.1,1.9
		c-1.9,0.9-3.3,0.2-4-0.8c-0.8-1-0.6-2.1-0.6-4.1C270.7,25.9,270.7,26.5,270.8,24.5z"/>
	<path d="M283.8,22.4c0-1,0.3-1.2,0.7-1.2c0.4,0,0.5,0,0.6,0.6c0.1,0.6,0.1,2,0,4.4c-0.1,2.9,0,3.1,0,3.1s1.1,0.1,1.8,0.1
		c0.7,0,2.7-0.4,2.6,0.7c0,1.2-1.6,0.9-3.4,1c-1.6,0.1-2-0.4-2.4-1.2s0-3.6,0.1-5.5C283.6,24.5,283.8,23.5,283.8,22.4z"/>
	<path d="M298.6,30.7c-0.1,0.3-0.4,0.6-0.6,0.6c-0.2,0-0.2,0-0.6-0.2c-0.4-0.2-0.4-0.5-0.4-0.5l-0.8-2.1c0,0-3.1,0.3-3.3,0.2
		c0,0-0.3,1.6-0.4,2c-0.1,0.4-0.6,0.6-0.7,0.6c-0.2,0-0.4-0.3-0.6-0.6c-0.1-0.3,0-1.3,0.1-1.7c0-0.4,0.5-2.3,0.5-2.4
		c0-0.1,1.5-5.4,1.6-5.5c0,0,0.5-0.3,0.8-0.2c0.3,0.1,0.3,0.3,0.5,0.6c0.2,0.3,1,2.1,1.4,2.9s1.8,4.1,2,4.8
		C298.5,29.8,298.6,30.3,298.6,30.7z M295.8,27.1l-1.5-3.5l-1,3.8C293.5,27.1,295.8,27.1,295.8,27.1z"/>
	<path d="M299.4,21.8c0.3,0,4.3-0.3,5.2-0.2c0.9,0.1,0.8,0.6,0.8,0.6s0.1,0.4,0,0.8c-0.1,0.4-0.8,1.2-0.8,1.2s0,0-0.3,0.4
		c-0.3,0.4-3.5,5-3.5,5s2.7-0.3,3.5-0.3c0.8,0,1.5-0.1,1.6,0.5c0.1,0.7-0.7,1-1.1,0.9c-0.4,0-2.4,0.2-3.8,0.3
		c-1.4,0.2-1.4-0.2-1.6-0.5c-0.3-0.3-0.4-0.8,0-1.5s4.1-6,4.1-6s-1.8,0.1-3,0.1c-1.1,0-1.5-0.1-1.6-0.7
		C298.8,21.8,299.1,21.9,299.4,21.8z"/>
	<path d="M312.5,21.3c0.3-0.4,0.3-0.9,1-0.6c0.6,0.3,0.6,0.8,0.1,1.7c-0.4,0.9-3.2,6.3-3.6,7c-0.4,0.8-0.9,2.1-1.7,1.6
		c-0.7-0.5-0.1-1.4,0.5-2.7c0.6-1.3,1-2,1-2s-1.5-1.1-2.4-2.8c-0.9-1.8-1.2-1.8-0.6-2.3c0.7-0.5,1.2,0.6,1.8,1.4
		c0.6,0.8,1.9,2.4,1.9,2.4S312.1,21.7,312.5,21.3z"/>
	<path d="M326.8,27.9c-0.6,1.8-4.1,3.1-4.7,3.2c-0.6,0.2-0.9-0.3-0.9-0.3c-0.2,0.3-0.6,0.2-0.9-0.1s-0.3-1.7-0.5-3.2
		c-0.1-1.5-0.2-4.9-0.2-6c0,0,0-1,1.2-0.8s3,1.2,4.5,2.8C326.8,25.2,327.5,26.1,326.8,27.9z M325.5,27.1c0-1.2-1.2-3.3-4.3-4.7
		c0,0,0.4,6.3,0.3,7.4C321.5,29.8,325.5,28.4,325.5,27.1z"/>
	<path d="M337.1,26.4c-0.1,2-1.2,3.7-3.1,4.5c-1.8,0.8-3.1-0.1-4.2-1.1c-1.1-1-2.1-3.2-1.5-5.3c0.6-2.2,2.5-3,2.5-3
		c0-0.6,0.6-0.6,1.2-0.6c0.6,0,1.3,0,2.6,0.8C335.9,22.5,337.2,24.4,337.1,26.4z M335.6,25.4c-0.5-2.4-3.4-3.1-3.4-3.1
		c-0.1,0.3-0.2,0.2-0.6,0.4c-0.4,0.3-0.9,0.8-1.4,1.6c-0.6,0.9-0.7,4.2,1.5,5.1C334.2,30.4,336.1,28,335.6,25.4z"/>
	<path d="M340.6,28.3c0.5,0.6,0.8,1.3,1.6,1.3c0.5,0,1.1-0.2,2-0.8c1-0.6,0.9-2.2-0.8-1.4c-0.6,0.3-0.9,0.6-1.2,0.6
		c-0.1,0-0.3-0.1-0.5-0.3c-0.5-0.6,0.1-1.1,1.1-1.7c0.4-0.3,0.8-0.3,1.2-0.3c0.7,0,1.4,0.3,1.9,0.9c0.7,1,0.6,2.7-2.1,4.2
		c-0.5,0.3-1,0.4-1.5,0.4c-2.3,0-3.9-3-3.9-4.2c0-1.4,0.1-2.8,1.4-4.4c0.9-1.2,1.9-1.6,2.7-1.6c0.3,0,0.6,0,0.9,0.1
		c1.2,0.3,1.3,1.3,1.2,1.7c0,0.2-0.3,0.3-0.6,0.3c-0.3,0-0.4-0.1-0.5-0.2c-0.1-0.3-0.3-0.7-0.9-0.6c-0.9,0.2-1.9,1.7-1.9,1.7
		C339.9,25.3,339.9,27.2,340.6,28.3z"/>
</g>
</svg>
