<?xml version="1.0" encoding="utf-8"?>
<!-- Generator: Adobe Illustrator 26.1.0, SVG Export Plug-In . SVG Version: 6.00 Build 0)  -->
<svg version="1.1" id="Layer_1" xmlns="http://www.w3.org/2000/svg" xmlns:xlink="http://www.w3.org/1999/xlink" x="0px" y="0px"
	 viewBox="0 0 372 36.9" style="enable-background:new 0 0 372 36.9;" xml:space="preserve">
<rect width="372" height="36.9" fill="white"/>
<g>
	<path d="M13.9,5.1l-3.2,0.1L8.4,16.7l-1.1,0.1L9.6,5.3L6.7,5.4l0.2-1.1L14.1,4L13.9,5.1z"/>
	<path d="M21.8,4l-2.7,12.7h-1l1.1-5.3l-4.6,0.7l-0.8,4.2l-1,0.1l2.1-11.9l1-0.1l-1.1,6.7l4.7-0.8L20.8,4H21.8z"/>
	<path d="M25.9,15.7l-0.4,1l-4.8-0.5l-0.5-1.2l1-4.7l1.3-5.7l5.4-0.7v1l-4.6,0.7l-1.2,5l4.6-0.1l-0.2,1l-4.6,0.2l-0.7,3.1l0.2,0.5
		L25.9,15.7z"/>
	<path d="M39.1,14.7l0.7,1.3l-1,0.6L38,15.3l-2.3,1.6l-3.5-2.6l1.8-7.7l4.4-2.5L41.2,7L39.1,14.7z M37.6,14.4l-1.4-3l1-0.6l1.3,2.6
		L40,7.5l-1.9-2.2L35,7.1l-1.6,6.5l2.6,1.9L37.6,14.4z"/>
	<path d="M49.9,3.9L48,14.4l-2.4,2.4h-3.1L40.7,15L43,4h1l-2.2,10.4l1.3,1.3h2.1l1.7-1.7l1.8-10.1L49.9,3.9z"/>
	<path d="M51.9,3.9h1l-2.8,12.9h-1L51.9,3.9z"/>
	<path d="M59.4,13.9l-1.8,2.6l-3.5,0.4l-1.6-3l1.6-7.2l4.6-2.8l1.5,2.5l-1,0.7l-1-1.7L55,7.2l-1.3,6.4l1.2,2.2l2.2-0.3l1.4-2.1
		L59.4,13.9z"/>
	<path d="M62.1,12.6l4.1,3.4l-0.8,0.9l-4.1-3.4l-0.7,3.3h-1l2.6-12.9h1l-1.6,7.8l6.6-7.6L69,4.7L62.1,12.6z"/>
	<path d="M81.1,12.2l-1.2,2.5l-1.2,2.3l-4.7-0.6l-0.1,0.4l-1.1,0.1l2.3-12.2l5.7-0.6l-0.2,6l-3.7,1.2L81.1,12.2z M79.6,13l-4.8-1
		l-0.6,3.2l3.9,0.5l0.8-1.4L79.6,13z M75,11l4.6-1.6l0.2-4.2l-3.8,0.4L75,11z"/>
	<path d="M84.3,11.8l3.4,4.1l-0.9,0.8l-3.7-4.6l-0.8,4.1h-1.1l2.4-12.1L87.8,4l2.8,2.8l-2,4.3L84.3,11.8z M87.9,10.2l1.4-3.1l-2.2-2
		l-2.7,0.1l-1.1,5.7L87.9,10.2z"/>
	<path d="M98.5,10.5l-2.8,6.3l-4.4,0.1l-1.2-3.5l3.2-9L98,4L98.5,10.5z M97.4,10.5l-0.3-5.4l-3.1,0.3l-2.7,7.8l0.9,2.5h3L97.4,10.5z
		"/>
	<path d="M108.6,4.3l0.9,0.1l-3.2,11.9l-1.9,0.5l-0.4-8.2l-3.6,8.1l-1.6-0.3l1.8-11.9l1-0.1l-1.5,10.3l4-8.9h1l0.3,8.9L108.6,4.3z"
		/>
	<path d="M117.5,4.7l-3.1,12l-1.1,0.2L111,7.5l-1.3,9.2l-1,0.1l1.6-12.2l1.1-0.3l2.5,10.3l2.6-10L117.5,4.7z"/>
	<path d="M128.4,11.5l-5.1,0.3l-0.8,5.1l-1.1,0.1l2-11.7l6.5-1.2v1.1l-5.5,0.9l-0.8,4.7l5-0.2L128.4,11.5z"/>
	<path d="M137.2,10.5l-2.8,6.3l-4.4,0.1l-1.2-3.5l3.2-9l4.8-0.3L137.2,10.5z M136.1,10.5l-0.3-5.4l-3.1,0.3l-2.7,7.8l0.9,2.5h3
		L136.1,10.5z"/>
	<path d="M146.8,4.5l-4.4,6.4l1.6,5.4l-1.1,0.5l-1.4-4.7l-3.3,4.8l-0.9-0.5l3.9-5.5l-1.8-6.3l1-0.5l1.6,5.5l3.9-5.6L146.8,4.5z"/>
	<path d="M160.3,5.1l-1.4,0.2l-1.9,8.4l-3,3.2l-3.5-1.9l0.9-3.4l1,0.1l-0.7,2.7l2.2,1.2l2.1-2.2l1.8-8l-3,0.5v-1l5.6-0.8L160.3,5.1z
		"/>
	<path d="M168.2,3.9l-1.9,10.6l-2.4,2.4h-3.1L159,15l2.3-11h1l-2.2,10.4l1.3,1.3h2.1l1.7-1.7l1.8-10.1L168.2,3.9z"/>
	<path d="M177.6,4.3l-1.4,12.3l-1,0.1l1.1-10.4l-3.9,8.5h-1.1l-0.7-8.3l-2.7,10.3l-1-0.1l2.8-11.9l1.8-0.4l0.6,8.4l3.8-8.6H177.6z"
		/>
	<path d="M183.7,12.8l-4.2-0.7l-1,4.8l-1.1,0.1l2.4-12l4.9-0.8l2.1,3.1L183.7,12.8z M183.2,11.6l2.4-4.2l-1.5-2.2l-3.4,0.6l-1,5.1
		L183.2,11.6z"/>
	<path d="M193,10.8l-0.3,4.1l-4.6,1.9l-1.5-2.8l1-0.6l1.2,2.1l2.9-1.2l0.2-2.7l-4.8-1.3l0.7-3.9L193,4l1,3.4l-1,0.5l-0.7-2.5
		L188.8,7l-0.4,2.4L193,10.8z"/>
	<path d="M207.5,10.5l-2.8,6.3l-4.4,0.1l-1.2-3.5l3.2-9l4.8-0.3L207.5,10.5z M206.4,10.5l-0.3-5.4L203,5.3l-2.7,7.8l0.9,2.5h3
		L206.4,10.5z"/>
	<path d="M216.1,4.3l0.9,0.3l-5.7,12.2l-1.1,0.1l-0.8-12.2l1-0.3l0.7,10.5L216.1,4.3z"/>
	<path d="M221.1,15.7l-0.4,1l-4.8-0.5l-0.5-1.2l1-4.7l1.3-5.7l5.4-0.7v1l-4.6,0.7l-1.2,5l4.6-0.1l-0.2,1l-4.6,0.2l-0.7,3.1l0.2,0.5
		L221.1,15.7z"/>
	<path d="M225.1,11.8l3.4,4.1l-0.9,0.8l-3.7-4.6l-0.8,4.1H222l2.4-12.1l4.2-0.3l2.8,2.8l-2,4.3L225.1,11.8z M228.7,10.2l1.4-3.1
		l-2.2-2l-2.7,0.1l-1.1,5.7L228.7,10.2z"/>
	<path d="M244.9,5.1l-3.2,0.1l-2.2,11.5l-1.1,0.1l2.2-11.5l-2.9,0.1l0.2-1.1l7.2-0.3L244.9,5.1z"/>
	<path d="M252.9,4l-2.7,12.7h-1l1.1-5.3l-4.6,0.7l-0.8,4.2l-1,0.1l2.1-11.9l1-0.1l-1.1,6.7l4.7-0.8l1.3-6.3H252.9z"/>
	<path d="M257,15.7l-0.4,1l-4.8-0.5l-0.5-1.2l1-4.7l1.3-5.7l5.4-0.7v1l-4.6,0.7l-1.2,5l4.6-0.1l-0.2,1l-4.6,0.2l-0.7,3.1l0.2,0.5
		L257,15.7z"/>
	<path d="M269.2,14.3v1l-6.2,1.4L266,3.9h1l-2.6,11.4L269.2,14.3z"/>
	<path d="M276.4,13h-4.1l-1.5,3.7l-1-0.2l5.1-12.2l2.9-0.3l-0.5,12.6l-1.1,0.2L276.4,13z M276.5,12l0.3-6.8l-1.1,0.1l-2.8,6.7H276.5
		z"/>
	<path d="M285,15.4l-0.2,1.1l-6.1,0.3l-0.4-0.9l7.9-10.7l-5-0.1l0.2-1.1l5.7,0.1l0.3,0.9l-7.9,10.7L285,15.4z"/>
	<path d="M296.3,4.5l-5.1,7.4l-1.1,5l-1.1-0.1l1.1-4.8l-1.7-7.6l1.1-0.4l1.4,6.5l4.4-6.6L296.3,4.5z"/>
	<path d="M308.9,9.2l-4,7.1l-4.6,0.5l2.6-11.7L302.4,5l0.3-1.1l4.4,0.3L308.9,9.2z M307.7,9.3l-1.4-4.1l-2.4-0.2l-2.3,10.6l2.7-0.4
		L307.7,9.3z"/>
	<path d="M317.3,10.5l-2.8,6.3l-4.4,0.1l-1.2-3.5l3.2-9l4.8-0.3L317.3,10.5z M316.2,10.5l-0.3-5.4l-3.1,0.3l-2.7,7.8l0.9,2.5h3
		L316.2,10.5z"/>
	<path d="M325.3,10.5l-2.6,6.2l-5.6-0.9l2.4-10.3l5.5-1.4l0.6,1.9l-1.1,0.5l-0.4-1.1l-3.7,1l-2.1,8.6l3.8,0.7l1.7-3.8l-2.7,0.2
		l0.2-1L325.3,10.5z"/>
	<path d="M13.6,21.4l-3.1,0.1L8.3,32.7l-1,0.1l2.2-11.1l-2.8,0.1l0.2-1l6.9-0.3L13.6,21.4z"/>
	<path d="M21.3,20.4l-2.6,12.3h-1l1.1-5.2l-4.5,0.7l-0.7,4.1h-1l2-11.5h1l-1.1,6.4l4.6-0.7l1.3-6.1H21.3z"/>
	<path d="M25.2,31.8l-0.3,1l-4.7-0.5l-0.5-1.1l1-4.6l1.3-5.5l5.2-0.7l-0.1,0.9L22.9,22l-1.2,4.9l4.4-0.1l-0.2,1l-4.4,0.2l-0.7,2.9
		l0.2,0.6L25.2,31.8z"/>
	<path d="M38.1,30.8l0.6,1.3l-0.9,0.6l-0.7-1.4l-2.2,1.5l-3.4-2.6l1.7-7.4l4.3-2.5l2.6,2.9L38.1,30.8z M36.7,30.5l-1.4-2.9l1-0.6
		l1.2,2.5l1.6-5.7l-1.9-2.2l-3,1.8l-1.6,6.3l2.5,1.9L36.7,30.5z"/>
	<path d="M48.7,20.3l-1.8,10.2l-2.3,2.3h-2.9l-1.9-1.8L42,20.5h1l-2.2,10.1l1.3,1.2h2.1l1.7-1.6l1.8-9.8L48.7,20.3z"/>
	<path d="M52.7,21.6L50.3,32h2.4l-0.3,1l-5.2-0.1l0.2-1h1.9l2.3-10.2l-2,0.2l0.1-1l5.3-0.6l-0.1,1L52.7,21.6z"/>
	<path d="M60.6,30l-1.7,2.5l-3.4,0.4L54,30l1.4-7l4.5-2.8l1.4,2.4l-1,0.6l-0.9-1.7l-3.1,1.9l-1.3,6.2l1.1,2.1l2.2-0.3l1.3-2L60.6,30
		z"/>
	<path d="M63.4,28.7l4,3.3l-0.8,0.9l-4-3.3L62,32.8h-1l2.6-12.5h1L63,27.8l6.4-7.3l0.7,0.6L63.4,28.7z"/>
	<path d="M81.9,28.3l-2.4,4.6L75,32.3l-0.1,0.4l-1,0.1L76.1,21l5.6-0.5l-0.2,5.8l-3.6,1.2L81.9,28.3z M80.5,29.1l-4.7-1l-0.6,3.2
		l3.8,0.5l0.8-1.4L80.5,29.1z M75.9,27.2l4.5-1.6l0.2-4.1L76.9,22L75.9,27.2z"/>
	<path d="M85,28l3.3,4l-0.9,0.7l-3.6-4.3l-0.8,4h-1l2.3-11.7l4-0.3l2.8,2.7l-2,4.2L85,28z M88.6,26.4l1.3-2.9l-2.1-2l-2.6,0.2
		l-1.1,5.5L88.6,26.4z"/>
	<path d="M98.8,26.7l-2.7,6.1l-4.3,0.1l-1.2-3.4l3.1-8.7l4.7-0.3L98.8,26.7z M97.7,26.7l-0.3-5.3l-3,0.3l-2.7,7.6l0.9,2.4h2.9
		L97.7,26.7z"/>
	<path d="M108.9,20.3l0.9,0.1l-3.2,11.9l-1.9,0.5l-0.4-8.2l-3.6,8.1l-1.6-0.3l1.8-11.9l1-0.1l-1.5,10.3l4-8.9h1l0.3,8.9L108.9,20.3z
		"/>
	<path d="M117.9,20.7l-3.1,12l-1.1,0.2l-2.3-9.3l-1.3,9.2l-1,0.1l1.6-12.2l1.1-0.3l2.5,10.3l2.6-10L117.9,20.7z"/>
	<path d="M128.6,27.7l-4.9,0.2l-0.8,4.9l-1,0.1l1.9-11.4l6.2-1.1v1l-5.4,0.9l-0.8,4.6l4.9-0.2L128.6,27.7z"/>
	<path d="M137.1,26.7l-2.7,6.1l-4.3,0.1l-1.2-3.4l3.1-8.7l4.7-0.3L137.1,26.7z M136,26.7l-0.3-5.3l-3,0.3l-2.7,7.6l0.9,2.4h2.9
		L136,26.7z"/>
	<path d="M146.3,20.8l-4.3,6.2l1.6,5.3l-1,0.5l-1.3-4.6l-3.3,4.6l-0.8-0.4l3.7-5.4l-1.8-6.1l1-0.4l1.6,5.3l3.8-5.4L146.3,20.8z"/>
	<path d="M159.6,21.5l-1.4,0.2l-1.8,8.2l-2.9,3.1l-3.3-1.8l0.9-3.3l1,0.1l-0.7,2.6l2.1,1.1l2-2.1l1.7-7.8l-2.9,0.4v-0.9l5.4-0.8
		L159.6,21.5z"/>
	<path d="M167.3,20.3l-1.8,10.2l-2.3,2.3h-2.9l-1.9-1.8l2.3-10.6h1l-2.2,10.1l1.3,1.2h2.1l1.7-1.6l1.8-9.8L167.3,20.3z"/>
	<path d="M176.8,20.3l-1.4,12.3l-1,0.1l1.1-10.4l-3.9,8.5h-1.1l-0.7-8.3l-2.7,10.3l-1-0.1l2.8-11.9l1.8-0.4l0.6,8.4l3.8-8.6H176.8z"
		/>
	<path d="M182.8,28.9l-4.1-0.7l-0.9,4.7l-1,0.1l2.3-11.6l4.7-0.8l2.1,2.9L182.8,28.9z M182.3,27.8l2.3-4.1l-1.4-2.1l-3.3,0.6l-1,5
		L182.3,27.8z"/>
	<path d="M191.8,27l-0.3,4l-4.4,1.8l-1.5-2.7l0.9-0.6l1.2,2l2.8-1.2l0.2-2.6l-4.6-1.4l0.7-3.7l5-2.3l1,3.3l-1,0.5l-0.7-2.4l-3.4,1.6
		l-0.5,2.4L191.8,27z"/>
	<path d="M206,26.7l-2.7,6.1l-4.3,0.1l-1.2-3.4l3.1-8.7l4.7-0.3L206,26.7z M204.9,26.7l-0.3-5.3l-3,0.3l-2.7,7.6l0.9,2.4h2.9
		L204.9,26.7z"/>
	<path d="M214.6,20.3l0.9,0.3l-5.7,12.2l-1.1,0.1L208,20.7l1-0.3l0.7,10.5L214.6,20.3z"/>
	<path d="M219.5,31.8l-0.3,1l-4.7-0.5l-0.5-1.1l1-4.6l1.3-5.5l5.2-0.7l-0.1,0.9l-4.4,0.7l-1.2,4.9l4.4-0.1l-0.2,1l-4.4,0.2l-0.7,2.9
		l0.2,0.6L219.5,31.8z"/>
	<path d="M223.3,28l3.3,4l-0.9,0.7l-3.6-4.3l-0.8,4h-1l2.3-11.7l4-0.3l2.8,2.7l-2,4.2L223.3,28z M226.9,26.4l1.3-2.9l-2.1-2
		l-2.6,0.2l-1.1,5.5L226.9,26.4z"/>
	<path d="M242.8,21.4l-3.1,0.1l-2.2,11.2l-1,0.1l2.2-11.1l-2.8,0.1l0.2-1l6.9-0.3L242.8,21.4z"/>
	<path d="M250.5,20.4l-2.6,12.3h-1l1.1-5.2l-4.5,0.7l-0.7,4.1h-1l2-11.5h1l-1.1,6.4l4.6-0.7l1.3-6.1H250.5z"/>
	<path d="M254.4,31.8l-0.3,1l-4.7-0.5l-0.5-1.1l1-4.6l1.3-5.5l5.2-0.7l-0.1,0.9l-4.4,0.7l-1.2,4.9l4.4-0.1l-0.2,1l-4.4,0.2l-0.7,2.9
		l0.2,0.6L254.4,31.8z"/>
	<path d="M266.3,30.4l0.1,1l-5.9,1.3l2.8-12.4h1l-2.5,11.1L266.3,30.4z"/>
	<path d="M273.4,29.1h-4l-1.5,3.6l-0.9-0.2l4.9-11.8l2.9-0.3l-0.5,12.2l-1.1,0.2L273.4,29.1z M273.5,28.1l0.3-6.6l-1.1,0.1l-2.7,6.5
		H273.5z"/>
	<path d="M281.7,31.5l-0.2,1l-5.9,0.3l-0.4-0.9l7.7-10.4l-4.9-0.1l0.2-1l5.5,0.1l0.3,0.9l-7.6,10.4L281.7,31.5z"/>
	<path d="M292.7,20.8l-4.9,7.2l-1,4.8l-1-0.1l1-4.7l-1.7-7.3l1-0.4l1.4,6.3l4.3-6.4L292.7,20.8z"/>
	<path d="M305,25.4l-3.9,6.9l-4.4,0.5l2.5-11.4l-0.4-0.1l0.3-1l4.3,0.3L305,25.4z M303.9,25.6l-1.3-4l-2.3-0.2L298,31.7l2.6-0.3
		L303.9,25.6z"/>
	<path d="M313.2,26.7l-2.7,6.1l-4.3,0.1l-1.2-3.4l3.1-8.7l4.7-0.3L313.2,26.7z M312.1,26.7l-0.3-5.3l-3,0.3l-2.7,7.6l0.9,2.4h2.9
		L312.1,26.7z"/>
	<path d="M321,26.7l-2.6,6l-5.5-0.9l2.4-10l5.3-1.4l0.6,1.8l-1,0.5l-0.3-1l-3.7,0.9l-2,8.4l3.8,0.6l1.6-3.7l-2.6,0.2l0.2-1L321,26.7
		z"/>
</g>
</svg>
