<?xml version="1.0" encoding="utf-8"?>
<!-- Generator: Adobe Illustrator 26.1.0, SVG Export Plug-In . SVG Version: 6.00 Build 0)  -->
<svg version="1.1" id="Layer_1" xmlns="http://www.w3.org/2000/svg" xmlns:xlink="http://www.w3.org/1999/xlink" x="0px" y="0px"
	 viewBox="0 0 372 36.9" style="enable-background:new 0 0 372 36.9;" xml:space="preserve">
<rect width="372" height="36.9" fill="white"/>
<g>
	<path d="M9,6.4L6.4,6.5l0.4-2.2L14.6,4l-0.4,2.2l-2.9,0.1l-2,10.2l-2.2,0.1L9,6.4z"/>
	<path d="M15.3,4.4l2.3-0.1l-0.9,5.7l2.9-0.5L20.8,4H23l-2.7,12.5h-2.2l1-4.6l-2.9,0.5l-0.6,3.8l-2.3,0.1L15.3,4.4z"/>
	<path d="M21.5,14.5L21.5,14.5c0.7-3.3,1.4-6.4,2.3-9.6l0.1-0.3l6.1-0.8L29.9,6l-4.2,0.6l-0.8,3.3l4-0.1l-0.4,2.2L24.4,12l-0.5,1.9
		L24,14l4.1,0.5l-0.7,2.2L22.2,16L21.5,14.5z"/>
	<path d="M35.9,6.5l4.8-2.7L43.7,7l-1.9,6.9l0.8,1.6l-2.1,1.2l-0.6-1.2l-1.9,1.2l-3.7-2.8L35.9,6.5z M38.4,14l0.5-0.3L37.5,11
		l2.1-1.2l0.7,1.3l0.9-3.2l-1.4-1.4l-2,1.2l-1.2,5L38.4,14z"/>
	<path d="M45.6,4h2.2l-2,9.5l0.9,0.8h1.3l1.1-1l1.7-9.4l2.2-0.1L51.3,14l-2.5,2.5h-3.4l-2-2L45.6,4z"/>
	<path d="M55.2,3.9h2.2l-2.8,12.6h-2.2L55.2,3.9z"/>
	<path d="M56.9,13.6l1.5-6.9l5-3.1l2,3.2l-2,1.3l-1-1.5l-2,1.2l-1.1,5.1l0.9,1.5l1.3-0.2l1.4-2.1l1.9,0.9l-2.2,3.2l-3.9,0.5
		L56.9,13.6z"/>
	<path d="M67.3,3.9h2.2l-1.1,5.4l4.8-5.4L74.9,5l-6.2,7l3.8,3l-1.7,1.8l-3.4-2.6l-0.5,2.3h-2.2L67.3,3.9z"/>
	<path d="M80.9,4.6L87.3,4l-0.2,6.4l-1.6,0.5l2.2,0.4l-0.2,0.4c-0.8,1.6-1.6,3.2-2.5,4.7l-0.2,0.3l-4-0.5l-0.1,0.3l-2.2,0.1
		L80.9,4.6z M83.9,14.3c0.3-0.4,0.6-0.9,0.8-1.3l-3-0.6L81.4,14L83.9,14.3z M84.9,9L85,6.4l-2.3,0.2l-0.6,3.3L84.9,9z"/>
	<path d="M90.2,4.2L94.8,4l3,2.8l-2.1,4.6l-3.1,0.5l2.7,3.3l-2,1.6l-2.7-3.4L90,16.1h-2.2L90.2,4.2z M94.2,9.5l0.9-1.9l-1.6-1.4
		l-1.7,0.1L91.3,10L94.2,9.5z"/>
	<path d="M97.3,12.9l3.1-8.6l5.4-0.3l0.1,0.3c0,0.2,0.2,1.7,0.3,3.2c0.1,0.7,0.1,1.4,0.1,1.9c0.1,0.3,0.1,0.6,0.1,0.8
		c0,0.1,0,0.2,0,0.2c-0.1,0.1-0.6,1.6-1.2,2.8c-0.6,1.4-1.2,2.8-1.3,3.1l-0.2,0.3l-4.9,0.1L97.3,12.9z M102.2,14.3
		c0.2-0.4,0.6-1.2,0.9-2c0.3-0.5,0.4-1,0.6-1.3c0.1-0.2,0.2-0.4,0.2-0.5c0-0.1,0-0.1,0.1-0.2c-0.1,0-0.1-0.1-0.1-0.1
		c-0.1-0.1-0.1-0.3-0.1-0.5c0.1-0.4,0-0.9-0.1-1.5c-0.1-0.8-0.1-1.6-0.1-2.1L102,6.4l-2.2,6.2l0.6,1.8H102.2z"/>
	<path d="M108.4,4.1l2.3-0.1l-0.8,6.1l2-4.8h2.1l0.1,5.1l1.8-6.5l2.2,0.2l-3.2,11.9l-2.9,0.8l-0.1-5.9l-2.5,5.8l-2.6-0.5L108.4,4.1z
		"/>
	<path d="M118.8,4.3l2.2-0.5l1.9,7.5l1.9-7.2l2.2,0.2l-3.1,12l-2.1,0.4l-1.5-5.9l-0.7,5.6l-2.3,0.2L118.8,4.3z"/>
	<path d="M132.8,5.2l7.1-1.2v2.2l-5.1,0.8l-0.5,3l4.6-0.2l-0.3,2.2l-4.6,0.2l-0.7,4.4l-2.3,0.2L132.8,5.2z"/>
	<path d="M139.1,12.9l3.1-8.6l5.4-0.3l0.1,0.3c0,0.2,0.2,1.7,0.3,3.2c0.1,0.7,0.1,1.4,0.1,1.9c0.1,0.3,0.1,0.6,0.1,0.8
		c0,0.1,0,0.2,0,0.2c-0.1,0.1-0.6,1.6-1.2,2.8c-0.6,1.4-1.2,2.8-1.3,3.1l-0.2,0.3l-4.9,0.1L139.1,12.9z M144,14.3
		c0.2-0.4,0.6-1.2,0.9-2c0.3-0.5,0.4-1,0.6-1.3c0.1-0.2,0.2-0.4,0.2-0.5c0-0.1,0-0.1,0.1-0.2c-0.1,0-0.1-0.1-0.1-0.1
		c-0.1-0.1-0.1-0.3-0.1-0.5c0.1-0.4,0-0.9-0.1-1.5c-0.1-0.8-0.1-1.6-0.1-2.1l-1.8,0.2l-2.2,6.2l0.6,1.8H144z"/>
	<path d="M151.8,10.6l-1.8-5.8l2.2-0.9l1.3,4.2l3.1-4.3l1.8,0.9l-4.2,5.9l1.6,5l-2.3,1.1l-1.1-3.6l-2.6,3.6l-1.8-1L151.8,10.6z"/>
	<path d="M163.5,10.7l2.2,0.2l-0.7,2.5l1.1,0.6l1.3-1.3l1.3-6.1L166.2,7l0.1-2.1l6.4-0.9l-0.2,2.2l-1.4,0.2l-1.6,7.1l-3.3,3.4
		l-3.8-2.1L163.5,10.7z"/>
	<path d="M173.8,4h2.2l-2,9.5l0.9,0.8h1.3l1.1-1l1.7-9.4l2.2-0.1L179.4,14l-2.5,2.5h-3.4l-2-2L173.8,4z"/>
	<path d="M182.8,4.6l2.9-0.6l0.4,5.8l2.6-5.8h2.7L190,16.2l-2.3,0.3l0.8-7.1l-2.3,5.2h-2.1l-0.3-4.8l-1.7,6.7l-2.2-0.1L182.8,4.6z"
		/>
	<path d="M193.5,4.9l5.4-0.9l2.2,3.3l-3.3,5.8l-3.6-0.7l-0.8,4.2l-2.2,0.1L193.5,4.9z M196.8,10.6l1.7-2.8l-1-1.4l-2.1,0.4l-0.7,3.4
		L196.8,10.6z"/>
	<path d="M200.8,13.4l2-1.3L204,14l1.6-0.6l0.1-1.6l-4.3-1.2l0.8-4.2l5.7-2.5l1.3,4.1L207,9l-0.7-2.3l-2.1,0.9L203.9,9l4.2,1.1
		l-0.3,4.5l-5.2,2.1L200.8,13.4z"/>
	<path d="M214.2,12.9l3.1-8.6l5.4-0.3l0.1,0.3c0,0.2,0.2,1.7,0.3,3.2c0.1,0.7,0.1,1.4,0.1,1.9c0.1,0.3,0.1,0.6,0.1,0.8
		c0,0.1,0,0.2,0,0.2c-0.1,0.1-0.6,1.6-1.2,2.8c-0.6,1.4-1.2,2.8-1.3,3.1l-0.2,0.3l-4.9,0.1L214.2,12.9z M219,14.3
		c0.2-0.4,0.6-1.2,0.9-2c0.3-0.5,0.4-1,0.6-1.3c0.1-0.2,0.2-0.4,0.2-0.5c0-0.1,0-0.1,0.1-0.2c-0.1,0-0.1-0.1-0.1-0.1
		c-0.1-0.1-0.1-0.3-0.1-0.5c0.1-0.4,0-0.9-0.1-1.5c-0.1-0.8-0.1-1.6-0.1-2.1l-1.8,0.2l-2.2,6.2l0.6,1.8H219z"/>
	<path d="M225,4.4l2.3-0.6l0.6,8l3.7-7.9l2.1,0.5L228,16.6l-2.1,0.1L225,4.4z"/>
	<path d="M232.3,14.5L232.3,14.5c0.7-3.3,1.4-6.4,2.3-9.6l0.1-0.3l6.1-0.8L240.6,6l-4.2,0.6l-0.8,3.3l4-0.1l-0.4,2.2l-4.1,0.1
		l-0.5,1.9l0.1,0.1l4.1,0.5l-0.7,2.2l-5.3-0.6L232.3,14.5z"/>
	<path d="M241.8,4.2l4.6-0.3l3,2.8l-2.1,4.6l-3.1,0.5l2.7,3.3l-2,1.6l-2.7-3.4l-0.6,2.7h-2.2L241.8,4.2z M245.9,9.5l0.9-1.9
		l-1.6-1.4l-1.7,0.1l-0.7,3.7L245.9,9.5z"/>
	<path d="M258.2,6.4l-2.6,0.1l0.4-2.2l7.8-0.3l-0.4,2.2l-2.9,0.1l-2,10.2l-2.2,0.1L258.2,6.4z"/>
	<path d="M264.5,4.4l2.3-0.1l-0.9,5.7l2.9-0.5L270,4h2.2l-2.7,12.5h-2.2l1-4.6l-2.9,0.5l-0.6,3.8l-2.3,0.1L264.5,4.4z"/>
	<path d="M270.7,14.5L270.7,14.5c0.7-3.3,1.4-6.4,2.3-9.6l0.1-0.3l6.1-0.8L279,6l-4.2,0.6L274,9.8l4-0.1l-0.4,2.2l-4.1,0.1l-0.5,1.9
		l0.1,0.1l4.1,0.5l-0.7,2.2l-5.3-0.6L270.7,14.5z"/>
	<path d="M285.9,3.9h2.2l-2.3,9.9L290,13l0.1,2.1l-7,1.6L285.9,3.9z"/>
	<path d="M295.7,4.3l3.8-0.5L299,16.2l-2.3,0.4l0.2-3.4h-2.6l-1.4,3.4l-2.2-0.5L295.7,4.3z M297,11l0.2-4.6l-1.9,4.6H297z"/>
	<path d="M300.1,15.1l6.7-8.8l-4.1-0.1l0.5-2.2l6.1,0.1l0.6,1.4l-6.5,8.7l4.3-0.2l-0.4,2.2l-6.5,0.3L300.1,15.1z"/>
	<path d="M311.5,16.2c0.1-0.4,0.2-0.7,0.2-1.1l0.5-2.2c0.1-0.4,0.2-0.7,0.3-1.1c-0.1-0.1-0.1-0.1-0.1-0.2c-0.1-0.2-0.1-0.4-0.2-0.7
		c-0.1-0.6-0.3-1.4-0.5-2.2c-0.3-1.7-0.8-3.4-0.9-3.6V4.7l2.2-0.8l1.2,5l3.5-5.1l1.9,0.9l-3.4,4.8c-0.3,0.5-0.6,0.8-0.8,1.1
		c-0.2,0.3-0.4,0.6-0.7,1.1c0,0,0,0.1-0.1,0.1c0,0.1-0.1,0.3-0.1,0.5c-0.2,1.1-0.6,2.9-0.9,3.9l-0.1,0.4l-2.2-0.1L311.5,16.2z"/>
	<path d="M326,6.1l-0.5-0.1l0.6-2.1l5,0.3l1.8,4.9l-4,6.9l-5.2,0.7L326,6.1z M327.7,14l2.7-4.7l-1.1-3.1l-1.1-0.1l-1.8,8L327.7,14z"
		/>
	<path d="M332.9,12.9l3.1-8.6l5.4-0.3l0.1,0.3c0,0.2,0.2,1.7,0.3,3.2c0.1,0.7,0.1,1.4,0.1,1.9c0.1,0.3,0.1,0.6,0.1,0.8
		c0,0.1,0,0.2,0,0.2c-0.1,0.1-0.6,1.6-1.2,2.8c-0.6,1.4-1.2,2.8-1.3,3.1l-0.2,0.3l-4.9,0.1L332.9,12.9z M337.8,14.3
		c0.2-0.4,0.6-1.2,0.9-2c0.3-0.5,0.4-1,0.6-1.3c0.1-0.2,0.2-0.4,0.2-0.5c0-0.1,0-0.1,0.1-0.2c-0.1,0-0.1-0.1-0.1-0.1
		c-0.1-0.1-0.1-0.3-0.1-0.5c0.1-0.4,0-0.9-0.1-1.5c-0.1-0.8-0.1-1.6-0.1-2.1l-1.8,0.2l-2.2,6.2l0.6,1.8H337.8z"/>
	<path d="M344,5.4l5.9-1.6l0.9,2.7l-2.2,0.9l-0.4-1L345.8,7l-1.6,6.6l2.3,0.4l0.9-2l-1.9,0.1l0.3-2.1l4.9-0.4l-3,6.9l-6.2-1L344,5.4
		z"/>
	<path d="M9,22.4l-2.6,0.1l0.4-2.2l7.8-0.3l-0.4,2.2l-2.9,0.1l-2,10.2l-2.2,0.1L9,22.4z"/>
	<path d="M15.3,20.4l2.3-0.1l-0.9,5.7l2.9-0.5l1.2-5.6H23l-2.7,12.5h-2.2l1-4.6l-2.9,0.5l-0.6,3.8l-2.3,0.1L15.3,20.4z"/>
	<path d="M21.5,30.5L21.5,30.5c0.7-3.3,1.4-6.4,2.3-9.6l0.1-0.3l6.1-0.8L29.9,22l-4.2,0.6l-0.8,3.3l4-0.1l-0.4,2.2L24.4,28l-0.5,1.9
		L24,30l4.1,0.5l-0.7,2.2L22.2,32L21.5,30.5z"/>
	<path d="M35.9,22.5l4.8-2.7l2.9,3.2l-1.9,6.9l0.7,1.6l-2.1,1.2l-0.7-1.2l-1.9,1.2l-3.7-2.8L35.9,22.5z M38.4,30l0.5-0.3L37.5,27
		l2.1-1.2l0.7,1.3l0.8-3.2l-1.3-1.4l-2,1.2l-1.2,5L38.4,30z"/>
	<path d="M45.7,20H48l-2,9.5l0.9,0.8h1.3l1.1-1l1.7-9.4l2.2-0.1L51.4,30l-2.5,2.5h-3.4l-2-2L45.7,20z"/>
	<path d="M52.3,30.5H54l1.8-7.9L54,22.8l0.3-2.2l6.3-0.7l-0.2,2.2l-2.3,0.3l-1.9,8.2h2.2l-0.5,2.2l-6.1-0.1L52.3,30.5z"/>
	<path d="M59.5,29.6l1.5-6.9l5-3.1l2,3.2l-2,1.3l-1-1.5l-2,1.2l-1.1,5.1l0.9,1.5l1.3-0.2l1.4-2.1l1.9,0.9l-2.2,3.2l-3.9,0.5
		L59.5,29.6z"/>
	<path d="M70,19.9h2.2l-1.1,5.4l4.8-5.4l1.7,1.2l-6.2,7l3.7,3l-1.7,1.8l-3.4-2.6l-0.5,2.3h-2.2L70,19.9z"/>
	<path d="M83.7,20.6l6.4-0.6l-0.2,6.4l-1.6,0.5l2.2,0.4l-0.2,0.4c-0.8,1.6-1.6,3.2-2.5,4.7l-0.2,0.3l-4-0.5l-0.1,0.3l-2.2,0.1
		L83.7,20.6z M86.7,30.3c0.3-0.4,0.6-0.9,0.8-1.3l-3-0.6L84.2,30L86.7,30.3z M87.7,25l0.1-2.6l-2.3,0.2l-0.6,3.3L87.7,25z"/>
	<path d="M93,20.2l4.6-0.3l3,2.8l-2.1,4.6l-3.1,0.5l2.7,3.3l-2,1.6l-2.7-3.4l-0.6,2.7h-2.2L93,20.2z M97,25.5l0.9-1.9l-1.6-1.4
		l-1.7,0.1L94,26L97,25.5z"/>
	<path d="M100.1,28.9l3.1-8.6l5.4-0.3l0.1,0.3c0,0.2,0.2,1.7,0.3,3.2c0.1,0.7,0.1,1.4,0.1,1.9c0.1,0.3,0.1,0.6,0.1,0.8
		c0,0.1,0,0.2,0,0.2c-0.1,0.1-0.6,1.6-1.2,2.8c-0.6,1.4-1.2,2.8-1.3,3.1l-0.2,0.3l-4.9,0.1L100.1,28.9z M105,30.3
		c0.2-0.4,0.6-1.2,0.9-2c0.3-0.5,0.4-1,0.6-1.3c0.1-0.2,0.2-0.4,0.2-0.5c0-0.1,0-0.1,0.1-0.2c-0.1,0-0.1-0.1-0.1-0.1
		c-0.1-0.1-0.1-0.3-0.1-0.5c0.1-0.4,0-0.9-0.1-1.5c-0.1-0.8-0.1-1.6-0.1-2.1l-1.8,0.2l-2.2,6.2l0.6,1.8H105z"/>
	<path d="M111.2,20.1l2.3-0.1l-0.8,6.1l2-4.8h2.1l0.1,5.1l1.8-6.5l2.2,0.2l-3.2,11.9l-2.9,0.8l-0.1-5.9l-2.5,5.8l-2.6-0.5
		L111.2,20.1z"/>
	<path d="M121.6,20.3l2.2-0.5l1.9,7.5l1.9-7.2l2.2,0.2l-3.1,12l-2.1,0.4l-1.5-5.9l-0.7,5.6l-2.3,0.2L121.6,20.3z"/>
	<path d="M135.6,21.2l7.1-1.2v2.2l-5.1,0.8l-0.5,3l4.6-0.2l-0.3,2.2l-4.6,0.2l-0.7,4.4l-2.3,0.2L135.6,21.2z"/>
	<path d="M141.9,28.9l3.1-8.6l5.4-0.3l0.1,0.3c0,0.2,0.2,1.7,0.3,3.2c0.1,0.7,0.1,1.4,0.1,1.9c0.1,0.3,0.1,0.6,0.1,0.8
		c0,0.1,0,0.2,0,0.2c-0.1,0.1-0.6,1.6-1.2,2.8c-0.6,1.4-1.2,2.8-1.3,3.1l-0.2,0.3l-4.9,0.1L141.9,28.9z M146.8,30.3
		c0.2-0.4,0.6-1.2,0.9-2c0.3-0.5,0.4-1,0.6-1.3c0.1-0.2,0.2-0.4,0.2-0.5c0-0.1,0-0.1,0.1-0.2c-0.1,0-0.1-0.1-0.1-0.1
		c-0.1-0.1-0.1-0.3-0.1-0.5c0.1-0.4,0-0.9-0.1-1.5c-0.1-0.8-0.1-1.6-0.1-2.1l-1.8,0.2l-2.2,6.2l0.6,1.8H146.8z"/>
	<path d="M154.6,26.6l-1.8-5.8l2.2-0.9l1.3,4.2l3.1-4.3l1.8,0.9l-4.2,5.9l1.6,5l-2.3,1.1l-1.1-3.6l-2.6,3.6l-1.8-1L154.6,26.6z"/>
	<path d="M166.3,26.7l2.2,0.2l-0.7,2.5l1.1,0.6l1.3-1.3l1.3-6.1L169,23l0.1-2.1l6.4-0.9l-0.2,2.2l-1.4,0.2l-1.6,7.1l-3.3,3.4
		l-3.8-2.1L166.3,26.7z"/>
	<path d="M176.5,20h2.2l-2,9.5l0.9,0.8h1.3l1.1-1l1.7-9.4l2.2-0.1L182.2,30l-2.5,2.5h-3.4l-2-2L176.5,20z"/>
	<path d="M185.6,20.6l2.9-0.6l0.4,5.8l2.6-5.8h2.7l-1.4,12.4l-2.3,0.3l0.8-7.1l-2.3,5.2h-2.1l-0.3-4.8l-1.7,6.7l-2.2-0.1L185.6,20.6
		z"/>
	<path d="M196.4,20.9l5.4-0.9l2.2,3.3l-3.3,5.8l-3.6-0.7l-0.8,4.2l-2.2,0.1L196.4,20.9z M199.7,26.6l1.7-2.8l-1-1.4l-2.1,0.4
		l-0.7,3.4L199.7,26.6z"/>
	<path d="M203.7,29.4l2-1.3l1.2,1.9l1.6-0.6l0.1-1.6l-4.3-1.2l0.8-4.2l5.7-2.5l1.3,4.1l-2.2,1.1l-0.7-2.3l-2.1,0.9l-0.3,1.3l4.2,1.1
		l-0.3,4.5l-5.2,2.1L203.7,29.4z"/>
	<path d="M217,28.9l3.1-8.6l5.4-0.3l0.1,0.3c0,0.2,0.2,1.7,0.3,3.2c0.1,0.7,0.1,1.4,0.1,1.9c0.1,0.3,0.1,0.6,0.1,0.8
		c0,0.1,0,0.2,0,0.2c-0.1,0.1-0.6,1.6-1.2,2.8c-0.6,1.4-1.2,2.8-1.3,3.1l-0.2,0.3l-4.9,0.1L217,28.9z M221.9,30.3
		c0.2-0.4,0.6-1.2,0.9-2c0.3-0.5,0.4-1,0.6-1.3c0.1-0.2,0.2-0.4,0.2-0.5c0-0.1,0-0.1,0.1-0.2c-0.1,0-0.1-0.1-0.1-0.1
		c-0.1-0.1-0.1-0.3-0.1-0.5c0.1-0.4,0-0.9-0.1-1.5c-0.1-0.8-0.1-1.6-0.1-2.1l-1.8,0.2l-2.2,6.2l0.6,1.8H221.9z"/>
	<path d="M227.9,20.4l2.3-0.6l0.6,8l3.7-7.9l2.1,0.5l-5.7,12.2l-2.1,0.1L227.9,20.4z"/>
	<path d="M235.2,30.5L235.2,30.5c0.7-3.3,1.4-6.4,2.3-9.6l0.1-0.3l6.1-0.8l-0.1,2.1l-4.2,0.6l-0.8,3.3l4-0.1l-0.4,2.2L238,28
		l-0.5,1.9l0.1,0.1l4.1,0.5l-0.7,2.2l-5.3-0.6L235.2,30.5z"/>
	<path d="M244.8,20.2l4.6-0.3l3,2.8l-2.1,4.6l-3.1,0.5l2.7,3.3l-2,1.6l-2.7-3.4l-0.6,2.7h-2.2L244.8,20.2z M248.8,25.5l0.9-1.9
		l-1.6-1.4l-1.7,0.1l-0.7,3.7L248.8,25.5z"/>
	<path d="M261.1,22.4l-2.6,0.1l0.4-2.2l7.8-0.3l-0.4,2.2l-2.9,0.1l-2,10.2l-2.2,0.1L261.1,22.4z"/>
	<path d="M267.4,20.4l2.3-0.1l-0.9,5.7l2.9-0.5l1.2-5.6h2.2l-2.7,12.5h-2.2l1-4.6l-2.9,0.5l-0.6,3.8l-2.3,0.1L267.4,20.4z"/>
	<path d="M273.6,30.5L273.6,30.5c0.7-3.3,1.4-6.4,2.3-9.6l0.1-0.3l6.1-0.8L282,22l-4.2,0.6l-0.8,3.3l4-0.1l-0.4,2.2l-4.1,0.1
		l-0.5,1.9l0.1,0.1l4.1,0.5l-0.7,2.2l-5.3-0.6L273.6,30.5z"/>
	<path d="M288.9,19.9h2.2l-2.3,9.9l4.1-0.9l0.1,2.1l-7,1.6L288.9,19.9z"/>
	<path d="M298.7,20.3l3.8-0.5l-0.5,12.4l-2.3,0.4l0.2-3.4h-2.6l-1.4,3.4l-2.2-0.5L298.7,20.3z M299.9,27l0.2-4.6l-1.9,4.6H299.9z"/>
	<path d="M303,31.1l6.7-8.8l-4.1-0.1l0.5-2.2l6.1,0.1l0.6,1.4l-6.5,8.7l4.3-0.2l-0.4,2.2l-6.5,0.3L303,31.1z"/>
	<path d="M314.4,32.2c0.4-1.5,0.7-2.9,1-4.4c-0.1-0.1-0.1-0.1-0.1-0.2c-0.1-0.2-0.1-0.4-0.2-0.7c-0.1-0.6-0.3-1.4-0.5-2.2
		c-0.3-1.7-0.8-3.4-0.9-3.6v-0.4l2.2-0.8l1.2,5l3.5-5.1l1.9,0.9l-3.4,4.8c-0.3,0.5-0.6,0.8-0.8,1.1c-0.2,0.3-0.4,0.6-0.7,1.1
		c0,0,0,0.1-0.1,0.1c0,0.1-0.1,0.3-0.1,0.5c-0.1,0.4-0.2,1-0.3,1.5c-0.3,1.1-0.5,2.3-0.6,2.4l-0.1,0.4l-2.2-0.1L314.4,32.2z"/>
	<path d="M328.9,22.1l-0.5-0.1l0.6-2.1l5,0.3l1.8,4.9l-4,6.9l-5.2,0.7L328.9,22.1z M330.6,30l2.7-4.7l-1.1-3.1l-1.1-0.1l-1.8,8
		L330.6,30z"/>
	<path d="M335.9,28.9l3.1-8.6l5.4-0.3l0.1,0.3c0,0.2,0.2,1.7,0.3,3.2c0.1,0.7,0.1,1.4,0.1,1.9c0.1,0.3,0.1,0.6,0.1,0.8
		c0,0.1,0,0.2,0,0.2c-0.1,0.1-0.6,1.6-1.2,2.8c-0.6,1.4-1.2,2.8-1.3,3.1l-0.2,0.3l-4.9,0.1L335.9,28.9z M340.7,30.3
		c0.2-0.4,0.6-1.2,0.9-2c0.3-0.5,0.4-1,0.6-1.3c0.1-0.2,0.2-0.4,0.2-0.5c0-0.1,0-0.1,0.1-0.2c-0.1,0-0.1-0.1-0.1-0.1
		c-0.1-0.1-0.1-0.3-0.1-0.5c0.1-0.4,0-0.9-0.1-1.5c-0.1-0.8-0.1-1.6-0.1-2.1l-1.8,0.2l-2.2,6.2l0.6,1.8H340.7z"/>
	<path d="M346.9,21.4l5.9-1.6l0.9,2.7l-2.2,0.9l-0.4-1l-2.4,0.6l-1.6,6.6l2.3,0.4l0.9-2l-1.9,0.1l0.3-2.1l5-0.4l-3,6.9l-6.2-1
		L346.9,21.4z"/>
</g>
</svg>
