<?xml version="1.0" encoding="utf-8"?>
<!-- Generator: Adobe Illustrator 26.1.0, SVG Export Plug-In . SVG Version: 6.00 Build 0)  -->
<svg version="1.1" id="Layer_1" xmlns="http://www.w3.org/2000/svg" xmlns:xlink="http://www.w3.org/1999/xlink" x="0px" y="0px"
	 viewBox="0 0 372 36.9" style="enable-background:new 0 0 372 36.9;" xml:space="preserve">
<rect width="372" height="36.9" fill="white"/>
<g>
	<path d="M11.4,5.5L8.4,5.6l0.2,10.7l-1.6,0.1L6.9,5.7L4.3,5.8L4.2,4.3L11.3,4L11.4,5.5z"/>
	<path d="M19.2,4v12.3h-1.6v-4.9L14,12l0.2,3.9L12.6,16L12.2,4.4l1.6-0.1l0.3,6.1l3.6-0.6V4H19.2z"/>
	<path d="M25.8,14.8l-0.2,1.6l-5-0.5l-0.8-1.3l0.1-4.4l0.2-5.5l5.4-0.8l0.3,1.5L21.6,6l-0.1,4.1l4.1-0.1l0.1,1.6l-4.2,0.1l-0.1,2.5
		l0.2,0.3L25.8,14.8z"/>
	<path d="M39.7,15.5l-1.2,0.9l-0.9-1.3l-1.8,1.3l-4-2.6l0.2-7.4l3.9-2.5l3.4,3.1l-0.5,7.2L39.7,15.5z M36.6,13.8l-2-2.8l1.3-0.9
		l1.4,2l0.3-4.5l-2-1.8l-2.2,1.5L33.3,13l2.4,1.6L36.6,13.8z"/>
	<path d="M47.3,3.9L47.7,14l-1.9,2.4h-3.1l-2.3-1.8V4H42v9.8l1.3,1H45l1.1-1.3l-0.3-9.6L47.3,3.9z"/>
	<path d="M49.3,3.9h1.6l-0.1,12.5h-1.6L49.3,3.9z"/>
	<path d="M59.1,13.2l-1.3,2.8l-3.5,0.4l-2.2-2.9V6.6l4-2.9l2.2,2.7l-1.2,1l-1.2-1.6l-2.2,1.6V13l1.4,1.8l1.7-0.2l0.9-2L59.1,13.2z"
		/>
	<path d="M62.1,12.2l4.5,3.2l-0.9,1.3l-4.3-3v2.8h-1.6L59.8,3.9h1.6l0.1,6.5L65.7,4l1.3,0.8L62.1,12.2z"/>
	<path d="M80.6,11.6l-0.8,2.6l-0.8,2.3L74.8,16v0.4l-1.6,0.1L72.9,4.6L78.6,4l1.1,6.1L77.3,11L80.6,11.6z M74.6,10.3L78,9.1
		l-0.6-3.4L74.4,6L74.6,10.3z M78.6,12.8l-4-0.8l0.1,2.4l3.3,0.4l0.4-1.1L78.6,12.8z"/>
	<path d="M84.4,11.7l3.7,3.6L87,16.5l-4-3.9l0.1,3.4h-1.6L81.4,4.2L85.6,4L89,6.7l-1.1,4.3L84.4,11.7z M86.6,9.7l0.6-2.4l-2.2-1.7
		l-2.1,0.1l0.1,4.7L86.6,9.7z"/>
	<path d="M97.6,10.2l-1.4,6.1l-4.5,0.1l-1.9-3.4L91,4.3L95.8,4L97.6,10.2z M96,10.3l-1.3-4.7l-2.3,0.2l-1,6.8l1.2,2.1h2.4L96,10.3z"
		/>
	<path d="M105.9,3.9l1.5,0.1l-0.7,11.9l-2.2,0.6L102.9,9l-1.7,7.3L99.2,16L98.4,4.1L99.9,4l0.6,8.6l1.6-7.2h1.5l1.8,7.5L105.9,3.9z"
		/>
	<path d="M115.8,4.2l-0.6,11.9l-1.5,0.3l-3.6-7.9l0.6,7.7l-1.5,0.1l-1-12.2l1.5-0.4l4.1,9l0.4-8.7L115.8,4.2z"/>
	<path d="M128.2,11.5l-4.7,0.2l0.3,4.7l-1.6,0.1l-0.5-11.4L128,4l0.3,1.6l-5,0.9l0.2,3.8l4.6-0.2L128.2,11.5z"/>
	<path d="M136.7,10.2l-1.4,6.1l-4.5,0.1l-1.9-3.4l1.2-8.6L135,4L136.7,10.2z M135.1,10.3l-1.3-4.7l-2.3,0.2l-1,6.8l1.2,2.1h2.4
		L135.1,10.3z"/>
	<path d="M145.2,4.6l-2.9,6l2.6,5.1l-1.4,0.7l-2.1-4.1l-2,4.1l-1.4-0.7l2.5-5.2l-2.9-5.9l1.4-0.7l2.4,4.8l2.4-4.9L145.2,4.6z"/>
	<path d="M158.8,5.5l-1.3,0.2l-0.1,7.7l-2.4,3.2l-3.9-1.9l0.2-3.6l1.6,0.1l-0.2,2.6l1.9,0.9l1.3-1.7l0.1-6.9l-2.6,0.4L153,4.9
		l5.5-0.9L158.8,5.5z"/>
	<path d="M166.5,3.9l0.4,10.1l-1.9,2.4h-3.1l-2.3-1.8V4h1.6v9.8l1.3,1h1.7l1.1-1.3l-0.3-9.6L166.5,3.9z"/>
	<path d="M176.1,3.9l1.2,12.3l-1.6,0.2L174.9,7l-1.7,7.4h-1.5l-2-7.2l-0.3,9.2l-1.6-0.1l0.3-11.8l2.2-0.5l2,7.1l1.7-7.2H176.1z"/>
	<path d="M183.9,12.7l-3.9-0.7l0.1,4.4l-1.6,0.1l-0.2-11.6l4.8-0.8l2.8,3.1L183.9,12.7z M182.9,11l1.2-3.5l-1.6-1.8L180,6.2l0.1,4.2
		L182.9,11z"/>
	<path d="M192.9,10.3l0.6,4.2l-4.3,1.9l-2.3-2.9l1.2-0.9l1.6,2l2.1-0.9l-0.3-2.1l-4.7-1.3l-0.1-4l4.8-2.4l1.9,3.7L192,8.3L190.8,6
		l-2.5,1.2l0.1,1.9L192.9,10.3z"/>
	<path d="M207.3,10.2l-1.4,6.1l-4.5,0.1l-1.9-3.4l1.2-8.6l4.8-0.3L207.3,10.2z M205.7,10.3l-1.3-4.7L202,5.8l-1,6.8l1.2,2.1h2.4
		L205.7,10.3z"/>
	<path d="M214.3,3.9l1.5,0.4l-3.1,12.2l-1.5,0.1l-3.4-12.2l1.5-0.4l2.6,9.3L214.3,3.9z"/>
	<path d="M222.4,14.8l-0.2,1.6l-5-0.5l-0.8-1.3l0.1-4.4l0.2-5.5l5.4-0.8l0.3,1.5L218.2,6l-0.1,4.1l4.1-0.1l0.1,1.6l-4.2,0.1
		l-0.1,2.5l0.2,0.3L222.4,14.8z"/>
	<path d="M226.2,11.7l3.7,3.6l-1.1,1.1l-4-3.9l0.1,3.4h-1.6l-0.2-11.7l4.2-0.3l3.4,2.7l-1.1,4.3L226.2,11.7z M228.4,9.7l0.6-2.4
		l-2.2-1.7l-2.1,0.1l0.1,4.7L228.4,9.7z"/>
	<path d="M243.9,5.5L241,5.6l0.2,10.7l-1.6,0.1l-0.2-10.6l-2.6,0.1l-0.1-1.6l7.1-0.3L243.9,5.5z"/>
	<path d="M251.7,4v12.3h-1.6v-4.9l-3.6,0.6l0.2,3.9l-1.6,0.1l-0.5-11.6l1.6-0.1l0.3,6.1l3.6-0.6V4H251.7z"/>
	<path d="M258.4,14.8l-0.2,1.6l-5-0.5l-0.8-1.3l0.1-4.4l0.2-5.5l5.4-0.8l0.3,1.5L254.2,6l-0.1,4.1l4.1-0.1l0.1,1.6l-4.2,0.1
		l-0.1,2.5l0.2,0.3L258.4,14.8z"/>
	<path d="M270.3,13.5l0.4,1.5l-6.1,1.4l0.2-12.5h1.6l-0.2,10.5L270.3,13.5z"/>
	<path d="M276.9,12.9h-3.3l-0.7,3.5l-1.6-0.3l2.4-11.7l3.2-0.4l2.1,12.2l-1.6,0.3L276.9,12.9z M276.7,11.3l-1-5.7l-0.6,0.1l-1.1,5.6
		H276.7z"/>
	<path d="M286.6,14.5l0.1,1.6l-6.1,0.3l-0.7-1.1l5.1-9.6l-4.4-0.1V3.9l5.7,0.1l0.7,1.1l-5,9.6L286.6,14.5z"/>
	<path d="M295.7,4.6l-3.3,7.1l-0.1,4.8l-1.6-0.1l0.1-4.7l-3.2-7.2l1.4-0.6l2.5,5.7l2.6-5.7L295.7,4.6z"/>
	<path d="M309.3,9.1l-2.4,6.8l-4.6,0.6l0.1-10.9l-0.4-0.1l0.1-1.6l4.6,0.3L309.3,9.1z M307.6,9.2l-2-3.5l-1.8-0.1l-0.1,9.1l1.9-0.3
		L307.6,9.2z"/>
	<path d="M317.9,10.2l-1.4,6.1l-4.5,0.1l-1.9-3.4l1.2-8.6l4.8-0.3L317.9,10.2z M316.3,10.3L315,5.6l-2.3,0.2l-1,6.8l1.2,2.1h2.4
		L316.3,10.3z"/>
	<path d="M326,10l-1.4,6.4l-5.9-0.9l0.2-10l5.2-1.4l1.1,2.2l-1.4,0.7l-0.6-1l-2.8,0.8l-0.2,7.5l3.2,0.5l0.6-2.9l-2.4,0.2l-0.1-1.6
		L326,10z"/>
	<path d="M11.4,21.5l-2.9,0.1l0.2,10.7l-1.6,0.1L6.9,21.7l-2.6,0.1l-0.1-1.6l7.1-0.3L11.4,21.5z"/>
	<path d="M19.2,20v12.3h-1.6v-4.9L14,28l0.2,3.9L12.6,32l-0.5-11.6l1.6-0.1l0.3,6.1l3.6-0.6V20H19.2z"/>
	<path d="M25.8,30.8l-0.2,1.6l-5-0.5l-0.8-1.3l0.1-4.4l0.2-5.5l5.4-0.8l0.3,1.5L21.6,22l-0.1,4.1l4.1-0.1l0.1,1.6l-4.2,0.1l-0.1,2.5
		l0.2,0.3L25.8,30.8z"/>
	<path d="M39.7,31.5l-1.2,0.9l-0.9-1.3l-1.8,1.3l-4-2.6l0.2-7.4l3.9-2.5l3.4,3.1l-0.5,7.2L39.7,31.5z M36.6,29.8l-2-2.8l1.3-0.9
		l1.4,2l0.3-4.5l-2-1.8l-2.2,1.5L33.3,29l2.4,1.6L36.6,29.8z"/>
	<path d="M47.4,19.9L47.8,30l-1.9,2.4h-3.1l-2.3-1.8V20h1.6v9.8l1.3,1h1.7l1.1-1.3l-0.3-9.6L47.4,19.9z"/>
	<path d="M52.1,21.7L51.9,31h2.3l-0.1,1.6l-5.6-0.1V31h1.8l0.1-9.1l-1.8,0.2l-0.2-1.6l5.5-0.6l0.2,1.6L52.1,21.7z"/>
	<path d="M62,29.2l-1.3,2.8l-3.5,0.4l-2.2-2.9v-6.9l4-2.9l2.2,2.7l-1.2,1l-1.2-1.6l-2.2,1.6V29l1.4,1.8l1.7-0.2l0.9-2L62,29.2z"/>
	<path d="M65.1,28.2l4.5,3.2l-0.9,1.3l-4.3-3v2.8h-1.6l-0.1-12.5h1.6l0.1,6.5l4.2-6.4l1.3,0.8L65.1,28.2z"/>
	<path d="M83.6,27.6l-0.8,2.6l-0.8,2.3L77.8,32v0.4l-1.6,0.1l-0.3-11.8l5.7-0.6l1.1,6.1L80.3,27L83.6,27.6z M77.6,26.3l3.4-1.2
		l-0.6-3.4L77.4,22L77.6,26.3z M81.6,28.8l-4-0.8l0.1,2.4l3.3,0.4l0.4-1.1L81.6,28.8z"/>
	<path d="M87.4,27.7l3.7,3.6L90,32.5l-4-3.9l0.1,3.4h-1.6l-0.2-11.7l4.2-0.3l3.4,2.7l-1.1,4.3L87.4,27.7z M89.6,25.7l0.6-2.4
		l-2.2-1.7l-2.1,0.1l0.1,4.7L89.6,25.7z"/>
	<path d="M100.6,26.2l-1.4,6.1l-4.5,0.1l-1.9-3.4l1.2-8.6l4.8-0.3L100.6,26.2z M99,26.3l-1.3-4.7l-2.3,0.2l-1,6.8l1.2,2.1h2.4
		L99,26.3z"/>
	<path d="M108.9,19.9l1.5,0.1l-0.7,11.9l-2.2,0.6l-1.7-7.4l-1.7,7.3l-2.1-0.4l-0.8-11.9l1.6-0.1l0.6,8.6l1.6-7.2h1.5l1.8,7.5
		L108.9,19.9z"/>
	<path d="M118.8,20.2l-0.6,11.9l-1.5,0.3l-3.6-7.9l0.6,7.7l-1.5,0.1l-1-12.2l1.5-0.4l4.1,9l0.4-8.7L118.8,20.2z"/>
	<path d="M131.2,27.5l-4.7,0.2l0.3,4.7l-1.6,0.1l-0.5-11.4L131,20l0.3,1.6l-5,0.9l0.2,3.8l4.6-0.2L131.2,27.5z"/>
	<path d="M139.7,26.2l-1.4,6.1l-4.5,0.1l-1.9-3.4l1.2-8.6L138,20L139.7,26.2z M138.1,26.3l-1.3-4.7l-2.3,0.2l-1,6.8l1.2,2.1h2.4
		L138.1,26.3z"/>
	<path d="M148.2,20.6l-2.9,6l2.6,5.1l-1.4,0.7l-2.1-4.1l-2,4.1l-1.4-0.7l2.5-5.2l-2.9-5.9l1.4-0.7l2.4,4.8l2.4-4.9L148.2,20.6z"/>
	<path d="M161.8,21.5l-1.3,0.2l-0.1,7.7l-2.4,3.2l-3.9-1.9l0.2-3.6l1.6,0.1l-0.2,2.6l1.9,0.9l1.3-1.7l0.1-6.9l-2.6,0.4l-0.3-1.5
		l5.5-0.9L161.8,21.5z"/>
	<path d="M169.5,19.9l0.4,10.1l-1.9,2.4h-3.1l-2.3-1.8V20h1.6v9.8l1.3,1h1.7l1.1-1.3l-0.3-9.6L169.5,19.9z"/>
	<path d="M179.1,19.9l1.2,12.3l-1.6,0.2l-0.9-9.3l-1.7,7.4h-1.5l-2-7.2l-0.3,9.2l-1.6-0.1l0.3-11.8l2.2-0.5l2,7.1l1.7-7.2H179.1z"/>
	<path d="M187,28.7l-3.9-0.7l0.1,4.4l-1.6,0.1l-0.2-11.6l4.8-0.8l2.8,3.1L187,28.7z M186,27l1.2-3.5l-1.6-1.8l-2.6,0.5l0.1,4.2
		L186,27z"/>
	<path d="M196,26.3l0.6,4.2l-4.3,1.9l-2.3-2.9l1.2-0.9l1.6,2l2.1-0.9l-0.3-2.1l-4.7-1.3l-0.1-4l4.8-2.4l1.9,3.7l-1.3,0.7l-1.2-2.3
		l-2.5,1.2l0.1,1.9L196,26.3z"/>
	<path d="M210.4,26.2l-1.4,6.1l-4.5,0.1l-1.9-3.4l1.2-8.6l4.8-0.3L210.4,26.2z M208.8,26.3l-1.3-4.7l-2.3,0.2l-1,6.8l1.2,2.1h2.4
		L208.8,26.3z"/>
	<path d="M217.4,19.9l1.5,0.4l-3.1,12.2l-1.5,0.1L211,20.3l1.5-0.4l2.6,9.3L217.4,19.9z"/>
	<path d="M225.6,30.8l-0.2,1.6l-5-0.5l-0.8-1.3l0.1-4.4l0.2-5.5l5.4-0.8l0.3,1.5l-4.1,0.6l-0.1,4.1l4.1-0.1l0.1,1.6l-4.2,0.1
		l-0.1,2.5l0.2,0.3L225.6,30.8z"/>
	<path d="M229.4,27.7l3.7,3.6l-1.1,1.1l-4-3.9l0.1,3.4h-1.6l-0.2-11.7l4.2-0.3l3.4,2.7l-1.1,4.3L229.4,27.7z M231.6,25.7l0.6-2.4
		l-2.2-1.7l-2.1,0.1l0.1,4.7L231.6,25.7z"/>
	<path d="M247.1,21.5l-2.9,0.1l0.2,10.7l-1.6,0.1l-0.2-10.6l-2.6,0.1l-0.1-1.6L247,20L247.1,21.5z"/>
	<path d="M254.9,20v12.3h-1.6v-4.9l-3.6,0.6l0.2,3.9l-1.6,0.1l-0.5-11.6l1.6-0.1l0.3,6.1l3.6-0.6V20H254.9z"/>
	<path d="M261.5,30.8l-0.2,1.6l-5-0.5l-0.8-1.3l0.1-4.4l0.2-5.5l5.4-0.8l0.3,1.5l-4.1,0.6l-0.1,4.1l4.1-0.1l0.1,1.6l-4.2,0.1
		l-0.1,2.5l0.2,0.3L261.5,30.8z"/>
	<path d="M273.4,29.5l0.4,1.5l-6.1,1.4l0.2-12.5h1.6l-0.2,10.5L273.4,29.5z"/>
	<path d="M280.1,28.9h-3.3l-0.7,3.5l-1.6-0.3l2.4-11.7l3.2-0.4l2.1,12.2l-1.6,0.3L280.1,28.9z M279.8,27.3l-1-5.7l-0.6,0.1l-1.1,5.6
		H279.8z"/>
	<path d="M289.7,30.5l0.1,1.6l-6.1,0.3l-0.7-1.1l5.1-9.6l-4.4-0.1v-1.6l5.7,0.1l0.7,1.1l-5,9.6L289.7,30.5z"/>
	<path d="M298.8,20.6l-3.3,7.1l-0.1,4.8l-1.6-0.1l0.1-4.7l-3.2-7.2l1.4-0.6l2.5,5.7l2.6-5.7L298.8,20.6z"/>
	<path d="M312.4,25.1l-2.4,6.8l-4.6,0.6l0.1-10.9l-0.4-0.1l0.1-1.6l4.6,0.3L312.4,25.1z M310.7,25.2l-2-3.5l-1.8-0.1l-0.1,9.1
		l1.9-0.3L310.7,25.2z"/>
	<path d="M321,26.2l-1.4,6.1l-4.5,0.1l-1.9-3.4l1.2-8.6l4.8-0.3L321,26.2z M319.4,26.3l-1.3-4.7l-2.3,0.2l-1,6.8l1.2,2.1h2.4
		L319.4,26.3z"/>
	<path d="M329.1,26l-1.4,6.4l-5.9-0.9l0.2-10l5.2-1.4l1.1,2.2l-1.4,0.7l-0.6-1l-2.8,0.8l-0.2,7.5l3.2,0.5l0.6-2.9l-2.4,0.2l-0.1-1.6
		L329.1,26z"/>
</g>
</svg>
