<?xml version="1.0" encoding="utf-8"?>
<!-- Generator: Adobe Illustrator 26.1.0, SVG Export Plug-In . SVG Version: 6.00 Build 0)  -->
<svg version="1.1" id="Layer_1" xmlns="http://www.w3.org/2000/svg" xmlns:xlink="http://www.w3.org/1999/xlink" x="0px" y="0px"
	 viewBox="0 0 372 36.9" style="enable-background:new 0 0 372 36.9;" xml:space="preserve">
<rect width="372" height="36.9" fill="white"/>
<g>
	<path d="M11.4,5.1L8.2,5.2l0.2,11.5l-1,0.1L7.2,5.3L4.3,5.4V4.3L11.3,4L11.4,5.1z"/>
	<path d="M19.2,4v12.7h-1.1v-5.3l-4.5,0.7l0.2,4.2l-1,0.1L12.2,4.5l1-0.1l0.3,6.7l4.5-0.8V4H19.2z"/>
	<path d="M25.7,15.7l-0.1,1l-4.9-0.5l-0.7-1.2l0.1-4.7l0.2-5.7l5.2-0.7l0.2,1l-4.4,0.7l-0.1,5l4.5-0.1l0.1,1l-4.6,0.2L21,14.7
		l0.3,0.5L25.7,15.7z"/>
	<path d="M38.6,14.7l1,1.3l-0.8,0.6l-1-1.4l-2,1.6l-4.1-2.6l0.2-7.7l3.8-2.5L39.1,7L38.6,14.7z M37.1,14.4l-2.1-3l0.9-0.6l1.8,2.6
		L38,7.5l-2.4-2.2l-2.7,1.9l-0.2,6.5l2.9,1.9L37.1,14.4z"/>
	<path d="M47.1,3.9l0.4,10.6l-1.9,2.4h-3.1L40.3,15V4h1.1v10.4l1.6,1.3h2.1l1.3-1.7L46.1,3.9L47.1,3.9z"/>
	<path d="M49.2,3.9h1l-0.1,12.9h-1L49.2,3.9z"/>
	<path d="M58.5,13.9l-1.2,2.6l-3.4,0.4l-2.3-3V6.7l4-2.8l2,2.5L56.8,7l-1.3-1.7l-2.8,1.9v6.4l1.7,2.2l2.2-0.3l0.9-2.1L58.5,13.9z"/>
	<path d="M60.9,12.6l4.9,3.4l-0.6,0.9l-4.9-3.4v3.3h-1L59.1,3.9h1.1l0.1,7.8l5-7.6l0.9,0.6L60.9,12.6z"/>
	<path d="M79.8,12.2l-0.7,2.5l-0.8,2.3l-4.8-0.6v0.4l-1,0.1L72.2,4.7l5.6-0.6l1.1,6l-3.5,1.2L79.8,12.2z M73.4,11l4.3-1.6L77,5.2
		l-3.8,0.4L73.4,11z M78.4,13l-5-1l0.1,3.2l4,0.5l0.6-1.4L78.4,13z"/>
	<path d="M82.9,11.8l4.2,4.1l-0.8,0.8l-4.6-4.6l0.1,4.1h-1L80.6,4.2L84.7,4l3.5,2.8l-1.1,4.3L82.9,11.8z M86.2,10.2L87,7.1l-2.6-2
		l-2.7,0.1l0.1,5.7L86.2,10.2z"/>
	<path d="M96.8,10.5l-1.4,6.3l-4.4,0.1L89,13.3l1.3-9L95,4L96.8,10.5z M95.8,10.5l-1.5-5.4l-3.1,0.3l-1.1,7.8l1.4,2.5h3L95.8,10.5z"
		/>
	<path d="M105.6,4.3l1,0.1l-0.7,11.9l-1.8,0.5l-2.1-8.2l-2,8.1l-1.6-0.3L97.7,4.5l1-0.1l0.7,10.3l2.1-8.9h1.1l2.2,8.9L105.6,4.3z"/>
	<path d="M114.6,4.7l-0.6,12l-1.1,0.2l-4.3-9.3l0.7,9.2l-0.9,0.1l-1-12.2l1-0.3l4.8,10.3l0.4-10L114.6,4.7z"/>
	<path d="M127,11.5l-5,0.3l0.3,5.1l-1,0.1l-0.5-11.7l6.2-1.2l0.2,1.1l-5.3,0.9l0.2,4.7l5-0.2L127,11.5z"/>
	<path d="M135.6,10.5l-1.4,6.3l-4.4,0.1l-1.9-3.5l1.3-9l4.7-0.3L135.6,10.5z M134.5,10.5L133,5.1l-3.1,0.3l-1.1,7.8l1.4,2.5h3
		L134.5,10.5z"/>
	<path d="M143.9,4.5l-3.1,6.4l2.7,5.4l-1,0.5l-2.4-4.7l-2.3,4.8l-1-0.5l2.7-5.5l-3.2-6.3l1-0.5l2.8,5.5l2.7-5.6L143.9,4.5z"/>
	<path d="M157.5,5.1l-1.4,0.2l-0.1,8.4l-2.3,3.2l-3.8-1.9l0.2-3.4l1.1,0.1l-0.2,2.7l2.4,1.2l1.6-2.2l0.1-8l-2.9,0.5l-0.2-1l5.4-0.8
		L157.5,5.1z"/>
	<path d="M165.2,3.9l0.4,10.6l-1.9,2.4h-3.1l-2.3-1.8V4h1.1v10.4l1.6,1.3h2.1l1.3-1.7l-0.4-10.1L165.2,3.9z"/>
	<path d="M174.7,4.3l1.2,12.3l-1,0.1l-1.1-10.4l-2.1,8.5h-1.1l-2.5-8.3l-0.5,10.3l-1-0.1l0.3-11.9l1.8-0.4l2.4,8.4l1.9-8.6H174.7z"
		/>
	<path d="M182.5,12.8l-4.3-0.7l0.1,4.8l-1,0.1l-0.2-12l4.8-0.8l2.8,3.1L182.5,12.8z M181.8,11.6l1.5-4.2l-2-2.2l-3.2,0.6l0.1,5.1
		L181.8,11.6z"/>
	<path d="M191.4,10.8l0.6,4.1l-4.2,1.9l-2.1-2.8l0.9-0.6l1.6,2.1l2.7-1.2l-0.4-2.7l-5.1-1.3l-0.1-3.9L190,4l1.8,3.4l-0.9,0.5
		l-1.2-2.5L186.4,7l0.1,2.4L191.4,10.8z"/>
	<path d="M205.9,10.5l-1.4,6.3l-4.4,0.1l-1.9-3.5l1.3-9l4.7-0.3L205.9,10.5z M204.8,10.5l-1.5-5.4l-3.1,0.3l-1.1,7.8l1.4,2.5h3
		L204.8,10.5z"/>
	<path d="M213.1,4.3l1,0.3L211,16.8l-1.1,0.1l-3.4-12.2l1-0.3l2.9,10.5L213.1,4.3z"/>
	<path d="M220.6,15.7l-0.1,1l-4.9-0.5l-0.7-1.2l0.1-4.7l0.2-5.7l5.2-0.7l0.2,1l-4.4,0.7l-0.1,5l4.5-0.1l0.1,1l-4.6,0.2l-0.1,3.1
		l0.3,0.5L220.6,15.7z"/>
	<path d="M223.7,11.8l4.2,4.1l-0.8,0.8l-4.6-4.6l0.1,4.1h-1l-0.2-12.1l4.1-0.3l3.5,2.8l-1.1,4.3L223.7,11.8z M227,10.2l0.8-3.1
		l-2.6-2l-2.7,0.1l0.1,5.7L227,10.2z"/>
	<path d="M242.1,5.1l-3.2,0.1l0.2,11.5l-1,0.1l-0.2-11.5L235,5.4V4.3l7.1-0.3L242.1,5.1z"/>
	<path d="M249.9,4v12.7h-1.1v-5.3l-4.5,0.7l0.2,4.2l-1,0.1L243,4.5l1-0.1l0.3,6.7l4.5-0.8V4H249.9z"/>
	<path d="M256.4,15.7l-0.1,1l-4.9-0.5l-0.7-1.2l0.1-4.7l0.2-5.7l5.2-0.7l0.2,1l-4.4,0.7l-0.1,5l4.5-0.1l0.1,1l-4.6,0.2l-0.1,3.1
		l0.3,0.5L256.4,15.7z"/>
	<path d="M268.4,14.3l0.2,1l-5.8,1.4l0.2-12.8h1.1l-0.2,11.4L268.4,14.3z"/>
	<path d="M275.3,13h-4.1l-0.7,3.7l-1.1-0.2l2.5-12.2l2.9-0.3l2.2,12.6l-1.1,0.2L275.3,13z M275.1,12l-1.2-6.8l-1.1,0.1l-1.3,6.7
		H275.1z"/>
	<path d="M284.4,15.4l0.1,1.1l-6.1,0.3l-0.6-0.9l5.6-10.7l-5-0.1V3.9l5.7,0.1l0.6,0.9l-5.6,10.7L284.4,15.4z"/>
	<path d="M293.3,4.5l-3.5,7.4l-0.1,5l-1.1-0.1l0.1-4.8l-3.4-7.6l1-0.4l2.8,6.5l3-6.6L293.3,4.5z"/>
	<path d="M306.9,9.2l-2.5,7.1l-4.4,0.5L300,5.1L299.6,5l0.1-1.1l4.4,0.3L306.9,9.2z M305.8,9.3l-2.3-4.1l-2.4-0.2L301,15.6l2.6-0.4
		L305.8,9.3z"/>
	<path d="M315.6,10.5l-1.4,6.3l-4.4,0.1l-1.9-3.5l1.3-9l4.7-0.3L315.6,10.5z M314.5,10.5L313,5.1L310,5.3l-1.1,7.8l1.4,2.5h3
		L314.5,10.5z"/>
	<path d="M323.7,10.5l-1.3,6.2l-5.8-0.9l0.2-10.3l5.2-1.4l1,1.9l-1,0.5l-0.6-1.1l-3.6,1l-0.2,8.6l4,0.7l0.8-3.8l-2.6,0.2l-0.1-1
		L323.7,10.5z"/>
	<path d="M11.1,21.4L8,21.5l0.2,11.2l-1,0.1L7.1,21.6l-2.8,0.1l-0.1-1l6.9-0.3L11.1,21.4z"/>
	<path d="M18.6,20.4v12.3h-1v-5.2l-4.4,0.7l0.2,4.1h-1L12,20.8h1l0.3,6.4l4.4-0.7v-6.1H18.6z"/>
	<path d="M24.9,31.8l-0.1,1l-4.7-0.5l-0.7-1.1l0.1-4.6l0.2-5.5l5.1-0.7l0.2,0.9L20.6,22l-0.1,4.9l4.3-0.1l0.1,1l-4.4,0.2l-0.1,2.9
		l0.3,0.6L24.9,31.8z"/>
	<path d="M37.7,30.8l0.9,1.3l-0.8,0.6l-1-1.4l-1.9,1.5l-3.9-2.6l0.2-7.4l3.8-2.5l3.3,2.9L37.7,30.8z M36.2,30.5l-2.1-2.9L35,27
		l1.8,2.5l0.3-5.7l-2.3-2.2l-2.6,1.8L32,29.7l2.9,1.9L36.2,30.5z"/>
	<path d="M46,20.3l0.4,10.2l-1.8,2.3h-2.9l-2.2-1.8V20.5h1v10.1l1.6,1.2H44l1.3-1.6L45,20.3L46,20.3z"/>
	<path d="M50.3,21.6L50.1,32h2.4l-0.1,1l-5.3-0.1v-1h1.9l0.1-10.2L47.3,22l-0.1-1l5.2-0.6l0.2,1L50.3,21.6z"/>
	<path d="M60,30l-1.1,2.5l-3.3,0.4L53.4,30v-7l3.9-2.8l2,2.4l-0.8,0.6l-1.3-1.7l-2.7,1.9v6.2l1.6,2.1l2.2-0.3l0.9-2L60,30z"/>
	<path d="M62.6,28.7l4.8,3.3l-0.6,0.9L62,29.6v3.2h-1l-0.1-12.5h1l0.1,7.6l4.9-7.3l0.8,0.6L62.6,28.7z"/>
	<path d="M81,28.3l-0.7,2.4l-0.7,2.2l-4.6-0.6v0.4l-1,0.1L73.6,21l5.5-0.5l1,5.8l-3.4,1.2L81,28.3z M74.8,27.2l4.2-1.6l-0.7-4.1
		L74.6,22L74.8,27.2z M79.7,29.1l-4.9-1l0.1,3.2l3.9,0.5l0.5-1.4L79.7,29.1z"/>
	<path d="M84,28l4.1,4l-0.7,0.7l-4.5-4.3l0.1,4h-1l-0.2-11.7l4-0.3l3.4,2.7l-1,4.2L84,28z M87.2,26.4l0.8-2.9l-2.5-2l-2.6,0.2
		l0.1,5.5L87.2,26.4z"/>
	<path d="M97.5,26.7l-1.4,6.1l-4.3,0.1l-1.9-3.4l1.3-8.7l4.6-0.3L97.5,26.7z M96.4,26.7L95,21.4l-2.9,0.3L91,29.2l1.3,2.4h2.9
		L96.4,26.7z"/>
	<path d="M106.3,20.3l1,0.1l-0.7,11.9l-1.8,0.5l-2.1-8.2l-2,8.1l-1.6-0.3l-0.8-11.9l1-0.1l0.7,10.3l2.1-8.9h1.1l2.2,8.9L106.3,20.3z
		"/>
	<path d="M115.3,20.7l-0.6,12l-1.1,0.2l-4.3-9.3l0.7,9.2l-0.9,0.1l-1-12.2l1-0.3l4.8,10.3l0.4-10L115.3,20.7z"/>
	<path d="M127.5,27.7l-4.9,0.2l0.3,4.9l-1,0.1l-0.5-11.4l6-1.1l0.2,1l-5.2,0.9l0.2,4.6l4.9-0.2L127.5,27.7z"/>
	<path d="M135.8,26.7l-1.4,6.1l-4.3,0.1l-1.9-3.4l1.3-8.7l4.6-0.3L135.8,26.7z M134.7,26.7l-1.4-5.3l-2.9,0.3l-1.1,7.6l1.3,2.4h2.9
		L134.7,26.7z"/>
	<path d="M143.8,20.8l-3,6.2l2.6,5.3l-0.9,0.5l-2.3-4.6l-2.3,4.6l-0.9-0.4l2.6-5.4l-3.1-6.1l0.9-0.4l2.7,5.3l2.6-5.4L143.8,20.8z"/>
	<path d="M157.2,21.5l-1.4,0.2l-0.1,8.2l-2.3,3.1l-3.7-1.8l0.2-3.3l1,0.1l-0.2,2.6l2.3,1.1l1.6-2.1l0.1-7.8l-2.8,0.4l-0.2-0.9
		l5.2-0.8L157.2,21.5z"/>
	<path d="M164.6,20.3l0.4,10.2l-1.8,2.3h-2.9l-2.2-1.8V20.5h1v10.1l1.6,1.2h2.1l1.3-1.6l-0.3-9.8L164.6,20.3z"/>
	<path d="M174.2,20.3l1.2,12.3l-1,0.1l-1.1-10.4l-2.1,8.5H170l-2.5-8.3l-0.5,10.3l-1-0.1l0.3-11.9l1.8-0.4l2.4,8.4l1.9-8.6H174.2z"
		/>
	<path d="M181.9,28.9l-4.2-0.7l0.1,4.7l-1,0.1l-0.2-11.6l4.6-0.8l2.7,2.9L181.9,28.9z M181.3,27.8l1.4-4.1l-2-2.1l-3.1,0.6l0.1,5
		L181.3,27.8z"/>
	<path d="M190.6,27l0.6,4l-4,1.8l-2.1-2.7l0.8-0.6l1.6,2l2.6-1.2l-0.4-2.6l-4.9-1.4l-0.1-3.7l4.6-2.3l1.7,3.3l-0.9,0.5l-1.2-2.4
		l-3.1,1.6l0.1,2.4L190.6,27z"/>
	<path d="M204.7,26.7l-1.4,6.1l-4.3,0.1l-1.9-3.4l1.3-8.7l4.6-0.3L204.7,26.7z M203.7,26.7l-1.4-5.3l-2.9,0.3l-1.1,7.6l1.3,2.4h2.9
		L203.7,26.7z"/>
	<path d="M212,20.3l1,0.3l-3.1,12.2l-1.1,0.1l-3.4-12.2l1-0.3l2.9,10.5L212,20.3z"/>
	<path d="M219.3,31.8l-0.1,1l-4.7-0.5l-0.7-1.1l0.1-4.6l0.2-5.5l5.1-0.7l0.2,0.9l-4.3,0.7l-0.1,4.9l4.3-0.1l0.1,1l-4.4,0.2l-0.1,2.9
		l0.3,0.6L219.3,31.8z"/>
	<path d="M222.3,28l4.1,4l-0.7,0.7l-4.5-4.3l0.1,4h-1l-0.2-11.7l4-0.3l3.4,2.7l-1,4.2L222.3,28z M225.5,26.4l0.8-2.9l-2.5-2
		l-2.6,0.2l0.1,5.5L225.5,26.4z"/>
	<path d="M240.3,21.4l-3.1,0.1l0.2,11.2l-1,0.1l-0.2-11.1l-2.8,0.1l-0.1-1l6.9-0.3L240.3,21.4z"/>
	<path d="M247.8,20.4v12.3h-1v-5.2l-4.4,0.7l0.2,4.1h-1l-0.4-11.5h1l0.3,6.4l4.4-0.7v-6.1H247.8z"/>
	<path d="M254.1,31.8l-0.1,1l-4.7-0.5l-0.7-1.1l0.1-4.6l0.2-5.5l5.1-0.7l0.2,0.9l-4.3,0.7l-0.1,4.9l4.3-0.1l0.1,1l-4.4,0.2l-0.1,2.9
		l0.3,0.6L254.1,31.8z"/>
	<path d="M265.9,30.4l0.2,1l-5.6,1.3l0.2-12.4h1l-0.2,11.1L265.9,30.4z"/>
	<path d="M272.7,29.1h-4l-0.7,3.6l-1-0.2l2.5-11.8l2.8-0.3l2.1,12.2l-1,0.2L272.7,29.1z M272.4,28.1l-1.1-6.6l-1.1,0.1l-1.3,6.5
		H272.4z"/>
	<path d="M281.4,31.5l0.1,1l-5.9,0.3l-0.6-0.9l5.5-10.4l-4.9-0.1v-1l5.5,0.1l0.5,0.9l-5.4,10.4L281.4,31.5z"/>
	<path d="M290.1,20.8l-3.4,7.2l-0.1,4.8l-1-0.1l0.1-4.7l-3.2-7.3l1-0.4l2.7,6.3l2.9-6.4L290.1,20.8z"/>
	<path d="M303.5,25.4l-2.4,6.9l-4.3,0.5l0.1-11.4l-0.4-0.1l0.1-1l4.3,0.3L303.5,25.4z M302.4,25.6l-2.2-4l-2.4-0.2l-0.1,10.2
		l2.6-0.3L302.4,25.6z"/>
	<path d="M311.9,26.7l-1.4,6.1l-4.3,0.1l-1.9-3.4l1.3-8.7l4.6-0.3L311.9,26.7z M310.8,26.7l-1.4-5.3l-2.9,0.3l-1.1,7.6l1.3,2.4h2.9
		L310.8,26.7z"/>
	<path d="M319.7,26.7l-1.3,6l-5.6-0.9l0.2-10l5-1.4l0.9,1.8l-0.9,0.5l-0.6-1l-3.5,0.9l-0.2,8.4l3.8,0.6l0.8-3.7l-2.6,0.2l-0.1-1
		L319.7,26.7z"/>
</g>
</svg>
