<?xml version="1.0" encoding="utf-8"?>
<!-- Generator: Adobe Illustrator 26.1.0, SVG Export Plug-In . SVG Version: 6.00 Build 0)  -->
<svg version="1.1" id="Layer_1" xmlns="http://www.w3.org/2000/svg" xmlns:xlink="http://www.w3.org/1999/xlink" x="0px" y="0px"
	 viewBox="0 0 372 36.9" style="enable-background:new 0 0 372 36.9;" xml:space="preserve">
<g>
	<path d="M13.7,5.5l-3,0.1L8.7,16.3l-1.6,0.1L9.2,5.7L6.5,5.8l0.3-1.6L14,4L13.7,5.5z"/>
	<path d="M21.8,4l-2.6,12.3h-1.6l1-4.9L15,12l-0.7,3.9L12.7,16l2-11.6l1.6-0.1l-1.1,6.1L19,9.8L20.2,4H21.8z"/>
	<path d="M26.1,14.8l-0.5,1.6l-4.9-0.5l-0.5-1.3l1-4.4l1.3-5.5l5.5-0.8l-0.1,1.5L23.9,6l-1,4.1L27,10l-0.3,1.6l-4.2,0.1l-0.6,2.5
		l0.1,0.3L26.1,14.8z"/>
	<path d="M39.9,15.5l-1.4,0.9l-0.7-1.3l-2,1.3l-3.5-2.6l1.7-7.4l4.4-2.5l2.8,3.1l-2,7.2L39.9,15.5z M37.2,13.8L35.8,11l1.5-0.9l1,2
		l1.2-4.5l-1.6-1.8l-2.5,1.5L34.1,13l2.1,1.6L37.2,13.8z"/>
	<path d="M49.9,3.9L48.2,14l-2.4,2.4h-3.1l-1.9-1.8L43.1,4h1.6l-2.1,9.8l1,1h1.7l1.4-1.3l1.7-9.6L49.9,3.9z"/>
	<path d="M51.9,3.9h1.6l-2.7,12.5h-1.6L51.9,3.9z"/>
	<path d="M60.2,13.2l-1.9,2.8l-3.5,0.4l-1.6-2.9l1.4-6.9l4.7-2.9l1.7,2.7l-1.4,1l-0.9-1.6L56,7.4L54.8,13l1,1.8l1.8-0.2l1.4-2
		L60.2,13.2z"/>
	<path d="M63.4,12.2l3.8,3.2l-1.1,1.3l-3.6-3l-0.6,2.8h-1.6l2.5-12.5h1.6l-1.3,6.5L68.7,4l1.1,0.8L63.4,12.2z"/>
	<path d="M82,11.6l-1.3,2.6l-1.2,2.3L75.2,16l-0.1,0.4l-1.6,0.1l2.2-11.8L81.6,4l-0.2,6.1L78.8,11L82,11.6z M79.8,12.8L75.9,12
		l-0.5,2.4l3.2,0.4l0.6-1.1L79.8,12.8z M76.3,10.3l3.6-1.2L80,5.7L77,6L76.3,10.3z"/>
	<path d="M85.7,11.7l2.9,3.6l-1.3,1.1l-3.2-3.9L83.6,16H82l2.3-11.7L88.6,4l2.8,2.7l-2,4.3L85.7,11.7z M88.4,9.7l1.1-2.4l-1.8-1.7
		l-2.1,0.1l-0.9,4.7L88.4,9.7z"/>
	<path d="M99.2,10.2l-2.7,6.1L92,16.3l-1.2-3.4l3.1-8.6L98.8,4L99.2,10.2z M97.6,10.3l-0.3-4.7L95,5.8l-2.4,6.8l0.7,2.1h2.4
		L97.6,10.3z"/>
	<path d="M108.9,3.9l1.5,0.1l-3.2,11.9l-2.3,0.6L104.8,9l-3.2,7.3l-2-0.4l1.8-11.9l1.6-0.1l-1.3,8.6l3.2-7.2h1.5l0.2,7.5L108.9,3.9z
		"/>
	<path d="M118.7,4.2l-3.1,11.9l-1.6,0.3l-1.9-7.9l-1,7.7l-1.5,0.1l1.6-12.2l1.6-0.4l2.2,9l2.3-8.7L118.7,4.2z"/>
	<path d="M129.6,11.5l-4.7,0.2l-0.7,4.7l-1.6,0.1l1.9-11.4L131,4v1.6l-5.2,0.9l-0.6,3.8l4.6-0.2L129.6,11.5z"/>
	<path d="M138.4,10.2l-2.7,6.1l-4.5,0.1l-1.2-3.4l3.1-8.6L138,4L138.4,10.2z M136.8,10.3l-0.3-4.7l-2.3,0.2l-2.4,6.8l0.7,2.1h2.4
		L136.8,10.3z"/>
	<path d="M148.1,4.6l-4.2,6l1.5,5.1l-1.6,0.7l-1.2-4.1l-2.9,4.1l-1.2-0.7l3.6-5.2l-1.7-5.9l1.6-0.7l1.4,4.8l3.4-4.9L148.1,4.6z"/>
	<path d="M161.5,5.5l-1.4,0.2l-1.7,7.7l-3.1,3.2l-3.5-1.9l1-3.6l1.6,0.1l-0.7,2.6l1.7,0.9l1.7-1.7l1.6-6.9l-2.7,0.4l0.1-1.5l5.7-0.9
		L161.5,5.5z"/>
	<path d="M169.5,3.9L167.7,14l-2.4,2.4h-3.1l-1.9-1.8L162.6,4h1.6l-2.1,9.8l1,1h1.7l1.4-1.3l1.7-9.6L169.5,3.9z"/>
	<path d="M179.1,3.9l-1.4,12.3l-1.6,0.2l1.1-9.3l-3.3,7.4h-1.5L172,7.2l-2.2,9.2l-1.6-0.1l2.8-11.8l2.3-0.5l0.5,7.1l3.2-7.2H179.1z"
		/>
	<path d="M185.1,12.7l-3.8-0.7l-0.9,4.4l-1.6,0.1l2.3-11.6l5-0.8l2.1,3.1L185.1,12.7z M184.4,11l2-3.5l-1.2-1.8l-2.7,0.5l-0.9,4.2
		L184.4,11z"/>
	<path d="M194.5,10.3l-0.3,4.2l-4.7,1.9l-1.7-2.9l1.4-0.9l1.1,2l2.3-0.9l0.1-2.1l-4.4-1.3l0.8-4l5.2-2.4l1.1,3.7L194,8.3L193.4,6
		l-2.7,1.2l-0.4,1.9L194.5,10.3z"/>
	<path d="M208.9,10.2l-2.7,6.1l-4.5,0.1l-1.2-3.4l3.1-8.6l4.9-0.3L208.9,10.2z M207.3,10.3L207,5.6l-2.3,0.2l-2.4,6.8l0.7,2.1h2.4
		L207.3,10.3z"/>
	<path d="M217.3,3.9l1.4,0.4l-5.6,12.2l-1.5,0.1l-0.8-12.2l1.6-0.4l0.6,9.3L217.3,3.9z"/>
	<path d="M223.1,14.8l-0.5,1.6l-4.9-0.5l-0.5-1.3l1-4.4l1.3-5.5l5.5-0.8l-0.1,1.5L220.8,6l-1,4.1L224,10l-0.3,1.6l-4.2,0.1l-0.6,2.5
		l0.1,0.3L223.1,14.8z"/>
	<path d="M227.5,11.7l2.9,3.6l-1.3,1.1l-3.2-3.9l-0.7,3.4h-1.6l2.3-11.7l4.2-0.3l2.8,2.7l-2,4.3L227.5,11.7z M230.2,9.7l1.1-2.4
		l-1.8-1.7l-2.1,0.1l-0.9,4.7L230.2,9.7z"/>
	<path d="M246.6,5.5l-3,0.1l-2.1,10.7l-1.6,0.1l2.1-10.6l-2.7,0.1l0.3-1.6l7.2-0.3L246.6,5.5z"/>
	<path d="M254.7,4l-2.6,12.3h-1.6l1-4.9l-3.7,0.6l-0.7,3.9l-1.6,0.1l2-11.6l1.6-0.1l-1.1,6.1l3.8-0.6l1.2-5.8H254.7z"/>
	<path d="M259,14.8l-0.5,1.6l-4.9-0.5l-0.5-1.3l1-4.4l1.3-5.5l5.5-0.8L261,5.4L256.8,6l-1,4.1l4.1-0.1l-0.3,1.6l-4.2,0.1l-0.6,2.5
		l0.1,0.3L259,14.8z"/>
	<path d="M271.3,13.5l0.1,1.5l-6.4,1.4l2.8-12.5h1.6L267,14.4L271.3,13.5z"/>
	<path d="M278,12.9h-3.3l-1.4,3.5l-1.5-0.3l5-11.7l3.2-0.4l-0.5,12.2l-1.6,0.3L278,12.9z M278.1,11.3l0.2-5.7l-0.6,0.1l-2.3,5.6
		H278.1z"/>
	<path d="M287.3,14.5l-0.3,1.6l-6.1,0.3l-0.5-1.1l7.1-9.6l-4.4-0.1l0.3-1.6l5.7,0.1l0.4,1.1l-7,9.6L287.3,14.5z"/>
	<path d="M298.6,4.6l-4.8,7.1l-1.1,4.8l-1.6-0.1l1-4.7l-1.6-7.2l1.6-0.6l1.3,5.7l3.8-5.7L298.6,4.6z"/>
	<path d="M311.2,9.1l-3.9,6.8l-4.7,0.6L305,5.5l-0.4-0.1l0.4-1.6l4.5,0.3L311.2,9.1z M309.5,9.2l-1.2-3.5l-1.8-0.1l-2,9.1l2-0.3
		L309.5,9.2z"/>
	<path d="M319.5,10.2l-2.7,6.1l-4.5,0.1l-1.2-3.4l3.1-8.6l4.9-0.3L319.5,10.2z M317.9,10.3l-0.3-4.7l-2.3,0.2l-2.4,6.8l0.7,2.1h2.4
		L317.9,10.3z"/>
	<path d="M327.7,10l-2.7,6.4l-5.7-0.9l2.3-10l5.5-1.4l0.7,2.2l-1.6,0.7l-0.3-1l-3.1,0.8l-1.8,7.5l3,0.5l1.2-2.9l-2.4,0.2l0.2-1.6
		L327.7,10z"/>
	<path d="M13.7,21.5l-3,0.1L8.7,32.3l-1.6,0.1l2.1-10.6l-2.7,0.1l0.3-1.6L14,20L13.7,21.5z"/>
	<path d="M21.8,20l-2.6,12.3h-1.6l1-4.9L15,28l-0.7,3.9L12.7,32l2-11.6l1.6-0.1l-1.1,6.1l3.8-0.6l1.2-5.8H21.8z"/>
	<path d="M26.1,30.8l-0.5,1.6l-4.9-0.5l-0.5-1.3l1-4.4l1.3-5.5l5.5-0.8l-0.1,1.5L23.9,22l-1,4.1L27,26l-0.3,1.6l-4.2,0.1l-0.6,2.5
		l0.1,0.3L26.1,30.8z"/>
	<path d="M39.9,31.5l-1.4,0.9l-0.7-1.3l-2,1.3l-3.5-2.6l1.7-7.4l4.4-2.5l2.8,3.1l-2,7.2L39.9,31.5z M37.2,29.8L35.8,27l1.5-0.9l1,2
		l1.2-4.5l-1.6-1.8l-2.5,1.5L34.1,29l2.1,1.6L37.2,29.8z"/>
	<path d="M50,19.9L48.3,30l-2.4,2.4h-3.1l-1.9-1.8L43.2,20h1.6l-2.1,9.8l1,1h1.7l1.4-1.3l1.7-9.6L50,19.9z"/>
	<path d="M54.3,21.7L52.3,31h2.3l-0.4,1.6l-5.5-0.1l0.3-1.6h1.8l2-9.1l-1.9,0.2l0.2-1.6l5.6-0.6l-0.1,1.6L54.3,21.7z"/>
	<path d="M62.7,29.2l-1.9,2.8l-3.5,0.4l-1.6-2.9l1.4-6.9l4.7-2.9l1.7,2.7l-1.4,1l-0.9-1.6l-2.5,1.6L57.3,29l1,1.8l1.8-0.2l1.4-2
		L62.7,29.2z"/>
	<path d="M66,28.2l3.8,3.2l-1.1,1.3l-3.6-3l-0.6,2.8h-1.6l2.5-12.5H67l-1.3,6.5l5.6-6.4l1.1,0.8L66,28.2z"/>
	<path d="M84.6,27.6l-1.3,2.6l-1.2,2.3L77.9,32l-0.1,0.4l-1.6,0.1l2.2-11.8l5.9-0.6l-0.2,6.1L81.4,27L84.6,27.6z M82.4,28.8L78.6,28
		l-0.5,2.4l3.2,0.4l0.6-1.1L82.4,28.8z M78.9,26.3l3.6-1.2l0.2-3.4l-3,0.3L78.9,26.3z"/>
	<path d="M88.4,27.7l2.9,3.6L90,32.5l-3.2-3.9L86.2,32h-1.6L87,20.2l4.2-0.3l2.8,2.7l-2,4.3L88.4,27.7z M91,25.7l1.1-2.4l-1.8-1.7
		l-2.1,0.1l-0.9,4.7L91,25.7z"/>
	<path d="M101.9,26.2l-2.7,6.1l-4.5,0.1l-1.2-3.4l3.1-8.6l4.9-0.3L101.9,26.2z M100.3,26.3l-0.3-4.7l-2.3,0.2l-2.4,6.8l0.7,2.1h2.4
		L100.3,26.3z"/>
	<path d="M111.6,19.9l1.5,0.1l-3.2,11.9l-2.3,0.6l-0.2-7.4l-3.2,7.3l-2-0.4l1.8-11.9l1.6-0.1l-1.3,8.6l3.2-7.2h1.5l0.2,7.5
		L111.6,19.9z"/>
	<path d="M121.4,20.2l-3.1,11.9l-1.6,0.3l-1.9-7.9l-1,7.7l-1.5,0.1l1.6-12.2l1.6-0.4l2.2,9l2.3-8.7L121.4,20.2z"/>
	<path d="M132.2,27.5l-4.7,0.2l-0.7,4.7l-1.6,0.1l1.9-11.4l6.5-1.2v1.6l-5.2,0.9l-0.6,3.8l4.6-0.2L132.2,27.5z"/>
	<path d="M141,26.2l-2.7,6.1l-4.5,0.1l-1.2-3.4l3.1-8.6l4.9-0.3L141,26.2z M139.4,26.3l-0.3-4.7l-2.3,0.2l-2.4,6.8l0.7,2.1h2.4
		L139.4,26.3z"/>
	<path d="M150.7,20.6l-4.2,6l1.5,5.1l-1.6,0.7l-1.2-4.1l-2.9,4.1l-1.2-0.7l3.6-5.2l-1.7-5.9l1.6-0.7l1.4,4.8l3.4-4.9L150.7,20.6z"/>
	<path d="M164.1,21.5l-1.4,0.2l-1.7,7.7l-3.1,3.2l-3.5-1.9l1-3.6l1.6,0.1l-0.7,2.6l1.7,0.9l1.7-1.7l1.6-6.9l-2.7,0.4l0.1-1.5
		l5.7-0.9L164.1,21.5z"/>
	<path d="M172.1,19.9L170.3,30l-2.4,2.4h-3.1l-1.9-1.8l2.3-10.6h1.6l-2.1,9.8l1,1h1.7l1.4-1.3l1.7-9.6L172.1,19.9z"/>
	<path d="M181.8,19.9l-1.4,12.3l-1.6,0.2l1.1-9.3l-3.3,7.4h-1.5l-0.5-7.2l-2.2,9.2l-1.6-0.1l2.8-11.8L176,20l0.5,7.1l3.2-7.2H181.8z
		"/>
	<path d="M187.8,28.7l-3.8-0.7l-0.9,4.4l-1.6,0.1l2.3-11.6l5-0.8l2.1,3.1L187.8,28.7z M187.2,27l2-3.5l-1.2-1.8l-2.7,0.5l-0.9,4.2
		L187.2,27z"/>
	<path d="M197.3,26.3l-0.3,4.2l-4.7,1.9l-1.7-2.9l1.4-0.9l1.1,2l2.3-0.9l0.1-2.1l-4.4-1.3l0.8-4l5.2-2.4l1.1,3.7l-1.5,0.7l-0.7-2.3
		l-2.7,1.2l-0.4,1.9L197.3,26.3z"/>
	<path d="M211.7,26.2l-2.7,6.1l-4.5,0.1l-1.2-3.4l3.1-8.6l4.9-0.3L211.7,26.2z M210.1,26.3l-0.3-4.7l-2.3,0.2l-2.4,6.8l0.7,2.1h2.4
		L210.1,26.3z"/>
	<path d="M220,19.9l1.4,0.4l-5.6,12.2l-1.5,0.1l-0.8-12.2l1.6-0.4l0.6,9.3L220,19.9z"/>
	<path d="M225.9,30.8l-0.5,1.6l-4.9-0.5l-0.5-1.3l1-4.4l1.3-5.5l5.5-0.8l-0.1,1.5l-4.2,0.6l-1,4.1l4.1-0.1l-0.3,1.6l-4.2,0.1
		l-0.6,2.5l0.1,0.3L225.9,30.8z"/>
	<path d="M230.3,27.7l2.9,3.6l-1.3,1.1l-3.2-3.9l-0.7,3.4h-1.6l2.3-11.7l4.2-0.3l2.8,2.7l-2,4.3L230.3,27.7z M233,25.7l1.1-2.4
		l-1.8-1.7l-2.1,0.1l-0.9,4.7L233,25.7z"/>
	<path d="M249.4,21.5l-3,0.1l-2.1,10.7l-1.6,0.1l2.1-10.6l-2.7,0.1l0.3-1.6l7.2-0.3L249.4,21.5z"/>
	<path d="M257.5,20l-2.6,12.3h-1.6l1-4.9l-3.7,0.6l-0.7,3.9l-1.6,0.1l2-11.6l1.6-0.1l-1.1,6.1l3.8-0.6l1.2-5.8H257.5z"/>
	<path d="M261.8,30.8l-0.5,1.6l-4.9-0.5l-0.5-1.3l1-4.4l1.3-5.5l5.5-0.8l-0.1,1.5l-4.2,0.6l-1,4.1l4.1-0.1l-0.3,1.6l-4.2,0.1
		l-0.6,2.5l0.1,0.3L261.8,30.8z"/>
	<path d="M274,29.5l0.1,1.5l-6.4,1.4l2.8-12.5h1.6l-2.4,10.5L274,29.5z"/>
	<path d="M280.8,28.9h-3.3l-1.4,3.5l-1.5-0.3l5-11.7l3.2-0.4l-0.5,12.2l-1.6,0.3L280.8,28.9z M280.9,27.3l0.2-5.7l-0.6,0.1l-2.3,5.6
		H280.9z"/>
	<path d="M290.1,30.5l-0.3,1.6l-6.1,0.3l-0.5-1.1l7.1-9.6l-4.4-0.1l0.3-1.6L292,20l0.4,1.1l-7,9.6L290.1,30.5z"/>
	<path d="M301.4,20.6l-4.8,7.1l-1.1,4.8l-1.6-0.1l1-4.7l-1.6-7.2l1.6-0.6l1.3,5.7l3.8-5.7L301.4,20.6z"/>
	<path d="M314,25.1l-3.9,6.8l-4.7,0.6l2.4-10.9l-0.4-0.1l0.4-1.6l4.5,0.3L314,25.1z M312.3,25.2l-1.2-3.5l-1.8-0.1l-2,9.1l2-0.3
		L312.3,25.2z"/>
	<path d="M322.3,26.2l-2.7,6.1l-4.5,0.1l-1.2-3.4l3.1-8.6l4.9-0.3L322.3,26.2z M320.7,26.3l-0.3-4.7l-2.3,0.2l-2.4,6.8l0.7,2.1h2.4
		L320.7,26.3z"/>
	<path d="M330.5,26l-2.7,6.4l-5.7-0.9l2.3-10l5.5-1.4l0.7,2.2l-1.6,0.7l-0.3-1l-3.1,0.8l-1.8,7.5l3,0.5l1.2-2.9l-2.4,0.2l0.2-1.6
		L330.5,26z"/>
</g>
</svg>
