<?xml version="1.0" encoding="utf-8"?>
<!-- Generator: Adobe Illustrator 26.1.0, SVG Export Plug-In . SVG Version: 6.00 Build 0)  -->
<svg version="1.1" id="Layer_1" xmlns="http://www.w3.org/2000/svg" xmlns:xlink="http://www.w3.org/1999/xlink" x="0px" y="0px"
	 viewBox="0 0 372 36.9" style="enable-background:new 0 0 372 36.9;" xml:space="preserve">
<g>
	<path d="M6.8,6.4L4.3,6.5L4.2,4.3L11.9,4L12,6.2L9.1,6.3l0.2,10.2l-2.2,0.1L6.8,6.4z"/>
	<path d="M12.7,4.4L15,4.3l0.3,5.7l2.8-0.5V4h2.2v12.5h-2.2v-4.6l-2.8,0.5l0.2,3.8l-2.3,0.1L12.7,4.4z"/>
	<path d="M21.1,14.5L21.1,14.5c0-3.3,0.1-6.4,0.2-9.6V4.7l5.9-0.8L27.6,6l-4.1,0.6l-0.1,3.3l4-0.1l0.1,2.2L23.4,12l-0.1,1.9l0.1,0.1
		l4.2,0.5l-0.2,2.2L22.1,16L21.1,14.5z"/>
	<path d="M33.8,6.5L38,3.8L41.7,7l-0.5,6.9l1.1,1.6l-1.8,1.2l-0.9-1.2l-1.6,1.2l-4.3-2.8L33.8,6.5z M37.8,14l0.4-0.3L36.3,11
		l1.9-1.2l1,1.3l0.2-3.2l-1.7-1.4L36,7.7l-0.2,5L37.8,14z"/>
	<path d="M43,4h2.2v9.5l1.1,0.8h1.3l0.9-1l-0.3-9.4l2.2-0.1L50.8,14l-2,2.5h-3.4l-2.4-2V4z"/>
	<path d="M52.5,3.9h2.2l-0.1,12.6h-2.2L52.5,3.9z"/>
	<path d="M56,13.6V6.7l4.3-3.1L63,6.8l-1.8,1.3L60,6.6l-1.7,1.2v5.1l1.2,1.5l1.2-0.2l1-2.1l2,0.9l-1.5,3.2l-3.8,0.5L56,13.6z"/>
	<path d="M64.4,3.9h2.2l0.1,5.4l3.7-5.4L72.2,5l-4.7,7l4.4,3l-1.3,1.8l-3.9-2.6v2.3h-2.2L64.4,3.9z"/>
	<path d="M78.2,4.6L84.4,4l1.2,6.4l-1.4,0.5l2.3,0.4l-0.1,0.4c-0.4,1.6-0.9,3.2-1.5,4.7l-0.1,0.3l-4.1-0.5v0.3l-2.2,0.1L78.2,4.6z
		 M83.1,9l-0.5-2.6l-2.2,0.2l0.2,3.3L83.1,9z M83.2,14.3c0.2-0.4,0.4-0.9,0.5-1.3l-3.1-0.6l0.1,1.6L83.2,14.3z"/>
	<path d="M87.3,4.2L91.9,4l3.6,2.8l-1.1,4.6l-3,0.5l3.4,3.3l-1.6,1.6l-3.5-3.4v2.7h-2.2L87.3,4.2z M92.5,9.5L93,7.7l-1.9-1.4
		l-1.6,0.1l0.1,3.7L92.5,9.5z"/>
	<path d="M96.3,12.9l1.3-8.6l5.3-0.3l0.1,0.3c0.1,0.2,0.5,1.7,0.9,3.2c0.2,0.7,0.4,1.4,0.5,1.9c0.1,0.3,0.2,0.5,0.2,0.7
		c0,0.1,0,0.1,0.1,0.2c0,0.1,0,0.2,0,0.2c0,0.1-0.3,1.6-0.6,2.8c-0.3,1.4-0.7,2.8-0.7,3.1l-0.1,0.3l-4.9,0.1L96.3,12.9z M101.5,14.3
		c0.1-0.4,0.3-1.2,0.5-2c0.1-0.5,0.2-1,0.3-1.3c0.1-0.2,0.1-0.4,0.1-0.5c0-0.1,0-0.1,0.1-0.2c-0.1,0-0.1-0.1-0.1-0.1
		c-0.1-0.1-0.1-0.3-0.2-0.5c-0.1-0.4-0.2-0.9-0.4-1.5c-0.2-0.8-0.5-1.6-0.6-2.1l-1.7,0.2l-0.9,6.2l1,1.8H101.5z"/>
	<path d="M105.6,4.1l2.3-0.1l0.4,6.1l1-4.8h2.1l1.2,5.1l0.4-6.5l2.2,0.2l-0.7,11.9l-2.7,0.8l-1.4-5.9l-1.3,5.8l-2.7-0.5L105.6,4.1z"
		/>
	<path d="M116,4.3l2.1-0.5l3.5,7.5l0.3-7.2l2.3,0.2l-0.6,12l-2,0.4l-2.7-5.9l0.5,5.6l-2.2,0.2L116,4.3z"/>
	<path d="M130.2,5.2l6.8-1.2l0.5,2.2l-5,0.8l0.2,3l4.5-0.2l0.2,2.2l-4.6,0.2l0.3,4.4l-2.3,0.2L130.2,5.2z"/>
	<path d="M138.1,12.9l1.3-8.6l5.3-0.3l0.1,0.3c0.1,0.2,0.5,1.7,0.9,3.2c0.2,0.7,0.4,1.4,0.5,1.9c0.1,0.3,0.2,0.5,0.2,0.7
		c0,0.1,0,0.1,0.1,0.2c0,0.1,0,0.2,0,0.2c0,0.1-0.3,1.6-0.6,2.8c-0.3,1.4-0.7,2.8-0.7,3.1l-0.1,0.3l-4.9,0.1L138.1,12.9z
		 M143.3,14.3c0.1-0.4,0.3-1.2,0.5-2c0.1-0.5,0.2-1,0.3-1.3c0.1-0.2,0.1-0.4,0.1-0.5c0-0.1,0-0.1,0.1-0.2c-0.1,0-0.1-0.1-0.1-0.1
		c-0.1-0.1-0.1-0.3-0.2-0.5c-0.1-0.4-0.2-0.9-0.4-1.5c-0.2-0.8-0.5-1.6-0.6-2.1l-1.7,0.2l-0.9,6.2l1,1.8H143.3z"/>
	<path d="M150.4,10.6l-3-5.8l2-0.9l2.2,4.2l2.2-4.3l2,0.9l-2.9,5.9l2.6,5l-2.1,1.1l-1.9-3.6l-1.8,3.6l-2-1L150.4,10.6z"/>
	<path d="M162,10.7l2.3,0.2l-0.2,2.5l1.3,0.6l1-1.3l0.1-6.1L164,7l-0.4-2.1l6.2-0.9l0.3,2.2l-1.3,0.2l-0.1,7.1l-2.6,3.4l-4.3-2.1
		L162,10.7z"/>
	<path d="M170.9,4h2.2v9.5l1.1,0.8h1.3l0.9-1l-0.3-9.4l2.2-0.1l0.4,10.1l-2,2.5h-3.4l-2.4-2V4z"/>
	<path d="M180.1,4.6l2.7-0.6l1.7,5.8l1.3-5.8h2.7l1.2,12.4l-2.3,0.3l-0.7-7.1l-1.2,5.2h-2.1l-1.3-4.8l-0.2,6.7l-2.2-0.1L180.1,4.6z"
		/>
	<path d="M190.8,4.9L196,4l2.9,3.3l-2.1,5.8l-3.7-0.7l0.1,4.2l-2.2,0.1L190.8,4.9z M195.4,10.6l1.1-2.8l-1.3-1.4l-2,0.4l0.1,3.4
		L195.4,10.6z"/>
	<path d="M199.9,13.4l1.8-1.3l1.6,1.9l1.5-0.6l-0.3-1.6l-4.6-1.2l-0.1-4.2l5.2-2.5l2.2,4.1l-2,1.1L204,6.7L202,7.6l0.1,1.3l4.4,1.1
		l0.7,4.5l-4.7,2.1L199.9,13.4z"/>
	<path d="M213.2,12.9l1.3-8.6l5.3-0.3l0.1,0.3c0.1,0.2,0.5,1.7,0.9,3.2c0.2,0.7,0.4,1.4,0.5,1.9c0.1,0.3,0.2,0.5,0.2,0.7
		c0,0.1,0,0.1,0.1,0.2c0,0.1,0,0.2,0,0.2c0,0.1-0.3,1.6-0.6,2.8c-0.3,1.4-0.7,2.8-0.7,3.1l-0.1,0.3l-4.9,0.1L213.2,12.9z
		 M218.3,14.3c0.1-0.4,0.3-1.2,0.5-2c0.1-0.5,0.2-1,0.3-1.3c0.1-0.2,0.1-0.4,0.1-0.5c0-0.1,0-0.1,0.1-0.2c-0.1,0-0.1-0.1-0.1-0.1
		c-0.1-0.1-0.1-0.3-0.2-0.5c-0.1-0.4-0.2-0.9-0.4-1.5c-0.2-0.8-0.5-1.6-0.6-2.1l-1.7,0.2l-0.9,6.2l1,1.8H218.3z"/>
	<path d="M222.2,4.4l2.2-0.6l2.3,8l2-7.9l2.2,0.5l-3.1,12.2l-2.1,0.1L222.2,4.4z"/>
	<path d="M231.6,14.5L231.6,14.5c0-3.3,0.1-6.4,0.2-9.6V4.7l5.9-0.8l0.4,2.1L234,6.6l-0.1,3.3l4-0.1l0.1,2.2l-4.1,0.1l-0.1,1.9
		l0.1,0.1l4.2,0.5l-0.2,2.2l-5.4-0.6L231.6,14.5z"/>
	<path d="M239,4.2l4.6-0.3l3.6,2.8l-1.1,4.6l-3,0.5l3.4,3.3l-1.6,1.6l-3.5-3.4v2.7h-2.2L239,4.2z M244.2,9.5l0.5-1.9l-1.9-1.4
		l-1.6,0.1l0.1,3.7L244.2,9.5z"/>
	<path d="M255.8,6.4l-2.6,0.1l-0.1-2.2l7.7-0.3l0.1,2.2L258,6.3l0.2,10.2l-2.2,0.1L255.8,6.4z"/>
	<path d="M261.7,4.4l2.3-0.1l0.3,5.7l2.8-0.5V4h2.2v12.5h-2.2v-4.6l-2.8,0.5l0.2,3.8l-2.3,0.1L261.7,4.4z"/>
	<path d="M270.1,14.5L270.1,14.5c0-3.3,0.1-6.4,0.2-9.6V4.7l5.9-0.8l0.4,2.1l-4.1,0.6l-0.1,3.3l4-0.1l0.1,2.2l-4.1,0.1l-0.1,1.9
		l0.1,0.1l4.2,0.5l-0.2,2.2L271,16L270.1,14.5z"/>
	<path d="M283,3.9h2.2l-0.2,9.9L289,13l0.6,2.1l-6.7,1.6L283,3.9z"/>
	<path d="M292.9,4.3l3.7-0.5l2.1,12.4l-2.2,0.4l-0.5-3.4h-2.6l-0.7,3.4l-2.3-0.5L292.9,4.3z M295.6,11l-0.8-4.6l-0.9,4.6H295.6z"/>
	<path d="M299.5,15.1l4.8-8.8l-4.1-0.1V3.9l6.2,0.1l0.9,1.4l-4.7,8.7l4.3-0.2l0.1,2.2l-6.5,0.3L299.5,15.1z"/>
	<path d="M311.2,16.2c0-0.4,0-0.7,0-1.1l0.1-2.2c0-0.4,0-0.7,0-1.1c-0.1-0.1-0.1-0.1-0.1-0.2c-0.1-0.2-0.2-0.4-0.4-0.7
		c-0.3-0.6-0.6-1.4-1-2.2c-0.7-1.7-1.5-3.4-1.6-3.6L308,4.7l2.1-0.8l2.2,5l2.4-5.1l2.1,0.9l-2.3,4.8c-0.2,0.5-0.4,0.8-0.6,1.1
		c-0.2,0.3-0.3,0.6-0.5,1.1v2.1c-0.1,1.1-0.1,2.3-0.1,2.4v0.4l-2.2-0.1V16.2z"/>
	<path d="M323.5,6.1l-0.5-0.1l0.2-2.1l5,0.3l2.8,4.9l-2.5,6.9l-5.1,0.7L323.5,6.1z M327,14l1.7-4.7l-1.8-3.1l-1.1-0.1l-0.1,8L327,14
		z"/>
	<path d="M331.9,12.9l1.3-8.6l5.3-0.3l0.1,0.3c0.1,0.2,0.5,1.7,0.9,3.2c0.2,0.7,0.4,1.4,0.5,1.9c0.1,0.3,0.2,0.5,0.2,0.7
		c0,0.1,0,0.1,0.1,0.2c0,0.1,0,0.2,0,0.2c0,0.1-0.3,1.6-0.6,2.8c-0.3,1.4-0.7,2.8-0.7,3.1l-0.1,0.3l-4.9,0.1L331.9,12.9z
		 M337.1,14.3c0.1-0.4,0.3-1.2,0.5-2c0.1-0.5,0.2-1,0.3-1.3c0.1-0.2,0.1-0.4,0.1-0.5c0-0.1,0-0.1,0.1-0.2c-0.1,0-0.1-0.1-0.1-0.1
		c-0.1-0.1-0.1-0.3-0.2-0.5c-0.1-0.4-0.2-0.9-0.4-1.5c-0.2-0.8-0.5-1.6-0.6-2.1l-1.7,0.2l-0.9,6.2l1,1.8H337.1z"/>
	<path d="M341.4,5.4l5.6-1.6l1.4,2.7l-2,0.9l-0.6-1L343.6,7l-0.2,6.6l2.4,0.4l0.5-2l-1.9,0.1l-0.2-2.1l4.9-0.4l-1.6,6.9l-6.4-1
		L341.4,5.4z"/>
	<path d="M6.8,22.4l-2.6,0.1l-0.1-2.2l7.7-0.3l0.1,2.2l-2.9,0.1l0.2,10.2l-2.2,0.1L6.8,22.4z"/>
	<path d="M12.7,20.4l2.3-0.1l0.3,5.7l2.8-0.5V20h2.2v12.5h-2.2v-4.6l-2.8,0.5l0.2,3.8l-2.3,0.1L12.7,20.4z"/>
	<path d="M21.1,30.5L21.1,30.5c0-3.3,0.1-6.4,0.2-9.6v-0.3l5.9-0.8l0.4,2.1l-4.1,0.6l-0.1,3.3l4-0.1l0.1,2.2L23.4,28l-0.1,1.9
		l0.1,0.1l4.2,0.5l-0.2,2.2L22.1,32L21.1,30.5z"/>
	<path d="M33.8,22.5l4.2-2.7l3.7,3.2l-0.5,6.9l1.1,1.6l-1.8,1.2l-0.9-1.2l-1.6,1.2l-4.3-2.8L33.8,22.5z M37.8,30l0.4-0.3L36.3,27
		l1.9-1.2l1,1.3l0.2-3.2l-1.7-1.4L36,23.7l-0.2,5L37.8,30z"/>
	<path d="M43.1,20h2.2v9.5l1.1,0.8h1.3l0.9-1l-0.3-9.4l2.2-0.1L50.9,30l-2,2.5h-3.4l-2.4-2V20z"/>
	<path d="M51.8,30.5h1.8l0.1-7.9l-1.8,0.2l-0.2-2.2l6.1-0.7l0.3,2.2l-2.2,0.3l-0.1,8.2H58l-0.1,2.2l-6.2-0.1V30.5z"/>
	<path d="M58.9,29.6v-6.9l4.3-3.1l2.6,3.2l-1.8,1.3l-1.3-1.5l-1.7,1.2v5.1l1.2,1.5l1.2-0.2l1-2.1l2,0.9l-1.5,3.2l-3.8,0.5L58.9,29.6
		z"/>
	<path d="M67.4,19.9h2.2l0.1,5.4l3.7-5.4l1.9,1.2l-4.7,7l4.4,3l-1.3,1.8l-3.9-2.6v2.3h-2.2L67.4,19.9z"/>
	<path d="M81.2,20.6l6.3-0.6l1.2,6.4l-1.4,0.5l2.3,0.4l-0.1,0.4c-0.4,1.6-0.9,3.2-1.5,4.7l-0.1,0.3l-4.1-0.5v0.3l-2.2,0.1L81.2,20.6
		z M86.1,25l-0.5-2.6l-2.2,0.2l0.2,3.3L86.1,25z M86.2,30.3c0.2-0.4,0.4-0.9,0.5-1.3l-3.1-0.6l0.1,1.6L86.2,30.3z"/>
	<path d="M90.3,20.2l4.6-0.3l3.6,2.8l-1.1,4.6l-3,0.5l3.4,3.3l-1.6,1.6l-3.5-3.4v2.7h-2.2L90.3,20.2z M95.5,25.5l0.5-1.9l-1.9-1.4
		l-1.6,0.1l0.1,3.7L95.5,25.5z"/>
	<path d="M99.3,28.9l1.3-8.6l5.3-0.3l0.1,0.3c0.1,0.2,0.5,1.7,0.9,3.2c0.2,0.7,0.4,1.4,0.5,1.9c0.1,0.3,0.2,0.5,0.2,0.7
		c0,0.1,0,0.1,0.1,0.2c0,0.1,0,0.2,0,0.2c0,0.1-0.3,1.6-0.6,2.8c-0.3,1.4-0.7,2.8-0.7,3.1l-0.1,0.3l-4.9,0.1L99.3,28.9z M104.5,30.3
		c0.1-0.4,0.3-1.2,0.5-2c0.1-0.5,0.2-1,0.3-1.3c0.1-0.2,0.1-0.4,0.1-0.5c0-0.1,0-0.1,0.1-0.2c-0.1,0-0.1-0.1-0.1-0.1
		c-0.1-0.1-0.1-0.3-0.2-0.5c-0.1-0.4-0.2-0.9-0.4-1.5c-0.2-0.8-0.5-1.6-0.6-2.1l-1.7,0.2l-0.9,6.2l1,1.8H104.5z"/>
	<path d="M108.6,20.1l2.3-0.1l0.4,6.1l1-4.8h2.1l1.2,5.1l0.4-6.5l2.2,0.2l-0.7,11.9l-2.7,0.8l-1.4-5.9l-1.3,5.8l-2.7-0.5L108.6,20.1
		z"/>
	<path d="M119,20.3l2.1-0.5l3.5,7.5l0.3-7.2l2.3,0.2l-0.6,12l-2,0.4l-2.7-5.9l0.5,5.6l-2.2,0.2L119,20.3z"/>
	<path d="M133.2,21.2l6.8-1.2l0.5,2.2l-5,0.8l0.2,3l4.5-0.2l0.2,2.2l-4.6,0.2l0.3,4.4l-2.3,0.2L133.2,21.2z"/>
	<path d="M141.1,28.9l1.3-8.6l5.3-0.3l0.1,0.3c0.1,0.2,0.5,1.7,0.9,3.2c0.2,0.7,0.4,1.4,0.5,1.9c0.1,0.3,0.2,0.5,0.2,0.7
		c0,0.1,0,0.1,0.1,0.2c0,0.1,0,0.2,0,0.2c0,0.1-0.3,1.6-0.6,2.8c-0.3,1.4-0.7,2.8-0.7,3.1l-0.1,0.3l-4.9,0.1L141.1,28.9z
		 M146.3,30.3c0.1-0.4,0.3-1.2,0.5-2c0.1-0.5,0.2-1,0.3-1.3c0.1-0.2,0.1-0.4,0.1-0.5c0-0.1,0-0.1,0.1-0.2c-0.1,0-0.1-0.1-0.1-0.1
		c-0.1-0.1-0.1-0.3-0.2-0.5c-0.1-0.4-0.2-0.9-0.4-1.5c-0.2-0.8-0.5-1.6-0.6-2.1l-1.7,0.2l-0.9,6.2l1,1.8H146.3z"/>
	<path d="M153.4,26.6l-3-5.8l2-0.9l2.2,4.2l2.2-4.3l2,0.9l-2.9,5.9l2.6,5l-2.1,1.1l-1.9-3.6l-1.8,3.6l-2-1L153.4,26.6z"/>
	<path d="M165,26.7l2.3,0.2l-0.2,2.5l1.3,0.6l1-1.3l0.1-6.1L167,23l-0.4-2.1l6.2-0.9l0.3,2.2l-1.3,0.2l-0.1,7.1l-2.6,3.4l-4.3-2.1
		L165,26.7z"/>
	<path d="M173.9,20h2.2v9.5l1.1,0.8h1.3l0.9-1l-0.3-9.4l2.2-0.1l0.4,10.1l-2,2.5h-3.4l-2.4-2V20z"/>
	<path d="M183.1,20.6l2.7-0.6l1.7,5.8l1.3-5.8h2.7l1.2,12.4l-2.3,0.3l-0.7-7.1l-1.2,5.2h-2.1l-1.3-4.8l-0.2,6.7l-2.2-0.1L183.1,20.6
		z"/>
	<path d="M193.9,20.9l5.2-0.9l2.9,3.3l-2.1,5.8l-3.7-0.7l0.1,4.2l-2.2,0.1L193.9,20.9z M198.5,26.6l1.1-2.8l-1.3-1.4l-2,0.4l0.1,3.4
		L198.5,26.6z"/>
	<path d="M203,29.4l1.8-1.3l1.6,1.9l1.5-0.6l-0.3-1.6l-4.6-1.2l-0.1-4.2l5.2-2.5l2.2,4.1l-2,1.1l-1.2-2.3l-1.9,0.9l0.1,1.3l4.4,1.1
		l0.7,4.5l-4.7,2.1L203,29.4z"/>
	<path d="M216.3,28.9l1.3-8.6l5.3-0.3l0.1,0.3c0.1,0.2,0.5,1.7,0.9,3.2c0.2,0.7,0.4,1.4,0.5,1.9c0.1,0.3,0.2,0.5,0.2,0.7
		c0,0.1,0,0.1,0.1,0.2c0,0.1,0,0.2,0,0.2c0,0.1-0.3,1.6-0.6,2.8c-0.3,1.4-0.7,2.8-0.7,3.1l-0.1,0.3l-4.9,0.1L216.3,28.9z
		 M221.4,30.3c0.1-0.4,0.3-1.2,0.5-2c0.1-0.5,0.2-1,0.3-1.3c0.1-0.2,0.1-0.4,0.1-0.5c0-0.1,0-0.1,0.1-0.2c-0.1,0-0.1-0.1-0.1-0.1
		c-0.1-0.1-0.1-0.3-0.2-0.5c-0.1-0.4-0.2-0.9-0.4-1.5c-0.2-0.8-0.5-1.6-0.6-2.1l-1.7,0.2l-0.9,6.2l1,1.8H221.4z"/>
	<path d="M225.3,20.4l2.2-0.6l2.3,8l2-7.9l2.2,0.5l-3.1,12.2l-2.1,0.1L225.3,20.4z"/>
	<path d="M234.8,30.5L234.8,30.5c0-3.3,0.1-6.4,0.2-9.6v-0.3l5.9-0.8l0.4,2.1l-4.1,0.6l-0.1,3.3l4-0.1l0.1,2.2l-4.1,0.1l-0.1,1.9
		l0.1,0.1l4.2,0.5l-0.2,2.2l-5.4-0.6L234.8,30.5z"/>
	<path d="M242.1,20.2l4.6-0.3l3.6,2.8l-1.1,4.6l-3,0.5l3.4,3.3l-1.6,1.6l-3.5-3.4v2.7h-2.2L242.1,20.2z M247.3,25.5l0.5-1.9
		l-1.9-1.4l-1.6,0.1l0.1,3.7L247.3,25.5z"/>
	<path d="M258.9,22.4l-2.6,0.1l-0.1-2.2L264,20l0.1,2.2l-2.9,0.1l0.2,10.2l-2.2,0.1L258.9,22.4z"/>
	<path d="M264.8,20.4l2.3-0.1l0.3,5.7l2.8-0.5V20h2.2v12.5h-2.2v-4.6l-2.8,0.5l0.2,3.8l-2.3,0.1L264.8,20.4z"/>
	<path d="M273.2,30.5L273.2,30.5c0-3.3,0.1-6.4,0.2-9.6v-0.3l5.9-0.8l0.4,2.1l-4.1,0.6l-0.1,3.3l4-0.1l0.1,2.2l-4.1,0.1l-0.1,1.9
		l0.1,0.1l4.2,0.5l-0.2,2.2l-5.4-0.6L273.2,30.5z"/>
	<path d="M286.2,19.9h2.2l-0.2,9.9l3.9-0.9l0.6,2.1l-6.7,1.6L286.2,19.9z"/>
	<path d="M296.1,20.3l3.7-0.5l2.1,12.4l-2.2,0.4l-0.5-3.4h-2.6l-0.7,3.4l-2.3-0.5L296.1,20.3z M298.7,27l-0.8-4.6L297,27H298.7z"/>
	<path d="M302.7,31.1l4.8-8.8l-4.1-0.1v-2.2l6.2,0.1l0.9,1.4l-4.7,8.7l4.3-0.2l0.1,2.2l-6.5,0.3L302.7,31.1z"/>
	<path d="M314.3,32.2c0-0.4,0-0.7,0-1.1l0.1-2.2c0-0.4,0-0.7,0-1.1c-0.1-0.1-0.1-0.1-0.1-0.2c-0.1-0.2-0.2-0.4-0.4-0.7
		c-0.3-0.6-0.6-1.4-1-2.2c-0.7-1.7-1.5-3.4-1.6-3.6l-0.1-0.4l2.1-0.8l2.2,5l2.4-5.1l2.1,0.9l-2.3,4.8c-0.2,0.5-0.4,0.8-0.6,1.1
		c-0.2,0.3-0.3,0.6-0.5,1.1v2.1c-0.1,1.1-0.1,2.3-0.1,2.4v0.4l-2.2-0.1V32.2z"/>
	<path d="M326.7,22.1l-0.5-0.1l0.2-2.1l5,0.3l2.8,4.9l-2.5,6.9l-5.1,0.7L326.7,22.1z M330.1,30l1.7-4.7l-1.8-3.1l-1.1-0.1l-0.1,8
		L330.1,30z"/>
	<path d="M335.1,28.9l1.3-8.6l5.3-0.3l0.1,0.3c0.1,0.2,0.5,1.7,0.9,3.2c0.2,0.7,0.4,1.4,0.5,1.9c0.1,0.3,0.2,0.5,0.2,0.7
		c0,0.1,0,0.1,0.1,0.2c0,0.1,0,0.2,0,0.2c0,0.1-0.3,1.6-0.6,2.8c-0.3,1.4-0.7,2.8-0.7,3.1l-0.1,0.3l-4.9,0.1L335.1,28.9z
		 M340.3,30.3c0.1-0.4,0.3-1.2,0.5-2c0.1-0.5,0.2-1,0.3-1.3c0.1-0.2,0.1-0.4,0.1-0.5c0-0.1,0-0.1,0.1-0.2c-0.1,0-0.1-0.1-0.1-0.1
		c-0.1-0.1-0.1-0.3-0.2-0.5c-0.1-0.4-0.2-0.9-0.4-1.5c-0.2-0.8-0.5-1.6-0.6-2.1l-1.7,0.2l-0.9,6.2l1,1.8H340.3z"/>
	<path d="M344.5,21.4l5.6-1.6l1.4,2.7l-2,0.9l-0.6-1l-2.2,0.6l-0.2,6.6l2.4,0.4l0.5-2l-1.9,0.1l-0.2-2.1l4.9-0.4l-1.6,6.9l-6.4-1
		L344.5,21.4z"/>
</g>
</svg>
