<?xml version="1.0" encoding="utf-8"?>
<!-- Generator: Adobe Illustrator 26.1.0, SVG Export Plug-In . SVG Version: 6.00 Build 0)  -->
<svg version="1.1" id="Layer_1" xmlns="http://www.w3.org/2000/svg" xmlns:xlink="http://www.w3.org/1999/xlink" x="0px" y="0px"
	 viewBox="0 0 372 36.9" style="enable-background:new 0 0 372 36.9;" xml:space="preserve">
<g>
	<path d="M7.1,5.9C6.5,5.9,6.3,5.4,6.3,5c0.1-0.5,0.5-1,1.1-1C8.6,3.8,9.9,3.9,11,3.9c0.8,0,3.2-0.4,3,1c-0.1,0.7-1,0.8-1.6,1
		c-0.6,0-1.2-0.1-1.7-0.1c-0.5,2.8-0.8,5.5-1.3,8.2c-0.2,0.8-0.2,1.9-0.7,2.6c-0.2,0.2-0.5,0.4-1,0.4c-0.6,0-0.7-0.5-0.7-0.8
		c0.1-3.4,1.2-7,1.9-10.3C8.4,5.7,7.7,5.9,7.1,5.9z"/>
	<path d="M20.5,5c0.1-0.5,0.6-0.8,1.2-0.8c0.6,0,0.7,0.4,0.7,0.8c-0.7,3.7-1.1,7.4-1.8,11.2C20.5,16.5,20,17,19.4,17
		c-0.4,0-0.6-0.2-0.7-0.6c-0.1-0.2-0.1-0.6,0-1.1c0.1-0.8,0.2-1.3,0.2-1.8c-0.6-0.1-1.3-0.1-1.9-0.1c-0.5,0-1,0-1.4,0
		c-0.1,1-0.1,1.8-0.4,2.8c-0.1,0.4-0.5,0.8-1.1,0.8s-1-0.5-0.8-0.8c0.1-3.6,1.2-7.6,1.9-11.2c0-0.5,0.6-0.8,1.1-0.8
		c0.6,0,0.8,0.4,0.7,0.8c-0.4,2.2-0.8,4.4-1.2,6.7c1.2-0.2,2.3-0.2,3.4-0.1L20.5,5z"/>
	<path d="M24.3,12.7c-0.1,0.2-0.2,1-0.2,1.6c0,1.3,1,1,1.9,0.5l0.8-0.2c0.1-0.1,0.4-0.1,0.6-0.1c0.6,0,0.7,0.6,0.6,0.8
		c0,1.1-3.1,1.8-4,1.8c-1.6,0-1.9-1.2-1.9-2.5c0-0.6,0.1-1.3,0.1-1.9c0.1-0.6,0.2-1.2,0.4-1.7c0.1-0.4,0.5-1.8,0.8-3.2
		c0.4-1.4,0.7-2.9,1.1-3.1c0.2-0.2,0.7-0.4,1-0.4c1.4-0.2,3-0.4,4.3-0.4c0.6,0,0.8,0.4,0.7,0.8c0,0.5-0.4,1-1.1,1
		c-1.2,0.2-2.4,0.2-3.6,0.2c-0.5,1.6-0.8,3.1-1.2,4.6v0.2c1-0.2,1.9-0.5,2.9-0.5c0.7,0,1,0.6,0.8,1c0,0.4-0.4,0.6-0.7,0.7
		c-0.4,0.1-0.8,0.2-1.2,0.4c-0.8,0.1-1.7,0.2-2.2,0.2V12.7z"/>
	<path d="M39.1,16.9c-3.2,0-3.2-4.1-2.9-5.9c0.4-1.9,2.3-7,5.5-7c3.4,0,3.2,3.8,2.9,5.8c-0.2,1.2-1,3.5-1.7,4.7
		c0.1,0.4,0.7,1.1,0.6,1.6c0,0.4-0.5,1-1.1,1c-0.5,0-0.8-0.5-1.1-0.8C40.7,16.5,39.9,16.9,39.1,16.9z M39.6,12
		c-0.2-0.7,0-1.4,1.1-1.4c0.2,0,0.5,0.1,0.6,0.4c0.2,0.2,0.5,0.8,0.7,1.3c0.4-1.1,0.6-2.2,0.8-3.1c0.1-1.1,0-3.2-1.3-3.2
		c-0.8,0-1.6,0.8-2.3,1.9c-0.6,1.1-1,2.3-1.1,2.9c-0.1,0.6-0.2,1.8,0,2.8c0.1,1,0.6,1.7,1.4,1.7c0.4,0,0.7-0.2,1.1-0.6
		C40.3,13.7,39.9,12.8,39.6,12z"/>
	<path d="M46.3,8.7c0.2-1.3,0.6-2.8,1.1-4.1c0.1-0.5,0.5-0.8,1.2-0.8c0.6,0,0.7,0.5,0.6,0.8c-0.2,1.2-0.6,2.4-0.8,3.6
		c-0.1,0.6-0.5,2.4-0.5,4c0,0.7,0,1.4,0.1,2c0.2,0.6,0.5,0.8,0.8,0.8c1.6,0,2.4-2.5,2.6-3.7c0.1-0.6,0.1-1.1,0.2-1.7l0.5-3.2
		c0.1-0.5,0.2-1.1,0.4-1.7c0-0.4,0.4-0.8,1.1-0.8c0.5,0,0.6,0.4,0.7,0.7c0.2,0.7-0.2,2.6-0.5,3.8c-0.1,0.6-0.2,1.3-0.4,2.3
		c-0.2,0.8-0.5,1.8-0.8,2.8c-0.7,1.8-1.9,3.4-4.2,3.4c-1.9,0-2.5-1.7-2.6-3.4C45.7,11.7,46.1,9.7,46.3,8.7z"/>
	<path d="M55.1,10.5c0.5-2.2,1-4.3,1.2-5.8c0.1-0.5,0.6-0.8,1.1-0.8c0.7,0,0.8,0.4,0.8,0.8c-0.2,1.3-0.6,2.9-0.8,4.2
		c-0.4,2.3-0.6,4.6-1,6.8l-0.1,0.2c0,0.4-0.5,0.8-1.1,0.8s-0.8-0.5-0.8-0.8C54.3,14.7,54.7,12.7,55.1,10.5z"/>
	<path d="M58.4,10.7c0.2-2.4,2.2-7.1,5-7.1c1.9,0,2.6,1.8,2.4,3.1c0,0.1,0,0.4-0.1,0.5c0,0.1,0,0.4-0.1,0.5c-0.1,0.2-0.5,0.6-1,0.6
		c-0.6,0-0.8-0.2-0.8-0.6c0-0.2,0.1-0.6,0.1-0.8c0.1-0.6-0.1-1.4-0.8-1.4c-0.2,0-0.5,0.2-0.8,0.6c-0.4,0.4-0.6,1-1,1.6
		c-0.8,1.8-1.2,3.6-1.2,5.5c0.1,1.1,0.4,1.8,1.1,1.8c0.6,0,1.1-1,1.3-1.4c0.2-0.5,0.7-1.6,1.4-1.6c0.6,0,1,0.5,0.8,0.8
		c-0.2,1.3-1.9,4.1-4,4.1c-1.6,0-2.3-1.2-2.5-2.5C58.1,13.1,58.2,11.5,58.4,10.7z"/>
	<path d="M67.7,15.6c-0.2,0.5-0.6,1.2-1.4,1.2c-0.6,0-0.7-0.5-0.7-0.8c0.5-3.6,1.3-7.3,2-10.9c0-0.4,0.5-1,1.1-1
		c0.6,0,0.8,0.6,0.7,1c-0.2,2.4-0.8,4.8-1.1,7.2c2.9-1.8,3.4-4.1,3.8-7.2c0.1-0.4,0.5-1,1.1-1c0.4,0,0.6,0.2,0.7,0.5
		c0.2,0.6-0.1,1.7-0.2,2.4c-0.4,1.7-1.1,3.7-2.6,5.2c0.8,0.2,1.2,0.8,1.3,1.7c0.1,0.8,0.1,1.8,0,2.4c-0.1,0.5-0.7,0.7-1.1,0.7
		c-0.5,0-0.7-0.4-0.8-0.6c0-0.2,0-0.4,0-0.6c0-1,0.2-1.9-1.1-1.9c-0.4,0-1.2,0.2-1.6,0.4C67.8,14.4,67.8,15,67.7,15.6z"/>
	<path d="M80.3,17c-0.7,0-0.8-0.5-0.7-1c0.6-3.2,1.4-6.5,2-9.6L81.7,6c-0.2-0.2-0.2-0.5-0.2-0.6c0.2-1.1,2.9-1.6,3.8-1.6
		c2.3,0,3.1,1.7,2.8,3.4c-0.2,1.6-1.4,2.9-2.9,4c1.3,0.4,1.9,1.2,1.7,2.4c-0.5,2-2.3,3.4-4.7,3.4c-0.5,0-0.8,0-1.3-0.1
		C80.7,16.9,80.5,17,80.3,17z M82.8,15.1c1,0,1.9-0.7,2.2-1.6c0.1-0.5-0.5-0.6-1.1-0.6c-0.6,0-1.2,0-1.7,0.1
		c-0.1,0.6-0.2,1.3-0.5,1.9C82.1,15,82.4,15.1,82.8,15.1z M86.1,7.2c0.2-1-0.2-1.6-1.3-1.6c-0.5,0-0.8,0.1-1.2,0.2
		c-0.2,1.6-0.6,3.2-1,4.9C84.2,9.8,85.9,8.6,86.1,7.2z"/>
	<path d="M89.7,16.1c0,0.4-0.4,0.8-1.1,0.8c-0.6,0-0.8-0.5-0.8-0.8c0.2-3.7,1-7.7,2-11.3c0.2-0.7,1-1,1.6-1c0.2,0,0.5,0,0.6,0
		c2.9,0,5,2.2,4.6,4.6c-0.4,1.6-1.7,2.9-3.2,3.7c0.1,0.4,0.5,1.2,0.7,1.9c0.4,0.8,0.7,1.7,0.6,1.9c0,0.4-0.5,1-1.1,1
		c-0.2,0-0.4-0.1-0.5-0.1c-0.4-0.5-0.7-1.2-1-1.7c-0.4-0.8-0.6-1.7-0.7-2.2c-0.5,0.1-0.8,0.2-1.3,0.2C90,14.1,90,15.1,89.7,16.1z
		 M94.7,8.4c0.2-1.6-1.3-2.8-3.1-2.8c-0.2,1-0.5,2-0.6,3.1c-0.2,0.8-0.4,1.7-0.5,2.5C92.3,11,94.3,9.9,94.7,8.4z"/>
	<path d="M97.1,10.9c0.4-1.7,2.2-7,5.4-7c3.4,0,3,4,2.6,5.9c-0.4,2.5-2.2,7.1-5.2,7.1C96.7,16.9,96.7,12.7,97.1,10.9z M100.2,15.1
		c1.8,0,2.9-4.7,3.1-6.1c0.1-0.5,0.1-1.3,0-2c-0.1-0.7-0.5-1.2-1.1-1.2c-0.8,0-1.6,0.8-2.2,1.9c-0.5,1.1-0.8,2.4-1,2.9
		c-0.1,0.6-0.2,1.7-0.1,2.8C99.1,14.4,99.5,15.1,100.2,15.1z"/>
	<path d="M109.1,11c0.6-1.6,1.1-3.4,1.8-4.8c0.4-0.5,0.5-0.6,1.2-0.6c0.6,0,0.7,0.1,0.8,0.6c0.1,0.7,0,1.6,0,2.3
		c0.1,1.2,0.2,2.4,0.4,3.7c0.5-1.6,1-3.2,1.3-4.8c0.2-0.8,0.4-1.8,0.6-2.6c0.1-0.5,0.5-1,1.2-1c0.7,0,0.8,0.5,0.7,1
		c-0.5,2.6-1.9,9-3.2,11.4c-0.1,0.4-0.5,0.7-1,0.7c-0.6,0-0.8-0.4-1-0.6c-0.4-1-0.5-2-0.7-3.1c0-0.7-0.1-1.6-0.1-2.3
		c-0.4,0.7-0.7,1.6-1.1,2.3c-0.5,1.1-1,2.2-1.7,3.1c-0.1,0.2-0.5,0.6-1.1,0.6c-0.4,0-0.5-0.2-0.6-0.6c-0.1-0.2-0.2-0.7-0.2-1.2
		c-0.1-1-0.1-2.3,0-3.7c0.1-2.8,0.6-5.8,0.7-6.6c0.1-0.5,0.5-1,1.2-1c0.6,0,0.8,0.5,0.8,1c-0.1,0.8-0.4,1.8-0.5,2.8
		c-0.1,1.6-0.4,3.2-0.4,4.9C108.6,12,108.8,11.5,109.1,11z"/>
	<path d="M123.5,5.1c0.1-0.5,0.4-1,1.1-1c0.5,0,0.6,0.4,0.7,0.6c0.1,0.4,0.1,0.7,0,1.1c0,0.8-0.2,1.8-0.4,2.2
		c-0.5,2.5-1.4,6-2.3,8.5c-0.1,0.2-0.4,0.4-0.7,0.4c-0.5,0-0.8-0.1-1-0.6c-0.5-2.2-1.2-4.1-1.7-6.2c-0.4,1.9-0.6,4-1.1,5.9
		c0,0.4-0.4,0.8-1.1,0.8c-1.4,0-0.7-2.6-0.5-3.5c0.1-1,0.4-1.9,0.5-2.8c0.2-0.8,0.4-1.8,0.6-2.8c0.1-1,0.4-1.9,0.7-2.8
		c0.1-0.4,0.7-0.8,1.1-0.8c0.5-0.1,0.7,0.2,0.7,0.5c0.2,0.8,0.4,1.8,0.5,2.8c0.4,1.6,0.7,3.2,1.2,4.8C122.5,9.8,123,7.5,123.5,5.1z"
		/>
	<path d="M132.8,16.1c-0.1,0.5-0.6,0.8-1.2,0.8c-0.2,0-0.5-0.1-0.6-0.2c0-0.2-0.1-0.5-0.1-0.7c-0.1-0.5,0-1.2,0-1.8
		c0.1-1.4,0.5-2.9,0.6-3.4c0.4-2,0.7-4.1,1.3-6.1c0.2-0.5,0.5-0.7,1.1-0.8c1.2-0.1,2.3-0.1,3.5-0.1c0.1,0,0.4,0,0.6,0
		c0.2,0,0.4,0,0.6,0.1c0.5,0,0.7,0.4,0.6,0.8c-0.1,0.7-1,1-1.7,1c-0.7,0-1.6,0-2,0h-1c-0.4,1.7-0.7,3.4-1.1,5c0.8,0,1.7-0.1,2.4-0.1
		c0.7,0,1.2,0.2,1.1,1c0,0.4-0.4,0.6-0.7,0.7c-0.2,0.1-0.7,0.2-1.1,0.2c-0.7,0.1-1.4,0.1-1.9,0.1C132.9,13.7,133.1,14.9,132.8,16.1z
		"/>
	<path d="M138.6,10.9c0.4-1.7,2.2-7,5.4-7c3.4,0,3,4,2.6,5.9c-0.4,2.5-2.2,7.1-5.2,7.1C138.2,16.9,138.2,12.7,138.6,10.9z
		 M141.7,15.1c1.8,0,2.9-4.7,3.1-6.1c0.1-0.5,0.1-1.3,0-2c-0.1-0.7-0.5-1.2-1.1-1.2c-0.8,0-1.6,0.8-2.2,1.9c-0.5,1.1-0.8,2.4-1,2.9
		c-0.1,0.6-0.2,1.7-0.1,2.8C140.6,14.4,141,15.1,141.7,15.1z"/>
	<path d="M149.5,15c-0.4,0.5-0.7,1-1.1,1.3c-0.1,0.2-0.5,0.7-0.8,0.7c-0.7,0-1-0.6-1-1.1c0.1-0.1,0.8-1.3,1.7-2.5
		c0.7-1.1,1.6-2.3,1.8-2.6c-0.1-0.5-0.5-1.8-0.7-3.1c-0.4-1.3-0.7-2.8-0.6-2.9c0-0.5,0.6-0.8,1.1-0.8c1.3,0,1.6,3.2,1.8,4.2
		c0.6-1.1,2-3.6,2.4-4c0.1-0.2,0.5-0.5,0.8-0.5c0.7,0,1,0.6,0.8,1c0,0.4-0.8,1.7-1.7,3c-0.7,1.2-1.6,2.5-1.8,3
		c0.1,0.5,0.5,1.7,0.8,2.8c0.4,1.2,0.7,2.4,0.6,2.8c-0.1,0.5-0.5,0.8-1.1,0.8c-0.5,0-0.7-0.4-0.8-0.7c-0.2-1.1-0.8-2.2-1.1-3.2
		C150.3,13.5,150,14.3,149.5,15z"/>
	<path d="M166.7,6.1c-0.4,0-0.6,0-0.8-0.1c-0.6-0.1-1-0.4-0.8-1c0-0.4,0.4-1,1-1l4.1,0.1c0.6,0,0.8,0.4,0.7,0.8s-0.4,0.8-0.7,1
		c-0.4,0-0.7,0-1,0c-0.5,2.3-0.7,4.4-1.1,6.7c-0.4,1.6-1.2,4.1-4,4.1c-2.2,0-3-1.8-2.8-3.4c0.1-0.4,0.5-0.8,1.2-0.8
		c0.4,0,0.6,0.1,0.7,0.5c0,0.2,0.1,0.5,0.1,0.8c0.1,0.6,0.2,1.1,1.1,1.1c1.1,0,1.3-1.2,1.4-2l0.7-3.2c0.2-1.2,0.4-2.4,0.6-3.6
		C167,6.1,166.8,6.1,166.7,6.1z"/>
	<path d="M171.1,8.7c0.2-1.3,0.6-2.8,1.1-4.1c0.1-0.5,0.5-0.8,1.2-0.8c0.6,0,0.7,0.5,0.6,0.8c-0.2,1.2-0.6,2.4-0.8,3.6
		c-0.1,0.6-0.5,2.4-0.5,4c0,0.7,0,1.4,0.1,2c0.2,0.6,0.5,0.8,0.8,0.8c1.6,0,2.4-2.5,2.6-3.7c0.1-0.6,0.1-1.1,0.2-1.7l0.5-3.2
		c0.1-0.5,0.2-1.1,0.4-1.7c0-0.4,0.4-0.8,1.1-0.8c0.5,0,0.6,0.4,0.7,0.7c0.2,0.7-0.2,2.6-0.5,3.8c-0.1,0.6-0.2,1.3-0.4,2.3
		c-0.2,0.8-0.5,1.8-0.8,2.8c-0.7,1.8-1.9,3.4-4.2,3.4c-1.9,0-2.5-1.7-2.6-3.4C170.5,11.7,170.9,9.7,171.1,8.7z"/>
	<path d="M180.9,15.9c-0.1,0.4-0.5,0.8-1.2,0.8c-0.5,0-0.8-0.4-0.8-0.7c-0.2-1.8,0.2-4.1,0.6-5.9c0.4-1.7,0.7-3.5,1.3-5.2
		c0.1-0.5,0.2-1,1.1-1c0.6,0,0.8,0.5,0.8,1c0,1.9,0.6,5.2,1.3,7.1c1.8-2.5,2.9-5.2,4.4-7.7c0.1-0.4,0.5-0.7,1-0.7
		c0.6,0,0.7,0.4,0.8,0.6c0.2,0.5-1.2,8.4-1.3,9.4c-0.2,0.8-0.2,1.9-0.7,2.6c-0.2,0.2-0.5,0.4-0.8,0.4c-0.7,0-1-0.5-1-0.8
		c0.1-1.1,0.2-2.3,0.5-3.6c0.1-0.6,0.4-1.2,0.5-1.9c-0.2,0.6-0.6,1.2-1,1.7c-0.7,1.2-1.7,2.5-2.8,2.5c-1.2,0-2.2-2.4-2.2-3.5
		C181.3,12.7,181.2,14.4,180.9,15.9z"/>
	<path d="M191.7,16.1c0,0.4-0.4,0.8-1.1,0.8c-0.6,0-0.8-0.4-0.8-0.8c0-0.8,0.1-1.9,0.2-2.9c0.2-1.1,0.5-2,0.6-3
		c0.4-1.8,0.7-3.7,1.3-5.4c0.1-0.5,0.4-0.7,0.7-0.8c0.4-0.1,0.8-0.1,1.2-0.1c3,0,5,2,4.6,4.7c-0.5,2.4-3.6,4.4-6.4,4.8
		C192,14.1,192,15.1,191.7,16.1z M196.4,8.5c0.4-1.8-1-2.6-2.9-2.9c-0.2,1.1-0.5,2.2-0.6,3.1c-0.2,0.8-0.4,1.8-0.5,2.6
		C194.1,11,196.2,9.9,196.4,8.5z"/>
	<path d="M200.1,12.9c0.7,0,0.7,0.6,0.7,1.2c0.1,0.5,0.2,1,1.3,1c1,0,1.7-0.6,1.9-1.4c0.1-1-1.7-1.2-2.4-1.4
		c-1.3-0.4-2.8-1.1-2.4-3.1c0.4-1.8,2.8-5.3,5.5-5.3c1.9,0,2.5,1.9,2.3,3.2c0,0.4-0.4,0.8-1.1,0.8c-0.4,0-0.6-0.1-0.7-0.5
		c-0.2-0.6,0.2-1.8-0.7-1.8c-1.3,0-3.1,2.3-3.4,3.4c-0.1,0.6,0.1,1,0.6,1.2c0.5,0.2,1.2,0.4,1.8,0.6c1.3,0.4,2.9,0.8,2.4,2.9
		c-0.2,1.7-2,3.2-4.2,3.2c-1.9,0-3.2-1.2-2.9-2.9C198.9,13.7,199.3,12.9,200.1,12.9z"/>
	<path d="M213.6,10.9c0.4-1.7,2.2-7,5.4-7c3.4,0,3,4,2.6,5.9c-0.4,2.5-2.2,7.1-5.2,7.1C213.2,16.9,213.2,12.7,213.6,10.9z
		 M216.7,15.1c1.8,0,2.9-4.7,3.1-6.1c0.1-0.5,0.1-1.3,0-2s-0.5-1.2-1.1-1.2c-0.8,0-1.6,0.8-2.2,1.9c-0.5,1.1-0.8,2.4-1,2.9
		c-0.1,0.6-0.2,1.7-0.1,2.8S216,15.1,216.7,15.1z"/>
	<path d="M228.9,4.4c0.1-0.4,0.5-0.7,1-0.7c0.7,0,1,0.6,0.8,1v0.2c-1,2.2-2.2,4.4-3.1,6.6c-0.7,1.6-1.2,3.2-1.9,4.8
		c-0.2,0.4-0.5,0.6-1.1,0.6c-0.5,0-0.8-0.2-1-0.6c-0.4-1-1.1-10.3-0.8-11.3c0-0.5,0.4-1.1,1.2-1.1c0.6,0,0.7,0.4,0.7,0.7
		c0.2,2.5,0.2,5,0.5,7.6C226.4,9.6,227.5,6.8,228.9,4.4z"/>
	<path d="M232.3,12.7c-0.1,0.2-0.2,1-0.2,1.6c0,1.3,1,1,1.9,0.5l0.8-0.2c0.1-0.1,0.4-0.1,0.6-0.1c0.6,0,0.7,0.6,0.6,0.8
		c0,1.1-3.1,1.8-4,1.8c-1.6,0-1.9-1.2-1.9-2.5c0-0.6,0.1-1.3,0.1-1.9c0.1-0.6,0.2-1.2,0.4-1.7c0.1-0.4,0.5-1.8,0.8-3.2
		c0.4-1.4,0.7-2.9,1.1-3.1c0.2-0.2,0.7-0.4,1-0.4c1.4-0.2,3-0.4,4.3-0.4c0.6,0,0.8,0.4,0.7,0.8c0,0.5-0.4,1-1.1,1
		c-1.2,0.2-2.4,0.2-3.6,0.2c-0.5,1.6-0.8,3.1-1.2,4.6v0.2c1-0.2,1.9-0.5,2.9-0.5c0.7,0,1,0.6,0.8,1c0,0.4-0.4,0.6-0.7,0.7
		c-0.4,0.1-0.8,0.2-1.2,0.4c-0.8,0.1-1.7,0.2-2.2,0.2V12.7z"/>
	<path d="M239.5,16.1c0,0.4-0.4,0.8-1.1,0.8c-0.6,0-0.8-0.5-0.8-0.8c0.2-3.7,1-7.7,2-11.3c0.2-0.7,1-1,1.6-1c0.2,0,0.5,0,0.6,0
		c2.9,0,5,2.2,4.6,4.6c-0.4,1.6-1.7,2.9-3.2,3.7c0.1,0.4,0.5,1.2,0.7,1.9c0.4,0.8,0.7,1.7,0.6,1.9c0,0.4-0.5,1-1.1,1
		c-0.2,0-0.4-0.1-0.5-0.1c-0.4-0.5-0.7-1.2-1-1.7c-0.4-0.8-0.6-1.7-0.7-2.2c-0.5,0.1-0.8,0.2-1.3,0.2
		C239.7,14.1,239.7,15.1,239.5,16.1z M244.4,8.4c0.2-1.6-1.3-2.8-3.1-2.8c-0.2,1-0.5,2-0.6,3.1c-0.2,0.8-0.4,1.7-0.5,2.5
		C242,11,244.1,9.9,244.4,8.4z"/>
	<path d="M254.7,5.9c-0.6,0-0.7-0.5-0.7-0.8c0.1-0.5,0.5-1,1.1-1c1.2-0.2,2.5-0.1,3.6-0.1c0.8,0,3.2-0.4,3,1c-0.1,0.7-1,0.8-1.6,1
		c-0.6,0-1.2-0.1-1.7-0.1c-0.5,2.8-0.8,5.5-1.3,8.2c-0.2,0.8-0.2,1.9-0.7,2.6c-0.2,0.2-0.5,0.4-1,0.4c-0.6,0-0.7-0.5-0.7-0.8
		c0.1-3.4,1.2-7,1.9-10.3C256.1,5.7,255.3,5.9,254.7,5.9z"/>
	<path d="M268.2,5c0.1-0.5,0.6-0.8,1.2-0.8c0.6,0,0.7,0.4,0.7,0.8c-0.7,3.7-1.1,7.4-1.8,11.2c-0.1,0.4-0.6,0.8-1.2,0.8
		c-0.4,0-0.6-0.2-0.7-0.6c-0.1-0.2-0.1-0.6,0-1.1c0.1-0.8,0.2-1.3,0.2-1.8c-0.6-0.1-1.3-0.1-1.9-0.1c-0.5,0-1,0-1.4,0
		c-0.1,1-0.1,1.8-0.4,2.8c-0.1,0.4-0.5,0.8-1.1,0.8c-0.6,0-1-0.5-0.8-0.8c0.1-3.6,1.2-7.6,1.9-11.2c0-0.5,0.6-0.8,1.1-0.8
		c0.6,0,0.8,0.4,0.7,0.8c-0.4,2.2-0.8,4.4-1.2,6.7c1.2-0.2,2.3-0.2,3.4-0.1L268.2,5z"/>
	<path d="M272,12.7c-0.1,0.2-0.2,1-0.2,1.6c0,1.3,1,1,1.9,0.5l0.8-0.2c0.1-0.1,0.4-0.1,0.6-0.1c0.6,0,0.7,0.6,0.6,0.8
		c0,1.1-3.1,1.8-4,1.8c-1.6,0-1.9-1.2-1.9-2.5c0-0.6,0.1-1.3,0.1-1.9c0.1-0.6,0.2-1.2,0.4-1.7c0.1-0.4,0.5-1.8,0.8-3.2
		c0.4-1.4,0.7-2.9,1.1-3.1c0.2-0.2,0.7-0.4,1-0.4c1.4-0.2,3-0.4,4.3-0.4c0.6,0,0.8,0.4,0.7,0.8c0,0.5-0.4,1-1.1,1
		c-1.2,0.2-2.4,0.2-3.6,0.2c-0.5,1.6-0.8,3.1-1.2,4.6v0.2c1-0.2,1.9-0.5,2.9-0.5c0.7,0,1,0.6,0.8,1c0,0.4-0.4,0.6-0.7,0.7
		c-0.4,0.1-0.8,0.2-1.2,0.4c-0.8,0.1-1.7,0.2-2.2,0.2V12.7z"/>
	<path d="M286.8,14.4c0.6-0.1,1.2-0.2,1.8-0.2c0.7,0,1,0.5,0.8,1c-0.5,1.4-4,1.6-5.3,1.6c-0.8,0-1-0.6-1-1.2c0-3,1.3-7.9,2.3-10.7
		c0.1-0.5,0.6-0.8,1.2-0.8c0.7,0,0.7,0.5,0.7,0.8c-0.6,2.6-1.3,5.4-1.9,8c0,0.6-0.2,1.2-0.2,1.8C285.7,14.6,286.3,14.5,286.8,14.4z"
		/>
	<path d="M292.4,16.2c0,0.4-0.4,0.8-1.1,0.8c-0.6,0-0.8-0.5-0.8-0.8c0.1-1.6,0.4-3.1,0.7-4.7c0.4-2.6,1.9-7.6,5.2-7.6
		c1.9,0,2.4,1.8,2.4,3.6c0,1.9-0.5,4.1-0.6,5c-0.1,0.4-0.2,1.4-0.5,2.4c-0.1,0.7-0.6,2-1.4,2c-0.4,0-0.6-0.2-0.7-0.5
		c0-0.2,0-0.6,0-1c0.1-0.6,0.4-1.2,0.5-1.6c-0.6-0.1-1.1-0.1-1.6-0.1c-0.6,0-1.2,0-1.8,0.1C292.7,14.7,292.5,15.5,292.4,16.2z
		 M294.9,12c0.5,0,1,0.1,1.4,0.1c0.1-0.5,0.5-2.2,0.5-3.6c0.1-0.7,0-1.4-0.1-2c-0.1-0.5-0.4-0.7-0.7-0.7c-1.6,0-2.9,4.3-2.9,5.6
		l-0.2,0.8C293.6,12.1,294.3,12,294.9,12z"/>
	<path d="M302.5,14.9c0.5,0,1.3,0,2,0c0.7,0.1,1.4,0.4,1.3,1.1c0,0.5-0.5,0.8-1.1,0.8c-0.2,0-0.5,0-0.7,0h-1.2
		c-0.2,0-0.5-0.1-0.7-0.1c-0.5,0-1,0.1-1.4,0.2c-0.2,0-0.5,0.1-0.7,0.1s-0.5,0-0.7,0c-0.5,0-0.8-0.5-0.7-0.8c0.2-1.1,5.5-8.5,7-10.4
		c-1.3,0-2.6,0-3.8,0c-0.7,0-0.8-0.5-0.8-0.8c0.1-0.5,0.5-0.8,1.1-1c1.8-0.1,3.8-0.1,5.5-0.1c0.7,0,1.1,0.7,0.6,1.4
		c-2.3,3.2-4.7,6.4-6.7,9.6C301.7,14.9,302.1,14.9,302.5,14.9z"/>
	<path d="M310.2,13.4c-1.3,0-1.7-1.1-1.8-2.3c-0.1-1.1,0.1-2.4,0.2-3.1c0-1.1,0.7-4,2-4c0.4,0,0.7,0.2,0.7,0.7c-0.2,1-0.6,1.9-0.8,3
		c-0.1,0.8-0.5,2.5-0.2,3.4c0.1,0.2,0.2,0.4,0.4,0.4c0.4,0,0.6-0.2,1-0.8c0.5-0.5,0.7-1.3,1.1-2c0.6-1.6,1-3.4,1.2-3.8
		c0.1-0.5,0.4-0.8,1.1-0.8c0.4,0,0.6,0.1,0.6,0.4c0.1,0.2,0.1,0.6,0.1,0.8l-0.5,1.6c-0.4,1.9-0.6,4-1,5.9c-0.1,0.6-0.4,1.8-1,2.6
		c-0.5,1-1.3,1.8-2.6,1.8s-2.8-0.6-2.5-2c0.1-0.4,0.6-0.7,1.1-0.7c0.4,0,0.5,0,0.6,0.1l0.1,0.2c0.2,0.5,0.2,0.6,0.8,0.6
		c0.8,0,1.3-1.4,1.4-2.2c0-0.2,0.1-0.5,0.1-0.6C311.7,12.9,310.9,13.4,310.2,13.4z"/>
	<path d="M321.7,17c-0.7,0-0.8-0.5-0.8-0.8c0.2-1.9,0.8-3.8,1.2-5.8c0.2-1.6,0.6-3.2,0.8-4.9c0-0.1-0.1-0.4,0-0.6c0.2-1,1.9-1,2.6-1
		c4.1,0,4.2,4.4,3.7,7c-0.6,2.9-3,6-6.8,5.9C322.2,17,321.9,17,321.7,17z M327.3,10.9c0.4-1.9,0.4-5.2-2.3-5.2h-0.4
		c-0.5,3.1-1,6.1-1.6,9.1C325.5,14.7,326.9,12.9,327.3,10.9z"/>
	<path d="M330.3,10.9c0.4-1.7,2.2-7,5.4-7c3.4,0,3,4,2.6,5.9c-0.4,2.5-2.2,7.1-5.2,7.1C330,16.9,330,12.7,330.3,10.9z M333.5,15.1
		c1.8,0,2.9-4.7,3.1-6.1c0.1-0.5,0.1-1.3,0-2s-0.5-1.2-1.1-1.2c-0.8,0-1.6,0.8-2.2,1.9c-0.5,1.1-0.8,2.4-1,2.9
		c-0.1,0.6-0.2,1.7-0.1,2.8S332.7,15.1,333.5,15.1z"/>
	<path d="M342.8,11.7c-0.7,0-0.8-0.5-0.8-1c0.1-0.7,1-1,1.6-1c0.6-0.1,1.4,0,1.8,0c0.8,0,1.7,0.1,1.4,1.1c-0.2,2.4-1.8,5.9-4.6,5.9
		c-3.5,0-3.2-4.4-2.9-6.4c0.4-1.8,2.2-6.6,5.5-6.6c1.9,0,2.2,1.6,1.9,2.9c0,0.1,0,0.2,0,0.4c-0.1,0.1-0.1,0.2-0.2,0.4
		c-0.1,0.4-0.5,0.6-1,0.6c-0.5,0-0.7-0.2-0.7-0.6c0-0.5,0.4-1,0.1-1.6c-0.1-0.1-0.2-0.2-0.6-0.2c-0.6,0-1.3,0.7-2,1.8
		c-0.6,1.1-1,2.3-1.1,2.9c-0.1,0.5-0.1,1.7,0,2.8c0.1,1.1,0.5,1.8,1.2,1.8c0.6,0,1.1-0.5,1.6-1.3c0.2-0.6,0.5-1.3,0.6-1.9
		C344,11.7,343.4,11.7,342.8,11.7z"/>
	<path d="M7.1,21.7c-0.6,0-0.8-0.5-0.7-0.8c0.1-0.7,1.1-1,1.8-1.1c0.8-0.1,1.7,0,2.3,0c0.4,0,1.3-0.1,2.2,0c0.7,0,1.6,0.2,1.4,1
		c-0.1,0.7-1,1-1.7,1c-0.5,0-1.2,0-1.6-0.1c-0.7,3.5-1.1,7.1-1.8,10.6C8.9,32.7,8.3,33,7.8,33c-0.6,0-0.8-0.4-0.8-0.7
		c0.2-3.2,1.3-7.3,1.9-10.7C8.3,21.7,7.7,21.7,7.1,21.7z"/>
	<path d="M20.5,21c0.1-0.5,0.6-0.8,1.2-0.8c0.6,0,0.7,0.4,0.7,0.8c-0.7,3.7-1.1,7.4-1.8,11.2C20.5,32.5,20,33,19.4,33
		c-0.4,0-0.6-0.2-0.7-0.6c-0.1-0.2-0.1-0.6,0-1.1c0.1-0.7,0.2-1,0.2-1.8c-0.6-0.1-1.3-0.1-1.9-0.1c-0.5,0-1,0-1.4,0
		c-0.1,1-0.1,1.8-0.4,2.8c-0.1,0.4-0.5,0.8-1.1,0.8s-1-0.5-0.8-0.8c0.1-3.6,1.2-7.6,1.9-11.2c0-0.5,0.6-0.8,1.1-0.8
		c0.6,0,0.8,0.4,0.7,0.8c-0.4,2.2-0.8,4.4-1.2,6.7c1.2-0.2,2.3-0.2,3.4-0.1L20.5,21z"/>
	<path d="M24.1,30.1c0,0.6,0.1,1,0.6,1c0.6,0,1.2-0.4,1.8-0.7c0.2-0.1,1-0.8,1.3-0.8c0.6,0,1,0.6,0.8,1c-0.2,1.2-3.4,2.5-4.6,2.5
		c-1.4,0-1.9-1.1-1.9-2c-0.1-0.6,0-1.2,0-1.7c0.1-0.6,0.2-1.1,0.2-1.4c0.1-0.5,0.5-2.3,1-3.8c0.4-1.6,0.8-3.2,1.2-3.6
		c0,0,0.1-0.1,0.2-0.1c0.5-0.2,1.9-0.4,2.4-0.4c1.2-0.1,2.5-0.1,2.8-0.1c0.4,0,0.5,0.1,0.6,0.2c0,0.2,0.1,0.5,0,0.6
		c0,0.4-0.4,1-1.1,1c-1.2,0.1-2.4,0.1-3.6,0.2c-0.6,1.6-1,3.1-1.3,4.8c1-0.2,2-0.5,3-0.5c0.7,0,1,0.6,0.8,1c0,0.4-0.4,0.6-0.7,0.7
		c-0.4,0.1-0.8,0.2-1.2,0.4c-0.8,0.1-1.7,0.1-2.2,0.2C24.2,28.8,24.1,29.5,24.1,30.1z"/>
	<path d="M38.9,32.9c-3.2,0-2.9-4.3-2.5-6.1s2-6.8,5.4-6.8c1.6,0,2.2,1.3,2.4,2.6c0.2,1.4,0.1,3-0.1,3.8c-0.2,1.3-0.7,2.9-1.3,4.1
		c0,0,0.5,1.1,0.6,1.2c0,0.7-0.2,1.4-1.2,1.4c-0.5,0-0.7-0.5-1-0.8C40.4,32.7,39.6,32.9,38.9,32.9z M39.6,29.1
		c-0.1-0.4-0.2-0.7-0.4-1c0-0.1-0.2-0.5-0.1-0.7c0-0.4,0.6-0.7,1.1-0.7c0.2,0,0.5,0.1,0.6,0.4c0.5,0.5,0.7,1,1,1.6
		c0.2-0.7,0.5-1.6,0.6-2.3c0.1-0.5,0.2-1.7,0.2-2.6c-0.1-1.1-0.5-1.8-1.2-1.8c-1.7,0-3,3.6-3.2,4.9c-0.1,0.5-0.1,1.7,0,2.6
		c0.1,1.1,0.5,1.8,1.1,1.8c0.4,0,0.8-0.4,1.1-0.6C40.2,30.3,39.9,29.7,39.6,29.1z"/>
	<path d="M47.9,33c-1.8,0-2.4-1.7-2.5-3.4c-0.1-1.7,0.2-3.7,0.4-4.7c0.4-1.4,0.6-3,1.1-4.3c0.1-0.5,0.6-0.8,1.2-0.8s0.8,0.4,0.8,0.8
		c-0.2,1.3-0.8,2.6-1.1,4c-0.1,0.5-0.4,2.2-0.4,3.7c0,0.7,0,1.4,0.2,1.9c0.1,0.6,0.4,0.8,0.7,0.8c1.2,0,2.2-1.9,2.6-4.3
		c0.6-2.4,0.8-5,1-6c0.1-0.5,0.6-0.8,1.2-0.8c0.6,0,0.8,0.4,0.8,0.8c-0.1,2.8-1.1,5.8-1.4,8.5c-0.1,0.7-0.4,1.4,0.1,2
		c0.2,0.1,0.4,0.4,0.2,0.6c-0.1,0.5-0.6,1-1.2,1s-1-0.5-1.1-1C49.8,32.4,48.9,33,47.9,33z"/>
	<path d="M55.5,26.5c0.5-2.2,1-4.3,1.2-5.8c0.1-0.5,0.6-0.8,1.1-0.8c0.7,0,0.8,0.4,0.8,0.8c-0.2,1.3-0.6,2.9-0.8,4.2
		c-0.4,2.3-0.6,4.6-1,6.8l-0.1,0.2c0,0.4-0.5,0.8-1.1,0.8s-0.8-0.5-0.8-0.8C54.8,30.7,55.2,28.7,55.5,26.5z"/>
	<path d="M58.8,26.8c0.6-2.5,1.9-7.1,5.2-7.1c1.9,0,2.6,1.9,2.3,3.2c0,0.8-0.7,2.2-1.7,2.2c-0.5,0-0.8-0.4-0.8-0.8
		c0.1-0.2,0.2-0.5,0.4-0.7c0.1-0.4,0.2-0.6,0.2-0.8c0.1-0.5-0.1-1.2-0.6-1.2c-1.6,0-2.8,3.8-3,5.2c-0.1,0.5-0.2,1.6-0.1,2.5
		c0,1.1,0.4,1.8,1,1.8c0.2,0,0.5-0.1,0.7-0.4c0.2-0.2,0.5-0.6,0.7-1c0.1-0.4,0.4-0.8,0.6-1.1c0.1-0.2,0.5-0.6,0.8-0.6
		c0.6,0,1,0.5,0.8,1c-0.2,1.2-2,4-4.1,4c-1.6,0-2.3-1.2-2.5-2.4C58.4,29.2,58.7,27.6,58.8,26.8z"/>
	<path d="M68.1,31.6c-0.2,0.5-0.6,1.2-1.4,1.2c-0.6,0-0.7-0.5-0.7-0.8c0.5-3.6,1.3-7.3,2-10.9c0-0.4,0.5-1,1.1-1
		c0.6,0,0.8,0.6,0.7,1c-0.2,2.4-0.8,4.8-1.1,7.2c2.9-1.8,3.4-4.1,3.8-7.2c0.1-0.4,0.5-1,1.1-1c0.7,0,0.8,0.7,0.8,1.3
		c-0.1,0.6-0.2,1.2-0.4,1.6c-0.4,1.7-1.1,3.7-2.6,5.2c0.8,0.2,1.2,0.8,1.3,1.7c0.1,0.8,0.1,1.8,0,2.4c-0.1,0.5-0.7,0.7-1.1,0.7
		c-0.5,0-0.7-0.4-0.8-0.6c0-0.2,0-0.4,0-0.6c0-1,0.2-1.9-1.1-1.9c-0.4,0-1.2,0.2-1.6,0.4C68.3,30.4,68.3,31,68.1,31.6z"/>
	<path d="M80.6,33c-0.4,0-0.8-0.2-0.8-0.7c0.7-3.4,1.4-6.8,2.2-10.3c-0.1-0.1-0.1-0.4-0.1-0.6c0.2-1.1,2.9-1.6,3.8-1.6
		c2.4,0,3.1,1.7,2.8,3.5c-0.2,1.4-1.4,2.8-2.8,3.8c1.2,0.4,1.8,1.2,1.6,2.4c-0.4,2-2.3,3.4-4.7,3.4c-0.5,0-0.8,0-1.2-0.1
		C81.1,32.9,80.9,33,80.6,33z M83.1,31c1.1,0,1.9-0.5,2.2-1.4c0.1-0.5-0.5-0.6-1.1-0.6c-0.6,0-1.1,0-1.7,0.1
		c-0.1,0.6-0.4,1.2-0.5,1.9C82.4,31,82.8,31,83.1,31z M86.5,23.2c0.1-1-0.2-1.6-1.3-1.6c-0.4,0-0.8,0.1-1.2,0.2
		c-0.4,1.6-0.6,3.2-1,4.9C84.6,25.9,86.3,24.6,86.5,23.2z"/>
	<path d="M90.1,32.2C90,32.5,89.6,33,89,33s-0.8-0.5-0.8-0.8c0-2,0.5-4.3,0.8-6.4c0.2-0.7,0.4-1.7,0.5-2.5c0.2-0.8,0.4-1.8,0.7-2.5
		c0.2-0.5,0.6-0.7,1-0.8c0.2,0,0.4-0.1,0.6-0.1c0.2,0,0.4,0,0.6,0c2.9,0,5,2.2,4.6,4.7c-0.4,1.6-1.7,2.9-3.2,3.7
		c0.1,0.6,0.4,1.2,0.5,1.7c0.2,0.6,0.5,1.2,0.8,1.8c0.1,0.1,0.1,0.2,0.1,0.4c-0.1,0.5-0.7,1-1.2,1s-0.7-0.4-1-0.6
		c-0.2-0.4-0.5-0.8-0.7-1.3c-0.2-0.7-0.5-1.6-0.6-2c-0.4,0.1-0.8,0.1-1.2,0.2C90.3,30.1,90.3,31.2,90.1,32.2z M94.9,24.7
		c0.2-1.1-0.2-2-1.2-2.6c-0.5-0.4-1.1-0.5-1.8-0.5c-0.2,1-0.5,1.9-0.6,2.9c-0.2,1-0.4,1.9-0.5,2.9C92.4,27,94.7,25.9,94.9,24.7z"/>
	<path d="M97.4,26.8c0.4-2.4,2.3-7,5.2-7c1.7,0,2.3,1.4,2.5,2.9c0.1,1.4-0.1,3.1-0.2,4c-0.4,1.8-1.6,6.2-5,6.2
		c-1.6,0-2.3-1.1-2.5-2.4C97.1,29.2,97.2,27.6,97.4,26.8z M100.3,31.1c1.8,0,2.8-4.8,3-6.1c0-0.4,0.1-1.2,0-1.9
		c-0.1-0.8-0.4-1.3-1-1.3c-1.6,0-2.9,3.6-3.1,4.9c0,0.5-0.1,1.6-0.1,2.6C99.2,30.4,99.6,31.1,100.3,31.1z"/>
	<path d="M109.9,25.5c0.2-1.1,0.7-2,1.2-3.1c0.2-0.2,0.7-0.7,1.2-0.7c0.6,0,1,0.2,1,0.7c0.2,1.1,0.2,2.3,0.4,3.5
		c0.1,1.1,0.2,2.3,0.5,3.4c0.8-2.9,1.2-5.8,2-8.4c0.1-0.5,0.5-1,1.2-1c0.7,0,0.8,0.5,0.8,1c-0.4,1.6-0.7,3.7-1.3,5.8
		c-0.5,2.2-1.2,4.2-2,5.8c-0.2,0.5-0.6,0.7-1.2,0.7c-0.5,0-0.8-0.2-1-0.6c-0.5-0.7-0.7-2.2-0.8-3.5c-0.1-1.1-0.1-2.2-0.2-3
		c-0.4,0.8-1,2.2-1.6,3.5c-0.4,0.8-0.8,1.8-1.3,2.4c-0.2,0.4-0.5,0.6-0.6,0.8c-0.2,0.1-0.5,0.4-0.8,0.4c-0.5,0-0.8-0.4-1-0.7
		c-0.6-2.3,0.2-9,0.7-11.5c0.1-0.5,0.4-1,1.1-1c0.7,0,1,0.5,1,1c-0.1,0.8-0.4,1.8-0.5,2.6c-0.2,2-0.6,4.1-0.6,6
		C108.7,28.1,109.3,26.8,109.9,25.5z"/>
	<path d="M123.9,24.3c0.2-1.1,0.2-2.2,0.5-3.2c0.1-0.5,0.6-0.8,1.1-0.8c0.7,0,0.8,0.4,0.8,0.8c-0.1,1.4-0.4,3-0.7,4.4
		c-0.1,1-1.3,6.1-1.8,6.8c-0.2,0.5-0.6,0.6-1.1,0.6c-0.8,0-1.6-3-1.8-3.6c-0.2-1.1-0.6-2.3-0.7-3.1l-0.7,4.3c-0.1,0.5-0.2,1-0.2,1.4
		c-0.1,0.4-0.6,0.8-1.2,0.8c-0.6,0-0.8-0.5-0.8-0.8c0-0.8,0.1-1.8,0.4-2.8c0.1-0.8,0.4-1.8,0.5-2.6c0.4-1.8,0.8-3.6,1.2-5.4
		c0.1-0.2,0.1-0.5,0.4-0.6c0.1-0.2,0.4-0.4,0.8-0.4c0.1,0,0.2,0,0.4,0.1c0.4,0.1,0.8,2.2,1.3,4.2c0.4,1.4,0.6,3,0.8,4
		C123.3,27,123.7,25.6,123.9,24.3z"/>
	<path d="M133.8,32.2c-0.1,0.5-0.7,0.8-1.3,0.8c-0.2,0-0.4-0.1-0.5-0.2c-0.1-0.2-0.1-0.4-0.1-0.6c-0.1-0.6-0.1-1.2,0-1.9
		c0.1-1.3,0.5-2.9,0.5-3.2c0.5-2,0.8-4.2,1.4-6.2c0.1-0.5,0.5-0.7,1.1-0.7c1.1,0,2.2-0.2,3.2-0.2c0.1,0,0.4,0,0.6,0
		c0.6,0,1.6,0.1,1.4,1c-0.1,0.4-0.5,0.8-1.1,0.8h-3.6c-0.4,1.8-0.7,3.5-1.1,5.3c0.8-0.1,1.8-0.2,2.8-0.2c0.6,0,0.8,0.6,0.7,1
		s-0.5,1-1.1,1c-1,0-1.8,0.1-2.8,0.1C133.9,29.8,133.9,31,133.8,32.2z"/>
	<path d="M139.4,26.8c0.4-2.4,2.3-7,5.2-7c1.7,0,2.3,1.4,2.5,2.9c0.1,1.4-0.1,3.1-0.2,4c-0.4,1.8-1.6,6.2-5,6.2
		c-1.6,0-2.3-1.1-2.5-2.4C139.1,29.2,139.2,27.6,139.4,26.8z M142.3,31.1c1.8,0,2.8-4.8,3-6.1c0-0.4,0.1-1.2,0-1.9
		c-0.1-0.8-0.4-1.3-1-1.3c-1.6,0-2.9,3.6-3.1,4.9c0,0.5-0.1,1.6-0.1,2.6C141.2,30.4,141.6,31.1,142.3,31.1z"/>
	<path d="M149.9,31c-0.4,0.5-0.7,1-1.1,1.3c-0.1,0.2-0.2,0.4-0.4,0.5l-0.5,0.2c-0.7,0-1-0.6-1-1.1c0.1-0.1,0.8-1.3,1.7-2.5
		c0.7-1.1,1.6-2.3,1.8-2.6c-0.1-0.5-0.5-1.8-0.7-3.1c-0.4-1.3-0.7-2.8-0.6-2.9c0-0.5,0.6-0.8,1.1-0.8c1.1,0,1.3,2.5,1.8,4.2
		c0.6-1.1,2-3.6,2.4-4c0.1-0.2,0.5-0.5,0.8-0.5c0.7,0,1,0.6,0.8,1c0,0.4-0.8,1.7-1.7,3c-0.7,1.2-1.6,2.5-1.8,3
		c0.1,0.5,0.5,1.7,0.8,2.8c0.4,1.2,0.7,2.4,0.6,2.8c-0.1,0.5-0.5,0.8-1.1,0.8c-0.5,0-0.7-0.4-0.8-0.7c-0.1-0.6-0.4-1.2-0.6-1.8
		c-0.1-0.5-0.2-1-0.5-1.4C150.7,29.5,150.3,30.3,149.9,31z"/>
	<path d="M166.5,21.7c-0.6-0.1-1.1-0.4-1-1c0-0.4,0.5-1,1.1-1c0.8,0,1.6,0.4,2.5,0.4c0.5,0,1-0.2,1.6-0.2c0.6,0,0.7,0.6,0.7,1
		c-0.2,0.7-1.1,1.1-1.8,1.1c-0.4,2.2-0.7,4.4-1.2,6.6c-0.2,1.6-1,4.2-3.8,4.2c-2.2,0-3.4-1.9-3-3.6c0.1-0.2,0.4-0.8,0.6-1.3
		c0.4-0.5,0.8-1,1.4-1c0.7,0,1,0.6,0.8,1c-0.1,0.7-0.7,0.6-0.8,1.2c-0.1,1,0.4,1.8,1.4,1.8c0.7,0,1.2-1.1,1.3-1.7
		c0.4-1,0.5-2,0.5-2.5l1-4.7C167.5,22,166.9,21.9,166.5,21.7z"/>
	<path d="M173.7,33c-1.8,0-2.4-1.7-2.5-3.4c-0.1-1.7,0.2-3.7,0.4-4.7c0.4-1.4,0.6-3,1.1-4.3c0.1-0.5,0.6-0.8,1.2-0.8
		s0.8,0.4,0.8,0.8c-0.2,1.3-0.8,2.6-1.1,4c-0.1,0.5-0.4,2.2-0.4,3.7c0,0.7,0,1.4,0.2,1.9c0.1,0.6,0.4,0.8,0.7,0.8
		c1.2,0,2.2-1.9,2.6-4.3c0.6-2.4,0.8-5,1-6c0.1-0.5,0.6-0.8,1.2-0.8c0.6,0,0.8,0.4,0.8,0.8c-0.1,2.8-1.1,5.8-1.4,8.5
		c-0.1,0.7-0.4,1.4,0.1,2c0.2,0.1,0.4,0.4,0.2,0.6c-0.1,0.5-0.6,1-1.2,1s-1-0.5-1.1-1C175.7,32.4,174.8,33,173.7,33z"/>
	<path d="M182.5,31.9c-0.1,0.4-0.5,0.8-1.2,0.8c-0.5,0-0.8-0.4-0.8-0.7c-0.1-0.8-0.2-1.6,0-2.9c0.2-1.1,0.4-2,0.6-3
		c0.4-1.7,0.7-3.5,1.3-5.2c0.1-0.5,0.2-1,1.1-1c0.6,0,0.8,0.5,0.8,1c0,1.9,0.6,5.2,1.3,7.1c1.8-2.5,2.9-5.2,4.4-7.7
		c0.1-0.4,0.5-0.7,1-0.7c0.6,0,0.7,0.4,0.8,0.6c0.2,0.5-1.2,8.4-1.3,9.4c-0.1,0.4-0.2,1.1-0.4,1.7c-0.1,0.4-0.2,0.6-0.4,1
		c-0.2,0.2-0.5,0.4-0.8,0.4c-0.7,0-1-0.5-1-0.8c0.1-1.1,0.2-2.3,0.5-3.6c0.1-0.6,0.4-1.2,0.5-1.9c-0.2,0.6-0.6,1.2-1,1.7
		c-0.7,1.2-1.7,2.5-2.8,2.5c-1.2,0-2.2-2.4-2.2-3.5C182.9,28.7,182.7,30.4,182.5,31.9z"/>
	<path d="M195.5,19.8c3.1,0,5,2.2,4.6,4.7c-0.5,2.4-3.6,4.4-6.2,4.8c-0.2,1-0.1,1.9-0.4,2.9c-0.1,0.4-0.5,0.8-1.1,0.8
		c-0.7,0-0.8-0.5-0.8-0.8c-0.1-1,0-2,0.2-3.1s0.5-2.2,0.6-3.2c0.4-1.6,0.6-3.5,1.2-5C193.9,19.8,194.7,19.8,195.5,19.8z M198.1,24.4
		c0.2-1.7-1.1-2.5-2.9-2.6c-0.5,1.8-0.8,3.7-1.2,5.6C195.8,27,197.7,25.9,198.1,24.4z"/>
	<path d="M201,29.4c0.2-0.2,0.5-0.5,1-0.5c0.6,0,0.8,0.2,0.8,0.6l-0.1,0.4c0,0.2,0,0.4,0,0.5c-0.1,0.5,0.4,0.7,1,0.7
		c1.2,0,1.8-0.5,1.9-1.6c0.1-0.2-0.1-0.5-0.6-0.7c-0.5-0.2-1.2-0.5-1.7-0.6c-1.3-0.5-2.8-1.2-2.4-2.9c0.4-1.9,2.6-5.6,5.5-5.6
		c1.9,0,2.5,2,2.3,3.2c0,0.5-0.5,1-1.1,1c-0.4,0-0.6-0.2-0.7-0.5c0-0.2,0-0.5,0-0.8c-0.1-0.5-0.1-1-0.8-1c-1.3,0-3,2.3-3.2,3.4
		c-0.1,0.6,0.1,1,0.6,1.2c0.5,0.2,1.2,0.4,1.8,0.6c1.3,0.2,2.8,0.8,2.4,2.8c-0.4,1.9-2.2,3.4-4.4,3.4c-1.8,0-2.8-1.2-2.5-2.6
		C200.7,30,200.7,29.8,201,29.4z"/>
	<path d="M215.3,26.8c0.4-2.4,2.3-7,5.2-7c1.7,0,2.3,1.4,2.5,2.9c0.1,1.4-0.1,3.1-0.2,4c-0.4,1.8-1.6,6.2-5,6.2
		c-1.6,0-2.3-1.1-2.5-2.4C214.9,29.2,215,27.6,215.3,26.8z M218.1,31.1c1.8,0,2.8-4.8,3-6.1c0-0.4,0.1-1.2,0-1.9
		c-0.1-0.8-0.4-1.3-1-1.3c-1.6,0-2.9,3.6-3.1,4.9c0,0.5-0.1,1.6-0.1,2.6C217.1,30.4,217.4,31.1,218.1,31.1z"/>
	<path d="M230.1,20.4c0.1-0.4,0.5-0.7,1-0.7c0.7,0,1,0.6,0.8,1.2c-1,2.2-2.2,4.4-3.1,6.6c-0.7,1.6-1.2,3-1.9,4.8
		c-0.4,0.7-0.5,0.6-1.1,0.6c-0.5,0-0.8-0.2-1-0.6c-0.4-1-1.1-10.3-0.8-11.3c0-0.5,0.4-1.1,1.2-1.1c0.6,0,0.7,0.4,0.7,0.7
		c0.2,2.5,0.2,5,0.5,7.6C227.6,25.6,228.7,22.8,230.1,20.4z"/>
	<path d="M233.3,30.1c0,0.6,0.1,1,0.6,1c0.6,0,1.2-0.4,1.8-0.7c0.2-0.1,1-0.8,1.3-0.8c0.6,0,1,0.6,0.8,1c-0.2,1.2-3.4,2.5-4.6,2.5
		c-1.4,0-1.9-1.1-1.9-2c-0.1-0.6,0-1.2,0-1.7c0.1-0.6,0.2-1.1,0.2-1.4c0.1-0.5,0.5-2.3,1-3.8c0.4-1.6,0.8-3.2,1.2-3.6
		c0,0,0.1-0.1,0.2-0.1c0.5-0.2,1.9-0.4,2.4-0.4c1.2-0.1,2.5-0.1,2.8-0.1c0.4,0,0.5,0.1,0.6,0.2c0,0.2,0.1,0.5,0,0.6
		c0,0.4-0.4,1-1.1,1c-1.2,0.1-2.4,0.1-3.6,0.2c-0.6,1.6-1,3.1-1.3,4.8c1-0.2,2-0.5,3-0.5c0.7,0,1,0.6,0.8,1c0,0.4-0.4,0.6-0.7,0.7
		c-0.4,0.1-0.8,0.2-1.2,0.4c-0.8,0.1-1.7,0.1-2.2,0.2C233.4,28.8,233.3,29.5,233.3,30.1z"/>
	<path d="M240.7,32.2c-0.1,0.4-0.5,0.8-1.1,0.8c-0.6,0-0.8-0.5-0.8-0.8c0-2,0.5-4.3,0.8-6.4c0.2-0.7,0.4-1.7,0.5-2.5
		c0.2-0.8,0.4-1.8,0.7-2.5c0.2-0.5,0.6-0.7,1-0.8c0.2,0,0.4-0.1,0.6-0.1c0.2,0,0.4,0,0.6,0c2.9,0,5,2.2,4.6,4.7
		c-0.4,1.6-1.7,2.9-3.2,3.7c0.1,0.6,0.4,1.2,0.5,1.7c0.2,0.6,0.5,1.2,0.8,1.8c0.1,0.1,0.1,0.2,0.1,0.4c-0.1,0.5-0.7,1-1.2,1
		c-0.5,0-0.7-0.4-1-0.6c-0.2-0.4-0.5-0.8-0.7-1.3c-0.2-0.7-0.5-1.6-0.6-2c-0.4,0.1-0.8,0.1-1.2,0.2
		C240.9,30.1,240.9,31.2,240.7,32.2z M245.5,24.7c0.2-1.1-0.2-2-1.2-2.6c-0.5-0.4-1.1-0.5-1.8-0.5c-0.2,1-0.5,1.9-0.6,2.9
		c-0.2,1-0.4,1.9-0.5,2.9C243,27,245.3,25.9,245.5,24.7z"/>
	<path d="M256.1,21.7c-0.6,0-0.8-0.5-0.7-0.8c0.1-0.7,1.1-1,1.8-1.1c0.8-0.1,1.7,0,2.3,0c0.4,0,1.3-0.1,2.2,0c0.7,0,1.6,0.2,1.4,1
		c-0.1,0.7-1,1-1.7,1c-0.5,0-1.2,0-1.6-0.1c-0.7,3.5-1.1,7.1-1.8,10.6c-0.1,0.5-0.7,0.8-1.2,0.8c-0.6,0-0.8-0.4-0.8-0.7
		c0.2-3.2,1.3-7.3,1.9-10.7C257.3,21.7,256.7,21.7,256.1,21.7z"/>
	<path d="M269.5,21c0.1-0.5,0.6-0.8,1.2-0.8c0.6,0,0.7,0.4,0.7,0.8c-0.7,3.7-1.1,7.4-1.8,11.2c-0.1,0.4-0.6,0.8-1.2,0.8
		c-0.4,0-0.6-0.2-0.7-0.6c-0.1-0.2-0.1-0.6,0-1.1c0.1-0.7,0.2-1,0.2-1.8c-0.6-0.1-1.3-0.1-1.9-0.1c-0.5,0-1,0-1.4,0
		c-0.1,1-0.1,1.8-0.4,2.8c-0.1,0.4-0.5,0.8-1.1,0.8c-0.6,0-1-0.5-0.8-0.8c0.1-3.6,1.2-7.6,1.9-11.2c0-0.5,0.6-0.8,1.1-0.8
		c0.6,0,0.8,0.4,0.7,0.8c-0.4,2.2-0.8,4.4-1.2,6.7c1.2-0.2,2.3-0.2,3.4-0.1L269.5,21z"/>
	<path d="M273.1,30.1c0,0.6,0.1,1,0.6,1c0.6,0,1.2-0.4,1.8-0.7c0.2-0.1,1-0.8,1.3-0.8c0.6,0,1,0.6,0.8,1c-0.2,1.2-3.4,2.5-4.6,2.5
		c-1.4,0-1.9-1.1-1.9-2c-0.1-0.6,0-1.2,0-1.7c0.1-0.6,0.2-1.1,0.2-1.4c0.1-0.5,0.5-2.3,1-3.8c0.4-1.6,0.8-3.2,1.2-3.6
		c0,0,0.1-0.1,0.2-0.1c0.5-0.2,1.9-0.4,2.4-0.4c1.2-0.1,2.5-0.1,2.8-0.1c0.4,0,0.5,0.1,0.6,0.2c0,0.2,0.1,0.5,0,0.6
		c0,0.4-0.4,1-1.1,1c-1.2,0.1-2.4,0.1-3.6,0.2c-0.6,1.6-1,3.1-1.3,4.8c1-0.2,2-0.5,3-0.5c0.7,0,1,0.6,0.8,1c0,0.4-0.4,0.6-0.7,0.7
		c-0.4,0.1-0.8,0.2-1.2,0.4c-0.8,0.1-1.7,0.1-2.2,0.2C273.2,28.8,273.1,29.5,273.1,30.1z"/>
	<path d="M288.1,30.4c0.6-0.1,1.2-0.2,1.8-0.2c0.7,0,1,0.5,0.8,1c-0.5,1.4-4,1.6-5.3,1.6c-0.8,0-1-0.6-1-1.2c0-3,1.3-7.9,2.3-10.7
		c0.1-0.5,0.6-0.8,1.2-0.8c0.7,0,0.7,0.5,0.7,0.8c-0.6,2.6-1.3,5.4-1.9,8c0,0.6-0.2,1.2-0.2,1.8C287,30.6,287.6,30.5,288.1,30.4z"/>
	<path d="M293.7,32.1c0,0.4-0.4,0.8-1,0.8c-0.7,0-0.8-0.5-0.8-0.8c0.1-1.6,0.2-3,0.5-4.4c0.2-1.1,0.7-3,1.4-4.7
		c0.8-1.7,2-3.2,3.8-3.2c2,0,2.5,1.9,2.5,4c-0.1,1.9-0.6,4.2-0.8,5.3c0,0.8-0.4,2.6-0.8,3.4c-0.1,0.2-0.5,0.6-0.8,0.6
		c-0.5,0-0.7-0.2-0.7-0.5c-0.1-0.4-0.1-0.7,0-1c0-0.6,0.2-1.3,0.4-1.7c-0.5,0-0.8,0-1.3,0c-0.6,0-1.3,0-1.9,0.1
		C294,30.6,293.9,31.3,293.7,32.1z M297.9,27c0-0.5,0.2-1.8,0.4-3.1c0-0.6-0.1-1.2-0.2-1.7c-0.1-0.4-0.4-0.6-0.6-0.6
		c-1.6,0-2.6,3.8-2.9,5l-0.2,1.3c1.1-0.1,2.3-0.1,3.4,0L297.9,27z"/>
	<path d="M304.8,30.6c0.4,0,1.1,0,1.7,0.2c0.5,0.1,1.2,0.5,1.1,1c-0.1,0.5-0.7,1.1-1.3,1.1c-0.4,0-0.7-0.1-1-0.2
		c-0.4-0.1-0.7-0.2-1-0.2c-1,0-1.8,0.4-2.8,0.5c-0.2,0.1-0.5,0.1-0.7,0.1c-0.6,0-0.8-0.5-0.8-0.8c0.2-1.1,5.6-8.5,7.1-10.6
		c-1.3,0.1-2.6,0.1-4,0.1c-0.6,0-0.8-0.5-0.7-0.8c0-0.4,0.5-1,1.1-1l5.6-0.1c0.5,0,0.7,0.6,0.7,1c-0.1,0.1-0.4,0.5-0.4,0.5
		c-1,1.4-2,2.9-3,4.3c-1.4,2-2.9,4.3-3.6,5.3C303.5,30.7,304.2,30.6,304.8,30.6z"/>
	<path d="M311.7,29.4c-1.3,0-1.7-1.1-1.8-2.3c-0.1-1.1,0.1-2.4,0.2-3.1c0-0.4,0.2-1.3,0.5-2.2c0.1-0.5,0.4-0.8,0.5-1.2
		c0.2-0.2,0.6-0.6,1.1-0.6c0.4,0,0.7,0.2,0.7,0.7c-0.2,1-0.6,1.9-0.8,3c0,0.4-0.2,1.3-0.2,2.2c0,0.5,0,0.8,0,1.2
		c0.1,0.2,0.2,0.4,0.4,0.4c0.4,0,0.6-0.2,1-0.8c0.5-0.5,0.7-1.3,1.1-2c0.4-1.1,0.8-4.7,2.3-4.7c0.4,0,0.6,0.1,0.6,0.4
		c0.2,0.7-0.1,1.7-0.4,2.4c-0.4,1.9-0.6,4-1,5.9c-0.1,0.6-0.4,1.8-1,2.6c-0.5,1-1.3,1.8-2.6,1.8s-2.8-0.6-2.5-2
		c0.1-0.4,0.6-0.7,1.1-0.7c1.2,0,0.4,1,1.6,1c0.8,0,1.3-1.4,1.4-2.2c0-0.2,0.1-0.5,0.1-0.6C313.3,28.9,312.5,29.4,311.7,29.4z"/>
	<path d="M323.1,33c-0.8,0-0.8-0.6-0.7-1l2-10.7c-0.1-0.1-0.1-0.4-0.1-0.6c0.2-1,1.9-1,2.6-1c4,0,4.3,4.3,3.8,6.8
		c-0.6,2.9-3,6.1-7,6.1C323.6,32.9,323.4,33,323.1,33z M328.8,26.9c0.4-2,0.4-5.3-2.3-5.3h-0.4c-0.5,3.1-1,6.1-1.6,9.1
		C327,30.6,328.4,28.8,328.8,26.9z"/>
	<path d="M331.9,26.8c0.4-2.4,2.3-7,5.2-7c1.7,0,2.3,1.4,2.5,2.9c0.1,1.4-0.1,3.1-0.2,4c-0.4,1.8-1.6,6.2-5,6.2
		c-1.6,0-2.3-1.1-2.5-2.4C331.5,29.2,331.7,27.6,331.9,26.8z M334.8,31.1c1.8,0,2.8-4.8,3-6.1c0-0.4,0.1-1.2,0-1.9
		c-0.1-0.8-0.4-1.3-1-1.3c-1.6,0-2.9,3.6-3.1,4.9c0,0.5-0.1,1.6-0.1,2.6C333.7,30.4,334.1,31.1,334.8,31.1z"/>
	<path d="M345.3,27.7c-0.4,0-0.8,0.1-1.2,0.1c-0.6,0-0.8-0.5-0.8-1c0.1-0.6,0.8-0.8,1.4-1c0.2-0.1,0.6-0.1,0.8-0.1
		c0.4,0,0.6,0,0.8,0c0.8,0,1.2,0.1,1.4,0.5c0,0.2,0,0.5,0,0.6l-0.1,0.8c-0.4,1.8-1.6,5.2-4.8,5.2c-1.6,0-2.3-1.3-2.5-2.6
		c-0.2-1.4-0.1-3,0-4c0.4-1.8,2-6.4,5.4-6.4c1.7,0,2.6,1.3,2.4,2.5c-0.1,0.6-0.7,1.7-1.7,1.7c-0.5,0-0.8-0.4-0.8-0.8
		c0.2-0.6,1-1.6-0.5-1.6c-0.2,0-0.6,0.1-0.8,0.5c-0.8,0.8-1.9,3-1.9,4.1c-0.1,0.5-0.4,1.7-0.2,2.8s0.5,1.8,1.3,1.8
		c0.7,0,1.2-0.5,1.6-1.2c0.4-0.6,0.5-1.3,0.6-1.9H345.3z"/>
</g>
</svg>
