<?xml version="1.0" encoding="utf-8"?>
<!-- Generator: Adobe Illustrator 26.1.0, SVG Export Plug-In . SVG Version: 6.00 Build 0)  -->
<svg version="1.1" id="Layer_1" xmlns="http://www.w3.org/2000/svg" xmlns:xlink="http://www.w3.org/1999/xlink" x="0px" y="0px"
	 viewBox="0 0 372 36.9" style="enable-background:new 0 0 372 36.9;" xml:space="preserve">
<rect width="372" height="36.9" fill="white"/>
<g>
	<path d="M4.9,5.9C4.3,5.9,4.1,5.4,4.1,5c0-0.5,0.2-1,0.8-1c1.2-0.2,2.4-0.1,3.6-0.1c0.8,0,3.2-0.4,3.2,1c0,0.7-0.8,0.8-1.4,1
		c-0.6,0-1.2-0.1-1.7-0.1c0,2.8,0.2,5.5,0.2,8.2c0,0.8,0.1,1.9-0.2,2.6c-0.1,0.2-0.5,0.4-0.8,0.4c-0.6,0-0.8-0.5-1-0.8
		c-0.5-3.4-0.1-7,0-10.3C6.1,5.7,5.5,5.9,4.9,5.9z"/>
	<path d="M18.2,5c0-0.5,0.4-0.8,1-0.8C19.8,4.2,20,4.5,20,5c0.1,3.7,0.4,7.4,0.4,11.2c0,0.4-0.4,0.8-1,0.8c-0.4,0-0.6-0.2-0.8-0.6
		c-0.1-0.2-0.2-0.6-0.2-1.1c0-0.8,0-1.3,0-1.8c-0.7-0.1-1.4-0.1-2-0.1c-0.5,0-1,0-1.3,0c0,1,0.1,1.8,0.1,2.8c0,0.4-0.4,0.8-1,0.8
		s-1-0.5-1.1-0.8c-0.5-3.6-0.2-7.6-0.2-11.2c0-0.5,0.5-0.8,1-0.8c0.7,0,1,0.4,1,0.8c0,2.2,0,4.4,0.1,6.7c1.1-0.2,2.2-0.2,3.4-0.1V5z
		"/>
	<path d="M23.5,12.7c0,0.2-0.1,1,0,1.6c0.2,1.3,1.2,1,2.2,0.5l0.6-0.2c0.2-0.1,0.5-0.1,0.6-0.1c0.7,0,1,0.6,1,0.8
		c0,1.1-2.9,1.8-3.7,1.8c-2.2,0-2.6-2.8-2.6-4.4c0-1.7,0.1-3.2,0.2-4.9c0-1.4,0.2-2.9,0.5-3.1c0.1-0.2,0.7-0.4,1-0.4
		c1.3-0.2,2.8-0.4,4.2-0.4c0.6,0,0.8,0.4,0.8,0.8s-0.2,1-0.8,1c-1.2,0.2-2.4,0.2-3.6,0.2c-0.2,1.6-0.4,3.1-0.4,4.6v0.2
		c1-0.2,1.9-0.5,2.9-0.5c0.7,0,1.1,0.6,1.1,1c0,0.4-0.4,0.6-0.6,0.7c-0.4,0.1-0.8,0.2-1.2,0.4c-0.7,0.1-1.6,0.2-2,0.2V12.7z"/>
	<path d="M39.1,16.9c-3.2,0-4.1-4.1-4.1-5.9c0-1.9,1-7,4.2-7c3.4,0,4,3.8,4,5.8c0,1.2-0.2,3.5-0.7,4.7c0.2,0.4,1,1.1,1,1.6
		c0,0.4-0.4,1-1,1c-0.5,0-1-0.5-1.2-0.8C40.7,16.5,39.9,16.9,39.1,16.9z M38.6,12c-0.4-0.7-0.2-1.4,0.7-1.4c0.2,0,0.5,0.1,0.7,0.4
		c0.4,0.2,0.7,0.8,1,1.3c0.1-1.1,0.2-2.2,0.2-3.1c0-1.1-0.6-3.2-1.9-3.2c-0.8,0-1.4,0.8-1.9,1.9c-0.4,1.1-0.5,2.3-0.5,2.9
		c0,1.2,0.5,4.4,2.2,4.4c0.5,0,0.7-0.2,1.1-0.6C39.6,13.7,39.1,12.8,38.6,12z"/>
	<path d="M44.7,8.7c0-1.3,0-2.8,0.2-4.1c0-0.5,0.4-0.8,1-0.8c0.7,0,0.8,0.5,0.8,0.8c0,1.2-0.1,2.4-0.1,3.6c0,1.2,0,6.8,1.8,6.8
		c0.7,0,1.2-0.6,1.4-1.4c0.4-0.8,0.5-1.8,0.5-2.3c0-0.6-0.1-1.1-0.1-1.7l-0.1-3.2c0-0.5,0-1.1,0-1.7c0-0.4,0.2-0.8,1-0.8
		c0.5,0,0.7,0.4,0.8,0.7c0.4,0.7,0.2,2.6,0.2,3.8c0,0.6,0,1.3,0,2.3c0,2.5-0.4,6.1-3.7,6.1C44.9,16.9,44.7,11.3,44.7,8.7z"/>
	<path d="M53.9,10.5c0-2.2,0-4.3,0-5.8c0-0.5,0.5-0.8,1-0.8c0.7,0,0.8,0.4,1,0.8c0.1,1.3,0,2.9,0,4.2c0.1,2.3,0.2,4.6,0.4,6.8v0.2
		c0,0.4-0.4,0.8-1,0.8c-0.7,0-1-0.5-1.1-0.8C53.9,14.7,53.9,12.7,53.9,10.5z"/>
	<path d="M57.1,10.7c0-2.3,0.7-7.1,3.7-7.1c2,0,3.1,1.8,3.1,3.1c0,0.1,0,0.4-0.1,0.5c0,0.1,0,0.4,0,0.5c-0.1,0.2-0.4,0.6-0.8,0.6
		c-0.6,0-0.8-0.2-1-0.6c-0.1-0.2,0-0.6,0-0.8c0-0.6-0.5-1.4-1.1-1.4c-0.8,0-1.3,1.6-1.4,2.2C59.1,8.6,59,9.9,59,10.4
		c0,1.1,0.4,4.4,1.8,4.4c0.6,0,0.8-1,1-1.4c0.2-0.5,0.5-1.6,1.2-1.6c0.6,0,1.1,0.5,1.1,0.8c0,1.3-1.3,4.1-3.2,4.1
		C58.1,16.8,57.1,12.8,57.1,10.7z"/>
	<path d="M67.3,15.6c0,0.5-0.2,1.2-1.1,1.2c-0.6,0-1-0.5-1-0.8C65,12.3,65.1,8.6,65.1,5c0-0.4,0.4-1,1-1c0.7,0,1,0.6,1,1
		c0.1,2.4,0.1,4.8,0.2,7.2c1.8-1.3,2.5-3,2.5-5.2c0-0.7,0-1.3,0-2c0-0.4,0.2-1,0.8-1c0.5,0,0.6,0.2,0.8,0.5c0.4,0.6,0.2,1.7,0.2,2.4
		c0,1.7-0.4,3.7-1.7,5.2c1.7,0.5,2,2.5,2,4.1c0,0.5-0.5,0.7-0.8,0.7c-0.6,0-0.8-0.4-1-0.6c0-0.2-0.1-0.4-0.1-0.6
		c-0.1-1-0.1-1.9-1.4-1.9c-0.4,0-1.2,0.2-1.4,0.4C67.3,14.4,67.4,15,67.3,15.6z"/>
	<path d="M80.3,17c-0.7,0-1-0.5-1-1c0-3.2,0.2-6.5,0.2-9.6V6c-0.2-0.2-0.4-0.5-0.4-0.6c0-0.6,0.8-1,1.4-1.2c0.8-0.2,1.6-0.4,2-0.4
		c2.4,0,3.5,1.7,3.5,3.4c0,1.6-0.8,2.9-2,4c1.3,0.4,2,1.2,2,2.4c0,2-1.7,3.4-4,3.4c-0.5,0-0.8,0-1.3-0.1C80.7,16.9,80.5,17,80.3,17z
		 M82.4,15.1c1,0,1.8-0.7,1.8-1.6c0-0.5-0.5-0.6-1.2-0.6c-0.6,0-1.1,0-1.6,0.1c-0.1,0.6-0.1,1.3-0.1,1.9
		C81.7,15,82.1,15.1,82.4,15.1z M84.2,7.2c0-1-0.6-1.6-1.7-1.6c-0.4,0-0.7,0.1-1.1,0.2c0,1.6,0,3.2,0,4.9
		C82.9,9.8,84.2,8.6,84.2,7.2z"/>
	<path d="M89.6,16.1c0,0.4-0.2,0.8-1,0.8c-0.6,0-1-0.5-1.1-0.8c-0.2-1.9-0.2-4-0.2-6c0-1.7,0-3.6,0.2-5.3c0-0.7,0.7-1,1.3-1
		c2.6,0,6,1.4,6,4.6c0,1.6-1.1,2.9-2.5,3.7c0.2,0.4,0.7,1.2,1.1,1.9c0.5,0.8,1.1,1.7,1.1,1.9c0,0.4-0.4,1-1,1
		c-0.2,0-0.4-0.1-0.5-0.1c-0.5-0.5-1-1.2-1.3-1.7c-0.5-0.8-1-1.7-1.2-2.2c-0.4,0.1-0.7,0.2-1.2,0.2C89.5,14.1,89.6,15.1,89.6,16.1z
		 M93,8.4c0-1.6-1.8-2.8-3.6-2.8c-0.1,1-0.1,2-0.1,3.1c0,0.8,0,1.7,0.1,2.5C91.1,11,93,9.9,93,8.4z"/>
	<path d="M95.9,10.9c0-1.7,0.8-7,4.1-7c3.2,0,3.7,4,3.7,5.9c0,2.4-0.5,7.1-3.8,7.1C96.7,16.9,95.9,12.7,95.9,10.9z M99.8,15.1
		c0.8,0,1.3-1.1,1.7-2.5c0.2-1.4,0.2-3,0.2-3.6c0-0.5-0.1-1.3-0.4-2c-0.4-0.7-0.7-1.2-1.3-1.2c-0.8,0-1.3,0.8-1.8,1.9
		c-0.4,1.1-0.5,2.4-0.5,2.9c0,0.6,0.1,1.7,0.5,2.8C98.5,14.4,99.1,15.1,99.8,15.1z"/>
	<path d="M107.9,11c0.4-1.6,0.5-3.4,1-4.8c0.1-0.5,0.4-0.6,1-0.6c0.6,0,0.8,0.1,1,0.6c0.2,0.7,0.4,1.6,0.5,2.3
		c0.4,1.2,0.7,2.4,1.2,3.7c0.1-1.6,0.2-3.2,0.2-4.8c0.1-0.8,0-1.8,0.1-2.6c0.1-0.5,0.4-1,1.1-1c0.6,0,1,0.5,1,1
		c0,2.6-0.2,9-1.1,11.4c-0.1,0.4-0.4,0.7-1,0.7c-1.4,0-2.6-4.9-2.9-6c-0.2,0.7-0.4,1.6-0.6,2.3c-0.2,1.1-0.6,2.2-1.1,3.1
		c-0.1,0.2-0.4,0.6-1,0.6c-0.4,0-0.6-0.2-0.7-0.6c-0.2-0.2-0.4-0.7-0.5-1.2c-0.8-2.3-1.2-7.9-1.2-10.3c0-0.5,0.2-1,0.8-1
		c0.7,0,1,0.5,1.1,1c0.1,0.8,0.1,1.8,0.1,2.8c0.1,1.6,0.2,3.2,0.6,4.9C107.6,12,107.7,11.5,107.9,11z"/>
	<path d="M121.2,5.1c0-0.5,0.2-1,0.8-1c0.5,0,0.7,0.4,0.8,0.6c0.1,0.4,0.2,0.7,0.2,1.1c0.1,0.8,0.1,1.8,0.1,2.2c0,2.5-0.2,6-0.7,8.5
		c-0.1,0.2-0.4,0.4-0.6,0.4c-0.5,0-0.8-0.1-1.1-0.6c-1-2.2-1.9-4.1-2.9-6.2c0,1.9,0.1,4,0.1,5.9c0,0.4-0.4,0.8-1,0.8
		c-1.4,0-1.2-2.6-1.2-3.5c0-1,0-1.9,0-2.8c0-0.8,0-1.8,0-2.8s0-1.9,0.2-2.8c0-0.4,0.5-0.8,1-0.8c0.4-0.1,0.6,0.2,0.7,0.5
		c0.5,0.8,0.7,1.8,1.1,2.8c0.6,1.6,1.3,3.2,2,4.8C121.1,9.8,121.2,7.5,121.2,5.1z"/>
	<path d="M132.6,16.1c0,0.5-0.4,0.8-1,0.8c-0.4,0-0.5-0.1-0.6-0.2c-0.1-0.2-0.2-0.5-0.4-0.7c-0.1-0.5-0.2-1.2-0.4-1.8
		c-0.1-1.4-0.1-2.9-0.1-3.4c0-2,0.1-4.1,0.2-6.1c0.1-0.5,0.4-0.7,1-0.8c1.1-0.1,2.3-0.1,3.4-0.1c0.2,0,0.4,0,0.6,0
		c0.2,0,0.5,0,0.7,0.1c0.4,0,0.7,0.4,0.7,0.8c0,0.7-0.8,1-1.6,1c-0.7,0-1.6,0-2,0h-0.8c0,1.7-0.1,3.4-0.1,5c0.8,0,1.6-0.1,2.4-0.1
		c0.7,0,1.2,0.2,1.2,1c0,0.4-0.2,0.6-0.5,0.7c-0.4,0.1-0.7,0.2-1.2,0.2c-0.6,0.1-1.4,0.1-1.9,0.1C132.3,13.7,132.6,14.9,132.6,16.1z
		"/>
	<path d="M137.4,10.9c0-1.7,0.8-7,4.1-7c3.2,0,3.7,4,3.7,5.9c0,2.4-0.5,7.1-3.8,7.1C138.2,16.9,137.4,12.7,137.4,10.9z M141.3,15.1
		c0.8,0,1.3-1.1,1.7-2.5c0.2-1.4,0.2-3,0.2-3.6c0-0.5-0.1-1.3-0.4-2c-0.4-0.7-0.7-1.2-1.3-1.2c-0.8,0-1.3,0.8-1.8,1.9
		c-0.4,1.1-0.5,2.4-0.5,2.9c0,0.6,0.1,1.7,0.5,2.8C140,14.4,140.6,15.1,141.3,15.1z"/>
	<path d="M149,15c-0.2,0.5-0.5,1-0.7,1.3c-0.1,0.2-0.4,0.7-0.7,0.7c-0.7,0-1.1-0.6-1.1-1.1c0-0.4,2-4.7,2.4-5.2
		c-0.2-0.5-0.8-1.8-1.3-3.1c-0.6-1.3-1.2-2.8-1.2-2.9c0-0.5,0.5-0.8,1-0.8c1.3,0,2.2,3.2,2.6,4.2c0.4-1.1,1.3-3.6,1.6-4
		c0.1-0.2,0.5-0.5,0.8-0.5c0.6,0,1,0.6,1,1c0,0.4-0.5,1.7-1.1,3c-0.5,1.2-1.1,2.5-1.2,3c0.4,0.8,2.5,5,2.5,5.5s-0.5,0.8-1,0.8
		c-0.6,0-0.8-0.4-1-0.7c-0.5-1.1-1.2-2.2-1.7-3.2C149.7,13.5,149.4,14.3,149,15z"/>
	<path d="M164.5,6.1c-0.2,0-0.6,0-0.8-0.1c-0.6-0.1-1.1-0.4-1.1-1c0-0.4,0.2-1,0.8-1l4.1,0.1c0.6,0,1,0.4,1,0.8s-0.2,0.8-0.6,1
		c-0.4,0-0.6,0-1,0c0,2.3,0.2,4.4,0.2,6.7c0,1.6-0.4,4.1-3.1,4.1c-2.3,0-3.4-1.8-3.4-3.4c0-0.4,0.2-0.8,0.8-0.8
		c0.5,0,0.7,0.1,0.8,0.5c0.1,0.2,0.2,0.5,0.4,0.8c0.2,0.6,0.5,1.1,1.3,1.1c1,0,1.1-1.2,1.1-2V9.7c0-1.2,0-2.4,0-3.6
		C164.9,6.1,164.7,6.1,164.5,6.1z"/>
	<path d="M169.5,8.7c0-1.3,0-2.8,0.2-4.1c0-0.5,0.4-0.8,1-0.8c0.7,0,0.8,0.5,0.8,0.8c0,1.2-0.1,2.4-0.1,3.6c0,1.2,0,6.8,1.8,6.8
		c0.7,0,1.2-0.6,1.4-1.4c0.4-0.8,0.5-1.8,0.5-2.3c0-0.6-0.1-1.1-0.1-1.7l-0.1-3.2c0-0.5,0-1.1,0-1.7c0-0.4,0.2-0.8,1-0.8
		c0.5,0,0.7,0.4,0.8,0.7c0.4,0.7,0.2,2.6,0.2,3.8c0,0.6,0,1.3,0,2.3c0,2.5-0.4,6.1-3.7,6.1C169.7,16.9,169.5,11.3,169.5,8.7z"/>
	<path d="M180.7,15.9c0,0.4-0.2,0.8-1,0.8c-0.6,0-1-0.4-1.1-0.7c-0.6-1.8-0.5-4.1-0.5-5.9c0-1.7,0.1-3.5,0.2-5.2c0.1-0.5,0.2-1,1-1
		c0.7,0,1,0.5,1.1,1c0.4,1.9,1.6,5.2,2.6,7.1c1.3-2.5,1.9-5.2,2.9-7.7c0.1-0.4,0.5-0.7,1-0.7c0.5,0,0.7,0.4,1,0.6
		c0.2,0.5,0.4,8.4,0.4,9.4c0,0.8,0.1,1.9-0.2,2.6c-0.1,0.2-0.4,0.4-0.7,0.4c-0.6,0-1-0.5-1.1-0.8c-0.1-1.1-0.1-2.3-0.1-3.6
		c0-0.6,0-1.2,0-1.9c-0.1,0.6-0.4,1.2-0.6,1.7c-0.5,1.2-1.2,2.5-2.3,2.5s-1.8-1.2-2.4-2.3c-0.1-0.4-0.4-0.8-0.5-1.2
		C180.5,12.7,180.7,14.4,180.7,15.9z"/>
	<path d="M191.6,16.1c0,0.4-0.2,0.8-1,0.8c-0.6,0-1-0.4-1-0.8c-0.2-0.8-0.4-1.9-0.4-2.9c0-1.1,0-2,0-3c0-1.8-0.1-3.7,0.2-5.4
		c0-1,1-1,1.7-1c3.1,0,5.5,2,5.5,4.7c0,2.4-2.6,4.4-5.4,4.8C191.5,14.1,191.6,15.1,191.6,16.1z M194.9,8.5c0-1.8-1.6-2.6-3.5-2.9
		c0,1.1-0.1,2.2-0.1,3.1c0,0.8,0,1.8,0.1,2.6C192.9,11,194.9,9.9,194.9,8.5z"/>
	<path d="M199.3,12.9c0.8,0,0.8,0.6,1.1,1.2c0.1,0.5,0.4,1,1.4,1c1,0,1.6-0.6,1.6-1.4c0-1-1.9-1.2-2.6-1.4c-1.4-0.4-2.9-1.1-2.9-3.1
		c0-1.8,1.6-5.3,4.4-5.3c1.9,0,2.9,1.9,2.9,3.2c0,0.4-0.2,0.8-0.8,0.8c-0.5,0-0.7-0.1-0.8-0.5c-0.4-0.6-0.2-1.8-1.2-1.8
		c-1.3,0-2.6,2.3-2.6,3.4c0,0.6,0.4,1,0.8,1.2c0.6,0.2,1.2,0.4,1.9,0.6c1.4,0.4,3,0.8,3,2.9c0,1.7-1.4,3.2-3.6,3.2
		c-1.9,0-3.5-1.2-3.5-2.9C198.3,13.5,198.5,12.9,199.3,12.9z"/>
	<path d="M212.4,10.9c0-1.7,0.8-7,4.1-7c3.2,0,3.7,4,3.7,5.9c0,2.4-0.5,7.1-3.8,7.1C213.2,16.9,212.4,12.7,212.4,10.9z M216.3,15.1
		c0.8,0,1.3-1.1,1.7-2.5c0.2-1.4,0.2-3,0.2-3.6c0-0.5-0.1-1.3-0.4-2c-0.4-0.7-0.7-1.2-1.3-1.2c-0.8,0-1.3,0.8-1.8,1.9
		c-0.4,1.1-0.5,2.4-0.5,2.9c0,0.6,0.1,1.7,0.5,2.8C215,14.4,215.6,15.1,216.3,15.1z"/>
	<path d="M226.5,4.4c0.1-0.4,0.2-0.7,0.8-0.7c0.6,0,1,0.6,1,1v0.2c-0.5,2.2-1.2,4.4-1.8,6.6c-0.4,1.6-0.6,3.2-1.1,4.8
		c0,0.4-0.2,0.6-0.8,0.6c-0.5,0-0.8-0.2-1.1-0.6c-0.5-1-3.1-10.3-3.1-11.3c0-0.5,0.2-1.1,1.1-1.1c0.6,0,0.7,0.4,0.8,0.7
		c0.7,2.5,1.3,5,1.9,7.6C225,9.6,225.5,6.8,226.5,4.4z"/>
	<path d="M231.5,12.7c0,0.2-0.1,1,0,1.6c0.2,1.3,1.2,1,2.2,0.5l0.6-0.2c0.2-0.1,0.5-0.1,0.6-0.1c0.7,0,1,0.6,1,0.8
		c0,1.1-2.9,1.8-3.7,1.8c-2.2,0-2.6-2.8-2.6-4.4c0-1.7,0.1-3.2,0.2-4.9c0-1.4,0.2-2.9,0.5-3.1c0.1-0.2,0.7-0.4,1-0.4
		c1.3-0.2,2.8-0.4,4.2-0.4c0.6,0,0.8,0.4,0.8,0.8s-0.2,1-0.8,1c-1.2,0.2-2.4,0.2-3.6,0.2c-0.2,1.6-0.4,3.1-0.4,4.6v0.2
		c1-0.2,1.9-0.5,2.9-0.5c0.7,0,1.1,0.6,1.1,1c0,0.4-0.4,0.6-0.6,0.7c-0.4,0.1-0.8,0.2-1.2,0.4c-0.7,0.1-1.6,0.2-2,0.2V12.7z"/>
	<path d="M239.4,16.1c0,0.4-0.2,0.8-1,0.8c-0.6,0-1-0.5-1.1-0.8c-0.2-1.9-0.2-4-0.2-6c0-1.7,0-3.6,0.2-5.3c0-0.7,0.7-1,1.3-1
		c2.6,0,6,1.4,6,4.6c0,1.6-1.1,2.9-2.5,3.7c0.2,0.4,0.7,1.2,1.1,1.9c0.5,0.8,1.1,1.7,1.1,1.9c0,0.4-0.4,1-1,1
		c-0.2,0-0.4-0.1-0.5-0.1c-0.5-0.5-1-1.2-1.3-1.7c-0.5-0.8-1-1.7-1.2-2.2c-0.4,0.1-0.7,0.2-1.2,0.2
		C239.3,14.1,239.4,15.1,239.4,16.1z M242.7,8.4c0-1.6-1.8-2.8-3.6-2.8c-0.1,1-0.1,2-0.1,3.1c0,0.8,0,1.7,0.1,2.5
		C240.8,11,242.7,9.9,242.7,8.4z"/>
	<path d="M252.6,5.9c-0.6,0-0.8-0.5-0.8-0.8c0-0.5,0.2-1,0.8-1c1.2-0.2,2.4-0.1,3.6-0.1c0.8,0,3.2-0.4,3.2,1c0,0.7-0.8,0.8-1.4,1
		c-0.6,0-1.2-0.1-1.7-0.1c0,2.8,0.2,5.5,0.2,8.2c0,0.8,0.1,1.9-0.2,2.6c-0.1,0.2-0.5,0.4-0.8,0.4c-0.6,0-0.8-0.5-1-0.8
		c-0.5-3.4-0.1-7,0-10.3C253.8,5.7,253.2,5.9,252.6,5.9z"/>
	<path d="M265.9,5c0-0.5,0.4-0.8,1-0.8c0.6,0,0.8,0.4,0.8,0.8c0.1,3.7,0.4,7.4,0.4,11.2c0,0.4-0.4,0.8-1,0.8c-0.4,0-0.6-0.2-0.8-0.6
		c-0.1-0.2-0.2-0.6-0.2-1.1c0-0.8,0-1.3,0-1.8c-0.7-0.1-1.4-0.1-2-0.1c-0.5,0-1,0-1.3,0c0,1,0.1,1.8,0.1,2.8c0,0.4-0.4,0.8-1,0.8
		c-0.6,0-1-0.5-1.1-0.8c-0.5-3.6-0.2-7.6-0.2-11.2c0-0.5,0.5-0.8,1-0.8c0.7,0,1,0.4,1,0.8c0,2.2,0,4.4,0.1,6.7
		c1.1-0.2,2.2-0.2,3.4-0.1V5z"/>
	<path d="M271.2,12.7c0,0.2-0.1,1,0,1.6c0.2,1.3,1.2,1,2.2,0.5l0.6-0.2c0.2-0.1,0.5-0.1,0.6-0.1c0.7,0,1,0.6,1,0.8
		c0,1.1-2.9,1.8-3.7,1.8c-2.2,0-2.6-2.8-2.6-4.4c0-1.7,0.1-3.2,0.2-4.9c0-1.4,0.2-2.9,0.5-3.1c0.1-0.2,0.7-0.4,1-0.4
		c1.3-0.2,2.8-0.4,4.2-0.4c0.6,0,0.8,0.4,0.8,0.8s-0.2,1-0.8,1c-1.2,0.2-2.4,0.2-3.6,0.2c-0.2,1.6-0.4,3.1-0.4,4.6v0.2
		c1-0.2,1.9-0.5,2.9-0.5c0.7,0,1.1,0.6,1.1,1c0,0.4-0.4,0.6-0.6,0.7c-0.4,0.1-0.8,0.2-1.2,0.4c-0.7,0.1-1.6,0.2-2,0.2V12.7z"/>
	<path d="M286.3,14.4c0.5-0.1,1.1-0.2,1.8-0.2c0.7,0,1,0.5,1,1c0,1.4-4,1.6-5,1.6c-1.3,0-1.3-1.8-1.3-2.8c0-2.9,0-6.2,0.4-9.1
		c0.1-0.5,0.5-0.8,1.1-0.8c0.7,0,0.8,0.5,0.8,0.8c0,2.6-0.2,5.4-0.2,8c0,0.6,0,1.2,0,1.8C285.3,14.6,285.8,14.5,286.3,14.4z"/>
	<path d="M292.3,16.2c0,0.4-0.2,0.8-1,0.8c-0.6,0-1-0.5-1-0.8c-0.2-1.6-0.2-3.1-0.2-4.7c0-2.5,0.2-7.6,3.7-7.6
		c1.9,0,2.8,1.8,3.1,3.6c0.4,1.9,0.4,4.1,0.4,5c0,0.4,0,1.4,0,2.4c0,0.6-0.2,2-1.1,2c-0.4,0-0.6-0.2-0.7-0.5c-0.2-0.2-0.2-0.6-0.2-1
		c0-0.6,0-1.2,0.1-1.6c-0.6-0.1-1.1-0.1-1.6-0.1c-0.6,0-1.2,0-1.8,0.1C292.2,14.7,292.3,15.5,292.3,16.2z M294,12
		c0.5,0,1,0.1,1.4,0.1c0-0.5,0-2.2-0.2-3.6c0-0.7-0.2-1.4-0.5-2c-0.2-0.5-0.5-0.7-0.8-0.7c-0.8,0-1.3,1-1.6,2.4
		c-0.4,1.2-0.4,2.6-0.4,3.2l0.1,0.8C292.7,12.1,293.4,12,294,12z"/>
	<path d="M302.1,14.9c0.5,0,1.3,0,2,0c0.7,0.1,1.6,0.4,1.6,1.1c0,0.5-0.4,0.8-1,0.8c-0.2,0-0.5,0-0.7,0h-1.3c-0.2,0-0.4-0.1-0.6-0.1
		c-0.5,0-1,0.1-1.4,0.2c-0.2,0-0.5,0.1-0.7,0.1s-0.5,0-0.7,0c-0.5,0-1-0.5-1-0.8c0-1.1,3.8-8.5,4.9-10.4c-1.2,0-2.5,0-3.8,0
		c-0.6,0-0.8-0.5-0.8-0.8c0-0.5,0.2-0.8,0.8-1c1.8-0.1,3.7-0.1,5.5-0.1c0.7,0,1.2,0.7,0.8,1.4c-1.6,3.2-3.4,6.4-4.8,9.6
		C301.3,14.9,301.7,14.9,302.1,14.9z"/>
	<path d="M309.5,13.4c-1.3,0-1.9-1.1-2.3-2.3c-0.2-1.1-0.4-2.4-0.4-3.1c0-0.4,0-1.3,0.1-2.2c0.1-0.7,0.2-1.8,1.2-1.8
		c0.4,0,0.8,0.2,0.8,0.7c0,1-0.2,2-0.2,3s0,2.5,0.5,3.4c0.1,0.2,0.2,0.4,0.4,0.4c0.4,0,0.6-0.2,0.8-0.8c0.2-0.5,0.5-1.2,0.6-2
		c0.2-1.6,0.4-3.4,0.5-3.8c0-0.5,0.2-0.8,1-0.8c0.4,0,0.6,0.1,0.7,0.4c0.1,0.2,0.1,0.6,0.1,0.8v1.6c0,1.9,0.1,4,0.1,5.9
		c0,0.6-0.1,1.8-0.5,2.6c-0.4,1-1,1.8-2.3,1.8s-2.9-0.5-2.9-1.9c0-0.5,0.4-0.8,1-0.8c0.2,0,0.5,0,0.6,0.1l0.1,0.2
		c0.2,0.5,0.4,0.6,1,0.6c0.8,0,1-1.4,1.1-2.2c0-0.2,0-0.4,0-0.6C311,12.9,310.3,13.4,309.5,13.4z"/>
	<path d="M321.7,17c-0.7,0-1-0.5-1-0.8c-0.1-1.9,0-3.8,0-5.8c0-1.6,0-3.2,0-4.9c-0.1-0.1-0.2-0.4-0.2-0.6c0-1,1.9-1,2.5-1
		c4.1,0,5,4.4,5,7c0,2.9-1.8,6-5.8,5.9C322.2,17,321.9,17,321.7,17z M326.1,10.9c0-1.9-0.7-5.2-3.2-5.2h-0.4
		c0.1,3.1,0.2,6.1,0.1,9.1C325.1,14.7,326.1,12.9,326.1,10.9z"/>
	<path d="M329.1,10.9c0-1.7,0.8-7,4.1-7c3.2,0,3.7,4,3.7,5.9c0,2.4-0.5,7.1-3.8,7.1C330,16.9,329.1,12.7,329.1,10.9z M333.1,15.1
		c0.8,0,1.3-1.1,1.7-2.5c0.2-1.4,0.2-3,0.2-3.6c0-0.5-0.1-1.3-0.4-2c-0.4-0.7-0.7-1.2-1.3-1.2c-0.8,0-1.3,0.8-1.8,1.9
		c-0.4,1.1-0.5,2.4-0.5,2.9c0,0.6,0.1,1.7,0.5,2.8C331.8,14.4,332.4,15.1,333.1,15.1z"/>
	<path d="M341.7,11.7c-0.6,0-1-0.5-1-1c0-0.7,0.7-1,1.3-1c0.7-0.1,1.4,0,1.9,0c0.8,0,1.6,0.1,1.6,1.1c0,2.2-0.6,5.9-3.5,5.9
		c-3.4,0-4.1-4.4-4.1-6.4c0-1.8,0.8-6.6,4.2-6.6c2,0,2.5,1.6,2.5,3.2c0,0.1,0,0.2,0,0.4c-0.1,0.4-0.4,0.6-1,0.6
		c-0.5,0-0.7-0.2-0.8-0.6c-0.1-0.5,0.1-1-0.1-1.6c-0.1-0.1-0.4-0.2-0.6-0.2c-1.6,0-2.3,3.5-2.3,4.7s0.5,4.6,2.2,4.6
		c0.6,0,1-0.5,1.2-1.3c0.2-0.6,0.2-1.3,0.4-1.9C343.1,11.7,342.3,11.7,341.7,11.7z"/>
	<path d="M4.9,21.7c-0.6,0-1-0.5-1-0.8c0-0.7,0.8-1,1.7-1.1c0.7-0.1,1.7,0,2.2,0s1.4-0.1,2.2,0c0.8,0,1.7,0.2,1.7,1
		c0,0.7-0.8,1-1.4,1s-1.2,0-1.7-0.1c0.1,3.5,0.2,7.1,0.2,10.6c0,0.5-0.5,0.8-1.1,0.8c-0.5,0-0.8-0.4-0.8-0.7
		C6.5,29.1,6.7,25,6.7,21.6C6.1,21.7,5.5,21.7,4.9,21.7z"/>
	<path d="M18.2,21c0-0.5,0.4-0.8,1-0.8c0.6,0,0.8,0.4,0.8,0.8c0.1,3.7,0.4,7.4,0.4,11.2c0,0.4-0.4,0.8-1,0.8c-0.4,0-0.6-0.2-0.8-0.6
		c-0.1-0.2-0.2-0.6-0.2-1.1c0-0.7,0-1,0-1.8c-0.7-0.1-1.4-0.1-2-0.1c-0.5,0-1,0-1.3,0c0,1,0.1,1.8,0.1,2.8c0,0.4-0.4,0.8-1,0.8
		s-1-0.5-1.1-0.8c-0.5-3.6-0.2-7.6-0.2-11.2c0-0.5,0.5-0.8,1-0.8c0.7,0,1,0.4,1,0.8c0,2.2,0,4.4,0.1,6.7c1.1-0.2,2.2-0.2,3.4-0.1V21
		z"/>
	<path d="M23.5,30.1c0.1,0.6,0.4,1,0.8,1s1.1-0.4,1.6-0.7c0.2-0.1,1-0.8,1.2-0.8c0.6,0,1.1,0.6,1.1,1c0,1.2-3,2.5-4.1,2.5
		c-1.4,0-2-1.1-2.4-2c-0.1-0.6-0.1-1.2-0.2-1.7c0-1.4,0-8,0.6-8.9c0.1,0,0.2-0.1,0.2-0.1c0.5-0.2,1.9-0.4,2.4-0.4
		c1.2-0.1,2.4-0.1,2.8-0.1c0.4,0,0.5,0.1,0.6,0.2c0.1,0.2,0.1,0.5,0.1,0.6c0,0.4-0.2,1-0.8,1c-1.2,0.1-2.5,0.1-3.6,0.2
		c-0.2,1.6-0.4,3.1-0.4,4.8c1-0.2,1.9-0.5,2.9-0.5c0.7,0,1.1,0.6,1.1,1c0,0.4-0.4,0.6-0.6,0.7c-0.4,0.1-0.7,0.2-1.2,0.4
		c-0.7,0.1-1.6,0.1-2,0.2C23.5,28.8,23.4,29.5,23.5,30.1z"/>
	<path d="M38.9,32.9c-3.2,0-3.7-4.3-3.7-6.1s0.7-6.8,4.1-6.8c2.8,0,3.6,4.3,3.6,6.5c0,1.3-0.2,2.9-0.7,4.1c0.1,0.1,0.4,0.5,0.6,0.7
		c0.1,0.2,0.2,0.4,0.4,0.5c0.1,0.7,0,1.4-0.8,1.4c-0.6,0-1-0.5-1.2-0.8C40.4,32.7,39.6,32.9,38.9,32.9z M38.9,29.1
		c-0.2-0.4-0.5-0.7-0.6-1c0-0.1-0.2-0.5-0.2-0.7c0-0.4,0.5-0.7,1-0.7c0.7,0,1.6,1.4,1.9,1.9C41,27.9,41,27,41,26.3
		c0-0.5,0-1.7-0.4-2.6c-0.2-1.1-0.7-1.8-1.4-1.8c-0.7,0-1.3,0.8-1.8,1.9c-0.4,1.2-0.5,2.4-0.5,3c0,1,0.6,4.4,1.9,4.4
		c0.4,0,0.7-0.4,1-0.6C39.7,30.3,39.2,29.7,38.9,29.1z"/>
	<path d="M47.9,33c-1.8,0-2.8-1.7-3.1-3.4c-0.5-1.7-0.6-3.7-0.6-4.7c0-1.4,0-3,0.2-4.3c0.1-0.5,0.5-0.8,1.1-0.8c0.6,0,1,0.4,1,0.8
		c0,1.3-0.2,2.6-0.2,4c0,1.8,0,4.1,0.8,5.6c0.2,0.6,0.6,0.8,1,0.8c1.2,0,1.7-1.9,1.8-4.3c0.1-2.4-0.1-5-0.1-6c0-0.5,0.2-0.8,1-0.8
		c0.6,0,1,0.4,1,0.8c0.4,2.8,0,5.8,0.2,8.5c0.1,0.7,0,1.4,0.6,2c0.1,0.1,0.4,0.4,0.4,0.6c0,0.5-0.5,1-1.1,1s-1.1-0.5-1.3-1
		C49.8,32.4,48.9,33,47.9,33z"/>
	<path d="M54.3,26.5c0-2.2,0-4.3,0-5.8c0-0.5,0.5-0.8,1-0.8c0.7,0,0.8,0.4,1,0.8c0.1,1.3,0,2.9,0,4.2c0.1,2.3,0.2,4.6,0.4,6.8v0.2
		c0,0.4-0.4,0.8-1,0.8c-0.7,0-1-0.5-1.1-0.8C54.3,30.7,54.3,28.7,54.3,26.5z"/>
	<path d="M57.6,26.8c0-1,0.1-2.6,0.6-4.2c0.6-1.4,1.4-2.9,3.1-2.9c1.9,0,3,1.9,3,3.2c0,0.2,0,0.7-0.2,1.2c-0.1,0.5-0.5,1-1.1,1
		c-0.5,0-1-0.4-1-0.8c0-0.2,0.1-0.5,0.2-0.7c0-0.4,0.1-0.6,0.1-0.8c0-0.5-0.4-1.2-1-1.2c-0.7,0-1.2,0.8-1.6,2.2
		c-0.2,1.2-0.4,2.4-0.4,3c0,0.5,0,1.6,0.4,2.5c0.2,1.1,0.7,1.8,1.3,1.8c0.2,0,0.5-0.1,0.6-0.4c0.2-0.2,0.4-0.6,0.5-1
		s0.2-0.8,0.4-1.1c0.2-0.2,0.5-0.6,0.8-0.6c0.6,0,1,0.5,1,1c0,1.2-1.2,4-3.2,4C58.2,32.9,57.6,29.1,57.6,26.8z"/>
	<path d="M67.8,31.6c0,0.5-0.2,1.2-1.1,1.2c-0.6,0-1-0.5-1-0.8c-0.2-3.6-0.1-7.3-0.1-10.9c0-0.4,0.4-1,1-1c0.7,0,1,0.6,1,1
		c0.1,2.4,0.1,4.8,0.2,7.2c1.8-1.3,2.5-3,2.5-5.2c0-0.7,0-1.3,0-2c0-0.4,0.2-1,0.8-1c0.7,0,1,0.7,1.1,1.3c0,0.6,0,1.2,0,1.6
		c0,1.7-0.4,3.7-1.7,5.2c1.7,0.5,2,2.5,2,4.1c0,0.5-0.5,0.7-0.8,0.7c-0.6,0-0.8-0.4-1-0.6c0-0.2-0.1-0.4-0.1-0.6
		c-0.1-1-0.1-1.9-1.4-1.9c-0.4,0-1.2,0.2-1.4,0.4C67.8,30.4,67.9,31,67.8,31.6z"/>
	<path d="M80.6,33c-0.4,0-1-0.2-1-0.7c0-0.8,0-1.7,0-2.5l0.1-5.2c0-0.8,0-1.8,0-2.6c-0.1-0.1-0.2-0.4-0.2-0.6c0-0.6,0.8-1,1.4-1.2
		c0.7-0.2,1.6-0.4,2-0.4c2.4,0,3.5,1.7,3.5,3.5c0,1.4-0.8,2.8-2,3.8c1.3,0.4,2,1.2,2,2.4c0,2-1.6,3.4-4,3.4c-0.5,0-0.8,0-1.3-0.1
		C81.1,32.9,80.9,33,80.6,33z M82.8,31c1.1,0,1.8-0.5,1.8-1.4c0-0.5-0.5-0.6-1.2-0.6c-0.5,0-1.1,0-1.6,0.1c0,0.6-0.1,1.2-0.1,1.9
		C82.1,31,82.4,31,82.8,31z M84.6,23.2c0-1-0.5-1.6-1.6-1.6c-0.5,0-0.8,0.1-1.2,0.2c0,1.6,0.1,3.2,0,4.9
		C83.3,25.9,84.6,24.6,84.6,23.2z"/>
	<path d="M90,32.2c0,0.4-0.4,0.8-1,0.8s-1-0.5-1.1-0.8c-0.4-2-0.2-4.3-0.2-6.4c0-0.7-0.1-1.7-0.1-2.5s0.1-1.8,0.2-2.5
		c0.1-0.5,0.5-0.7,0.8-0.8c0.1,0,0.4-0.1,0.6-0.1c2.8,0,6,1.4,6,4.7c0,1.6-1.2,2.9-2.5,3.7c0.2,0.6,0.6,1.2,0.8,1.7
		c0.4,0.6,0.7,1.2,1.2,1.8c0.1,0.1,0.1,0.2,0.1,0.4c0,0.5-0.5,1-1,1s-0.8-0.4-1.1-0.6c-0.4-0.4-0.6-0.8-1-1.3c-0.5-0.7-0.8-1.6-1-2
		c-0.4,0.1-0.8,0.1-1.2,0.2C89.9,30.1,90,31.2,90,32.2z M93.3,24.7c0-1.1-0.7-2-1.7-2.6c-0.7-0.4-1.2-0.5-1.9-0.5
		c-0.1,1-0.1,1.9-0.1,2.9s0,1.9,0.1,2.9C91.2,27,93.3,25.9,93.3,24.7z"/>
	<path d="M96.1,26.8c0-1,0.2-2.6,0.7-4.1c0.6-1.4,1.6-2.9,3.2-2.9c3.1,0,3.5,4.6,3.5,6.8c0,1.8-0.4,6.2-3.7,6.2
		C96.9,32.9,96.1,29.1,96.1,26.8z M99.9,31.1c1.8,0,1.8-4.9,1.8-6.1c0-0.8-0.5-3.2-1.6-3.2c-1.7,0-2.2,3.7-2.2,4.9
		c0,0.5,0.1,1.6,0.4,2.6C98.7,30.4,99.2,31.1,99.9,31.1z"/>
	<path d="M108.3,25.5c0.1-0.5,0.1-1,0.2-1.6c0.1-0.6,0.2-1.1,0.5-1.6c0.1-0.2,0.5-0.7,1-0.7c0.7,0,1.1,0.2,1.2,0.7
		c0.4,1.1,0.6,2.3,1,3.5c0.4,1.1,0.7,2.3,1.1,3.4c0.4-2.9,0.1-5.8,0.5-8.4c0.1-0.5,0.4-1,1.1-1c0.6,0,1,0.6,1,1c0,1.7,0,3.7-0.1,5.9
		c-0.1,2-0.4,4.1-1,5.6c-0.2,0.5-0.5,0.7-1.1,0.7c-0.5,0-0.8-0.2-1.1-0.6c-0.6-0.7-1.1-2.2-1.6-3.5c-0.2-1.1-0.5-2.2-0.7-3
		c-0.2,0.8-0.6,2.2-1,3.5c-0.2,0.8-0.5,1.8-0.8,2.4c-0.1,0.4-0.4,0.6-0.5,0.8c-0.1,0.1-0.4,0.4-0.7,0.4c-0.5,0-0.8-0.4-1.1-0.7
		c-1.1-2.3-1.6-9-1.6-11.5c0-0.4,0.1-1,1-1c0.7,0,1,0.5,1.1,1c0.1,0.8,0,1.8,0.1,2.6c0,2,0.1,4.1,0.5,6
		C107.7,28.1,108.1,26.8,108.3,25.5z"/>
	<path d="M122.3,24.3c0-1.1-0.1-2.2-0.1-3.2c0-0.5,0.4-0.8,0.8-0.8c0.7,0,1,0.4,1,0.8c0.2,1.4,0.2,3,0.2,4.4c0,1-0.1,6.1-0.5,6.8
		c-0.1,0.5-0.6,0.6-1.1,0.6c-0.8,0-2-3-2.4-3.6c-0.5-1.1-1-2.3-1.3-3.1l0.1,4.3c0,0.5,0,1,0,1.4c0,0.4-0.4,0.8-1,0.8
		c-0.7,0-1-0.5-1.1-0.8c-0.1-0.8-0.2-1.8-0.2-2.8c0-2.6,0.1-5.4,0.2-8c0-0.6,0.2-1,1-1c0.1,0,0.4,0,0.5,0.1c0.6,0.2,3.1,7,3.6,8.2
		C122.1,27,122.3,25.6,122.3,24.3z"/>
	<path d="M133.5,32.2c0,0.5-0.5,0.8-1.1,0.8c-0.2,0-0.4-0.1-0.5-0.2c-0.1-0.2-0.2-0.4-0.4-0.6c-0.1-0.6-0.2-1.2-0.4-1.9
		c-0.1-1.3,0-2.9,0-3.2c0-2,0-4.2,0.1-6.2c0.1-0.5,0.4-0.7,1-0.7c1.1,0,2.2-0.2,3.1-0.2c0.2,0,0.5,0,0.7,0c0.6,0,1.6,0.1,1.6,1
		c0,0.4-0.2,0.8-1,0.8h-3.5c0,1.8-0.1,3.5-0.1,5.3c0.8-0.1,1.8-0.2,2.8-0.2c0.6,0,0.8,0.6,0.8,1s-0.2,1-0.8,1c-1,0-1.9,0.1-2.8,0.1
		C133.3,29.8,133.5,31,133.5,32.2z"/>
	<path d="M138.1,26.8c0-1,0.2-2.6,0.7-4.1c0.6-1.4,1.6-2.9,3.2-2.9c3.1,0,3.5,4.6,3.5,6.8c0,1.8-0.4,6.2-3.7,6.2
		C138.9,32.9,138.1,29.1,138.1,26.8z M141.9,31.1c1.8,0,1.8-4.9,1.8-6.1c0-0.8-0.5-3.2-1.6-3.2c-1.7,0-2.2,3.7-2.2,4.9
		c0,0.5,0.1,1.6,0.4,2.6C140.7,30.4,141.2,31.1,141.9,31.1z"/>
	<path d="M149.4,31c-0.2,0.5-0.5,1-0.7,1.3c-0.1,0.2-0.2,0.4-0.4,0.5l-0.4,0.2c-0.7,0-1.1-0.6-1.1-1.1c0-0.1,0.5-1.3,1.1-2.5
		c0.5-1.1,1.1-2.3,1.3-2.6c-0.2-0.5-0.8-1.8-1.4-3.1c-0.5-1.3-1.1-2.8-1.1-2.9c0-0.5,0.5-0.8,1-0.8c1,0,1.8,2.5,2.5,4.2
		c0.5-1.1,1.4-3.6,1.7-4c0.1-0.2,0.5-0.4,0.8-0.4c0.6,0,1,0.5,1,0.8c0,0.4-0.5,1.7-1.1,3c-0.5,1.2-1.1,2.5-1.2,3
		c0.2,0.5,0.8,1.7,1.3,2.8c0.6,1.2,1.2,2.4,1.2,2.8c0,0.5-0.5,0.8-1,0.8c-0.6,0-0.8-0.4-1-0.7c-0.4-0.6-0.6-1.2-1-1.8
		c-0.2-0.5-0.5-1-0.7-1.4C150.1,29.5,149.7,30.3,149.4,31z"/>
	<path d="M163.2,20.8c0-0.4,0.2-1,0.8-1c0.8,0,1.7,0.4,2.6,0.4c0.5,0,1-0.2,1.6-0.2s0.8,0.6,0.8,1c0,0.7-0.8,1.1-1.6,1.1
		c0,2.2,0.1,4.4,0.1,6.6c0,1.6-0.2,4.2-3,4.2c-2.2,0-3.7-1.9-3.7-3.6c0-1,0.6-2.3,1.7-2.3c0.6,0,1,0.6,1,1c0,0.7-0.6,0.6-0.6,1.2
		c0,1,0.6,1.8,1.8,1.8c0.7,0,0.8-1.1,1-1.7c0.1-1,0-2,0-2.5c0-1.6,0-3.1,0-4.7C165,22,163.2,21.7,163.2,20.8z"/>
	<path d="M173.7,33c-1.8,0-2.8-1.7-3.1-3.4c-0.5-1.7-0.6-3.7-0.6-4.7c0-1.4,0-3,0.2-4.3c0.1-0.5,0.5-0.8,1.1-0.8c0.6,0,1,0.4,1,0.8
		c0,1.3-0.2,2.6-0.2,4c0,1.8,0,4.1,0.8,5.6c0.2,0.6,0.6,0.8,1,0.8c1.2,0,1.7-1.9,1.8-4.3c0.1-2.4-0.1-5-0.1-6c0-0.5,0.2-0.8,1-0.8
		c0.6,0,1,0.4,1,0.8c0.4,2.8,0,5.8,0.2,8.5c0.1,0.7,0,1.4,0.6,2c0.1,0.1,0.4,0.4,0.4,0.6c0,0.5-0.5,1-1.1,1s-1.1-0.5-1.3-1
		C175.7,32.4,174.8,33,173.7,33z"/>
	<path d="M182.3,31.9c0,0.4-0.2,0.8-1,0.8c-1.4,0-1.6-2.6-1.6-3.6c0-2.8,0-5.4,0.2-8.2c0.1-0.5,0.2-1,1-1c0.7,0,1,0.5,1.1,1
		c0.4,1.9,1.6,5.2,2.6,7.1c1.3-2.5,1.9-5.2,2.9-7.7c0.1-0.4,0.5-0.7,1-0.7c0.5,0,0.7,0.4,1,0.6c0.2,0.5,0.4,8.4,0.4,9.4
		c0,0.4,0.1,1.1,0,1.7c0,0.4,0,0.6-0.2,1c-0.1,0.2-0.4,0.4-0.7,0.4c-0.6,0-1-0.5-1.1-0.8c-0.1-1.1-0.1-2.3-0.1-3.6
		c0-0.6,0-1.2,0-1.9c-0.1,0.6-0.4,1.2-0.6,1.7c-0.5,1.2-1.2,2.5-2.3,2.5c-1.1,0-1.8-1.2-2.4-2.3c-0.1-0.4-0.4-0.8-0.5-1.2
		C182,28.7,182.3,30.4,182.3,31.9z"/>
	<path d="M192.9,19.8c3.1,0,5.4,2.2,5.4,4.7c0,2.4-2.6,4.4-5.3,4.8c0,1,0.2,1.9,0.2,2.9c0,0.4-0.4,0.8-1,0.8c-0.7,0-1-0.5-1.1-0.8
		c-0.2-1-0.2-2-0.2-3.1c-0.1-1.1,0-2.2,0-3.2c0-1.6-0.1-3.5,0.1-5C191.3,19.8,192.2,19.8,192.9,19.8z M196.4,24.4
		c0-1.7-1.6-2.5-3.4-2.6c-0.1,1.8-0.1,3.7-0.1,5.6C194.7,27,196.4,25.9,196.4,24.4z"/>
	<path d="M200.3,29.4c0.1-0.2,0.5-0.5,1-0.5c0.6,0,0.8,0.2,0.8,0.6v0.4c0,1,0.2,1.2,1.2,1.2c1.2,0,1.7-0.5,1.7-1.6
		c0-0.2-0.2-0.5-0.7-0.7c-0.7-0.2-1.3-0.5-1.9-0.6c-1.4-0.5-3-1.2-3-2.9c0-1.9,1.7-5.6,4.4-5.6c1.9,0,3,2,3,3.2c0,0.5-0.2,1-1,1
		c-0.6,0-1-0.8-1-1.3c-0.1-0.5-0.4-1-1-1c-1.3,0-2.6,2.3-2.6,3.4c0,0.6,0.4,1,0.8,1.2c0.6,0.2,1.2,0.4,1.9,0.6c1.4,0.2,3,0.8,3,2.8
		c0,1.9-1.6,3.4-3.8,3.4c-1.8,0-3-1.2-3-2.6C200.1,30,200.1,29.8,200.3,29.4z"/>
	<path d="M213.9,26.8c0-1,0.2-2.6,0.7-4.1c0.6-1.4,1.6-2.9,3.2-2.9c3.1,0,3.5,4.6,3.5,6.8c0,1.8-0.4,6.2-3.7,6.2
		C214.8,32.9,213.9,29.1,213.9,26.8z M217.8,31.1c1.8,0,1.8-4.9,1.8-6.1c0-0.8-0.5-3.2-1.6-3.2c-1.7,0-2.2,3.7-2.2,4.9
		c0,0.5,0.1,1.6,0.4,2.6C216.6,30.4,217.1,31.1,217.8,31.1z"/>
	<path d="M227.7,20.4c0.1-0.4,0.2-0.7,0.8-0.7c0.7,0,1.1,0.6,1,1.2c-0.5,2.2-1.2,4.4-1.8,6.6c-0.4,1.6-0.6,3-1.1,4.8
		c-0.1,0.7-0.2,0.7-0.8,0.7c-0.5,0-0.8-0.4-1.1-0.7c-0.5-1-3.1-10.3-3.1-11.3c0-0.5,0.2-1.1,1.1-1.1c0.6,0,0.7,0.4,0.8,0.7
		c0.7,2.5,1.3,5,1.9,7.6C226.2,25.6,226.7,22.8,227.7,20.4z"/>
	<path d="M232.7,30.1c0.1,0.6,0.4,1,0.8,1s1.1-0.4,1.6-0.7c0.2-0.1,1-0.8,1.2-0.8c0.6,0,1.1,0.6,1.1,1c0,1.2-3,2.5-4.1,2.5
		c-1.4,0-2-1.1-2.4-2c-0.1-0.6-0.1-1.2-0.2-1.7c0-1.4,0-8,0.6-8.9c0.1,0,0.2-0.1,0.2-0.1c0.5-0.2,1.9-0.4,2.4-0.4
		c1.2-0.1,2.4-0.1,2.8-0.1c0.4,0,0.5,0.1,0.6,0.2c0.1,0.2,0.1,0.5,0.1,0.6c0,0.4-0.2,1-0.8,1c-1.2,0.1-2.5,0.1-3.6,0.2
		c-0.2,1.6-0.4,3.1-0.4,4.8c1-0.2,1.9-0.5,2.9-0.5c0.7,0,1.1,0.6,1.1,1c0,0.4-0.4,0.6-0.6,0.7c-0.4,0.1-0.7,0.2-1.2,0.4
		c-0.7,0.1-1.6,0.1-2,0.2C232.7,28.8,232.5,29.5,232.7,30.1z"/>
	<path d="M240.6,32.2c0,0.4-0.4,0.8-1,0.8c-0.6,0-1-0.5-1.1-0.8c-0.4-2-0.2-4.3-0.2-6.4c0-0.7-0.1-1.7-0.1-2.5s0.1-1.8,0.2-2.5
		c0.1-0.5,0.5-0.7,0.8-0.8c0.1,0,0.4-0.1,0.6-0.1c2.8,0,6,1.4,6,4.7c0,1.6-1.2,2.9-2.5,3.7c0.2,0.6,0.6,1.2,0.8,1.7
		c0.4,0.6,0.7,1.2,1.2,1.8c0.1,0.1,0.1,0.2,0.1,0.4c0,0.5-0.5,1-1,1c-0.5,0-0.8-0.4-1.1-0.6c-0.4-0.4-0.6-0.8-1-1.3
		c-0.5-0.7-0.8-1.6-1-2c-0.4,0.1-0.8,0.1-1.2,0.2C240.5,30.1,240.6,31.2,240.6,32.2z M243.9,24.7c0-1.1-0.7-2-1.7-2.6
		c-0.7-0.4-1.2-0.5-1.9-0.5c-0.1,1-0.1,1.9-0.1,2.9s0,1.9,0.1,2.9C241.8,27,243.9,25.9,243.9,24.7z"/>
	<path d="M253.9,21.7c-0.6,0-1-0.5-1-0.8c0-0.7,0.8-1,1.7-1.1c0.7-0.1,1.7,0,2.2,0s1.4-0.1,2.2,0c0.8,0,1.7,0.2,1.7,1
		c0,0.7-0.8,1-1.4,1c-0.6,0-1.2,0-1.7-0.1c0.1,3.5,0.2,7.1,0.2,10.6c0,0.5-0.5,0.8-1.1,0.8c-0.5,0-0.8-0.4-0.8-0.7
		c-0.4-3.2-0.1-7.3-0.1-10.7C255.1,21.7,254.5,21.7,253.9,21.7z"/>
	<path d="M267.2,21c0-0.5,0.4-0.8,1-0.8c0.6,0,0.8,0.4,0.8,0.8c0.1,3.7,0.4,7.4,0.4,11.2c0,0.4-0.4,0.8-1,0.8
		c-0.4,0-0.6-0.2-0.8-0.6c-0.1-0.2-0.2-0.6-0.2-1.1c0-0.7,0-1,0-1.8c-0.7-0.1-1.4-0.1-2-0.1c-0.5,0-1,0-1.3,0c0,1,0.1,1.8,0.1,2.8
		c0,0.4-0.4,0.8-1,0.8c-0.6,0-1-0.5-1.1-0.8c-0.5-3.6-0.2-7.6-0.2-11.2c0-0.5,0.5-0.8,1-0.8c0.7,0,1,0.4,1,0.8c0,2.2,0,4.4,0.1,6.7
		c1.1-0.2,2.2-0.2,3.4-0.1V21z"/>
	<path d="M272.5,30.1c0.1,0.6,0.4,1,0.8,1s1.1-0.4,1.6-0.7c0.2-0.1,1-0.8,1.2-0.8c0.6,0,1.1,0.6,1.1,1c0,1.2-3,2.5-4.1,2.5
		c-1.4,0-2-1.1-2.4-2c-0.1-0.6-0.1-1.2-0.2-1.7c0-1.4,0-8,0.6-8.9c0.1,0,0.2-0.1,0.2-0.1c0.5-0.2,1.9-0.4,2.4-0.4
		c1.2-0.1,2.4-0.1,2.8-0.1c0.4,0,0.5,0.1,0.6,0.2c0.1,0.2,0.1,0.5,0.1,0.6c0,0.4-0.2,1-0.8,1c-1.2,0.1-2.5,0.1-3.6,0.2
		c-0.2,1.6-0.4,3.1-0.4,4.8c1-0.2,1.9-0.5,2.9-0.5c0.7,0,1.1,0.6,1.1,1c0,0.4-0.4,0.6-0.6,0.7c-0.4,0.1-0.7,0.2-1.2,0.4
		c-0.7,0.1-1.6,0.1-2,0.2C272.5,28.8,272.4,29.5,272.5,30.1z"/>
	<path d="M287.6,30.4c0.5-0.1,1.1-0.2,1.8-0.2c0.7,0,1,0.5,1,1c0,1.4-4,1.6-5,1.6c-1.3,0-1.3-1.8-1.3-2.8c0-2.9,0-6.2,0.4-9.1
		c0.1-0.5,0.5-0.8,1.1-0.8c0.7,0,0.8,0.5,0.8,0.8c0,2.6-0.2,5.4-0.2,8c0,0.6,0,1.2,0,1.8C286.7,30.6,287.1,30.5,287.6,30.4z"/>
	<path d="M293.6,32.1c0,0.4-0.2,0.8-1,0.8c-0.6,0-0.8-0.5-1-0.8c-0.1-1.6-0.2-3-0.2-4.4c0-2.5,0.2-7.9,3.7-7.9c1.9,0,2.8,1.9,3.1,4
		c0.4,1.9,0.4,4.2,0.4,5.3c0,0.4,0,1.3,0,2.2c0,0.5-0.1,0.8-0.2,1.2c-0.1,0.2-0.4,0.6-0.8,0.6c-0.4,0-0.6-0.2-0.7-0.5
		c-0.1-0.4-0.2-0.7-0.2-1c0-0.6,0-1.3,0.1-1.7c-0.5,0-1,0-1.3,0c-0.7,0-1.3,0-1.9,0.1C293.5,30.6,293.6,31.3,293.6,32.1z M296.7,27
		c0-1.3-0.1-3.6-0.7-4.8c-0.2-0.4-0.5-0.6-0.8-0.6c-0.7,0-1.2,0.8-1.4,2c-0.4,1.2-0.4,2.4-0.4,3V28c1.1-0.1,2.2-0.1,3.4,0V27z"/>
	<path d="M304.3,30.6c0.4,0,1.1,0,1.7,0.2c0.6,0.1,1.3,0.5,1.3,1c0,0.5-0.5,1.1-1.1,1.1c-0.4,0-0.7-0.1-1.1-0.2
		c-0.4-0.1-0.7-0.2-1-0.2c-1,0-1.8,0.4-2.6,0.5c-0.2,0.1-0.5,0.1-0.7,0.1c-0.6,0-1-0.5-1-0.8c0-1.1,4-8.5,5-10.6
		c-1.3,0.1-2.6,0.1-4,0.1c-0.6,0-1-0.5-1-0.8s0.2-1,1-1l5.6-0.1c0.5,0,0.8,0.6,0.8,1c0,0.1-0.2,0.5-0.2,0.5
		c-0.7,1.4-1.4,2.9-2.2,4.3c-1.1,2-2.2,4.3-2.5,5.3C303.1,30.7,303.7,30.6,304.3,30.6z"/>
	<path d="M311,29.4c-1.3,0-1.9-1.1-2.3-2.3c-0.2-1.1-0.4-2.4-0.4-3.1c0-0.4,0-1.3,0.1-2.2c0-0.5,0.1-0.8,0.2-1.2
		c0.2-0.2,0.5-0.6,1-0.6c0.4,0,0.8,0.2,0.8,0.7c0,1-0.2,2-0.2,3c0,0.4,0,1.3,0.1,2.2c0.1,0.5,0.2,0.8,0.4,1.2
		c0.1,0.2,0.2,0.4,0.4,0.4c0.4,0,0.6-0.2,0.8-0.8c0.2-0.5,0.5-1.2,0.6-2c0.2-1-0.1-4.7,1.4-4.7c0.4,0,0.6,0.1,0.7,0.4
		c0.4,0.7,0.1,1.7,0.1,2.4c0,1.9,0.1,4,0.1,5.9c0,0.6-0.1,1.8-0.5,2.6c-0.4,1-1,1.8-2.3,1.8s-2.9-0.5-2.9-1.9c0-0.5,0.4-0.8,1-0.8
		c1.1,0,0.5,1,1.7,1c0.8,0,1-1.4,1.1-2.2c0-0.2,0-0.4,0-0.6C312.6,28.9,311.9,29.4,311,29.4z"/>
	<path d="M323.1,33c-0.8,0-1-0.6-1-1V21.4c-0.1-0.1-0.2-0.4-0.2-0.6c0-0.8,1.8-1,2.4-1c4.1,0,5.2,4.3,5.2,6.8c0,2.9-1.7,6.1-5.6,6.1
		C323.6,32.9,323.4,33,323.1,33z M327.6,26.9c0-2-0.6-5.3-3.4-5.3H324c0.1,3.1,0.2,6.1,0.2,9.1C326.5,30.6,327.6,28.8,327.6,26.9z"
		/>
	<path d="M330.6,26.8c0-1,0.2-2.6,0.7-4.1c0.6-1.4,1.6-2.9,3.2-2.9c3.1,0,3.5,4.6,3.5,6.8c0,1.8-0.4,6.2-3.7,6.2
		C331.4,32.9,330.6,29.1,330.6,26.8z M334.4,31.1c1.8,0,1.8-4.9,1.8-6.1c0-0.8-0.5-3.2-1.6-3.2c-1.7,0-2.2,3.7-2.2,4.9
		c0,0.5,0.1,1.6,0.4,2.6C333.2,30.4,333.7,31.1,334.4,31.1z"/>
	<path d="M344.4,27.7c-0.5,0-0.8,0.1-1.2,0.1c-0.7,0-1-0.5-1-1c0-0.6,0.5-0.8,1.1-1c0.4-0.1,0.6-0.1,1-0.1c0.2,0,0.6,0,0.7,0
		c0.8,0,1.3,0.1,1.6,0.5c0.1,0.2,0.1,0.5,0.1,0.6l0.1,0.8c0,1.8-0.6,5.2-3.8,5.2c-2.9,0-3.7-4.3-3.7-6.6c0-1.8,0.7-6.4,4.1-6.4
		c1.6,0,2.9,1.3,2.9,2.5c0,0.6-0.4,1.7-1.3,1.7c-0.5,0-1-0.4-1-0.8c0-0.6,0.5-1.6-1-1.6c-0.7,0-1.2,1.2-1.3,1.8
		c-0.4,1.1-0.5,2.3-0.5,2.8s0,1.7,0.4,2.8c0.2,1.1,0.8,1.8,1.6,1.8c0.8,0,1.2-0.5,1.4-1.2c0.2-0.6,0.2-1.3,0.2-1.9H344.4z"/>
</g>
</svg>
