<?xml version="1.0" encoding="utf-8"?>
<!-- Generator: Adobe Illustrator 26.1.0, SVG Export Plug-In . SVG Version: 6.00 Build 0)  -->
<svg version="1.1" id="Layer_1" xmlns="http://www.w3.org/2000/svg" xmlns:xlink="http://www.w3.org/1999/xlink" x="0px" y="0px"
	 viewBox="0 0 372 36.9" style="enable-background:new 0 0 372 36.9;" xml:space="preserve">
<g>
	<path d="M10.5,5.4c-0.7,0-1.6,0-2.4,0C8.3,9,8.5,12.6,8.4,16.1c-0.1,1-1.4,1-1.6,0C6.6,12.6,6.7,9,6.8,5.4c-0.7,0-1.4,0-2.2,0
		C3.8,5.6,3.8,4.1,4.7,4c2-0.1,4-0.1,5.9,0C11.5,4,11.5,5.4,10.5,5.4z"/>
	<path d="M14.1,16.2c0,1-1.4,1-1.6,0c-0.2-3.7-0.2-7.6-0.2-11.4c0-0.8,1.6-0.8,1.4,0c0,2.4,0,4.7,0.1,7.1c1.3-0.2,2.6-0.2,3.8-0.1
		c0-2.3,0-4.6,0-7c0-0.8,1.6-0.8,1.4,0c0,3.7,0.1,7.4,0.4,11.2c0,0.1,0,0.1,0,0.2c0,1-1.4,1-1.6,0c0-1-0.1-1.9-0.1-2.9
		c-1.3-0.1-2.6-0.2-3.8,0c0,0.8,0,1.7,0.1,2.6C14.1,16.1,14.1,16.1,14.1,16.2z"/>
	<path d="M26.1,5.3c-1.2,0.1-2.5,0.1-3.8,0.2c-0.2,1.8-0.2,3.5-0.2,5.3c1-0.1,1.9-0.4,2.9-0.5c1-0.1,1.4,1.2,0.5,1.4
		c-1.1,0.2-2.3,0.4-3.4,0.5c0,1,0,2.8,0.6,3.1c0.6,0.4,2.3-0.5,2.9-0.7c1-0.4,1.3,1.1,0.4,1.4c-1.1,0.5-2.4,1.1-3.6,0.7
		c-1.3-0.4-1.4-1.6-1.6-2.6C20.4,11.1,20.6,8,21,4.8c0-0.2,0.1-0.4,0.1-0.4c0.1-0.2,0.4-0.4,0.6-0.4c1.4-0.1,3-0.2,4.4-0.4
		C27.1,3.8,27.1,5.2,26.1,5.3z"/>
	<path d="M41.5,15.6c0.6,0.7-0.4,1.8-1.1,1.1c-0.2-0.2-0.5-0.5-0.7-0.8c-1.3,1.3-3.4,1.2-4.7-0.5c-1.6-1.9-1.6-5-1-7.3
		c0.6-2,1.9-4.6,4.4-4c2,0.5,2.9,2.9,3,4.8c0,0.1,0,0.1,0,0.1c0,1.1,0,2-0.2,3.1c-0.1,0.8-0.2,1.7-0.6,2.4
		C40.9,14.9,41.3,15.3,41.5,15.6z M38.9,14.6c-0.5-1-1.1-1.9-1.7-2.9c-0.5-0.7,0.7-1.4,1.3-0.7c0.4,0.6,0.7,1.3,1.1,1.9
		c0.4-1.3,0.4-2.6,0.4-3.8c0,0,0,0,0-0.1c0-0.8-0.2-1.8-0.7-2.5c-0.6-1.1-2-1.2-2.8-0.1c-1.3,1.8-1.6,4.4-1.1,6.5
		c0.4,1.1,0.8,2.4,2,2.6C38,15.4,38.5,15,38.9,14.6z"/>
	<path d="M50,4.7c0.2,2.3,0.1,4.7,0.1,7.1c0,2-0.7,4.4-3,5c-2.4,0.6-3.6-2.3-3.8-4.2c-0.5-2.8-0.4-5.5-0.1-8.2c0.1-1,1.7-1,1.6,0
		c-0.2,2.2-0.4,4.3-0.1,6.5c0.1,1.2,0.7,5.8,2.9,4c1.3-1.1,1.2-3.2,1.2-4.8c0-1.8-0.1-3.6-0.2-5.4C48.5,3.6,49.9,3.8,50,4.7z"/>
	<path d="M53.1,4.6c0,3.7,0.1,7.6,0.4,11.3c0,0.1,0,0.1,0,0.2c0,1-1.4,1-1.6,0c-0.2-3.7-0.2-7.7-0.2-11.5
		C51.7,3.8,53.3,3.8,53.1,4.6z"/>
	<path d="M60.9,13c-0.2,1.9-1.8,4.6-4.1,3.4c-2.2-1.1-2.4-4.3-2.4-6.5c0.1-1.9,0.7-5.6,3-6.2c1.1-0.2,2,0.2,2.6,1
		c0.7,0.8,0.8,1.8,0.7,2.9c-0.2,1-1.7,0.6-1.4-0.4c0.1-0.7-0.1-1.6-0.7-1.9c-1-0.5-1.4,0.2-1.8,1c-0.6,1.3-1,2.9-0.8,4.3
		c0,1.3,0.1,3.5,1.2,4.3c1.4,1.2,2-1.2,2.3-2.3C59.7,11.6,61.1,12,60.9,13z"/>
	<path d="M62.1,16C62,12.3,62,8.6,62,4.8c0-1,1.4-1,1.4,0c0.1,2.5,0.1,5,0.2,7.6c0,0,0.1,0,0.2,0c1-0.6,1.9-1.8,2.3-2.6
		c0.7-1.6,0.6-3.2,0.5-4.9c0-1,1.4-1,1.4,0c0.1,2.2,0.2,4.4-1,6.2c-0.2,0.4-0.5,0.8-0.8,1.2c0.4,0,0.6,0.1,0.8,0.2
		c1.2,0.7,1.3,2.3,1.4,3.6c0.1,0.8-1.3,1-1.4,0.1c-0.1-0.7-0.1-2.2-1.1-2.4c-0.5-0.2-1.2-0.1-1.8,0c-0.2,0.1-0.5,0.1-0.6,0.2
		c0,0.6,0,1.3,0,1.9C63.6,17,62.1,17,62.1,16z"/>
	<path d="M80,11.2c1.3,0.2,2.5,1.1,2.3,2.9c-0.4,2.5-3.1,3.1-5.2,2.6c-0.5,0.4-1.3,0.2-1.3-0.6c0.1-3.4,0.2-6.8,0.2-10.3
		c-0.5-0.4-0.5-1.1,0.1-1.3c1.3-0.5,2.9-1,4.2-0.4c1.2,0.5,1.9,1.6,1.9,2.8C82.4,8.7,81.3,10.1,80,11.2z M77.5,13
		c0,0.7-0.1,1.4-0.1,2.2c1.2,0.2,2.6,0.4,3.2-0.8C81.6,12.3,78.7,12.6,77.5,13z M80.6,8c0.4-1.1,0.1-2.3-1.2-2.6
		c-0.6-0.1-1.3,0-1.9,0.2c0,1.8,0.1,3.7,0,5.5C78.8,10.4,80,9.4,80.6,8z"/>
	<path d="M88.1,12c0.2,0.5,0.5,1,0.7,1.4c0.5,0.7,1.1,1.4,1.4,2.3c0.4,0.7-0.6,1.6-1.2,0.8c-0.6-0.7-1.1-1.6-1.6-2.4
		c-0.2-0.5-0.6-1-0.7-1.4c-0.6,0.1-1.1,0.2-1.7,0.4c0.1,1,0.1,2,0.2,3c0,1-1.4,1-1.6,0c-0.4-3.8-0.4-7.7-0.1-11.5
		c0.1-0.5,0.4-0.7,0.7-0.7h0.1c1.4-0.2,2.9,0,4.1,0.8c1.1,0.8,2.2,2.3,2.2,3.6C90.7,9.9,89.5,11.2,88.1,12z M89.1,8.3
		c0-1-1-2.2-1.8-2.6c-0.7-0.4-1.4-0.5-2.3-0.5c-0.1,2.2-0.1,4.2,0,6.4C86.7,11.3,89.1,10.1,89.1,8.3z"/>
	<path d="M99,12.2c-0.1,1-0.4,2-0.8,3c-0.5,0.7-1.4,1.6-2.4,1.7c-1.2,0.1-2.2-0.6-2.9-1.4c-1.4-2-1.4-5.2-0.7-7.6
		c0.5-1.9,1.8-4.6,4.2-3.7c2,0.5,2.8,2.9,2.8,4.8C99.2,10,99.1,11.1,99,12.2z M97.5,8.9c0-0.8-0.2-1.8-0.6-2.6
		c-0.6-1-1.8-1.2-2.5-0.2c-1.3,1.7-1.4,4.4-1.1,6.5c0.2,1.1,0.7,2.8,2,2.9c1,0,1.6-1.2,1.7-1.9C97.5,12,97.5,10.5,97.5,8.9z"/>
	<path d="M109.9,4.6c-0.2,3.8-0.2,7.8-1.1,11.8c-0.2,0.7-1.3,0.6-1.6,0c-0.8-2.2-1.6-4.2-2.2-6.4c-0.5,2.2-1.1,4.2-1.8,6.2
		c-0.2,0.7-1.3,0.8-1.6,0c-1.1-3.7-1.3-7.7-1.6-11.6c0-1,1.6-1,1.6,0c0.1,2.9,0.4,5.9,0.8,8.8c0.4-0.7,0.5-1.6,0.7-2.3
		c0.4-1.7,0.7-3.2,1-4.9c0.1-0.5,0.5-0.6,0.7-0.6c0.4,0,0.7,0.1,0.8,0.6c0.5,2.4,1.1,4.7,1.9,7c0.4-2.8,0.5-5.6,0.6-8.5
		C108.3,3.6,109.9,3.6,109.9,4.6z"/>
	<path d="M117.7,5c0.4,3.7,0,7.4-0.2,11.2c0,0.5-0.4,0.7-0.7,0.7c-0.5,0-0.7-0.1-0.8-0.5c-1.3-2.4-2.4-4.9-3.4-7.4
		c0.1,2.3,0.1,4.7,0.1,7.1c0,1-1.4,1-1.6,0c-0.2-3.6-0.2-7.4,0.1-11.2c0-0.8,1.1-0.8,1.3-0.2c1,2.8,2.2,5.8,3.5,8.5
		c0.2-2.8,0.5-5.4,0.2-8.2C116.3,4,117.7,4,117.7,5z"/>
	<path d="M130.4,5.3c-1.3-0.1-2.5-0.1-3.8-0.1c0,1.9-0.1,3.8-0.1,5.8c1-0.1,2-0.2,3-0.2s1,1.6,0,1.6s-1.9,0-3,0.1
		c0.1,1.2,0.2,2.3,0.4,3.5c0.4,1-1.2,1.4-1.4,0.5c-0.7-3.8-0.4-7.9-0.2-11.9c0-0.4,0.4-0.6,0.7-0.6c0,0,0,0,0.1,0
		c1.4-0.1,2.9-0.2,4.4-0.1C131.4,3.8,131.4,5.3,130.4,5.3z"/>
	<path d="M138.9,12.2c-0.1,1-0.4,2-0.8,3c-0.5,0.7-1.4,1.6-2.4,1.7c-1.2,0.1-2.2-0.6-2.9-1.4c-1.4-2-1.4-5.2-0.7-7.6
		c0.5-1.9,1.8-4.6,4.2-3.7c2,0.5,2.8,2.9,2.8,4.8C139.2,10,139.1,11.1,138.9,12.2z M137.5,8.9c0-0.8-0.2-1.8-0.6-2.6
		c-0.6-1-1.8-1.2-2.5-0.2c-1.3,1.7-1.4,4.4-1.1,6.5c0.2,1.1,0.7,2.8,2,2.9c1,0,1.6-1.2,1.7-1.9C137.5,12,137.5,10.5,137.5,8.9z"/>
	<path d="M140.4,15.8c0.8-1.7,1.7-3.4,2.4-5c-0.8-1.9-1.7-4-2.5-5.9c-0.4-0.8,1.1-1.3,1.6-0.4c0.5,1.4,1.2,2.9,1.8,4.2
		c0.2-0.7,0.6-1.3,0.8-2c0.4-0.8,0.6-1.8,1-2.5c0.6-0.8,1.8-0.1,1.3,0.8c-0.5,0.8-0.7,1.9-1.1,2.9c-0.4,1-0.8,1.9-1.2,2.8
		c0.5,1.1,1,2,1.4,3c0.4,0.7,0.8,1.6,1.1,2.4c0.4,1-1.1,1.3-1.4,0.4c-0.4-1-1-1.9-1.4-2.8c-0.1-0.4-0.4-0.7-0.5-1.1
		c-0.6,1.3-1.2,2.6-1.9,4.1C141.3,17.4,140,16.6,140.4,15.8z"/>
	<path d="M160.8,5.7c-0.2,0-0.5,0-0.7,0c0,1.7,0.1,3.5,0.1,5.2c0,1.4,0.2,3.4-0.5,4.7c-0.7,1.1-2.2,1.4-3.4,1.1
		c-1.4-0.4-2.3-1.8-2.3-3.1c0-1,1.6-1,1.6,0c0,1.1,1.2,2.2,2.3,1.6c1-0.5,0.7-2.2,0.7-3c0-2,0-4.2,0-6.2c-0.6,0-1.2-0.1-1.8-0.1
		c-1-0.1-1-1.7,0-1.6c1.3,0.1,2.6,0.1,4,0C161.9,4.1,161.9,5.7,160.8,5.7z"/>
	<path d="M169.7,4.7c0.2,2.3,0.1,4.7,0.1,7.1c0,2-0.7,4.4-3,5c-2.4,0.6-3.6-2.3-3.8-4.2c-0.5-2.8-0.4-5.5-0.1-8.2c0.1-1,1.7-1,1.6,0
		c-0.2,2.2-0.4,4.3-0.1,6.5c0.1,1.2,0.7,5.8,2.9,4c1.3-1.1,1.2-3.2,1.2-4.8c0-1.8-0.1-3.6-0.2-5.4C168.1,3.6,169.5,3.8,169.7,4.7z"
		/>
	<path d="M171.5,16.1c-0.7-3.7-0.6-7.6-0.2-11.3c0-0.5,0.2-0.7,0.7-0.7c0.6,0,0.8,0.5,0.8,0.7C173,6,173.5,7,174,8.7
		c0.4,1.2,1.1,2.8,1.8,3.8c0.5-1,0.8-1.7,1.1-2.4c0.2-0.7,0.6-1.4,0.8-2.2c0.5-1.6,0.7-2,1.2-3.7c0.2-0.7,1.2-0.6,1.4,0
		c0,0.1,0.1,0.2,0.1,0.5c0.1,3.7,0.4,7.4,0.2,11.2c0,1.1-1.4,1-1.6,0C179,14,179,10.7,179,8.7c-0.1,0.4-0.4,1.2-0.5,1.7
		c-0.2,0.8-0.2,0.8-0.6,1.7c-0.4,0.8-1,1.8-1.6,2.2c-1.4,0.8-3-2.3-3.4-3.5c-0.1-0.5-0.4-1.2-0.5-1.7c0.1,1.8,0.2,5.2,0.5,7
		C173.1,16.8,171.7,17,171.5,16.1z"/>
	<path d="M188.9,8.4c0,2.5-3,4.4-5.4,4.7c0,1.1,0,2,0.1,3c0.1,1.1-1.4,1-1.6,0c-0.4-3.7-0.2-7.7,0-11.5c0-0.5,0.4-0.6,0.7-0.7
		C185.6,3.5,188.7,5.3,188.9,8.4z M187.3,8.4c0-2.2-2.2-3-4-3.1c-0.1,2-0.1,4.2,0,6.2C185,11.3,187.3,10.1,187.3,8.4z"/>
	<path d="M197,12.9c0.5,1.9-0.8,3.7-2.8,4c-1.9,0.2-4-0.8-3.8-3c0-1,1.4-1,1.4,0c0.1,1.3,1.3,1.7,2.5,1.4c1.1-0.2,1.8-2.2,0.4-2.6
		c-1.6-0.6-4.6-0.8-4.8-3c-0.4-2.2,1-4.6,2.9-5.5c2.2-1.1,4,0.7,4.1,2.9c0,0.8-1.4,0.8-1.4,0S195,5.2,194,5.3
		c-0.6,0-1.2,0.6-1.6,1.1c-0.6,0.6-1.6,2.3-1,3.2c0.6,1,2.4,1.1,3.4,1.4S196.8,11.8,197,12.9z"/>
	<path d="M211.4,12.2c-0.1,1-0.4,2-0.8,3c-0.5,0.7-1.4,1.6-2.4,1.7c-1.2,0.1-2.2-0.6-2.9-1.4c-1.4-2-1.4-5.2-0.7-7.6
		c0.5-1.9,1.8-4.6,4.2-3.7c2,0.5,2.8,2.9,2.8,4.8C211.7,10,211.5,11.1,211.4,12.2z M210,8.9c0-0.8-0.2-1.8-0.6-2.6
		c-0.6-1-1.8-1.2-2.5-0.2c-1.3,1.7-1.4,4.4-1.1,6.5c0.2,1.1,0.7,2.8,2,2.9c1,0,1.6-1.2,1.7-1.9C210,12,210,10.5,210,8.9z"/>
	<path d="M211.9,4.8c-0.1-1,1.3-1.3,1.4-0.4c0.6,2.9,1.4,5.8,2.3,8.6c0.7-3,1.4-5.9,2.4-8.9c0.2-1,1.7-0.5,1.4,0.5
		c-1.1,3.8-2.2,7.7-2.9,11.6c-0.1,0.8-1.3,0.6-1.6,0C213.7,12.5,212.7,8.8,211.9,4.8z"/>
	<path d="M226.2,5.3c-1.2,0.1-2.5,0.1-3.8,0.2c-0.2,1.8-0.2,3.5-0.2,5.3c1-0.1,1.9-0.4,2.9-0.5c1-0.1,1.4,1.2,0.5,1.4
		c-1.1,0.2-2.3,0.4-3.4,0.5c0,1,0,2.8,0.6,3.1c0.6,0.4,2.3-0.5,2.9-0.7c1-0.4,1.3,1.1,0.4,1.4c-1.1,0.5-2.4,1.1-3.6,0.7
		c-1.3-0.4-1.4-1.6-1.6-2.6c-0.4-3.1-0.1-6.2,0.2-9.4c0-0.2,0.1-0.4,0.1-0.4c0.1-0.2,0.4-0.4,0.6-0.4c1.4-0.1,3-0.2,4.4-0.4
		C227.1,3.8,227.1,5.2,226.2,5.3z"/>
	<path d="M232.4,12c0.2,0.5,0.5,1,0.7,1.4c0.5,0.7,1.1,1.4,1.4,2.3c0.4,0.7-0.6,1.6-1.2,0.8c-0.6-0.7-1.1-1.6-1.6-2.4
		c-0.2-0.5-0.6-1-0.7-1.4c-0.6,0.1-1.1,0.2-1.7,0.4c0.1,1,0.1,2,0.2,3c0,1-1.4,1-1.6,0c-0.4-3.8-0.4-7.7-0.1-11.5
		c0.1-0.5,0.4-0.7,0.7-0.7h0.1c1.4-0.2,2.9,0,4.1,0.8c1.1,0.8,2.2,2.3,2.2,3.6C235.1,9.9,233.9,11.2,232.4,12z M233.5,8.3
		c0-1-1-2.2-1.8-2.6c-0.7-0.4-1.4-0.5-2.3-0.5c-0.1,2.2-0.1,4.2,0,6.4C231.1,11.3,233.5,10.1,233.5,8.3z"/>
	<path d="M248.6,5.4c-0.7,0-1.6,0-2.4,0c0.1,3.6,0.4,7.2,0.2,10.7c-0.1,1-1.4,1-1.6,0c-0.2-3.5-0.1-7.1,0-10.7c-0.7,0-1.4,0-2.2,0
		c-0.8,0.1-0.8-1.3,0-1.4c2-0.1,4-0.1,5.9,0C249.6,4,249.6,5.4,248.6,5.4z"/>
	<path d="M252.2,16.2c0,1-1.4,1-1.6,0c-0.2-3.7-0.2-7.6-0.2-11.4c0-0.8,1.6-0.8,1.4,0c0,2.4,0,4.7,0.1,7.1c1.3-0.2,2.6-0.2,3.8-0.1
		c0-2.3,0-4.6,0-7c0-0.8,1.6-0.8,1.4,0c0,3.7,0.1,7.4,0.4,11.2c0,0.1,0,0.1,0,0.2c0,1-1.4,1-1.6,0c0-1-0.1-1.9-0.1-2.9
		c-1.3-0.1-2.6-0.2-3.8,0c0,0.8,0,1.7,0.1,2.6C252.2,16.1,252.2,16.1,252.2,16.2z"/>
	<path d="M264.2,5.3c-1.2,0.1-2.5,0.1-3.8,0.2c-0.2,1.8-0.2,3.5-0.2,5.3c1-0.1,1.9-0.4,2.9-0.5c1-0.1,1.4,1.2,0.5,1.4
		c-1.1,0.2-2.3,0.4-3.4,0.5c0,1,0,2.8,0.6,3.1c0.6,0.4,2.3-0.5,2.9-0.7c1-0.4,1.3,1.1,0.4,1.4c-1.1,0.5-2.4,1.1-3.6,0.7
		c-1.3-0.4-1.4-1.6-1.6-2.6c-0.4-3.1-0.1-6.2,0.2-9.4c0-0.2,0.1-0.4,0.1-0.4c0.1-0.2,0.4-0.4,0.6-0.4c1.4-0.1,3-0.2,4.4-0.4
		C265.2,3.8,265.2,5.2,264.2,5.3z"/>
	<path d="M271.8,14c0-3.1,0.2-6.2,0.4-9.4c0.1-1,1.6-1,1.4,0c-0.1,1.8-0.1,3.6-0.1,5.4c0,1-0.1,1.9-0.1,2.9c0,0.6,0,1.4,0.1,2
		c0.5,0,1-0.1,1.4-0.2c0.8-0.1,1.3-0.1,2-0.2c1-0.1,1.1,1.4,0.2,1.6c-0.8,0.1-1.6,0.2-2.4,0.4c-0.6,0-1.3,0.2-1.9,0.2
		C271.7,16.5,271.9,14.9,271.8,14z"/>
	<path d="M285.5,8.7c0.2,2.5,0.2,5,0.1,7.6c-0.1,1-1.4,1-1.4,0c0-0.4,0-1.2,0-2.4c-1.2-0.1-2.5-0.1-3.7,0.1c0,0.7,0.1,1.6,0.1,2.3
		c0.1,1-1.4,1-1.4,0c-0.2-2.4-0.5-4.8-0.1-7.2c0.2-1.9,0.7-4.9,3.1-5.2C284.6,3.8,285.3,6.8,285.5,8.7z M284.1,12.3
		c0-3.2-0.2-7.3-2-6.8C281,5.7,280.7,7,280.5,8c-0.1,0.8-0.2,1.8-0.2,2.8c0,0.6,0,1.2,0,1.7C281.6,12.2,282.9,12.2,284.1,12.3z"/>
	<path d="M293.7,5c-1.8,3.4-3.6,6.7-5,10.3c1.4-0.2,2.8-0.1,4.2,0c1,0,1,1.6,0,1.4c-1.7,0-3.5-0.2-5.3,0.2c-0.5,0.1-1.1-0.4-0.8-1
		c1.3-3.6,3.1-7.2,5-10.7c-1.4,0.1-2.9,0.1-4.3,0.1c-0.8,0-0.8-1.4,0-1.4c1.9-0.1,3.7-0.1,5.6-0.1C293.6,3.9,294,4.5,293.7,5z"/>
	<path d="M299.5,12.3c0-0.1,0-0.2,0-0.4c-0.5,0.6-1.1,1.1-1.8,1.3c-1.6,0.4-2.4-1.3-2.6-2.6c-0.4-1.9-0.2-4,0-5.9
		c0.1-0.8,1.6-0.8,1.4,0c-0.1,1.4-0.2,2.8-0.1,4.2c0,0.6,0.1,3.4,1.4,2.6c0.8-0.6,1.1-2.3,1.3-3.2c0.1-1.2,0.2-2.4,0.4-3.7
		c0-1,1.6-1,1.4,0c-0.1,2,0,4,0,6c0.1,1.6,0.2,3.2-0.4,4.8c-0.5,1.1-1.2,1.7-2.4,1.6c-1.1,0-2.2-0.5-2.4-1.6c-0.4-1,1.2-1.3,1.4-0.4
		c0.1,0.5,1.3,0.6,1.7,0.2C299.5,14.6,299.5,13.1,299.5,12.3z"/>
	<path d="M315.3,10.2c0.1,1.9-0.5,3.7-1.8,5.2c-1,1.1-2.5,1.4-3.8,1.3c-0.5,0.5-1.3,0.2-1.3-0.5c0-3.6,0-7.3,0-10.9
		C308,5,308,4.2,308.6,4.1c1.8-0.4,3.7-0.4,4.9,1.2C314.7,6.8,315.1,8.4,315.3,10.2z M313.8,10.6c-0.1-1.4-0.4-2.8-1.1-4
		c-0.7-1.1-1.8-1.3-2.9-1.2c0,3.2,0.1,6.5,0.1,9.7c0.8,0,1.7-0.1,2.4-0.8C313.4,13.4,313.9,11.9,313.8,10.6z"/>
	<path d="M323.6,12.2c-0.1,1-0.4,2-0.8,3c-0.5,0.7-1.4,1.6-2.4,1.7c-1.2,0.1-2.2-0.6-2.9-1.4c-1.4-2-1.4-5.2-0.7-7.6
		c0.5-1.9,1.8-4.6,4.2-3.7c2,0.5,2.8,2.9,2.8,4.8C323.9,10,323.7,11.1,323.6,12.2z M322.2,8.9c0-0.8-0.2-1.8-0.6-2.6
		c-0.6-1-1.8-1.2-2.5-0.2c-1.3,1.7-1.4,4.4-1.1,6.5c0.2,1.1,0.7,2.8,2,2.9c1,0,1.6-1.2,1.7-1.9C322.2,12,322.2,10.5,322.2,8.9z"/>
	<path d="M332.1,10.5c0.1,0.4,0,0.8,0,1.2c-0.1,0.6-0.1,1.2-0.2,1.8c-0.4,2.2-2,4-4.2,3c-2.3-1-2.9-4.6-2.8-6.7c0.1-2,1-5,3.2-5.9
		c0.8-0.4,1.9-0.1,2.5,0.7c0.6,0.6,0.6,1.6,0.6,2.5c0,0.8-1.4,0.8-1.4,0c0.1-0.6,0.1-1.4-0.5-1.8c-0.8-0.5-1.7,0.6-2,1.3
		c-1,1.7-1.1,3.6-0.7,5.4c0.2,0.8,0.5,2,1.3,2.8c0.7,0.7,1.7,0.4,2.2-0.6c0.2-0.6,0.4-1.2,0.4-1.9c0.1-0.2,0.1-0.5,0.1-0.8
		c-0.2,0-0.5,0.1-0.6,0.1c-0.5,0-1,0-1.4,0c-1.1,0-1.1-1.6,0-1.6c0.8,0,1.7,0,2.5,0C331.4,10,331.9,10,332.1,10.5z"/>
	<path d="M4.7,19.9c1.9-0.1,4-0.1,5.9,0c1,0.1,1,1.4,0,1.4c-0.8,0-1.6,0-2.4,0c0,3.7,0.1,7.2,0.2,10.9c0,0.8-1.6,1-1.6,0.1
		c-0.1-3.6-0.1-7.3-0.1-11c-0.7,0-1.3,0-2,0.1C3.7,21.4,3.7,20,4.7,19.9z"/>
	<path d="M14,32.2c0,1-1.4,1-1.6,0c-0.2-3.7-0.2-7.6-0.2-11.4c0-0.8,1.6-0.8,1.4,0c0,2.4,0,4.7,0.1,7.1c1.3-0.2,2.6-0.2,3.8-0.1
		c0-2.3,0-4.6,0-7c0-0.8,1.6-0.8,1.4,0c0,3.7,0.1,7.4,0.4,11.2c0,0.1,0,0.1,0,0.2c0,1-1.4,1-1.6,0c0-1-0.1-1.9-0.1-2.9
		c-1.3-0.1-2.6-0.2-3.8,0c0,0.8,0,1.7,0.1,2.6C14,32.1,14,32.1,14,32.2z"/>
	<path d="M20.9,31.3c-0.5-1.6-0.4-3.5-0.4-5.2c0-1.8,0.2-3.6,0.5-5.4c0-0.1,0-0.2,0.1-0.4c0.1-0.1,0.4-0.2,0.6-0.2
		c1.4-0.1,3-0.2,4.4-0.4c1-0.1,1,1.4,0,1.6c-1.3,0-2.5,0.1-3.8,0.2c-0.2,1.7-0.4,3.5-0.4,5.3c1.1-0.2,2-0.4,3-0.5
		c1-0.2,1.4,1.2,0.5,1.4c-1.1,0.2-2.3,0.4-3.4,0.5c0,0.1,0,0.1,0,0.2c0,0.6,0,1.2,0.1,1.8c0.1,0.6,0.2,1.1,1,1.1
		c1-0.1,1.8-0.6,2.4-1.3c0.5-0.7,1.7,0.2,1.2,0.8C25.5,32.6,21.7,34.3,20.9,31.3z"/>
	<path d="M33.8,28.9c-0.4-1.7-0.2-3.5,0.2-5.2c0.4-1.2,1.1-2.9,2.4-3.5c2.9-1.3,4.3,2.6,4.4,4.8c0.1,1.6,0,2.4-0.1,3.6
		c-0.1,0.6-0.2,1.3-0.5,1.9c0.2,0.4,0.5,0.8,0.8,1.2c0.6,0.7-0.4,1.8-1.1,1.1c-0.2-0.2-0.5-0.6-0.7-0.8c-0.8,0.8-2.3,1.2-3.4,0.6
		C34.5,31.9,34.1,30.3,33.8,28.9z M35,26.7c0,0.8,0.1,1.7,0.4,2.4c0.2,0.8,1,2.8,2.3,2.3c0.2-0.1,0.6-0.4,0.8-0.7
		c-0.6-1-1.2-1.9-1.8-2.9c-0.6-0.7,0.7-1.4,1.2-0.7c0.4,0.5,1.2,1.6,1.6,2.2c0.2-1.4,0.2-3,0.1-4.2c-0.1-1.1-0.2-1.6-0.6-2.5
		c-0.7-1.6-2.3-1.2-2.9,0C35.4,23.7,35,25.3,35,26.7z"/>
	<path d="M42.6,28.6c-0.4-2.8-0.2-5.5,0-8.2c0.1-1,1.6-1,1.6,0c-0.2,2.2-0.4,4.3-0.1,6.5c0.1,1.2,0.6,5.8,2.9,4
		c0.8-0.6,1-1.7,1.1-2.6c0-0.4,0-0.6,0-0.8c0-0.4,0-1.2,0-1.6c0-1.9,0-3.4-0.1-5.3c0-1,1.4-1,1.6,0c0.1,2.2,0.1,4.3,0.1,6.5
		c0,0,0,0,0,0.1c0,0.7,0,1.4,0.1,2.2c0,0.7,0,1.7,0.6,2.2c0.8,0.7-0.2,1.8-1.1,1.2c-0.4-0.4-0.6-0.7-0.7-1.1c-0.5,0.5-1.1,1-1.9,1.2
		C44.1,33.4,42.9,30.6,42.6,28.6z"/>
	<path d="M53.5,20.6c0,3.7,0.1,7.6,0.4,11.3c0,0.1,0,0.1,0,0.2c0,1-1.4,1-1.6,0c-0.2-3.7-0.2-7.7-0.2-11.5
		C52.1,19.8,53.6,19.8,53.5,20.6z"/>
	<path d="M61.3,29.1c-0.4,1.9-1.9,4.8-4.3,3.4c-2-1.2-2.3-4.4-2.2-6.6c0.1-1.9,0.7-5.6,3.1-6.1c1-0.2,2,0.4,2.6,1.2
		c0.7,1,0.7,2.3,0.2,3.4c-0.4,0.8-1.8,0.5-1.4-0.4c0.2-0.8,0.5-1.7-0.1-2.4c-0.8-0.8-1.6-0.2-2,0.6c-0.7,1.3-1,2.9-1,4.4
		c0,1.2,0.1,3.1,1.1,4.2c1.4,1.6,2.3-1,2.5-2C60.1,27.8,61.4,28.2,61.3,29.1z"/>
	<path d="M62.5,32c-0.1-3.7-0.1-7.4-0.1-11.2c0-1,1.4-1,1.4,0c0.1,2.5,0.1,5,0.2,7.6c0,0,0.1,0,0.2,0c1-0.6,1.9-1.8,2.3-2.6
		c0.7-1.6,0.6-3.2,0.5-4.9c0-1,1.4-1,1.4,0c0.1,2.2,0.2,4.4-1,6.2c-0.2,0.4-0.5,0.8-0.8,1.2c0.4,0,0.6,0.1,0.8,0.2
		c1.2,0.7,1.3,2.3,1.4,3.6c0.1,0.8-1.3,1-1.4,0.1c-0.1-0.7-0.1-2.2-1.1-2.4c-0.5-0.2-1.2-0.1-1.8,0c-0.2,0.1-0.5,0.1-0.6,0.2
		c0,0.6,0,1.3,0,1.9C63.9,33,62.5,33,62.5,32z"/>
	<path d="M76.5,20.5c1.3-0.5,2.9-1,4.2-0.4c1.2,0.4,1.9,1.6,1.9,2.8c0.1,1.8-1,3.2-2.3,4.3c1.4,0.2,2.5,1.1,2.3,2.9
		c-0.4,2.5-3.1,3.1-5.2,2.6c-0.5,0.4-1.4,0.2-1.3-0.5c0.1-3.5,0.1-7,0.1-10.4C75.9,21.4,75.9,20.7,76.5,20.5z M77.9,29
		c0,0.7-0.1,1.4-0.1,2.2c1.2,0.2,2.6,0.4,3.2-0.8C81.9,28.3,79.1,28.6,77.9,29z M77.9,21.6c0,1.8,0.1,3.7,0,5.5
		c1.3-0.7,2.5-1.7,3.1-3.1c0.4-1.1,0.1-2.4-1.2-2.6C79.2,21.2,78.5,21.3,77.9,21.6z"/>
	<path d="M84.1,32.2c-0.4-3.8-0.4-7.8-0.1-11.6c0.1-0.4,0.4-0.6,0.7-0.7h0.1c1.4-0.1,3,0,4.1,0.8c1.1,0.8,2.2,2.3,2.2,3.7
		c0,1.6-1.2,2.9-2.6,3.7c0.2,0.5,0.5,1.1,0.7,1.6c0.4,0.7,0.8,1.4,1.4,2.2c0.5,0.5-0.5,1.3-1,1c-1.2-0.8-2.2-2.5-2.6-4.1
		c-0.5,0.2-1,0.4-1.6,0.4c0.1,1.1,0.1,2,0.2,3.1C85.7,33.2,84.2,33.2,84.1,32.2z M85.4,21.3c-0.1,2-0.1,4.2,0,6.2
		c1.7-0.2,4.2-1.4,4.1-3.1c0-1-1-2.2-1.8-2.6C87,21.3,86.3,21.3,85.4,21.3z"/>
	<path d="M92,28.8c-0.4-1.7-0.2-3.5,0.2-5.2c0.2-1.2,0.8-2.9,2.2-3.5c2.9-1.3,4.4,2.8,4.4,4.8c0,1.2,0.1,2.3-0.1,3.6
		c-0.2,1.2-0.4,2.4-1.2,3.4s-2.3,1.3-3.5,0.7C92.7,31.9,92.3,30.2,92,28.8z M93.6,29.1c0.1,0.7,1.1,2.6,2.2,2.2
		c0.7-0.2,1.2-1.2,1.3-1.8c0.4-1.6,0.4-3,0.4-4.6c0-0.8-0.1-1.7-0.5-2.4c-0.1-0.5-0.6-1-1.1-1.1c-0.7-0.1-1.3,0.4-1.7,1
		C93.2,24.3,93,27,93.6,29.1z"/>
	<path d="M105.5,25c-0.6,2.3-1.1,5.4-2.3,7.4c-0.2,0.7-1.3,0.5-1.6-0.1c-1.2-3.8-1.4-7.8-1.6-11.8c-0.1-1.1,1.6-1,1.6,0
		c0.1,2.9,0.2,6.8,0.8,9.7c1.1-2.8,1.4-5.3,2-8c0.1-0.4,0.6-0.6,0.8-0.6c0.5,0,0.8,0.1,1,0.6c0.2,1.2,0.7,2.5,1,3.5
		c0.4,1.2,1.1,3.2,1.4,4.6c0.5-3,0.5-6.8,0.6-9.7c0-1,1.6-1.1,1.6,0c0,3.7-0.1,7.9-1.1,11.8c-0.1,0.7-1.4,0.7-1.8,0.1
		c-0.8-1.6-1.1-2.5-1.4-3.7C106.4,28.4,105.6,25.4,105.5,25z"/>
	<path d="M112.1,21c-0.1-0.7,0.6-1,1.1-0.7c0.6,0.1,3.5,8,4,9.1c0.2-2.8,0.4-5.6,0.1-8.5c0-0.8,1.4-0.8,1.4,0
		c0.4,3.8,0.2,7.7-0.2,11.5c-0.1,0.4-0.5,0.5-0.8,0.5s-0.4-0.1-0.7-0.6c-1.3-2.3-2.4-4.8-3.4-7.3c0,2.4,0.1,4.7,0.1,7.1
		c0,1-1.4,1-1.6,0C111.8,28.4,111.8,24.6,112.1,21z"/>
	<path d="M126.9,20c1.4-0.1,2.9-0.2,4.4-0.1c1,0,1,1.4,0,1.4c-1.3,0-2.5,0-3.8,0c0,1.9-0.1,3.8-0.1,5.8c1-0.1,2-0.2,3-0.2
		s1,1.6,0,1.6s-1.9,0.1-3,0.1c0.1,1.2,0.2,2.4,0.4,3.5c0.4,1-1.3,1.4-1.4,0.5c-0.7-3.8-0.4-7.9-0.2-11.9c0-0.5,0.4-0.6,0.7-0.6
		C126.8,20,126.8,20,126.9,20z"/>
	<path d="M132.6,28.8c-0.4-1.7-0.2-3.5,0.2-5.2c0.2-1.2,0.8-2.9,2.2-3.5c2.9-1.3,4.4,2.8,4.4,4.8c0,1.2,0.1,2.3-0.1,3.6
		c-0.2,1.2-0.4,2.4-1.2,3.4s-2.3,1.3-3.5,0.7C133.3,31.9,132.8,30.2,132.6,28.8z M134.1,29.1c0.1,0.7,1.1,2.6,2.2,2.2
		c0.7-0.2,1.2-1.2,1.3-1.8c0.4-1.6,0.4-3,0.4-4.6c0-0.8-0.1-1.7-0.5-2.4c-0.1-0.5-0.6-1-1.1-1.1c-0.7-0.1-1.3,0.4-1.7,1
		C133.8,24.3,133.5,27,134.1,29.1z"/>
	<path d="M140.7,31.8c0.8-1.7,1.7-3.4,2.4-5c-0.8-1.9-1.7-4-2.5-5.9c-0.4-0.8,1.1-1.3,1.6-0.4c0.5,1.4,1.2,2.9,1.8,4.2
		c0.2-0.7,0.6-1.3,0.8-2c0.4-0.8,0.6-1.8,1-2.5c0.6-0.8,1.8-0.1,1.3,0.8c-0.5,0.8-0.7,1.9-1.1,2.9c-0.4,1-0.8,1.9-1.2,2.8
		c0.5,1.1,1,2,1.4,3c0.4,0.7,0.8,1.6,1.1,2.4c0.4,1-1.1,1.3-1.4,0.4s-1-1.9-1.4-2.8c-0.1-0.4-0.4-0.7-0.5-1.1
		c-0.6,1.3-1.2,2.6-1.9,4.1C141.7,33.4,140.4,32.6,140.7,31.8z"/>
	<path d="M159,32.5c-1.6,0.6-3.4-0.2-4.2-1.7c-0.6-1.1-0.6-2.9,0.7-3.6c0.8-0.4,1.6,0.8,0.7,1.3c-0.4,0.2-0.2,1-0.1,1.2
		c0.1,0.6,0.5,1.1,1.1,1.2c0.5,0.2,1.2,0.4,1.7-0.1c0.4-0.5,0.2-1.2,0.4-1.7c0.1-2.5,0-5,0-7.4c-0.7-0.1-1.3-0.2-1.9-0.4
		c-1.1-0.2-0.6-1.7,0.4-1.4c1.2,0.2,2.5,0.4,3.7,0.1c1.1-0.1,1.1,1.4,0,1.6c-0.2,0-0.5,0.1-0.7,0.1c0,2,0.1,4.2,0.1,6.4
		C160.8,29.6,160.9,31.8,159,32.5z"/>
	<path d="M163.4,28.6c-0.4-2.8-0.2-5.5,0-8.2c0.1-1,1.6-1,1.6,0c-0.2,2.2-0.4,4.3-0.1,6.5c0.1,1.2,0.6,5.8,2.9,4
		c0.8-0.6,1-1.7,1.1-2.6c0-0.4,0-0.6,0-0.8c0-0.4,0-1.2,0-1.6c0-1.9,0-3.4-0.1-5.3c0-1,1.4-1,1.6,0c0.1,2.2,0.1,4.3,0.1,6.5
		c0,0,0,0,0,0.1c0,0.7,0,1.4,0.1,2.2c0,0.7,0,1.7,0.6,2.2c0.8,0.7-0.2,1.8-1.1,1.2c-0.4-0.4-0.6-0.7-0.7-1.1c-0.5,0.5-1.1,1-1.9,1.2
		C165,33.4,163.8,30.6,163.4,28.6z"/>
	<path d="M173,32.1c-0.7-3.7-0.6-7.6-0.2-11.3c0-0.5,0.2-0.7,0.7-0.7c0.6,0,0.8,0.5,0.8,0.7c0.2,1.2,0.7,2.2,1.2,3.8
		c0.4,1.2,1.1,2.8,1.8,3.8c0.5-1,0.8-1.7,1.1-2.4c0.2-0.7,0.6-1.4,0.8-2.2c0.5-1.6,0.7-2,1.2-3.7c0.2-0.7,1.2-0.6,1.4,0
		c0,0.1,0.1,0.2,0.1,0.5c0.1,3.7,0.4,7.4,0.2,11.2c0,1.1-1.4,1-1.6,0c-0.1-1.9-0.1-5.2-0.1-7.2c-0.1,0.4-0.4,1.2-0.5,1.7
		c-0.2,0.8-0.2,0.8-0.6,1.7c-0.4,0.8-1,1.8-1.6,2.2c-1.4,0.8-3-2.3-3.4-3.5c-0.1-0.5-0.4-1.2-0.5-1.7c0.1,1.8,0.2,5.2,0.5,7
		C174.7,32.8,173.3,33,173,32.1z"/>
	<path d="M183.7,32.2c-0.4-3.8-0.4-7.8-0.1-11.6c0-0.4,0.4-0.6,0.6-0.7c0.1,0,0.1,0,0.2,0c2.8-0.4,6,1.3,6,4.6c0,2.5-3,4.4-5.4,4.7
		c0,1.1,0.1,2,0.2,3.1C185.3,33.2,183.8,33.2,183.7,32.2z M185,21.3c-0.1,2-0.1,4.2-0.1,6.2c1.8-0.2,4-1.4,4-3.1
		C189,22.3,186.8,21.4,185,21.3z"/>
	<path d="M191.4,25.5c-0.1-2.2,1.2-4.6,3.1-5.5c2.2-1,3.8,0.8,4,2.9c0,1-1.4,1-1.4,0c0-0.7-0.5-1.7-1.4-1.6c-0.7,0-1.3,0.6-1.7,1.2
		c-0.6,0.7-1.3,2.2-0.8,3.1c0.5,1,2.4,1.1,3.4,1.4c1.1,0.4,1.9,0.7,2.2,1.9c0.4,2-1.1,3.7-3,3.8c-1,0.1-1.9,0-2.6-0.7
		c-0.6-0.6-1-1.6-0.6-2.5c0.4-0.8,1.7-0.5,1.4,0.5c-0.4,1.3,1.4,1.4,2.4,1.1c0.5-0.1,0.7-0.6,0.8-1.2c0.1-0.7-0.1-1.1-0.8-1.3
		C194.5,28,191.6,27.7,191.4,25.5z"/>
	<path d="M205.9,28.8c-0.4-1.7-0.2-3.5,0.2-5.2c0.2-1.2,0.8-2.9,2.2-3.5c2.9-1.3,4.4,2.8,4.4,4.8c0,1.2,0.1,2.3-0.1,3.6
		c-0.2,1.2-0.4,2.4-1.2,3.4s-2.3,1.3-3.5,0.7C206.6,31.9,206.1,30.2,205.9,28.8z M207.5,29.1c0.1,0.7,1.1,2.6,2.2,2.2
		c0.7-0.2,1.2-1.2,1.3-1.8c0.4-1.6,0.4-3,0.4-4.6c0-0.8-0.1-1.7-0.5-2.4c-0.1-0.5-0.6-1-1.1-1.1c-0.7-0.1-1.3,0.4-1.7,1
		C207.1,24.3,206.9,27,207.5,29.1z"/>
	<path d="M213.1,20.8c-0.1-1,1.3-1.3,1.4-0.4c0.6,2.9,1.4,5.8,2.3,8.6c0.7-3,1.4-5.9,2.4-8.9c0.2-1,1.7-0.5,1.4,0.5
		c-1.1,3.8-2.2,7.7-2.9,11.6c-0.1,0.8-1.3,0.6-1.6,0C214.9,28.5,213.9,24.8,213.1,20.8z"/>
	<path d="M222.2,31.3c-0.5-1.6-0.4-3.5-0.4-5.2c0-1.8,0.2-3.6,0.5-5.4c0-0.1,0-0.2,0.1-0.4c0.1-0.1,0.4-0.2,0.6-0.2
		c1.4-0.1,3-0.2,4.4-0.4c1-0.1,1,1.4,0,1.6c-1.3,0-2.5,0.1-3.8,0.2c-0.2,1.7-0.4,3.5-0.4,5.3c1.1-0.2,2-0.4,3-0.5
		c1-0.2,1.4,1.2,0.5,1.4c-1.1,0.2-2.3,0.4-3.4,0.5c0,0.1,0,0.1,0,0.2c0,0.6,0,1.2,0.1,1.8s0.2,1.1,1,1.1c1-0.1,1.8-0.6,2.4-1.3
		c0.5-0.7,1.7,0.2,1.2,0.8C226.9,32.6,223.1,34.3,222.2,31.3z"/>
	<path d="M229.3,32.2c-0.4-3.8-0.4-7.8-0.1-11.6c0.1-0.4,0.4-0.6,0.7-0.7h0.1c1.4-0.1,3,0,4.1,0.8c1.1,0.8,2.2,2.3,2.2,3.7
		c0,1.6-1.2,2.9-2.6,3.7c0.2,0.5,0.5,1.1,0.7,1.6c0.4,0.7,0.8,1.4,1.4,2.2c0.5,0.5-0.5,1.3-1,1c-1.2-0.8-2.2-2.5-2.6-4.1
		c-0.5,0.2-1,0.4-1.6,0.4c0.1,1.1,0.1,2,0.2,3.1C230.9,33.2,229.4,33.2,229.3,32.2z M230.6,21.3c-0.1,2-0.1,4.2,0,6.2
		c1.7-0.2,4.2-1.4,4.1-3.1c0-1-1-2.2-1.8-2.6C232.2,21.3,231.5,21.3,230.6,21.3z"/>
	<path d="M243.9,19.9c1.9-0.1,4-0.1,5.9,0c1,0.1,1,1.4,0,1.4c-0.8,0-1.6,0-2.4,0c0,3.7,0.1,7.2,0.2,10.9c0,0.8-1.6,1-1.6,0.1
		c-0.1-3.6-0.1-7.3-0.1-11c-0.7,0-1.3,0-2,0.1C243,21.4,243,20,243.9,19.9z"/>
	<path d="M253.3,32.2c0,1-1.4,1-1.6,0c-0.2-3.7-0.2-7.6-0.2-11.4c0-0.8,1.6-0.8,1.4,0c0,2.4,0,4.7,0.1,7.1c1.3-0.2,2.6-0.2,3.8-0.1
		c0-2.3,0-4.6,0-7c0-0.8,1.6-0.8,1.4,0c0,3.7,0.1,7.4,0.4,11.2c0,0.1,0,0.1,0,0.2c0,1-1.4,1-1.6,0c0-1-0.1-1.9-0.1-2.9
		c-1.3-0.1-2.6-0.2-3.8,0c0,0.8,0,1.7,0.1,2.6C253.3,32.1,253.3,32.1,253.3,32.2z"/>
	<path d="M260.1,31.3c-0.5-1.6-0.4-3.5-0.4-5.2c0-1.8,0.2-3.6,0.5-5.4c0-0.1,0-0.2,0.1-0.4c0.1-0.1,0.4-0.2,0.6-0.2
		c1.4-0.1,3-0.2,4.4-0.4c1-0.1,1,1.4,0,1.6c-1.3,0-2.5,0.1-3.8,0.2c-0.2,1.7-0.4,3.5-0.4,5.3c1.1-0.2,2-0.4,3-0.5
		c1-0.2,1.4,1.2,0.5,1.4c-1.1,0.2-2.3,0.4-3.4,0.5c0,0.1,0,0.1,0,0.2c0,0.6,0,1.2,0.1,1.8s0.2,1.1,1,1.1c1-0.1,1.8-0.6,2.4-1.3
		c0.5-0.7,1.7,0.2,1.2,0.8C264.8,32.6,261,34.3,260.1,31.3z"/>
	<path d="M272.9,30c0-3.1,0.2-6.2,0.4-9.4c0.1-1,1.6-1,1.4,0c-0.1,1.8-0.1,3.6-0.1,5.4c0,1-0.1,1.9-0.1,2.9c0,0.6,0,1.4,0.1,2
		c0.5,0,1-0.1,1.4-0.2c0.8-0.1,1.3-0.1,2-0.2c1-0.1,1.1,1.4,0.2,1.6c-0.8,0.1-1.6,0.2-2.4,0.4c-0.6,0-1.3,0.2-1.9,0.2
		C272.7,32.5,273,30.9,272.9,30z"/>
	<path d="M280.2,32.1c-0.2-2.4-0.5-4.8-0.1-7.2c0.2-1.9,0.7-4.9,3.1-5.2c2.5-0.2,3.2,2.9,3.4,4.7c0.2,2.5,0.2,5.2,0.1,7.7
		c0,1-1.4,1-1.4,0c0-0.4,0-1.3,0-2.4c-1.2-0.1-2.5-0.1-3.7,0.1c0,0.7,0.1,1.6,0.1,2.3C281.7,33.1,280.2,33.1,280.2,32.1z
		 M281.4,28.3c1.3-0.2,2.6-0.2,3.8-0.1c0.1-3.4-0.2-7.3-2-6.8c-1.1,0.2-1.3,1.7-1.4,2.5c-0.2,1-0.4,1.8-0.4,2.8
		C281.4,27.2,281.4,27.7,281.4,28.3z"/>
	<path d="M288.8,33c-0.5,0.2-1.2-0.4-1-1c1.4-3.6,3.2-7.2,5.2-10.7c-1.4,0-2.9,0-4.3,0.1c-1,0-1-1.4,0-1.6c1.8,0,3.7,0,5.5,0
		c0.6-0.1,1,0.6,0.7,1.1c-1.8,3.4-3.6,6.7-5,10.2c1.6-0.4,3.1-0.5,4.6,0.2c1,0.4,0.1,1.7-0.7,1.3C292.2,32,290.4,32.5,288.8,33z"/>
	<path d="M300.7,28.3c0-0.1,0-0.2,0-0.4c-0.5,0.6-1.1,1.1-1.8,1.3c-1.6,0.4-2.4-1.3-2.6-2.6c-0.4-1.9-0.2-4,0-5.9
		c0.1-0.8,1.6-0.8,1.4,0c-0.1,1.4-0.2,2.8-0.1,4.2c0,0.6,0.1,3.4,1.4,2.6c0.8-0.6,1.1-2.3,1.3-3.2c0.1-1.2,0.2-2.4,0.4-3.7
		c0-1,1.6-1,1.4,0c-0.1,2,0,4,0,6c0.1,1.6,0.2,3.2-0.4,4.8c-0.5,1.1-1.2,1.7-2.4,1.6c-1.1,0-2.2-0.5-2.4-1.6c-0.4-1,1.2-1.3,1.4-0.4
		c0.1,0.5,1.3,0.6,1.7,0.2C300.7,30.6,300.7,29.1,300.7,28.3z"/>
	<path d="M309.5,21.2c-0.4-0.4-0.4-1.1,0.2-1.2c1.8-0.4,3.7-0.4,4.9,1.2c1.2,1.4,1.7,3.1,1.8,4.9c0.1,1.9-0.5,3.7-1.8,5.2
		c-1,1.1-2.5,1.4-3.8,1.4c-0.5,0.4-1.4,0.2-1.3-0.6C309.5,28.5,309.5,24.8,309.5,21.2z M310.8,21.3c0.1,3.2,0.2,6.5,0.2,9.7
		c0.8,0,1.7-0.1,2.4-0.7c1.1-1.1,1.6-2.5,1.4-3.8c-0.1-1.4-0.4-2.8-1.1-4C313.1,21.4,312,21.2,310.8,21.3z"/>
	<path d="M317.7,28.8c-0.4-1.7-0.2-3.5,0.2-5.2c0.2-1.2,0.8-2.9,2.2-3.5c2.9-1.3,4.4,2.8,4.4,4.8c0,1.2,0.1,2.3-0.1,3.6
		c-0.2,1.2-0.4,2.4-1.2,3.4s-2.3,1.3-3.5,0.7C318.5,31.9,318,30.2,317.7,28.8z M319.3,29.1c0.1,0.7,1.1,2.6,2.2,2.2
		c0.7-0.2,1.2-1.2,1.3-1.8c0.4-1.6,0.4-3,0.4-4.6c0-0.8-0.1-1.7-0.5-2.4c-0.1-0.5-0.6-1-1.1-1.1c-0.7-0.1-1.3,0.4-1.7,1
		C318.9,24.3,318.7,27,319.3,29.1z"/>
	<path d="M329,32.8c-1.4-0.1-2.2-1.4-2.6-2.8c-1.1-2.8-1-6.8,1.1-9.2c1-1,2.5-1.3,3.7-0.5c1,0.8,1.6,2,0.7,3.1
		c-0.6,0.7-1.8,0.1-1.3-0.6c0.6-0.7-0.8-1.8-1.6-1.4c-0.6,0.4-1.1,1.3-1.3,2c-0.6,1.6-0.6,3.2-0.2,4.9c0.1,0.7,0.4,1.7,0.8,2.3
		c0.7,0.8,2.2,0.6,2.6-0.4c0.2-0.6,0.4-1.9,0.4-2.8c-0.1,0-0.4,0-0.6,0c-0.5,0-0.7,0.1-1.2,0.1c-1.1,0-1-1.6,0-1.6
		c0.8,0,1.6-0.2,2.4-0.1c0.5,0,1,0.2,1,0.8c0.1,1,0,2.9-0.4,3.7C332,31.9,330.5,33,329,32.8z"/>
</g>
</svg>
