<?xml version="1.0" encoding="utf-8"?>
<!-- Generator: Adobe Illustrator 26.1.0, SVG Export Plug-In . SVG Version: 6.00 Build 0)  -->
<svg version="1.1" id="Layer_1" xmlns="http://www.w3.org/2000/svg" xmlns:xlink="http://www.w3.org/1999/xlink" x="0px" y="0px"
	 viewBox="0 0 372 36.9" style="enable-background:new 0 0 372 36.9;" xml:space="preserve">
<g>
	<path d="M13.1,5.4c-0.8,0-1.6,0-2.4,0C9.9,9,9.5,12.6,8.5,16.1c-0.2,1-1.6,1-1.4,0C7.5,12.6,8.5,9,9.2,5.4c-0.7,0-1.3,0-2,0
		C6.2,5.6,6.5,4.1,7.4,4c2-0.1,4-0.1,5.9,0C14.3,4,14,5.4,13.1,5.4z"/>
	<path d="M14.3,16.2c-0.1,1-1.6,1-1.6,0c0.6-3.7,1.4-7.6,2.2-11.4c0.2-0.8,1.8-0.8,1.4,0c-0.5,2.4-1,4.7-1.3,7.1
		c1.3-0.2,2.6-0.2,3.8-0.1c0.5-2.3,1-4.6,1.4-7c0.2-0.8,1.8-0.8,1.4,0C21,8.6,20.3,12.3,19.8,16c-0.1,0.1-0.1,0.1-0.1,0.2
		c-0.1,1-1.6,1-1.6,0c0.2-1,0.4-1.9,0.5-2.9c-1.2-0.1-2.5-0.2-3.8,0c-0.1,0.8-0.4,1.7-0.4,2.6C14.3,16.1,14.3,16.1,14.3,16.2z"/>
	<path d="M28.7,5.3c-1.3,0.1-2.6,0.1-4,0.2c-0.5,1.8-1,3.5-1.3,5.3c1-0.1,2-0.4,3-0.5c1-0.1,1.1,1.2,0.1,1.4
		c-1.2,0.2-2.3,0.4-3.5,0.5c-0.1,1-0.6,2.8,0,3.1c0.5,0.4,2.3-0.5,3-0.7c1-0.4,1.1,1.1,0.1,1.4c-1.2,0.5-2.8,1.1-3.8,0.7
		c-1.2-0.4-1.1-1.6-1-2.6c0.2-3.1,1.2-6.2,2.3-9.4c0-0.2,0.1-0.4,0.2-0.4c0.1-0.2,0.4-0.4,0.6-0.4c1.4-0.1,3-0.2,4.4-0.4
		C30,3.8,29.6,5.2,28.7,5.3z"/>
	<path d="M41.7,15.6c0.5,0.7-0.7,1.8-1.2,1.1c-0.2-0.2-0.4-0.5-0.6-0.8c-1.7,1.3-3.7,1.2-4.6-0.5c-1.1-1.9-0.5-5,0.6-7.3
		c1-2,2.9-4.6,5.3-4c1.9,0.5,2.3,2.9,1.9,4.8c0,0.1,0,0.1,0,0.1c-0.1,1.1-0.5,2-0.8,3.1c-0.4,0.8-0.6,1.7-1.1,2.4
		C41.4,14.9,41.6,15.3,41.7,15.6z M39.3,14.6c-0.4-1-0.6-1.9-1-2.9c-0.4-0.7,1-1.4,1.3-0.7c0.4,0.6,0.6,1.3,0.8,1.9
		c0.5-1.3,0.8-2.6,1.1-3.8c0,0,0,0,0-0.1c0.2-0.8,0.1-1.8-0.1-2.5c-0.5-1.1-1.8-1.2-2.8-0.1c-1.7,1.8-2.5,4.4-2.4,6.5
		c0,1.1,0.2,2.4,1.4,2.6C38.4,15.4,39,15,39.3,14.6z"/>
	<path d="M52.7,4.7c-0.4,2.3-1,4.7-1.4,7.1c-0.4,2-1.6,4.4-4,5c-2.6,0.6-3.2-2.3-3.1-4.2c0.2-2.8,0.8-5.5,1.8-8.2c0.2-1,1.7-1,1.4,0
		c-0.7,2.2-1.2,4.3-1.4,6.5c-0.2,1.2-0.6,5.8,1.9,4c1.7-1.1,1.9-3.2,2.3-4.8c0.4-1.8,0.7-3.6,1-5.4C51.3,3.6,52.8,3.8,52.7,4.7z"/>
	<path d="M55.8,4.6c-0.8,3.7-1.4,7.6-2,11.3c0,0.1,0,0.1-0.1,0.2c-0.1,1-1.6,1-1.6,0c0.6-3.7,1.4-7.7,2.3-11.5
		C54.5,3.8,56,3.8,55.8,4.6z"/>
	<path d="M61.8,13c-0.6,1.9-2.8,4.6-4.8,3.4c-1.9-1.1-1.6-4.3-1-6.5c0.5-1.9,1.8-5.6,4.3-6.2c1.1-0.2,1.9,0.2,2.4,1
		c0.6,0.8,0.5,1.8,0,2.9c-0.4,1-1.7,0.6-1.3-0.4c0.2-0.7,0.2-1.6-0.4-1.9c-0.7-0.5-1.4,0.2-1.9,1c-1,1.3-1.6,2.9-1.8,4.3
		c-0.2,1.3-0.6,3.5,0.4,4.3c1.2,1.2,2.3-1.2,2.8-2.3C60.9,11.6,62.1,12,61.8,13z"/>
	<path d="M62.4,16c0.6-3.7,1.4-7.4,2.2-11.2c0.2-1,1.7-1,1.4,0c-0.4,2.5-0.8,5-1.3,7.6c0,0,0.1,0,0.2,0c1.1-0.6,2.3-1.8,2.9-2.6
		c1.1-1.6,1.2-3.2,1.4-4.9c0.2-1,1.7-1,1.4,0c-0.2,2.2-0.6,4.4-2.3,6.2c-0.2,0.4-0.6,0.8-1.1,1.2c0.4,0,0.6,0.1,0.8,0.2
		c1.1,0.7,0.8,2.3,0.6,3.6c0,0.8-1.4,1-1.4,0.1c0.1-0.7,0.4-2.2-0.5-2.4c-0.5-0.2-1.2-0.1-1.8,0c-0.4,0.1-0.6,0.1-0.7,0.2
		c-0.1,0.6-0.2,1.3-0.4,1.9C63.6,17,62.1,17,62.4,16z"/>
	<path d="M81.2,11.2c1.3,0.2,2.3,1.1,1.7,2.9c-1,2.5-3.7,3.1-5.8,2.6c-0.5,0.4-1.3,0.2-1.2-0.6c1-3.4,1.7-6.8,2.4-10.3
		c-0.2-0.4-0.1-1.1,0.5-1.3c1.4-0.5,3-1,4.3-0.4c1.1,0.5,1.6,1.6,1.3,2.8C84.1,8.7,82.8,10.1,81.2,11.2z M78.3,13
		c-0.2,0.7-0.4,1.4-0.6,2.2c1.2,0.2,2.5,0.4,3.5-0.8C82.5,12.3,79.7,12.6,78.3,13z M82.5,8c0.6-1.1,0.6-2.3-0.6-2.6
		c-0.6-0.1-1.3,0-2,0.2c-0.4,1.8-0.7,3.7-1.1,5.5C80.3,10.4,81.7,9.4,82.5,8z"/>
	<path d="M89.1,12c0.1,0.5,0.2,1,0.4,1.4c0.4,0.7,0.7,1.4,1,2.3c0.2,0.7-0.8,1.6-1.3,0.8c-0.5-0.7-0.8-1.6-1.1-2.4
		c-0.1-0.5-0.4-1-0.5-1.4c-0.6,0.1-1.1,0.2-1.7,0.4c-0.1,1-0.2,2-0.5,3c-0.1,1-1.6,1-1.4,0c0.4-3.8,1.3-7.7,2.3-11.5
		c0.1-0.5,0.5-0.7,0.8-0.7c0.1,0,0.1,0,0.2,0c1.3-0.2,2.9,0,3.8,0.8C92,5.6,92.7,7,92.5,8.3C92.1,9.9,90.7,11.2,89.1,12z M90.9,8.3
		c0.2-1-0.5-2.2-1.2-2.6c-0.6-0.4-1.3-0.5-2.2-0.5c-0.6,2.2-1,4.2-1.3,6.4C87.9,11.3,90.7,10.1,90.9,8.3z"/>
	<path d="M99.9,12.2c-0.4,1-0.7,2-1.4,3c-0.6,0.7-1.8,1.6-2.8,1.7c-1.2,0.1-2-0.6-2.5-1.4c-1-2-0.4-5.2,0.8-7.6c1-1.9,2.8-4.6,5-3.7
		c1.9,0.5,2,2.9,1.7,4.8C100.7,10,100.3,11.1,99.9,12.2z M99.3,8.9c0.1-0.8,0.1-1.8-0.1-2.6c-0.4-1-1.6-1.2-2.4-0.2
		c-1.7,1.7-2.5,4.4-2.5,6.5c0,1.1,0.1,2.8,1.4,2.9c0.8,0,1.7-1.2,2-1.9C98.6,12,99,10.5,99.3,8.9z"/>
	<path d="M112.5,4.6c-1.1,3.8-1.9,7.8-3.6,11.8c-0.4,0.7-1.4,0.6-1.6,0c-0.4-2.2-0.7-4.2-0.8-6.4c-1,2.2-2,4.2-3.1,6.2
		c-0.5,0.7-1.4,0.8-1.6,0c-0.2-3.7,0.4-7.7,1-11.6c0.2-1,1.7-1,1.6,0c-0.5,2.9-1,5.9-1,8.8c0.4-0.7,0.8-1.6,1.2-2.3
		c0.7-1.7,1.3-3.2,1.9-4.9c0.2-0.5,0.6-0.6,1-0.6c0.2,0,0.6,0.1,0.6,0.6c0,2.4,0.1,4.7,0.5,7c1-2.8,1.7-5.6,2.4-8.5
		C111.2,3.6,112.8,3.6,112.5,4.6z"/>
	<path d="M120.3,5c-0.5,3.7-1.7,7.4-2.8,11.2c-0.1,0.5-0.5,0.7-0.8,0.7c-0.5,0-0.7-0.1-0.7-0.5c-0.7-2.4-1.3-4.9-1.7-7.4
		c-0.5,2.3-1,4.7-1.4,7.1c-0.2,1-1.7,1-1.6,0c0.5-3.6,1.3-7.4,2.4-11.2c0.2-0.8,1.3-0.8,1.4-0.2c0.4,2.8,1,5.8,1.7,8.5
		c0.7-2.8,1.6-5.4,2-8.2C119,4,120.5,4,120.3,5z"/>
	<path d="M132.9,5.3c-1.3-0.1-2.6-0.1-3.8-0.1c-0.5,1.9-1,3.8-1.3,5.8c1-0.1,2-0.2,3-0.2s0.6,1.6-0.4,1.6s-1.9,0-2.9,0.1
		c-0.2,1.2-0.4,2.3-0.5,3.5c0.1,1-1.6,1.4-1.6,0.5c0.1-3.8,1.3-7.9,2.3-11.9c0.1-0.4,0.6-0.6,1-0.6c1.4-0.1,3-0.2,4.4-0.1
		C134.1,3.8,133.9,5.3,132.9,5.3z"/>
	<path d="M139.9,12.2c-0.4,1-0.7,2-1.4,3c-0.6,0.7-1.8,1.6-2.8,1.7c-1.2,0.1-2-0.6-2.5-1.4c-1-2-0.4-5.2,0.8-7.6
		c1-1.9,2.8-4.6,5-3.7c1.9,0.5,2,2.9,1.7,4.8C140.6,10,140.3,11.1,139.9,12.2z M139.3,8.9c0.1-0.8,0.1-1.8-0.1-2.6
		c-0.4-1-1.6-1.2-2.4-0.2c-1.7,1.7-2.5,4.4-2.5,6.5c0,1.1,0.1,2.8,1.4,2.9c0.8,0,1.7-1.2,2-1.9C138.6,12,138.9,10.5,139.3,8.9z"/>
	<path d="M140.6,15.8c1.2-1.7,2.4-3.4,3.5-5c-0.5-1.9-0.8-4-1.3-5.9c-0.1-0.8,1.4-1.3,1.7-0.4c0.2,1.4,0.6,2.9,1,4.2
		c0.4-0.7,0.8-1.3,1.2-2c0.6-0.8,1-1.8,1.6-2.5c0.7-0.8,1.8-0.1,1.1,0.8c-0.6,0.8-1.1,1.9-1.7,2.9c-0.6,1-1.2,1.9-1.8,2.8
		c0.2,1.1,0.6,2,0.8,3c0.2,0.7,0.5,1.6,0.6,2.4c0.1,1-1.4,1.3-1.6,0.4c-0.1-1-0.6-1.9-0.8-2.8c0-0.4-0.2-0.7-0.2-1.1
		c-0.8,1.3-1.8,2.6-2.8,4.1C141.2,17.4,140.1,16.6,140.6,15.8z"/>
	<path d="M163.2,5.7c-0.2,0-0.5,0-0.7,0c-0.4,1.7-0.6,3.5-1,5.2c-0.2,1.4-0.5,3.4-1.6,4.7c-0.8,1.1-2.4,1.4-3.6,1.1
		c-1.2-0.4-1.8-1.8-1.6-3.1c0.2-1,1.7-1,1.6,0c-0.2,1.1,0.7,2.2,2,1.6c1-0.5,1.1-2.2,1.3-3c0.5-2,0.8-4.2,1.3-6.2
		c-0.6,0-1.2-0.1-1.8-0.1c-1-0.1-0.6-1.7,0.4-1.6c1.3,0.1,2.6,0.1,4,0C164.6,4.1,164.3,5.7,163.2,5.7z"/>
	<path d="M172.3,4.7c-0.4,2.3-1,4.7-1.4,7.1c-0.4,2-1.6,4.4-4,5c-2.6,0.6-3.2-2.3-3.1-4.2c0.2-2.8,0.8-5.5,1.8-8.2
		c0.2-1,1.7-1,1.4,0c-0.7,2.2-1.2,4.3-1.4,6.5c-0.2,1.2-0.6,5.8,1.9,4c1.7-1.1,1.9-3.2,2.3-4.8c0.4-1.8,0.7-3.6,1-5.4
		C171,3.6,172.4,3.8,172.3,4.7z"/>
	<path d="M171.6,16.1c0.1-3.7,1.1-7.6,2.2-11.3c0.1-0.5,0.5-0.7,1-0.7c0.6,0,0.7,0.5,0.6,0.7c0,1.2,0.4,2.2,0.5,3.8
		c0.1,1.2,0.5,2.8,1,3.8c0.7-1,1.2-1.7,1.6-2.4c0.4-0.7,1-1.4,1.3-2.2c0.8-1.6,1.2-2,2-3.7c0.4-0.7,1.3-0.6,1.4,0
		c-0.1,0.1,0,0.2,0,0.5c-0.7,3.7-1.2,7.4-2.2,11.2c-0.2,1.1-1.7,1-1.6,0c0.2-1.9,1-5.2,1.4-7.2c-0.2,0.4-0.6,1.2-0.8,1.7
		c-0.5,0.8-0.5,0.8-1,1.7c-0.6,0.8-1.3,1.8-2,2.2c-1.7,0.8-2.5-2.3-2.6-3.5c0-0.5-0.1-1.2-0.1-1.7c-0.2,1.8-0.8,5.2-1,7
		C173.1,16.8,171.7,17,171.6,16.1z"/>
	<path d="M190.7,8.4c-0.5,2.5-4,4.4-6.5,4.7c-0.1,1.1-0.2,2-0.5,3c-0.1,1.1-1.6,1-1.4,0c0.4-3.7,1.3-7.7,2.3-11.5
		c0.1-0.5,0.6-0.6,1.1-0.7C188.5,3.5,191.3,5.3,190.7,8.4z M189.1,8.4c0.5-2.2-1.4-3-3.2-3.1c-0.6,2-1,4.2-1.3,6.2
		C186.2,11.3,188.7,10.1,189.1,8.4z"/>
	<path d="M197.9,12.9c0.1,1.9-1.7,3.7-3.6,4c-1.9,0.2-3.8-0.8-3.2-3c0.4-1,1.7-1,1.6,0c-0.2,1.3,1,1.7,2.2,1.4
		c1.2-0.2,2.2-2.2,1-2.6c-1.4-0.6-4.4-0.8-4.2-3c0.1-2.2,1.9-4.6,4.1-5.5c2.4-1.1,3.8,0.7,3.5,2.9c-0.2,0.8-1.7,0.8-1.4,0
		c0.1-0.8-0.1-1.8-1.1-1.7c-0.6,0-1.3,0.6-1.8,1.1c-0.8,0.6-2,2.3-1.7,3.2c0.4,1,2.2,1.1,3.1,1.4C197,11.4,197.9,11.8,197.9,12.9z"
		/>
	<path d="M212.4,12.2c-0.4,1-0.7,2-1.4,3c-0.6,0.7-1.8,1.6-2.8,1.7c-1.2,0.1-2-0.6-2.5-1.4c-1-2-0.4-5.2,0.8-7.6
		c1-1.9,2.8-4.6,5-3.7c1.9,0.5,2,2.9,1.7,4.8C213.1,10,212.7,11.1,212.4,12.2z M211.8,8.9c0.1-0.8,0.1-1.8-0.1-2.6
		c-0.4-1-1.6-1.2-2.4-0.2c-1.7,1.7-2.5,4.4-2.5,6.5c0,1.1,0.1,2.8,1.4,2.9c0.8,0,1.7-1.2,2-1.9C211.1,12,211.4,10.5,211.8,8.9z"/>
	<path d="M214.4,4.8c0.1-1,1.7-1.3,1.6-0.4c0,2.9,0.2,5.8,0.5,8.6c1.3-3,2.6-5.9,4.3-8.9c0.4-1,1.7-0.5,1.3,0.5
		c-1.9,3.8-3.8,7.7-5.4,11.6c-0.2,0.8-1.4,0.6-1.6,0C214.7,12.5,214.4,8.8,214.4,4.8z"/>
	<path d="M228.7,5.3c-1.3,0.1-2.6,0.1-4,0.2c-0.5,1.8-1,3.5-1.3,5.3c1-0.1,2-0.4,3-0.5c1-0.1,1.1,1.2,0.1,1.4
		c-1.2,0.2-2.3,0.4-3.5,0.5c-0.1,1-0.6,2.8,0,3.1c0.5,0.4,2.3-0.5,3-0.7c1-0.4,1.1,1.1,0.1,1.4c-1.2,0.5-2.8,1.1-3.8,0.7
		c-1.2-0.4-1.1-1.6-1-2.6c0.2-3.1,1.2-6.2,2.3-9.4c0-0.2,0.1-0.4,0.2-0.4c0.1-0.2,0.4-0.4,0.6-0.4c1.4-0.1,3-0.2,4.4-0.4
		C230,3.8,229.7,5.2,228.7,5.3z"/>
	<path d="M233.5,12c0.1,0.5,0.2,1,0.4,1.4c0.4,0.7,0.7,1.4,1,2.3c0.2,0.7-0.8,1.6-1.3,0.8c-0.5-0.7-0.8-1.6-1.1-2.4
		c-0.1-0.5-0.4-1-0.5-1.4c-0.6,0.1-1.1,0.2-1.7,0.4c-0.1,1-0.2,2-0.5,3c-0.1,1-1.6,1-1.4,0c0.4-3.8,1.3-7.7,2.3-11.5
		c0.1-0.5,0.5-0.7,0.8-0.7c0.1,0,0.1,0,0.2,0c1.3-0.2,2.9,0,3.8,0.8c0.8,0.8,1.6,2.3,1.3,3.6C236.5,9.9,235.1,11.2,233.5,12z
		 M235.3,8.3c0.2-1-0.5-2.2-1.2-2.6c-0.6-0.4-1.3-0.5-2.2-0.5c-0.6,2.2-1,4.2-1.3,6.4C232.3,11.3,235.1,10.1,235.3,8.3z"/>
	<path d="M251.1,5.4c-0.8,0-1.6,0-2.4,0c-0.7,3.6-1.2,7.2-2.2,10.7c-0.2,1-1.6,1-1.4,0c0.5-3.5,1.4-7.1,2.2-10.7c-0.7,0-1.3,0-2,0
		c-1,0.1-0.7-1.3,0.2-1.4c2-0.1,4-0.1,5.9,0C252.3,4,252.1,5.4,251.1,5.4z"/>
	<path d="M252.3,16.2c-0.1,1-1.6,1-1.6,0c0.6-3.7,1.4-7.6,2.2-11.4c0.2-0.8,1.8-0.8,1.4,0c-0.5,2.4-1,4.7-1.3,7.1
		c1.3-0.2,2.6-0.2,3.8-0.1c0.5-2.3,1-4.6,1.4-7c0.2-0.8,1.8-0.8,1.4,0c-0.7,3.7-1.4,7.4-1.9,11.2c-0.1,0.1-0.1,0.1-0.1,0.2
		c-0.1,1-1.6,1-1.6,0c0.2-1,0.4-1.9,0.5-2.9c-1.2-0.1-2.5-0.2-3.8,0c-0.1,0.8-0.4,1.7-0.4,2.6C252.3,16.1,252.3,16.1,252.3,16.2z"/>
	<path d="M266.7,5.3c-1.3,0.1-2.6,0.1-4,0.2c-0.5,1.8-1,3.5-1.3,5.3c1-0.1,2-0.4,3-0.5c1-0.1,1.1,1.2,0.1,1.4
		c-1.2,0.2-2.3,0.4-3.5,0.5c-0.1,1-0.6,2.8,0,3.1c0.5,0.4,2.3-0.5,3-0.7c1-0.4,1.1,1.1,0.1,1.4c-1.2,0.5-2.8,1.1-3.8,0.7
		c-1.2-0.4-1.1-1.6-1-2.6c0.2-3.1,1.2-6.2,2.3-9.4c0-0.2,0.1-0.4,0.2-0.4c0.1-0.2,0.4-0.4,0.6-0.4c1.4-0.1,3-0.2,4.4-0.4
		C268.1,3.8,267.7,5.2,266.7,5.3z"/>
	<path d="M272.4,14c0.7-3.1,1.6-6.2,2.4-9.4c0.4-1,1.8-1,1.4,0c-0.5,1.8-0.8,3.6-1.3,5.4c-0.1,1-0.5,1.9-0.7,2.9
		c-0.1,0.6-0.2,1.4-0.2,2c0.5,0,1-0.1,1.4-0.2c0.8-0.1,1.3-0.1,2-0.2c1.1-0.1,0.8,1.4,0,1.6c-1,0.1-1.7,0.2-2.5,0.4
		c-0.6,0-1.3,0.2-1.9,0.2C271.8,16.5,272.4,14.9,272.4,14z"/>
	<path d="M287.3,8.7c-0.4,2.5-1,5-1.6,7.6c-0.2,1-1.7,1-1.4,0c0-0.4,0.2-1.2,0.6-2.4c-1.3-0.1-2.5-0.1-3.8,0.1
		c-0.1,0.7-0.2,1.6-0.4,2.3c-0.1,1-1.6,1-1.4,0c0.4-2.4,0.6-4.8,1.4-7.2c0.6-1.9,1.8-4.9,4.2-5.2C287.4,3.8,287.5,6.8,287.3,8.7z
		 M285.2,12.3c0.7-3.2,1.2-7.3-0.7-6.8c-1.1,0.2-1.7,1.6-2,2.5c-0.2,0.8-0.6,1.8-0.8,2.8c-0.1,0.6-0.2,1.2-0.4,1.7
		C282.6,12.2,283.9,12.2,285.2,12.3z"/>
	<path d="M296.3,5c-2.5,3.4-4.9,6.7-7.2,10.3c1.4-0.2,2.9-0.1,4.2,0c1,0,0.7,1.6-0.2,1.4c-1.8,0-3.5-0.2-5.4,0.2
		c-0.5,0.1-1.1-0.4-0.7-1c2.3-3.6,4.8-7.2,7.3-10.7c-1.3,0.1-2.8,0.1-4.2,0.1c-1,0-0.6-1.4,0.2-1.4c1.9-0.1,3.7-0.1,5.6-0.1
		C296.5,3.9,296.6,4.5,296.3,5z"/>
	<path d="M300.5,12.3c0.1-0.1,0.1-0.2,0.1-0.4c-0.6,0.6-1.3,1.1-2,1.3c-1.7,0.4-2.2-1.3-2.2-2.6c0.1-1.9,0.6-4,1.3-5.9
		c0.2-0.8,1.7-0.8,1.4,0c-0.5,1.4-0.8,2.8-1.1,4.2c-0.1,0.6-0.6,3.4,1,2.6c1-0.6,1.6-2.3,1.9-3.2c0.4-1.2,0.8-2.4,1.2-3.7
		c0.2-1,1.8-1,1.4,0c-0.6,2-0.8,4-1.3,6c-0.1,1.6-0.4,3.2-1.3,4.8c-0.7,1.1-1.6,1.7-2.8,1.6c-1.1,0-2-0.5-2-1.6
		c-0.2-1,1.4-1.3,1.4-0.4c0.1,0.5,1.2,0.6,1.7,0.2C300,14.6,300.3,13.1,300.5,12.3z"/>
	<path d="M316.8,10.2c-0.2,1.9-1.2,3.7-2.9,5.2c-1.2,1.1-2.8,1.4-4.2,1.3c-0.5,0.5-1.4,0.2-1.2-0.5c0.8-3.6,1.6-7.3,2.3-10.9
		c-0.2-0.4,0-1.1,0.6-1.2c1.8-0.4,3.7-0.4,4.7,1.2C316.9,6.8,317,8.4,316.8,10.2z M315.1,10.6c0.2-1.4,0.2-2.8-0.2-4
		c-0.5-1.1-1.4-1.3-2.6-1.2c-0.6,3.2-1.2,6.5-1.9,9.7c0.8,0,1.8-0.1,2.6-0.8C314.1,13.4,315,11.9,315.1,10.6z"/>
	<path d="M324.6,12.2c-0.4,1-0.7,2-1.4,3c-0.6,0.7-1.8,1.6-2.8,1.7c-1.2,0.1-2-0.6-2.5-1.4c-1-2-0.4-5.2,0.8-7.6
		c1-1.9,2.8-4.6,5-3.7c1.9,0.5,2,2.9,1.7,4.8C325.3,10,324.9,11.1,324.6,12.2z M324,8.9c0.1-0.8,0.1-1.8-0.1-2.6
		c-0.4-1-1.6-1.2-2.4-0.2c-1.7,1.7-2.5,4.4-2.5,6.5c0,1.1,0.1,2.8,1.4,2.9c0.8,0,1.7-1.2,2-1.9C323.3,12,323.6,10.5,324,8.9z"/>
	<path d="M333.5,10.5c0.1,0.4-0.1,0.8-0.2,1.2c-0.2,0.6-0.4,1.2-0.6,1.8c-0.8,2.2-2.8,4-4.8,3c-2.2-1-1.9-4.6-1.3-6.7
		c0.5-2,2-5,4.4-5.9c1-0.4,1.9-0.1,2.4,0.7c0.5,0.6,0.4,1.6,0.1,2.5c-0.2,0.8-1.7,0.8-1.4,0c0.1-0.6,0.4-1.4-0.1-1.8
		c-0.8-0.5-1.9,0.6-2.4,1.3c-1.2,1.7-1.8,3.6-1.8,5.4c0,0.8,0.1,2,0.6,2.8c0.7,0.7,1.7,0.4,2.3-0.6c0.5-0.6,0.7-1.2,1-1.9
		c0-0.2,0.1-0.5,0.2-0.8c-0.2,0-0.5,0.1-0.6,0.1c-0.5,0-1.1,0-1.6,0c-1,0-0.6-1.6,0.4-1.6c0.8,0,1.7,0,2.5,0
		C333,10,333.3,10,333.5,10.5z"/>
	<path d="M7.4,19.9c1.9-0.1,4-0.1,5.9,0c1,0.1,0.7,1.4-0.2,1.4c-0.8,0-1.6,0-2.4,0C9.8,25,9.2,28.5,8.5,32.2c-0.1,0.8-1.7,1-1.6,0.1
		c0.6-3.6,1.4-7.3,2.3-11c-0.7,0-1.3,0-2.2,0.1C6.1,21.4,6.5,20,7.4,19.9z"/>
	<path d="M14.1,32.2c-0.1,1-1.6,1-1.6,0c0.6-3.7,1.4-7.6,2.2-11.4c0.2-0.8,1.8-0.8,1.4,0c-0.5,2.4-1,4.7-1.3,7.1
		c1.3-0.2,2.6-0.2,3.8-0.1c0.5-2.3,1-4.6,1.4-7c0.2-0.8,1.8-0.8,1.4,0c-0.7,3.7-1.4,7.4-1.9,11.2c-0.1,0.1-0.1,0.1-0.1,0.2
		c-0.1,1-1.6,1-1.6,0c0.2-1,0.4-1.9,0.5-2.9c-1.2-0.1-2.5-0.2-3.8,0c-0.1,0.8-0.4,1.7-0.4,2.6C14.1,32.1,14.1,32.1,14.1,32.2z"/>
	<path d="M21.2,31.3c-0.1-1.6,0.4-3.5,0.7-5.2c0.4-1.8,1-3.6,1.7-5.4c0-0.1,0-0.2,0.1-0.4c0.2-0.1,0.5-0.2,0.7-0.2
		c1.4-0.1,3-0.2,4.4-0.4c1.1-0.1,0.7,1.4-0.2,1.6c-1.3,0-2.6,0.1-4,0.2c-0.6,1.7-1.1,3.5-1.4,5.3c1.1-0.2,2-0.4,3.1-0.5
		c1-0.2,1.2,1.2,0.1,1.4c-1.1,0.2-2.3,0.4-3.5,0.5c0,0.1,0,0.1,0,0.2c-0.1,0.6-0.2,1.2-0.2,1.8s0,1.1,0.7,1.1c1-0.1,1.9-0.6,2.6-1.3
		c0.6-0.7,1.7,0.2,1.1,0.8C25.7,32.6,21.5,34.3,21.2,31.3z"/>
	<path d="M34.7,28.9c0.1-1.7,0.5-3.5,1.3-5.2c0.6-1.2,1.7-2.9,3.2-3.5c3.1-1.3,3.7,2.6,3.4,4.8c-0.2,1.6-0.5,2.4-0.8,3.6
		c-0.2,0.6-0.6,1.3-1,1.9c0.2,0.4,0.4,0.8,0.6,1.2c0.5,0.7-0.7,1.8-1.3,1.1c-0.1-0.2-0.4-0.6-0.5-0.8c-1.1,0.8-2.5,1.2-3.5,0.6
		C34.8,31.9,34.7,30.3,34.7,28.9z M36.3,26.7c-0.1,0.8-0.2,1.7-0.1,2.4c0,0.8,0.4,2.8,1.8,2.3c0.2-0.1,0.6-0.4,1-0.7
		c-0.4-1-0.8-1.9-1.2-2.9c-0.5-0.7,1.1-1.4,1.3-0.7c0.4,0.5,0.8,1.6,1.1,2.2c0.6-1.4,1-3,1.2-4.2c0-1.1,0-1.6-0.2-2.5
		c-0.4-1.6-1.9-1.2-2.9,0C37.4,23.7,36.7,25.3,36.3,26.7z"/>
	<path d="M43.5,28.6c0.2-2.8,0.8-5.5,1.7-8.2c0.4-1,1.8-1,1.6,0c-0.7,2.2-1.3,4.3-1.4,6.5c-0.1,1.2-0.7,5.8,2,4
		c1-0.6,1.3-1.7,1.6-2.6c0.1-0.4,0.1-0.6,0.2-0.8c0-0.4,0.2-1.2,0.4-1.6c0.4-1.9,0.6-3.4,1-5.3c0.2-1,1.7-1,1.6,0
		c-0.4,2.2-0.8,4.3-1.3,6.5c0,0,0,0,0,0.1c-0.1,0.7-0.2,1.4-0.4,2.2c-0.1,0.7-0.4,1.7,0.2,2.2c0.6,0.7-0.7,1.8-1.4,1.2
		c-0.2-0.4-0.4-0.7-0.5-1.1c-0.6,0.5-1.2,1-2.2,1.2C44,33.4,43.4,30.6,43.5,28.6z"/>
	<path d="M56.1,20.6c-0.8,3.7-1.4,7.6-2,11.3c0,0.1,0,0.1-0.1,0.2c-0.1,1-1.6,1-1.6,0c0.6-3.7,1.4-7.7,2.3-11.5
		C54.8,19.8,56.4,19.8,56.1,20.6z"/>
	<path d="M62.1,29.1c-0.8,1.9-3,4.8-5,3.4c-1.8-1.2-1.3-4.4-0.7-6.6c0.5-1.9,1.9-5.6,4.3-6.1c1.1-0.2,2,0.4,2.4,1.2
		c0.6,1,0.2,2.3-0.5,3.4c-0.5,0.8-1.9,0.5-1.3-0.4c0.4-0.8,0.8-1.7,0.4-2.4c-0.6-0.8-1.4-0.2-2.2,0.6c-1,1.3-1.6,2.9-1.9,4.4
		c-0.2,1.2-0.5,3.1,0.2,4.2c1.1,1.6,2.5-1,2.9-2C61.2,27.8,62.5,28.2,62.1,29.1z"/>
	<path d="M62.7,32c0.6-3.7,1.4-7.4,2.2-11.2c0.2-1,1.7-1,1.4,0c-0.4,2.5-0.8,5-1.3,7.6c0,0,0.1,0,0.2,0c1.1-0.6,2.3-1.8,2.9-2.6
		c1.1-1.6,1.2-3.2,1.4-4.9c0.2-1,1.7-1,1.4,0c-0.2,2.2-0.6,4.4-2.3,6.2c-0.2,0.4-0.6,0.8-1.1,1.2c0.4,0,0.6,0.1,0.8,0.2
		c1.1,0.7,0.8,2.3,0.6,3.6c0,0.8-1.4,1-1.4,0.1c0.1-0.7,0.4-2.2-0.5-2.4c-0.5-0.2-1.2-0.1-1.8,0C65,30,64.8,30,64.7,30.1
		c-0.1,0.6-0.2,1.3-0.4,1.9C63.9,33,62.5,33,62.7,32z"/>
	<path d="M79.2,20.5c1.4-0.5,3.1-1,4.3-0.4c1.1,0.4,1.6,1.6,1.3,2.8c-0.2,1.8-1.7,3.2-3.2,4.3c1.4,0.2,2.3,1.1,1.7,2.9
		c-0.8,2.5-3.7,3.1-5.8,2.6c-0.5,0.4-1.4,0.2-1.2-0.5c0.8-3.5,1.7-7,2.4-10.4C78.3,21.4,78.6,20.7,79.2,20.5z M78.7,29
		c-0.1,0.7-0.5,1.4-0.6,2.2c1.2,0.2,2.6,0.4,3.5-0.8C82.9,28.3,80,28.6,78.7,29z M80.3,21.6c-0.4,1.8-0.6,3.7-1.2,5.5
		c1.6-0.7,2.9-1.7,3.8-3.1c0.6-1.1,0.6-2.4-0.6-2.6C81.7,21.2,81,21.3,80.3,21.6z"/>
	<path d="M84.2,32.2c0.5-3.8,1.3-7.8,2.4-11.6c0.2-0.4,0.5-0.6,0.8-0.7h0.1c1.4-0.1,3,0,4,0.8c0.8,0.8,1.7,2.3,1.3,3.7
		c-0.4,1.6-1.8,2.9-3.4,3.7c0.1,0.5,0.2,1.1,0.4,1.6c0.1,0.7,0.5,1.4,1,2.2c0.4,0.5-0.7,1.3-1.2,1c-1-0.8-1.6-2.5-1.8-4.1
		c-0.5,0.2-1,0.4-1.6,0.4c-0.1,1.1-0.4,2-0.5,3.1C85.7,33.2,84.2,33.2,84.2,32.2z M87.9,21.3c-0.6,2-1.1,4.2-1.3,6.2
		c1.7-0.2,4.4-1.4,4.7-3.1c0.2-1-0.5-2.2-1.2-2.6C89.5,21.3,88.8,21.3,87.9,21.3z"/>
	<path d="M92.9,28.8c0-1.7,0.6-3.5,1.4-5.2c0.5-1.2,1.4-2.9,2.9-3.5c3.1-1.3,3.8,2.8,3.4,4.8c-0.2,1.2-0.4,2.3-0.8,3.6
		c-0.5,1.2-0.8,2.4-1.9,3.4c-1.1,1-2.5,1.3-3.6,0.7C93,31.9,92.9,30.2,92.9,28.8z M94.4,29.1c0,0.7,0.5,2.6,1.7,2.2
		c0.7-0.2,1.4-1.2,1.7-1.8c0.7-1.6,1-3,1.3-4.6c0.2-0.8,0.2-1.7,0-2.4c0-0.5-0.4-1-0.8-1.1c-0.6-0.1-1.3,0.4-1.8,1
		C95,24.3,94.3,27,94.4,29.1z"/>
	<path d="M107.1,25c-1.1,2.3-2.3,5.4-3.8,7.4c-0.4,0.7-1.4,0.5-1.6-0.1c-0.4-3.8,0.2-7.8,1-11.8c0.1-1.1,1.8-1,1.6,0
		c-0.5,2.9-1.2,6.8-1.2,9.7c1.7-2.8,2.5-5.3,3.7-8c0.2-0.4,0.7-0.6,1-0.6c0.5,0,0.8,0.1,0.8,0.6c0,1.2,0.1,2.5,0.2,3.5
		c0.1,1.2,0.4,3.2,0.5,4.6c1.1-3,1.9-6.8,2.6-9.7c0.2-1,1.8-1.1,1.6,0c-0.8,3.7-1.8,7.9-3.6,11.8c-0.2,0.7-1.6,0.7-1.8,0.1
		c-0.5-1.6-0.6-2.5-0.7-3.7C107.4,28.4,107.1,25.4,107.1,25z"/>
	<path d="M114.6,21c0.1-0.7,0.8-1,1.3-0.7c0.5,0.1,1.7,8,1.9,9.1c0.8-2.8,1.6-5.6,1.9-8.5c0.2-0.8,1.7-0.8,1.4,0
		c-0.4,3.8-1.3,7.7-2.6,11.5c-0.2,0.4-0.5,0.5-1,0.5c-0.4,0-0.4-0.1-0.6-0.6c-0.8-2.3-1.3-4.8-1.8-7.3c-0.5,2.4-0.8,4.7-1.3,7.1
		c-0.2,1-1.7,1-1.6,0C112.8,28.4,113.6,24.6,114.6,21z"/>
	<path d="M129.7,20c1.4-0.1,2.9-0.2,4.4-0.1c1,0,0.7,1.4-0.2,1.4c-1.3,0-2.5,0-3.8,0c-0.5,1.9-1,3.8-1.4,5.8
		c1.1-0.1,2.2-0.2,3.1-0.2s0.6,1.6-0.4,1.6s-1.9,0.1-3,0.1c-0.1,1.2-0.2,2.4-0.4,3.5c0.1,1-1.7,1.4-1.6,0.5
		c0.1-3.8,1.3-7.9,2.3-11.9c0.1-0.5,0.5-0.6,0.8-0.6C129.6,20,129.6,20,129.7,20z"/>
	<path d="M133.4,28.8c0-1.7,0.6-3.5,1.4-5.2c0.5-1.2,1.4-2.9,2.9-3.5c3.1-1.3,3.8,2.8,3.4,4.8c-0.2,1.2-0.4,2.3-0.8,3.6
		c-0.5,1.2-0.8,2.4-1.9,3.4c-1.1,1-2.5,1.3-3.6,0.7C133.5,31.9,133.4,30.2,133.4,28.8z M135,29.1c0,0.7,0.5,2.6,1.7,2.2
		c0.7-0.2,1.4-1.2,1.7-1.8c0.7-1.6,1-3,1.3-4.6c0.2-0.8,0.2-1.7,0-2.4c0-0.5-0.4-1-0.8-1.1c-0.6-0.1-1.3,0.4-1.8,1
		C135.6,24.3,134.9,27,135,29.1z"/>
	<path d="M141,31.8c1.2-1.7,2.4-3.4,3.5-5c-0.5-1.9-0.8-4-1.3-5.9c-0.1-0.8,1.4-1.3,1.7-0.4c0.2,1.4,0.6,2.9,1,4.2
		c0.4-0.7,0.8-1.3,1.2-2c0.6-0.8,1-1.8,1.6-2.5c0.7-0.8,1.8-0.1,1.1,0.8c-0.6,0.8-1.1,1.9-1.7,2.9c-0.6,1-1.2,1.9-1.8,2.8
		c0.2,1.1,0.6,2,0.8,3c0.2,0.7,0.5,1.6,0.6,2.4c0.1,1-1.4,1.3-1.6,0.4c-0.1-1-0.6-1.9-0.8-2.8c0-0.4-0.2-0.7-0.2-1.1
		c-0.8,1.3-1.8,2.6-2.8,4.1C141.6,33.4,140.5,32.6,141,31.8z"/>
	<path d="M159.1,32.5c-1.7,0.6-3.4-0.2-3.8-1.7c-0.4-1.1,0-2.9,1.4-3.6c1-0.4,1.4,0.8,0.5,1.3c-0.5,0.2-0.5,1-0.4,1.2
		c0,0.6,0.2,1.1,0.8,1.2c0.4,0.2,1.1,0.4,1.7-0.1c0.5-0.5,0.5-1.2,0.7-1.7c0.6-2.5,1.1-5,1.6-7.4c-0.7-0.1-1.3-0.2-1.8-0.4
		c-1.1-0.2-0.2-1.7,0.6-1.4c1.2,0.2,2.5,0.4,3.7,0.1c1.1-0.1,0.7,1.4-0.4,1.6c-0.2,0-0.5,0.1-0.7,0.1c-0.5,2-0.7,4.2-1.2,6.4
		C161.5,29.6,161.1,31.8,159.1,32.5z"/>
	<path d="M164.4,28.6c0.2-2.8,0.8-5.5,1.7-8.2c0.4-1,1.8-1,1.6,0c-0.7,2.2-1.3,4.3-1.4,6.5c-0.1,1.2-0.7,5.8,2,4
		c1-0.6,1.3-1.7,1.6-2.6c0.1-0.4,0.1-0.6,0.2-0.8c0-0.4,0.2-1.2,0.4-1.6c0.4-1.9,0.6-3.4,1-5.3c0.2-1,1.7-1,1.6,0
		c-0.4,2.2-0.8,4.3-1.3,6.5c0,0,0,0,0,0.1c-0.1,0.7-0.2,1.4-0.4,2.2c-0.1,0.7-0.4,1.7,0.2,2.2c0.6,0.7-0.7,1.8-1.4,1.2
		c-0.2-0.4-0.4-0.7-0.5-1.1c-0.6,0.5-1.2,1-2.2,1.2C164.9,33.4,164.3,30.6,164.4,28.6z"/>
	<path d="M173.1,32.1c0.1-3.7,1.1-7.6,2.2-11.3c0.1-0.5,0.5-0.7,1-0.7c0.6,0,0.7,0.5,0.6,0.7c0,1.2,0.4,2.2,0.5,3.8
		c0.1,1.2,0.5,2.8,1,3.8c0.7-1,1.2-1.7,1.6-2.4c0.4-0.7,1-1.4,1.3-2.2c0.8-1.6,1.2-2,2-3.7c0.4-0.7,1.3-0.6,1.4,0
		c-0.1,0.1,0,0.2,0,0.5c-0.7,3.7-1.2,7.4-2.2,11.2c-0.2,1.1-1.7,1-1.6,0c0.2-1.9,1-5.2,1.4-7.2c-0.2,0.4-0.6,1.2-0.8,1.7
		c-0.5,0.8-0.5,0.8-1,1.7c-0.6,0.8-1.3,1.8-2,2.2c-1.7,0.8-2.5-2.3-2.6-3.5c0-0.5-0.1-1.2-0.1-1.7c-0.2,1.8-0.8,5.2-1,7
		C174.7,32.8,173.3,33,173.1,32.1z"/>
	<path d="M183.8,32.2c0.5-3.8,1.3-7.8,2.4-11.6c0.1-0.4,0.5-0.6,0.7-0.7c0.1,0,0.1,0,0.2,0c2.9-0.4,5.8,1.3,5,4.6
		c-0.5,2.5-4,4.4-6.4,4.7c-0.2,1.1-0.4,2-0.5,3.1C185.3,33.2,183.8,33.2,183.8,32.2z M187.5,21.3c-0.6,2-1.1,4.2-1.4,6.2
		c1.8-0.2,4.2-1.4,4.6-3.1C191.3,22.3,189.2,21.4,187.5,21.3z"/>
	<path d="M192.9,25.5c0.4-2.2,2.2-4.6,4.3-5.5c2.4-1,3.6,0.8,3.4,2.9c-0.2,1-1.7,1-1.4,0c0.1-0.7-0.1-1.7-1.1-1.6
		c-0.7,0-1.4,0.6-2,1.2c-0.7,0.7-1.7,2.2-1.4,3.1c0.2,1,2.2,1.1,3,1.4c1.1,0.4,1.8,0.7,1.8,1.9c-0.1,2-1.9,3.7-3.8,3.8
		c-1,0.1-1.9,0-2.5-0.7c-0.4-0.6-0.6-1.6,0-2.5c0.5-0.8,1.8-0.5,1.3,0.5c-0.6,1.3,1.2,1.4,2.2,1.1c0.5-0.1,0.8-0.6,1.1-1.2
		c0.4-0.7,0.1-1.1-0.5-1.3C195.6,28,192.7,27.7,192.9,25.5z"/>
	<path d="M206.7,28.8c0-1.7,0.6-3.5,1.4-5.2c0.5-1.2,1.4-2.9,2.9-3.5c3.1-1.3,3.8,2.8,3.4,4.8c-0.2,1.2-0.4,2.3-0.8,3.6
		c-0.5,1.2-0.8,2.4-1.9,3.4s-2.5,1.3-3.6,0.7C206.9,31.9,206.7,30.2,206.7,28.8z M208.3,29.1c0,0.7,0.5,2.6,1.7,2.2
		c0.7-0.2,1.4-1.2,1.7-1.8c0.7-1.6,1-3,1.3-4.6c0.2-0.8,0.2-1.7,0-2.4c0-0.5-0.4-1-0.8-1.1c-0.6-0.1-1.3,0.4-1.8,1
		C208.9,24.3,208.2,27,208.3,29.1z"/>
	<path d="M215.6,20.8c0.1-1,1.7-1.3,1.6-0.4c0,2.9,0.2,5.8,0.5,8.6c1.3-3,2.6-5.9,4.3-8.9c0.4-1,1.7-0.5,1.3,0.5
		c-1.9,3.8-3.8,7.7-5.4,11.6c-0.2,0.8-1.4,0.6-1.6,0C215.9,28.5,215.6,24.8,215.6,20.8z"/>
	<path d="M222.6,31.3c-0.1-1.6,0.4-3.5,0.7-5.2c0.4-1.8,1-3.6,1.7-5.4c0-0.1,0-0.2,0.1-0.4c0.2-0.1,0.5-0.2,0.7-0.2
		c1.4-0.1,3-0.2,4.4-0.4c1.1-0.1,0.7,1.4-0.2,1.6c-1.3,0-2.6,0.1-4,0.2c-0.6,1.7-1.1,3.5-1.4,5.3c1.1-0.2,2-0.4,3.1-0.5
		c1-0.2,1.2,1.2,0.1,1.4c-1.1,0.2-2.3,0.4-3.5,0.5c0,0.1,0,0.1,0,0.2c-0.1,0.6-0.2,1.2-0.2,1.8s0,1.1,0.7,1.1c1-0.1,1.9-0.6,2.6-1.3
		c0.6-0.7,1.7,0.2,1.1,0.8C227,32.6,222.8,34.3,222.6,31.3z"/>
	<path d="M229.4,32.2c0.5-3.8,1.3-7.8,2.4-11.6c0.2-0.4,0.5-0.6,0.8-0.7h0.1c1.4-0.1,3,0,4,0.8c0.8,0.8,1.7,2.3,1.3,3.7
		c-0.4,1.6-1.8,2.9-3.4,3.7c0.1,0.5,0.2,1.1,0.4,1.6c0.1,0.7,0.5,1.4,1,2.2c0.4,0.5-0.7,1.3-1.2,1c-1-0.8-1.6-2.5-1.8-4.1
		c-0.5,0.2-1,0.4-1.6,0.4c-0.1,1.1-0.4,2-0.5,3.1C230.9,33.2,229.4,33.2,229.4,32.2z M233.1,21.3c-0.6,2-1.1,4.2-1.3,6.2
		c1.7-0.2,4.4-1.4,4.7-3.1c0.2-1-0.5-2.2-1.2-2.6C234.7,21.3,234,21.3,233.1,21.3z"/>
	<path d="M246.7,19.9c1.9-0.1,4-0.1,5.9,0c1,0.1,0.7,1.4-0.2,1.4c-0.8,0-1.6,0-2.4,0c-0.8,3.7-1.4,7.2-2.2,10.9
		c-0.1,0.8-1.7,1-1.6,0.1c0.6-3.6,1.4-7.3,2.3-11c-0.7,0-1.3,0-2.2,0.1C245.4,21.4,245.7,20,246.7,19.9z"/>
	<path d="M253.4,32.2c-0.1,1-1.6,1-1.6,0c0.6-3.7,1.4-7.6,2.2-11.4c0.2-0.8,1.8-0.8,1.4,0c-0.5,2.4-1,4.7-1.3,7.1
		c1.3-0.2,2.6-0.2,3.8-0.1c0.5-2.3,1-4.6,1.4-7c0.2-0.8,1.8-0.8,1.4,0c-0.7,3.7-1.4,7.4-1.9,11.2c-0.1,0.1-0.1,0.1-0.1,0.2
		c-0.1,1-1.6,1-1.6,0c0.2-1,0.4-1.9,0.5-2.9c-1.2-0.1-2.5-0.2-3.8,0c-0.1,0.8-0.4,1.7-0.4,2.6C253.4,32.1,253.4,32.1,253.4,32.2z"/>
	<path d="M260.5,31.3c-0.1-1.6,0.4-3.5,0.7-5.2c0.4-1.8,1-3.6,1.7-5.4c0-0.1,0-0.2,0.1-0.4c0.2-0.1,0.5-0.2,0.7-0.2
		c1.4-0.1,3-0.2,4.4-0.4c1.1-0.1,0.7,1.4-0.2,1.6c-1.3,0-2.6,0.1-4,0.2c-0.6,1.7-1.1,3.5-1.4,5.3c1.1-0.2,2-0.4,3.1-0.5
		c1-0.2,1.2,1.2,0.1,1.4c-1.1,0.2-2.3,0.4-3.5,0.5c0,0.1,0,0.1,0,0.2c-0.1,0.6-0.2,1.2-0.2,1.8s0,1.1,0.7,1.1c1-0.1,1.9-0.6,2.6-1.3
		c0.6-0.7,1.7,0.2,1.1,0.8C264.9,32.6,260.7,34.3,260.5,31.3z"/>
	<path d="M273.5,30c0.7-3.1,1.6-6.2,2.4-9.4c0.4-1,1.8-1,1.4,0c-0.5,1.8-0.8,3.6-1.3,5.4c-0.1,1-0.5,1.9-0.7,2.9
		c-0.1,0.6-0.2,1.4-0.2,2c0.5,0,1-0.1,1.4-0.2c0.8-0.1,1.3-0.1,2-0.2c1.1-0.1,0.8,1.4,0,1.6c-1,0.1-1.7,0.2-2.5,0.4
		c-0.6,0-1.3,0.2-1.9,0.2C272.9,32.5,273.5,30.9,273.5,30z"/>
	<path d="M280.3,32.1c0.4-2.4,0.6-4.8,1.4-7.2c0.7-1.9,1.8-4.9,4.2-5.2c2.6-0.2,2.6,2.9,2.4,4.7c-0.2,2.5-0.8,5.2-1.6,7.7
		c-0.1,1-1.6,1-1.4,0c0.1-0.4,0.4-1.3,0.6-2.4c-1.2-0.1-2.5-0.1-3.7,0.1c-0.2,0.7-0.2,1.6-0.5,2.3C281.7,33.1,280.2,33.1,280.3,32.1
		z M282.3,28.3c1.4-0.2,2.8-0.2,4-0.1c0.7-3.4,1.2-7.3-0.6-6.8c-1.2,0.2-1.7,1.7-2,2.5c-0.5,1-0.7,1.8-1,2.8
		C282.6,27.2,282.5,27.7,282.3,28.3z"/>
	<path d="M288.8,33c-0.5,0.2-1.1-0.4-0.7-1c2.2-3.6,4.7-7.2,7.4-10.7c-1.4,0-2.9,0-4.4,0.1c-1,0-0.6-1.4,0.4-1.6c1.8,0,3.7,0,5.5,0
		c0.6-0.1,0.8,0.6,0.5,1.1c-2.5,3.4-5,6.7-7.2,10.2c1.7-0.4,3.2-0.5,4.6,0.2c0.8,0.4-0.2,1.7-1.1,1.3C292.4,32,290.5,32.5,288.8,33z
		"/>
	<path d="M301.7,28.3c0.1-0.1,0.1-0.2,0.1-0.4c-0.6,0.6-1.3,1.1-2,1.3c-1.7,0.4-2.2-1.3-2.2-2.6c0.1-1.9,0.6-4,1.3-5.9
		c0.2-0.8,1.7-0.8,1.4,0c-0.5,1.4-0.8,2.8-1.1,4.2c-0.1,0.6-0.6,3.4,1,2.6c1-0.6,1.6-2.3,1.9-3.2c0.4-1.2,0.8-2.4,1.2-3.7
		c0.2-1,1.8-1,1.4,0c-0.6,2-0.8,4-1.3,6c-0.1,1.6-0.4,3.2-1.3,4.8c-0.7,1.1-1.6,1.7-2.8,1.6c-1.1,0-2-0.5-2-1.6
		c-0.2-1,1.4-1.3,1.4-0.4c0.1,0.5,1.2,0.6,1.7,0.2C301.2,30.6,301.5,29.1,301.7,28.3z"/>
	<path d="M312,21.2c-0.4-0.4-0.1-1.1,0.5-1.2c1.9-0.4,3.8-0.4,4.7,1.2c0.8,1.4,1,3.1,0.7,4.9c-0.2,1.9-1.2,3.7-2.9,5.2
		c-1.2,1.1-2.9,1.4-4.2,1.4c-0.5,0.4-1.4,0.2-1.2-0.6C310.4,28.5,311.1,24.8,312,21.2z M313.3,21.3c-0.6,3.2-1.2,6.5-1.9,9.7
		c0.8,0,1.8-0.1,2.6-0.7c1.3-1.1,2-2.5,2.2-3.8c0.2-1.4,0.2-2.8-0.2-4C315.5,21.4,314.5,21.2,313.3,21.3z"/>
	<path d="M318.6,28.8c0-1.7,0.6-3.5,1.4-5.2c0.5-1.2,1.4-2.9,2.9-3.5c3.1-1.3,3.8,2.8,3.4,4.8c-0.2,1.2-0.4,2.3-0.8,3.6
		c-0.5,1.2-0.8,2.4-1.9,3.4s-2.5,1.3-3.6,0.7C318.7,31.9,318.6,30.2,318.6,28.8z M320.1,29.1c0,0.7,0.5,2.6,1.7,2.2
		c0.7-0.2,1.4-1.2,1.7-1.8c0.7-1.6,1-3,1.3-4.6c0.2-0.8,0.2-1.7,0-2.4c0-0.5-0.4-1-0.8-1.1c-0.6-0.1-1.3,0.4-1.8,1
		C320.7,24.3,320,27,320.1,29.1z"/>
	<path d="M329,32.8c-1.4-0.1-1.8-1.4-2-2.8c-0.5-2.8,0.5-6.8,3-9.2c1.2-1,2.9-1.3,3.8-0.5c0.8,0.8,1.2,2,0.1,3.1
		c-0.7,0.7-1.8,0.1-1.2-0.6c0.7-0.7-0.5-1.8-1.3-1.4c-0.6,0.4-1.3,1.3-1.7,2c-1,1.6-1.3,3.2-1.3,4.9c0,0.7,0,1.7,0.4,2.3
		c0.6,0.8,2,0.6,2.8-0.4c0.4-0.6,0.7-1.9,1-2.8c-0.1,0-0.4,0-0.6,0c-0.5,0-0.8,0.1-1.3,0.1c-1.1,0-0.6-1.6,0.4-1.6
		c0.8,0,1.7-0.2,2.4-0.1c0.5,0,1,0.2,0.8,0.8c-0.1,1-0.6,2.9-1.2,3.7C332.3,31.9,330.5,33,329,32.8z"/>
</g>
</svg>
