<?xml version="1.0" encoding="utf-8"?>
<!-- Generator: Adobe Illustrator 24.2.0, SVG Export Plug-In . SVG Version: 6.00 Build 0)  -->
<svg version="1.1" id="Layer_1" xmlns="http://www.w3.org/2000/svg" xmlns:xlink="http://www.w3.org/1999/xlink" x="0px" y="0px"
	 viewBox="0 0 371.74 54.05" style="enable-background:new 0 0 371.74 54.05;" xml:space="preserve">
<g>
	<path d="M0.31,2.15c0-0.29,0.45-0.29,0.45,0c-0.04,3.56,0.07,7.13,0.11,10.7c0.03,3.57,0.03,7.13,0.01,10.7c0,0.5-0.77,0.5-0.78,0
		C0.03,21.2,0,18.84,0,16.49c0-1.21,0.01-2.43,0.03-3.64C0.08,9.28,0.24,5.72,0.31,2.15z M2.69,2.03c0.01-0.15,0.23-0.15,0.23,0
		c0.03,0.89,0.13,1.78,0.13,2.68C3.06,5.6,3.07,6.5,3.09,7.39c0.04,1.76,0.08,3.51,0.14,5.27c0.06,1.76,0.16,3.51,0.26,5.26
		c0.1,1.77,0.32,3.56,0.25,5.34c-0.01,0.34-0.55,0.44-0.62,0.08c-0.36-1.72-0.41-3.5-0.51-5.25c-0.1-1.78-0.16-3.57-0.2-5.35
		c-0.04-1.79-0.05-3.57-0.02-5.36C2.4,6.5,2.42,5.6,2.45,4.71C2.48,3.81,2.61,2.93,2.69,2.03z M4.98,1.97c0-0.04,0.06-0.04,0.05,0
		c0.01,0.24,0.12,0.47,0.13,0.71C5.18,2.93,5.18,3.16,5.19,3.4C5.2,3.88,5.21,4.35,5.23,4.83C5.26,5.75,5.3,6.68,5.33,7.6
		c0.05,1.85,0.14,3.69,0.24,5.53c0.21,3.71,0.62,7.41,0.87,11.12c0.02,0.22-0.18,0.35-0.37,0.36c-0.16,0-0.32-0.08-0.35-0.26
		c-0.6-3.7-0.82-7.48-0.97-11.22c-0.08-1.87-0.1-3.75-0.1-5.62c0-0.95,0.04-1.91,0.08-2.86C4.74,4.17,4.76,3.7,4.78,3.22
		c0.01-0.23,0-0.48,0.05-0.71C4.87,2.33,4.96,2.16,4.98,1.97z M7.76,1.69C7.79,1.6,7.9,1.64,7.93,1.71C8.08,2.1,8.07,2.57,8.09,2.98
		C8.11,3.46,8.14,3.93,8.14,4.4c0.01,0.89,0.02,1.77,0.04,2.66c0.04,1.84,0.08,3.67,0.15,5.5c0.14,3.66,0.39,7.33,0.68,10.98
		c0.05,0.55-0.79,0.53-0.85,0c-0.41-3.68-0.65-7.37-0.76-11.07c-0.05-1.86-0.08-3.73-0.04-5.59C7.38,6,7.4,5.11,7.44,4.22
		C7.45,3.75,7.5,3.27,7.54,2.8C7.58,2.43,7.6,2.03,7.76,1.69z M10.03,1.62c0-0.1,0.14-0.1,0.15,0c0.05,3.68,0.28,7.36,0.44,11.03
		c0.08,1.84,0.2,3.68,0.31,5.51c0.11,1.84,0.27,3.67,0.24,5.5c0,0.26-0.42,0.33-0.47,0.06c-0.35-1.81-0.45-3.65-0.57-5.48
		c-0.12-1.84-0.18-3.68-0.24-5.51C9.78,9.03,9.91,5.33,10.03,1.62z M12.01,1.56c0-0.07,0.06-0.1,0.12-0.1
		c0.04,0.01,0.08,0.04,0.08,0.1c0.01,0.95,0.1,1.91,0.13,2.87c0.02,0.9,0.04,1.79,0.07,2.69c0.05,1.85,0.12,3.7,0.18,5.56
		c0.12,3.7,0.42,7.4,0.43,11.11c0,0.41-0.58,0.39-0.62,0c-0.42-3.68-0.44-7.41-0.52-11.11c-0.04-1.85-0.04-3.7-0.03-5.56
		c0.01-0.9,0.01-1.79,0.03-2.69C11.9,3.48,11.99,2.52,12.01,1.56z M13.9,2.27c0-0.25,0.38-0.25,0.39,0
		c0.11,3.56,0.24,7.11,0.48,10.66c0.23,3.55,0.58,7.08,0.86,10.63c0.04,0.5-0.7,0.47-0.76,0c-0.47-3.52-0.69-7.08-0.83-10.63
		C13.88,9.38,13.81,5.82,13.9,2.27z M16.66,2.03c0.01-0.15,0.23-0.15,0.24,0c0.21,3.66,0.19,7.33,0.37,10.99s0.42,7.31,0.77,10.96
		c0,0.01,0,0.03,0,0.04c0,0.46-0.74,0.44-0.78-0.04c-0.35-3.64-0.59-7.3-0.71-10.96C16.44,9.36,16.34,5.68,16.66,2.03z"/>
	<path d="M19.13,2.14c0.01-0.06,0.11-0.06,0.12,0c0.13,0.83,0.06,1.66,0.05,2.5c-0.01,0.89-0.01,1.77-0.01,2.66
		c0.01,1.77,0.06,3.55,0.14,5.32c0.15,3.55,0.46,7.08,0.76,10.62c0.03,0.36-0.58,0.44-0.63,0.09c-0.52-3.51-0.74-7.07-0.81-10.61
		c-0.01-0.67-0.02-1.35-0.02-2.02c0-1.13,0.02-2.26,0.05-3.39c0.03-0.89,0.06-1.77,0.1-2.66C18.92,3.8,18.92,2.96,19.13,2.14z
		 M20.98,1.59c0-0.09,0.08-0.13,0.14-0.12s0.11,0.05,0.11,0.12c0,0.85,0.06,1.71,0.08,2.57c0.01,0.85,0.03,1.71,0.06,2.56
		c0.09,2.98,0.33,5.95,0.6,8.92s0.7,5.91,1.02,8.87c0.02,0.2-0.15,0.31-0.32,0.31c-0.14,0-0.28-0.07-0.31-0.23
		c-0.31-1.66-0.52-3.32-0.69-5c-0.32-2.99-0.53-5.99-0.63-8.99c-0.05-1.5-0.1-3-0.12-4.51c-0.01-0.74-0.01-1.47-0.01-2.21
		C20.89,3.12,20.96,2.35,20.98,1.59z M23.62,1.76c0-0.03,0.06-0.03,0.07,0c0.15,0.88,0.18,1.8,0.23,2.69S24,6.24,24.04,7.13
		c0.09,1.84,0.2,3.69,0.31,5.53s0.24,3.68,0.4,5.52c0.08,0.89,0.15,1.78,0.23,2.67c0.08,0.93,0.26,1.91,0.16,2.84
		c-0.03,0.26-0.37,0.32-0.46,0.06c-0.28-0.86-0.31-1.83-0.4-2.72c-0.09-0.92-0.17-1.84-0.25-2.76c-0.14-1.84-0.27-3.68-0.36-5.52
		c-0.1-1.87-0.15-3.74-0.18-5.62c-0.01-0.89-0.03-1.79-0.01-2.68C23.48,3.56,23.49,2.63,23.62,1.76z M25.83,2
		c0-0.01,0.01-0.01,0.01,0c0.04,3.6,0.21,7.22,0.48,10.81c0.27,3.6,0.62,7.18,1.09,10.76c0.06,0.43-0.69,0.52-0.75,0.1
		c-0.55-3.56-0.92-7.17-1.05-10.78c-0.06-1.8-0.09-3.6-0.07-5.41C25.56,5.66,25.69,3.83,25.83,2z M27.74,1.65
		c0-0.09,0.14-0.09,0.14,0.01C27.89,1.9,28,2.13,28.01,2.37c0.02,0.24,0.03,0.48,0.04,0.72c0.03,0.48,0.05,0.95,0.08,1.43
		c0.05,0.95,0.09,1.91,0.13,2.87c0.08,1.91,0.17,3.82,0.28,5.73s0.24,3.82,0.37,5.72c0.07,0.95,0.14,1.9,0.2,2.86
		c0.06,0.95,0.18,1.91,0.09,2.85c-0.03,0.28-0.43,0.37-0.51,0.07c-0.23-0.81-0.28-1.65-0.36-2.48s-0.15-1.67-0.21-2.5
		c-0.21-3.01-0.35-6.02-0.45-9.04c-0.05-1.49-0.1-2.98-0.1-4.48c0-0.75,0-1.49,0.01-2.24c0.01-0.38,0.02-0.77,0.03-1.16
		c0-0.17-0.01-0.36,0.01-0.54C27.65,2.01,27.74,1.83,27.74,1.65z M30.31,2.29c0.01-0.3,0.46-0.3,0.46,0
		c0.04,3.64,0.13,7.28,0.27,10.91c0.14,3.64,0.37,7.27,0.52,10.9c0.02,0.55-0.78,0.52-0.84,0c-0.38-3.61-0.52-7.27-0.58-10.9
		C30.09,9.56,30.14,5.93,30.31,2.29z M33.59,2.42c0.02-0.19,0.31-0.21,0.31,0c-0.09,3.6-0.2,7.21-0.12,10.82s0.37,7.2,0.6,10.81
		c0.03,0.51-0.71,0.48-0.77,0c-0.47-3.57-0.59-7.21-0.59-10.81C33.01,9.62,33.14,6.01,33.59,2.42z M35.43,3.8
		c0.01-0.16,0.25-0.17,0.25,0c0.05,3.33,0.05,6.66,0.15,10c0.1,3.33,0.3,6.66,0.57,9.98c0,0.01,0,0.03,0,0.04
		c0,0.49-0.79,0.48-0.83-0.04C35.1,17.17,34.89,10.43,35.43,3.8z"/>
	<path d="M37.88,1.79c0-0.17,0.25-0.17,0.26,0c0.13,3.58,0.28,7.16,0.42,10.75c0.13,3.58,0.35,7.16,0.4,10.74
		c0,0.42-0.61,0.41-0.65,0c-0.32-3.56-0.39-7.16-0.47-10.74c-0.03-1.37-0.04-2.74-0.04-4.11C37.8,6.21,37.83,4,37.88,1.79z
		 M40.24,1.73c0-0.23,0.36-0.23,0.35,0c-0.02,3.53,0.04,7.06,0.15,10.58s0.34,7.04,0.46,10.56c0.01,0.43-0.62,0.41-0.66,0
		C39.85,15.86,39.96,8.75,40.24,1.73z M42.33,1.67c0-0.14,0.23-0.15,0.22,0c-0.01,0.96,0.08,1.91,0.09,2.87s0.04,1.91,0.06,2.87
		c0.03,1.88,0.09,3.76,0.15,5.64c0.12,3.79,0.36,7.57,0.62,11.35c0.02,0.24-0.15,0.36-0.33,0.36c-0.19,0.01-0.4-0.12-0.42-0.36
		c-0.37-3.77-0.56-7.56-0.66-11.35c-0.05-1.88-0.04-3.76-0.02-5.64c0.01-0.96,0.05-1.91,0.09-2.87C42.16,3.57,42.29,2.63,42.33,1.67
		z M44.15,1.61c0-0.09,0.08-0.14,0.15-0.14c0.06,0,0.13,0.03,0.14,0.1c0.24,1.75,0.19,3.52,0.14,5.28
		c-0.05,1.81-0.06,3.62,0.01,5.43c0.06,1.82,0.17,3.64,0.31,5.46c0.14,1.83,0.42,3.71,0.33,5.54c-0.01,0.22-0.33,0.28-0.38,0.05
		c-0.42-1.75-0.5-3.62-0.64-5.41c-0.14-1.81-0.26-3.64-0.3-5.46c-0.04-1.81,0-3.62,0.1-5.43C44.1,5.22,44.2,3.42,44.15,1.61z
		 M46,1.79c0-0.01,0.02-0.01,0.02,0c0.37,3.72,0.45,7.47,0.69,11.2c0.24,3.73,0.62,7.45,1.06,11.15c0.05,0.39-0.64,0.48-0.69,0.09
		c-0.53-3.7-0.89-7.43-1.12-11.16C45.74,9.33,45.6,5.53,46,1.79z M48.5,2.49c0-0.11,0.17-0.11,0.17,0
		c0.03,3.34,0.14,6.68,0.24,10.02c0.1,3.33,0.27,6.68,0.18,10.01c-0.01,0.29-0.42,0.28-0.44,0c-0.32-3.31-0.32-6.68-0.31-10.01
		C48.34,9.16,48.43,5.82,48.5,2.49z M50.42,1.85c0.01-0.25,0.39-0.25,0.39,0c0,6.85,0.25,13.7,0.29,20.55c0,0.51-0.75,0.5-0.78,0
		C49.94,15.56,50.13,8.69,50.42,1.85z M52.54,2.02c-0.01-0.18,0.27-0.18,0.28,0c0.07,1.7,0.25,3.4,0.36,5.1
		c0.1,1.67,0.22,3.34,0.33,5.01c0.23,3.37,0.53,6.73,0.75,10.09c0.03,0.39-0.55,0.37-0.6,0c-0.39-3.35-0.61-6.72-0.81-10.09
		c-0.1-1.7-0.18-3.4-0.24-5.1C52.55,5.36,52.59,3.69,52.54,2.02z M55.04,3.51c0.03-0.48,0.15-0.95,0.17-1.43
		c0.01-0.13,0.21-0.13,0.21,0c0,0.48,0.09,0.95,0.11,1.43c0.01,0.42,0.01,0.84,0.02,1.26c0.01,0.84,0.05,1.67,0.05,2.51
		c0.01,1.73,0.04,3.47,0.08,5.2c0.06,3.01,0.27,6.01,0.27,9.02c0,0.46,0,0.91-0.02,1.37c-0.01,0.21-0.34,0.27-0.37,0.05
		c-0.53-3.42-0.56-6.9-0.64-10.35c-0.04-1.76-0.05-3.53-0.02-5.29c0.01-0.84,0.05-1.67,0.09-2.51C55,4.35,55.01,3.93,55.04,3.51
		L55.04,3.51z"/>
	<path d="M58.32,2.41c0.02-0.19,0.34-0.14,0.33,0.04c-0.18,3.76-0.31,7.53-0.28,11.3c0.01,1.87,0.06,3.74,0.17,5.61
		c0.05,0.95,0.12,1.9,0.18,2.84c0.06,0.91,0.18,1.81,0.04,2.72c-0.04,0.24-0.36,0.18-0.43,0c-0.31-0.87-0.34-1.81-0.41-2.72
		c-0.08-0.95-0.13-1.89-0.18-2.84c-0.09-1.9-0.13-3.8-0.13-5.7C57.6,9.9,57.81,6.14,58.32,2.41z M60.07,1.55
		c0-0.06,0.05-0.09,0.1-0.09s0.09,0.03,0.09,0.09c-0.01,0.9,0.08,1.78,0.09,2.67c0.01,0.86,0,1.72,0.01,2.59
		c0.01,3.03,0.04,6.07,0.11,9.1c0.04,1.54,0.09,3.09,0.15,4.63c0.06,1.51,0.17,3.03,0.15,4.54c0,0.21-0.2,0.33-0.38,0.33
		c-0.14,0-0.26-0.07-0.29-0.24c-0.23-1.71-0.28-3.44-0.35-5.17c-0.12-3.06-0.16-6.12-0.14-9.18c0.01-1.54,0.04-3.09,0.09-4.64
		c0.03-0.77,0.07-1.54,0.12-2.32S60.03,2.33,60.07,1.55z M61.85,13.45c-0.1-3.74-0.04-7.47,0.13-11.22c0.01-0.24,0.37-0.24,0.37,0
		c-0.01,3.74,0.09,7.48,0.24,11.22s0.45,7.46,0.66,11.19c0.02,0.42-0.6,0.4-0.65,0C62.13,20.93,61.96,17.19,61.85,13.45L61.85,13.45
		z M63.89,2.12c0-0.23,0.36-0.23,0.36,0c0,0.95,0.1,1.89,0.12,2.84c0.02,0.92,0.05,1.84,0.08,2.76c0.06,1.84,0.14,3.67,0.24,5.51
		c0.1,1.86,0.23,3.73,0.38,5.59c0.15,1.82,0.44,3.66,0.45,5.49c0,0.36-0.56,0.45-0.64,0.09c-0.39-1.82-0.45-3.73-0.58-5.58
		c-0.14-1.83-0.25-3.66-0.33-5.5c-0.09-1.84-0.15-3.67-0.17-5.51c-0.01-0.95-0.01-1.9-0.01-2.84C63.79,4.02,63.88,3.07,63.89,2.12z
		 M66.43,1.71c0.01-0.04,0.07-0.03,0.07,0.01c0.09,1.73,0.06,3.46,0.08,5.2c0.04,2.99,0.15,6,0.38,8.98
		c0.23,3.02,0.63,6.01,0.94,9.02c0.04,0.36-0.56,0.44-0.63,0.09c-0.34-1.68-0.57-3.37-0.75-5.07c-0.33-3.06-0.54-6.15-0.55-9.23
		C65.94,7.72,65.95,4.67,66.43,1.71z M68.04,1.76c0.01-0.1,0.17-0.09,0.19,0c0.17,0.89,0.15,1.81,0.19,2.7
		c0.05,0.89,0.1,1.78,0.15,2.67c0.12,1.81,0.22,3.63,0.36,5.44c0.27,3.65,0.62,7.29,0.88,10.94c0.02,0.28-0.45,0.34-0.49,0.06
		c-0.5-3.62-0.78-7.27-0.99-10.92c-0.1-1.84-0.2-3.68-0.25-5.53c-0.03-0.89-0.05-1.78-0.06-2.67C68,3.56,67.93,2.65,68.04,1.76z
		 M69.97,1.56c0-0.03,0.04-0.03,0.04-0.01c0.11,0.89,0.25,1.78,0.31,2.68c0.06,0.89,0.1,1.79,0.15,2.68
		c0.1,1.79,0.23,3.57,0.37,5.35c0.29,3.56,0.6,7.12,0.89,10.68c0.02,0.36-0.58,0.44-0.63,0.09c-0.48-3.54-0.8-7.11-0.99-10.67
		c-0.09-1.81-0.17-3.62-0.23-5.44c-0.02-0.89-0.05-1.79-0.06-2.68C69.82,3.34,69.91,2.45,69.97,1.56z M72.55,3.23
		c0.01-0.13,0.21-0.13,0.21,0c0.02,6.92,0.48,13.83,0.86,20.74c0.02,0.42-0.61,0.41-0.65,0C72.27,17.09,72.3,10.14,72.55,3.23z
		 M74.28,2.74c0-0.3,0.45-0.29,0.45,0c0.04,6.92,0.4,13.82,0.84,20.72c0,0.01,0,0.03,0,0.04c-0.01,0.42-0.68,0.4-0.71-0.04
		C74.34,16.56,74.23,9.64,74.28,2.74z"/>
	<path d="M76.76,1.79c0-0.17,0.25-0.17,0.26,0c0.13,3.58,0.28,7.16,0.42,10.75c0.13,3.58,0.35,7.16,0.4,10.74
		c0,0.42-0.61,0.41-0.65,0c-0.32-3.56-0.39-7.16-0.47-10.74c-0.03-1.37-0.04-2.74-0.04-4.11C76.68,6.21,76.71,4,76.76,1.79z
		 M79.12,1.73c0.01-0.23,0.36-0.23,0.36,0c-0.02,3.53,0.04,7.06,0.15,10.58s0.34,7.04,0.46,10.56c0.01,0.43-0.62,0.41-0.66,0
		C78.73,15.86,78.84,8.75,79.12,1.73z M81.21,1.67c0-0.14,0.23-0.15,0.22,0c-0.01,0.96,0.08,1.91,0.09,2.87
		c0.01,0.96,0.04,1.91,0.06,2.87c0.03,1.88,0.09,3.76,0.15,5.64c0.12,3.79,0.36,7.57,0.62,11.35c0.02,0.24-0.15,0.36-0.33,0.36
		c-0.19,0.01-0.4-0.12-0.42-0.36c-0.37-3.77-0.56-7.56-0.66-11.35c-0.05-1.88-0.04-3.76-0.02-5.64c0.01-0.96,0.05-1.91,0.09-2.87
		C81.04,3.57,81.17,2.63,81.21,1.67z M83.03,1.61c0-0.09,0.08-0.14,0.15-0.14c0.06,0,0.13,0.03,0.14,0.1
		c0.24,1.75,0.19,3.52,0.14,5.28c-0.05,1.81-0.06,3.62,0.01,5.43c0.06,1.82,0.17,3.64,0.31,5.46c0.14,1.83,0.42,3.71,0.33,5.54
		c-0.01,0.22-0.33,0.28-0.38,0.05c-0.42-1.75-0.5-3.62-0.64-5.41c-0.14-1.81-0.26-3.64-0.3-5.46c-0.04-1.81,0-3.62,0.1-5.43
		C82.98,5.22,83.08,3.42,83.03,1.61z M84.88,1.79c0-0.01,0.02-0.01,0.02,0c0.37,3.72,0.45,7.47,0.69,11.2
		c0.24,3.73,0.62,7.45,1.06,11.15c0.05,0.39-0.64,0.48-0.69,0.09c-0.53-3.7-0.89-7.43-1.12-11.16C84.62,9.33,84.48,5.53,84.88,1.79z
		 M87.38,2.49c0-0.11,0.17-0.11,0.17,0c0.03,3.34,0.14,6.68,0.24,10.02c0.1,3.33,0.27,6.68,0.18,10.01c-0.01,0.29-0.42,0.28-0.44,0
		c-0.32-3.31-0.32-6.68-0.31-10.01C87.22,9.16,87.31,5.82,87.38,2.49z M89.3,1.85c0.01-0.25,0.39-0.25,0.39,0
		c0,6.85,0.25,13.7,0.29,20.55c0,0.51-0.75,0.5-0.78,0C88.82,15.56,89.01,8.69,89.3,1.85z M91.42,2.02c-0.01-0.18,0.27-0.18,0.28,0
		c0.07,1.7,0.25,3.4,0.36,5.1c0.1,1.67,0.22,3.34,0.33,5.01c0.23,3.37,0.53,6.73,0.75,10.09c0.03,0.39-0.55,0.37-0.6,0
		c-0.39-3.35-0.61-6.72-0.81-10.09c-0.1-1.7-0.18-3.4-0.24-5.1C91.43,5.36,91.47,3.69,91.42,2.02z M93.92,3.51
		c0.03-0.48,0.15-0.95,0.17-1.43c0.01-0.13,0.21-0.13,0.21,0c0,0.48,0.09,0.95,0.11,1.43c0.01,0.42,0.01,0.84,0.02,1.26
		c0.01,0.84,0.05,1.67,0.05,2.51c0.01,1.73,0.04,3.47,0.08,5.2c0.06,3.01,0.27,6.01,0.27,9.02c0,0.46,0,0.91-0.02,1.37
		c-0.01,0.21-0.34,0.27-0.37,0.05c-0.53-3.42-0.56-6.9-0.64-10.35c-0.04-1.76-0.05-3.53-0.02-5.29c0.01-0.84,0.05-1.67,0.09-2.51
		C93.88,4.35,93.89,3.93,93.92,3.51L93.92,3.51z"/>
	<path d="M97.04,2.85c0.01-0.13,0.19-0.13,0.2,0c0.26,3.65,0.19,7.35,0.19,11.01c0,1.82,0,3.64-0.02,5.46c0,0.9-0.01,1.79-0.02,2.69
		c0,0.95,0.06,1.92-0.03,2.87c-0.03,0.28-0.41,0.28-0.44,0c-0.1-0.95-0.03-1.92-0.03-2.87c0-0.9-0.01-1.79-0.02-2.69
		c-0.01-1.82-0.02-3.64-0.02-5.46c0-1.3-0.01-2.6-0.01-3.9C96.84,7.59,96.87,5.21,97.04,2.85z M98.79,2.69c0-0.07,0.11-0.07,0.11,0
		c0,0.96,0.09,1.91,0.11,2.87c0.02,0.93,0.03,1.85,0.05,2.78c0.03,1.85,0.04,3.71,0.05,5.56c0.03,3.74-0.01,7.47-0.04,11.21
		c0,0.3-0.45,0.3-0.46,0c-0.03-3.74-0.07-7.47-0.04-11.21c0.01-1.89,0.02-3.77,0.05-5.65c0.01-0.9,0.02-1.79,0.04-2.69
		C98.7,4.6,98.79,3.65,98.79,2.69z M100.67,24.9c-0.02,0.12-0.22,0.12-0.24,0c-0.16-0.89-0.17-1.81-0.19-2.71
		c-0.03-0.89-0.05-1.79-0.06-2.68c-0.02-1.79-0.04-3.57-0.04-5.36c0-3.62-0.1-7.27,0.04-10.89c0.02-0.48,0.73-0.48,0.75,0
		c0.13,3.62,0.03,7.26,0.03,10.89c0,1.79-0.02,3.57-0.04,5.36c-0.01,0.89-0.04,1.79-0.06,2.68C100.84,23.09,100.83,24,100.67,24.9z
		 M102.58,2.93c0-0.11,0.17-0.11,0.17,0c0.04,1.89,0.14,3.77,0.19,5.65c0.05,1.85,0.06,3.71,0.07,5.56
		c0.01,1.89,0.01,3.77,0.01,5.65c0,0.9-0.01,1.8-0.01,2.69c0,0.9,0.09,1.88-0.08,2.76c-0.02,0.13-0.15,0.2-0.26,0.2
		s-0.24-0.07-0.26-0.2c-0.17-0.89-0.07-1.86-0.08-2.76c0-0.93-0.01-1.85-0.01-2.78c-0.01-1.85,0-3.71,0.01-5.56
		c0.01-1.89,0.03-3.77,0.07-5.65C102.44,6.64,102.54,4.79,102.58,2.93z M104.66,24.72c-0.01,0.13-0.18,0.13-0.19,0
		c-0.21-1.81-0.18-3.63-0.19-5.45c-0.01-1.79-0.04-3.57-0.04-5.36c0-1.81,0-3.63,0-5.45c0-1.78-0.06-3.58,0.09-5.36
		c0.03-0.3,0.44-0.3,0.46,0c0.15,1.81,0.09,3.64,0.09,5.45c0,1.79,0,3.57,0,5.36c0,1.81-0.02,3.63-0.04,5.45
		C104.84,21.16,104.87,22.95,104.66,24.72z M106.44,24.89c0,0.01-0.02,0.01-0.02,0c-0.28-1.62-0.25-3.28-0.28-4.92
		c-0.09-6-0.05-11.99-0.01-17.99c0-0.38,0.59-0.38,0.59,0c0.01,1.7,0.02,3.4,0.03,5.1c0.02,3.01,0.03,6.03,0.02,9.04
		c-0.01,1.49-0.04,2.98-0.07,4.47C106.68,22.03,106.68,23.47,106.44,24.89z M108.34,2.71c0-0.16,0.24-0.16,0.24,0
		c0.01,0.95,0.13,1.91,0.16,2.87c0.03,0.9,0.04,1.79,0.05,2.69c0.01,1.82,0.01,3.64,0.02,5.46c0.01,3.67,0.04,7.34-0.01,11.01
		c-0.01,0.43-0.66,0.43-0.67,0c-0.05-3.67-0.03-7.34-0.01-11.01c0.01-1.82,0.01-3.64,0.02-5.46c0.01-0.9,0.02-1.79,0.05-2.69
		C108.21,4.62,108.32,3.67,108.34,2.71z M110.37,2.94c0.01-0.09,0.14-0.09,0.15,0c0.29,3.65,0.24,7.34,0.26,10.99
		c0.01,1.82,0.02,3.64,0.01,5.45c-0.01,1.84,0.08,3.71-0.13,5.54c-0.03,0.29-0.42,0.29-0.45,0c-0.21-1.83-0.12-3.7-0.13-5.54
		c-0.01-1.82,0-3.64,0.01-5.45C110.14,10.28,110.08,6.59,110.37,2.94z M112.39,24.66c-0.02,0.06-0.1,0.06-0.13,0
		c-0.27-0.75-0.22-1.65-0.24-2.43c-0.03-0.83-0.02-1.67-0.02-2.51c-0.01-3.02,0.01-6.03,0.02-9.05c0.01-2.98-0.08-5.98,0.05-8.96
		c0.01-0.17,0.14-0.26,0.27-0.25c0.12,0.01,0.23,0.09,0.24,0.25c0.08,1.7,0.05,3.4,0.04,5.1c-0.01,3.02,0.02,6.03,0.03,9.05
		c0.01,1.49,0,2.98,0,4.48c0,0.75-0.01,1.49-0.03,2.24C112.59,23.26,112.62,24.01,112.39,24.66z M114.34,2.77
		c0-0.12,0.19-0.12,0.19,0c0.01,0.96,0.12,1.92,0.15,2.88c0.03,0.9,0.05,1.8,0.07,2.7c0.04,1.8,0.06,3.6,0.08,5.39
		c0.01,0.78,0.01,1.56,0.01,2.34c0,2.87-0.05,5.75-0.08,8.62c-0.01,0.43-0.67,0.43-0.67,0c-0.04-3.65-0.1-7.31-0.06-10.96
		c0.02-1.8,0.04-3.6,0.08-5.39c0.02-0.9,0.03-1.8,0.07-2.7C114.22,4.69,114.33,3.73,114.34,2.77z"/>
	<path d="M116.69,2.14c0.01-0.06,0.11-0.06,0.12,0c0.13,0.83,0.06,1.66,0.05,2.5c-0.01,0.89-0.01,1.77-0.01,2.66
		c0.01,1.77,0.06,3.55,0.14,5.32c0.15,3.55,0.46,7.08,0.76,10.62c0.03,0.36-0.58,0.44-0.63,0.09c-0.52-3.51-0.74-7.07-0.81-10.61
		c-0.01-0.67-0.02-1.35-0.02-2.02c0-1.13,0.02-2.26,0.05-3.39c0.03-0.89,0.06-1.77,0.1-2.66C116.48,3.8,116.48,2.96,116.69,2.14z
		 M118.54,1.59c0-0.09,0.08-0.13,0.14-0.12s0.11,0.05,0.11,0.12c0,0.85,0.06,1.71,0.08,2.57c0.01,0.85,0.03,1.71,0.06,2.56
		c0.09,2.98,0.33,5.95,0.6,8.92s0.7,5.91,1.02,8.87c0.02,0.2-0.15,0.31-0.32,0.31c-0.14,0-0.28-0.07-0.31-0.23
		c-0.31-1.66-0.52-3.32-0.69-5c-0.32-2.99-0.53-5.99-0.63-8.99c-0.05-1.5-0.1-3-0.12-4.51c-0.01-0.74-0.01-1.47-0.01-2.21
		C118.45,3.12,118.52,2.35,118.54,1.59z M121.18,1.76c0-0.03,0.06-0.03,0.07,0c0.15,0.88,0.18,1.8,0.23,2.69s0.08,1.79,0.12,2.68
		c0.09,1.84,0.2,3.69,0.31,5.53s0.24,3.68,0.4,5.52c0.08,0.89,0.15,1.78,0.23,2.67c0.08,0.93,0.26,1.91,0.16,2.84
		c-0.03,0.26-0.37,0.32-0.46,0.06c-0.28-0.86-0.31-1.83-0.4-2.72c-0.09-0.92-0.17-1.84-0.25-2.76c-0.14-1.84-0.27-3.68-0.36-5.52
		c-0.1-1.87-0.15-3.74-0.18-5.62c-0.01-0.89-0.03-1.79-0.01-2.68C121.04,3.56,121.04,2.63,121.18,1.76z M123.38,2
		c0-0.01,0.01-0.01,0.01,0c0.04,3.6,0.21,7.22,0.48,10.81c0.27,3.6,0.62,7.18,1.09,10.76c0.06,0.43-0.69,0.52-0.75,0.1
		c-0.55-3.56-0.92-7.17-1.05-10.78c-0.06-1.8-0.09-3.6-0.07-5.41C123.12,5.66,123.25,3.83,123.38,2z M125.3,1.65
		c0-0.09,0.14-0.09,0.14,0.01c0.01,0.24,0.12,0.47,0.13,0.72c0.02,0.24,0.03,0.48,0.04,0.72c0.03,0.48,0.05,0.95,0.08,1.43
		c0.05,0.95,0.09,1.91,0.13,2.87c0.08,1.91,0.17,3.82,0.28,5.73s0.24,3.82,0.37,5.72c0.07,0.95,0.14,1.9,0.2,2.86
		c0.06,0.95,0.18,1.91,0.09,2.85c-0.03,0.28-0.43,0.37-0.51,0.07c-0.23-0.81-0.28-1.65-0.36-2.48s-0.15-1.67-0.21-2.5
		c-0.21-3.01-0.35-6.02-0.45-9.04c-0.05-1.49-0.1-2.98-0.1-4.48c0-0.75,0-1.49,0.01-2.24c0.01-0.39,0.02-0.78,0.03-1.17
		c0-0.17-0.01-0.36,0.01-0.54C125.21,2.01,125.3,1.83,125.3,1.65z M127.87,2.29c0.01-0.3,0.46-0.3,0.46,0
		c0.04,3.64,0.13,7.28,0.27,10.91c0.14,3.64,0.37,7.27,0.52,10.9c0.02,0.55-0.78,0.52-0.84,0c-0.38-3.61-0.52-7.27-0.58-10.9
		C127.65,9.56,127.7,5.93,127.87,2.29z M131.15,2.42c0.02-0.19,0.31-0.21,0.31,0c-0.09,3.6-0.2,7.21-0.12,10.82s0.37,7.2,0.6,10.81
		c0.03,0.51-0.71,0.48-0.77,0c-0.47-3.57-0.59-7.21-0.59-10.81C130.57,9.62,130.69,6.01,131.15,2.42z M132.99,3.8
		c0.01-0.16,0.25-0.17,0.25,0c0.05,3.33,0.05,6.66,0.15,10c0.1,3.33,0.3,6.66,0.57,9.98c0,0.01,0,0.03,0,0.04
		c0,0.49-0.79,0.48-0.83-0.04C132.66,17.17,132.45,10.43,132.99,3.8z"/>
	<path d="M135.67,2.15c0-0.29,0.45-0.29,0.45,0c-0.04,3.56,0.07,7.13,0.11,10.7c0.03,3.57,0.03,7.13,0.01,10.7
		c0,0.5-0.77,0.5-0.78,0c-0.06-2.35-0.09-4.71-0.09-7.06c0-1.21,0.01-2.43,0.03-3.64C135.43,9.28,135.6,5.72,135.67,2.15z
		 M138.04,2.03c0.01-0.15,0.23-0.15,0.23,0c0.03,0.89,0.13,1.78,0.13,2.68c0.01,0.89,0.02,1.79,0.04,2.68
		c0.04,1.76,0.08,3.51,0.14,5.27s0.16,3.51,0.26,5.26c0.1,1.77,0.32,3.56,0.25,5.34c-0.01,0.34-0.55,0.44-0.62,0.08
		c-0.36-1.72-0.41-3.5-0.51-5.25c-0.1-1.78-0.16-3.57-0.2-5.35c-0.04-1.79-0.05-3.57-0.02-5.36c0.02-0.89,0.04-1.79,0.07-2.68
		C137.84,3.81,137.96,2.93,138.04,2.03z M140.34,1.97c0-0.04,0.06-0.04,0.05,0c0.01,0.24,0.12,0.47,0.13,0.71
		c0.01,0.24,0.02,0.48,0.02,0.71c0.01,0.48,0.02,0.95,0.04,1.43c0.03,0.92,0.07,1.85,0.1,2.77c0.05,1.85,0.14,3.69,0.24,5.53
		c0.21,3.71,0.62,7.41,0.87,11.12c0.02,0.22-0.18,0.35-0.37,0.36c-0.16,0-0.32-0.08-0.35-0.26c-0.6-3.7-0.82-7.48-0.97-11.22
		c-0.08-1.87-0.1-3.75-0.1-5.62c0-0.95,0.04-1.91,0.08-2.86c0.02-0.48,0.04-0.95,0.06-1.43c0.01-0.23,0-0.48,0.05-0.71
		C140.23,2.33,140.32,2.16,140.34,1.97z M143.12,1.69c0.04-0.08,0.15-0.04,0.18,0.03c0.15,0.39,0.14,0.85,0.16,1.27
		c0.02,0.48,0.05,0.95,0.05,1.42c0.01,0.89,0.02,1.77,0.04,2.66c0.04,1.84,0.08,3.67,0.15,5.5c0.14,3.66,0.39,7.33,0.68,10.98
		c0.05,0.55-0.79,0.53-0.85,0c-0.41-3.68-0.65-7.37-0.76-11.07c-0.05-1.86-0.08-3.73-0.04-5.59c0.01-0.89,0.04-1.77,0.07-2.66
		c0.02-0.48,0.06-0.95,0.11-1.42C142.94,2.43,142.96,2.03,143.12,1.69z M145.39,1.62c0-0.1,0.14-0.1,0.15,0
		c0.05,3.68,0.28,7.36,0.44,11.03c0.08,1.84,0.2,3.68,0.31,5.51c0.11,1.84,0.27,3.67,0.24,5.5c0,0.26-0.42,0.33-0.47,0.06
		c-0.35-1.81-0.45-3.65-0.57-5.48c-0.12-1.84-0.18-3.68-0.24-5.51C145.14,9.03,145.26,5.33,145.39,1.62z M147.37,1.56
		c0-0.07,0.06-0.1,0.12-0.1c0.04,0.01,0.08,0.04,0.08,0.1c0.01,0.95,0.1,1.91,0.13,2.87c0.02,0.9,0.04,1.79,0.07,2.69
		c0.05,1.85,0.12,3.7,0.18,5.56c0.12,3.7,0.42,7.4,0.43,11.11c0,0.41-0.58,0.39-0.62,0c-0.42-3.68-0.44-7.41-0.52-11.11
		c-0.04-1.85-0.04-3.7-0.03-5.56c0.01-0.9,0.01-1.79,0.03-2.69C147.26,3.48,147.35,2.52,147.37,1.56z M149.26,2.27
		c0-0.25,0.38-0.25,0.39,0c0.11,3.56,0.24,7.11,0.48,10.66c0.23,3.55,0.58,7.08,0.86,10.63c0.04,0.5-0.7,0.47-0.76,0
		c-0.47-3.52-0.69-7.08-0.83-10.63C149.23,9.38,149.17,5.82,149.26,2.27z M152.02,2.03c0.01-0.15,0.23-0.15,0.24,0
		c0.21,3.66,0.19,7.33,0.37,10.99s0.42,7.31,0.77,10.96c0,0.01,0,0.03,0,0.04c0,0.46-0.74,0.44-0.78-0.04
		c-0.35-3.64-0.59-7.3-0.71-10.96S151.7,5.68,152.02,2.03z"/>
	<path d="M159.56,2.1c0.04-0.1,0.2-0.12,0.23,0c0.19,0.81,0.07,1.71,0.05,2.54c-0.02,0.9-0.05,1.79-0.06,2.69
		c-0.04,1.79-0.06,3.58-0.06,5.37c-0.01,3.58,0.08,7.17,0.07,10.75c0,0.48-0.71,0.47-0.73,0c-0.11-1.98-0.15-3.96-0.15-5.95
		c0-1.6,0.03-3.2,0.06-4.8c0.04-1.79,0.1-3.58,0.17-5.37c0.04-0.9,0.08-1.79,0.13-2.69C159.33,3.81,159.28,2.89,159.56,2.1z
		 M162,1.71c0.01-0.08,0.12-0.05,0.13,0.02c0.11,0.94,0.09,1.9,0.11,2.84c0.02,0.89,0.02,1.77,0.04,2.66
		c0.03,1.81,0.08,3.61,0.13,5.42c0.11,3.64,0.33,7.27,0.54,10.91c0.03,0.47-0.67,0.45-0.72,0c-0.42-3.65-0.6-7.33-0.66-11
		c-0.03-1.84-0.01-3.67,0.04-5.51C161.67,5.29,161.65,3.44,162,1.71z M163.76,2.37c0.01-0.23,0.37-0.23,0.36,0
		c-0.1,3.64-0.06,7.29,0.09,10.93s0.48,7.27,0.66,10.9c0.01,0.29-0.47,0.36-0.52,0.07c-0.58-3.58-0.78-7.25-0.85-10.88
		C163.44,9.71,163.53,6.04,163.76,2.37z M165.79,1.61c0-0.09,0.06-0.14,0.13-0.14c0.08-0.01,0.16,0.04,0.17,0.14
		c-0.02,1.84,0.08,3.69,0.1,5.54c0.02,1.82,0.06,3.63,0.1,5.45c0.06,3.66,0.23,7.31,0.17,10.98c0,0.28-0.4,0.27-0.43,0
		c-0.41-3.65-0.48-7.31-0.51-10.98c-0.02-1.81,0.01-3.63,0.04-5.45C165.59,5.29,165.74,3.46,165.79,1.61z M167.51,2.31
		c0-0.28,0.42-0.28,0.44,0c0.37,7.1,0.85,14.21,1.1,21.31c0.01,0.44-0.64,0.43-0.68,0C167.81,16.54,167.63,9.41,167.51,2.31z
		 M169.71,2.02c0-0.18,0.26-0.17,0.27,0c0.29,3.63,0.5,7.27,0.79,10.91c0.14,1.8,0.28,3.6,0.45,5.4c0.17,1.82,0.4,3.65,0.45,5.48
		c0.01,0.25-0.39,0.3-0.44,0.06c-0.37-1.76-0.53-3.57-0.7-5.36c-0.18-1.83-0.34-3.65-0.47-5.49C169.81,9.34,169.65,5.69,169.71,2.02
		z M171.44,1.9c0.01-0.23,0.37-0.24,0.37,0c-0.04,0.92,0.06,1.86,0.13,2.78c0.06,0.87,0.15,1.74,0.24,2.61
		c0.17,1.83,0.34,3.67,0.51,5.5s0.32,3.67,0.48,5.5c0.15,1.83,0.33,3.67,0.31,5.5c0,0.27-0.43,0.34-0.48,0.06
		c-0.33-1.81-0.46-3.65-0.62-5.48c-0.15-1.83-0.31-3.67-0.45-5.5c-0.14-1.86-0.28-3.73-0.42-5.59c-0.07-0.87-0.12-1.73-0.15-2.61
		C171.32,3.74,171.39,2.83,171.44,1.9z M173.52,2.43c-0.01-0.18,0.25-0.17,0.27,0c0.92,7.51,1.54,15.08,1.7,22.65
		c0,0.16-0.11,0.23-0.23,0.23s-0.24-0.08-0.25-0.23C174.42,17.54,173.97,9.98,173.52,2.43z M175.69,2.2c0-0.26,0.37-0.25,0.4,0
		c0.34,3.64,0.54,7.3,0.79,10.95c0.12,1.81,0.24,3.62,0.36,5.43c0.12,1.84,0.27,3.67,0.28,5.51c0,0.33-0.54,0.42-0.59,0.08
		c-0.49-3.61-0.61-7.3-0.81-10.94C175.92,9.56,175.72,5.88,175.69,2.2z"/>
	<path d="M178.98,1.84c0.01-0.09,0.16-0.09,0.18,0c0.26,1.83,0.2,3.73,0.23,5.56c0.03,1.85,0.03,3.7,0.04,5.55s-0.01,3.7-0.02,5.55
		c-0.01,1.91,0.02,3.82-0.17,5.73c-0.02,0.21-0.31,0.21-0.33,0c-0.19-1.9-0.16-3.81-0.17-5.72c-0.01-1.5-0.02-3-0.02-4.5
		c0-0.35,0-0.7,0-1.04c0.01-1.85,0.02-3.7,0.04-5.55C178.78,5.57,178.72,3.67,178.98,1.84z M181.53,1.59c0.03-0.04,0.1-0.05,0.13,0
		c0.17,0.35,0.14,0.72,0.12,1.1c-0.02,0.47-0.05,0.95-0.07,1.42c-0.05,0.95-0.12,1.9-0.16,2.84c-0.09,1.87-0.14,3.74-0.14,5.6
		c-0.01,1.87,0.03,3.74,0.11,5.6c0.08,1.89,0.28,3.79,0.33,5.68c0.01,0.32-0.52,0.41-0.57,0.08c-0.28-1.84-0.35-3.73-0.44-5.58
		c-0.08-1.9-0.12-3.8-0.12-5.69s0.05-3.8,0.15-5.69c0.05-0.95,0.1-1.9,0.19-2.84c0.04-0.47,0.1-0.95,0.15-1.42
		C181.26,2.3,181.29,1.91,181.53,1.59z M183.7,1.94c0.02-0.19,0.32-0.19,0.3,0c-0.08,0.93-0.06,1.89-0.12,2.82
		c-0.06,0.94-0.1,1.88-0.14,2.83c-0.06,1.83-0.12,3.66-0.12,5.49s0.03,3.66,0.1,5.49c0.08,1.88,0.27,3.78,0.22,5.65
		c-0.01,0.25-0.4,0.32-0.45,0.06c-0.36-1.8-0.43-3.71-0.5-5.54c-0.08-1.86-0.12-3.72-0.09-5.58c0.02-1.86,0.08-3.72,0.2-5.58
		c0.06-0.94,0.14-1.88,0.22-2.83C183.41,3.81,183.59,2.89,183.7,1.94z M186.16,2.16c0.01-0.08,0.12-0.05,0.13,0.01
		c0.1,1.86-0.02,3.75-0.05,5.61c-0.03,1.84-0.06,3.68-0.09,5.52c-0.05,3.71,0.04,7.43,0.01,11.14c0,0.36-0.54,0.35-0.55,0
		c-0.21-3.74-0.16-7.49-0.09-11.23c0.04-1.84,0.09-3.69,0.2-5.53C185.81,5.86,185.86,3.98,186.16,2.16z M188,2.36
		c0.04-0.2,0.31-0.13,0.33,0.05c0.09,0.94,0.03,1.9,0,2.85c-0.02,0.89-0.03,1.78-0.05,2.67c-0.04,1.79-0.06,3.57-0.08,5.35
		c-0.01,1.79-0.01,3.57,0.01,5.35c0.01,0.89,0.03,1.78,0.05,2.67c0.02,0.91,0.06,1.83-0.08,2.73c-0.03,0.19-0.34,0.18-0.38,0
		c-0.21-0.89-0.22-1.82-0.24-2.73c-0.02-0.89-0.04-1.78-0.05-2.67c-0.03-1.81-0.04-3.63-0.02-5.44c0.01-1.81,0.04-3.63,0.12-5.44
		c0.04-0.89,0.08-1.78,0.13-2.67C187.8,4.18,187.83,3.26,188,2.36z M189.95,1.64c0.02-0.12,0.1-0.17,0.19-0.18
		c0.13-0.01,0.27,0.09,0.28,0.24c0.1,0.94,0.01,1.91,0,2.85c-0.01,0.95-0.03,1.9-0.04,2.85c-0.01,1.9-0.01,3.8,0.01,5.71
		c0.03,1.9,0.04,3.81,0.08,5.71s0.13,3.8,0.08,5.71c0,0.19-0.14,0.28-0.27,0.27c-0.14,0-0.28-0.1-0.3-0.27
		c-0.2-1.68-0.26-3.38-0.31-5.08c-0.09-3-0.12-6-0.08-9.01c0.02-1.49,0.05-2.97,0.1-4.46C189.74,4.56,189.69,3.05,189.95,1.64z
		 M192.15,1.62c0.01-0.05,0.09-0.05,0.1,0c0.29,1.85,0.27,3.7,0.3,5.57c0.03,1.88,0.02,3.77,0.02,5.65c0,3.8-0.05,7.59-0.16,11.39
		c-0.01,0.27-0.41,0.27-0.41,0c-0.11-3.79-0.16-7.59-0.16-11.39c0-1.88-0.01-3.77,0.02-5.65C191.88,5.32,191.86,3.46,192.15,1.62z
		 M194.13,2.11c0.04-0.08,0.18-0.08,0.21,0c0.35,0.73,0.25,1.77,0.28,2.56c0.03,0.92,0.03,1.85,0.04,2.77
		c0.01,1.85,0.01,3.69,0.01,5.54c-0.01,1.88-0.02,3.75-0.05,5.63c-0.02,1.85-0.01,3.69-0.14,5.54c-0.02,0.31-0.46,0.31-0.49,0
		c-0.13-1.87-0.12-3.75-0.14-5.63c-0.02-1.85-0.04-3.69-0.04-5.54c0-1.88-0.01-3.75,0.01-5.63c0.01-0.89,0.01-1.79,0.04-2.68
		C193.88,3.88,193.78,2.85,194.13,2.11z M196.46,2.11c0.02-0.12,0.22-0.12,0.23,0c0.26,1.83,0.17,3.74,0.18,5.59
		c0.01,1.31,0.02,2.62,0.02,3.93c0,0.54,0,1.08,0,1.62c-0.01,1.85-0.02,3.7-0.04,5.55c-0.02,1.85,0.05,3.74-0.2,5.57
		c-0.01,0.06-0.12,0.06-0.12,0c-0.25-1.83-0.18-3.72-0.2-5.57s-0.03-3.7-0.04-5.55c-0.01-1.85,0-3.7,0.01-5.55
		S196.2,3.94,196.46,2.11z"/>
	<path d="M203.18,2.76c0.03-0.19,0.36-0.19,0.38,0c0.26,1.77,0.21,3.6,0.26,5.39c0.05,1.78,0.13,3.56,0.2,5.33
		c0.08,1.78,0.17,3.56,0.28,5.33c0.12,1.82,0.34,3.68,0.28,5.5c-0.01,0.43-0.68,0.55-0.77,0.1c-0.35-1.77-0.4-3.63-0.5-5.43
		s-0.18-3.61-0.24-5.42c-0.06-1.81-0.08-3.62-0.09-5.42c0-0.62-0.01-1.24-0.01-1.87C202.97,5.1,203,3.92,203.18,2.76z M206.15,1.58
		c0-0.09,0.08-0.13,0.14-0.12c0.05,0.01,0.1,0.05,0.1,0.12c-0.03,0.94,0.05,1.9,0.06,2.84c0.01,0.95,0.01,1.89,0.03,2.84
		c0.03,1.86,0.08,3.73,0.16,5.59c0.15,3.75,0.45,7.5,0.76,11.25c0.03,0.38-0.62,0.47-0.67,0.09c-0.52-3.73-0.77-7.49-0.88-11.24
		c-0.05-1.9-0.06-3.79-0.02-5.68c0.01-0.95,0.04-1.89,0.09-2.84C205.96,3.47,206.11,2.53,206.15,1.58z M208.5,2.48
		c0.01-0.18,0.27-0.18,0.27-0.01c-0.02,3.5,0.09,7,0.27,10.49c0.18,3.5,0.58,6.97,0.84,10.45c0.03,0.35-0.54,0.42-0.6,0.08
		c-0.59-3.44-0.79-6.96-0.93-10.44C208.22,9.53,208.29,6,208.5,2.48z M211.14,2.32c0.04-0.15,0.25-0.14,0.3,0
		c0.26,0.82,0.22,1.79,0.28,2.64c0.06,0.9,0.1,1.79,0.14,2.69c0.08,1.79,0.16,3.58,0.22,5.38c0.07,1.82,0.13,3.65,0.2,5.47
		c0.06,1.79,0.21,3.6,0.07,5.38c-0.02,0.28-0.49,0.39-0.53,0.07c-0.27-1.8-0.27-3.64-0.34-5.45c-0.07-1.79-0.13-3.58-0.2-5.38
		c-0.07-1.79-0.12-3.58-0.18-5.38c-0.03-0.9-0.05-1.79-0.06-2.69C211.04,4.18,210.94,3.18,211.14,2.32z M213.96,2.35
		c0.02-0.07,0.13-0.08,0.15,0c0.2,0.86,0.1,1.84,0.12,2.71c0.01,0.96,0.02,1.91,0.02,2.87c0,1.85,0.01,3.7,0.03,5.56
		c0.04,3.76,0.12,7.53,0.12,11.29c0,0.44-0.66,0.43-0.68,0c-0.18-3.76-0.19-7.53-0.16-11.29c0.02-1.85,0.04-3.7,0.08-5.56
		c0.02-0.96,0.05-1.91,0.1-2.87C213.79,4.19,213.72,3.2,213.96,2.35z M216.11,2.26c0.01-0.12,0.17-0.12,0.18,0
		c0.09,1.86,0.21,3.71,0.25,5.57s0.04,3.71,0.07,5.57c0.04,3.71,0.03,7.44-0.13,11.15c-0.01,0.36-0.54,0.36-0.55,0
		c-0.16-3.71-0.17-7.43-0.13-11.15c0.02-1.86,0.03-3.71,0.06-5.57C215.9,5.97,216.03,4.12,216.11,2.26z M217.69,5.15
		c0.03-0.91,0.03-1.84,0.2-2.74c0.06-0.3,0.47-0.19,0.5,0.07c0.09,0.94,0.01,1.9,0,2.85c-0.02,0.95-0.03,1.9-0.03,2.85
		c0,1.84,0.03,3.68,0.08,5.52c0.06,1.84,0.14,3.68,0.27,5.51c0.06,0.95,0.14,1.89,0.22,2.84c0.04,0.47,0.08,0.95,0.12,1.42
		c0.04,0.46,0.14,0.95,0.08,1.42c-0.02,0.16-0.15,0.26-0.27,0.27c-0.11,0-0.22-0.06-0.27-0.2c-0.14-0.42-0.15-0.88-0.2-1.31
		c-0.05-0.47-0.1-0.95-0.15-1.42c-0.1-0.94-0.17-1.89-0.24-2.84c-0.13-1.89-0.23-3.79-0.3-5.69c-0.06-1.9-0.08-3.8-0.06-5.7
		C217.64,7.05,217.66,6.1,217.69,5.15L217.69,5.15z M220.86,1.69c0-0.01,0.03-0.01,0.03,0.01c0.17,0.78,0.16,1.62,0.18,2.42
		c0.02,0.86,0.02,1.73,0.03,2.6c0.03,3.01,0.09,6.03,0.17,9.04c0.04,1.49,0.1,2.98,0.17,4.47c0.06,1.16,0.2,2.35,0.2,3.52
		c0,0.35-0.01,0.69-0.04,1.03c-0.03,0.31-0.49,0.42-0.57,0.08c-0.2-0.84-0.23-1.72-0.3-2.58c-0.06-0.83-0.1-1.67-0.15-2.51
		c-0.16-3.04-0.23-6.08-0.23-9.13c0-1.52,0.04-3.05,0.09-4.57C220.49,4.64,220.46,3.08,220.86,1.69z"/>
	<path d="M223.41,1.84c0.01-0.09,0.16-0.09,0.18,0c0.26,1.83,0.2,3.73,0.23,5.56c0.03,1.85,0.03,3.7,0.04,5.55s-0.01,3.7-0.02,5.55
		c-0.01,1.91,0.02,3.82-0.17,5.73c-0.02,0.21-0.31,0.21-0.33,0c-0.19-1.9-0.16-3.81-0.17-5.72c-0.01-1.5-0.02-3-0.02-4.5
		c0-0.35,0-0.7,0-1.04c0.01-1.85,0.02-3.7,0.04-5.55C223.2,5.57,223.15,3.67,223.41,1.84z M225.96,1.59c0.03-0.04,0.1-0.05,0.13,0
		c0.17,0.35,0.14,0.72,0.12,1.1c-0.02,0.47-0.05,0.95-0.07,1.42c-0.05,0.95-0.12,1.9-0.16,2.84c-0.09,1.87-0.14,3.74-0.14,5.6
		c-0.01,1.87,0.03,3.74,0.11,5.6c0.08,1.89,0.28,3.79,0.33,5.68c0.01,0.32-0.52,0.41-0.57,0.08c-0.28-1.84-0.35-3.73-0.44-5.58
		c-0.08-1.9-0.12-3.8-0.12-5.69s0.05-3.8,0.15-5.69c0.05-0.95,0.1-1.9,0.19-2.84c0.04-0.47,0.1-0.95,0.15-1.42
		C225.69,2.3,225.72,1.91,225.96,1.59z M228.13,1.94c0.02-0.19,0.32-0.19,0.3,0c-0.08,0.93-0.06,1.89-0.12,2.82
		c-0.06,0.94-0.1,1.88-0.14,2.83c-0.06,1.83-0.12,3.66-0.12,5.49s0.03,3.66,0.1,5.49c0.08,1.88,0.27,3.78,0.22,5.65
		c-0.01,0.25-0.4,0.32-0.45,0.06c-0.36-1.8-0.43-3.71-0.5-5.54c-0.08-1.86-0.12-3.72-0.09-5.58c0.02-1.86,0.08-3.72,0.2-5.58
		c0.06-0.94,0.14-1.88,0.22-2.83C227.84,3.81,228.02,2.89,228.13,1.94z M230.59,2.16c0.01-0.08,0.12-0.05,0.13,0.01
		c0.1,1.86-0.02,3.75-0.05,5.61c-0.03,1.84-0.06,3.68-0.09,5.52c-0.05,3.71,0.04,7.43,0.01,11.14c0,0.36-0.54,0.35-0.55,0
		c-0.21-3.74-0.16-7.49-0.09-11.23c0.04-1.84,0.09-3.69,0.2-5.53C230.24,5.86,230.29,3.98,230.59,2.16z M232.43,2.36
		c0.04-0.2,0.31-0.13,0.33,0.05c0.09,0.94,0.03,1.9,0,2.85c-0.02,0.89-0.03,1.78-0.05,2.67c-0.04,1.79-0.06,3.57-0.08,5.35
		c-0.01,1.79-0.01,3.57,0.01,5.35c0.01,0.89,0.03,1.78,0.05,2.67c0.02,0.91,0.06,1.83-0.08,2.73c-0.03,0.19-0.34,0.18-0.38,0
		c-0.21-0.89-0.22-1.82-0.24-2.73c-0.02-0.89-0.04-1.78-0.05-2.67c-0.03-1.81-0.04-3.63-0.02-5.44c0.01-1.81,0.04-3.63,0.12-5.44
		c0.04-0.89,0.08-1.78,0.13-2.67C232.23,4.18,232.25,3.26,232.43,2.36z M234.37,1.64c0.02-0.12,0.1-0.17,0.19-0.18
		c0.13-0.01,0.27,0.09,0.28,0.24c0.1,0.94,0.01,1.91,0,2.85c-0.01,0.95-0.03,1.9-0.04,2.85c-0.01,1.9-0.01,3.8,0.01,5.71
		c0.03,1.9,0.04,3.81,0.08,5.71s0.13,3.8,0.08,5.71c0,0.19-0.14,0.28-0.27,0.27c-0.14,0-0.28-0.1-0.3-0.27
		c-0.2-1.68-0.26-3.38-0.31-5.08c-0.09-3-0.12-6-0.08-9.01c0.02-1.49,0.05-2.97,0.1-4.46C234.17,4.56,234.12,3.05,234.37,1.64z
		 M236.58,1.62c0.01-0.05,0.09-0.05,0.1,0c0.29,1.85,0.27,3.7,0.3,5.57c0.03,1.88,0.02,3.77,0.02,5.65c0,3.8-0.05,7.59-0.16,11.39
		c-0.01,0.27-0.41,0.27-0.41,0c-0.11-3.79-0.16-7.59-0.16-11.39c0-1.88-0.01-3.77,0.02-5.65C236.31,5.32,236.29,3.46,236.58,1.62z
		 M238.55,2.11c0.04-0.08,0.18-0.08,0.21,0c0.35,0.73,0.25,1.77,0.28,2.56c0.03,0.92,0.03,1.85,0.04,2.77
		c0.01,1.85,0.01,3.69,0.01,5.54c-0.01,1.88-0.02,3.75-0.05,5.63c-0.02,1.85-0.01,3.69-0.14,5.54c-0.02,0.31-0.46,0.31-0.49,0
		c-0.13-1.87-0.12-3.75-0.14-5.63c-0.02-1.85-0.04-3.69-0.04-5.54c0-1.88-0.01-3.75,0.01-5.63c0.01-0.89,0.01-1.79,0.04-2.68
		C238.3,3.88,238.2,2.85,238.55,2.11z M240.89,2.11c0.02-0.12,0.22-0.12,0.23,0c0.26,1.83,0.17,3.74,0.18,5.59
		c0.01,1.31,0.02,2.62,0.02,3.93c0,0.54,0,1.08,0,1.62c-0.01,1.85-0.02,3.7-0.04,5.55c-0.02,1.85,0.05,3.74-0.2,5.57
		c-0.01,0.06-0.12,0.06-0.12,0c-0.25-1.83-0.18-3.72-0.2-5.57s-0.03-3.7-0.04-5.55c-0.01-1.85,0-3.7,0.01-5.55
		S240.63,3.94,240.89,2.11z"/>
	<path d="M242.85,1.84c0.01-0.09,0.16-0.09,0.18,0c0.26,1.83,0.2,3.73,0.23,5.56c0.03,1.85,0.03,3.7,0.04,5.55s-0.01,3.7-0.02,5.55
		c-0.01,1.91,0.02,3.82-0.17,5.73c-0.02,0.21-0.31,0.21-0.33,0c-0.19-1.9-0.16-3.81-0.17-5.72c-0.01-1.5-0.02-3-0.02-4.5
		c0-0.35,0-0.7,0-1.04c0.01-1.85,0.02-3.7,0.04-5.55C242.64,5.57,242.59,3.67,242.85,1.84z M245.4,1.59c0.03-0.04,0.1-0.05,0.13,0
		c0.17,0.35,0.14,0.72,0.12,1.1c-0.02,0.47-0.05,0.95-0.07,1.42c-0.05,0.95-0.12,1.9-0.16,2.84c-0.09,1.87-0.14,3.74-0.14,5.6
		c-0.01,1.87,0.03,3.74,0.11,5.6c0.08,1.89,0.28,3.79,0.33,5.68c0.01,0.32-0.52,0.41-0.57,0.08c-0.28-1.84-0.35-3.73-0.44-5.58
		c-0.08-1.9-0.12-3.8-0.12-5.69s0.05-3.8,0.15-5.69c0.05-0.95,0.1-1.9,0.19-2.84c0.04-0.47,0.1-0.95,0.15-1.42
		C245.13,2.3,245.16,1.91,245.4,1.59z M247.57,1.94c0.02-0.19,0.32-0.19,0.3,0c-0.08,0.93-0.06,1.89-0.12,2.82
		c-0.06,0.94-0.1,1.88-0.14,2.83c-0.06,1.83-0.12,3.66-0.12,5.49s0.03,3.66,0.1,5.49c0.08,1.88,0.27,3.78,0.22,5.65
		c-0.01,0.25-0.4,0.32-0.45,0.06c-0.36-1.8-0.43-3.71-0.5-5.54c-0.08-1.86-0.12-3.72-0.09-5.58c0.02-1.86,0.08-3.72,0.2-5.58
		c0.06-0.94,0.14-1.88,0.22-2.83C247.28,3.81,247.46,2.89,247.57,1.94z M250.03,2.16c0.01-0.08,0.12-0.05,0.13,0.01
		c0.1,1.86-0.03,3.75-0.05,5.61c-0.03,1.84-0.06,3.68-0.09,5.52c-0.05,3.71,0.04,7.43,0.01,11.14c0,0.36-0.54,0.35-0.55,0
		c-0.21-3.74-0.16-7.49-0.09-11.23c0.04-1.84,0.09-3.69,0.2-5.53C249.68,5.86,249.73,3.98,250.03,2.16z M251.87,2.36
		c0.04-0.2,0.31-0.13,0.33,0.05c0.09,0.94,0.03,1.9,0,2.85c-0.02,0.89-0.03,1.78-0.05,2.67c-0.04,1.79-0.06,3.57-0.08,5.35
		c-0.01,1.79-0.01,3.57,0.01,5.35c0.01,0.89,0.03,1.78,0.05,2.67c0.03,0.91,0.06,1.83-0.08,2.73c-0.03,0.19-0.34,0.18-0.38,0
		c-0.21-0.89-0.22-1.82-0.24-2.73c-0.02-0.89-0.04-1.78-0.05-2.67c-0.03-1.81-0.04-3.63-0.02-5.44c0.01-1.81,0.04-3.63,0.12-5.44
		c0.04-0.89,0.08-1.78,0.13-2.67C251.67,4.18,251.69,3.26,251.87,2.36z M253.81,1.64c0.02-0.12,0.1-0.17,0.19-0.18
		c0.13-0.01,0.27,0.09,0.29,0.24c0.1,0.94,0.01,1.91,0,2.85c-0.01,0.95-0.03,1.9-0.04,2.85c-0.01,1.9-0.01,3.8,0.01,5.71
		c0.03,1.9,0.04,3.81,0.08,5.71c0.04,1.9,0.13,3.8,0.08,5.71c0,0.19-0.13,0.28-0.27,0.27c-0.14,0-0.28-0.1-0.3-0.27
		c-0.2-1.68-0.26-3.38-0.31-5.08c-0.09-3-0.12-6-0.08-9.01c0.02-1.49,0.05-2.97,0.1-4.46C253.61,4.56,253.56,3.05,253.81,1.64z
		 M256.02,1.62c0.01-0.05,0.09-0.05,0.1,0c0.29,1.85,0.27,3.7,0.3,5.57c0.03,1.88,0.02,3.77,0.02,5.65c0,3.8-0.05,7.59-0.16,11.39
		c-0.01,0.27-0.41,0.27-0.41,0c-0.11-3.79-0.16-7.59-0.16-11.39c0-1.88-0.01-3.77,0.02-5.65C255.75,5.32,255.73,3.46,256.02,1.62z
		 M257.99,2.11c0.04-0.08,0.18-0.08,0.21,0c0.35,0.73,0.25,1.77,0.28,2.56c0.03,0.92,0.03,1.85,0.04,2.77
		c0.01,1.85,0.01,3.69,0.01,5.54c-0.01,1.88-0.03,3.75-0.05,5.63c-0.02,1.85-0.01,3.69-0.14,5.54c-0.02,0.31-0.46,0.31-0.49,0
		c-0.13-1.87-0.12-3.75-0.14-5.63c-0.02-1.85-0.04-3.69-0.04-5.54c0-1.88-0.01-3.75,0.01-5.63c0.01-0.89,0.01-1.79,0.04-2.68
		C257.74,3.88,257.64,2.85,257.99,2.11z M260.33,2.11c0.02-0.12,0.22-0.12,0.23,0c0.26,1.83,0.17,3.74,0.18,5.59
		c0.01,1.31,0.02,2.62,0.02,3.93c0,0.54,0,1.08,0,1.62c-0.01,1.85-0.02,3.7-0.04,5.55c-0.02,1.85,0.05,3.74-0.2,5.57
		c-0.01,0.06-0.12,0.06-0.12,0c-0.25-1.83-0.18-3.72-0.2-5.57s-0.03-3.7-0.04-5.55c-0.01-1.85,0-3.7,0.01-5.55
		C260.16,5.84,260.07,3.94,260.33,2.11z"/>
	<path d="M262.09,1.79c0-0.17,0.25-0.17,0.25,0c0.13,3.58,0.29,7.16,0.42,10.75c0.13,3.58,0.35,7.16,0.4,10.74
		c0,0.42-0.61,0.41-0.65,0c-0.32-3.56-0.39-7.16-0.47-10.74C262.01,11.17,262,9.8,262,8.43C262.01,6.21,262.04,4,262.09,1.79z
		 M264.45,1.73c0.01-0.23,0.36-0.23,0.36,0c-0.02,3.53,0.04,7.06,0.16,10.58s0.34,7.04,0.46,10.56c0.01,0.43-0.62,0.41-0.66,0
		C264.06,15.86,264.17,8.75,264.45,1.73z M266.54,1.67c0-0.14,0.23-0.15,0.22,0c-0.01,0.96,0.08,1.91,0.09,2.87s0.04,1.91,0.06,2.87
		c0.03,1.88,0.09,3.76,0.15,5.64c0.12,3.79,0.36,7.57,0.62,11.35c0.02,0.24-0.15,0.36-0.33,0.36c-0.19,0.01-0.4-0.12-0.42-0.36
		c-0.37-3.77-0.56-7.56-0.66-11.35c-0.05-1.88-0.04-3.76-0.02-5.64c0.01-0.96,0.05-1.91,0.09-2.87
		C266.37,3.57,266.5,2.63,266.54,1.67z M268.36,1.61c0-0.09,0.08-0.14,0.15-0.14c0.06,0,0.13,0.03,0.14,0.1
		c0.24,1.75,0.19,3.52,0.14,5.28c-0.05,1.81-0.06,3.62,0.01,5.43c0.06,1.82,0.17,3.64,0.31,5.46c0.14,1.83,0.42,3.71,0.33,5.54
		c-0.01,0.22-0.33,0.28-0.39,0.05c-0.42-1.75-0.5-3.62-0.64-5.41c-0.14-1.81-0.26-3.64-0.3-5.46c-0.04-1.81,0-3.62,0.1-5.43
		S268.41,3.42,268.36,1.61z M270.21,1.79c0-0.01,0.02-0.01,0.03,0c0.37,3.72,0.45,7.47,0.69,11.2c0.25,3.73,0.62,7.45,1.06,11.15
		c0.05,0.39-0.64,0.48-0.69,0.09c-0.53-3.7-0.89-7.43-1.12-11.16C269.95,9.33,269.81,5.53,270.21,1.79z M272.71,2.49
		c0-0.11,0.17-0.11,0.17,0c0.03,3.34,0.14,6.68,0.24,10.02c0.1,3.33,0.27,6.68,0.18,10.01c-0.01,0.29-0.42,0.28-0.44,0
		c-0.32-3.31-0.32-6.68-0.31-10.01C272.55,9.16,272.64,5.82,272.71,2.49z M274.63,1.85c0.01-0.25,0.39-0.25,0.39,0
		c0,6.85,0.25,13.7,0.29,20.55c0,0.51-0.75,0.5-0.78,0C274.15,15.56,274.34,8.69,274.63,1.85z M276.75,2.02
		c-0.01-0.18,0.27-0.18,0.28,0c0.07,1.7,0.25,3.4,0.36,5.1c0.1,1.67,0.22,3.34,0.33,5.01c0.23,3.37,0.53,6.73,0.75,10.09
		c0.03,0.39-0.55,0.37-0.6,0c-0.39-3.35-0.61-6.72-0.81-10.09c-0.1-1.7-0.18-3.4-0.24-5.1C276.76,5.36,276.8,3.69,276.75,2.02z
		 M279.25,3.51c0.03-0.48,0.15-0.95,0.17-1.43c0.01-0.13,0.21-0.13,0.21,0c0,0.48,0.09,0.95,0.11,1.43
		c0.01,0.42,0.01,0.84,0.02,1.26c0.01,0.84,0.05,1.67,0.05,2.51c0.01,1.73,0.04,3.47,0.08,5.2c0.06,3.01,0.27,6.01,0.27,9.02
		c0,0.46,0,0.91-0.02,1.37c-0.01,0.21-0.34,0.27-0.37,0.05c-0.53-3.42-0.57-6.9-0.64-10.35c-0.04-1.76-0.05-3.53-0.02-5.29
		c0.01-0.84,0.05-1.67,0.09-2.51C279.21,4.35,279.22,3.93,279.25,3.51L279.25,3.51z"/>
	<path d="M286.48,2.76c0.03-0.19,0.36-0.19,0.38,0c0.26,1.77,0.21,3.6,0.26,5.39c0.05,1.78,0.13,3.56,0.2,5.33
		c0.08,1.78,0.17,3.56,0.28,5.33c0.12,1.82,0.34,3.68,0.28,5.5c-0.01,0.43-0.68,0.55-0.77,0.1c-0.35-1.77-0.4-3.63-0.5-5.43
		s-0.18-3.61-0.24-5.42s-0.08-3.62-0.09-5.42c0-0.62-0.01-1.24-0.01-1.87C286.27,5.1,286.31,3.92,286.48,2.76z M289.46,1.58
		c0-0.09,0.08-0.13,0.14-0.12c0.05,0.01,0.1,0.05,0.1,0.12c-0.03,0.94,0.05,1.9,0.06,2.84c0.01,0.95,0.01,1.89,0.02,2.84
		c0.03,1.86,0.08,3.73,0.16,5.59c0.15,3.75,0.45,7.5,0.76,11.25c0.03,0.38-0.62,0.47-0.67,0.09c-0.52-3.73-0.77-7.49-0.88-11.24
		c-0.05-1.9-0.06-3.79-0.03-5.68c0.01-0.95,0.04-1.89,0.09-2.84C289.27,3.47,289.41,2.53,289.46,1.58z M291.81,2.48
		c0.01-0.18,0.27-0.18,0.27-0.01c-0.02,3.5,0.09,7,0.27,10.49c0.18,3.5,0.58,6.97,0.84,10.45c0.03,0.35-0.54,0.42-0.6,0.08
		c-0.59-3.44-0.79-6.96-0.93-10.44C291.53,9.53,291.6,6,291.81,2.48z M294.44,2.32c0.04-0.15,0.25-0.14,0.3,0
		c0.26,0.82,0.22,1.79,0.28,2.64c0.06,0.9,0.1,1.79,0.14,2.69c0.08,1.79,0.16,3.58,0.22,5.38c0.07,1.82,0.13,3.65,0.2,5.47
		c0.07,1.79,0.21,3.6,0.07,5.38c-0.02,0.28-0.49,0.39-0.53,0.07c-0.27-1.8-0.27-3.64-0.34-5.45c-0.07-1.79-0.13-3.58-0.2-5.38
		c-0.07-1.79-0.12-3.58-0.18-5.38c-0.03-0.9-0.05-1.79-0.06-2.69C294.35,4.18,294.25,3.18,294.44,2.32z M297.27,2.35
		c0.02-0.07,0.13-0.08,0.15,0c0.2,0.86,0.1,1.84,0.12,2.71c0.01,0.96,0.02,1.91,0.02,2.87c0,1.85,0.01,3.7,0.03,5.56
		c0.04,3.76,0.11,7.53,0.12,11.29c0,0.44-0.66,0.43-0.68,0c-0.18-3.76-0.19-7.53-0.16-11.29c0.02-1.85,0.04-3.7,0.08-5.56
		c0.02-0.96,0.05-1.91,0.1-2.87C297.09,4.19,297.03,3.2,297.27,2.35z M299.42,2.26c0.01-0.12,0.17-0.12,0.18,0
		c0.09,1.86,0.21,3.71,0.25,5.57s0.04,3.71,0.07,5.57c0.04,3.71,0.03,7.44-0.13,11.15c-0.01,0.36-0.54,0.36-0.55,0
		c-0.16-3.71-0.17-7.43-0.13-11.15c0.02-1.86,0.03-3.71,0.06-5.57C299.21,5.97,299.33,4.12,299.42,2.26z M301,5.15
		c0.03-0.91,0.03-1.84,0.2-2.74c0.06-0.3,0.47-0.19,0.5,0.07c0.09,0.94,0.01,1.9,0,2.85c-0.02,0.95-0.03,1.9-0.03,2.85
		c0,1.84,0.02,3.68,0.08,5.52s0.14,3.68,0.27,5.51c0.07,0.95,0.14,1.89,0.22,2.84c0.04,0.47,0.08,0.95,0.12,1.42
		c0.04,0.46,0.14,0.95,0.08,1.42c-0.02,0.16-0.15,0.26-0.27,0.27c-0.11,0-0.22-0.06-0.27-0.2c-0.14-0.42-0.15-0.88-0.2-1.31
		c-0.05-0.47-0.1-0.95-0.16-1.42c-0.1-0.94-0.17-1.89-0.24-2.84c-0.13-1.89-0.23-3.79-0.29-5.69c-0.06-1.9-0.08-3.8-0.06-5.7
		C300.95,7.05,300.97,6.1,301,5.15L301,5.15z M304.17,1.69c0-0.01,0.03-0.01,0.03,0.01c0.17,0.78,0.16,1.62,0.18,2.42
		c0.02,0.86,0.02,1.73,0.03,2.6c0.03,3.01,0.09,6.03,0.17,9.04c0.04,1.49,0.1,2.98,0.17,4.47c0.06,1.16,0.2,2.35,0.2,3.52
		c0,0.35-0.01,0.69-0.04,1.03c-0.03,0.31-0.49,0.42-0.57,0.08c-0.2-0.84-0.23-1.72-0.3-2.58c-0.06-0.83-0.1-1.67-0.15-2.51
		c-0.16-3.04-0.23-6.08-0.23-9.13c0-1.52,0.04-3.05,0.09-4.57C303.79,4.64,303.77,3.08,304.17,1.69z"/>
	<path d="M307.16,2.41c0.03-0.19,0.34-0.14,0.33,0.04c-0.18,3.76-0.31,7.53-0.28,11.3c0.01,1.87,0.06,3.74,0.17,5.61
		c0.05,0.95,0.12,1.9,0.18,2.84c0.06,0.91,0.18,1.81,0.04,2.72c-0.04,0.24-0.36,0.18-0.43,0c-0.31-0.87-0.34-1.81-0.41-2.72
		c-0.08-0.95-0.13-1.89-0.18-2.84c-0.09-1.9-0.13-3.8-0.13-5.7C306.44,9.9,306.65,6.14,307.16,2.41z M308.91,1.55
		c0-0.06,0.05-0.09,0.1-0.09s0.09,0.03,0.09,0.09c-0.01,0.9,0.08,1.78,0.09,2.67c0.01,0.86,0,1.72,0.01,2.59
		c0.01,3.03,0.04,6.07,0.11,9.1c0.04,1.54,0.09,3.09,0.16,4.63c0.06,1.51,0.17,3.03,0.15,4.54c0,0.21-0.2,0.33-0.38,0.33
		c-0.14,0-0.26-0.07-0.29-0.24c-0.23-1.71-0.28-3.44-0.35-5.17c-0.12-3.06-0.16-6.12-0.14-9.18c0.01-1.54,0.04-3.09,0.09-4.64
		c0.03-0.77,0.07-1.54,0.12-2.32S308.86,2.33,308.91,1.55z M310.82,2.23c0.01-0.24,0.37-0.24,0.37,0
		c-0.01,3.74,0.09,7.48,0.24,11.22s0.45,7.46,0.66,11.19c0.02,0.42-0.6,0.4-0.65,0c-0.47-3.71-0.65-7.46-0.75-11.19
		C310.59,9.71,310.65,5.98,310.82,2.23z M312.73,2.12c0-0.23,0.36-0.23,0.36,0c0,0.95,0.1,1.89,0.12,2.84
		c0.02,0.92,0.05,1.84,0.08,2.76c0.07,1.84,0.14,3.67,0.24,5.51c0.1,1.86,0.23,3.73,0.38,5.59c0.15,1.82,0.44,3.66,0.45,5.49
		c0,0.36-0.57,0.45-0.64,0.09c-0.38-1.82-0.45-3.73-0.58-5.58c-0.14-1.83-0.25-3.66-0.33-5.5c-0.09-1.84-0.15-3.67-0.17-5.51
		c-0.01-0.95-0.01-1.9-0.01-2.84C312.62,4.02,312.72,3.07,312.73,2.12z M315.27,1.71c0.01-0.04,0.07-0.03,0.07,0.01
		c0.09,1.73,0.06,3.46,0.08,5.2c0.04,2.99,0.15,6,0.38,8.98c0.23,3.02,0.63,6.01,0.94,9.02c0.04,0.36-0.56,0.44-0.63,0.09
		c-0.34-1.68-0.57-3.37-0.75-5.07c-0.33-3.06-0.54-6.15-0.55-9.23C314.78,7.72,314.78,4.67,315.27,1.71z M316.88,1.76
		c0.01-0.1,0.17-0.09,0.19,0c0.17,0.89,0.15,1.81,0.19,2.7c0.05,0.89,0.1,1.78,0.16,2.67c0.12,1.81,0.22,3.63,0.36,5.44
		c0.27,3.65,0.62,7.29,0.87,10.94c0.02,0.28-0.45,0.34-0.49,0.06c-0.5-3.62-0.78-7.27-0.99-10.92c-0.1-1.84-0.2-3.68-0.25-5.53
		c-0.02-0.89-0.05-1.78-0.06-2.67C316.83,3.56,316.76,2.65,316.88,1.76z M318.8,1.56c0-0.03,0.04-0.03,0.04-0.01
		c0.11,0.89,0.25,1.78,0.31,2.68c0.06,0.89,0.1,1.79,0.15,2.68c0.1,1.79,0.23,3.57,0.38,5.35c0.29,3.56,0.6,7.12,0.88,10.68
		c0.03,0.36-0.58,0.44-0.63,0.09c-0.48-3.54-0.8-7.11-0.99-10.67c-0.09-1.81-0.17-3.62-0.23-5.44c-0.03-0.89-0.05-1.79-0.06-2.68
		C318.65,3.34,318.74,2.45,318.8,1.56z M321.39,3.23c0.01-0.13,0.21-0.13,0.21,0c0.02,6.92,0.47,13.83,0.86,20.74
		c0.02,0.42-0.61,0.41-0.66,0C321.11,17.09,321.14,10.14,321.39,3.23z M323.12,2.74c0-0.3,0.45-0.29,0.45,0
		c0.04,6.92,0.4,13.82,0.84,20.72c0,0.01,0,0.03,0,0.04c-0.01,0.42-0.68,0.4-0.71-0.04C323.18,16.56,323.07,9.64,323.12,2.74z"/>
	<path d="M325.6,1.79c0-0.17,0.25-0.17,0.25,0c0.13,3.58,0.29,7.16,0.42,10.75c0.13,3.58,0.35,7.16,0.4,10.74
		c0,0.42-0.61,0.41-0.65,0c-0.32-3.56-0.39-7.16-0.47-10.74c-0.03-1.37-0.04-2.74-0.04-4.11C325.52,6.21,325.55,4,325.6,1.79z
		 M327.95,1.73c0.01-0.23,0.36-0.23,0.36,0c-0.02,3.53,0.04,7.06,0.16,10.58s0.34,7.04,0.46,10.56c0.01,0.43-0.62,0.41-0.66,0
		C327.56,15.86,327.67,8.75,327.95,1.73z M330.04,1.67c0-0.14,0.23-0.15,0.22,0c-0.01,0.96,0.08,1.91,0.09,2.87s0.04,1.91,0.06,2.87
		c0.03,1.88,0.09,3.76,0.15,5.64c0.12,3.79,0.36,7.57,0.62,11.35c0.02,0.24-0.15,0.36-0.33,0.36c-0.19,0.01-0.4-0.12-0.42-0.36
		c-0.37-3.77-0.56-7.56-0.66-11.35c-0.05-1.88-0.04-3.76-0.02-5.64c0.01-0.96,0.05-1.91,0.09-2.87C329.88,3.57,330,2.63,330.04,1.67
		z M331.87,1.61c0-0.09,0.08-0.14,0.15-0.14c0.06,0,0.13,0.03,0.14,0.1c0.24,1.75,0.19,3.52,0.14,5.28
		c-0.05,1.81-0.06,3.62,0.01,5.43c0.06,1.82,0.17,3.64,0.31,5.46c0.14,1.83,0.42,3.71,0.33,5.54c-0.01,0.22-0.33,0.28-0.39,0.05
		c-0.42-1.75-0.5-3.62-0.64-5.41c-0.14-1.81-0.26-3.64-0.3-5.46c-0.04-1.81,0-3.62,0.1-5.43C331.81,5.22,331.92,3.42,331.87,1.61z
		 M333.71,1.79c0-0.01,0.02-0.01,0.03,0c0.37,3.72,0.45,7.47,0.69,11.2c0.25,3.73,0.62,7.45,1.06,11.15
		c0.05,0.39-0.64,0.48-0.69,0.09c-0.53-3.7-0.89-7.43-1.12-11.16C333.46,9.33,333.32,5.53,333.71,1.79z M336.21,2.49
		c0-0.11,0.17-0.11,0.17,0c0.03,3.34,0.14,6.68,0.24,10.02c0.1,3.33,0.27,6.68,0.18,10.01c-0.01,0.29-0.42,0.28-0.44,0
		c-0.32-3.31-0.32-6.68-0.31-10.01C336.06,9.16,336.14,5.82,336.21,2.49z M338.14,1.85c0.01-0.25,0.39-0.25,0.39,0
		c0,6.85,0.25,13.7,0.29,20.55c0,0.51-0.75,0.5-0.78,0C337.66,15.56,337.84,8.69,338.14,1.85z M340.26,2.02
		c-0.01-0.18,0.27-0.18,0.28,0c0.07,1.7,0.25,3.4,0.36,5.1c0.1,1.67,0.22,3.34,0.33,5.01c0.23,3.37,0.53,6.73,0.75,10.09
		c0.03,0.39-0.55,0.37-0.6,0c-0.39-3.35-0.61-6.72-0.81-10.09c-0.1-1.7-0.18-3.4-0.24-5.1C340.27,5.36,340.31,3.69,340.26,2.02z
		 M342.76,3.51c0.03-0.48,0.15-0.95,0.17-1.43c0.01-0.13,0.21-0.13,0.21,0c0,0.48,0.09,0.95,0.11,1.43
		c0.01,0.42,0.01,0.84,0.02,1.26c0.01,0.84,0.05,1.67,0.05,2.51c0.01,1.73,0.04,3.47,0.08,5.2c0.06,3.01,0.27,6.01,0.27,9.02
		c0,0.46,0,0.91-0.02,1.37c-0.01,0.21-0.34,0.27-0.37,0.05c-0.53-3.42-0.57-6.9-0.64-10.35c-0.04-1.76-0.05-3.53-0.02-5.29
		c0.01-0.84,0.05-1.67,0.09-2.51C342.72,4.35,342.73,3.93,342.76,3.51L342.76,3.51z"/>
	<path d="M345.37,2.14c0.01-0.06,0.11-0.06,0.12,0c0.13,0.83,0.06,1.66,0.05,2.5c-0.01,0.89-0.01,1.77-0.01,2.66
		c0.01,1.77,0.07,3.55,0.14,5.32c0.15,3.55,0.46,7.08,0.76,10.62c0.03,0.36-0.58,0.44-0.63,0.09c-0.52-3.51-0.74-7.07-0.81-10.61
		c-0.01-0.67-0.02-1.35-0.02-2.02c0-1.13,0.02-2.26,0.05-3.39c0.02-0.89,0.06-1.77,0.1-2.66C345.15,3.8,345.16,2.96,345.37,2.14z
		 M347.21,1.59c0-0.09,0.08-0.13,0.14-0.12c0.06,0.01,0.11,0.05,0.11,0.12c0,0.85,0.06,1.71,0.08,2.57
		c0.01,0.85,0.03,1.71,0.06,2.56c0.09,2.98,0.33,5.95,0.6,8.92c0.27,2.97,0.7,5.91,1.02,8.87c0.02,0.2-0.15,0.31-0.33,0.31
		c-0.14,0-0.28-0.07-0.31-0.23c-0.31-1.66-0.52-3.32-0.69-5c-0.32-2.99-0.53-5.99-0.63-8.99c-0.05-1.5-0.1-3-0.12-4.51
		c-0.01-0.74-0.01-1.47-0.01-2.21C347.13,3.12,347.2,2.35,347.21,1.59z M349.85,1.76c0-0.03,0.06-0.03,0.07,0
		c0.15,0.88,0.18,1.8,0.23,2.69c0.05,0.89,0.08,1.79,0.12,2.68c0.09,1.84,0.2,3.69,0.31,5.53s0.24,3.68,0.4,5.52
		c0.08,0.89,0.15,1.78,0.23,2.67c0.08,0.93,0.26,1.91,0.16,2.84c-0.03,0.26-0.38,0.32-0.46,0.06c-0.28-0.86-0.31-1.83-0.4-2.72
		c-0.09-0.92-0.17-1.84-0.24-2.76c-0.14-1.84-0.27-3.68-0.36-5.52c-0.1-1.87-0.15-3.74-0.18-5.62c-0.01-0.89-0.03-1.79-0.01-2.68
		C349.72,3.56,349.72,2.63,349.85,1.76z M352.06,2c0-0.01,0.01-0.01,0.01,0c0.04,3.6,0.21,7.22,0.48,10.81
		c0.27,3.6,0.62,7.18,1.09,10.76c0.06,0.43-0.69,0.52-0.75,0.1c-0.55-3.56-0.92-7.17-1.05-10.78c-0.06-1.8-0.09-3.6-0.07-5.41
		C351.79,5.66,351.93,3.83,352.06,2z M353.98,1.65c0-0.09,0.14-0.09,0.14,0.01c0.01,0.24,0.12,0.47,0.13,0.72
		c0.02,0.24,0.03,0.48,0.04,0.72c0.02,0.48,0.05,0.95,0.08,1.43c0.05,0.95,0.09,1.91,0.13,2.87c0.08,1.91,0.17,3.82,0.28,5.73
		s0.24,3.82,0.37,5.72c0.07,0.95,0.14,1.9,0.2,2.86c0.06,0.95,0.18,1.91,0.09,2.85c-0.03,0.28-0.43,0.37-0.51,0.07
		c-0.23-0.81-0.28-1.65-0.36-2.48s-0.15-1.67-0.21-2.5c-0.21-3.01-0.35-6.02-0.45-9.04c-0.05-1.49-0.1-2.98-0.1-4.48
		c0-0.75,0-1.49,0.01-2.24c0.01-0.39,0.02-0.78,0.03-1.17c0-0.17-0.01-0.36,0.01-0.54C353.89,2.01,353.97,1.83,353.98,1.65z
		 M356.55,2.29c0.01-0.3,0.46-0.3,0.46,0c0.04,3.64,0.13,7.28,0.27,10.91c0.14,3.64,0.37,7.27,0.52,10.9c0.03,0.55-0.78,0.52-0.83,0
		c-0.38-3.61-0.52-7.27-0.58-10.9C356.33,9.56,356.38,5.93,356.55,2.29z M359.82,2.42c0.03-0.19,0.31-0.21,0.31,0
		c-0.09,3.6-0.2,7.21-0.12,10.82c0.08,3.61,0.37,7.2,0.6,10.81c0.03,0.51-0.71,0.48-0.77,0c-0.47-3.57-0.59-7.21-0.59-10.81
		C359.25,9.62,359.37,6.01,359.82,2.42z M361.66,3.8c0.01-0.16,0.25-0.17,0.25,0c0.05,3.33,0.05,6.66,0.15,10
		c0.1,3.33,0.3,6.66,0.57,9.98c0,0.01,0,0.03,0,0.04c0,0.49-0.79,0.48-0.83-0.04C361.33,17.17,361.13,10.43,361.66,3.8z"/>
	<path d="M0.2,30.85c0.01-0.13,0.19-0.13,0.2,0c0.26,3.65,0.19,7.35,0.19,11.01c0,1.82,0,3.64-0.02,5.46c0,0.9-0.01,1.79-0.02,2.69
		c0,0.95,0.06,1.92-0.03,2.87c-0.03,0.28-0.41,0.28-0.44,0c-0.1-0.95-0.03-1.92-0.03-2.87c0-0.9-0.01-1.79-0.02-2.69
		c-0.02-1.82-0.02-3.64-0.02-5.46c0-1.3-0.01-2.6-0.01-3.9C0,35.59,0.03,33.21,0.2,30.85z M1.95,30.69c0-0.07,0.11-0.07,0.11,0
		c0,0.96,0.09,1.91,0.11,2.87c0.02,0.93,0.03,1.85,0.05,2.78c0.03,1.85,0.04,3.71,0.05,5.56c0.03,3.74-0.01,7.47-0.04,11.21
		c0,0.3-0.45,0.3-0.46,0C1.74,49.37,1.7,45.64,1.73,41.9c0.01-1.89,0.02-3.77,0.05-5.65c0.01-0.9,0.02-1.79,0.04-2.69
		C1.86,32.6,1.95,31.65,1.95,30.69z M3.83,52.9c-0.02,0.12-0.22,0.12-0.24,0c-0.16-0.89-0.17-1.81-0.19-2.71
		c-0.03-0.89-0.05-1.79-0.06-2.68c-0.02-1.79-0.04-3.57-0.04-5.36c0-3.62-0.1-7.27,0.04-10.89c0.02-0.48,0.73-0.48,0.75,0
		c0.13,3.62,0.03,7.26,0.03,10.89c0,1.79-0.02,3.57-0.04,5.36c-0.01,0.89-0.04,1.79-0.06,2.68C4,51.09,4,52,3.83,52.9z M5.74,30.93
		c0-0.11,0.17-0.11,0.17,0c0.04,1.89,0.14,3.77,0.19,5.65c0.05,1.85,0.06,3.71,0.07,5.56c0.01,1.89,0.01,3.77,0.01,5.65
		c0,0.9-0.01,1.8-0.01,2.69c0,0.9,0.09,1.88-0.08,2.76c-0.02,0.13-0.15,0.2-0.26,0.2s-0.24-0.07-0.26-0.2
		c-0.18-0.86-0.08-1.84-0.08-2.74c0-0.93-0.01-1.85-0.01-2.78c-0.01-1.85,0-3.71,0.01-5.56c0.01-1.89,0.03-3.77,0.07-5.65
		C5.6,34.64,5.7,32.79,5.74,30.93z M7.83,52.72c-0.01,0.13-0.18,0.13-0.19,0c-0.21-1.81-0.18-3.63-0.19-5.45
		c-0.01-1.79-0.04-3.57-0.04-5.36c0-1.81,0-3.63,0-5.45c0-1.78-0.06-3.58,0.09-5.36c0.03-0.3,0.44-0.3,0.46,0
		c0.15,1.81,0.09,3.64,0.09,5.45c0,1.79,0,3.57,0,5.36c0,1.81-0.02,3.63-0.04,5.45C8,49.16,8.03,50.95,7.83,52.72z M9.6,52.89
		c0,0.01-0.02,0.01-0.02,0c-0.28-1.62-0.25-3.28-0.28-4.92c-0.09-6-0.05-11.99-0.01-17.99c0-0.38,0.59-0.38,0.59,0
		c0.01,1.7,0.02,3.4,0.03,5.1c0.02,3.01,0.03,6.03,0.02,9.04c-0.01,1.49-0.04,2.98-0.07,4.47C9.84,50.03,9.84,51.47,9.6,52.89z
		 M11.5,30.71c0-0.16,0.24-0.16,0.24,0c0.01,0.95,0.13,1.91,0.16,2.87c0.03,0.9,0.04,1.79,0.05,2.69c0.01,1.82,0.01,3.64,0.02,5.46
		c0.01,3.67,0.04,7.34-0.01,11.01c-0.01,0.43-0.66,0.43-0.67,0c-0.05-3.67-0.03-7.34-0.01-11.01c0.01-1.82,0.01-3.64,0.02-5.46
		c0.01-0.9,0.02-1.79,0.05-2.69C11.37,32.62,11.48,31.67,11.5,30.71z M13.53,30.94c0.01-0.09,0.14-0.09,0.15,0
		c0.29,3.65,0.24,7.34,0.26,10.99c0.01,1.82,0.02,3.64,0.01,5.45c-0.01,1.84,0.08,3.71-0.13,5.54c-0.03,0.29-0.42,0.29-0.45,0
		c-0.21-1.83-0.12-3.7-0.13-5.54c-0.01-1.82,0-3.64,0.01-5.45C13.3,38.28,13.24,34.59,13.53,30.94z M15.55,52.66
		c-0.02,0.06-0.1,0.06-0.13,0c-0.27-0.75-0.22-1.65-0.24-2.43c-0.03-0.83-0.02-1.67-0.02-2.51c-0.01-3.02,0.01-6.03,0.02-9.05
		c0.01-2.98-0.08-5.98,0.05-8.96c0.01-0.17,0.14-0.26,0.27-0.25c0.12,0.01,0.23,0.09,0.24,0.25c0.08,1.7,0.05,3.4,0.04,5.1
		c-0.01,3.02,0.02,6.03,0.03,9.05c0.01,1.49,0,2.98,0,4.48c0,0.75-0.01,1.49-0.03,2.24C15.76,51.26,15.78,52.01,15.55,52.66z
		 M17.5,30.77c0-0.12,0.19-0.12,0.19,0c0.01,0.96,0.12,1.92,0.15,2.88c0.03,0.9,0.05,1.8,0.07,2.7c0.04,1.8,0.06,3.6,0.08,5.39
		C18,42.52,18,43.3,18,44.08c0,2.87-0.05,5.75-0.08,8.62c-0.01,0.43-0.67,0.43-0.67,0c-0.04-3.65-0.1-7.31-0.06-10.96
		c0.02-1.8,0.04-3.6,0.08-5.39c0.02-0.9,0.03-1.8,0.07-2.7C17.39,32.69,17.49,31.73,17.5,30.77z"/>
	<path d="M20.88,30.41c0.02-0.19,0.34-0.14,0.33,0.04c-0.18,3.76-0.31,7.53-0.28,11.3c0.01,1.87,0.07,3.75,0.17,5.62
		c0.05,0.95,0.12,1.9,0.18,2.84c0.06,0.91,0.18,1.81,0.04,2.72c-0.04,0.24-0.36,0.18-0.43,0c-0.31-0.87-0.34-1.81-0.41-2.72
		c-0.08-0.95-0.13-1.89-0.18-2.84c-0.09-1.9-0.13-3.8-0.13-5.7C20.16,37.9,20.38,34.14,20.88,30.41z M22.63,29.55
		c0-0.06,0.05-0.09,0.1-0.09c0.05,0,0.09,0.03,0.09,0.09c-0.01,0.9,0.08,1.78,0.09,2.67c0.01,0.86,0,1.72,0.01,2.59
		c0.01,3.03,0.04,6.07,0.11,9.1c0.04,1.54,0.09,3.09,0.15,4.63c0.06,1.51,0.17,3.03,0.15,4.54c0,0.21-0.2,0.33-0.38,0.33
		c-0.14,0-0.26-0.07-0.29-0.24c-0.23-1.71-0.28-3.44-0.35-5.17c-0.12-3.06-0.16-6.12-0.14-9.18c0.01-1.54,0.04-3.09,0.09-4.64
		c0.03-0.77,0.07-1.54,0.12-2.32S22.59,30.33,22.63,29.55z M24.55,30.23c0.01-0.24,0.37-0.24,0.37,0
		c-0.01,3.74,0.09,7.48,0.24,11.22s0.45,7.46,0.66,11.19c0.02,0.42-0.6,0.4-0.65,0c-0.48-3.71-0.65-7.46-0.75-11.19
		C24.31,37.71,24.38,33.98,24.55,30.23z M26.45,30.12c0-0.23,0.36-0.23,0.36,0c0,0.95,0.1,1.89,0.12,2.84
		c0.02,0.92,0.05,1.84,0.08,2.76c0.06,1.84,0.14,3.67,0.24,5.51c0.1,1.86,0.23,3.73,0.38,5.59c0.15,1.82,0.44,3.66,0.45,5.49
		c0,0.36-0.56,0.45-0.64,0.09c-0.39-1.82-0.45-3.73-0.58-5.58c-0.14-1.83-0.25-3.66-0.33-5.5c-0.09-1.84-0.15-3.67-0.17-5.51
		c-0.01-0.95-0.01-1.9-0.01-2.84C26.35,32.02,26.44,31.07,26.45,30.12z M28.99,29.71c0.01-0.04,0.07-0.03,0.07,0.01
		c0.09,1.73,0.06,3.46,0.08,5.2c0.04,2.99,0.15,6,0.38,8.98c0.23,3.02,0.63,6.01,0.94,9.02c0.04,0.36-0.56,0.44-0.63,0.09
		c-0.34-1.68-0.57-3.37-0.75-5.07c-0.33-3.06-0.54-6.15-0.55-9.23C28.5,35.72,28.51,32.67,28.99,29.71z M30.61,29.76
		c0.01-0.1,0.17-0.09,0.19,0c0.17,0.89,0.15,1.81,0.19,2.7c0.05,0.89,0.1,1.78,0.15,2.67c0.11,1.81,0.22,3.63,0.36,5.44
		c0.27,3.65,0.62,7.29,0.88,10.94c0.02,0.28-0.45,0.34-0.49,0.06c-0.5-3.62-0.78-7.27-0.99-10.92c-0.1-1.84-0.2-3.68-0.25-5.53
		c-0.03-0.89-0.05-1.78-0.06-2.67C30.56,31.56,30.49,30.65,30.61,29.76z M32.53,29.56c0-0.03,0.04-0.03,0.04-0.01
		c0.11,0.89,0.25,1.78,0.31,2.68c0.06,0.89,0.1,1.79,0.15,2.68c0.1,1.79,0.23,3.57,0.37,5.35c0.29,3.56,0.6,7.12,0.89,10.68
		c0.02,0.36-0.58,0.44-0.63,0.09c-0.48-3.54-0.8-7.11-0.99-10.67c-0.09-1.81-0.17-3.62-0.23-5.44c-0.02-0.89-0.05-1.79-0.06-2.68
		C32.38,31.34,32.47,30.45,32.53,29.56z M35.11,31.23c0.01-0.13,0.21-0.13,0.21,0c0.02,6.92,0.48,13.83,0.86,20.74
		c0.02,0.42-0.61,0.41-0.66,0C34.84,45.09,34.86,38.14,35.11,31.23z M36.84,30.74c0-0.3,0.45-0.29,0.45,0
		c0.04,6.92,0.4,13.82,0.84,20.72c0,0.01,0,0.03,0,0.04c-0.01,0.42-0.68,0.4-0.71-0.04C36.91,44.56,36.79,37.64,36.84,30.74z"/>
	<path d="M39.89,30.1c0.04-0.1,0.2-0.12,0.23,0c0.19,0.81,0.07,1.71,0.05,2.54c-0.02,0.9-0.05,1.79-0.06,2.69
		c-0.04,1.79-0.06,3.58-0.06,5.37c-0.01,3.58,0.08,7.17,0.07,10.75c0,0.48-0.71,0.47-0.73,0c-0.11-1.98-0.15-3.96-0.15-5.95
		c0-1.6,0.03-3.2,0.06-4.8c0.04-1.79,0.1-3.58,0.17-5.37c0.04-0.9,0.08-1.79,0.13-2.69C39.66,31.81,39.62,30.89,39.89,30.1z
		 M42.34,29.71c0.01-0.08,0.12-0.05,0.13,0.02c0.11,0.94,0.09,1.9,0.11,2.84c0.02,0.89,0.02,1.77,0.04,2.66
		c0.03,1.81,0.08,3.61,0.13,5.42c0.11,3.64,0.33,7.27,0.54,10.91c0.03,0.47-0.67,0.45-0.72,0c-0.42-3.65-0.6-7.33-0.66-11
		c-0.03-1.84-0.01-3.67,0.04-5.51C42,33.29,41.99,31.44,42.34,29.71z M44.1,30.37c0.01-0.23,0.37-0.23,0.36,0
		c-0.1,3.64-0.06,7.29,0.09,10.93s0.48,7.27,0.66,10.9c0.01,0.29-0.47,0.36-0.52,0.07c-0.58-3.58-0.78-7.25-0.85-10.88
		C43.78,37.71,43.87,34.04,44.1,30.37z M46.13,29.61c0-0.09,0.06-0.14,0.13-0.14c0.08-0.01,0.16,0.04,0.17,0.14
		c-0.02,1.84,0.08,3.69,0.1,5.54c0.02,1.82,0.06,3.63,0.1,5.45c0.06,3.66,0.23,7.31,0.17,10.98c0,0.28-0.4,0.27-0.43,0
		c-0.41-3.65-0.48-7.31-0.51-10.98c-0.02-1.81,0.01-3.63,0.04-5.45C45.93,33.29,46.08,31.46,46.13,29.61z M47.85,30.31
		c0-0.28,0.42-0.28,0.44,0c0.37,7.1,0.85,14.21,1.1,21.31c0.01,0.44-0.64,0.43-0.68,0C48.14,44.54,47.96,37.41,47.85,30.31z
		 M50.05,30.02c0-0.18,0.26-0.17,0.27,0c0.29,3.63,0.5,7.27,0.79,10.91c0.14,1.8,0.28,3.6,0.45,5.4c0.17,1.82,0.4,3.65,0.45,5.48
		c0.01,0.25-0.39,0.3-0.44,0.06c-0.37-1.76-0.53-3.57-0.7-5.36c-0.18-1.83-0.34-3.65-0.47-5.49C50.15,37.34,49.98,33.69,50.05,30.02
		z M51.77,29.9c0.01-0.23,0.37-0.24,0.37,0c-0.04,0.92,0.06,1.86,0.13,2.78c0.06,0.87,0.15,1.74,0.24,2.61
		c0.17,1.83,0.34,3.67,0.51,5.5s0.32,3.67,0.48,5.5c0.15,1.83,0.33,3.67,0.31,5.5c0,0.27-0.43,0.34-0.48,0.06
		c-0.33-1.81-0.46-3.65-0.62-5.48c-0.15-1.83-0.31-3.67-0.45-5.5c-0.14-1.86-0.28-3.73-0.42-5.59c-0.07-0.87-0.12-1.73-0.15-2.61
		C51.65,31.74,51.72,30.83,51.77,29.9z M53.85,30.43c-0.01-0.18,0.25-0.17,0.27,0c0.92,7.51,1.54,15.08,1.7,22.65
		c0,0.16-0.11,0.23-0.23,0.23s-0.24-0.08-0.25-0.23C54.75,45.54,54.3,37.98,53.85,30.43z M56.02,30.2c0-0.26,0.37-0.25,0.4,0
		c0.34,3.64,0.54,7.3,0.79,10.95c0.12,1.81,0.24,3.62,0.36,5.43c0.12,1.84,0.27,3.67,0.28,5.51c0,0.33-0.54,0.42-0.59,0.08
		c-0.49-3.61-0.61-7.3-0.81-10.94C56.26,37.56,56.06,33.88,56.02,30.2z"/>
	<path d="M64.02,30.09c0.01-0.17,0.26-0.17,0.27,0c0.06,1.58,0.16,3.15,0.18,4.73c0.04,2.98,0.07,5.96,0.09,8.94
		c0.01,1.45,0.02,2.9,0.03,4.36c0,0.7,0.01,1.41,0.01,2.11c0,0.63,0.04,1.31-0.14,1.92c-0.05,0.17-0.29,0.17-0.34,0
		c-0.21-0.69-0.14-1.49-0.14-2.2c-0.01-0.81-0.01-1.62-0.02-2.42c-0.02-2.98-0.08-5.95-0.09-8.93c0-0.25,0-0.5,0-0.76
		C63.86,35.25,63.92,32.68,64.02,30.09z M66.21,29.62c0-0.01,0.01-0.01,0.02,0c0.31,0.63,0.2,1.54,0.22,2.23
		c0.03,0.85,0.05,1.7,0.06,2.54c0.02,2.9,0.03,5.79,0.04,8.69c0,2.94,0.05,5.88-0.04,8.82c-0.01,0.37-0.56,0.37-0.57,0
		c-0.05-1.7-0.04-3.41-0.04-5.11c0-2.9-0.01-5.79,0.01-8.69c0.01-1.44,0.01-2.88,0.03-4.33c0.01-0.76,0.04-1.52,0.06-2.28
		C66.01,30.91,65.94,30.16,66.21,29.62z M67.92,29.56c0.01-0.06,0.04-0.09,0.09-0.1c0.05-0.01,0.11,0.02,0.12,0.1
		c0.19,1.88,0.18,3.77,0.2,5.66c0.02,1.86,0.05,3.71,0.05,5.57c0.01,3.74,0,7.49-0.06,11.23c0,0.19-0.15,0.28-0.29,0.28
		s-0.29-0.09-0.29-0.28c-0.06-3.74-0.07-7.49-0.06-11.23c0.01-1.89,0.03-3.78,0.05-5.66C67.74,33.27,67.73,31.42,67.92,29.56z
		 M69.71,30.56c0.01-0.22,0.33-0.22,0.34,0c0.18,3.51,0.22,7.02,0.21,10.54c-0.01,3.51,0.1,7.04-0.11,10.54
		c-0.02,0.35-0.51,0.34-0.53,0c-0.21-3.5-0.1-7.03-0.11-10.54C69.5,37.58,69.54,34.08,69.71,30.56z M71.5,30.09
		c0.02-0.18,0.31-0.26,0.34-0.04c0.26,1.74,0.22,3.51,0.27,5.27c0.04,1.82,0.09,3.64,0.12,5.45c0.07,3.66,0.15,7.33,0.16,11
		c0,0.45-0.68,0.45-0.69,0c-0.11-3.64-0.15-7.27-0.21-10.91c-0.03-1.79-0.05-3.57-0.06-5.36C71.41,33.7,71.3,31.88,71.5,30.09z
		 M73.48,29.6c0.01-0.08,0.15-0.12,0.17-0.02c0.25,1.79,0.33,3.6,0.43,5.4c0.1,1.82,0.21,3.65,0.32,5.47s0.21,3.65,0.31,5.47
		c0.05,0.9,0.1,1.79,0.16,2.69c0.06,0.93,0.22,1.94,0.12,2.87c-0.04,0.4-0.65,0.55-0.75,0.1c-0.19-0.89-0.15-1.88-0.19-2.79
		c-0.04-0.9-0.08-1.79-0.12-2.69c-0.08-1.82-0.16-3.64-0.23-5.47s-0.13-3.65-0.19-5.47C73.46,33.31,73.38,31.46,73.48,29.6z
		 M75.45,30.25c0.09-0.32,0.48-0.27,0.59,0c0.17,0.4,0.13,0.9,0.16,1.33c0.03,0.42,0.05,0.83,0.07,1.25
		c0.05,0.86,0.09,1.72,0.13,2.58c0.08,1.72,0.15,3.45,0.21,5.17c0.12,3.48,0.25,6.97,0.21,10.44c0,0.47-0.71,0.47-0.73,0
		c-0.13-3.48-0.16-6.96-0.28-10.44c-0.06-1.75-0.13-3.51-0.21-5.26c-0.04-0.83-0.08-1.67-0.12-2.5c-0.02-0.42-0.04-0.83-0.06-1.25
		C75.41,31.14,75.33,30.67,75.45,30.25z M77.6,29.6c0-0.14,0.21-0.13,0.21,0c0.06,1.85,0.22,3.69,0.31,5.54
		c0.08,1.82,0.15,3.63,0.24,5.45c0.09,1.81,0.18,3.63,0.27,5.45c0.1,1.83,0.31,3.7,0.27,5.53c-0.01,0.33-0.55,0.43-0.6,0.08
		c-0.25-1.79-0.25-3.63-0.33-5.44c-0.09-1.85-0.17-3.69-0.23-5.54c-0.06-1.85-0.12-3.69-0.15-5.54S77.62,31.45,77.6,29.6z
		 M79.62,30.26c0.04-0.13,0.24-0.14,0.27,0c0.18,0.83,0.1,1.69,0.1,2.53c0,0.89,0.01,1.79,0.02,2.68c0.01,1.75,0.04,3.51,0.11,5.26
		s0.16,3.51,0.28,5.26c0.06,0.89,0.13,1.78,0.2,2.67c0.08,0.89,0.22,1.78,0.19,2.67c-0.01,0.36-0.54,0.45-0.63,0.09
		c-0.2-0.84-0.23-1.72-0.31-2.57c-0.08-0.89-0.14-1.78-0.21-2.67c-0.12-1.78-0.21-3.56-0.26-5.35c-0.05-1.78-0.07-3.57-0.06-5.35
		c0.01-0.89,0.04-1.79,0.07-2.68C79.42,31.95,79.39,31.08,79.62,30.26z M80.8,30.12c0-0.18,0.27-0.18,0.28,0
		c0.07,1.7,0.25,3.4,0.36,5.1c0.1,1.67,0.22,3.34,0.33,5.01c0.23,3.37,0.53,6.73,0.75,10.09c0,0.01,0,0.03,0,0.04
		c-0.02,0.35-0.56,0.32-0.6-0.04c-0.39-3.35-0.61-6.72-0.81-10.09c-0.1-1.7-0.18-3.4-0.24-5.1C80.81,33.46,80.85,31.79,80.8,30.12z"
		/>
	<path d="M83.51,30.76c0.03-0.19,0.36-0.19,0.38,0c0.26,1.77,0.21,3.6,0.26,5.39c0.05,1.78,0.13,3.56,0.2,5.33
		c0.08,1.78,0.17,3.56,0.28,5.33c0.12,1.82,0.34,3.68,0.28,5.5c-0.01,0.43-0.68,0.55-0.77,0.1c-0.35-1.77-0.4-3.63-0.5-5.43
		s-0.18-3.61-0.24-5.42c-0.06-1.81-0.08-3.62-0.09-5.42c0-0.62-0.01-1.24-0.01-1.87C83.3,33.1,83.34,31.92,83.51,30.76z
		 M86.49,29.58c0-0.09,0.08-0.13,0.14-0.12c0.05,0.01,0.1,0.05,0.1,0.12c-0.03,0.94,0.05,1.9,0.06,2.84
		c0.01,0.95,0.01,1.89,0.03,2.84c0.03,1.86,0.08,3.73,0.16,5.59c0.15,3.75,0.45,7.5,0.76,11.25c0.03,0.38-0.62,0.47-0.67,0.09
		c-0.52-3.73-0.77-7.49-0.88-11.24c-0.05-1.9-0.06-3.79-0.03-5.68c0.01-0.95,0.04-1.89,0.09-2.84
		C86.3,31.47,86.44,30.53,86.49,29.58z M88.84,30.48c0.01-0.18,0.27-0.18,0.27-0.01c-0.02,3.5,0.09,7,0.27,10.49
		c0.18,3.5,0.58,6.97,0.84,10.45c0.03,0.35-0.54,0.42-0.6,0.08c-0.59-3.44-0.79-6.96-0.93-10.44C88.56,37.53,88.63,34,88.84,30.48z
		 M91.47,30.32c0.04-0.15,0.25-0.14,0.3,0c0.26,0.82,0.22,1.79,0.28,2.64c0.06,0.9,0.1,1.79,0.14,2.69
		c0.08,1.79,0.16,3.58,0.22,5.38c0.07,1.82,0.13,3.65,0.2,5.47c0.06,1.79,0.21,3.6,0.07,5.38c-0.02,0.28-0.49,0.39-0.53,0.07
		c-0.27-1.8-0.27-3.64-0.34-5.45c-0.07-1.79-0.13-3.58-0.2-5.38c-0.07-1.79-0.12-3.58-0.18-5.38c-0.03-0.9-0.05-1.79-0.06-2.69
		C91.38,32.18,91.27,31.18,91.47,30.32z M94.3,30.35c0.02-0.07,0.13-0.08,0.15,0c0.2,0.86,0.1,1.84,0.12,2.71
		c0.01,0.96,0.02,1.91,0.02,2.87c0,1.85,0.01,3.7,0.03,5.56c0.04,3.76,0.12,7.53,0.12,11.29c0,0.44-0.66,0.43-0.68,0
		c-0.18-3.76-0.19-7.53-0.16-11.29c0.02-1.85,0.04-3.7,0.08-5.56c0.02-0.96,0.05-1.91,0.1-2.87C94.12,32.19,94.06,31.2,94.3,30.35z
		 M96.45,30.26c0.01-0.12,0.17-0.12,0.18,0c0.09,1.86,0.21,3.71,0.25,5.57s0.04,3.71,0.07,5.57c0.04,3.71,0.03,7.44-0.13,11.15
		c-0.01,0.36-0.54,0.36-0.55,0c-0.16-3.71-0.17-7.43-0.13-11.15c0.02-1.86,0.03-3.71,0.06-5.57C96.24,33.97,96.36,32.12,96.45,30.26
		z M98.03,33.15c0.03-0.91,0.03-1.84,0.2-2.74c0.06-0.3,0.47-0.19,0.5,0.07c0.09,0.94,0.01,1.9,0,2.85
		c-0.02,0.95-0.03,1.9-0.03,2.85c0,1.84,0.03,3.68,0.08,5.52c0.06,1.84,0.14,3.68,0.27,5.51c0.06,0.95,0.14,1.89,0.22,2.84
		c0.04,0.47,0.08,0.95,0.12,1.42c0.04,0.46,0.14,0.95,0.08,1.42c-0.02,0.16-0.15,0.26-0.27,0.27c-0.11,0-0.22-0.06-0.27-0.2
		c-0.14-0.42-0.15-0.88-0.2-1.31c-0.05-0.47-0.1-0.95-0.15-1.42c-0.1-0.94-0.17-1.89-0.24-2.84c-0.13-1.89-0.23-3.79-0.29-5.69
		c-0.06-1.9-0.08-3.8-0.06-5.7C97.98,35.05,98,34.1,98.03,33.15L98.03,33.15z M101.2,29.69c0-0.01,0.03-0.01,0.03,0.01
		c0.17,0.78,0.16,1.62,0.18,2.42c0.02,0.86,0.02,1.73,0.03,2.6c0.03,3.01,0.09,6.03,0.17,9.04c0.04,1.49,0.1,2.98,0.17,4.47
		c0.06,1.16,0.2,2.35,0.2,3.52c0,0.35-0.01,0.69-0.04,1.03c-0.03,0.31-0.49,0.42-0.57,0.08c-0.2-0.84-0.23-1.72-0.3-2.58
		c-0.06-0.83-0.1-1.67-0.15-2.51c-0.16-3.04-0.23-6.08-0.23-9.13c0-1.52,0.04-3.05,0.09-4.57C100.82,32.64,100.8,31.08,101.2,29.69z
		"/>
	<path d="M103.55,29.79c0-0.17,0.25-0.17,0.26,0c0.13,3.58,0.28,7.16,0.42,10.75c0.13,3.58,0.35,7.16,0.4,10.74
		c0,0.42-0.61,0.41-0.65,0c-0.32-3.56-0.39-7.16-0.47-10.74c-0.03-1.37-0.04-2.74-0.04-4.11C103.46,34.21,103.5,32,103.55,29.79z
		 M105.9,29.73c0.01-0.23,0.36-0.23,0.36,0c-0.02,3.53,0.04,7.06,0.15,10.58c0.11,3.52,0.34,7.04,0.46,10.56
		c0.01,0.43-0.62,0.41-0.66,0C105.51,43.86,105.62,36.75,105.9,29.73z M107.99,29.67c0-0.14,0.23-0.15,0.22,0
		c-0.01,0.96,0.08,1.91,0.09,2.87c0.01,0.96,0.04,1.91,0.06,2.87c0.03,1.88,0.09,3.76,0.15,5.64c0.12,3.79,0.36,7.57,0.62,11.35
		c0.02,0.24-0.15,0.36-0.33,0.36c-0.19,0.01-0.4-0.12-0.42-0.36c-0.37-3.77-0.56-7.56-0.66-11.35c-0.05-1.88-0.04-3.76-0.02-5.64
		c0.01-0.96,0.05-1.91,0.09-2.87C107.83,31.57,107.95,30.63,107.99,29.67z M109.81,29.61c0-0.09,0.08-0.14,0.15-0.14
		c0.06,0,0.13,0.03,0.14,0.1c0.24,1.75,0.19,3.52,0.14,5.28c-0.05,1.81-0.06,3.62,0.01,5.43c0.06,1.82,0.17,3.64,0.31,5.46
		c0.14,1.83,0.42,3.71,0.33,5.54c-0.01,0.22-0.33,0.28-0.38,0.05c-0.42-1.75-0.5-3.62-0.64-5.41c-0.14-1.81-0.26-3.64-0.3-5.46
		c-0.04-1.81,0-3.62,0.1-5.43C109.76,33.22,109.87,31.42,109.81,29.61z M111.66,29.79c0-0.01,0.02-0.01,0.02,0
		c0.37,3.72,0.45,7.47,0.69,11.2c0.24,3.73,0.62,7.45,1.06,11.15c0.05,0.39-0.64,0.48-0.69,0.09c-0.53-3.7-0.89-7.43-1.12-11.16
		C111.41,37.33,111.27,33.53,111.66,29.79z M114.16,30.49c0-0.11,0.17-0.11,0.17,0c0.03,3.34,0.14,6.68,0.24,10.02
		c0.1,3.33,0.27,6.68,0.18,10.01c-0.01,0.29-0.42,0.28-0.44,0C114,47.2,113.99,43.83,114,40.5
		C114.01,37.16,114.09,33.82,114.16,30.49z M116.09,29.85c0.01-0.25,0.39-0.25,0.39,0c0,6.85,0.25,13.7,0.29,20.55
		c0,0.51-0.75,0.5-0.78,0C115.61,43.56,115.79,36.69,116.09,29.85z M118.21,30.02c-0.01-0.18,0.27-0.18,0.28,0
		c0.07,1.7,0.25,3.4,0.36,5.1c0.1,1.67,0.22,3.34,0.33,5.01c0.23,3.37,0.53,6.73,0.75,10.09c0.03,0.39-0.55,0.37-0.6,0
		c-0.39-3.35-0.61-6.72-0.81-10.09c-0.1-1.7-0.18-3.4-0.24-5.1C118.22,33.36,118.26,31.69,118.21,30.02z M120.71,31.51
		c0.03-0.48,0.15-0.95,0.17-1.43c0.01-0.13,0.21-0.13,0.21,0c0,0.48,0.09,0.95,0.11,1.43c0.01,0.42,0.01,0.84,0.02,1.26
		c0.01,0.84,0.05,1.67,0.05,2.51c0.01,1.73,0.04,3.47,0.08,5.2c0.06,3.01,0.27,6.01,0.27,9.02c0,0.46,0,0.91-0.02,1.37
		c-0.01,0.21-0.34,0.27-0.37,0.05c-0.53-3.42-0.56-6.9-0.64-10.35c-0.04-1.76-0.05-3.53-0.02-5.29c0.01-0.84,0.05-1.67,0.09-2.51
		C120.67,32.35,120.68,31.93,120.71,31.51L120.71,31.51z"/>
	<path d="M123.54,29.84c0.01-0.09,0.16-0.09,0.18,0c0.26,1.83,0.2,3.73,0.23,5.56c0.03,1.85,0.03,3.7,0.04,5.55s-0.01,3.7-0.02,5.55
		c-0.01,1.91,0.02,3.82-0.17,5.73c-0.02,0.21-0.31,0.21-0.33,0c-0.19-1.9-0.16-3.81-0.17-5.72c-0.01-1.5-0.02-3-0.02-4.5
		c0-0.35,0-0.7,0-1.04c0.01-1.85,0.02-3.7,0.04-5.55C123.34,33.57,123.28,31.67,123.54,29.84z M126.09,29.59
		c0.03-0.04,0.1-0.05,0.13,0c0.17,0.35,0.14,0.72,0.12,1.1c-0.02,0.47-0.05,0.95-0.07,1.42c-0.05,0.95-0.12,1.9-0.16,2.84
		c-0.09,1.87-0.14,3.74-0.14,5.6c-0.01,1.87,0.03,3.74,0.11,5.6c0.08,1.89,0.28,3.79,0.33,5.68c0.01,0.32-0.52,0.41-0.57,0.08
		c-0.28-1.84-0.35-3.73-0.44-5.58c-0.08-1.9-0.12-3.8-0.12-5.69s0.05-3.8,0.15-5.69c0.05-0.95,0.1-1.9,0.19-2.84
		c0.04-0.47,0.1-0.95,0.15-1.42C125.82,30.3,125.85,29.91,126.09,29.59z M128.26,29.94c0.02-0.19,0.32-0.19,0.3,0
		c-0.08,0.93-0.06,1.89-0.12,2.82c-0.06,0.94-0.1,1.88-0.14,2.83c-0.06,1.83-0.12,3.66-0.12,5.49c0,1.83,0.03,3.66,0.1,5.49
		c0.08,1.88,0.27,3.78,0.22,5.65c-0.01,0.25-0.4,0.32-0.45,0.06c-0.36-1.8-0.43-3.71-0.5-5.54c-0.08-1.86-0.12-3.72-0.09-5.58
		c0.02-1.86,0.08-3.72,0.2-5.58c0.06-0.94,0.14-1.88,0.22-2.83C127.97,31.81,128.15,30.89,128.26,29.94z M130.72,30.16
		c0.01-0.08,0.12-0.05,0.13,0.01c0.1,1.86-0.03,3.75-0.05,5.61c-0.03,1.84-0.06,3.68-0.09,5.52c-0.05,3.71,0.04,7.43,0.01,11.14
		c0,0.36-0.54,0.35-0.55,0c-0.21-3.74-0.16-7.49-0.09-11.23c0.04-1.84,0.09-3.69,0.2-5.53C130.37,33.86,130.42,31.98,130.72,30.16z
		 M132.56,30.36c0.04-0.2,0.31-0.13,0.33,0.05c0.09,0.94,0.03,1.9,0,2.85c-0.02,0.89-0.03,1.78-0.05,2.67
		c-0.04,1.79-0.06,3.57-0.08,5.35c-0.01,1.79-0.01,3.57,0.01,5.35c0.01,0.89,0.03,1.78,0.05,2.67c0.02,0.91,0.06,1.83-0.08,2.73
		c-0.03,0.19-0.34,0.18-0.38,0c-0.21-0.89-0.22-1.82-0.24-2.73c-0.02-0.89-0.04-1.78-0.05-2.67c-0.03-1.81-0.04-3.63-0.02-5.44
		c0.01-1.81,0.04-3.63,0.12-5.44c0.04-0.89,0.08-1.78,0.13-2.67C132.36,32.18,132.39,31.26,132.56,30.36z M134.51,29.64
		c0.02-0.12,0.1-0.17,0.19-0.18c0.13-0.01,0.27,0.09,0.28,0.24c0.1,0.94,0.01,1.91,0,2.85c-0.01,0.95-0.03,1.9-0.04,2.85
		c-0.01,1.9-0.01,3.8,0.01,5.71c0.03,1.9,0.04,3.81,0.08,5.71c0.04,1.9,0.13,3.8,0.08,5.71c0,0.19-0.13,0.28-0.27,0.27
		c-0.14,0-0.28-0.1-0.3-0.27c-0.2-1.68-0.26-3.38-0.31-5.08c-0.09-3-0.12-6-0.08-9.01c0.02-1.49,0.05-2.97,0.1-4.46
		C134.3,32.56,134.25,31.05,134.51,29.64z M136.71,29.62c0.01-0.05,0.09-0.05,0.1,0c0.29,1.85,0.27,3.7,0.3,5.57
		c0.03,1.88,0.02,3.77,0.02,5.65c0,3.8-0.05,7.59-0.16,11.39c-0.01,0.27-0.41,0.27-0.41,0c-0.11-3.79-0.16-7.59-0.16-11.39
		c0-1.88-0.01-3.77,0.02-5.65C136.44,33.32,136.42,31.46,136.71,29.62z M138.69,30.11c0.04-0.08,0.18-0.08,0.21,0
		c0.35,0.73,0.25,1.77,0.28,2.56c0.03,0.92,0.03,1.85,0.04,2.77c0.01,1.85,0.01,3.69,0.01,5.54c-0.01,1.88-0.02,3.75-0.05,5.63
		c-0.02,1.85-0.01,3.69-0.14,5.54c-0.02,0.31-0.46,0.31-0.49,0c-0.13-1.87-0.12-3.75-0.14-5.63c-0.02-1.85-0.04-3.69-0.04-5.54
		c0-1.88-0.01-3.75,0.01-5.63c0.01-0.89,0.01-1.79,0.04-2.68C138.44,31.88,138.34,30.85,138.69,30.11z M141.03,30.11
		c0.02-0.12,0.22-0.12,0.23,0c0.26,1.83,0.17,3.74,0.18,5.59c0.01,1.31,0.02,2.62,0.02,3.93c0,0.54,0,1.08,0,1.62
		c-0.01,1.85-0.02,3.7-0.04,5.55c-0.02,1.85,0.05,3.74-0.2,5.57c-0.01,0.06-0.12,0.06-0.12,0c-0.25-1.83-0.18-3.72-0.2-5.57
		s-0.03-3.7-0.04-5.55s0-3.7,0.01-5.55S140.76,31.94,141.03,30.11z"/>
	<path d="M147.73,30.85c0.01-0.13,0.19-0.13,0.2,0c0.26,3.65,0.19,7.35,0.19,11.01c0,1.82,0,3.64-0.02,5.46
		c0,0.9-0.01,1.79-0.02,2.69c0,0.95,0.06,1.92-0.03,2.87c-0.03,0.28-0.41,0.28-0.44,0c-0.1-0.95-0.03-1.92-0.03-2.87
		c0-0.9-0.01-1.79-0.02-2.69c-0.01-1.82-0.02-3.64-0.02-5.46c0-1.3-0.01-2.6-0.01-3.9C147.53,35.59,147.56,33.21,147.73,30.85z
		 M149.48,30.69c0-0.07,0.11-0.07,0.11,0c0,0.96,0.09,1.91,0.11,2.87c0.02,0.93,0.03,1.85,0.05,2.78c0.03,1.85,0.04,3.71,0.05,5.56
		c0.03,3.74-0.01,7.47-0.04,11.21c0,0.3-0.45,0.3-0.46,0c-0.03-3.74-0.07-7.47-0.04-11.21c0.01-1.89,0.02-3.77,0.05-5.65
		c0.01-0.9,0.02-1.79,0.04-2.69C149.4,32.6,149.48,31.65,149.48,30.69z M151.36,52.9c-0.02,0.12-0.22,0.12-0.24,0
		c-0.16-0.89-0.17-1.81-0.19-2.71c-0.03-0.89-0.05-1.79-0.06-2.68c-0.02-1.79-0.04-3.57-0.04-5.36c0-3.62-0.1-7.27,0.04-10.89
		c0.02-0.48,0.73-0.48,0.75,0c0.13,3.62,0.03,7.26,0.03,10.89c0,1.79-0.02,3.57-0.04,5.36c-0.01,0.89-0.04,1.79-0.06,2.68
		C151.53,51.09,151.53,52,151.36,52.9z M153.27,30.93c0-0.11,0.17-0.11,0.17,0c0.04,1.89,0.14,3.77,0.19,5.65
		c0.05,1.85,0.06,3.71,0.07,5.56c0.01,1.89,0.01,3.77,0.01,5.65c0,0.9-0.01,1.8-0.01,2.69c0,0.9,0.09,1.88-0.08,2.76
		c-0.02,0.13-0.15,0.2-0.26,0.2s-0.24-0.07-0.26-0.2c-0.17-0.89-0.07-1.86-0.08-2.76c0-0.93-0.01-1.85-0.01-2.78
		c-0.01-1.85,0-3.71,0.01-5.56c0.01-1.89,0.03-3.77,0.07-5.65C153.13,34.64,153.23,32.79,153.27,30.93z M155.36,52.72
		c-0.01,0.13-0.18,0.13-0.19,0c-0.21-1.81-0.18-3.63-0.19-5.45c-0.01-1.79-0.04-3.57-0.04-5.36c0-1.81,0-3.63,0-5.45
		c0-1.78-0.06-3.58,0.09-5.36c0.03-0.3,0.44-0.3,0.46,0c0.15,1.81,0.09,3.64,0.09,5.45c0,1.79,0,3.57,0,5.36
		c0,1.81-0.02,3.63-0.04,5.45C155.53,49.16,155.56,50.95,155.36,52.72z M157.13,52.89c0,0.01-0.02,0.01-0.02,0
		c-0.28-1.62-0.25-3.28-0.28-4.92c-0.09-6-0.05-11.99-0.01-17.99c0-0.38,0.59-0.38,0.59,0c0.01,1.7,0.02,3.4,0.03,5.1
		c0.02,3.01,0.03,6.03,0.02,9.04c-0.01,1.49-0.04,2.98-0.07,4.47C157.37,50.03,157.37,51.47,157.13,52.89z M159.03,30.71
		c0-0.16,0.24-0.16,0.24,0c0.01,0.95,0.13,1.91,0.16,2.87c0.03,0.9,0.04,1.79,0.05,2.69c0.01,1.82,0.01,3.64,0.02,5.46
		c0.01,3.67,0.04,7.34-0.01,11.01c-0.01,0.43-0.66,0.43-0.67,0c-0.05-3.67-0.03-7.34-0.01-11.01c0.01-1.82,0.01-3.64,0.02-5.46
		c0.01-0.9,0.02-1.79,0.05-2.69C158.9,32.62,159.01,31.67,159.03,30.71z M161.07,30.94c0.01-0.09,0.14-0.09,0.15,0
		c0.29,3.65,0.24,7.34,0.26,10.99c0.01,1.82,0.02,3.64,0.01,5.45c-0.01,1.84,0.08,3.71-0.13,5.54c-0.03,0.29-0.42,0.29-0.45,0
		c-0.21-1.83-0.12-3.7-0.13-5.54c-0.01-1.82,0-3.64,0.01-5.45C160.83,38.28,160.77,34.59,161.07,30.94z M163.08,52.66
		c-0.02,0.06-0.1,0.06-0.13,0c-0.27-0.75-0.22-1.65-0.24-2.43c-0.03-0.83-0.02-1.67-0.02-2.51c-0.01-3.02,0.01-6.03,0.02-9.05
		c0.01-2.98-0.08-5.98,0.05-8.96c0.01-0.17,0.14-0.26,0.27-0.25c0.12,0.01,0.23,0.09,0.24,0.25c0.08,1.7,0.05,3.4,0.04,5.1
		c-0.01,3.02,0.02,6.03,0.03,9.05c0.01,1.49,0,2.98,0,4.48c0,0.75-0.01,1.49-0.03,2.24C163.29,51.26,163.31,52.01,163.08,52.66z
		 M165.03,30.77c0-0.12,0.19-0.12,0.19,0c0.01,0.96,0.12,1.92,0.15,2.88c0.03,0.9,0.05,1.8,0.07,2.7c0.04,1.8,0.06,3.6,0.08,5.39
		c0.01,0.78,0.01,1.56,0.01,2.34c0,2.87-0.05,5.75-0.08,8.62c-0.01,0.43-0.67,0.43-0.67,0c-0.04-3.65-0.1-7.31-0.06-10.96
		c0.02-1.8,0.04-3.6,0.08-5.39c0.02-0.9,0.03-1.8,0.07-2.7C164.92,32.69,165.02,31.73,165.03,30.77z"/>
	<path d="M167.25,29.84c0.01-0.09,0.16-0.09,0.18,0c0.26,1.83,0.2,3.73,0.23,5.56c0.03,1.85,0.03,3.7,0.04,5.55s-0.01,3.7-0.02,5.55
		c-0.01,1.91,0.02,3.82-0.17,5.73c-0.02,0.21-0.31,0.21-0.33,0c-0.19-1.9-0.16-3.81-0.17-5.72c-0.01-1.5-0.02-3-0.02-4.5
		c0-0.35,0-0.7,0-1.04c0.01-1.85,0.02-3.7,0.04-5.55C167.04,33.57,166.99,31.67,167.25,29.84z M169.8,29.59
		c0.03-0.04,0.1-0.05,0.13,0c0.17,0.35,0.14,0.72,0.12,1.1c-0.02,0.47-0.05,0.95-0.07,1.42c-0.05,0.95-0.12,1.9-0.16,2.84
		c-0.09,1.87-0.14,3.74-0.14,5.6c-0.01,1.87,0.03,3.74,0.11,5.6c0.08,1.89,0.28,3.79,0.33,5.68c0.01,0.32-0.52,0.41-0.57,0.08
		c-0.28-1.84-0.35-3.73-0.44-5.58c-0.08-1.9-0.12-3.8-0.12-5.69s0.05-3.8,0.15-5.69c0.05-0.95,0.1-1.9,0.19-2.84
		c0.04-0.47,0.1-0.95,0.15-1.42C169.53,30.3,169.56,29.91,169.8,29.59z M171.97,29.94c0.02-0.19,0.32-0.19,0.3,0
		c-0.08,0.93-0.06,1.89-0.12,2.82c-0.06,0.94-0.1,1.88-0.14,2.83c-0.06,1.83-0.12,3.66-0.12,5.49c0,1.83,0.03,3.66,0.1,5.49
		c0.08,1.88,0.27,3.78,0.22,5.65c-0.01,0.25-0.4,0.32-0.45,0.06c-0.36-1.8-0.43-3.71-0.5-5.54c-0.08-1.86-0.12-3.72-0.09-5.58
		c0.02-1.86,0.08-3.72,0.2-5.58c0.06-0.94,0.14-1.88,0.22-2.83C171.68,31.81,171.86,30.89,171.97,29.94z M174.43,30.16
		c0.01-0.08,0.12-0.05,0.13,0.01c0.1,1.86-0.02,3.75-0.05,5.61c-0.03,1.84-0.06,3.68-0.09,5.52c-0.05,3.71,0.04,7.43,0.01,11.14
		c0,0.36-0.54,0.35-0.55,0c-0.21-3.74-0.16-7.49-0.09-11.23c0.04-1.84,0.09-3.69,0.2-5.53C174.08,33.86,174.13,31.98,174.43,30.16z
		 M176.27,30.36c0.04-0.2,0.31-0.13,0.33,0.05c0.09,0.94,0.03,1.9,0,2.85c-0.02,0.89-0.03,1.78-0.05,2.67
		c-0.04,1.79-0.06,3.57-0.08,5.35c-0.01,1.79-0.01,3.57,0.01,5.35c0.01,0.89,0.03,1.78,0.05,2.67c0.02,0.91,0.06,1.83-0.08,2.73
		c-0.03,0.19-0.34,0.18-0.38,0c-0.21-0.89-0.22-1.82-0.24-2.73c-0.02-0.89-0.04-1.78-0.05-2.67c-0.03-1.81-0.04-3.63-0.02-5.44
		c0.01-1.81,0.04-3.63,0.12-5.44c0.04-0.89,0.08-1.78,0.13-2.67C176.07,32.18,176.09,31.26,176.27,30.36z M178.21,29.64
		c0.02-0.12,0.1-0.17,0.19-0.18c0.13-0.01,0.27,0.09,0.28,0.24c0.1,0.94,0.01,1.91,0,2.85c-0.01,0.95-0.03,1.9-0.04,2.85
		c-0.01,1.9-0.01,3.8,0.01,5.71c0.03,1.9,0.04,3.81,0.08,5.71s0.13,3.8,0.08,5.71c0,0.19-0.14,0.28-0.27,0.27
		c-0.14,0-0.28-0.1-0.3-0.27c-0.2-1.68-0.26-3.38-0.31-5.08c-0.09-3-0.12-6-0.08-9.01c0.02-1.49,0.05-2.97,0.1-4.46
		C178.01,32.56,177.96,31.05,178.21,29.64z M180.42,29.62c0.01-0.05,0.09-0.05,0.1,0c0.29,1.85,0.27,3.7,0.3,5.57
		c0.03,1.88,0.02,3.77,0.02,5.65c0,3.8-0.05,7.59-0.16,11.39c-0.01,0.27-0.41,0.27-0.41,0c-0.11-3.79-0.16-7.59-0.16-11.39
		c0-1.88-0.01-3.77,0.02-5.65C180.15,33.32,180.13,31.46,180.42,29.62z M182.39,30.11c0.04-0.08,0.18-0.08,0.21,0
		c0.35,0.73,0.25,1.77,0.28,2.56c0.03,0.92,0.03,1.85,0.04,2.77c0.01,1.85,0.01,3.69,0.01,5.54c-0.01,1.88-0.02,3.75-0.05,5.63
		c-0.02,1.85-0.01,3.69-0.14,5.54c-0.02,0.31-0.46,0.31-0.49,0c-0.13-1.87-0.12-3.75-0.14-5.63c-0.02-1.85-0.04-3.69-0.04-5.54
		c0-1.88-0.01-3.75,0.01-5.63c0.01-0.89,0.01-1.79,0.04-2.68C182.14,31.88,182.05,30.85,182.39,30.11z M184.73,30.11
		c0.02-0.12,0.22-0.12,0.23,0c0.26,1.83,0.17,3.74,0.18,5.59c0.01,1.31,0.02,2.62,0.02,3.93c0,0.54,0,1.08,0,1.62
		c-0.01,1.85-0.02,3.7-0.04,5.55c-0.02,1.85,0.05,3.74-0.2,5.57c-0.01,0.06-0.12,0.06-0.12,0c-0.25-1.83-0.18-3.72-0.2-5.57
		s-0.03-3.7-0.04-5.55s0-3.7,0.01-5.55S184.47,31.94,184.73,30.11z"/>
	<path d="M187.06,30.1c0.04-0.1,0.2-0.12,0.23,0c0.19,0.81,0.07,1.71,0.05,2.54c-0.02,0.9-0.05,1.79-0.06,2.69
		c-0.04,1.79-0.06,3.58-0.06,5.37c-0.01,3.58,0.08,7.17,0.07,10.75c0,0.48-0.71,0.47-0.73,0c-0.11-1.98-0.15-3.96-0.15-5.95
		c0-1.6,0.03-3.2,0.06-4.8c0.04-1.79,0.1-3.58,0.17-5.37c0.04-0.9,0.08-1.79,0.13-2.69C186.83,31.81,186.79,30.89,187.06,30.1z
		 M189.51,29.71c0.01-0.08,0.12-0.05,0.13,0.02c0.11,0.94,0.09,1.9,0.11,2.84c0.02,0.89,0.02,1.77,0.04,2.66
		c0.03,1.81,0.08,3.61,0.13,5.42c0.11,3.64,0.33,7.27,0.54,10.91c0.03,0.47-0.67,0.45-0.72,0c-0.42-3.65-0.6-7.33-0.66-11
		c-0.03-1.84-0.01-3.67,0.04-5.51C189.17,33.29,189.16,31.44,189.51,29.71z M191.27,30.37c0.01-0.23,0.37-0.23,0.36,0
		c-0.1,3.64-0.06,7.29,0.09,10.93s0.48,7.27,0.66,10.9c0.01,0.29-0.47,0.36-0.52,0.07c-0.58-3.58-0.78-7.25-0.85-10.88
		C190.95,37.71,191.04,34.04,191.27,30.37z M193.3,29.61c0-0.09,0.06-0.14,0.13-0.14c0.08-0.01,0.16,0.04,0.17,0.14
		c-0.02,1.84,0.08,3.69,0.1,5.54c0.02,1.82,0.06,3.63,0.1,5.45c0.06,3.66,0.23,7.31,0.17,10.98c0,0.28-0.4,0.27-0.43,0
		c-0.41-3.65-0.48-7.31-0.51-10.98c-0.02-1.81,0.01-3.63,0.04-5.45C193.1,33.29,193.25,31.46,193.3,29.61z M195.02,30.31
		c0-0.28,0.42-0.28,0.44,0c0.37,7.1,0.85,14.21,1.1,21.31c0.01,0.44-0.64,0.43-0.68,0C195.31,44.54,195.14,37.41,195.02,30.31z
		 M197.22,30.02c0-0.18,0.26-0.17,0.27,0c0.29,3.63,0.5,7.27,0.79,10.91c0.14,1.8,0.28,3.6,0.45,5.4c0.17,1.82,0.4,3.65,0.45,5.48
		c0.01,0.25-0.39,0.3-0.44,0.06c-0.37-1.76-0.53-3.57-0.7-5.36c-0.18-1.83-0.34-3.65-0.47-5.49
		C197.32,37.34,197.16,33.69,197.22,30.02z M198.94,29.9c0.01-0.23,0.37-0.24,0.37,0c-0.04,0.92,0.06,1.86,0.13,2.78
		c0.06,0.87,0.15,1.74,0.24,2.61c0.17,1.83,0.34,3.67,0.51,5.5s0.32,3.67,0.48,5.5c0.15,1.83,0.33,3.67,0.31,5.5
		c0,0.27-0.43,0.34-0.48,0.06c-0.33-1.81-0.46-3.65-0.62-5.48c-0.15-1.83-0.31-3.67-0.45-5.5c-0.14-1.86-0.28-3.73-0.42-5.59
		c-0.07-0.87-0.12-1.73-0.15-2.61C198.83,31.74,198.89,30.83,198.94,29.9z M201.02,30.43c-0.01-0.18,0.25-0.17,0.27,0
		c0.92,7.51,1.54,15.08,1.7,22.65c0,0.16-0.11,0.23-0.23,0.23s-0.24-0.08-0.25-0.23C201.92,45.54,201.47,37.98,201.02,30.43z
		 M203.2,30.2c0-0.26,0.37-0.25,0.4,0c0.34,3.64,0.54,7.3,0.79,10.95c0.12,1.81,0.24,3.62,0.36,5.43c0.12,1.84,0.27,3.67,0.28,5.51
		c0,0.33-0.54,0.42-0.59,0.08c-0.49-3.61-0.61-7.3-0.81-10.94C203.43,37.56,203.23,33.88,203.2,30.2z"/>
	<path d="M211.45,30.14c0.01-0.06,0.11-0.06,0.12,0c0.13,0.83,0.06,1.66,0.05,2.5c-0.01,0.89-0.01,1.77-0.01,2.66
		c0.01,1.77,0.06,3.55,0.14,5.32c0.15,3.55,0.46,7.08,0.76,10.62c0.03,0.36-0.58,0.44-0.63,0.09c-0.52-3.51-0.74-7.07-0.81-10.61
		c-0.01-0.67-0.02-1.35-0.02-2.02c0-1.13,0.02-2.26,0.05-3.39c0.03-0.89,0.06-1.77,0.1-2.66C211.23,31.8,211.24,30.96,211.45,30.14z
		 M213.29,29.59c0-0.09,0.08-0.13,0.14-0.12c0.06,0.01,0.11,0.05,0.11,0.12c0,0.85,0.06,1.71,0.08,2.57
		c0.01,0.85,0.03,1.71,0.06,2.56c0.09,2.98,0.33,5.95,0.6,8.92c0.27,2.97,0.7,5.91,1.02,8.87c0.02,0.2-0.15,0.31-0.32,0.31
		c-0.14,0-0.28-0.07-0.31-0.23c-0.31-1.66-0.52-3.32-0.69-5c-0.32-2.99-0.53-5.99-0.63-8.99c-0.05-1.5-0.1-3-0.12-4.51
		c-0.01-0.74-0.01-1.47-0.01-2.21C213.21,31.12,213.28,30.35,213.29,29.59z M215.94,29.76c0-0.03,0.06-0.03,0.07,0
		c0.15,0.88,0.18,1.8,0.23,2.69s0.08,1.79,0.12,2.68c0.09,1.84,0.2,3.69,0.31,5.53s0.24,3.68,0.4,5.52
		c0.08,0.89,0.15,1.78,0.23,2.67c0.08,0.93,0.26,1.91,0.16,2.84c-0.03,0.26-0.37,0.32-0.46,0.06c-0.28-0.86-0.31-1.83-0.4-2.72
		c-0.09-0.92-0.17-1.84-0.25-2.76c-0.14-1.84-0.27-3.68-0.36-5.52c-0.1-1.87-0.15-3.74-0.18-5.62c-0.01-0.89-0.03-1.79-0.01-2.68
		C215.8,31.56,215.8,30.63,215.94,29.76z M218.14,30C218.14,29.99,218.15,29.99,218.14,30c0.05,3.6,0.22,7.22,0.49,10.81
		c0.27,3.6,0.62,7.18,1.09,10.76c0.06,0.43-0.69,0.52-0.75,0.1c-0.55-3.56-0.92-7.17-1.05-10.78c-0.06-1.8-0.09-3.6-0.07-5.41
		C217.88,33.66,218.01,31.83,218.14,30z M220.06,29.65c0-0.09,0.14-0.09,0.14,0.01c0.01,0.24,0.12,0.47,0.13,0.72
		c0.02,0.24,0.03,0.48,0.04,0.72c0.03,0.48,0.05,0.95,0.08,1.43c0.05,0.95,0.09,1.91,0.13,2.87c0.08,1.91,0.17,3.82,0.28,5.73
		s0.24,3.82,0.37,5.72c0.07,0.95,0.14,1.9,0.2,2.86c0.06,0.95,0.18,1.91,0.09,2.85c-0.03,0.28-0.43,0.37-0.51,0.07
		c-0.23-0.81-0.28-1.65-0.36-2.48c-0.08-0.83-0.15-1.67-0.21-2.5c-0.21-3.01-0.35-6.02-0.45-9.04c-0.05-1.49-0.1-2.98-0.1-4.48
		c0-0.75,0-1.49,0.01-2.24c0.01-0.39,0.02-0.78,0.03-1.17c0-0.17-0.01-0.36,0.01-0.54C219.97,30.01,220.05,29.83,220.06,29.65z
		 M222.63,30.29c0.01-0.3,0.46-0.3,0.46,0c0.04,3.64,0.13,7.28,0.27,10.91c0.14,3.64,0.37,7.27,0.52,10.9
		c0.02,0.55-0.78,0.52-0.84,0c-0.38-3.61-0.52-7.27-0.58-10.9C222.41,37.56,222.46,33.93,222.63,30.29z M225.9,30.42
		c0.02-0.19,0.31-0.21,0.31,0c-0.09,3.6-0.2,7.21-0.12,10.82s0.37,7.2,0.6,10.81c0.03,0.51-0.71,0.48-0.77,0
		c-0.47-3.57-0.59-7.21-0.59-10.81C225.33,37.62,225.45,34.01,225.9,30.42z M227.75,31.8c0.01-0.16,0.25-0.17,0.25,0
		c0.05,3.33,0.05,6.66,0.15,10c0.1,3.33,0.3,6.66,0.57,9.98c0,0.01,0,0.03,0,0.04c0,0.49-0.79,0.48-0.83-0.04
		C227.41,45.17,227.21,38.43,227.75,31.8z"/>
	<path d="M230.84,30.41c0.02-0.19,0.34-0.14,0.33,0.04c-0.18,3.76-0.31,7.53-0.28,11.3c0.01,1.87,0.06,3.74,0.17,5.61
		c0.05,0.95,0.12,1.9,0.18,2.84c0.06,0.91,0.18,1.81,0.04,2.72c-0.04,0.24-0.36,0.18-0.43,0c-0.31-0.87-0.34-1.81-0.41-2.72
		c-0.08-0.95-0.13-1.89-0.18-2.84c-0.09-1.9-0.13-3.8-0.13-5.7C230.12,37.9,230.33,34.14,230.84,30.41z M232.59,29.55
		c0-0.06,0.05-0.09,0.1-0.09s0.09,0.03,0.09,0.09c-0.01,0.9,0.08,1.78,0.09,2.67c0.01,0.86,0,1.72,0.01,2.59
		c0.01,3.03,0.04,6.07,0.11,9.1c0.04,1.54,0.09,3.09,0.15,4.63c0.06,1.51,0.17,3.03,0.15,4.54c0,0.21-0.2,0.33-0.38,0.33
		c-0.14,0-0.26-0.07-0.29-0.24c-0.23-1.71-0.28-3.44-0.35-5.17c-0.12-3.06-0.16-6.12-0.14-9.18c0.01-1.54,0.04-3.09,0.09-4.64
		c0.03-0.77,0.07-1.54,0.12-2.32S232.54,30.33,232.59,29.55z M234.5,30.23c0.01-0.24,0.37-0.24,0.37,0
		c-0.01,3.74,0.09,7.48,0.24,11.22c0.15,3.74,0.45,7.46,0.66,11.19c0.02,0.42-0.6,0.4-0.65,0c-0.48-3.71-0.65-7.46-0.75-11.19
		C234.27,37.71,234.33,33.98,234.5,30.23z M236.41,30.12c0-0.23,0.36-0.23,0.36,0c0,0.95,0.1,1.89,0.12,2.84
		c0.02,0.92,0.05,1.84,0.08,2.76c0.06,1.84,0.14,3.67,0.24,5.51c0.1,1.86,0.23,3.73,0.38,5.59c0.15,1.82,0.44,3.66,0.45,5.49
		c0,0.36-0.56,0.45-0.64,0.09c-0.39-1.82-0.45-3.73-0.58-5.58c-0.14-1.83-0.25-3.66-0.33-5.5c-0.09-1.84-0.15-3.67-0.17-5.51
		c-0.01-0.95-0.01-1.9-0.01-2.84C236.3,32.02,236.4,31.07,236.41,30.12z M238.95,29.71c0.01-0.04,0.07-0.03,0.07,0.01
		c0.09,1.73,0.06,3.46,0.08,5.2c0.04,2.99,0.15,6,0.38,8.98c0.23,3.02,0.63,6.01,0.94,9.02c0.04,0.36-0.56,0.44-0.63,0.09
		c-0.34-1.68-0.57-3.37-0.75-5.07c-0.33-3.06-0.54-6.15-0.55-9.23C238.46,35.72,238.46,32.67,238.95,29.71z M240.56,29.76
		c0.01-0.1,0.17-0.09,0.19,0c0.17,0.89,0.15,1.81,0.19,2.7c0.05,0.89,0.1,1.78,0.15,2.67c0.11,1.81,0.22,3.63,0.36,5.44
		c0.27,3.65,0.62,7.29,0.88,10.94c0.02,0.28-0.45,0.34-0.49,0.06c-0.5-3.62-0.78-7.27-0.99-10.92c-0.1-1.84-0.2-3.68-0.25-5.53
		c-0.03-0.89-0.05-1.78-0.06-2.67C240.52,31.56,240.44,30.65,240.56,29.76z M242.48,29.56c0-0.03,0.04-0.03,0.04-0.01
		c0.11,0.89,0.25,1.78,0.31,2.68c0.06,0.89,0.1,1.79,0.15,2.68c0.1,1.79,0.23,3.57,0.37,5.35c0.29,3.56,0.6,7.12,0.89,10.68
		c0.02,0.36-0.58,0.44-0.63,0.09c-0.48-3.54-0.8-7.11-0.99-10.67c-0.09-1.81-0.17-3.62-0.23-5.44c-0.02-0.89-0.05-1.79-0.06-2.68
		C242.33,31.34,242.42,30.45,242.48,29.56z M245.07,31.23c0.01-0.13,0.21-0.13,0.21,0c0.02,6.92,0.48,13.83,0.86,20.74
		c0.02,0.42-0.61,0.41-0.66,0C244.79,45.09,244.82,38.14,245.07,31.23z M246.8,30.74c0-0.3,0.45-0.29,0.45,0
		c0.04,6.92,0.4,13.82,0.84,20.72c0,0.01,0,0.03,0,0.04c-0.01,0.42-0.68,0.4-0.71-0.04C246.86,44.56,246.75,37.64,246.8,30.74z"/>
	<path d="M249.92,30.41c0.02-0.19,0.34-0.14,0.33,0.04c-0.18,3.76-0.31,7.53-0.28,11.3c0.01,1.87,0.06,3.74,0.17,5.61
		c0.05,0.95,0.12,1.9,0.18,2.84c0.06,0.91,0.18,1.81,0.04,2.72c-0.04,0.24-0.36,0.18-0.43,0c-0.31-0.87-0.34-1.81-0.41-2.72
		c-0.08-0.95-0.13-1.89-0.18-2.84c-0.09-1.9-0.13-3.8-0.13-5.7C249.2,37.9,249.41,34.14,249.92,30.41z M251.67,29.55
		c0-0.06,0.05-0.09,0.1-0.09s0.09,0.03,0.09,0.09c-0.01,0.9,0.08,1.78,0.09,2.67c0.01,0.86,0,1.72,0.01,2.59
		c0.01,3.03,0.04,6.07,0.11,9.1c0.04,1.54,0.09,3.09,0.16,4.63c0.06,1.51,0.17,3.03,0.15,4.54c0,0.21-0.2,0.33-0.38,0.33
		c-0.14,0-0.26-0.07-0.29-0.24c-0.23-1.71-0.28-3.44-0.35-5.17c-0.12-3.06-0.16-6.12-0.14-9.18c0.01-1.54,0.04-3.09,0.09-4.64
		c0.03-0.77,0.07-1.54,0.12-2.32S251.62,30.33,251.67,29.55z M253.58,30.23c0.01-0.24,0.37-0.24,0.37,0
		c-0.01,3.74,0.09,7.48,0.24,11.22c0.15,3.74,0.45,7.46,0.66,11.19c0.02,0.42-0.6,0.4-0.65,0c-0.47-3.71-0.65-7.46-0.75-11.19
		C253.35,37.71,253.41,33.98,253.58,30.23z M255.49,30.12c0-0.23,0.36-0.23,0.36,0c0,0.95,0.1,1.89,0.12,2.84
		c0.02,0.92,0.05,1.84,0.08,2.76c0.07,1.84,0.14,3.67,0.24,5.51c0.1,1.86,0.23,3.73,0.38,5.59c0.15,1.82,0.44,3.66,0.45,5.49
		c0,0.36-0.57,0.45-0.64,0.09c-0.38-1.82-0.45-3.73-0.58-5.58c-0.14-1.83-0.25-3.66-0.33-5.5c-0.09-1.84-0.15-3.67-0.17-5.51
		c-0.01-0.95-0.01-1.9-0.01-2.84C255.38,32.02,255.48,31.07,255.49,30.12z M258.03,29.71c0.01-0.04,0.07-0.03,0.07,0.01
		c0.09,1.73,0.06,3.46,0.08,5.2c0.04,2.99,0.15,6,0.38,8.98c0.23,3.02,0.63,6.01,0.94,9.02c0.04,0.36-0.56,0.44-0.63,0.09
		c-0.34-1.68-0.57-3.37-0.75-5.07c-0.33-3.06-0.54-6.15-0.55-9.23C257.54,35.72,257.54,32.67,258.03,29.71z M259.64,29.76
		c0.01-0.1,0.17-0.09,0.19,0c0.17,0.89,0.15,1.81,0.19,2.7c0.05,0.89,0.1,1.78,0.16,2.67c0.12,1.81,0.22,3.63,0.36,5.44
		c0.27,3.65,0.62,7.29,0.87,10.94c0.02,0.28-0.45,0.34-0.49,0.06c-0.5-3.62-0.78-7.27-0.99-10.92c-0.1-1.84-0.2-3.68-0.25-5.53
		c-0.02-0.89-0.05-1.78-0.06-2.67C259.6,31.56,259.52,30.65,259.64,29.76z M261.56,29.56c0-0.03,0.04-0.03,0.04-0.01
		c0.11,0.89,0.25,1.78,0.31,2.68c0.06,0.89,0.1,1.79,0.15,2.68c0.1,1.79,0.23,3.57,0.38,5.35c0.29,3.56,0.6,7.12,0.88,10.68
		c0.03,0.36-0.58,0.44-0.63,0.09c-0.48-3.54-0.8-7.11-0.99-10.67c-0.09-1.81-0.17-3.62-0.23-5.44c-0.03-0.89-0.05-1.79-0.06-2.68
		C261.41,31.34,261.5,30.45,261.56,29.56z M264.15,31.23c0.01-0.13,0.21-0.13,0.21,0c0.02,6.92,0.47,13.83,0.86,20.74
		c0.02,0.42-0.61,0.41-0.66,0C263.87,45.09,263.9,38.14,264.15,31.23z M265.88,30.74c0-0.3,0.45-0.29,0.45,0
		c0.04,6.92,0.4,13.82,0.84,20.72c0,0.01,0,0.03,0,0.04c-0.01,0.42-0.68,0.4-0.71-0.04C265.94,44.56,265.83,37.64,265.88,30.74z"/>
	<path d="M268.93,30.1c0.04-0.1,0.2-0.12,0.23,0c0.19,0.81,0.07,1.71,0.05,2.54c-0.02,0.9-0.05,1.79-0.07,2.69
		c-0.04,1.79-0.06,3.58-0.06,5.37c-0.01,3.58,0.08,7.17,0.07,10.75c0,0.48-0.71,0.47-0.73,0c-0.11-1.98-0.15-3.96-0.15-5.95
		c0-1.6,0.02-3.2,0.06-4.8c0.04-1.79,0.1-3.58,0.17-5.37c0.04-0.9,0.08-1.79,0.13-2.69C268.7,31.81,268.65,30.89,268.93,30.1z
		 M271.37,29.71c0.01-0.08,0.12-0.05,0.13,0.02c0.12,0.94,0.09,1.9,0.11,2.84c0.02,0.89,0.03,1.77,0.04,2.66
		c0.03,1.81,0.08,3.61,0.13,5.42c0.11,3.64,0.33,7.27,0.54,10.91c0.03,0.47-0.67,0.45-0.72,0c-0.42-3.65-0.6-7.33-0.66-11
		c-0.03-1.84-0.01-3.67,0.04-5.51C271.04,33.29,271.02,31.44,271.37,29.71z M273.14,30.37c0.01-0.23,0.37-0.23,0.36,0
		c-0.1,3.64-0.06,7.29,0.09,10.93s0.48,7.27,0.66,10.9c0.01,0.29-0.47,0.36-0.52,0.07c-0.58-3.58-0.78-7.25-0.85-10.88
		C272.81,37.71,272.91,34.04,273.14,30.37z M275.17,29.61c0-0.09,0.06-0.14,0.13-0.14c0.08-0.01,0.17,0.04,0.17,0.14
		c-0.02,1.84,0.08,3.69,0.1,5.54c0.02,1.82,0.06,3.63,0.1,5.45c0.06,3.66,0.23,7.31,0.17,10.98c0,0.28-0.4,0.27-0.43,0
		c-0.41-3.65-0.47-7.31-0.51-10.98c-0.02-1.81,0.01-3.63,0.04-5.45C274.96,33.29,275.11,31.46,275.17,29.61z M276.88,30.31
		c0-0.28,0.42-0.28,0.44,0c0.37,7.1,0.85,14.21,1.1,21.31c0.01,0.44-0.64,0.43-0.68,0C277.18,44.54,277,37.41,276.88,30.31z
		 M279.08,30.02c0-0.18,0.26-0.17,0.27,0c0.29,3.63,0.5,7.27,0.79,10.91c0.14,1.8,0.28,3.6,0.45,5.4c0.17,1.82,0.4,3.65,0.45,5.48
		c0.01,0.25-0.38,0.3-0.44,0.06c-0.37-1.76-0.53-3.57-0.7-5.36c-0.18-1.83-0.34-3.65-0.47-5.49
		C279.19,37.34,279.02,33.69,279.08,30.02z M280.81,29.9c0.01-0.23,0.38-0.24,0.37,0c-0.04,0.92,0.06,1.86,0.13,2.78
		c0.06,0.87,0.15,1.74,0.24,2.61c0.17,1.83,0.34,3.67,0.51,5.5s0.32,3.67,0.48,5.5s0.33,3.67,0.31,5.5c0,0.27-0.43,0.34-0.48,0.06
		c-0.33-1.81-0.46-3.65-0.62-5.48c-0.15-1.83-0.31-3.67-0.45-5.5c-0.14-1.86-0.28-3.73-0.42-5.59c-0.07-0.87-0.12-1.73-0.15-2.61
		C280.69,31.74,280.76,30.83,280.81,29.9z M282.89,30.43c-0.01-0.18,0.25-0.17,0.27,0c0.92,7.51,1.54,15.08,1.7,22.65
		c0,0.16-0.11,0.23-0.23,0.23c-0.12,0-0.24-0.08-0.26-0.23C283.79,45.54,283.34,37.98,282.89,30.43z M285.06,30.2
		c0-0.26,0.37-0.25,0.4,0c0.34,3.64,0.54,7.3,0.79,10.95c0.12,1.81,0.24,3.62,0.36,5.43c0.12,1.84,0.27,3.67,0.28,5.51
		c0,0.33-0.54,0.42-0.59,0.08c-0.49-3.61-0.61-7.3-0.81-10.94C285.29,37.56,285.09,33.88,285.06,30.2z"/>
	<path d="M288.49,30.14c0.01-0.06,0.11-0.06,0.12,0c0.13,0.83,0.06,1.66,0.05,2.5c-0.01,0.89-0.01,1.77-0.01,2.66
		c0.01,1.77,0.07,3.55,0.14,5.32c0.15,3.55,0.46,7.08,0.76,10.62c0.03,0.36-0.58,0.44-0.63,0.09c-0.52-3.51-0.74-7.07-0.81-10.61
		c-0.01-0.67-0.02-1.35-0.02-2.02c0-1.13,0.02-2.26,0.05-3.39c0.02-0.89,0.06-1.77,0.1-2.66C288.27,31.8,288.28,30.96,288.49,30.14z
		 M290.33,29.59c0-0.09,0.08-0.13,0.14-0.12c0.06,0.01,0.11,0.05,0.11,0.12c0,0.85,0.06,1.71,0.08,2.57
		c0.01,0.85,0.03,1.71,0.06,2.56c0.09,2.98,0.33,5.95,0.6,8.92c0.27,2.97,0.7,5.91,1.02,8.87c0.02,0.2-0.15,0.31-0.33,0.31
		c-0.14,0-0.28-0.07-0.31-0.23c-0.31-1.66-0.52-3.32-0.69-5c-0.32-2.99-0.53-5.99-0.63-8.99c-0.05-1.5-0.1-3-0.12-4.51
		c-0.01-0.74-0.01-1.47-0.01-2.21C290.25,31.12,290.32,30.35,290.33,29.59z M292.98,29.76c0-0.03,0.06-0.03,0.07,0
		c0.15,0.88,0.18,1.8,0.23,2.69c0.05,0.89,0.08,1.79,0.12,2.68c0.09,1.84,0.2,3.69,0.31,5.53s0.24,3.68,0.4,5.52
		c0.08,0.89,0.15,1.78,0.23,2.67c0.08,0.93,0.26,1.91,0.16,2.84c-0.03,0.26-0.38,0.32-0.46,0.06c-0.28-0.86-0.31-1.83-0.4-2.72
		c-0.09-0.92-0.17-1.84-0.24-2.76c-0.14-1.84-0.27-3.68-0.36-5.52c-0.1-1.87-0.15-3.74-0.18-5.62c-0.01-0.89-0.03-1.79-0.01-2.68
		C292.84,31.56,292.84,30.63,292.98,29.76z M295.18,30c0-0.01,0.01-0.01,0.01,0c0.04,3.6,0.21,7.22,0.48,10.81
		c0.27,3.6,0.62,7.18,1.09,10.76c0.06,0.43-0.69,0.52-0.75,0.1c-0.55-3.56-0.92-7.17-1.05-10.78c-0.06-1.8-0.09-3.6-0.07-5.41
		C294.92,33.66,295.05,31.83,295.18,30z M297.1,29.65c0-0.09,0.14-0.09,0.14,0.01c0.01,0.24,0.12,0.47,0.13,0.72
		c0.02,0.24,0.03,0.48,0.04,0.72c0.02,0.48,0.05,0.95,0.08,1.43c0.05,0.95,0.09,1.91,0.13,2.87c0.08,1.91,0.17,3.82,0.28,5.73
		s0.24,3.82,0.37,5.72c0.07,0.95,0.14,1.9,0.2,2.86c0.06,0.95,0.18,1.91,0.09,2.85c-0.03,0.28-0.43,0.37-0.51,0.07
		c-0.23-0.81-0.28-1.65-0.36-2.48c-0.08-0.83-0.15-1.67-0.21-2.5c-0.21-3.01-0.35-6.02-0.45-9.04c-0.05-1.49-0.1-2.98-0.1-4.48
		c0-0.75,0-1.49,0.01-2.24c0.01-0.39,0.02-0.78,0.03-1.17c0-0.17-0.01-0.36,0.01-0.54C297.01,30.01,297.09,29.83,297.1,29.65z
		 M299.67,30.29c0.01-0.3,0.46-0.3,0.46,0c0.04,3.64,0.13,7.28,0.27,10.91c0.14,3.64,0.37,7.27,0.52,10.9
		c0.03,0.55-0.78,0.52-0.83,0c-0.38-3.61-0.52-7.27-0.58-10.9C299.45,37.56,299.5,33.93,299.67,30.29z M302.94,30.42
		c0.03-0.19,0.31-0.21,0.31,0c-0.09,3.6-0.2,7.21-0.12,10.82c0.08,3.61,0.37,7.2,0.6,10.81c0.03,0.51-0.71,0.48-0.77,0
		c-0.47-3.57-0.59-7.21-0.59-10.81C302.37,37.62,302.49,34.01,302.94,30.42z M304.79,31.8c0.01-0.16,0.25-0.17,0.25,0
		c0.05,3.33,0.05,6.66,0.15,10c0.1,3.33,0.3,6.66,0.57,9.98c0,0.01,0,0.03,0,0.04c0,0.49-0.79,0.48-0.83-0.04
		C304.45,45.17,304.25,38.43,304.79,31.8z"/>
	<path d="M312.19,30.76c0.03-0.19,0.36-0.19,0.38,0c0.26,1.77,0.21,3.6,0.26,5.39c0.05,1.78,0.13,3.56,0.2,5.33
		c0.08,1.78,0.17,3.56,0.28,5.33c0.12,1.82,0.34,3.68,0.28,5.5c-0.01,0.43-0.68,0.55-0.77,0.1c-0.35-1.77-0.4-3.63-0.5-5.43
		s-0.18-3.61-0.24-5.42c-0.06-1.81-0.08-3.62-0.09-5.42c0-0.62-0.01-1.24-0.01-1.87C311.98,33.1,312.01,31.92,312.19,30.76z
		 M315.16,29.58c0-0.09,0.08-0.13,0.14-0.12c0.05,0.01,0.1,0.05,0.1,0.12c-0.03,0.94,0.05,1.9,0.06,2.84
		c0.01,0.95,0.01,1.89,0.02,2.84c0.03,1.86,0.08,3.73,0.16,5.59c0.15,3.75,0.45,7.5,0.76,11.25c0.03,0.38-0.62,0.47-0.67,0.09
		c-0.52-3.73-0.77-7.49-0.88-11.24c-0.05-1.9-0.06-3.79-0.03-5.68c0.01-0.95,0.04-1.89,0.09-2.84
		C314.98,31.47,315.12,30.53,315.16,29.58z M317.51,30.48c0.01-0.18,0.27-0.18,0.27-0.01c-0.02,3.5,0.09,7,0.27,10.49
		c0.18,3.5,0.58,6.97,0.84,10.45c0.03,0.35-0.54,0.42-0.6,0.08c-0.59-3.44-0.79-6.96-0.93-10.44
		C317.23,37.53,317.31,34,317.51,30.48z M320.15,30.32c0.04-0.15,0.25-0.14,0.3,0c0.26,0.82,0.22,1.79,0.28,2.64
		c0.06,0.9,0.1,1.79,0.14,2.69c0.08,1.79,0.16,3.58,0.22,5.38c0.07,1.82,0.13,3.65,0.2,5.47c0.07,1.79,0.21,3.6,0.07,5.38
		c-0.02,0.28-0.49,0.39-0.53,0.07c-0.27-1.8-0.27-3.64-0.34-5.45c-0.07-1.79-0.13-3.58-0.2-5.38c-0.07-1.79-0.12-3.58-0.18-5.38
		c-0.03-0.9-0.05-1.79-0.06-2.69C320.06,32.18,319.95,31.18,320.15,30.32z M322.98,30.35c0.02-0.07,0.13-0.08,0.15,0
		c0.2,0.86,0.1,1.84,0.12,2.71c0.01,0.96,0.02,1.91,0.02,2.87c0,1.85,0.01,3.7,0.03,5.56c0.04,3.76,0.11,7.53,0.12,11.29
		c0,0.44-0.66,0.43-0.68,0c-0.18-3.76-0.19-7.53-0.16-11.29c0.02-1.85,0.04-3.7,0.08-5.56c0.02-0.96,0.05-1.91,0.1-2.87
		C322.8,32.19,322.73,31.2,322.98,30.35z M325.12,30.26c0.01-0.12,0.17-0.12,0.18,0c0.09,1.86,0.21,3.71,0.25,5.57
		s0.04,3.71,0.07,5.57c0.04,3.71,0.03,7.44-0.13,11.15c-0.01,0.36-0.54,0.36-0.55,0c-0.16-3.71-0.17-7.43-0.13-11.15
		c0.02-1.86,0.03-3.71,0.06-5.57C324.91,33.97,325.04,32.12,325.12,30.26z M326.7,33.15c0.03-0.91,0.03-1.84,0.2-2.74
		c0.06-0.3,0.47-0.19,0.5,0.07c0.09,0.94,0.01,1.9,0,2.85c-0.02,0.95-0.03,1.9-0.03,2.85c0,1.84,0.02,3.68,0.08,5.52
		s0.14,3.68,0.27,5.51c0.07,0.95,0.14,1.89,0.22,2.84c0.04,0.47,0.08,0.95,0.12,1.42c0.04,0.46,0.14,0.95,0.08,1.42
		c-0.02,0.16-0.15,0.26-0.27,0.27c-0.11,0-0.22-0.06-0.27-0.2c-0.14-0.42-0.15-0.88-0.2-1.31c-0.05-0.47-0.1-0.95-0.16-1.42
		c-0.1-0.94-0.17-1.89-0.24-2.84c-0.13-1.89-0.23-3.79-0.29-5.69c-0.06-1.9-0.08-3.8-0.06-5.7C326.65,35.05,326.68,34.1,326.7,33.15
		L326.7,33.15z M329.87,29.69c0-0.01,0.03-0.01,0.03,0.01c0.17,0.78,0.16,1.62,0.18,2.42c0.02,0.86,0.02,1.73,0.03,2.6
		c0.03,3.01,0.09,6.03,0.17,9.04c0.04,1.49,0.1,2.98,0.17,4.47c0.06,1.16,0.2,2.35,0.2,3.52c0,0.35-0.01,0.69-0.04,1.03
		c-0.03,0.31-0.49,0.42-0.57,0.08c-0.2-0.84-0.23-1.72-0.3-2.58c-0.06-0.83-0.1-1.67-0.15-2.51c-0.16-3.04-0.23-6.08-0.23-9.13
		c0-1.52,0.04-3.05,0.09-4.57C329.5,32.64,329.47,31.08,329.87,29.69z"/>
	<path d="M332.42,29.84c0.01-0.09,0.16-0.09,0.18,0c0.26,1.83,0.2,3.73,0.23,5.56c0.02,1.85,0.03,3.7,0.04,5.55s-0.01,3.7-0.02,5.55
		c-0.01,1.91,0.02,3.82-0.17,5.73c-0.02,0.21-0.31,0.21-0.33,0c-0.19-1.9-0.16-3.81-0.17-5.72c-0.01-1.5-0.02-3-0.02-4.5
		c0-0.35,0-0.7,0-1.04c0.01-1.85,0.02-3.7,0.04-5.55C332.21,33.57,332.16,31.67,332.42,29.84z M334.97,29.59
		c0.03-0.04,0.1-0.05,0.13,0c0.17,0.35,0.14,0.72,0.12,1.1c-0.03,0.47-0.05,0.95-0.07,1.42c-0.05,0.95-0.12,1.9-0.16,2.84
		c-0.09,1.87-0.14,3.74-0.14,5.6c-0.01,1.87,0.03,3.74,0.11,5.6c0.08,1.89,0.29,3.79,0.33,5.68c0.01,0.32-0.52,0.41-0.57,0.08
		c-0.28-1.84-0.35-3.73-0.44-5.58c-0.08-1.9-0.12-3.8-0.12-5.69c0-1.9,0.05-3.8,0.16-5.69c0.05-0.95,0.1-1.9,0.19-2.84
		c0.04-0.47,0.1-0.95,0.15-1.42C334.7,30.3,334.73,29.91,334.97,29.59z M337.14,29.94c0.02-0.19,0.32-0.19,0.3,0
		c-0.08,0.93-0.06,1.89-0.12,2.82c-0.06,0.94-0.1,1.88-0.14,2.83c-0.06,1.83-0.12,3.66-0.12,5.49c0,1.83,0.03,3.66,0.1,5.49
		c0.08,1.88,0.27,3.78,0.22,5.65c-0.01,0.25-0.4,0.32-0.45,0.06c-0.36-1.8-0.43-3.71-0.5-5.54c-0.08-1.86-0.12-3.72-0.09-5.58
		c0.02-1.86,0.08-3.72,0.2-5.58c0.06-0.94,0.14-1.88,0.22-2.83C336.85,31.81,337.03,30.89,337.14,29.94z M339.6,30.16
		c0.01-0.08,0.12-0.05,0.13,0.01c0.1,1.86-0.03,3.75-0.05,5.61c-0.03,1.84-0.06,3.68-0.09,5.52c-0.05,3.71,0.04,7.43,0.01,11.14
		c0,0.36-0.54,0.35-0.55,0c-0.21-3.74-0.16-7.49-0.09-11.23c0.04-1.84,0.09-3.69,0.2-5.53S339.3,31.98,339.6,30.16z M341.44,30.36
		c0.04-0.2,0.31-0.13,0.33,0.05c0.09,0.94,0.02,1.9,0,2.85c-0.02,0.89-0.03,1.78-0.05,2.67c-0.04,1.79-0.07,3.57-0.08,5.35
		c-0.01,1.79-0.01,3.57,0.01,5.35c0.01,0.89,0.03,1.78,0.05,2.67c0.03,0.91,0.06,1.83-0.08,2.73c-0.03,0.19-0.34,0.18-0.38,0
		c-0.21-0.89-0.22-1.82-0.24-2.73c-0.02-0.89-0.04-1.78-0.05-2.67c-0.03-1.81-0.04-3.63-0.03-5.44c0.01-1.81,0.04-3.63,0.12-5.44
		c0.04-0.89,0.08-1.78,0.13-2.67C341.24,32.18,341.26,31.26,341.44,30.36z M343.38,29.64c0.02-0.12,0.1-0.17,0.19-0.18
		c0.13-0.01,0.27,0.09,0.28,0.24c0.1,0.94,0.01,1.91,0,2.85c-0.01,0.95-0.03,1.9-0.04,2.85c-0.01,1.9-0.01,3.8,0.01,5.71
		c0.03,1.9,0.04,3.81,0.08,5.71s0.13,3.8,0.08,5.71c0,0.19-0.13,0.28-0.27,0.27c-0.14,0-0.28-0.1-0.3-0.27
		c-0.2-1.68-0.26-3.38-0.31-5.08c-0.09-3-0.12-6-0.08-9.01c0.02-1.49,0.05-2.97,0.1-4.46C343.18,32.56,343.13,31.05,343.38,29.64z
		 M345.59,29.62c0.01-0.05,0.09-0.05,0.1,0c0.29,1.85,0.27,3.7,0.3,5.57c0.03,1.88,0.02,3.77,0.02,5.65c0,3.8-0.05,7.59-0.16,11.39
		c-0.01,0.27-0.41,0.27-0.41,0c-0.11-3.79-0.16-7.59-0.16-11.39c0-1.88-0.01-3.77,0.02-5.65C345.32,33.32,345.3,31.46,345.59,29.62z
		 M347.57,30.11c0.04-0.08,0.18-0.08,0.21,0c0.35,0.73,0.25,1.77,0.28,2.56c0.03,0.92,0.03,1.85,0.04,2.77
		c0.01,1.85,0.01,3.69,0.01,5.54c-0.01,1.88-0.03,3.75-0.05,5.63c-0.02,1.85-0.01,3.69-0.14,5.54c-0.02,0.31-0.46,0.31-0.49,0
		c-0.13-1.87-0.12-3.75-0.14-5.63c-0.02-1.85-0.04-3.69-0.04-5.54c0-1.88-0.01-3.75,0.01-5.63c0.01-0.89,0.01-1.79,0.04-2.68
		C347.31,31.88,347.22,30.85,347.57,30.11z M349.9,30.11c0.02-0.12,0.22-0.12,0.23,0c0.26,1.83,0.17,3.74,0.18,5.59
		c0.01,1.31,0.01,2.62,0.01,3.93c0,0.54,0,1.08,0,1.62c-0.01,1.85-0.02,3.7-0.04,5.55c-0.02,1.85,0.05,3.74-0.2,5.57
		c-0.01,0.06-0.12,0.06-0.12,0c-0.25-1.83-0.18-3.72-0.2-5.57s-0.03-3.7-0.04-5.55s0-3.7,0.01-5.55S349.64,31.94,349.9,30.11z"/>
	<path d="M351.79,30.76c0.03-0.19,0.36-0.19,0.38,0c0.26,1.77,0.21,3.6,0.26,5.39c0.05,1.78,0.13,3.56,0.2,5.33
		c0.08,1.78,0.17,3.56,0.28,5.33c0.12,1.82,0.34,3.68,0.28,5.5c-0.01,0.43-0.68,0.55-0.77,0.1c-0.35-1.77-0.4-3.63-0.5-5.43
		s-0.18-3.61-0.24-5.42c-0.06-1.81-0.08-3.62-0.09-5.42c0-0.62-0.01-1.24-0.01-1.87C351.58,33.1,351.61,31.92,351.79,30.76z
		 M354.76,29.58c0-0.09,0.08-0.13,0.14-0.12c0.05,0.01,0.1,0.05,0.1,0.12c-0.03,0.94,0.05,1.9,0.06,2.84
		c0.01,0.95,0.01,1.89,0.02,2.84c0.03,1.86,0.08,3.73,0.16,5.59c0.15,3.75,0.45,7.5,0.76,11.25c0.03,0.38-0.62,0.47-0.67,0.09
		c-0.52-3.73-0.77-7.49-0.88-11.24c-0.05-1.9-0.06-3.79-0.03-5.68c0.01-0.95,0.04-1.89,0.09-2.84
		C354.58,31.47,354.72,30.53,354.76,29.58z M357.11,30.48c0.01-0.18,0.27-0.18,0.27-0.01c-0.02,3.5,0.09,7,0.27,10.49
		c0.18,3.5,0.58,6.97,0.84,10.45c0.03,0.35-0.54,0.42-0.6,0.08c-0.59-3.44-0.79-6.96-0.93-10.44
		C356.83,37.53,356.91,34,357.11,30.48z M359.75,30.32c0.04-0.15,0.25-0.14,0.3,0c0.26,0.82,0.22,1.79,0.28,2.64
		c0.06,0.9,0.1,1.79,0.14,2.69c0.08,1.79,0.16,3.58,0.22,5.38c0.07,1.82,0.13,3.65,0.2,5.47c0.07,1.79,0.21,3.6,0.07,5.38
		c-0.02,0.28-0.49,0.39-0.53,0.07c-0.27-1.8-0.27-3.64-0.34-5.45c-0.07-1.79-0.13-3.58-0.2-5.38c-0.07-1.79-0.12-3.58-0.18-5.38
		c-0.03-0.9-0.05-1.79-0.06-2.69C359.66,32.18,359.55,31.18,359.75,30.32z M362.58,30.35c0.02-0.07,0.13-0.08,0.15,0
		c0.2,0.86,0.1,1.84,0.12,2.71c0.01,0.96,0.02,1.91,0.02,2.87c0,1.85,0.01,3.7,0.03,5.56c0.04,3.76,0.11,7.53,0.12,11.29
		c0,0.44-0.66,0.43-0.68,0c-0.18-3.76-0.19-7.53-0.16-11.29c0.02-1.85,0.04-3.7,0.08-5.56c0.02-0.96,0.05-1.91,0.1-2.87
		C362.4,32.19,362.33,31.2,362.58,30.35z M364.72,30.26c0.01-0.12,0.17-0.12,0.18,0c0.09,1.86,0.21,3.71,0.25,5.57
		s0.04,3.71,0.07,5.57c0.04,3.71,0.03,7.44-0.13,11.15c-0.01,0.36-0.54,0.36-0.55,0c-0.16-3.71-0.17-7.43-0.13-11.15
		c0.02-1.86,0.03-3.71,0.06-5.57C364.51,33.97,364.64,32.12,364.72,30.26z M366.3,33.15c0.03-0.91,0.03-1.84,0.2-2.74
		c0.06-0.3,0.47-0.19,0.5,0.07c0.09,0.94,0.01,1.9,0,2.85c-0.02,0.95-0.03,1.9-0.03,2.85c0,1.84,0.02,3.68,0.08,5.52
		s0.14,3.68,0.27,5.51c0.07,0.95,0.14,1.89,0.22,2.84c0.04,0.47,0.08,0.95,0.12,1.42c0.04,0.46,0.14,0.95,0.08,1.42
		c-0.02,0.16-0.15,0.26-0.27,0.27c-0.11,0-0.22-0.06-0.27-0.2c-0.14-0.42-0.15-0.88-0.2-1.31c-0.05-0.47-0.1-0.95-0.16-1.42
		c-0.1-0.94-0.17-1.89-0.24-2.84c-0.13-1.89-0.23-3.79-0.29-5.69c-0.06-1.9-0.08-3.8-0.06-5.7C366.25,35.05,366.28,34.1,366.3,33.15
		L366.3,33.15z M369.47,29.69c0-0.01,0.03-0.01,0.03,0.01c0.17,0.78,0.16,1.62,0.18,2.42c0.02,0.86,0.02,1.73,0.03,2.6
		c0.03,3.01,0.09,6.03,0.17,9.04c0.04,1.49,0.1,2.98,0.17,4.47c0.06,1.16,0.2,2.35,0.2,3.52c0,0.35-0.01,0.69-0.04,1.03
		c-0.03,0.31-0.49,0.42-0.57,0.08c-0.2-0.84-0.23-1.72-0.3-2.58c-0.06-0.83-0.1-1.67-0.15-2.51c-0.16-3.04-0.23-6.08-0.23-9.13
		c0-1.52,0.04-3.05,0.09-4.57C369.1,32.64,369.07,31.08,369.47,29.69z"/>
</g>
</svg>
