<?xml version="1.0" encoding="utf-8"?>
<!-- Generator: Adobe Illustrator 26.1.0, SVG Export Plug-In . SVG Version: 6.00 Build 0)  -->
<svg version="1.1" id="Layer_1" xmlns="http://www.w3.org/2000/svg" xmlns:xlink="http://www.w3.org/1999/xlink" x="0px" y="0px"
	 viewBox="0 0 372 36.9" style="enable-background:new 0 0 372 36.9;" xml:space="preserve">
<g>
	<path d="M7.2,9.2c-0.2,0-0.4,0-0.6,0c-0.2,0-0.4,0-0.6,0c-0.1,0-0.3,0-0.4-0.1C5.4,9,5.4,8.9,5.4,8.7c0-0.1,0.1-0.2,0.2-0.4
		C5.7,8.2,5.7,8.1,5.9,8C6,8,6.1,7.9,6.2,7.8c0.1-0.1,0.3-0.1,0.4-0.1c0.2,0,0.4,0,0.5,0s0.4,0,0.5,0c0.1-0.4,0.2-0.7,0.4-1
		s0.2-0.7,0.4-1c0-0.2,0.1-0.3,0.1-0.5c0-0.2,0.1-0.3,0.2-0.5c0-0.1,0.1-0.2,0.2-0.4C9,4.1,9.1,4,9.2,4c0.1-0.1,0.2-0.1,0.4-0.2
		c0.1,0,0.3-0.1,0.4-0.1c0.2,0,0.3,0,0.4,0.1c0.1,0.1,0.1,0.2,0.1,0.4l0,0C10.4,4.9,10.2,5.5,10,6C9.8,6.6,9.7,7.1,9.5,7.7
		c0.3,0,0.6,0,0.9,0c0.3,0,0.6,0,0.9,0c0.2,0,0.3,0.1,0.4,0.1C11.9,8,12,8.1,11.9,8.3c-0.1,0.2-0.2,0.5-0.4,0.6
		c-0.2,0.2-0.5,0.3-0.7,0.3c-0.3,0-0.6,0-0.9,0s-0.6,0-0.9,0c-0.1,0.5-0.2,0.9-0.4,1.3c-0.1,0.4-0.2,0.9-0.2,1.4c0,0.1,0,0.2,0,0.4
		s0,0.4,0.1,0.6c0,0,0,0.1,0,0.2c0,0.1,0,0.2,0.1,0.2c0,0.1,0.1,0.1,0.1,0.2c0,0.1,0.1,0.1,0.2,0.1c0,0,0.1,0,0.1,0s0.1,0,0.1-0.1
		c0.1-0.1,0.3-0.2,0.4-0.3s0.3-0.1,0.5-0.1c0.1,0,0.2,0,0.3,0c0.1,0,0.2,0.1,0.2,0.1c0.1,0.1,0.1,0.1,0.2,0.2c0,0.1,0,0.2,0,0.3
		c0,0.1-0.1,0.2-0.1,0.3c-0.1,0.1-0.1,0.2-0.2,0.2c-0.2,0.2-0.5,0.4-0.9,0.6c-0.3,0.1-0.6,0.2-1,0.2c-0.3,0-0.6,0-0.8-0.1
		c-0.2-0.1-0.4-0.2-0.6-0.4C7,14.4,6.8,14.2,6.7,14c-0.1-0.2-0.2-0.5-0.2-0.7c0-0.4,0-0.8,0-1.2c0-0.4,0.1-0.8,0.2-1.2
		c0.1-0.3,0.1-0.6,0.2-0.9C7,9.8,7.1,9.5,7.2,9.2z"/>
	<path d="M15,8.3c0.3-0.2,0.6-0.4,0.9-0.6c0.3-0.1,0.7-0.2,1-0.2c0.3,0,0.6,0.1,0.8,0.2C18,7.8,18.2,8,18.3,8.2s0.3,0.5,0.4,0.7
		s0.1,0.6,0.2,0.9c0,0.3,0.1,0.6,0.1,0.9c0,0.3,0,0.6,0,0.9c0,0.3-0.1,0.6-0.1,0.9s-0.1,0.5-0.1,0.7c0,0.1-0.1,0.3-0.1,0.5
		c0,0.2-0.1,0.3-0.1,0.5c-0.1,0.3-0.3,0.5-0.5,0.6c-0.3,0.2-0.5,0.2-0.8,0.2c-0.1,0-0.3,0-0.3-0.1c-0.1,0-0.1-0.1-0.2-0.2
		s0-0.2,0-0.2s0-0.2,0-0.2c0-0.1,0-0.2,0.1-0.5c0-0.2,0.1-0.4,0.1-0.7s0-0.5,0.1-0.8c0-0.3,0-0.6,0-0.9s0-0.6,0-0.8
		s-0.1-0.5-0.1-0.7c0-0.2-0.1-0.4-0.2-0.5c-0.1-0.1-0.2-0.1-0.3-0.1c-0.2,0-0.4,0.1-0.6,0.3s-0.4,0.5-0.5,0.8
		c-0.2,0.3-0.3,0.6-0.4,0.9c-0.1,0.3-0.2,0.5-0.3,0.7c-0.1,0.3-0.2,0.6-0.3,0.8c-0.1,0.3-0.2,0.5-0.3,0.8c0,0.1-0.1,0.3-0.1,0.4
		c0,0.1-0.1,0.3-0.1,0.4c-0.1,0.2-0.3,0.4-0.5,0.5c-0.2,0.1-0.5,0.2-0.7,0.2c-0.2,0-0.3,0-0.5-0.1c-0.1-0.1-0.2-0.3-0.1-0.5
		c0.1-0.3,0.1-0.6,0.2-0.9c0.1-0.3,0.1-0.6,0.2-0.9l1.4-6.5c0-0.2,0.1-0.4,0.1-0.6s0.1-0.4,0.1-0.6c0.1-0.3,0.3-0.5,0.5-0.6
		c0.3-0.2,0.5-0.2,0.8-0.2c0.2,0,0.4,0.1,0.5,0.1c0.1,0.1,0.1,0.2,0.1,0.5c-0.1,0.6-0.2,1.2-0.4,1.8S15.1,7.7,15,8.3z"/>
	<path d="M21.9,12.1C21.9,12.1,21.9,12.1,21.9,12.1C21.9,12.2,21.9,12.2,21.9,12.1c-0.1,0.4-0.1,0.7,0.1,1c0.1,0.3,0.4,0.4,0.8,0.4
		c0.2,0,0.4,0,0.6-0.1s0.4-0.1,0.6-0.2c0.2-0.1,0.4-0.2,0.5-0.3c0.2-0.1,0.3-0.2,0.4-0.4c0.2-0.3,0.6-0.5,1-0.5
		c0.2,0,0.3,0.1,0.5,0.1c0.1,0.1,0.2,0.3,0.1,0.5c0,0.1,0,0.1-0.1,0.2c0,0.1-0.1,0.1-0.1,0.2c-0.2,0.3-0.4,0.6-0.8,0.9
		c-0.3,0.2-0.6,0.5-1,0.6c-0.4,0.2-0.7,0.3-1.1,0.4c-0.4,0.1-0.7,0.1-1.1,0.1c-0.9,0-1.5-0.2-1.9-0.7c-0.4-0.5-0.5-1.1-0.4-2
		c0.1-0.4,0.2-0.8,0.4-1.1c-0.1-0.1-0.1-0.2,0-0.3c0-0.1,0.1-0.3,0.2-0.4c0.1-0.1,0.2-0.2,0.3-0.2c0.2-0.3,0.5-0.6,0.7-1
		c0.3-0.3,0.6-0.6,0.9-0.9C23,8.3,23.3,8,23.7,7.9s0.8-0.3,1.2-0.3c0.3,0,0.5,0,0.8,0.1c0.2,0.1,0.5,0.2,0.6,0.3
		c0.2,0.1,0.3,0.3,0.4,0.5c0.1,0.2,0.1,0.5,0,0.8c0,0.2-0.1,0.4-0.3,0.7s-0.3,0.4-0.4,0.6c-0.2,0.3-0.5,0.5-0.8,0.7
		c-0.3,0.2-0.6,0.4-0.9,0.5c-0.3,0.1-0.7,0.2-1,0.3c-0.3,0.1-0.7,0.1-1,0.1c-0.1,0-0.2,0-0.3,0S22,12.1,21.9,12.1z M22.7,10.6
		c0.1,0,0.2,0,0.2,0c0.1,0,0.2,0,0.2,0c0.2,0,0.4,0,0.6,0c0.2,0,0.4-0.1,0.5-0.2c0.2-0.1,0.3-0.2,0.4-0.3c0.1-0.1,0.2-0.3,0.2-0.4
		c0-0.2,0-0.3-0.1-0.4c-0.1-0.1-0.2-0.2-0.4-0.2c-0.2,0-0.3,0.1-0.5,0.2c-0.2,0.1-0.4,0.2-0.5,0.4c-0.2,0.2-0.3,0.3-0.4,0.5
		C22.9,10.3,22.7,10.5,22.7,10.6z"/>
	<path d="M35.5,14.8c-0.4,0.2-0.9,0.3-1.4,0.3c-0.5,0-0.9-0.1-1.2-0.3c-0.3-0.2-0.5-0.5-0.7-0.8c-0.2-0.3-0.3-0.7-0.3-1.1
		c0-0.4,0-0.8,0.1-1.1c0.1-0.5,0.3-1,0.5-1.5s0.6-1,1-1.4s0.8-0.8,1.3-1c0.5-0.3,1-0.4,1.6-0.4c0.4,0,0.7,0.1,1,0.3s0.5,0.4,0.7,0.6
		s0.3,0.5,0.4,0.9c0.1,0.3,0.2,0.6,0.2,0.9c0.1,0.1,0.2,0.3,0.2,0.5c0,0,0,0.1,0,0.1c0,0,0,0.1,0,0.1c-0.2,0.5-0.4,1.1-0.6,1.6
		c-0.2,0.5-0.4,1.1-0.6,1.6c-0.1,0.2-0.2,0.5-0.2,0.8c-0.1,0.2-0.1,0.5-0.2,0.8c0,0.1,0,0.2,0,0.3c0,0.1,0,0.3,0,0.4
		c0,0,0,0.1,0,0.1c0,0,0,0.1,0,0.2c0,0.1,0,0.1,0,0.1c0,0,0,0.1,0.1,0.1c0,0,0.1,0,0.1-0.1l0.1-0.1c0.2-0.2,0.3-0.3,0.5-0.4
		c0.2-0.1,0.4-0.1,0.6-0.1c0.1,0,0.2,0,0.2,0s0.2,0,0.2,0.1s0.1,0.1,0.2,0.2c0,0.1,0,0.2,0,0.3c0,0.1,0,0.1-0.1,0.2
		c0,0.1-0.1,0.1-0.1,0.2c-0.1,0.2-0.3,0.4-0.4,0.5s-0.3,0.3-0.5,0.4c-0.2,0.1-0.4,0.2-0.6,0.3c-0.2,0.1-0.5,0.1-0.7,0.1
		c-0.3,0-0.5-0.1-0.7-0.2c-0.2-0.1-0.4-0.2-0.5-0.4c-0.1-0.2-0.2-0.4-0.3-0.6c-0.1-0.2-0.1-0.4-0.1-0.7c0-0.2,0-0.3,0-0.5
		c0-0.2,0-0.3,0.1-0.5c0-0.1,0-0.2,0.1-0.3C35.4,14.9,35.4,14.9,35.5,14.8z M37,10.8c0-0.1,0-0.3-0.1-0.5c0-0.2-0.1-0.4-0.2-0.7
		c-0.1-0.2-0.2-0.4-0.3-0.6c-0.1-0.2-0.3-0.2-0.5-0.2c-0.2,0-0.3,0-0.5,0.1c-0.2,0.1-0.3,0.2-0.4,0.3c-0.4,0.3-0.7,0.7-0.9,1.2
		c-0.2,0.5-0.3,0.9-0.4,1.4c0,0.2,0,0.3,0,0.5c0,0.2,0.1,0.4,0.2,0.5c0.1,0.2,0.2,0.3,0.3,0.4s0.3,0.1,0.5,0.1
		c0.3,0,0.5-0.1,0.8-0.3s0.4-0.4,0.6-0.7c0.2-0.3,0.4-0.6,0.5-0.9C36.8,11.3,36.9,11,37,10.8z"/>
	<path d="M44.6,13.2c-0.2,0.2-0.3,0.5-0.5,0.7c-0.2,0.2-0.4,0.4-0.6,0.6c-0.2,0.2-0.4,0.3-0.7,0.4s-0.5,0.2-0.8,0.2
		c-0.6,0-1.1-0.2-1.4-0.5c-0.3-0.3-0.5-0.7-0.6-1.2c-0.1-0.5-0.1-0.9-0.1-1.4s0.1-1,0.2-1.3c0-0.2,0.1-0.4,0.1-0.6
		c0-0.2,0.1-0.4,0.2-0.6c0.1-0.2,0.1-0.4,0.2-0.6c0.1-0.2,0.2-0.4,0.3-0.6c0.1-0.2,0.3-0.4,0.5-0.5c0.2-0.1,0.4-0.2,0.7-0.2
		c0.1,0,0.2,0,0.2,0s0.1,0.1,0.2,0.1s0.1,0.1,0.1,0.2c0,0.1,0,0.2,0,0.3c0,0,0,0.1,0,0.1c0,0,0,0.1,0,0.1c-0.2,0.5-0.4,1.1-0.6,1.5
		c-0.1,0.5-0.2,1-0.2,1.6c0,0.1,0,0.2,0,0.4c0,0.2,0,0.4,0.1,0.6s0.1,0.4,0.2,0.6c0.1,0.2,0.2,0.2,0.3,0.2c0.1,0,0.2,0,0.3-0.1
		c0.1-0.1,0.2-0.2,0.3-0.3c0.1-0.1,0.2-0.2,0.3-0.4c0.1-0.1,0.1-0.2,0.2-0.3c0.3-0.5,0.5-1,0.8-1.6c0.2-0.6,0.5-1.1,0.7-1.6
		c0-0.1,0.1-0.3,0.1-0.4s0.1-0.3,0.1-0.4c0.1-0.2,0.3-0.4,0.5-0.5s0.5-0.2,0.7-0.2c0.2,0,0.4,0,0.5,0.1c0.1,0.1,0.2,0.2,0.1,0.4
		c0,0.3-0.1,0.5-0.1,0.8s-0.1,0.5-0.1,0.8c-0.1,0.4-0.1,0.8-0.2,1.1c0,0.4-0.1,0.7-0.1,1s0,0.7,0.1,1c0.1,0.3,0.1,0.7,0.3,1
		c0,0.1,0,0.2,0,0.3c0,0.1-0.1,0.2-0.2,0.3c-0.1,0.1-0.2,0.2-0.3,0.3c-0.1,0.1-0.2,0.1-0.4,0.2S45.7,15,45.6,15
		c-0.2,0-0.4-0.1-0.5-0.2c-0.1-0.2-0.3-0.5-0.3-0.8S44.6,13.5,44.6,13.2z"/>
	<path d="M49.3,15c-0.2-0.1-0.4-0.2-0.5-0.4c-0.1-0.2-0.2-0.3-0.3-0.5c-0.1-0.2-0.1-0.4-0.1-0.6c0-0.2,0-0.4,0-0.6
		c0-0.3,0.1-0.6,0.1-1c0.1-0.3,0.1-0.7,0.2-1c0.1-0.4,0.2-0.8,0.2-1.2s0.2-0.8,0.2-1.2c0-0.1,0.1-0.3,0.2-0.4
		c0.1-0.1,0.2-0.2,0.3-0.3c0.1-0.1,0.2-0.1,0.4-0.2s0.3-0.1,0.4-0.1c0.2,0,0.3,0.1,0.5,0.2C51,7.9,51.1,8.1,51,8.3l-0.4,2.1
		c0,0.2-0.1,0.3-0.1,0.5c0,0.2-0.1,0.3-0.1,0.5c0,0.2-0.1,0.4-0.1,0.7c0,0.2-0.1,0.5-0.1,0.7c0,0.2,0,0.4,0.1,0.6
		c0.1,0.2,0.2,0.3,0.4,0.4c0.1,0,0.1,0.1,0.2,0.2c0.1,0.1,0.1,0.2,0.1,0.3c0,0.1-0.1,0.2-0.2,0.4c-0.1,0.1-0.2,0.2-0.3,0.3
		S50.1,15,50,15c-0.1,0-0.3,0.1-0.4,0.1C49.5,15.1,49.4,15.1,49.3,15z M49.7,6.4l0-0.2c0-0.1,0.1-0.2,0.2-0.3
		c0.1-0.1,0.2-0.2,0.3-0.2c0.1-0.1,0.2-0.1,0.3-0.2c0.1,0,0.2-0.1,0.3-0.1c0.3,0,0.4,0.1,0.5,0.2c0.1,0.1,0.1,0.3,0.1,0.5
		c0,0.2-0.2,0.4-0.4,0.6C50.8,6.9,50.6,7,50.3,7c-0.2,0-0.3,0-0.5-0.1C49.7,6.8,49.7,6.6,49.7,6.4z"/>
	<path d="M52.1,12.2c0.1-0.4,0.3-0.9,0.5-1.4c0.3-0.5,0.6-1,1-1.4s0.8-0.8,1.3-1.1s1-0.4,1.6-0.4c0.6,0,1.1,0.2,1.4,0.5
		c0.4,0.3,0.6,0.8,0.7,1.3c0,0,0,0.1,0,0.1c0,0,0,0.1,0,0.1c0,0.1-0.1,0.2-0.2,0.3s-0.2,0.2-0.3,0.3c-0.1,0.1-0.2,0.1-0.4,0.2
		c-0.1,0-0.2,0.1-0.4,0.1c-0.2,0-0.3,0-0.4-0.1s-0.1-0.2-0.2-0.3c-0.1-0.2-0.2-0.5-0.3-0.6c-0.1-0.2-0.3-0.3-0.6-0.3
		c-0.2,0-0.5,0.1-0.7,0.3s-0.4,0.4-0.6,0.7c-0.2,0.3-0.3,0.6-0.5,0.9c-0.1,0.3-0.2,0.6-0.3,0.8c-0.1,0.3-0.1,0.5,0,0.7
		s0.2,0.4,0.4,0.5c0.2,0.1,0.4,0.2,0.6,0.3c0.2,0.1,0.5,0.1,0.8,0.1c0.5,0,1-0.1,1.5-0.3c0.2-0.1,0.4-0.1,0.6-0.1c0.1,0,0.2,0,0.3,0
		c0.1,0,0.2,0.1,0.3,0.1c0.1,0.1,0.1,0.1,0.2,0.2c0,0.1,0,0.2,0,0.3c0,0.2-0.2,0.4-0.5,0.6c-0.3,0.2-0.6,0.3-1,0.4S56.4,15,56,15
		s-0.6,0.1-0.8,0.1c-0.5,0-0.9-0.1-1.3-0.2c-0.4-0.1-0.8-0.3-1.1-0.5c-0.3-0.2-0.5-0.5-0.6-0.9C52,13.1,52,12.7,52.1,12.2z"/>
	<path d="M62.3,12.3c-0.1,0.3-0.1,0.6-0.2,0.9S62,13.9,62,14.2c0,0.1-0.1,0.2-0.2,0.4s-0.2,0.2-0.3,0.3c-0.1,0.1-0.2,0.1-0.4,0.2
		c-0.1,0-0.3,0.1-0.4,0.1c-0.2,0-0.4,0-0.4-0.1s-0.1-0.2-0.1-0.4c0-0.2,0-0.4,0-0.5s0-0.4,0.1-0.5c0.1-1.2,0.3-2.3,0.6-3.5
		c0.3-1.1,0.6-2.3,0.9-3.4C61.9,6.3,62,6,62,5.7s0.2-0.6,0.3-0.9c0.1-0.2,0.2-0.4,0.5-0.5c0.2-0.1,0.4-0.2,0.7-0.2
		c0.2,0,0.4,0.1,0.5,0.2s0.2,0.3,0.1,0.5c0,0,0,0.1,0,0.1c-0.3,0.8-0.5,1.7-0.7,2.5s-0.4,1.7-0.6,2.5c0.4-0.2,0.8-0.4,1.1-0.7
		c0.4-0.3,0.7-0.5,1-0.8c0.1-0.1,0.2-0.2,0.3-0.3s0.2-0.2,0.3-0.3c0.1-0.1,0.2-0.2,0.4-0.2c0.1-0.1,0.3-0.1,0.4-0.1
		c0.1,0,0.2,0,0.2,0s0.2,0.1,0.2,0.1c0.1,0.1,0.1,0.1,0.1,0.2c0,0.1,0,0.2,0,0.3c0,0.1-0.1,0.3-0.2,0.5c-0.1,0.2-0.3,0.3-0.5,0.5
		c-0.2,0.2-0.4,0.4-0.7,0.6c-0.3,0.2-0.5,0.4-0.7,0.5c-0.2,0.2-0.5,0.3-0.7,0.4c-0.2,0.1-0.4,0.2-0.5,0.3c0.2,0.1,0.4,0.3,0.7,0.4
		c0.2,0.2,0.5,0.4,0.7,0.6c0.2,0.2,0.5,0.4,0.7,0.7c0.2,0.2,0.4,0.4,0.5,0.6c0,0.1,0.1,0.1,0.1,0.2s0,0.1,0,0.2
		c0,0.1-0.1,0.2-0.2,0.3c-0.1,0.1-0.2,0.2-0.3,0.2c-0.1,0.1-0.3,0.1-0.4,0.1c-0.1,0-0.2,0.1-0.3,0.1c-0.2,0-0.4-0.1-0.5-0.2
		c-0.1-0.1-0.2-0.2-0.3-0.3c-0.3-0.3-0.6-0.6-0.9-0.9C63,12.8,62.7,12.6,62.3,12.3z"/>
	<path d="M72.7,15c-0.1,0-0.1,0-0.2,0c-0.1,0-0.1,0-0.2,0c-0.2,0-0.4-0.1-0.5-0.2c-0.1-0.1-0.1-0.2-0.1-0.4c0-0.2,0-0.4,0-0.7
		c0-0.2,0.1-0.5,0.1-0.7c0.1-1,0.3-2,0.4-3c0.2-1,0.4-2,0.6-3c0-0.2,0.1-0.5,0.1-0.7c0.1-0.2,0.1-0.5,0.2-0.7
		c0.1-0.3,0.2-0.5,0.5-0.6S74.3,5,74.5,5c0.2,0,0.3,0,0.4,0.1c0.1,0.1,0.1,0.2,0.1,0.4v0c-0.2,0.6-0.3,1.2-0.4,1.8s-0.2,1.2-0.3,1.8
		c0.4-0.3,0.8-0.5,1.3-0.8c0.5-0.2,1-0.3,1.5-0.3c0.4,0,0.8,0.1,1.1,0.3s0.5,0.5,0.7,0.8c0.2,0.3,0.3,0.7,0.3,1.1c0,0.4,0,0.7,0,1.1
		c-0.1,0.6-0.4,1.1-0.7,1.6c-0.4,0.5-0.8,0.9-1.3,1.2c-0.5,0.3-1.1,0.6-1.7,0.8c-0.6,0.2-1.2,0.3-1.7,0.3C73.4,15.1,73,15.1,72.7,15
		z M73.6,13.6c0.1,0,0.2,0,0.3,0c0.1,0,0.2,0,0.3,0c0.3,0,0.7-0.1,1-0.2c0.3-0.1,0.7-0.3,1-0.5c0.3-0.2,0.5-0.4,0.8-0.7
		c0.2-0.3,0.3-0.6,0.4-0.9c0-0.2,0.1-0.4,0-0.6c0-0.2-0.1-0.4-0.1-0.6c-0.1-0.2-0.2-0.3-0.3-0.5c-0.1-0.1-0.3-0.2-0.5-0.2
		c-0.2,0-0.4,0.1-0.7,0.2c-0.2,0.1-0.5,0.3-0.7,0.4c-0.2,0.2-0.4,0.4-0.6,0.6c-0.2,0.2-0.4,0.4-0.5,0.6l0,0L73.6,13.6z"/>
	<path d="M82.5,8.3c0.2-0.2,0.4-0.3,0.7-0.4s0.5-0.2,0.8-0.2c0.2,0,0.4,0,0.6,0.1S84.9,8,85,8.2c0.1,0.1,0.3,0.3,0.4,0.4
		s0.2,0.3,0.3,0.5c0,0.1,0.1,0.1,0.1,0.2s0,0.1,0,0.2c0,0.1-0.1,0.2-0.2,0.4c-0.1,0.1-0.2,0.2-0.3,0.3s-0.2,0.1-0.4,0.2
		c-0.1,0-0.3,0.1-0.4,0.1c-0.2,0-0.3,0-0.4-0.1s-0.2-0.2-0.3-0.4c0-0.1-0.1-0.1-0.1-0.2c0-0.1-0.1-0.1-0.1-0.2c0,0-0.1-0.1-0.2-0.1
		c-0.1,0-0.2,0.1-0.3,0.2c-0.1,0.1-0.2,0.3-0.3,0.5c-0.1,0.2-0.2,0.3-0.3,0.5c-0.1,0.2-0.1,0.3-0.2,0.4c-0.1,0.4-0.3,0.7-0.4,1.1
		s-0.2,0.7-0.2,1.1c0,0.2-0.1,0.3-0.1,0.5c0,0.2-0.1,0.3-0.1,0.5c0,0.1-0.1,0.2-0.2,0.4c-0.1,0.1-0.2,0.2-0.3,0.3
		C81,14.9,80.8,15,80.7,15c-0.1,0-0.3,0.1-0.4,0.1c-0.2,0-0.4-0.1-0.4-0.2c-0.1-0.1-0.1-0.3-0.1-0.4c0-0.4,0.1-0.8,0.2-1.3
		c0.1-0.4,0.1-0.8,0.2-1.3c0.1-0.6,0.2-1.2,0.3-1.8c0.1-0.6,0.2-1.2,0.3-1.8c0-0.1,0.1-0.3,0.2-0.4C81,8,81.1,7.9,81.2,7.8
		s0.2-0.1,0.4-0.2c0.1,0,0.3-0.1,0.4-0.1c0.2,0,0.4,0,0.4,0.1c0.1,0.1,0.1,0.2,0.1,0.3c0,0,0,0.1,0,0.1C82.5,8.2,82.5,8.3,82.5,8.3z
		"/>
	<path d="M88.2,15.1c-0.5,0-1-0.1-1.3-0.3c-0.4-0.2-0.6-0.5-0.8-0.8c-0.2-0.3-0.3-0.7-0.4-1.1s0-0.8,0.1-1.3c0.1-0.3,0.2-0.7,0.3-1
		c0.1-0.4,0.3-0.7,0.6-1c0.2-0.3,0.5-0.6,0.8-0.9c0.3-0.3,0.6-0.5,1-0.7l0.1,0c0,0,0,0,0,0c0,0,0,0,0,0c0.3-0.1,0.5-0.2,0.8-0.2
		c0.2-0.1,0.5-0.1,0.8-0.1c0.5,0,1,0.1,1.4,0.3c0.4,0.2,0.7,0.5,0.9,0.8s0.4,0.7,0.5,1.1c0.1,0.4,0.1,0.9,0,1.3
		c-0.1,0.3-0.2,0.6-0.3,0.9s-0.3,0.6-0.5,0.9c-0.2,0.3-0.5,0.6-0.8,0.8c-0.3,0.3-0.6,0.5-1,0.7c-0.3,0.2-0.7,0.3-1.1,0.4
		C89,15,88.6,15.1,88.2,15.1z M88.8,13.6c0.3,0,0.5-0.1,0.8-0.2c0.3-0.1,0.5-0.3,0.7-0.5c0.2-0.2,0.4-0.4,0.5-0.7
		c0.1-0.3,0.2-0.5,0.3-0.8c0.1-0.3,0.1-0.5,0-0.8c0-0.3-0.1-0.5-0.2-0.7c-0.1-0.2-0.3-0.4-0.5-0.5c-0.2-0.1-0.5-0.2-0.7-0.2
		c-0.2,0-0.5,0.1-0.7,0.2s-0.4,0.3-0.6,0.5c-0.2,0.2-0.4,0.4-0.5,0.7c-0.1,0.2-0.2,0.5-0.3,0.7c-0.1,0.3-0.1,0.5-0.1,0.8
		c0,0.3,0,0.5,0.1,0.8c0.1,0.2,0.2,0.4,0.4,0.6C88.3,13.5,88.5,13.6,88.8,13.6z"/>
	<path d="M98.3,13.5c-0.1,0.2-0.3,0.4-0.5,0.6s-0.4,0.4-0.6,0.5s-0.4,0.3-0.7,0.4c-0.2,0.1-0.5,0.1-0.8,0.1c-0.4,0-0.7-0.1-0.9-0.2
		c-0.2-0.1-0.4-0.3-0.6-0.5c-0.1-0.2-0.2-0.5-0.3-0.8c-0.1-0.3-0.1-0.6-0.1-0.9c0-0.3,0-0.6,0.1-0.9s0.1-0.5,0.1-0.8
		c0-0.2,0.1-0.4,0.1-0.7c0.1-0.2,0.1-0.5,0.2-0.7c0.1-0.2,0.1-0.5,0.2-0.7c0.1-0.2,0.2-0.5,0.2-0.7C95,8,95.1,7.9,95.3,7.8
		c0.2-0.1,0.4-0.2,0.7-0.2c0.2,0,0.4,0.1,0.5,0.1c0.1,0.1,0.2,0.3,0.1,0.5c0,0.1,0,0.1,0,0.1c-0.1,0.4-0.3,0.8-0.4,1.2
		c-0.1,0.4-0.2,0.8-0.3,1.2c0,0.2-0.1,0.4-0.1,0.6s0,0.4,0,0.6c0,0.2,0,0.4,0,0.6s0.1,0.4,0.1,0.5c0,0.1,0.1,0.2,0.1,0.3
		c0.1,0.1,0.1,0.2,0.2,0.2c0.1,0,0.1,0,0.2-0.1c0.1,0,0.1-0.1,0.2-0.2s0.1-0.1,0.2-0.2c0-0.1,0.1-0.1,0.1-0.1
		c0.3-0.4,0.6-0.9,0.8-1.4c0.2-0.5,0.3-1,0.4-1.5c0-0.1,0-0.1,0-0.2c0-0.1,0-0.1,0-0.2c0-0.1,0.1-0.2,0.2-0.4s0.2-0.2,0.3-0.3
		c0.1-0.1,0.3-0.1,0.4-0.2s0.3-0.1,0.4-0.1c0.2,0,0.3,0.1,0.4,0.2c0.1,0.1,0.1,0.3,0.1,0.4c0,0.1,0,0.2-0.1,0.3
		c0,0.1-0.1,0.2-0.1,0.3c0,0.2-0.1,0.5-0.1,0.9s0,0.7,0.1,1.1c0.1,0.4,0.2,0.6,0.3,0.9c0.2,0.2,0.4,0.3,0.6,0.3
		c0.1,0,0.2-0.1,0.3-0.2c0.1-0.1,0.2-0.2,0.2-0.4c0.1-0.2,0.1-0.3,0.1-0.5s0.1-0.3,0.1-0.4c0.1-0.5,0.2-1.1,0.3-1.6
		c0.1-0.5,0.1-1,0.2-1.6l0-0.1c0-0.1,0.1-0.3,0.2-0.4s0.2-0.2,0.3-0.3c0.1-0.1,0.2-0.1,0.4-0.2c0.1,0,0.2-0.1,0.4-0.1
		c0.4,0,0.6,0.2,0.6,0.6c0,0.4,0,0.8-0.1,1.3c-0.1,0.5-0.1,0.9-0.2,1.3c-0.1,0.5-0.2,0.9-0.4,1.4s-0.4,0.9-0.7,1.3
		c-0.3,0.4-0.6,0.7-1,1s-0.9,0.4-1.4,0.4c-0.2,0-0.5,0-0.7-0.1c-0.2-0.1-0.4-0.2-0.5-0.3c-0.1-0.1-0.3-0.3-0.4-0.4
		C98.5,13.8,98.4,13.7,98.3,13.5z"/>
	<path d="M107.6,8.1c0.3-0.2,0.7-0.4,1.1-0.6c0.4-0.2,0.8-0.3,1.2-0.3c0.3,0,0.6,0.1,0.8,0.1c0.2,0.1,0.4,0.2,0.5,0.4
		c0.1,0.2,0.2,0.4,0.3,0.6c0.1,0.2,0.1,0.5,0.1,0.8c0,0.1,0,0.3,0,0.5c0,0.2,0,0.3,0,0.4c0,0.7-0.1,1.4-0.2,2.2
		c-0.1,0.7-0.3,1.4-0.5,2.1c-0.1,0.3-0.3,0.4-0.5,0.5c-0.3,0.1-0.5,0.2-0.7,0.2c-0.2,0-0.4,0-0.5-0.1c-0.1-0.1-0.2-0.3-0.1-0.5
		l0.1-0.4l0.2-0.8c0-0.1,0-0.1,0-0.2c0-0.1,0-0.1,0-0.2c0.1-0.5,0.2-1.1,0.3-1.6c0.1-0.5,0.1-1.1,0.1-1.6c0-0.1,0-0.1,0-0.2
		c0-0.1,0-0.2-0.1-0.3c0-0.1-0.1-0.1-0.1-0.2c0-0.1-0.1-0.1-0.2-0.1c-0.1,0-0.3,0.1-0.5,0.2c-0.2,0.1-0.4,0.3-0.6,0.5
		c-0.2,0.2-0.4,0.4-0.5,0.6c-0.2,0.2-0.3,0.4-0.3,0.5c-0.2,0.5-0.4,1.1-0.6,1.6c-0.1,0.6-0.2,1.1-0.4,1.7c0,0.1-0.1,0.3-0.2,0.4
		c-0.1,0.1-0.2,0.2-0.3,0.3c-0.1,0.1-0.3,0.1-0.4,0.2s-0.3,0.1-0.4,0.1c-0.4,0-0.6-0.2-0.6-0.6c0-0.1,0-0.2,0-0.4
		c0-0.1,0-0.2,0.1-0.4c0.1-0.8,0.3-1.5,0.4-2.2c0.2-0.7,0.3-1.5,0.5-2.2c0.1-0.2,0.1-0.4,0.1-0.6c0-0.2,0.1-0.4,0.2-0.6
		c0-0.1,0.1-0.2,0.2-0.3c0.1-0.1,0.2-0.2,0.3-0.3c0.1-0.1,0.2-0.1,0.4-0.2c0.1,0,0.3-0.1,0.4-0.1c0.2,0,0.3,0,0.4,0.1
		c0.1,0.1,0.1,0.2,0.1,0.4c0,0.1,0,0.2-0.1,0.2C107.6,8,107.6,8.1,107.6,8.1z"/>
	<path d="M117.7,12.1c0,0-0.1,0-0.1,0c-0.1,0-0.1,0-0.1,0c-0.1,0-0.1,0-0.1,0c-0.2,0-0.4-0.1-0.5-0.2s-0.1-0.3-0.1-0.5
		c0.1-0.3,0.2-0.4,0.4-0.6c0.2-0.1,0.4-0.2,0.6-0.3c0-0.9,0.2-1.8,0.4-2.7s0.7-1.7,1.3-2.4c0.2-0.2,0.4-0.4,0.6-0.6
		c0.2-0.2,0.5-0.4,0.8-0.5s0.5-0.3,0.8-0.4c0.3-0.1,0.6-0.1,0.9-0.1c0.3,0,0.5,0.1,0.7,0.2s0.3,0.2,0.5,0.4c0.1,0.2,0.2,0.4,0.3,0.6
		s0.2,0.4,0.2,0.6c0,0.1,0.1,0.3,0.1,0.4c0,0.1,0.1,0.2,0.1,0.4c0,0.1,0,0.2,0,0.3c0,0.1-0.1,0.2-0.2,0.3s-0.2,0.2-0.3,0.2
		c-0.1,0.1-0.2,0.1-0.4,0.2c-0.1,0-0.2,0.1-0.3,0.1c-0.3,0-0.5-0.1-0.6-0.4c-0.1-0.2-0.2-0.4-0.2-0.6c-0.1-0.2-0.1-0.4-0.2-0.6
		c-0.1-0.1-0.1-0.2-0.2-0.3s-0.1-0.1-0.2-0.1c-0.1,0-0.2,0-0.4,0.1c-0.1,0.1-0.3,0.2-0.4,0.3c-0.3,0.2-0.5,0.6-0.7,0.9
		S120,7.6,119.9,8c-0.1,0.4-0.2,0.8-0.2,1.2c-0.1,0.4-0.1,0.8-0.1,1.2c0.5-0.1,1-0.1,1.4-0.2c0.5,0,0.9-0.1,1.4-0.1
		c0.1,0,0.2,0,0.3,0c0.1,0,0.2,0,0.3,0.1c0.2,0.1,0.3,0.3,0.2,0.5c0,0.2-0.1,0.4-0.3,0.6c-0.2,0.2-0.4,0.3-0.6,0.3
		c-0.4,0.1-0.9,0.1-1.3,0.1c-0.4,0-0.9,0.1-1.3,0.1c0,0.2,0,0.3,0.1,0.5c0,0.2,0,0.3,0.1,0.5c0,0.1,0,0.2,0,0.2s0,0.1,0,0.2
		c0,0.1,0.1,0.2,0.1,0.4s0,0.3,0,0.4c0,0.1-0.1,0.3-0.2,0.4c-0.1,0.1-0.2,0.2-0.3,0.3c-0.1,0.1-0.2,0.1-0.4,0.2
		c-0.1,0.1-0.3,0.1-0.4,0.1c-0.3,0-0.5-0.1-0.6-0.4c0-0.1,0-0.2-0.1-0.4c0-0.1,0-0.2-0.1-0.4C117.8,13.3,117.8,12.7,117.7,12.1z"/>
	<path d="M126.5,15.1c-0.5,0-1-0.1-1.3-0.3c-0.4-0.2-0.6-0.5-0.8-0.8c-0.2-0.3-0.3-0.7-0.4-1.1s0-0.8,0.1-1.3c0.1-0.3,0.2-0.7,0.3-1
		c0.1-0.4,0.3-0.7,0.6-1c0.2-0.3,0.5-0.6,0.8-0.9c0.3-0.3,0.6-0.5,1-0.7l0.1,0c0,0,0,0,0,0c0,0,0,0,0,0c0.3-0.1,0.5-0.2,0.8-0.2
		c0.2-0.1,0.5-0.1,0.8-0.1c0.5,0,1,0.1,1.4,0.3c0.4,0.2,0.7,0.5,0.9,0.8s0.4,0.7,0.5,1.1c0.1,0.4,0.1,0.9,0,1.3
		c-0.1,0.3-0.2,0.6-0.3,0.9s-0.3,0.6-0.5,0.9c-0.2,0.3-0.5,0.6-0.8,0.8c-0.3,0.3-0.6,0.5-1,0.7c-0.3,0.2-0.7,0.3-1.1,0.4
		C127.2,15,126.8,15.1,126.5,15.1z M127.1,13.6c0.3,0,0.5-0.1,0.8-0.2c0.3-0.1,0.5-0.3,0.7-0.5c0.2-0.2,0.4-0.4,0.5-0.7
		c0.1-0.3,0.2-0.5,0.3-0.8c0.1-0.3,0.1-0.5,0-0.8c0-0.3-0.1-0.5-0.2-0.7c-0.1-0.2-0.3-0.4-0.5-0.5c-0.2-0.1-0.5-0.2-0.7-0.2
		c-0.2,0-0.5,0.1-0.7,0.2s-0.4,0.3-0.6,0.5c-0.2,0.2-0.4,0.4-0.5,0.7c-0.1,0.2-0.2,0.5-0.3,0.7c-0.1,0.3-0.1,0.5-0.1,0.8
		c0,0.3,0,0.5,0.1,0.8c0.1,0.2,0.2,0.4,0.4,0.6C126.5,13.5,126.8,13.6,127.1,13.6z"/>
	<path d="M135,12.8c-0.3,0.3-0.6,0.6-0.8,0.9c-0.3,0.3-0.5,0.6-0.8,0.9c-0.1,0.1-0.3,0.3-0.5,0.3c-0.2,0.1-0.4,0.1-0.6,0.1
		c-0.1,0-0.1,0-0.2,0s-0.2,0-0.2-0.1c-0.1,0-0.1-0.1-0.2-0.2c0-0.1-0.1-0.2,0-0.3c0-0.1,0-0.2,0.1-0.2c0-0.1,0.1-0.1,0.1-0.2
		c0.3-0.5,0.8-0.9,1.2-1.4c0.5-0.5,0.9-1,1.3-1.4c-0.1-0.3-0.2-0.6-0.4-0.9c-0.1-0.3-0.2-0.6-0.4-0.9c-0.1-0.1-0.1-0.3-0.2-0.4
		s-0.1-0.3-0.2-0.4c0-0.1,0-0.1-0.1-0.2c0-0.1,0-0.1,0-0.2c0-0.1,0.1-0.2,0.2-0.3c0.1-0.1,0.2-0.2,0.3-0.3c0.1-0.1,0.2-0.1,0.4-0.2
		c0.1,0,0.3-0.1,0.4-0.1c0.2,0,0.4,0.1,0.5,0.3c0.1,0.1,0.1,0.2,0.2,0.3c0.1,0.1,0.1,0.2,0.2,0.4c0.1,0.2,0.2,0.5,0.3,0.7
		c0.1,0.2,0.2,0.5,0.3,0.7c0.4-0.3,0.7-0.7,1.1-1c0.4-0.4,0.7-0.7,1.1-1c0.2-0.2,0.5-0.3,0.8-0.3c0.1,0,0.2,0,0.3,0
		c0.1,0,0.2,0.1,0.2,0.1c0.1,0.1,0.1,0.1,0.2,0.2c0,0.1,0,0.2,0,0.3c0,0.1-0.1,0.2-0.1,0.3s-0.1,0.1-0.2,0.2
		c-0.1,0.1-0.3,0.3-0.5,0.4c-0.2,0.1-0.3,0.3-0.5,0.4c-0.3,0.3-0.6,0.6-0.9,0.9c-0.3,0.3-0.6,0.6-0.9,0.9c0.2,0.3,0.3,0.7,0.5,1
		c0.2,0.3,0.4,0.7,0.5,1c0.1,0.1,0.1,0.2,0.2,0.3c0.1,0.1,0.1,0.2,0.1,0.2c0,0.1,0.1,0.1,0.1,0.2c0,0,0,0.1,0,0.1c0,0.1,0,0.1,0,0.2
		c0,0.1-0.1,0.2-0.2,0.4c-0.1,0.1-0.2,0.2-0.3,0.3c-0.1,0.1-0.3,0.1-0.4,0.2c-0.1,0-0.2,0.1-0.3,0.1c-0.2,0-0.4-0.1-0.5-0.2
		c-0.2-0.3-0.4-0.6-0.6-1S135.2,13.1,135,12.8z"/>
	<path d="M142.2,16.6c0-0.1,0-0.2,0-0.3c0-0.1,0.1-0.2,0.2-0.4c0.1-0.1,0.2-0.2,0.3-0.3c0.1-0.1,0.3-0.1,0.4-0.2
		c0.1,0,0.3-0.1,0.4-0.1c0.2,0,0.4,0.1,0.5,0.3c0.1,0.1,0.1,0.2,0.2,0.3c0.1,0.1,0.2,0.2,0.2,0.3c0.1,0.1,0.2,0.2,0.3,0.2
		c0.1,0.1,0.2,0.1,0.3,0.1c0.1,0,0.2,0,0.3-0.1c0.1-0.1,0.1-0.2,0.2-0.3s0.1-0.2,0.1-0.4c0-0.1,0.1-0.2,0.1-0.3
		c0-0.3,0.1-0.6,0.1-0.9c0-0.3,0.1-0.6,0.1-0.9c0.1-0.8,0.2-1.7,0.3-2.5s0.1-1.7,0.2-2.5c0-0.1,0-0.3,0.1-0.4
		c0.1-0.1,0.2-0.2,0.3-0.3c0.1-0.1,0.2-0.1,0.4-0.2c0.1,0,0.3-0.1,0.4-0.1c0.4,0,0.6,0.2,0.6,0.6c0,0.2,0,0.4,0,0.6
		c0,0.2,0,0.4,0,0.6c0,0.6-0.1,1.1-0.1,1.7c-0.1,0.6-0.1,1.1-0.2,1.7c0,0.4-0.1,0.8-0.1,1.2c0,0.4-0.1,0.8-0.2,1.2
		c-0.1,0.4-0.2,0.8-0.3,1.1c-0.2,0.4-0.4,0.7-0.6,1c-0.2,0.3-0.5,0.5-0.9,0.7c-0.3,0.2-0.7,0.3-1.2,0.3c-0.3,0-0.6,0-0.8-0.1
		c-0.3-0.1-0.5-0.2-0.7-0.4s-0.4-0.3-0.5-0.5C142.4,17.1,142.3,16.9,142.2,16.6z M146.6,6.6c0,0,0-0.1,0-0.1c0,0,0-0.1,0-0.1
		c0.1-0.2,0.2-0.4,0.4-0.5c0.2-0.1,0.5-0.2,0.7-0.2c0.2,0,0.4,0.1,0.5,0.2c0.1,0.1,0.1,0.3,0.1,0.5c-0.1,0.2-0.2,0.4-0.4,0.6
		s-0.5,0.2-0.7,0.2c-0.2,0-0.3,0-0.5-0.1C146.6,6.9,146.6,6.8,146.6,6.6z"/>
	<path d="M153.8,13.2c-0.2,0.2-0.3,0.5-0.5,0.7c-0.2,0.2-0.4,0.4-0.6,0.6c-0.2,0.2-0.4,0.3-0.7,0.4s-0.5,0.2-0.8,0.2
		c-0.6,0-1.1-0.2-1.4-0.5c-0.3-0.3-0.5-0.7-0.6-1.2c-0.1-0.5-0.1-0.9-0.1-1.4s0.1-1,0.2-1.3c0-0.2,0.1-0.4,0.1-0.6
		c0-0.2,0.1-0.4,0.2-0.6c0.1-0.2,0.1-0.4,0.2-0.6c0.1-0.2,0.2-0.4,0.3-0.6c0.1-0.2,0.3-0.4,0.5-0.5c0.2-0.1,0.4-0.2,0.7-0.2
		c0.1,0,0.2,0,0.2,0s0.1,0.1,0.2,0.1s0.1,0.1,0.1,0.2c0,0.1,0,0.2,0,0.3c0,0,0,0.1,0,0.1c0,0,0,0.1,0,0.1c-0.2,0.5-0.4,1.1-0.6,1.5
		c-0.1,0.5-0.2,1-0.2,1.6c0,0.1,0,0.2,0,0.4c0,0.2,0,0.4,0.1,0.6s0.1,0.4,0.2,0.6c0.1,0.2,0.2,0.2,0.3,0.2c0.1,0,0.2,0,0.3-0.1
		c0.1-0.1,0.2-0.2,0.3-0.3c0.1-0.1,0.2-0.2,0.3-0.4c0.1-0.1,0.1-0.2,0.2-0.3c0.3-0.5,0.5-1,0.8-1.6c0.2-0.6,0.5-1.1,0.7-1.6
		c0-0.1,0.1-0.3,0.1-0.4s0.1-0.3,0.1-0.4c0.1-0.2,0.3-0.4,0.5-0.5s0.5-0.2,0.7-0.2c0.2,0,0.4,0,0.5,0.1c0.1,0.1,0.2,0.2,0.1,0.4
		c0,0.3-0.1,0.5-0.1,0.8s-0.1,0.5-0.1,0.8c-0.1,0.4-0.1,0.8-0.2,1.1c0,0.4-0.1,0.7-0.1,1s0,0.7,0.1,1c0.1,0.3,0.1,0.7,0.3,1
		c0,0.1,0,0.2,0,0.3c0,0.1-0.1,0.2-0.2,0.3c-0.1,0.1-0.2,0.2-0.3,0.3c-0.1,0.1-0.2,0.1-0.4,0.2s-0.2,0.1-0.3,0.1
		c-0.2,0-0.4-0.1-0.5-0.2c-0.1-0.2-0.3-0.5-0.3-0.8S153.8,13.5,153.8,13.2z"/>
	<path d="M160.2,9.2L160.2,9.2c-0.1,0.1-0.1,0.2-0.1,0.2c0,0,0,0.1-0.1,0.1c-0.3,0.5-0.4,1-0.6,1.5c-0.1,0.3-0.1,0.7-0.1,1
		s0,0.6,0,1c0,0.1,0,0.1,0,0.2c0,0.1,0,0.2,0,0.3c0,0.1,0,0.2,0,0.3c0,0.1,0,0.2,0,0.3c0,0.1-0.1,0.3-0.2,0.4
		c-0.1,0.1-0.2,0.2-0.3,0.3s-0.3,0.2-0.4,0.2c-0.1,0.1-0.3,0.1-0.4,0.1c-0.2,0-0.4-0.1-0.5-0.2c-0.1-0.1-0.2-0.2-0.2-0.4
		c0-0.3,0-0.6,0-1c0-0.3,0-0.6,0-1c0-0.6,0-1.2,0-1.8c0-0.6,0-1.2,0-1.8c0-0.1,0-0.3,0.1-0.4c0.1-0.1,0.2-0.2,0.3-0.3
		c0.1-0.1,0.2-0.1,0.4-0.2c0.1,0,0.3-0.1,0.4-0.1c0.1,0,0.2,0,0.3,0c0.1,0,0.2,0.1,0.2,0.1c0.2-0.2,0.5-0.4,0.9-0.6s0.7-0.3,1-0.3
		c0.2,0,0.4,0,0.5,0.1c0.2,0.1,0.3,0.2,0.4,0.3c0.1,0.1,0.2,0.3,0.3,0.4c0.1,0.2,0.1,0.3,0.2,0.5c0.3-0.4,0.6-0.7,1-1
		c0.4-0.3,0.8-0.4,1.4-0.4c0.4,0,0.7,0.1,1,0.2s0.5,0.3,0.6,0.6c0.2,0.2,0.3,0.5,0.3,0.8s0.1,0.6,0.1,0.9c0,0.3,0,0.6,0,0.9
		c0,0.3-0.1,0.6-0.1,0.9c-0.1,0.4-0.2,0.8-0.3,1.2c-0.1,0.4-0.3,0.9-0.4,1.2c-0.1,0.2-0.2,0.4-0.5,0.5c-0.2,0.1-0.5,0.2-0.7,0.2
		c-0.2,0-0.4-0.1-0.5-0.2s-0.2-0.3-0.1-0.5c0,0,0-0.1,0-0.1c0.1-0.3,0.2-0.7,0.4-1.1s0.2-0.7,0.3-1.1c0.1-0.4,0.1-0.8,0.1-1.2
		c0-0.4-0.1-0.8-0.2-1.2c0-0.1-0.1-0.2-0.1-0.3c-0.1-0.1-0.2-0.2-0.3-0.2c-0.1,0-0.2,0.1-0.3,0.2c-0.1,0.1-0.2,0.3-0.4,0.5
		c-0.1,0.2-0.2,0.4-0.3,0.7c-0.1,0.3-0.2,0.5-0.3,0.7c-0.1,0.2-0.2,0.5-0.2,0.7c-0.1,0.2-0.1,0.3-0.1,0.4c0,0.1-0.1,0.2-0.2,0.4
		s-0.2,0.2-0.3,0.3c-0.1,0.1-0.2,0.1-0.4,0.2c-0.1,0-0.3,0.1-0.4,0.1c-0.2,0-0.4-0.1-0.5-0.2c-0.1-0.1-0.1-0.2-0.2-0.4
		c0-0.1,0-0.2,0-0.4c0-0.1,0-0.2,0-0.4c0-0.3,0-0.5,0-0.8c0-0.3,0-0.5-0.1-0.8c0-0.1,0-0.2,0-0.3c0-0.1,0-0.2,0-0.3
		c0-0.1-0.1-0.2-0.1-0.3S160.3,9.3,160.2,9.2z"/>
	<path d="M169.5,14.7c-0.1,0.5-0.1,1-0.2,1.5c-0.1,0.5-0.1,1-0.1,1.5v0.1c0,0.1-0.1,0.3-0.2,0.4c-0.1,0.1-0.2,0.2-0.3,0.3
		s-0.2,0.1-0.4,0.2c-0.1,0-0.2,0.1-0.4,0.1c-0.2,0-0.4-0.1-0.5-0.1c-0.1-0.1-0.2-0.2-0.2-0.5c0-0.2,0-0.4,0-0.6s0-0.4,0.1-0.6
		c0.1-1.3,0.3-2.6,0.4-3.9c0.2-1.3,0.4-2.6,0.6-3.9c0-0.1,0.1-0.3,0.2-0.4s0.2-0.2,0.3-0.3c0.1-0.1,0.2-0.1,0.4-0.2
		c0.1,0,0.3-0.1,0.4-0.1c0,0,0.1,0,0.2,0c0.3-0.2,0.7-0.4,1.1-0.5s0.8-0.2,1.1-0.2c0.5,0,0.9,0.1,1.3,0.3s0.7,0.4,0.9,0.7
		c0.2,0.3,0.4,0.6,0.5,1c0.1,0.4,0.1,0.8,0,1.2c-0.1,0.4-0.3,0.9-0.6,1.4c-0.3,0.5-0.6,0.9-1,1.3c-0.4,0.4-0.9,0.7-1.4,0.9
		c-0.5,0.2-1,0.4-1.5,0.4C170.1,14.9,169.8,14.8,169.5,14.7z M169.8,12.9c0.2,0.1,0.3,0.2,0.5,0.3c0.2,0.1,0.4,0.1,0.6,0.1
		c0.2,0,0.5-0.1,0.7-0.2c0.2-0.1,0.5-0.3,0.7-0.5s0.4-0.4,0.5-0.7s0.2-0.5,0.3-0.7c0-0.2,0-0.5,0-0.7c-0.1-0.2-0.1-0.4-0.3-0.6
		c-0.1-0.2-0.3-0.3-0.5-0.4c-0.2-0.1-0.4-0.2-0.7-0.2c-0.3,0-0.5,0.1-0.7,0.2c-0.2,0.1-0.4,0.3-0.6,0.5c-0.1,0.5-0.2,1-0.2,1.5
		C169.9,11.9,169.8,12.4,169.8,12.9z"/>
	<path d="M176,13.8c0-0.1,0-0.1-0.1-0.2s0-0.1,0-0.2c0-0.1,0.1-0.2,0.2-0.3c0.1-0.1,0.2-0.2,0.3-0.3c0.1-0.1,0.2-0.1,0.4-0.2
		c0.1,0,0.3-0.1,0.4-0.1c0.2,0,0.4,0.1,0.5,0.3c0.2,0.3,0.4,0.4,0.6,0.6c0.2,0.1,0.5,0.2,0.9,0.2c0.1,0,0.2,0,0.3,0
		c0.1,0,0.2,0,0.3-0.1c0.1,0,0.2-0.1,0.3-0.1c0.1-0.1,0.1-0.1,0.1-0.2c0-0.2,0-0.4-0.1-0.5s-0.2-0.2-0.4-0.4
		c-0.2-0.1-0.4-0.2-0.6-0.3s-0.5-0.1-0.8-0.2c-0.1,0-0.3-0.1-0.4-0.1c-0.1,0-0.3-0.1-0.4-0.1c-0.3-0.1-0.5-0.2-0.7-0.3
		c-0.2-0.1-0.4-0.2-0.5-0.4c-0.1-0.2-0.2-0.4-0.1-0.6c0-0.1,0.1-0.3,0.2-0.5c0.2-0.3,0.4-0.6,0.7-0.9c0.3-0.3,0.7-0.5,1-0.7
		c0.4-0.2,0.8-0.3,1.2-0.4s0.8-0.2,1.1-0.2c0.5,0,0.9,0.1,1.2,0.3s0.5,0.5,0.5,1c0,0.1,0,0.1,0,0.2c0,0.1-0.1,0.2-0.2,0.4
		s-0.2,0.2-0.3,0.3c-0.1,0.1-0.2,0.1-0.4,0.2c-0.1,0-0.2,0.1-0.4,0.1c-0.1,0-0.2,0-0.3-0.1c-0.1-0.1-0.1-0.1-0.2-0.3
		c0,0,0-0.1,0-0.1s0-0.1,0-0.1c0-0.1-0.1-0.2-0.2-0.2c-0.1-0.1-0.2-0.1-0.4-0.1c-0.1,0-0.3,0-0.5,0.1c-0.2,0.1-0.4,0.1-0.5,0.2
		c-0.2,0.1-0.3,0.2-0.5,0.3c-0.1,0.1-0.2,0.2-0.2,0.3c0,0,0,0.1,0,0.1c0,0,0.1,0.1,0.1,0.1c0.1,0,0.2,0.1,0.3,0.1
		c0.1,0,0.2,0.1,0.3,0.1c0.1,0,0.1,0,0.2,0c0.1,0,0.2,0,0.3,0.1c0.1,0,0.2,0,0.3,0.1c0.1,0,0.2,0,0.3,0.1c0.1,0,0.2,0,0.2,0.1
		c0.2,0.1,0.5,0.2,0.7,0.3c0.3,0.1,0.5,0.3,0.7,0.5c0.2,0.2,0.4,0.4,0.5,0.7s0.1,0.5,0.1,0.9c-0.1,0.4-0.2,0.7-0.4,1
		c-0.2,0.3-0.5,0.5-0.8,0.7c-0.3,0.2-0.6,0.3-1,0.4c-0.4,0.1-0.7,0.1-1,0.1c-0.2,0-0.5,0-0.8-0.1c-0.3,0-0.6-0.1-0.8-0.2
		s-0.5-0.2-0.7-0.4C176.3,14.2,176.1,14.1,176,13.8z"/>
	<path d="M189.8,15.1c-0.5,0-1-0.1-1.3-0.3c-0.4-0.2-0.6-0.5-0.8-0.8c-0.2-0.3-0.3-0.7-0.4-1.1s0-0.8,0.1-1.3c0.1-0.3,0.2-0.7,0.3-1
		c0.1-0.4,0.3-0.7,0.6-1c0.2-0.3,0.5-0.6,0.8-0.9c0.3-0.3,0.6-0.5,1-0.7l0.1,0c0,0,0,0,0,0s0,0,0,0c0.3-0.1,0.5-0.2,0.8-0.2
		s0.5-0.1,0.8-0.1c0.5,0,1,0.1,1.4,0.3c0.4,0.2,0.7,0.5,0.9,0.8s0.4,0.7,0.5,1.1c0.1,0.4,0.1,0.9,0,1.3c-0.1,0.3-0.2,0.6-0.3,0.9
		c-0.1,0.3-0.3,0.6-0.5,0.9c-0.2,0.3-0.5,0.6-0.8,0.8s-0.6,0.5-1,0.7c-0.3,0.2-0.7,0.3-1.1,0.4C190.5,15,190.1,15.1,189.8,15.1z
		 M190.4,13.6c0.3,0,0.5-0.1,0.8-0.2c0.3-0.1,0.5-0.3,0.7-0.5c0.2-0.2,0.4-0.4,0.5-0.7c0.2-0.3,0.2-0.5,0.3-0.8c0-0.3,0.1-0.5,0-0.8
		c0-0.3-0.1-0.5-0.2-0.7c-0.1-0.2-0.3-0.4-0.5-0.5c-0.2-0.1-0.5-0.2-0.7-0.2c-0.2,0-0.5,0.1-0.7,0.2c-0.2,0.1-0.4,0.3-0.6,0.5
		c-0.2,0.2-0.4,0.4-0.5,0.7c-0.1,0.2-0.2,0.5-0.3,0.7c-0.1,0.3-0.1,0.5-0.1,0.8c0,0.3,0,0.5,0.1,0.8c0.1,0.2,0.2,0.4,0.4,0.6
		C189.8,13.5,190.1,13.6,190.4,13.6z"/>
	<path d="M198.4,12.4c0.6-1,1.1-1.9,1.8-2.8c0.2-0.2,0.3-0.5,0.5-0.8s0.3-0.5,0.5-0.7c0.3-0.3,0.6-0.5,1-0.5c0.1,0,0.2,0,0.3,0
		s0.2,0.1,0.2,0.1c0.1,0.1,0.1,0.1,0.2,0.2c0,0.1,0,0.2,0,0.3c0,0.1,0,0.1-0.1,0.2c0,0.1-0.1,0.1-0.1,0.2c-0.4,0.6-0.7,1.1-1.1,1.7
		s-0.7,1.1-1.1,1.7c-0.3,0.4-0.5,0.8-0.7,1.2c-0.2,0.4-0.5,0.8-0.7,1.2c-0.1,0.2-0.3,0.4-0.5,0.5s-0.4,0.2-0.7,0.2
		c-0.1,0-0.2,0-0.4,0c-0.2,0-0.3-0.2-0.4-0.4s-0.2-0.4-0.3-0.7c-0.1-0.3-0.2-0.5-0.2-0.8c-0.1-0.3-0.1-0.4-0.1-0.6
		c-0.1-0.6-0.2-1.2-0.3-1.9c-0.1-0.6-0.2-1.2-0.3-1.9c0-0.1,0-0.1,0-0.2c0-0.1,0.1-0.2,0.2-0.4c0.1-0.1,0.2-0.2,0.3-0.3
		c0.1-0.1,0.2-0.1,0.4-0.2c0.1,0,0.2-0.1,0.4-0.1c0.3,0,0.5,0.1,0.6,0.4c0.1,0.1,0.1,0.3,0.1,0.5c0,0.2,0.1,0.3,0.1,0.5
		c0.1,0.3,0.1,0.6,0.2,1c0,0.3,0.1,0.7,0.2,1c0.1,0.2,0.1,0.4,0.1,0.7C198.3,12,198.3,12.2,198.4,12.4z"/>
	<path d="M204,12.1C204,12.1,204,12.1,204,12.1C204,12.2,204,12.2,204,12.1c-0.1,0.4-0.1,0.7,0.1,1c0.1,0.3,0.4,0.4,0.8,0.4
		c0.2,0,0.4,0,0.6-0.1s0.4-0.1,0.6-0.2c0.2-0.1,0.4-0.2,0.5-0.3c0.2-0.1,0.3-0.2,0.4-0.4c0.2-0.3,0.6-0.5,1-0.5
		c0.2,0,0.3,0.1,0.5,0.1c0.2,0.1,0.2,0.3,0.2,0.5c0,0.1,0,0.1-0.1,0.2c0,0.1-0.1,0.1-0.1,0.2c-0.2,0.3-0.4,0.6-0.8,0.9
		c-0.3,0.2-0.6,0.5-1,0.6s-0.7,0.3-1.1,0.4c-0.4,0.1-0.7,0.1-1.1,0.1c-0.9,0-1.5-0.2-1.9-0.7s-0.5-1.1-0.4-2
		c0.1-0.4,0.2-0.8,0.4-1.1c0-0.1-0.1-0.2,0-0.3c0-0.1,0.1-0.3,0.2-0.4c0.1-0.1,0.2-0.2,0.3-0.2c0.2-0.3,0.5-0.6,0.7-1
		s0.6-0.6,0.9-0.9c0.3-0.3,0.7-0.5,1.1-0.7s0.8-0.3,1.2-0.3c0.3,0,0.5,0,0.8,0.1c0.2,0.1,0.5,0.2,0.6,0.3c0.2,0.1,0.3,0.3,0.4,0.5
		c0.1,0.2,0.1,0.5,0,0.8c-0.1,0.2-0.1,0.4-0.3,0.7c-0.1,0.2-0.3,0.4-0.4,0.6c-0.2,0.3-0.5,0.5-0.8,0.7c-0.3,0.2-0.6,0.4-0.9,0.5
		c-0.3,0.1-0.7,0.2-1,0.3c-0.3,0.1-0.7,0.1-1,0.1c-0.1,0-0.2,0-0.3,0C204.2,12.2,204.1,12.1,204,12.1z M204.7,10.6
		c0.1,0,0.2,0,0.2,0c0.1,0,0.2,0,0.2,0c0.2,0,0.4,0,0.6,0c0.2,0,0.4-0.1,0.5-0.2c0.2-0.1,0.3-0.2,0.4-0.3s0.2-0.3,0.2-0.4
		c0-0.2,0-0.3-0.1-0.4c-0.1-0.1-0.2-0.2-0.4-0.2s-0.3,0.1-0.5,0.2c-0.2,0.1-0.4,0.2-0.5,0.4c-0.2,0.2-0.3,0.3-0.4,0.5
		C204.9,10.3,204.8,10.5,204.7,10.6z"/>
	<path d="M212.5,8.3c0.2-0.2,0.4-0.3,0.7-0.4s0.5-0.2,0.8-0.2c0.2,0,0.4,0,0.6,0.1s0.3,0.2,0.4,0.3c0.1,0.1,0.3,0.3,0.4,0.4
		c0.1,0.2,0.2,0.3,0.3,0.5c0,0.1,0.1,0.1,0.1,0.2c0,0.1,0,0.1,0,0.2c0,0.1-0.1,0.2-0.2,0.4s-0.2,0.2-0.3,0.3s-0.2,0.1-0.4,0.2
		s-0.3,0.1-0.4,0.1c-0.2,0-0.3,0-0.4-0.1c-0.1-0.1-0.2-0.2-0.3-0.4c0-0.1-0.1-0.1-0.1-0.2c0-0.1-0.1-0.1-0.1-0.2
		c0,0-0.1-0.1-0.2-0.1c-0.1,0-0.2,0.1-0.3,0.2c-0.1,0.1-0.2,0.3-0.3,0.5c-0.1,0.2-0.2,0.3-0.3,0.5s-0.1,0.3-0.2,0.4
		c-0.1,0.4-0.3,0.7-0.4,1.1c-0.1,0.4-0.2,0.7-0.2,1.1c0,0.2-0.1,0.3-0.1,0.5c0,0.2-0.1,0.3-0.1,0.5c0,0.1-0.1,0.2-0.2,0.4
		c-0.1,0.1-0.2,0.2-0.3,0.3s-0.2,0.1-0.4,0.2c-0.1,0-0.3,0.1-0.4,0.1c-0.2,0-0.4-0.1-0.5-0.2s-0.1-0.3-0.1-0.4
		c0-0.4,0.1-0.8,0.2-1.3c0.1-0.4,0.1-0.8,0.2-1.3c0.1-0.6,0.2-1.2,0.3-1.8c0.1-0.6,0.2-1.2,0.3-1.8c0-0.1,0.1-0.3,0.2-0.4
		c0.1-0.1,0.2-0.2,0.3-0.3s0.2-0.1,0.4-0.2c0.1,0,0.3-0.1,0.4-0.1c0.2,0,0.4,0,0.4,0.1s0.1,0.2,0.1,0.3c0,0,0,0.1,0,0.1
		C212.5,8.2,212.5,8.3,212.5,8.3z"/>
	<path d="M221.8,9.2c-0.2,0-0.4,0-0.6,0c-0.2,0-0.4,0-0.6,0c-0.2,0-0.3,0-0.4-0.1C220,9,220,8.9,220,8.7c0-0.1,0.1-0.2,0.2-0.4
		c0.1-0.1,0.2-0.2,0.3-0.3c0.1-0.1,0.2-0.2,0.4-0.2c0.1-0.1,0.3-0.1,0.4-0.1c0.2,0,0.4,0,0.5,0c0.2,0,0.4,0,0.5,0
		c0.1-0.4,0.2-0.7,0.4-1s0.2-0.7,0.4-1c0-0.2,0.1-0.3,0.2-0.5c0-0.2,0.1-0.3,0.2-0.5c0-0.1,0.1-0.2,0.2-0.4c0.1-0.1,0.2-0.2,0.3-0.3
		c0.1-0.1,0.2-0.1,0.4-0.2s0.3-0.1,0.4-0.1c0.2,0,0.3,0,0.4,0.1c0.1,0.1,0.1,0.2,0.1,0.4l0,0c-0.1,0.6-0.3,1.1-0.5,1.7
		c-0.2,0.6-0.4,1.1-0.5,1.7c0.3,0,0.6,0,0.9,0c0.3,0,0.6,0,0.9,0c0.2,0,0.3,0.1,0.4,0.1s0.2,0.2,0.1,0.4c0,0.2-0.2,0.5-0.4,0.6
		c-0.2,0.2-0.5,0.3-0.7,0.3c-0.3,0-0.6,0-0.9,0s-0.6,0-0.9,0c-0.1,0.5-0.2,0.9-0.4,1.3c-0.1,0.4-0.2,0.9-0.2,1.4c0,0.1,0,0.2,0,0.4
		c0,0.2,0,0.4,0.1,0.6c0,0,0,0.1,0,0.2c0,0.1,0,0.2,0.1,0.2c0,0.1,0.1,0.1,0.1,0.2c0,0.1,0.1,0.1,0.2,0.1c0,0,0.1,0,0.1,0
		s0.1,0,0.1-0.1c0.1-0.1,0.3-0.2,0.4-0.3c0.1-0.1,0.3-0.1,0.5-0.1c0.1,0,0.2,0,0.3,0s0.2,0.1,0.2,0.1c0.1,0.1,0.1,0.1,0.2,0.2
		c0,0.1,0,0.2,0,0.3c0,0.1-0.1,0.2-0.1,0.3c-0.1,0.1-0.1,0.2-0.2,0.2c-0.2,0.2-0.5,0.4-0.9,0.6c-0.3,0.1-0.7,0.2-1,0.2
		c-0.3,0-0.5,0-0.8-0.1c-0.2-0.1-0.4-0.2-0.6-0.4c-0.2-0.2-0.3-0.4-0.4-0.6c-0.1-0.2-0.2-0.5-0.2-0.7c0-0.4,0-0.8,0-1.2
		c0-0.4,0.1-0.8,0.2-1.2c0.1-0.3,0.1-0.6,0.2-0.9C221.6,9.8,221.7,9.5,221.8,9.2z"/>
	<path d="M229.6,8.3c0.3-0.2,0.6-0.4,0.9-0.6c0.3-0.1,0.7-0.2,1-0.2c0.3,0,0.6,0.1,0.8,0.2c0.2,0.1,0.4,0.3,0.6,0.5s0.3,0.5,0.4,0.7
		s0.1,0.6,0.2,0.9c0,0.3,0.1,0.6,0.1,0.9c0,0.3,0,0.6,0,0.9c0,0.3-0.1,0.6-0.1,0.9s-0.1,0.5-0.1,0.7c0,0.1-0.1,0.3-0.1,0.5
		c0,0.2-0.1,0.3-0.1,0.5c-0.1,0.3-0.3,0.5-0.5,0.6c-0.3,0.2-0.5,0.2-0.8,0.2c-0.2,0-0.3,0-0.3-0.1c-0.1,0-0.1-0.1-0.2-0.2
		s0-0.2,0-0.2s0-0.2,0-0.2c0-0.1,0-0.2,0.1-0.5c0-0.2,0.1-0.4,0.1-0.7s0-0.5,0.1-0.8c0-0.3,0-0.6,0-0.9s0-0.6,0-0.8
		c0-0.3-0.1-0.5-0.1-0.7c-0.1-0.2-0.1-0.4-0.2-0.5c-0.1-0.1-0.2-0.1-0.3-0.1c-0.2,0-0.4,0.1-0.6,0.3c-0.2,0.2-0.4,0.5-0.5,0.8
		c-0.2,0.3-0.3,0.6-0.4,0.9c-0.1,0.3-0.2,0.5-0.3,0.7c-0.1,0.3-0.2,0.6-0.3,0.8c-0.1,0.3-0.2,0.5-0.3,0.8c0,0.1-0.1,0.3-0.1,0.4
		c0,0.1-0.1,0.3-0.1,0.4c-0.1,0.2-0.3,0.4-0.5,0.5c-0.2,0.1-0.5,0.2-0.7,0.2c-0.2,0-0.3,0-0.5-0.1s-0.2-0.3-0.1-0.5
		c0.1-0.3,0.1-0.6,0.2-0.9c0.1-0.3,0.1-0.6,0.2-0.9l1.4-6.5c0-0.2,0.1-0.4,0.1-0.6c0-0.2,0.1-0.4,0.1-0.6c0.1-0.3,0.3-0.5,0.5-0.6
		c0.3-0.2,0.5-0.2,0.8-0.2c0.2,0,0.4,0.1,0.5,0.1c0.1,0.1,0.1,0.2,0.1,0.5c-0.1,0.6-0.2,1.2-0.4,1.8C229.9,7.1,229.7,7.7,229.6,8.3z
		"/>
	<path d="M236.6,12.1C236.6,12.1,236.6,12.1,236.6,12.1C236.6,12.2,236.5,12.2,236.6,12.1c-0.1,0.4-0.1,0.7,0.1,1
		c0.1,0.3,0.4,0.4,0.8,0.4c0.2,0,0.4,0,0.6-0.1s0.4-0.1,0.6-0.2c0.2-0.1,0.4-0.2,0.5-0.3c0.2-0.1,0.3-0.2,0.4-0.4
		c0.2-0.3,0.6-0.5,1-0.5c0.2,0,0.3,0.1,0.5,0.1c0.2,0.1,0.2,0.3,0.2,0.5c0,0.1,0,0.1-0.1,0.2c0,0.1-0.1,0.1-0.1,0.2
		c-0.2,0.3-0.4,0.6-0.8,0.9c-0.3,0.2-0.6,0.5-1,0.6s-0.7,0.3-1.1,0.4c-0.4,0.1-0.7,0.1-1.1,0.1c-0.9,0-1.5-0.2-1.9-0.7
		s-0.5-1.1-0.4-2c0.1-0.4,0.2-0.8,0.4-1.1c0-0.1-0.1-0.2,0-0.3c0-0.1,0.1-0.3,0.2-0.4c0.1-0.1,0.2-0.2,0.3-0.2
		c0.2-0.3,0.5-0.6,0.7-1s0.6-0.6,0.9-0.9c0.3-0.3,0.7-0.5,1.1-0.7s0.8-0.3,1.2-0.3c0.3,0,0.5,0,0.8,0.1c0.2,0.1,0.5,0.2,0.6,0.3
		c0.2,0.1,0.3,0.3,0.4,0.5c0.1,0.2,0.1,0.5,0,0.8c-0.1,0.2-0.1,0.4-0.3,0.7c-0.1,0.2-0.3,0.4-0.4,0.6c-0.2,0.3-0.5,0.5-0.8,0.7
		c-0.3,0.2-0.6,0.4-0.9,0.5c-0.3,0.1-0.7,0.2-1,0.3c-0.3,0.1-0.7,0.1-1,0.1c-0.1,0-0.2,0-0.3,0C236.7,12.2,236.7,12.1,236.6,12.1z
		 M237.3,10.6c0.1,0,0.2,0,0.2,0c0.1,0,0.2,0,0.2,0c0.2,0,0.4,0,0.6,0c0.2,0,0.4-0.1,0.5-0.2c0.2-0.1,0.3-0.2,0.4-0.3
		s0.2-0.3,0.2-0.4c0-0.2,0-0.3-0.1-0.4c-0.1-0.1-0.2-0.2-0.4-0.2s-0.3,0.1-0.5,0.2c-0.2,0.1-0.4,0.2-0.5,0.4
		c-0.2,0.2-0.3,0.3-0.4,0.5C237.5,10.3,237.4,10.5,237.3,10.6z"/>
	<path d="M246.7,13.6c0-0.2,0-0.4,0-0.6c0-0.2,0-0.4,0-0.6c0.1-1.1,0.2-2.3,0.5-3.5c0.2-1.2,0.5-2.3,0.8-3.4c0-0.2,0.1-0.4,0.1-0.6
		s0.1-0.4,0.2-0.6c0.1-0.2,0.2-0.4,0.4-0.5c0.2-0.1,0.4-0.2,0.7-0.2c0.2,0,0.4,0.1,0.5,0.2c0.1,0.1,0.2,0.3,0.1,0.5c0,0,0,0,0,0
		c0,0,0,0,0,0c-0.2,0.7-0.4,1.3-0.6,2c-0.2,0.7-0.3,1.3-0.5,2c-0.1,0.3-0.1,0.6-0.2,0.9c-0.1,0.3-0.1,0.6-0.2,0.9
		c0,0.2-0.1,0.5-0.2,0.8c0,0.3-0.1,0.6-0.1,1c0,0.3,0,0.6,0,0.9c0,0.3,0.1,0.5,0.3,0.7c0,0.1,0.1,0.1,0.2,0.1c0.1,0,0.1,0.1,0.2,0.1
		c0.1,0,0.2,0.1,0.3,0.2c0.1,0.1,0.1,0.2,0.1,0.4c0,0.1-0.1,0.2-0.2,0.4c-0.1,0.1-0.2,0.2-0.3,0.3c-0.1,0.1-0.2,0.2-0.4,0.2
		c-0.1,0-0.3,0.1-0.4,0.1c0,0-0.1,0-0.2,0c-0.5-0.1-0.8-0.4-1.1-0.7C246.9,14.4,246.8,14,246.7,13.6z"/>
	<path d="M255.8,13.1c-0.2,0.2-0.5,0.5-0.8,0.7c-0.3,0.2-0.6,0.4-0.9,0.6c-0.3,0.2-0.6,0.3-0.9,0.4c-0.3,0.1-0.6,0.1-1,0.1
		c-0.4,0-0.8-0.1-1-0.2c-0.2-0.2-0.4-0.4-0.5-0.6c-0.1-0.3-0.2-0.5-0.2-0.9c0-0.3,0-0.6,0.1-0.9c0.1-0.4,0.2-0.8,0.4-1.3
		c0.2-0.4,0.4-0.9,0.7-1.3c0.3-0.4,0.6-0.8,0.9-1.1c0.4-0.3,0.8-0.6,1.2-0.8c0.2-0.1,0.4-0.2,0.6-0.2s0.4-0.1,0.7-0.1
		c0.3,0,0.6,0.1,0.8,0.2c0.2,0.1,0.4,0.3,0.6,0.5c0.2,0.2,0.3,0.4,0.4,0.7c0.1,0.2,0.2,0.5,0.2,0.7c0,0,0,0,0,0.1c0,0,0,0.1,0,0.1
		c0.1,0.1,0.2,0.1,0.2,0.2c0,0.1,0.1,0.2,0.1,0.3c0,0.1,0,0.2,0,0.3s0,0.2,0,0.4c0,0.2,0,0.5,0,0.8s0,0.5,0.1,0.8
		c0.1,0.3,0.1,0.5,0.2,0.7c0.1,0.2,0.2,0.4,0.4,0.5c0.1,0.1,0.1,0.1,0.2,0.2c0.1,0.1,0.1,0.2,0.1,0.3c0,0.1-0.1,0.2-0.2,0.4
		c-0.1,0.1-0.2,0.2-0.3,0.3c-0.1,0.1-0.3,0.1-0.4,0.2s-0.3,0.1-0.4,0.1c-0.2,0-0.4-0.1-0.6-0.2c-0.2-0.1-0.3-0.3-0.4-0.5
		c-0.1-0.2-0.2-0.4-0.3-0.6S255.9,13.3,255.8,13.1z M255.7,10.4c-0.1-0.1-0.2-0.2-0.2-0.3c0,0,0-0.1-0.1-0.2c0-0.1,0-0.1-0.1-0.2
		c-0.1-0.2-0.1-0.3-0.2-0.5C255,9.1,254.9,9,254.7,9c-0.2,0-0.3,0.1-0.5,0.2c-0.2,0.1-0.3,0.2-0.4,0.4c-0.3,0.3-0.6,0.7-0.8,1.2
		s-0.4,0.9-0.4,1.3c0,0.1-0.1,0.3-0.1,0.5c0,0.2,0,0.3,0,0.5c0,0.1,0.1,0.3,0.2,0.3s0.2,0.1,0.4,0.1c0.1,0,0.4-0.1,0.6-0.3
		c0.5-0.3,0.9-0.7,1.3-1.2C255.3,11.6,255.5,11,255.7,10.4z"/>
	<path d="M262.1,13.3c0.4,0,0.9,0,1.3,0s0.9,0.1,1.3,0.1c0.1,0,0.2,0,0.2,0.1c0.1,0,0.1,0.1,0.2,0.1c0.1,0.1,0.1,0.1,0.1,0.2
		c0,0.1,0,0.2,0,0.3c0,0.2-0.2,0.5-0.4,0.6c-0.2,0.2-0.5,0.3-0.7,0.3H264c-0.4,0-0.7,0-1.1-0.1c-0.4,0-0.7,0-1.1,0
		c-0.3,0-0.5,0-0.8,0s-0.5,0.1-0.8,0.1c0,0-0.1,0-0.1,0c-0.1,0-0.2,0-0.3,0c-0.1,0-0.2-0.1-0.3-0.1c-0.1-0.1-0.1-0.1-0.2-0.2
		c0-0.1,0-0.2,0-0.3c0-0.1,0.1-0.3,0.2-0.4c0.2-0.3,0.5-0.6,0.8-0.9s0.5-0.6,0.8-0.9c0.5-0.6,1-1.1,1.5-1.7s1-1.1,1.5-1.7
		c-0.3,0-0.6,0-0.9,0.1c-0.3,0-0.6,0-0.9,0c-0.2,0-0.3,0-0.5,0c-0.2,0-0.3,0-0.4-0.1c-0.1,0-0.3-0.1-0.4-0.2
		c-0.1-0.1-0.2-0.2-0.2-0.4c0-0.1,0.1-0.2,0.2-0.4c0.1-0.1,0.2-0.2,0.3-0.3c0.1-0.1,0.3-0.2,0.4-0.2c0.1-0.1,0.3-0.1,0.4-0.1
		c0.1,0,0.1,0,0.2,0c0.3,0.1,0.7,0.1,1,0.1c0.3,0,0.6,0,1,0c0.3,0,0.6,0,1,0h0.4c0.1,0,0.2,0,0.2,0c0.1,0,0.1,0,0.2,0
		c0.2,0,0.3,0.1,0.4,0.2c0.1,0.1,0.1,0.2,0.1,0.4c0,0.1-0.1,0.2-0.2,0.4c-0.1,0.2-0.3,0.4-0.5,0.7s-0.4,0.5-0.7,0.8
		c-0.2,0.3-0.5,0.6-0.7,0.9c-0.2,0.2-0.4,0.5-0.7,0.7s-0.4,0.5-0.6,0.7c-0.2,0.2-0.4,0.4-0.6,0.6S262.2,13.2,262.1,13.3z"/>
	<path d="M271.2,13.9c-0.3,0.3-0.7,0.6-1.1,0.8c-0.4,0.2-0.9,0.3-1.4,0.3c-0.3,0-0.6-0.1-0.8-0.2s-0.4-0.2-0.5-0.4
		c-0.1-0.2-0.3-0.4-0.3-0.6s-0.1-0.5-0.2-0.7s0-0.5,0-0.8c0-0.3,0-0.5,0-0.8c0-0.3,0.1-0.5,0.1-0.7c0-0.2,0.1-0.4,0.1-0.6
		c0-0.3,0.1-0.6,0.2-0.8c0.1-0.3,0.1-0.6,0.2-0.8c0.1-0.3,0.3-0.5,0.5-0.6c0.3-0.2,0.5-0.2,0.8-0.2c0.2,0,0.3,0,0.4,0.1
		c0.1,0.1,0.2,0.2,0.1,0.4l0,0.1c-0.1,0.3-0.2,0.6-0.2,0.9s-0.2,0.6-0.2,0.9c0,0.2-0.1,0.5-0.1,0.8c0,0.3-0.1,0.6-0.1,0.9
		c0,0.3,0,0.6,0.1,0.8c0,0.3,0.1,0.4,0.3,0.6c0.1,0.1,0.3,0.2,0.4,0.2c0.2,0,0.3-0.1,0.5-0.2c0.2-0.2,0.3-0.3,0.5-0.6
		c0.2-0.2,0.3-0.5,0.4-0.8c0.1-0.3,0.3-0.6,0.4-0.8c0.1-0.3,0.2-0.5,0.3-0.8s0.1-0.4,0.2-0.5c0-0.1,0.1-0.3,0.1-0.4
		c0-0.2,0.1-0.3,0.1-0.5c0-0.1,0.1-0.2,0.2-0.4c0.1-0.1,0.2-0.2,0.3-0.3s0.2-0.1,0.4-0.2s0.3-0.1,0.4-0.1c0.2,0,0.4,0.1,0.5,0.2
		c0.1,0.1,0.1,0.3,0.1,0.4c0,0.2-0.1,0.5-0.1,0.7s-0.1,0.5-0.1,0.7l-0.4,3c0,0.3-0.1,0.6-0.1,0.8c0,0.3-0.1,0.6-0.1,0.8
		c-0.1,0.5-0.3,1-0.5,1.4s-0.5,0.8-0.9,1.1c-0.4,0.3-0.8,0.6-1.2,0.7c-0.5,0.2-1,0.3-1.5,0.3c-0.3,0-0.6,0-1-0.1
		c-0.3-0.1-0.6-0.2-0.9-0.3c-0.1-0.1-0.2-0.1-0.3-0.2c-0.1-0.1-0.1-0.2-0.1-0.4c0-0.1,0.1-0.2,0.1-0.3s0.2-0.2,0.3-0.3
		s0.2-0.1,0.4-0.2c0.1,0,0.2-0.1,0.4-0.1c0.1,0,0.2,0,0.3,0c0.1,0,0.2,0.1,0.3,0.1c0.1,0,0.2,0.1,0.3,0.1c0.2,0.1,0.4,0.1,0.7,0.1
		c0.4,0,0.7-0.1,0.9-0.3c0.2-0.2,0.4-0.4,0.5-0.7s0.2-0.6,0.3-0.9S271.2,14.2,271.2,13.9z"/>
	<path d="M284.6,5.8c0-0.2,0.1-0.4,0.1-0.5c0-0.2,0.1-0.4,0.1-0.5c0.1-0.3,0.2-0.5,0.5-0.6s0.5-0.2,0.7-0.2c0.2,0,0.3,0.1,0.4,0.2
		c0.1,0.1,0.1,0.2,0.1,0.4c-0.1,0.3-0.1,0.6-0.2,0.9c-0.1,0.3-0.1,0.6-0.2,0.9c-0.1,0.6-0.2,1.1-0.3,1.7c-0.1,0.6-0.2,1.2-0.3,1.7
		c-0.1,0.5-0.2,1.1-0.3,1.6c-0.1,0.5-0.2,1-0.4,1.6c0,0.2-0.1,0.4-0.1,0.6s-0.1,0.4-0.2,0.6c-0.1,0.2-0.2,0.5-0.5,0.6
		c-0.3,0.2-0.5,0.2-0.8,0.2c-0.1,0-0.3,0-0.4-0.1c-0.1-0.1-0.2-0.2-0.2-0.3c-0.6,0.1-1.2,0.2-1.8,0.2c-1.1,0-1.8-0.3-2.3-0.8
		c-0.5-0.5-0.6-1.3-0.4-2.3c0.1-0.5,0.3-1,0.5-1.5c0.3-0.5,0.6-1,1-1.4c0.4-0.4,0.8-0.8,1.3-1c0.5-0.3,1-0.4,1.5-0.4
		c0.3,0,0.5,0,0.8,0.1c0.2,0.1,0.5,0.2,0.7,0.3L284.6,5.8z M282.9,13.2c0-0.1,0-0.3,0.1-0.4s0.1-0.3,0.1-0.4
		c0.1-0.4,0.1-0.7,0.2-1.1s0.2-0.7,0.2-1.1l0-0.1c-0.1-0.3-0.3-0.5-0.5-0.8c-0.2-0.2-0.5-0.3-0.9-0.3c-0.3,0-0.5,0.1-0.7,0.3
		c-0.2,0.2-0.4,0.4-0.6,0.6s-0.3,0.5-0.4,0.8c-0.1,0.3-0.2,0.6-0.2,0.8c-0.1,0.6-0.1,1.1,0.1,1.4c0.2,0.3,0.7,0.4,1.4,0.4
		C282.1,13.3,282.5,13.3,282.9,13.2z"/>
	<path d="M288.5,15.1c-0.5,0-1-0.1-1.3-0.3c-0.3-0.2-0.6-0.5-0.8-0.8c-0.2-0.3-0.3-0.7-0.4-1.1s0-0.8,0.1-1.3c0.1-0.3,0.2-0.7,0.3-1
		c0.2-0.4,0.3-0.7,0.6-1c0.2-0.3,0.5-0.6,0.8-0.9c0.3-0.3,0.6-0.5,1-0.7l0.1,0c0,0,0,0,0,0s0,0,0,0c0.3-0.1,0.5-0.2,0.8-0.2
		s0.5-0.1,0.8-0.1c0.5,0,1,0.1,1.4,0.3c0.4,0.2,0.7,0.5,0.9,0.8s0.4,0.7,0.5,1.1c0.1,0.4,0.1,0.9,0,1.3c-0.1,0.3-0.2,0.6-0.3,0.9
		c-0.1,0.3-0.3,0.6-0.5,0.9c-0.2,0.3-0.5,0.6-0.8,0.8s-0.6,0.5-1,0.7c-0.3,0.2-0.7,0.3-1.1,0.4C289.3,15,288.9,15.1,288.5,15.1z
		 M289.1,13.6c0.3,0,0.5-0.1,0.8-0.2c0.3-0.1,0.5-0.3,0.7-0.5c0.2-0.2,0.4-0.4,0.5-0.7c0.2-0.3,0.2-0.5,0.3-0.8c0-0.3,0.1-0.5,0-0.8
		c0-0.3-0.1-0.5-0.2-0.7c-0.1-0.2-0.3-0.4-0.5-0.5c-0.2-0.1-0.5-0.2-0.7-0.2c-0.2,0-0.5,0.1-0.7,0.2c-0.2,0.1-0.4,0.3-0.6,0.5
		c-0.2,0.2-0.4,0.4-0.5,0.7c-0.1,0.2-0.2,0.5-0.3,0.7c0,0.3-0.1,0.5-0.1,0.8c0,0.3,0,0.5,0.1,0.8c0.1,0.2,0.2,0.4,0.4,0.6
		C288.6,13.5,288.8,13.6,289.1,13.6z"/>
	<path d="M298.8,13.7c-0.2,0.2-0.4,0.3-0.6,0.5c-0.2,0.2-0.5,0.3-0.7,0.4c-0.2,0.1-0.5,0.2-0.7,0.3c-0.3,0.1-0.5,0.1-0.8,0.1
		c-0.4,0-0.7-0.1-1-0.2c-0.3-0.2-0.5-0.4-0.6-0.6c-0.2-0.2-0.2-0.5-0.3-0.8s0-0.6,0-0.9c0.1-0.5,0.3-1.1,0.7-1.6
		c0.4-0.6,0.8-1.1,1.3-1.5c0.5-0.5,1-0.8,1.6-1.1c0.6-0.3,1.1-0.4,1.7-0.4c0.3,0,0.5,0,0.8,0.1c0.2,0.1,0.4,0.2,0.6,0.4
		c0.2,0.2,0.3,0.3,0.4,0.5s0.2,0.4,0.3,0.6c0,0.1,0,0.2,0,0.3c0,0.1,0,0.1-0.1,0.2c0,0.1,0,0.2,0,0.4c0,0.2,0,0.3-0.1,0.5
		c0,0.2-0.1,0.4-0.1,0.5c0,0.2-0.1,0.3-0.1,0.4c0,0.1,0,0.2-0.1,0.3c0,0.1,0,0.2-0.1,0.3l-0.3,1.4c0,0.1,0,0.2-0.1,0.3
		c0,0.1,0,0.2-0.1,0.3c-0.1,0.4-0.2,0.7-0.3,1.1s-0.3,0.8-0.5,1.1c-0.3,0.5-0.7,0.8-1.1,1.1c-0.4,0.3-0.9,0.4-1.5,0.4
		c-0.2,0-0.5,0-0.8-0.1s-0.5-0.2-0.8-0.3c-0.2-0.1-0.5-0.3-0.6-0.4c-0.2-0.2-0.4-0.3-0.5-0.5c0-0.1-0.1-0.1-0.1-0.2
		c0-0.1,0-0.1,0-0.2c0-0.1,0.1-0.2,0.2-0.4c0.1-0.1,0.2-0.2,0.3-0.3s0.2-0.1,0.4-0.2c0.1,0,0.3-0.1,0.4-0.1c0.2,0,0.4,0.1,0.5,0.2
		c0.2,0.2,0.4,0.4,0.6,0.6c0.2,0.2,0.5,0.3,0.8,0.3c0.2,0,0.4-0.1,0.5-0.2c0.1-0.1,0.3-0.3,0.4-0.5s0.2-0.4,0.2-0.6
		c0.1-0.2,0.1-0.4,0.1-0.6c0-0.1,0.1-0.3,0.1-0.4c0-0.1,0-0.2,0.1-0.3c0-0.1,0-0.1,0-0.2C298.8,13.9,298.8,13.8,298.8,13.7z
		 M299.5,10c-0.1-0.2-0.2-0.4-0.3-0.5s-0.3-0.2-0.5-0.2c-0.3,0-0.6,0.1-0.9,0.3c-0.3,0.2-0.6,0.4-0.9,0.7s-0.5,0.6-0.7,0.9
		c-0.2,0.3-0.3,0.6-0.4,0.9c-0.1,0.4-0.1,0.7,0,0.9c0.1,0.2,0.3,0.4,0.7,0.4c0.2,0,0.4,0,0.5-0.1c0.1-0.1,0.3-0.2,0.4-0.3
		c0.4-0.4,0.8-0.8,1.2-1.3c0.4-0.4,0.6-1,0.8-1.6C299.5,10.2,299.5,10.2,299.5,10C299.5,10.1,299.5,10.1,299.5,10z"/>
	<path d="M8.5,21.5c-0.3,0-0.6,0-0.9,0s-0.6,0-0.9,0c-0.1,0-0.1,0-0.2,0s-0.1-0.1-0.2-0.1c-0.1,0-0.1-0.1-0.1-0.2c0-0.1,0-0.2,0-0.3
		c0-0.2,0.2-0.5,0.4-0.7s0.5-0.3,0.8-0.3h2.6c0.3,0,0.6,0,0.9,0s0.6,0,0.9,0c0.1,0,0.3,0,0.4,0c0.1,0,0.3,0,0.4,0c0.1,0,0.1,0,0.2,0
		c0.1,0,0.1,0,0.2,0.1c0.1,0,0.1,0.1,0.1,0.2c0,0.1,0,0.2,0,0.3c0,0.1-0.1,0.3-0.2,0.4c-0.1,0.1-0.2,0.2-0.3,0.3s-0.2,0.1-0.4,0.2
		c-0.1,0.1-0.3,0.1-0.4,0.1c-0.3,0-0.5,0-0.8,0s-0.5,0-0.8,0c-0.2,0.9-0.3,1.7-0.5,2.6s-0.3,1.7-0.5,2.6C9.2,27.5,9,28.3,8.9,29
		c0,0.2-0.1,0.4-0.1,0.6c0,0.2-0.1,0.4-0.1,0.6c0,0.1-0.1,0.2-0.2,0.4c-0.1,0.1-0.2,0.2-0.3,0.3C7.9,30.9,7.8,31,7.7,31
		c-0.1,0-0.3,0.1-0.4,0.1c-0.2,0-0.4-0.1-0.5-0.2c-0.1-0.1-0.1-0.2-0.1-0.4c0-0.1,0-0.3,0.1-0.5c0-0.2,0-0.3,0.1-0.4
		c0.1-0.4,0.1-0.7,0.2-1c0.1-0.3,0.1-0.7,0.2-1c0.2-1,0.4-2,0.6-3C8.1,23.5,8.3,22.5,8.5,21.5z"/>
	<path d="M14.1,29.4c0,0.1,0,0.3-0.1,0.4c0,0.1-0.1,0.3-0.1,0.4c-0.1,0.3-0.2,0.5-0.5,0.6c-0.3,0.2-0.5,0.2-0.8,0.2
		c-0.2,0-0.3-0.1-0.4-0.2c-0.1-0.1-0.1-0.2-0.1-0.4c0-0.1,0-0.2,0-0.3c0-0.1,0-0.2,0-0.3c0.1-0.8,0.3-1.6,0.4-2.4
		c0.1-0.8,0.3-1.6,0.5-2.4c0.1-0.7,0.3-1.4,0.4-2.2c0.1-0.7,0.3-1.4,0.4-2.2c0-0.1,0.1-0.3,0.2-0.4s0.2-0.2,0.3-0.3
		c0.1-0.1,0.2-0.1,0.4-0.2c0.1,0,0.3-0.1,0.4-0.1c0.4,0,0.6,0.2,0.6,0.6c0,0.3-0.1,0.6-0.1,0.9s-0.1,0.6-0.2,0.9
		c-0.1,0.6-0.2,1.2-0.3,1.7c-0.1,0.6-0.2,1.2-0.3,1.7c0.5,0,1.1,0,1.6,0s1.1,0,1.6-0.1c0.1-0.7,0.2-1.4,0.4-2c0.1-0.7,0.3-1.3,0.4-2
		c0-0.1,0.1-0.3,0.1-0.4c0-0.1,0.1-0.3,0.1-0.4c0.1-0.3,0.3-0.5,0.5-0.6c0.3-0.2,0.5-0.2,0.8-0.2c0.2,0,0.3,0,0.4,0.1
		c0.1,0.1,0.1,0.2,0.1,0.4v0c-0.1,0.4-0.2,0.7-0.2,1s-0.1,0.7-0.2,1c-0.2,1-0.4,1.9-0.5,2.9c-0.1,0.9-0.3,1.9-0.5,2.9
		c-0.1,0.3-0.1,0.6-0.2,0.9s-0.1,0.6-0.2,0.9c-0.1,0.3-0.2,0.5-0.5,0.6c-0.3,0.2-0.5,0.2-0.8,0.2c-0.3,0-0.4-0.1-0.5-0.3
		c0-0.1,0-0.2,0-0.3c0-0.1,0-0.2,0-0.3c0.1-0.5,0.2-1.1,0.3-1.6c0.1-0.5,0.2-1,0.3-1.6c-0.5,0-1.1,0-1.6,0s-1.1,0-1.6,0L14.1,29.4z"
		/>
	<path d="M23,27c0,0.2-0.1,0.5-0.1,0.7c-0.1,0.3-0.1,0.6-0.1,0.8c0,0.3,0,0.5,0.1,0.7c0.1,0.2,0.3,0.3,0.5,0.3c0.1,0,0.2,0,0.3,0
		c0.1,0,0.2,0,0.3,0c0.4-0.1,0.9-0.1,1.3-0.2c0.4-0.1,0.9-0.1,1.3-0.2c0.1,0,0.1,0,0.1,0s0.1,0,0.1,0c0.2,0,0.4,0.1,0.5,0.2
		c0.1,0.1,0.2,0.3,0.1,0.5c-0.1,0.2-0.2,0.4-0.4,0.6s-0.4,0.3-0.6,0.3c-0.5,0.1-1.1,0.2-1.8,0.4c-0.7,0.1-1.3,0.2-1.8,0.2
		c-0.3,0-0.6,0-0.9-0.1c-0.2,0-0.4-0.1-0.6-0.3c-0.2-0.1-0.3-0.3-0.4-0.5c-0.1-0.2-0.1-0.5-0.1-0.9c0-0.6,0-1.2,0.1-1.8
		c0.1-0.6,0.2-1.2,0.3-1.8c0.1-0.6,0.2-1.1,0.4-1.7c0.1-0.5,0.3-1.1,0.4-1.7c0.1-0.3,0.1-0.5,0.2-0.8c0.1-0.3,0.1-0.5,0.2-0.8
		c0-0.2,0.1-0.3,0.2-0.4c0.1-0.1,0.2-0.2,0.3-0.3c0.1-0.1,0.2-0.1,0.4-0.2s0.2-0.1,0.4-0.1c0,0,0,0,0.1,0c0,0,0,0,0.1,0
		c0,0,0.1,0,0.1,0s0.2,0,0.3,0c0.1,0,0.2,0,0.3,0s0.1,0,0.2,0l1.4,0h0.7c0.3,0,0.6,0,0.9,0c0.3,0,0.6,0,0.9,0.1c0.1,0,0.1,0,0.2,0
		c0.1,0,0.1,0.1,0.2,0.1c0.1,0,0.1,0.1,0.1,0.2c0,0.1,0,0.2,0,0.3c-0.1,0.2-0.2,0.5-0.4,0.6c-0.2,0.2-0.5,0.3-0.7,0.3
		c-0.2,0-0.5,0-0.7,0c-0.2,0-0.5,0-0.7,0c-0.4,0-0.8,0-1.2,0c-0.4,0-0.8,0-1.2,0c-0.2,0.7-0.3,1.4-0.4,2c-0.1,0.7-0.3,1.3-0.4,2
		c0.6-0.1,1.3-0.1,1.9-0.2c0.6-0.1,1.3-0.1,1.9-0.1c0,0,0.1,0,0.1,0s0.1,0,0.1,0c0,0,0.1,0,0.1,0c0,0,0.1,0,0.1,0
		c0.1,0,0.2,0.1,0.3,0.1c0.1,0.1,0.1,0.2,0.1,0.3c-0.1,0.2-0.2,0.4-0.4,0.6c-0.2,0.2-0.5,0.3-0.7,0.3c-0.2,0-0.4,0.1-0.7,0.1
		c-0.2,0-0.4,0-0.7,0c-0.4,0-0.9,0.1-1.3,0.1C23.9,27,23.4,27,23,27z"/>
	<path d="M38.1,30.2c-0.4,0.3-0.7,0.5-1.2,0.7c-0.4,0.2-0.9,0.3-1.3,0.3c-0.3,0-0.6-0.1-0.9-0.2c-0.2-0.1-0.5-0.3-0.7-0.5
		c-0.2-0.3-0.4-0.6-0.6-1c-0.1-0.4-0.2-0.7-0.3-1.1c0-0.4,0-0.8,0-1.2c0-0.4,0.1-0.8,0.2-1.2c0.1-0.7,0.3-1.3,0.5-1.9
		c0.2-0.6,0.5-1.2,0.8-1.9c0,0,0,0,0-0.1c0,0,0,0,0-0.1c0.2-0.3,0.4-0.6,0.7-0.9c0.3-0.3,0.5-0.5,0.9-0.8c0.3-0.2,0.7-0.4,1-0.5
		s0.7-0.2,1.1-0.2c0.4,0,0.7,0.1,1,0.2c0.3,0.1,0.6,0.3,0.9,0.5c0.3,0.3,0.5,0.6,0.7,0.9s0.3,0.7,0.4,1.1c0.1,0.4,0.1,0.8,0.1,1.1
		s-0.1,0.8-0.1,1.2c-0.1,0.6-0.3,1.3-0.6,2c-0.3,0.7-0.7,1.3-1.1,1.8c0,0.1,0.1,0.2,0.1,0.3c0.1,0.1,0.1,0.3,0.2,0.4
		c0,0.1,0.1,0.2,0.1,0.2s0,0.2,0.1,0.2c0,0.1,0,0.1,0,0.2c0,0,0,0.1,0,0.2c0,0.1-0.1,0.2-0.2,0.4c-0.1,0.1-0.2,0.2-0.3,0.3
		S39.5,31,39.3,31c-0.1,0-0.3,0.1-0.4,0.1c-0.2,0-0.4-0.1-0.5-0.3c-0.1-0.1-0.1-0.1-0.1-0.2c0-0.1-0.1-0.1-0.1-0.2c0,0,0-0.1,0-0.1
		C38.2,30.3,38.2,30.2,38.1,30.2z M37.6,28.8c-0.1-0.1-0.1-0.3-0.2-0.6c-0.1-0.3-0.2-0.6-0.3-0.8c-0.1-0.3-0.2-0.6-0.3-0.9
		c-0.1-0.3-0.1-0.5-0.1-0.6c0-0.1,0.1-0.2,0.2-0.3c0.1-0.1,0.2-0.2,0.3-0.2c0.1-0.1,0.2-0.1,0.4-0.1c0.1,0,0.2-0.1,0.3-0.1
		c0.3,0,0.5,0.1,0.6,0.4c0,0.1,0.1,0.2,0.1,0.3c0,0.1,0.1,0.2,0.1,0.3c0,0.1,0.1,0.3,0.1,0.4c0,0.1,0.1,0.3,0.1,0.4
		c0.3-0.6,0.5-1.1,0.6-1.7c0.1-0.7,0.2-1.3,0-1.9c0-0.2-0.1-0.4-0.2-0.6S39.2,22.2,39,22c-0.1-0.2-0.3-0.3-0.5-0.4
		c-0.2-0.1-0.4-0.2-0.6-0.2c-0.2,0-0.4,0-0.5,0.1c-0.2,0.1-0.3,0.2-0.5,0.3c-0.1,0.1-0.3,0.3-0.4,0.4s-0.2,0.3-0.3,0.5
		c-0.4,0.9-0.7,1.7-0.9,2.6c-0.1,0.2-0.1,0.5-0.1,1c0,0.4,0,0.9,0,1.3c0,0.5,0.1,0.9,0.2,1.2c0.1,0.3,0.2,0.5,0.4,0.6
		c0.1,0,0.2,0.1,0.4,0.1c0.2,0,0.5-0.1,0.7-0.2C37.2,29.2,37.4,29,37.6,28.8z"/>
	<path d="M47.6,29.7c-0.4,0.4-0.8,0.7-1.2,1c-0.5,0.3-1,0.4-1.5,0.4c-0.5,0-0.9-0.1-1.2-0.3c-0.3-0.2-0.5-0.4-0.7-0.8
		c-0.2-0.3-0.3-0.7-0.3-1.1c-0.1-0.4-0.1-0.8-0.1-1.2c0-0.4,0-0.8,0.1-1.2c0.1-0.4,0.1-0.7,0.2-1c0.1-0.5,0.2-1.1,0.4-1.6
		c0.1-0.5,0.3-1.1,0.5-1.6c0.1-0.2,0.1-0.4,0.2-0.7s0.1-0.4,0.2-0.6c0.1-0.3,0.3-0.5,0.5-0.6c0.3-0.2,0.5-0.2,0.8-0.2
		c0.2,0,0.3,0,0.4,0.1c0.1,0.1,0.1,0.2,0.1,0.4l0,0.1c-0.2,0.6-0.4,1.3-0.5,1.9c-0.2,0.6-0.3,1.2-0.4,1.9c0,0.2-0.1,0.3-0.1,0.5
		c0,0.2,0,0.3-0.1,0.5c0,0.3-0.1,0.6-0.1,1c-0.1,0.4-0.1,0.7-0.1,1.1c0,0.4,0,0.7,0.1,1c0.1,0.3,0.2,0.5,0.4,0.7
		c0.1,0.1,0.2,0.1,0.2,0.2c0.1,0.1,0.2,0.1,0.3,0.1c0.2,0,0.3-0.1,0.5-0.2c0.2-0.1,0.3-0.3,0.4-0.6c0.1-0.2,0.3-0.5,0.4-0.8
		c0.1-0.3,0.2-0.6,0.3-0.8c0.1-0.3,0.2-0.5,0.2-0.8s0.1-0.4,0.1-0.5c0.1-0.5,0.3-1.1,0.4-1.6s0.2-1.1,0.3-1.6
		c0.1-0.2,0.1-0.5,0.2-0.8c0.1-0.3,0.1-0.6,0.2-0.8c0.1-0.3,0.2-0.5,0.5-0.6c0.2-0.2,0.5-0.2,0.8-0.2c0.2,0,0.4,0.1,0.5,0.2
		c0.1,0.1,0.1,0.2,0.1,0.4c0,0.1,0,0.3-0.1,0.5c0,0.2-0.1,0.3-0.1,0.5c0,0.4-0.1,0.7-0.2,1.1s-0.1,0.7-0.2,1.1
		c-0.1,0.6-0.2,1.1-0.3,1.6c-0.1,0.5-0.1,1-0.2,1.5c0,0.5-0.1,1,0,1.5c0,0.5,0.1,1,0.2,1.5c0,0.1,0,0.1,0,0.2c0,0.1-0.1,0.2-0.2,0.4
		c-0.1,0.1-0.2,0.2-0.3,0.3s-0.2,0.1-0.4,0.2c-0.1,0-0.2,0.1-0.4,0.1c-0.3,0-0.5-0.1-0.6-0.4c-0.1-0.2-0.1-0.3-0.1-0.5
		S47.6,29.8,47.6,29.7z"/>
	<path d="M51.3,30.6c0-0.1,0-0.3,0.1-0.4s0.1-0.3,0.1-0.4c0.2-1.1,0.4-2.2,0.7-3.3c0.2-1.1,0.5-2.2,0.7-3.3l0.4-1.7
		c0-0.1,0-0.2,0.1-0.4c0-0.1,0.1-0.2,0.1-0.4c0.1-0.3,0.2-0.5,0.5-0.6c0.2-0.2,0.5-0.2,0.8-0.2c0.2,0,0.3,0.1,0.4,0.1
		c0.1,0.1,0.1,0.2,0.1,0.4c-0.1,0.4-0.2,0.9-0.3,1.3s-0.2,0.9-0.3,1.3c-0.2,0.9-0.4,1.9-0.6,2.8c-0.2,0.9-0.4,1.8-0.5,2.8l-0.3,1.7
		c0,0.1-0.1,0.2-0.2,0.4s-0.2,0.2-0.3,0.3s-0.2,0.1-0.4,0.2c-0.1,0-0.3,0.1-0.4,0.1c-0.2,0-0.4-0.1-0.5-0.2
		C51.3,30.9,51.2,30.8,51.3,30.6z"/>
	<path d="M61.9,23c0-0.2,0-0.4-0.1-0.5s-0.1-0.3-0.3-0.5c-0.1-0.1-0.2-0.2-0.4-0.3c-0.2-0.1-0.3-0.1-0.5-0.1c-0.3,0-0.6,0.1-0.9,0.2
		c-0.3,0.2-0.5,0.4-0.8,0.6c-0.5,0.5-0.9,1-1.2,1.6c-0.3,0.6-0.5,1.2-0.6,1.9C57.1,26.2,57,26.6,57,27c0,0.4,0,0.8,0.1,1.2
		c0.1,0.4,0.3,0.7,0.5,0.9s0.6,0.4,1.1,0.4c0.4,0,0.8-0.1,1.1-0.3c0.4-0.2,0.7-0.4,0.9-0.7c0.1-0.1,0.1-0.1,0.1-0.2
		c0.3-0.3,0.6-0.5,1-0.5c0.1,0,0.2,0,0.2,0s0.2,0.1,0.2,0.1c0.1,0.1,0.1,0.1,0.1,0.2c0,0.1,0,0.2,0,0.3c0,0.1-0.1,0.2-0.2,0.3
		c-0.2,0.3-0.5,0.7-0.8,0.9s-0.7,0.5-1,0.7s-0.8,0.4-1.2,0.5s-0.8,0.2-1.2,0.2c-0.8,0-1.3-0.2-1.8-0.5c-0.4-0.3-0.8-0.7-1-1.2
		c-0.2-0.5-0.3-1-0.3-1.6c0-0.6,0-1.2,0.1-1.7c0.1-0.6,0.3-1.1,0.5-1.8c0.3-0.6,0.6-1.2,1-1.7c0.4-0.5,0.9-1,1.4-1.5
		c0.5-0.4,1.1-0.8,1.8-1c0.2,0,0.3-0.1,0.5-0.1s0.3,0,0.5,0c0.3,0,0.7,0.1,0.9,0.1c0.3,0.1,0.5,0.2,0.8,0.4c0.2,0.2,0.4,0.4,0.6,0.6
		c0.1,0.2,0.2,0.5,0.3,0.8c0,0.1,0,0.2,0,0.4s0,0.3,0,0.4c0,0.1-0.1,0.2-0.2,0.4s-0.2,0.2-0.3,0.3c-0.1,0.1-0.2,0.1-0.4,0.2
		c-0.1,0-0.2,0.1-0.4,0.1c-0.3,0-0.4-0.1-0.5-0.2C61.9,23.4,61.9,23.2,61.9,23z"/>
	<path d="M65.9,28.2c-0.1,0.4-0.1,0.7-0.1,1c0,0.3-0.1,0.7-0.2,1c0,0.1-0.1,0.2-0.2,0.4c-0.1,0.1-0.2,0.2-0.3,0.3
		C65,31,64.9,31,64.7,31.1c-0.1,0-0.3,0.1-0.4,0.1c-0.2,0-0.4-0.1-0.4-0.2c-0.1-0.1-0.1-0.2-0.1-0.4c0-0.2,0-0.3,0-0.5
		c0-0.2,0-0.3,0.1-0.5c0.1-1.5,0.4-3,0.6-4.4s0.5-2.9,0.8-4.4c0-0.1,0.1-0.3,0.2-0.4c0.1-0.1,0.2-0.2,0.3-0.3s0.2-0.1,0.4-0.2
		c0.1,0,0.3-0.1,0.4-0.1c0.2,0,0.3,0.1,0.4,0.2s0.1,0.3,0.1,0.5c-0.1,0.7-0.3,1.4-0.4,2.1c-0.1,0.7-0.2,1.4-0.3,2.1
		c0.5-0.5,1-0.9,1.4-1.4c0.5-0.4,1-0.9,1.4-1.4c0.2-0.2,0.4-0.3,0.5-0.5s0.3-0.3,0.5-0.5l0.2-0.2c0.1-0.1,0.3-0.3,0.5-0.4
		c0.2-0.1,0.3-0.2,0.6-0.2c0.2,0,0.3,0,0.5,0.1c0.2,0.1,0.2,0.3,0.2,0.5c0,0.1-0.1,0.2-0.1,0.3c-0.1,0.1-0.1,0.2-0.2,0.2
		c-0.3,0.3-0.6,0.6-0.9,0.9c-0.3,0.3-0.6,0.6-0.9,0.9c-0.6,0.6-1.2,1.1-1.8,1.7c-0.6,0.6-1.2,1.1-1.8,1.7c0.5,0.4,1.1,0.7,1.5,1.1
		s0.9,0.8,1.4,1.2c0.2,0.2,0.4,0.4,0.6,0.5c0.2,0.2,0.4,0.4,0.6,0.6c0,0.1,0.1,0.1,0.1,0.2s0,0.1,0,0.2c0,0.1-0.1,0.2-0.2,0.3
		c-0.1,0.1-0.2,0.2-0.3,0.3S70,31,69.9,31c-0.1,0-0.3,0.1-0.4,0.1c-0.1,0-0.3,0-0.4-0.1c-0.2-0.1-0.4-0.3-0.6-0.5
		c-0.2-0.2-0.4-0.3-0.6-0.5c-0.4-0.3-0.7-0.6-1.1-0.9S66.3,28.4,65.9,28.2z"/>
	<path d="M76.7,30.6c-0.1,0-0.2-0.1-0.3-0.2c-0.1-0.1-0.1-0.2-0.1-0.4c0-0.2,0-0.4,0-0.7c0-0.3,0-0.5,0.1-0.7
		c0.1-1.1,0.3-2.3,0.5-3.5c0.2-1.2,0.5-2.3,0.8-3.4c0,0,0-0.1,0-0.1c0,0,0,0,0-0.1c0,0,0,0,0.1-0.1c0.1-0.1,0.1-0.2,0.1-0.2
		c0,0,0.1-0.1,0.2-0.2c0.4-0.3,0.9-0.6,1.4-0.8c0.5-0.2,1-0.3,1.5-0.3c0.2,0,0.4,0,0.5,0c0.4,0.1,0.7,0.1,1.1,0.3
		c0.3,0.1,0.6,0.3,0.8,0.5c0.2,0.2,0.4,0.5,0.5,0.8c0.1,0.3,0.1,0.7,0,1.1c-0.1,0.3-0.2,0.6-0.3,0.9c-0.2,0.3-0.3,0.5-0.5,0.8
		c-0.2,0.2-0.4,0.5-0.7,0.7s-0.5,0.4-0.8,0.6c0.4,0,0.7,0.1,1,0.2s0.6,0.2,0.8,0.4c0.2,0.2,0.4,0.4,0.5,0.7c0.1,0.3,0.1,0.7,0,1.1
		c-0.1,0.6-0.4,1.1-0.7,1.5c-0.4,0.4-0.8,0.7-1.3,0.9c-0.5,0.2-1,0.4-1.6,0.5s-1.1,0.1-1.6,0.1c-0.1,0-0.3,0-0.4,0s-0.3,0-0.5,0
		s-0.3,0-0.5,0c-0.2,0-0.3,0-0.4-0.1c-0.1,0-0.2,0-0.3-0.1S76.7,30.7,76.7,30.6z M78.2,29.5c0.1,0,0.2,0,0.3,0c0.1,0,0.2,0,0.3,0
		c0.2,0,0.5,0,0.9,0c0.4,0,0.8-0.1,1.1-0.1c0.4-0.1,0.7-0.2,1-0.3c0.3-0.1,0.5-0.3,0.5-0.6c0-0.1,0-0.3,0-0.4c0-0.1-0.1-0.3-0.1-0.4
		c-0.1-0.3-0.3-0.4-0.6-0.5c-0.3-0.1-0.6-0.1-0.9-0.1c-0.4,0-0.7,0-1.1,0.1c-0.2,0-0.4,0.1-0.5,0.1s-0.4,0.1-0.5,0.1
		c0,0-0.1,0-0.1,0c-0.1,0.4-0.1,0.7-0.1,1.1C78.2,28.8,78.2,29.1,78.2,29.5z M78.6,25.8c0.1-0.1,0.3-0.1,0.4-0.2s0.3-0.1,0.5-0.2
		c0.2-0.1,0.5-0.3,0.8-0.4s0.6-0.4,0.8-0.6s0.5-0.4,0.7-0.7c0.2-0.3,0.3-0.5,0.4-0.8c0-0.2,0-0.4,0-0.6c-0.1-0.2-0.2-0.3-0.3-0.5
		c-0.2-0.1-0.3-0.2-0.5-0.3c-0.2-0.1-0.4-0.1-0.7-0.1c-0.2,0-0.4,0-0.6,0.1s-0.4,0.2-0.6,0.3C79.1,23.1,78.8,24.5,78.6,25.8z"/>
	<path d="M87.1,28c-0.1,0.4-0.1,0.8-0.2,1.1c0,0.4-0.1,0.7-0.2,1.1c0,0.1-0.1,0.3-0.2,0.4s-0.2,0.2-0.3,0.3S86.1,31,85.9,31
		c-0.1,0-0.3,0.1-0.4,0.1c-0.2,0-0.4-0.1-0.5-0.2c-0.1-0.1-0.1-0.2-0.1-0.4c0-0.2,0-0.3,0.1-0.5c0-0.2,0.1-0.3,0.1-0.5
		c0.2-1.2,0.4-2.4,0.6-3.6c0.2-1.2,0.5-2.4,0.7-3.6c0-0.2,0.1-0.4,0.1-0.6c0-0.2,0.1-0.4,0.1-0.6c0.1-0.3,0.2-0.5,0.5-0.6
		c0.3-0.2,0.5-0.2,0.8-0.2c0,0,0.1,0,0.2,0c0.4-0.1,0.8-0.2,1.2-0.3s0.8-0.1,1.2-0.1c0.5,0,0.9,0.1,1.2,0.2c0.3,0.2,0.6,0.4,0.8,0.6
		s0.3,0.6,0.4,0.9s0,0.8,0,1.2c-0.1,0.4-0.2,0.9-0.5,1.3s-0.5,0.8-0.8,1.2c-0.3,0.4-0.6,0.7-1,1c-0.4,0.3-0.8,0.6-1.2,0.8
		c0.2,0.1,0.4,0.3,0.6,0.5c0.2,0.2,0.4,0.4,0.5,0.6c0.2,0.2,0.3,0.4,0.4,0.7c0.1,0.2,0.2,0.5,0.3,0.7c0,0,0,0.1,0.1,0.2
		c0,0.1,0,0.1,0,0.2c0,0.1-0.1,0.2-0.2,0.4c-0.1,0.1-0.2,0.2-0.3,0.3c-0.1,0.1-0.2,0.2-0.4,0.2c-0.1,0-0.3,0.1-0.4,0.1
		c-0.2,0-0.4-0.1-0.5-0.3c-0.1-0.1-0.1-0.2-0.2-0.3c-0.1-0.1-0.1-0.2-0.2-0.3c-0.1-0.2-0.2-0.4-0.4-0.6c-0.1-0.2-0.3-0.4-0.5-0.6
		c-0.2-0.2-0.4-0.3-0.6-0.5S87.4,28,87.1,28z M87.4,26.4C87.4,26.4,87.4,26.4,87.4,26.4c0.1,0,0.2-0.1,0.3-0.1
		c0.1,0,0.2-0.1,0.3-0.1c0.3-0.1,0.7-0.3,1-0.6s0.6-0.5,0.9-0.8c0.3-0.3,0.5-0.6,0.7-0.9c0.2-0.3,0.3-0.7,0.4-1.1
		c0.1-0.5,0-0.9-0.2-1.2c-0.2-0.3-0.5-0.4-1.1-0.4c-0.2,0-0.5,0-0.8,0.1c-0.3,0.1-0.5,0.1-0.8,0.2c-0.2,0.8-0.3,1.6-0.5,2.4
		S87.5,25.6,87.4,26.4L87.4,26.4z"/>
	<path d="M93.8,30.4c-0.3-0.2-0.5-0.5-0.7-0.8s-0.3-0.6-0.3-0.9c-0.1-0.3-0.1-0.7-0.1-1c0-0.4,0.1-0.7,0.1-1.1
		c0.1-0.4,0.2-0.7,0.3-1.2c0.1-0.4,0.3-0.9,0.5-1.3c0.2-0.4,0.4-0.9,0.6-1.3c0.2-0.4,0.5-0.7,0.7-1c0.2-0.2,0.4-0.5,0.7-0.7
		c0.3-0.2,0.5-0.4,0.8-0.6s0.6-0.3,0.9-0.4s0.6-0.1,1-0.1c0.6,0,1.1,0.2,1.5,0.5c0.4,0.3,0.7,0.6,0.9,0.9s0.4,0.8,0.5,1.2
		s0.2,0.9,0.2,1.3c0,0.5,0,0.9-0.1,1.3c-0.1,0.4-0.2,0.9-0.4,1.3s-0.4,0.9-0.6,1.3c-0.1,0.2-0.3,0.5-0.5,0.8
		c-0.2,0.3-0.4,0.6-0.7,0.9c-0.3,0.3-0.5,0.6-0.8,0.8c-0.3,0.2-0.6,0.4-0.9,0.5c-0.2,0.1-0.4,0.1-0.5,0.1c-0.2,0-0.4,0-0.5,0
		c-0.4,0-0.9-0.1-1.3-0.2S94.1,30.6,93.8,30.4z M96,29.4c0.1,0,0.2,0,0.2,0c0.1,0,0.2,0,0.2,0c0.2,0,0.4,0,0.6-0.1
		c0.2-0.1,0.4-0.2,0.5-0.4c0.2-0.1,0.3-0.3,0.4-0.5c0.1-0.2,0.3-0.4,0.4-0.6c0.2-0.4,0.4-0.8,0.6-1.2c0.2-0.4,0.3-0.8,0.4-1.2
		c0.1-0.5,0.1-1.1,0.1-1.6s-0.2-1-0.5-1.4c-0.1-0.3-0.3-0.5-0.5-0.7s-0.4-0.3-0.8-0.3c-0.3,0-0.6,0.1-0.9,0.2
		c-0.3,0.2-0.5,0.4-0.7,0.6c-0.2,0.3-0.4,0.5-0.5,0.8c-0.2,0.5-0.5,0.9-0.6,1.4c-0.2,0.5-0.3,1-0.4,1.4c-0.1,0.4-0.1,0.7-0.1,1.1
		c0,0.4,0,0.7,0.1,1c0.1,0.3,0.2,0.6,0.5,0.8C95.3,29.2,95.6,29.3,96,29.4z"/>
	<path d="M104.6,26c0.2-0.4,0.3-0.8,0.5-1.2c0.2-0.4,0.4-0.8,0.5-1.2l0.7-1.6c0.1-0.2,0.3-0.4,0.5-0.5s0.4-0.2,0.7-0.2
		c0.2,0,0.4,0.1,0.5,0.2c0.1,0.1,0.1,0.3,0.2,0.4c0,0.1,0,0.2,0,0.3c0,0.1,0,0.2,0,0.3c0,0.6,0,1.1,0,1.7c0,0.6,0.1,1.1,0.1,1.7
		c0.2-0.6,0.4-1.2,0.7-1.8c0.2-0.6,0.4-1.2,0.7-1.8c0.1-0.2,0.2-0.5,0.3-0.7s0.2-0.5,0.3-0.7c0-0.1,0.1-0.2,0.1-0.3
		c0-0.1,0.1-0.2,0.1-0.3c0.1-0.2,0.3-0.4,0.5-0.5s0.4-0.2,0.7-0.2c0.2,0,0.4,0.1,0.5,0.2c0.1,0.1,0.2,0.3,0.1,0.5c0,0,0,0,0,0.1
		s0,0,0,0.1c-0.4,1.1-0.8,2.3-1.2,3.4c-0.4,1.1-0.9,2.2-1.3,3.4c-0.1,0.4-0.3,0.8-0.4,1.1s-0.3,0.8-0.4,1.1
		c-0.1,0.2-0.1,0.3-0.1,0.5c-0.1,0.2-0.1,0.3-0.2,0.5c0,0.1-0.1,0.2-0.2,0.3c-0.1,0.1-0.2,0.2-0.3,0.2c-0.1,0.1-0.2,0.1-0.4,0.1
		c-0.1,0-0.2,0-0.4,0c-0.3,0-0.4-0.1-0.5-0.2c-0.1-0.1-0.1-0.3-0.1-0.5c0,0,0-0.1,0-0.2c0,0,0-0.1,0-0.1c-0.1-0.7-0.1-1.4-0.2-2.1
		c-0.1-0.7-0.1-1.4-0.1-2.1c-0.2,0.5-0.4,0.9-0.6,1.4c-0.2,0.4-0.4,0.9-0.6,1.4l-0.5,1.2c-0.1,0.1-0.1,0.2-0.1,0.3
		c0,0.1-0.1,0.2-0.1,0.3c-0.1,0.2-0.3,0.4-0.5,0.5s-0.4,0.2-0.7,0.2c-0.2,0-0.4-0.1-0.5-0.2c-0.1-0.1-0.2-0.2-0.2-0.4
		c0-0.2,0-0.3,0-0.5c0-0.2,0-0.3,0-0.5c0-1.5,0.1-3,0.2-4.5c0.1-1.5,0.2-3,0.4-4.5l0,0c0-0.1,0.1-0.3,0.2-0.4
		c0.1-0.1,0.2-0.2,0.3-0.3c0.1-0.1,0.2-0.1,0.4-0.2c0.1,0,0.3-0.1,0.4-0.1c0.2,0,0.4,0.1,0.5,0.2c0.1,0.1,0.1,0.2,0.1,0.4
		c0,0.1,0,0.1,0,0.2s0,0.1,0,0.2c0,0,0,0.1,0,0.1c0,0.1,0,0.1,0,0.1c-0.1,0.8-0.2,1.7-0.2,2.5C104.7,24.3,104.7,25.1,104.6,26z"/>
	<path d="M111.8,29.1c0.2-1.1,0.4-2.3,0.6-3.4c0.2-1.1,0.5-2.3,0.7-3.4c0-0.2,0.1-0.5,0.2-0.8c0.1-0.3,0.1-0.5,0.2-0.7
		c0.1-0.2,0.3-0.4,0.5-0.6c0.3-0.2,0.5-0.3,0.8-0.3c0.2,0,0.3,0,0.4,0.1c0.1,0.1,0.1,0.2,0.2,0.3c0,0.1,0.1,0.2,0.1,0.3
		c0,0.1,0,0.2,0.1,0.3c0.2,1,0.4,1.9,0.6,2.9c0.2,0.9,0.5,1.9,0.7,2.8c0.1-0.7,0.3-1.3,0.4-2c0.1-0.6,0.3-1.3,0.4-1.9l0.3-1.5
		c0-0.1,0-0.2,0.1-0.3c0-0.1,0-0.2,0.1-0.3c0.1-0.3,0.2-0.5,0.5-0.6c0.3-0.2,0.5-0.2,0.8-0.2c0.2,0,0.4,0.1,0.5,0.2s0.1,0.3,0.1,0.5
		c-0.3,1.5-0.6,2.9-0.9,4.4c-0.3,1.4-0.6,2.9-0.9,4.4c0,0.2-0.1,0.3-0.1,0.5c0,0.2-0.1,0.3-0.1,0.5c0,0.1-0.1,0.2-0.2,0.4
		c-0.1,0.1-0.2,0.2-0.3,0.3c-0.1,0.1-0.2,0.1-0.4,0.2c-0.1,0-0.3,0.1-0.4,0.1c-0.4,0-0.6-0.1-0.7-0.4c0,0,0,0,0-0.1c0,0,0,0,0-0.1
		l0-0.1c0,0,0,0,0-0.1c-0.4-0.8-0.7-1.7-0.9-2.6c-0.3-0.9-0.5-1.8-0.7-2.7c-0.1,0.6-0.2,1.2-0.3,1.8c-0.1,0.6-0.2,1.2-0.3,1.8
		c0,0.3-0.1,0.6-0.1,0.8c0,0.3-0.1,0.6-0.1,0.8c0,0.1-0.1,0.2-0.2,0.4s-0.2,0.2-0.3,0.3c-0.1,0.1-0.2,0.1-0.4,0.2
		c-0.1,0-0.3,0.1-0.4,0.1c-0.2,0-0.4-0.1-0.5-0.2c-0.1-0.1-0.1-0.2-0.1-0.4v0L111.8,29.1z"/>
	<path d="M125.8,25.6c-0.1,0.7-0.2,1.4-0.3,2.1s-0.1,1.4-0.2,2.1c0,0.2,0,0.3,0,0.5c0,0.1-0.1,0.3-0.2,0.4c-0.1,0.1-0.2,0.2-0.3,0.3
		c-0.1,0.1-0.2,0.1-0.4,0.2c-0.1,0-0.3,0.1-0.4,0.1c-0.2,0-0.4,0-0.5-0.1c-0.1-0.1-0.2-0.2-0.2-0.4c0-0.2,0-0.5,0.1-0.7
		c0-0.2,0.1-0.5,0.1-0.7c0.1-1.2,0.3-2.4,0.5-3.6c0-0.3,0.1-0.6,0.1-0.8c0-0.3,0.1-0.6,0.1-0.9c0.1-0.6,0.3-1.2,0.5-1.6
		c0.2-0.5,0.5-0.8,0.8-1.1s0.8-0.5,1.3-0.7c0.5-0.1,1.1-0.2,1.9-0.2c0.4,0,0.9,0,1.4,0.1c0.5,0,0.9,0.1,1.4,0.2c0.1,0,0.2,0,0.2,0.1
		s0.1,0.1,0.2,0.1s0.1,0.1,0.1,0.2c0,0.1,0,0.2,0,0.3c0,0.2-0.2,0.4-0.4,0.6s-0.5,0.2-0.7,0.2h-0.1c-0.5-0.1-1.1-0.1-1.6-0.1
		c-0.5,0-1.1,0-1.6,0c-0.1,0-0.3,0-0.4,0s-0.2,0-0.3,0.1c-0.1,0-0.1,0.1-0.2,0.2c-0.1,0.1-0.1,0.2-0.2,0.4c0,0.1-0.1,0.3-0.1,0.4
		c0,0.1-0.1,0.3-0.1,0.4c0,0.2-0.1,0.4-0.1,0.5c0,0.2-0.1,0.3-0.1,0.5c0.2,0,0.5-0.1,0.8-0.1s0.7-0.1,1.1-0.1c0.4,0,0.7,0,1,0
		c0.3,0,0.5,0,0.7,0c0.2,0,0.3,0,0.5,0c0.2,0,0.3,0,0.5,0c0.1,0,0.1,0,0.2,0c0.1,0,0.1,0,0.2,0.1s0.1,0.1,0.1,0.2c0,0.1,0,0.2,0,0.3
		c0,0.1-0.1,0.2-0.2,0.4c-0.1,0.1-0.2,0.2-0.3,0.3c-0.1,0.1-0.2,0.1-0.4,0.2c-0.1,0.1-0.3,0.1-0.4,0.1c-0.3,0-0.6,0-0.8,0
		c-0.3,0-0.6,0-0.8,0c-0.4,0-0.8,0-1.3,0C126.6,25.5,126.2,25.6,125.8,25.6z"/>
	<path d="M132.6,30.4c-0.3-0.2-0.5-0.5-0.7-0.8s-0.3-0.6-0.3-0.9c-0.1-0.3-0.1-0.7-0.1-1c0-0.4,0.1-0.7,0.1-1.1
		c0.1-0.4,0.2-0.7,0.3-1.2c0.1-0.4,0.3-0.9,0.5-1.3c0.2-0.4,0.4-0.9,0.6-1.3c0.2-0.4,0.5-0.7,0.7-1c0.2-0.2,0.4-0.5,0.7-0.7
		c0.3-0.2,0.5-0.4,0.8-0.6s0.6-0.3,0.9-0.4s0.6-0.1,1-0.1c0.6,0,1.1,0.2,1.5,0.5c0.4,0.3,0.7,0.6,0.9,0.9s0.4,0.8,0.5,1.2
		s0.2,0.9,0.2,1.3c0,0.5,0,0.9-0.1,1.3c-0.1,0.4-0.2,0.9-0.4,1.3s-0.4,0.9-0.6,1.3c-0.1,0.2-0.3,0.5-0.5,0.8
		c-0.2,0.3-0.4,0.6-0.7,0.9c-0.3,0.3-0.5,0.6-0.8,0.8c-0.3,0.2-0.6,0.4-0.9,0.5c-0.2,0.1-0.4,0.1-0.5,0.1c-0.2,0-0.4,0-0.5,0
		c-0.4,0-0.9-0.1-1.3-0.2S132.9,30.6,132.6,30.4z M134.9,29.4c0.1,0,0.2,0,0.2,0c0.1,0,0.2,0,0.2,0c0.2,0,0.4,0,0.6-0.1
		c0.2-0.1,0.4-0.2,0.5-0.4c0.2-0.1,0.3-0.3,0.4-0.5c0.1-0.2,0.3-0.4,0.4-0.6c0.2-0.4,0.4-0.8,0.6-1.2c0.2-0.4,0.3-0.8,0.4-1.2
		c0.1-0.5,0.1-1.1,0.1-1.6s-0.2-1-0.5-1.4c-0.1-0.3-0.3-0.5-0.5-0.7s-0.4-0.3-0.8-0.3c-0.3,0-0.6,0.1-0.9,0.2
		c-0.3,0.2-0.5,0.4-0.7,0.6c-0.2,0.3-0.4,0.5-0.5,0.8c-0.2,0.5-0.5,0.9-0.6,1.4c-0.2,0.5-0.3,1-0.4,1.4c-0.1,0.4-0.1,0.7-0.1,1.1
		c0,0.4,0,0.7,0.1,1c0.1,0.3,0.2,0.6,0.5,0.8C134.1,29.2,134.5,29.3,134.9,29.4z"/>
	<path d="M146.1,21.7c0.1-0.2,0.3-0.4,0.5-0.6c0.1-0.2,0.3-0.4,0.5-0.6c0.3-0.3,0.6-0.5,1-0.5c0.1,0,0.2,0,0.2,0s0.2,0.1,0.2,0.1
		c0.1,0,0.1,0.1,0.2,0.2s0,0.2,0,0.3c0,0.1,0,0.1-0.1,0.2c0,0.1-0.1,0.1-0.1,0.2c-0.2,0.3-0.3,0.5-0.5,0.8s-0.4,0.5-0.6,0.8
		c-0.4,0.5-0.7,1.1-1.1,1.6c-0.4,0.5-0.7,1.1-1.1,1.6c0,0.1,0.1,0.2,0.1,0.4s0.1,0.4,0.2,0.6c0.1,0.2,0.1,0.4,0.2,0.7
		c0.1,0.2,0.2,0.5,0.2,0.7c0.1,0.2,0.2,0.5,0.2,0.8c0.1,0.3,0.1,0.5,0.2,0.7c0.1,0.2,0.1,0.4,0.1,0.6c0,0.2,0,0.3,0,0.3
		c0,0.1-0.1,0.2-0.2,0.3c-0.1,0.1-0.2,0.2-0.3,0.3c-0.1,0.1-0.2,0.1-0.4,0.2c-0.1,0-0.2,0-0.3,0c-0.3,0-0.5-0.1-0.6-0.3
		c-0.1-0.2-0.2-0.4-0.2-0.6c-0.1-0.2-0.1-0.4-0.2-0.6c-0.1-0.3-0.2-0.6-0.4-1c-0.1-0.3-0.2-0.6-0.3-1c-0.2,0.3-0.5,0.6-0.7,0.9
		c-0.2,0.3-0.5,0.6-0.7,0.9c-0.1,0.2-0.2,0.3-0.4,0.5c-0.1,0.2-0.2,0.3-0.4,0.5c-0.1,0.2-0.3,0.3-0.5,0.4c-0.2,0.1-0.4,0.1-0.6,0.1
		c-0.1,0-0.2,0-0.3,0c-0.1,0-0.2-0.1-0.2-0.1c-0.1,0-0.1-0.1-0.2-0.2c0-0.1-0.1-0.2,0-0.3c0-0.1,0-0.1,0.1-0.2
		c0-0.1,0.1-0.1,0.1-0.2c0.2-0.2,0.3-0.5,0.5-0.7c0.2-0.2,0.3-0.5,0.5-0.7c0.3-0.5,0.7-1,1-1.4c0.3-0.5,0.7-1,1-1.4
		c-0.1-0.1-0.1-0.3-0.1-0.4c0-0.1-0.1-0.3-0.1-0.4l-0.5-1.6c0-0.1-0.1-0.3-0.1-0.4c0-0.1-0.1-0.3-0.1-0.4c-0.1-0.3-0.2-0.5-0.3-0.8
		c-0.1-0.3-0.2-0.5-0.3-0.8c0-0.1,0-0.2,0-0.3c0-0.1,0.1-0.2,0.2-0.3s0.2-0.2,0.3-0.3c0.1-0.1,0.2-0.1,0.4-0.2s0.2-0.1,0.3-0.1
		c0.3,0,0.5,0.1,0.6,0.4c0,0.1,0.1,0.1,0.1,0.2c0,0.1,0,0.1,0.1,0.2l0.3,0.9c0.1,0.4,0.3,0.8,0.4,1.1s0.3,0.7,0.4,1.1L146.1,21.7z"
		/>
	<path d="M157.7,21.6c-0.3,0-0.6,0-0.9,0c-0.3,0-0.6,0-0.8,0c-0.2,0-0.3,0-0.4-0.1s-0.2-0.2-0.1-0.4c0-0.3,0.2-0.5,0.4-0.7
		c0.2-0.2,0.5-0.3,0.8-0.3c0.2,0,0.3,0,0.5,0c0.2,0,0.3,0,0.5,0c0.4,0,0.7,0,1.1-0.1c0.4,0,0.7,0,1.1,0c0.3,0,0.7,0,1,0
		c0.3,0,0.7,0,1,0.1c0.1,0,0.1,0,0.2,0c0.1,0,0.1,0.1,0.2,0.1s0.1,0.1,0.1,0.2c0,0.1,0,0.2,0,0.3c0,0.1-0.1,0.2-0.2,0.3
		c-0.1,0.1-0.2,0.2-0.3,0.3c-0.1,0.1-0.2,0.1-0.3,0.2c-0.1,0-0.2,0.1-0.3,0.1c-0.1,0-0.3,0-0.4,0c-0.1,0-0.3,0-0.4,0
		c-0.1,0.7-0.3,1.4-0.4,2c-0.1,0.7-0.3,1.4-0.4,2c-0.1,0.4-0.2,0.7-0.2,1.1c-0.1,0.4-0.2,0.7-0.3,1.1c-0.1,0.5-0.3,0.9-0.6,1.3
		c-0.2,0.4-0.5,0.7-0.9,1s-0.7,0.5-1.1,0.7c-0.4,0.2-0.9,0.3-1.4,0.3c-0.2,0-0.3,0-0.5,0c-0.2,0-0.3,0-0.4-0.1
		c-0.4-0.1-0.7-0.2-1-0.4c-0.3-0.2-0.4-0.4-0.6-0.6c-0.1-0.2-0.2-0.5-0.2-0.8s0-0.6,0-1l0,0c0-0.1,0.1-0.2,0.2-0.4s0.2-0.2,0.3-0.3
		c0.1-0.1,0.2-0.1,0.4-0.2c0.1,0,0.2-0.1,0.4-0.1c0.3,0,0.5,0.1,0.6,0.3c0,0.1,0,0.2,0,0.3c0,0,0,0.1,0,0.1c0,0,0,0.1,0,0.2
		c0,0.1,0,0.2,0,0.3s0,0.2,0.1,0.3s0.1,0.2,0.2,0.3c0.1,0.1,0.2,0.2,0.4,0.2c0.2,0.1,0.5,0.1,0.7,0.1c0.3,0,0.5-0.1,0.7-0.2
		c0.2-0.1,0.4-0.3,0.5-0.4c0.1-0.2,0.2-0.4,0.3-0.6c0.1-0.2,0.2-0.5,0.2-0.7c0-0.2,0.1-0.3,0.1-0.5c0-0.2,0.1-0.3,0.1-0.4
		c0.2-0.9,0.4-1.7,0.6-2.6c0.2-0.8,0.4-1.7,0.5-2.6H157.7z"/>
	<path d="M167,29.7c-0.4,0.4-0.8,0.7-1.2,1c-0.5,0.3-1,0.4-1.5,0.4c-0.5,0-0.9-0.1-1.2-0.3c-0.3-0.2-0.5-0.4-0.7-0.8
		c-0.2-0.3-0.3-0.7-0.3-1.1c-0.1-0.4-0.1-0.8-0.1-1.2c0-0.4,0-0.8,0.1-1.2c0.1-0.4,0.1-0.7,0.2-1c0.1-0.5,0.2-1.1,0.4-1.6
		c0.1-0.5,0.3-1.1,0.5-1.6c0.1-0.2,0.1-0.4,0.2-0.7s0.1-0.4,0.2-0.6c0.1-0.3,0.3-0.5,0.5-0.6c0.3-0.2,0.5-0.2,0.8-0.2
		c0.2,0,0.3,0,0.4,0.1c0.1,0.1,0.1,0.2,0.1,0.4l0,0.1c-0.2,0.6-0.4,1.3-0.5,1.9c-0.2,0.6-0.3,1.2-0.4,1.9c0,0.2-0.1,0.3-0.1,0.5
		c0,0.2,0,0.3-0.1,0.5c0,0.3-0.1,0.6-0.1,1c-0.1,0.4-0.1,0.7-0.1,1.1c0,0.4,0,0.7,0.1,1c0.1,0.3,0.2,0.5,0.4,0.7
		c0.1,0.1,0.2,0.1,0.2,0.2c0.1,0.1,0.2,0.1,0.3,0.1c0.2,0,0.3-0.1,0.5-0.2c0.2-0.1,0.3-0.3,0.4-0.6c0.1-0.2,0.3-0.5,0.4-0.8
		c0.1-0.3,0.2-0.6,0.3-0.8c0.1-0.3,0.2-0.5,0.2-0.8s0.1-0.4,0.1-0.5c0.1-0.5,0.3-1.1,0.4-1.6s0.2-1.1,0.3-1.6
		c0.1-0.2,0.1-0.5,0.2-0.8c0.1-0.3,0.1-0.6,0.2-0.8c0.1-0.3,0.2-0.5,0.5-0.6c0.2-0.2,0.5-0.2,0.8-0.2c0.2,0,0.4,0.1,0.5,0.2
		c0.1,0.1,0.1,0.2,0.1,0.4c0,0.1,0,0.3-0.1,0.5c0,0.2-0.1,0.3-0.1,0.5c0,0.4-0.1,0.7-0.2,1.1s-0.1,0.7-0.2,1.1
		c-0.1,0.6-0.2,1.1-0.3,1.6c-0.1,0.5-0.1,1-0.2,1.5c0,0.5-0.1,1,0,1.5c0,0.5,0.1,1,0.2,1.5c0,0.1,0,0.1,0,0.2c0,0.1-0.1,0.2-0.2,0.4
		c-0.1,0.1-0.2,0.2-0.3,0.3s-0.2,0.1-0.4,0.2c-0.1,0-0.2,0.1-0.4,0.1c-0.3,0-0.5-0.1-0.6-0.4c-0.1-0.2-0.1-0.3-0.1-0.5
		S167,29.8,167,29.7z"/>
	<path d="M173.3,25.3c-0.1,0.5-0.3,1-0.4,1.5s-0.3,1-0.4,1.5l-0.4,1.3c0,0.1,0,0.2-0.1,0.3c0,0.1-0.1,0.2-0.1,0.3
		c-0.1,0.3-0.3,0.5-0.5,0.6s-0.5,0.2-0.8,0.2c-0.2,0-0.3,0-0.4-0.1c-0.1-0.1-0.1-0.2-0.1-0.4l0-0.1c0.3-1.2,0.6-2.4,0.9-3.5
		c0.3-1.2,0.6-2.3,1-3.5c0.1-0.4,0.3-0.8,0.4-1.1c0.1-0.4,0.3-0.7,0.4-1.1c0,0,0-0.1,0-0.1s0.1-0.1,0.1-0.2c0-0.1,0.1-0.1,0.1-0.2
		c0-0.1,0-0.1,0.1-0.1c0.1-0.2,0.3-0.4,0.5-0.5c0.2-0.1,0.4-0.2,0.7-0.2c0.2,0,0.3,0,0.4,0.1s0.1,0.1,0.2,0.2c0,0.1,0.1,0.2,0.1,0.3
		s0,0.2,0,0.3c0,0.1,0,0.1,0,0.2s0,0.1,0,0.2c0,0.7,0,1.3,0.1,2c0.1,0.6,0.1,1.3,0.2,1.9c0.3-0.7,0.6-1.3,0.9-2
		c0.3-0.6,0.7-1.3,1-1.9c0,0,0.1-0.1,0.1-0.2c0-0.1,0.1-0.1,0.1-0.2c0.1-0.3,0.3-0.5,0.6-0.6c0.2-0.2,0.5-0.2,0.8-0.2
		c0.2,0,0.4,0,0.5,0.1s0.1,0.2,0.1,0.5c-0.2,1.1-0.4,2.2-0.5,3.3s-0.2,2.2-0.4,3.3c-0.1,0.5-0.1,1-0.2,1.6s-0.1,1-0.2,1.6
		c0,0.1-0.1,0.3-0.2,0.4c-0.1,0.1-0.2,0.2-0.3,0.3c-0.1,0.1-0.2,0.1-0.4,0.2c-0.1,0-0.3,0.1-0.4,0.1c-0.2,0-0.4-0.1-0.5-0.2
		c-0.1-0.1-0.1-0.2-0.1-0.4c0,0,0-0.1,0-0.2s0-0.1,0-0.2c0,0,0-0.1,0-0.2c0-0.1,0-0.1,0-0.2l0.1-1.3c0-0.5,0.1-1.1,0.2-1.6
		c0.1-0.5,0.1-1.1,0.2-1.6c-0.2,0.4-0.4,0.8-0.6,1.2c-0.2,0.4-0.4,0.8-0.6,1.2c-0.2,0.3-0.3,0.5-0.6,0.7c-0.2,0.2-0.5,0.3-0.9,0.3
		c-0.2,0-0.4-0.1-0.5-0.2c-0.1-0.1-0.1-0.3-0.1-0.5c0,0,0-0.1,0-0.1c0,0,0-0.1,0-0.1l-0.1-0.8c0-0.3-0.1-0.6-0.1-0.9
		C173.3,25.9,173.3,25.6,173.3,25.3z"/>
	<path d="M181.8,27.1c-0.1,0.5-0.2,1-0.2,1.6c-0.1,0.5-0.2,1-0.3,1.6c0,0.1-0.1,0.2-0.2,0.4s-0.2,0.2-0.3,0.3
		c-0.1,0.1-0.2,0.1-0.4,0.2c-0.1,0-0.3,0.1-0.4,0.1c-0.2,0-0.3-0.1-0.4-0.2c-0.1-0.1-0.1-0.2-0.2-0.4c0-0.2,0-0.5,0.1-0.8
		c0-0.3,0.1-0.6,0.1-0.8c0.1-1.2,0.3-2.5,0.6-3.7s0.5-2.5,0.8-3.7c-0.1-0.1-0.1-0.1-0.1-0.2c0-0.1,0-0.2,0-0.3
		c0-0.2,0.2-0.4,0.4-0.6c0.2-0.1,0.4-0.2,0.7-0.3c0.3-0.1,0.5-0.1,0.8-0.1c0.3,0,0.5,0,0.7,0c0.5,0,1,0.1,1.4,0.2
		c0.5,0.1,0.9,0.3,1.3,0.5c0.5,0.3,0.8,0.7,0.9,1.1c0.1,0.4,0.2,1,0,1.5c-0.1,0.3-0.1,0.5-0.2,0.8c-0.2,0.4-0.4,0.9-0.7,1.2
		s-0.7,0.7-1.1,1s-0.9,0.5-1.3,0.6c-0.5,0.1-1,0.2-1.4,0.2c-0.1,0-0.2,0-0.3,0C182,27.1,181.9,27.1,181.8,27.1z M182.1,25.4
		c0.3,0.1,0.5,0.2,0.8,0.2c0.3,0,0.6-0.1,0.9-0.2c0.3-0.1,0.5-0.3,0.7-0.5c0.2-0.2,0.4-0.4,0.5-0.7c0.1-0.3,0.2-0.5,0.3-0.8
		c0.1-0.4,0-0.7-0.1-0.9s-0.3-0.5-0.5-0.6c-0.2-0.2-0.5-0.3-0.9-0.3c-0.3-0.1-0.7-0.1-1-0.1h-0.1c-0.1,0.7-0.2,1.3-0.4,2
		S182.2,24.7,182.1,25.4z"/>
	<path d="M187.6,29.7c0,0,0-0.1,0-0.1s0-0.1,0-0.1c0-0.1,0.1-0.2,0.2-0.3s0.2-0.2,0.3-0.2c0.1-0.1,0.2-0.1,0.4-0.1s0.2-0.1,0.3-0.1
		c0.2,0,0.3,0,0.4,0.1s0.2,0.2,0.2,0.3c0.2,0.4,0.6,0.6,1.1,0.6c0.2,0,0.3,0,0.6-0.1c0.2,0,0.4-0.1,0.5-0.2c0.1-0.1,0.3-0.2,0.4-0.3
		c0.1-0.1,0.2-0.3,0.2-0.4c0-0.2,0-0.3-0.2-0.4c-0.2-0.1-0.4-0.2-0.7-0.3c-0.3-0.1-0.6-0.1-0.9-0.2c-0.3,0-0.6-0.1-0.7-0.1
		c-0.1,0-0.2,0-0.3,0c-0.1,0-0.2,0-0.3,0c-0.3,0-0.6-0.1-0.8-0.2c-0.2-0.1-0.4-0.3-0.6-0.6c-0.1-0.2-0.1-0.4-0.1-0.5s0-0.4,0.1-0.6
		c0.1-0.3,0.1-0.6,0.2-0.8s0.2-0.5,0.3-0.8c0.2-0.4,0.4-0.8,0.7-1.3c0.3-0.5,0.6-0.9,1-1.4c0.4-0.4,0.8-0.8,1.3-1.1
		c0.5-0.3,1-0.5,1.5-0.5c0.4,0,0.7,0.1,1,0.3c0.3,0.2,0.5,0.4,0.7,0.8c0.2,0.3,0.3,0.6,0.4,1c0.1,0.3,0.1,0.7,0.1,1
		c0,0.3-0.2,0.5-0.4,0.7c-0.3,0.2-0.5,0.2-0.8,0.2c-0.4,0-0.6-0.2-0.6-0.6c0-0.1,0-0.2,0-0.4c0-0.2-0.1-0.4-0.1-0.5
		c-0.1-0.2-0.1-0.3-0.2-0.5s-0.2-0.2-0.4-0.2c-0.2,0-0.5,0.1-0.8,0.4c-0.3,0.3-0.5,0.6-0.7,0.9c-0.2,0.4-0.4,0.7-0.6,1.1
		c-0.2,0.4-0.3,0.6-0.4,0.8c0,0.1-0.1,0.1-0.1,0.2c0,0.1,0,0.1-0.1,0.2c0,0.1,0,0.1,0,0.1c0,0.2,0.1,0.4,0.1,0.5
		c0.1,0.1,0.2,0.1,0.5,0.2c0.2,0.1,0.3,0.1,0.5,0.1c0.2,0,0.4,0,0.5,0.1c0.2,0,0.4,0,0.6,0.1s0.4,0.1,0.6,0.1c0.4,0.1,0.7,0.2,1,0.4
		c0.3,0.2,0.5,0.4,0.7,0.8c0.1,0.3,0.2,0.7,0.1,1c-0.1,0.4-0.3,0.8-0.6,1.1c-0.3,0.3-0.7,0.6-1.1,0.8c-0.4,0.2-0.8,0.4-1.3,0.5
		c-0.4,0.1-0.8,0.2-1.2,0.2c-0.3,0-0.5,0-0.8-0.1c-0.3-0.1-0.5-0.1-0.7-0.3c-0.2-0.1-0.4-0.3-0.6-0.5
		C187.8,30.1,187.7,29.9,187.6,29.7z"/>
	<path d="M200.8,30.4c-0.3-0.2-0.5-0.5-0.7-0.8s-0.3-0.6-0.3-0.9c-0.1-0.3-0.1-0.7-0.1-1c0-0.4,0.1-0.7,0.1-1.1
		c0.1-0.4,0.2-0.7,0.3-1.2c0.1-0.4,0.3-0.9,0.5-1.3c0.2-0.4,0.4-0.9,0.6-1.3c0.2-0.4,0.5-0.7,0.7-1c0.2-0.2,0.4-0.5,0.7-0.7
		c0.3-0.2,0.5-0.4,0.8-0.6s0.6-0.3,0.9-0.4c0.3-0.1,0.6-0.1,1-0.1c0.6,0,1.1,0.2,1.5,0.5c0.4,0.3,0.7,0.6,0.9,0.9s0.4,0.8,0.5,1.2
		c0.1,0.4,0.2,0.9,0.2,1.3c0,0.5,0,0.9-0.1,1.3c-0.1,0.4-0.2,0.9-0.4,1.3s-0.4,0.9-0.6,1.3c-0.1,0.2-0.3,0.5-0.5,0.8
		s-0.4,0.6-0.7,0.9c-0.3,0.3-0.5,0.6-0.8,0.8c-0.3,0.2-0.6,0.4-0.9,0.5c-0.2,0.1-0.4,0.1-0.5,0.1c-0.2,0-0.4,0-0.5,0
		c-0.4,0-0.9-0.1-1.3-0.2C201.5,30.8,201.1,30.6,200.8,30.4z M203.1,29.4c0.1,0,0.2,0,0.2,0c0.1,0,0.2,0,0.2,0c0.2,0,0.4,0,0.6-0.1
		c0.2-0.1,0.4-0.2,0.5-0.4c0.2-0.1,0.3-0.3,0.4-0.5c0.1-0.2,0.3-0.4,0.4-0.6c0.2-0.4,0.4-0.8,0.6-1.2c0.2-0.4,0.3-0.8,0.4-1.2
		c0.1-0.5,0.1-1.1,0.1-1.6c-0.1-0.5-0.2-1-0.5-1.4c-0.2-0.3-0.3-0.5-0.5-0.7c-0.2-0.2-0.4-0.3-0.8-0.3c-0.3,0-0.6,0.1-0.9,0.2
		c-0.3,0.2-0.5,0.4-0.7,0.6c-0.2,0.3-0.4,0.5-0.5,0.8c-0.2,0.5-0.4,0.9-0.6,1.4c-0.2,0.5-0.3,1-0.4,1.4c-0.1,0.4-0.1,0.7-0.1,1.1
		c0,0.4,0,0.7,0.1,1c0.1,0.3,0.2,0.6,0.5,0.8C202.3,29.2,202.7,29.3,203.1,29.4z"/>
	<path d="M212.1,27.1c0.5-1,0.9-2,1.3-2.9c0.4-1,0.9-1.9,1.4-2.9c0-0.1,0.1-0.2,0.2-0.3c0.1-0.1,0.1-0.2,0.2-0.3
		c0.1-0.2,0.3-0.4,0.5-0.5c0.2-0.1,0.4-0.2,0.7-0.2c0.2,0,0.3,0,0.5,0.1s0.2,0.2,0.1,0.5c0,0.1,0,0.1-0.1,0.2
		c-0.5,1.1-1,2.2-1.5,3.3s-1,2.2-1.5,3.3c-0.2,0.4-0.3,0.7-0.5,1.1c-0.2,0.4-0.3,0.7-0.5,1.1c-0.1,0.2-0.1,0.3-0.2,0.5
		c-0.1,0.2-0.1,0.3-0.2,0.5c-0.1,0.2-0.3,0.4-0.5,0.5s-0.5,0.2-0.7,0.2c-0.2,0-0.3,0-0.4-0.1s-0.1-0.2-0.2-0.3
		c0-0.2-0.1-0.3-0.1-0.5s0-0.3-0.1-0.5c-0.2-1.5-0.4-3-0.5-4.5c-0.1-1.5-0.2-3-0.3-4.5c0,0,0-0.1,0-0.1c0-0.1,0.1-0.2,0.2-0.3
		c0.1-0.1,0.2-0.2,0.3-0.2c0.1-0.1,0.3-0.1,0.4-0.1s0.2-0.1,0.3-0.1c0.3,0,0.5,0.1,0.6,0.4c0,0.1,0,0.2,0,0.4s0,0.3,0,0.4
		c0.1,1,0.1,2.1,0.2,3.1C211.9,25,212,26,212.1,27.1z"/>
	<path d="M218.3,27c0,0.2-0.1,0.5-0.1,0.7c-0.1,0.3-0.1,0.6-0.1,0.8c0,0.3,0,0.5,0.2,0.7c0.1,0.2,0.3,0.3,0.5,0.3c0.1,0,0.2,0,0.3,0
		c0.1,0,0.2,0,0.3,0c0.4-0.1,0.9-0.1,1.3-0.2s0.9-0.1,1.3-0.2c0,0,0.1,0,0.1,0c0,0,0.1,0,0.1,0c0.2,0,0.4,0.1,0.5,0.2
		c0.1,0.1,0.2,0.3,0.1,0.5c0,0.2-0.2,0.4-0.4,0.6c-0.2,0.2-0.4,0.3-0.6,0.3c-0.5,0.1-1.1,0.2-1.8,0.4c-0.7,0.1-1.3,0.2-1.8,0.2
		c-0.3,0-0.6,0-0.9-0.1c-0.2,0-0.4-0.1-0.6-0.3s-0.3-0.3-0.4-0.5c-0.1-0.2-0.1-0.5-0.2-0.9c0-0.6,0-1.2,0.1-1.8
		c0.1-0.6,0.2-1.2,0.3-1.8c0.1-0.6,0.2-1.1,0.4-1.7c0.1-0.5,0.3-1.1,0.4-1.7c0.1-0.3,0.1-0.5,0.2-0.8c0.1-0.3,0.1-0.5,0.2-0.8
		c0-0.2,0.1-0.3,0.2-0.4c0.1-0.1,0.2-0.2,0.3-0.3c0.1-0.1,0.2-0.1,0.4-0.2c0.1,0,0.2-0.1,0.4-0.1c0,0,0,0,0.1,0c0,0,0,0,0.1,0
		c0,0,0.1,0,0.1,0s0.2,0,0.3,0c0.1,0,0.2,0,0.3,0s0.1,0,0.2,0l1.4,0h0.7c0.3,0,0.6,0,0.9,0s0.6,0,0.9,0.1c0.1,0,0.1,0,0.2,0
		c0.1,0,0.1,0.1,0.2,0.1c0.1,0,0.1,0.1,0.1,0.2c0,0.1,0,0.2,0,0.3c0,0.2-0.2,0.5-0.4,0.6s-0.5,0.3-0.7,0.3c-0.2,0-0.5,0-0.7,0
		c-0.2,0-0.5,0-0.7,0c-0.4,0-0.8,0-1.2,0c-0.4,0-0.8,0-1.2,0c-0.2,0.7-0.3,1.4-0.5,2c-0.1,0.7-0.3,1.3-0.4,2
		c0.7-0.1,1.3-0.1,1.9-0.2c0.6-0.1,1.3-0.1,1.9-0.1c0,0,0.1,0,0.1,0s0.1,0,0.1,0c0,0,0.1,0,0.1,0c0.1,0,0.1,0,0.2,0
		c0.1,0,0.2,0.1,0.3,0.1c0.1,0.1,0.1,0.2,0.1,0.3c0,0.2-0.2,0.4-0.4,0.6c-0.2,0.2-0.5,0.3-0.7,0.3c-0.2,0-0.4,0.1-0.7,0.1
		c-0.2,0-0.4,0-0.7,0c-0.4,0-0.9,0.1-1.3,0.1C219.2,27,218.7,27,218.3,27z"/>
	<path d="M226.1,28c-0.1,0.4-0.1,0.8-0.2,1.1c-0.1,0.4-0.1,0.7-0.2,1.1c0,0.1-0.1,0.3-0.2,0.4s-0.2,0.2-0.3,0.3
		c-0.1,0.1-0.2,0.1-0.4,0.2s-0.3,0.1-0.4,0.1c-0.2,0-0.4-0.1-0.5-0.2c-0.1-0.1-0.1-0.2-0.1-0.4c0-0.2,0-0.3,0.1-0.5
		c0-0.2,0.1-0.3,0.1-0.5c0.2-1.2,0.4-2.4,0.6-3.6c0.2-1.2,0.5-2.4,0.7-3.6c0-0.2,0.1-0.4,0.1-0.6c0-0.2,0.1-0.4,0.1-0.6
		c0.1-0.3,0.2-0.5,0.5-0.6c0.3-0.2,0.5-0.2,0.8-0.2c0,0,0.1,0,0.2,0c0.4-0.1,0.8-0.2,1.2-0.3c0.4-0.1,0.8-0.1,1.2-0.1
		c0.5,0,0.9,0.1,1.2,0.2c0.3,0.2,0.6,0.4,0.8,0.6c0.2,0.3,0.3,0.6,0.4,0.9s0,0.8,0,1.2c-0.1,0.4-0.2,0.9-0.5,1.3
		c-0.2,0.4-0.5,0.8-0.8,1.2c-0.3,0.4-0.6,0.7-1,1c-0.4,0.3-0.8,0.6-1.2,0.8c0.2,0.1,0.4,0.3,0.6,0.5c0.2,0.2,0.4,0.4,0.5,0.6
		c0.2,0.2,0.3,0.4,0.4,0.7c0.1,0.2,0.2,0.5,0.3,0.7c0,0,0,0.1,0.1,0.2c0,0.1,0,0.1,0,0.2c0,0.1-0.1,0.2-0.2,0.4
		c-0.1,0.1-0.2,0.2-0.3,0.3s-0.2,0.2-0.4,0.2s-0.3,0.1-0.4,0.1c-0.2,0-0.4-0.1-0.5-0.3c-0.1-0.1-0.1-0.2-0.2-0.3s-0.1-0.2-0.2-0.3
		c-0.1-0.2-0.3-0.4-0.4-0.6c-0.1-0.2-0.3-0.4-0.5-0.6c-0.2-0.2-0.4-0.3-0.6-0.5C226.6,28.1,226.3,28,226.1,28z M226.4,26.4
		C226.4,26.4,226.4,26.4,226.4,26.4c0.1,0,0.2-0.1,0.3-0.1c0.1,0,0.2-0.1,0.3-0.1c0.3-0.1,0.7-0.3,1-0.6c0.3-0.2,0.6-0.5,0.9-0.8
		c0.3-0.3,0.5-0.6,0.7-0.9c0.2-0.3,0.3-0.7,0.4-1.1c0.1-0.5,0-0.9-0.2-1.2c-0.2-0.3-0.5-0.4-1.1-0.4c-0.3,0-0.5,0-0.8,0.1
		c-0.3,0.1-0.5,0.1-0.8,0.2c-0.2,0.8-0.3,1.6-0.5,2.4C226.6,24.8,226.5,25.6,226.4,26.4L226.4,26.4z"/>
	<path d="M239.1,21.5c-0.3,0-0.6,0-0.9,0c-0.3,0-0.6,0-0.9,0c-0.1,0-0.1,0-0.2,0c-0.1,0-0.2-0.1-0.2-0.1c-0.1,0-0.1-0.1-0.1-0.2
		c0-0.1,0-0.2,0-0.3c0-0.2,0.2-0.5,0.4-0.7s0.5-0.3,0.8-0.3h2.6c0.3,0,0.6,0,0.9,0s0.6,0,0.9,0c0.1,0,0.3,0,0.4,0c0.1,0,0.3,0,0.4,0
		c0.1,0,0.1,0,0.2,0c0.1,0,0.1,0,0.2,0.1c0.1,0,0.1,0.1,0.1,0.2c0,0.1,0,0.2,0,0.3c0,0.1-0.1,0.3-0.2,0.4c-0.1,0.1-0.2,0.2-0.3,0.3
		s-0.2,0.1-0.4,0.2c-0.1,0.1-0.3,0.1-0.4,0.1c-0.3,0-0.5,0-0.8,0c-0.3,0-0.5,0-0.8,0c-0.2,0.9-0.3,1.7-0.5,2.6
		c-0.1,0.9-0.3,1.7-0.5,2.6c-0.2,0.8-0.3,1.6-0.5,2.3c-0.1,0.2-0.1,0.4-0.1,0.6c0,0.2-0.1,0.4-0.1,0.6c0,0.1-0.1,0.2-0.2,0.4
		c-0.1,0.1-0.2,0.2-0.3,0.3s-0.2,0.1-0.4,0.2s-0.3,0.1-0.4,0.1c-0.2,0-0.4-0.1-0.5-0.2c-0.1-0.1-0.1-0.2-0.1-0.4
		c0-0.1,0-0.3,0.1-0.5c0-0.2,0-0.3,0.1-0.4c0.1-0.4,0.1-0.7,0.2-1c0.1-0.3,0.1-0.7,0.2-1c0.2-1,0.4-2,0.6-3
		C238.7,23.5,238.9,22.5,239.1,21.5z"/>
	<path d="M244.8,29.4c0,0.1,0,0.3-0.1,0.4c0,0.1-0.1,0.3-0.1,0.4c-0.1,0.3-0.2,0.5-0.5,0.6c-0.3,0.2-0.5,0.2-0.8,0.2
		c-0.2,0-0.3-0.1-0.4-0.2c-0.1-0.1-0.1-0.2-0.1-0.4c0-0.1,0-0.2,0-0.3c0-0.1,0-0.2,0-0.3c0.1-0.8,0.3-1.6,0.4-2.4
		c0.2-0.8,0.3-1.6,0.5-2.4c0.1-0.7,0.3-1.4,0.4-2.2c0.1-0.7,0.3-1.4,0.4-2.2c0-0.1,0.1-0.3,0.2-0.4c0.1-0.1,0.2-0.2,0.3-0.3
		c0.1-0.1,0.2-0.1,0.4-0.2c0.1,0,0.3-0.1,0.4-0.1c0.4,0,0.6,0.2,0.6,0.6c0,0.3-0.1,0.6-0.1,0.9c-0.1,0.3-0.1,0.6-0.2,0.9
		c-0.1,0.6-0.2,1.2-0.3,1.7c-0.1,0.6-0.2,1.2-0.3,1.7c0.5,0,1.1,0,1.6,0c0.5,0,1.1,0,1.6-0.1c0.1-0.7,0.2-1.4,0.4-2
		c0.1-0.7,0.3-1.3,0.4-2c0-0.1,0.1-0.3,0.1-0.4c0-0.1,0.1-0.3,0.1-0.4c0.1-0.3,0.3-0.5,0.5-0.6c0.3-0.2,0.5-0.2,0.8-0.2
		c0.2,0,0.3,0,0.4,0.1c0.1,0.1,0.1,0.2,0.1,0.4v0c-0.1,0.4-0.2,0.7-0.2,1s-0.1,0.7-0.2,1c-0.2,1-0.4,1.9-0.5,2.9
		c-0.1,0.9-0.3,1.9-0.5,2.9c-0.1,0.3-0.1,0.6-0.2,0.9c-0.1,0.3-0.1,0.6-0.2,0.9c-0.1,0.3-0.2,0.5-0.5,0.6s-0.5,0.2-0.8,0.2
		c-0.3,0-0.4-0.1-0.5-0.3c0-0.1,0-0.2,0-0.3c0-0.1,0-0.2,0-0.3c0.1-0.5,0.2-1.1,0.3-1.6c0.1-0.5,0.2-1,0.3-1.6c-0.5,0-1.1,0-1.6,0
		s-1.1,0-1.6,0L244.8,29.4z"/>
	<path d="M253.6,27c0,0.2-0.1,0.5-0.1,0.7c-0.1,0.3-0.1,0.6-0.1,0.8c0,0.3,0,0.5,0.2,0.7c0.1,0.2,0.3,0.3,0.5,0.3c0.1,0,0.2,0,0.3,0
		c0.1,0,0.2,0,0.3,0c0.4-0.1,0.9-0.1,1.3-0.2s0.9-0.1,1.3-0.2c0,0,0.1,0,0.1,0c0,0,0.1,0,0.1,0c0.2,0,0.4,0.1,0.5,0.2
		c0.1,0.1,0.2,0.3,0.1,0.5c0,0.2-0.2,0.4-0.4,0.6c-0.2,0.2-0.4,0.3-0.6,0.3c-0.5,0.1-1.1,0.2-1.8,0.4c-0.7,0.1-1.3,0.2-1.8,0.2
		c-0.3,0-0.6,0-0.9-0.1c-0.2,0-0.4-0.1-0.6-0.3s-0.3-0.3-0.4-0.5c-0.1-0.2-0.1-0.5-0.2-0.9c0-0.6,0-1.2,0.1-1.8
		c0.1-0.6,0.2-1.2,0.3-1.8c0.1-0.6,0.2-1.1,0.4-1.7c0.1-0.5,0.3-1.1,0.4-1.7c0.1-0.3,0.1-0.5,0.2-0.8c0.1-0.3,0.1-0.5,0.2-0.8
		c0-0.2,0.1-0.3,0.2-0.4c0.1-0.1,0.2-0.2,0.3-0.3c0.1-0.1,0.2-0.1,0.4-0.2c0.1,0,0.2-0.1,0.4-0.1c0,0,0,0,0.1,0c0,0,0,0,0.1,0
		c0,0,0.1,0,0.1,0s0.2,0,0.3,0c0.1,0,0.2,0,0.3,0s0.1,0,0.2,0l1.4,0h0.7c0.3,0,0.6,0,0.9,0s0.6,0,0.9,0.1c0.1,0,0.1,0,0.2,0
		c0.1,0,0.1,0.1,0.2,0.1c0.1,0,0.1,0.1,0.1,0.2c0,0.1,0,0.2,0,0.3c0,0.2-0.2,0.5-0.4,0.6s-0.5,0.3-0.7,0.3c-0.2,0-0.5,0-0.7,0
		c-0.2,0-0.5,0-0.7,0c-0.4,0-0.8,0-1.2,0c-0.4,0-0.8,0-1.2,0c-0.2,0.7-0.3,1.4-0.5,2c-0.1,0.7-0.3,1.3-0.4,2
		c0.7-0.1,1.3-0.1,1.9-0.2c0.6-0.1,1.3-0.1,1.9-0.1c0,0,0.1,0,0.1,0s0.1,0,0.1,0c0,0,0.1,0,0.1,0c0.1,0,0.1,0,0.2,0
		c0.1,0,0.2,0.1,0.3,0.1c0.1,0.1,0.1,0.2,0.1,0.3c0,0.2-0.2,0.4-0.4,0.6c-0.2,0.2-0.5,0.3-0.7,0.3c-0.2,0-0.4,0.1-0.7,0.1
		c-0.2,0-0.4,0-0.7,0c-0.4,0-0.9,0.1-1.3,0.1C254.5,27,254.1,27,253.6,27z"/>
	<path d="M265.8,29.4c0.4,0,0.8-0.1,1.2-0.1s0.8,0,1.2,0c0.2,0,0.3,0,0.5,0c0.1,0,0.3,0.1,0.4,0.2s0.2,0.2,0.1,0.4
		c0,0.1-0.1,0.2-0.2,0.4c-0.1,0.1-0.2,0.2-0.3,0.3c-0.1,0.1-0.2,0.1-0.4,0.2s-0.3,0.1-0.4,0.1c-0.1,0-0.1,0-0.2,0
		c-0.1,0-0.1,0-0.2,0c-0.5,0-1,0-1.5,0.1c-0.5,0.1-1,0.1-1.5,0.2c0,0-0.1,0-0.2,0c-0.2,0-0.4,0-0.5-0.1c-0.1-0.1-0.2-0.2-0.2-0.5
		c0-0.1,0-0.2,0-0.3c0-0.1,0-0.2,0-0.3l0.2-1.2c0.2-1.1,0.4-2.2,0.6-3.3c0.2-1.1,0.4-2.2,0.7-3.3c0.1-0.2,0.1-0.5,0.2-0.7
		c0-0.2,0.1-0.5,0.2-0.7c0-0.1,0.1-0.3,0.2-0.4c0.1-0.1,0.2-0.2,0.3-0.3c0.1-0.1,0.2-0.1,0.4-0.2c0.1,0,0.3-0.1,0.4-0.1
		c0.2,0,0.3,0,0.4,0.1c0.1,0.1,0.2,0.2,0.1,0.4v0c-0.4,1.5-0.7,3-1,4.5C266.4,26.4,266.1,27.9,265.8,29.4z"/>
	<path d="M272.2,28.5c0,0.3-0.1,0.5-0.1,0.8c0,0.3-0.1,0.5-0.1,0.8l0,0.1c0,0.1-0.1,0.2-0.2,0.3c-0.1,0.1-0.2,0.2-0.3,0.2
		c-0.1,0.1-0.2,0.1-0.4,0.2S271,31,270.9,31c-0.4,0-0.6-0.2-0.6-0.6c0-0.2,0-0.3,0-0.5c0-0.2,0-0.3,0.1-0.5c0.1-1,0.3-2,0.5-2.9
		s0.5-1.9,1-2.8c0.2-0.4,0.4-0.7,0.7-1.1c0.3-0.4,0.6-0.7,0.9-1.1c0.3-0.3,0.7-0.6,1.1-0.8c0.4-0.2,0.9-0.4,1.3-0.4c0,0,0.1,0,0.1,0
		c0.4,0,0.8,0.1,1,0.4c0.3,0.2,0.5,0.6,0.6,0.9c0.1,0.4,0.2,0.7,0.3,1.1c0,0.4,0.1,0.7,0.1,1c0,0.9-0.1,1.8-0.3,2.7
		c-0.2,0.9-0.4,1.8-0.6,2.6c-0.1,0.2-0.1,0.4-0.2,0.6c0,0.2-0.1,0.4-0.2,0.6c-0.1,0.3-0.3,0.5-0.5,0.6c-0.3,0.2-0.5,0.2-0.8,0.2
		c-0.2,0-0.3,0-0.4-0.1c-0.1-0.1-0.1-0.2-0.1-0.4l0-0.1c0.1-0.4,0.2-0.7,0.3-1.1c0.1-0.4,0.2-0.7,0.2-1.1c-0.5,0-1.1,0-1.7,0.1
		C273.3,28.4,272.8,28.5,272.2,28.5z M276,25.7c0.1-0.3,0.1-0.6,0.2-0.9s0.1-0.7,0.1-1c0-0.3,0-0.6-0.1-0.9
		c-0.1-0.3-0.2-0.5-0.4-0.7c-0.1-0.1-0.3-0.2-0.4-0.2c-0.2,0-0.5,0.1-0.7,0.4c-0.3,0.3-0.5,0.6-0.8,1.1c-0.4,0.6-0.6,1.2-0.9,1.8
		c-0.2,0.6-0.4,1.2-0.5,1.9c0.6-0.1,1.1-0.1,1.7-0.2c0.6,0,1.1-0.1,1.7-0.1L276,25.7z"/>
	<path d="M280.7,29.5c0.5,0,1-0.1,1.5-0.1c0.5,0,1-0.1,1.5-0.1c0.1,0,0.2,0,0.2,0c0.1,0,0.2,0,0.2,0.1c0.1,0,0.1,0.1,0.1,0.2
		c0,0.1,0,0.2,0,0.3c0,0.1-0.1,0.2-0.2,0.4s-0.2,0.2-0.3,0.3s-0.2,0.2-0.4,0.2c-0.1,0.1-0.3,0.1-0.4,0.1c-0.1,0-0.2,0-0.3,0
		s-0.2,0-0.3,0c-0.2,0-0.4,0-0.6,0.1c-0.2,0-0.4,0-0.6,0.1c-0.4,0-0.8,0.1-1.2,0.1c-0.4,0-0.8,0.1-1.2,0.1c-0.2,0-0.4-0.1-0.5-0.2
		s-0.2-0.3-0.1-0.5c0,0,0-0.1,0.1-0.2c0-0.1,0.1-0.1,0.1-0.2c0.3-0.5,0.6-0.9,0.9-1.4c0.3-0.5,0.6-0.9,0.9-1.4
		c0.6-0.9,1.3-1.9,1.9-2.8c0.6-0.9,1.2-1.9,1.9-2.8h-0.4c-0.2,0-0.4,0-0.6,0c-0.2,0-0.5,0-0.7,0c-0.2,0-0.5,0-0.7,0s-0.4,0-0.6-0.1
		c-0.1,0-0.3-0.1-0.4-0.2c-0.1-0.1-0.2-0.2-0.1-0.5c0-0.1,0.1-0.3,0.2-0.4c0.1-0.1,0.2-0.2,0.3-0.3c0.1-0.1,0.2-0.1,0.4-0.2
		s0.3-0.1,0.4-0.1c0.4,0,0.8,0.1,1.1,0.1c0.4,0,0.8,0,1.2,0c0.3,0,0.6,0,0.9,0c0.3,0,0.6,0,0.9,0h0.1c0.2,0,0.4,0.1,0.5,0.2
		c0.1,0.1,0.1,0.3,0.1,0.5c0,0.1-0.1,0.2-0.1,0.3c-0.3,0.5-0.6,0.9-0.9,1.4c-0.3,0.5-0.6,0.9-0.9,1.4c-0.6,0.9-1.2,1.9-1.9,2.8
		S281.3,28.5,280.7,29.5z"/>
	<path d="M288.6,27.1c0-0.1-0.1-0.2-0.1-0.3c0-0.1,0-0.2-0.1-0.3c-0.2-0.9-0.5-1.8-0.7-2.7c-0.2-0.9-0.4-1.8-0.6-2.7
		c0-0.1,0-0.1,0-0.2c0-0.1,0.1-0.2,0.2-0.3c0.1-0.1,0.2-0.2,0.3-0.3c0.1-0.1,0.2-0.1,0.4-0.2c0.1,0,0.2-0.1,0.4-0.1
		c0.3,0,0.5,0.1,0.6,0.4c0.1,0.2,0.1,0.5,0.2,0.7c0,0.2,0.1,0.5,0.2,0.8l0.7,2.7c0.3-0.6,0.7-1.1,1-1.6s0.7-1.1,1.1-1.6
		c0.1-0.2,0.3-0.3,0.4-0.5c0.1-0.2,0.3-0.3,0.4-0.5c0.1-0.2,0.3-0.3,0.5-0.4s0.4-0.1,0.5-0.1c0.1,0,0.2,0,0.2,0c0.1,0,0.2,0,0.2,0.1
		c0.1,0,0.1,0.1,0.2,0.2c0,0.1,0.1,0.2,0,0.3c0,0.1,0,0.1-0.1,0.2c0,0.1-0.1,0.1-0.1,0.2c-0.3,0.4-0.6,0.8-0.9,1.1
		c-0.3,0.4-0.6,0.7-0.8,1.1c-0.4,0.6-0.8,1.2-1.2,1.9c-0.4,0.6-0.7,1.3-1.1,1.9c0,0.1-0.1,0.1-0.1,0.1l0,0l0,0c0,0.1,0,0.1,0,0.1
		c0,0.1,0,0.1,0,0.1l-0.6,2.9c0,0.1-0.1,0.2-0.2,0.4c-0.1,0.1-0.2,0.2-0.3,0.3c-0.1,0.1-0.3,0.1-0.4,0.2s-0.3,0.1-0.4,0.1
		c-0.2,0-0.3-0.1-0.4-0.2c-0.1-0.1-0.1-0.2-0.1-0.4c0-0.2,0-0.3,0-0.4c0-0.1,0-0.1,0-0.2c0-0.1,0-0.1,0-0.2c0-0.2,0.1-0.4,0.1-0.5
		c0-0.2,0.1-0.4,0.1-0.5c0.1-0.3,0.1-0.6,0.2-0.8C288.5,27.7,288.5,27.4,288.6,27.1z"/>
	<path d="M297.9,30.5c0-0.7,0-1.5,0.1-2.2c0.1-0.8,0.2-1.5,0.4-2.2c0.2-0.9,0.4-1.7,0.6-2.6c0.2-0.9,0.5-1.7,0.8-2.6
		c0-0.2,0.1-0.3,0.2-0.4c0.1-0.1,0.2-0.2,0.4-0.3c0.1,0,0.2-0.1,0.3-0.1c0.1,0,0.2,0,0.3,0c0.1,0,0.1,0,0.1,0c0,0,0.1,0,0.1,0
		c0.7,0.1,1.3,0.4,1.9,0.7s1.2,0.8,1.6,1.3s0.8,1.1,1,1.7c0.2,0.6,0.3,1.3,0.1,2c0,0.2-0.1,0.3-0.1,0.4c-0.2,0.8-0.6,1.4-1.1,2
		s-1,1.1-1.7,1.5s-1.3,0.7-2.1,0.9c-0.8,0.2-1.5,0.4-2.3,0.4c0,0-0.1,0-0.1,0c0,0-0.1,0-0.1,0c0,0-0.1,0-0.1,0s-0.1,0-0.1,0
		c-0.2,0-0.3-0.1-0.3-0.2C297.9,30.8,297.9,30.7,297.9,30.5L297.9,30.5z M299.7,29.5c0.5-0.1,1-0.2,1.5-0.4c0.5-0.2,0.9-0.4,1.3-0.7
		c0.4-0.3,0.7-0.6,1-1c0.3-0.4,0.5-0.8,0.6-1.3c0.1-0.5,0.1-1,0-1.4c-0.1-0.4-0.3-0.8-0.6-1.2c-0.3-0.4-0.6-0.7-1-1
		c-0.4-0.3-0.8-0.5-1.2-0.7c-0.4,1.3-0.7,2.5-0.9,3.8C300.1,26.9,299.9,28.2,299.7,29.5z"/>
	<path d="M307.8,30.4c-0.3-0.2-0.5-0.5-0.7-0.8s-0.3-0.6-0.3-0.9c-0.1-0.3-0.1-0.7-0.1-1c0-0.4,0.1-0.7,0.1-1.1
		c0.1-0.4,0.2-0.7,0.3-1.2c0.1-0.4,0.3-0.9,0.5-1.3c0.2-0.4,0.4-0.9,0.6-1.3c0.2-0.4,0.5-0.7,0.7-1c0.2-0.2,0.4-0.5,0.7-0.7
		c0.3-0.2,0.5-0.4,0.8-0.6s0.6-0.3,0.9-0.4c0.3-0.1,0.6-0.1,1-0.1c0.6,0,1.1,0.2,1.5,0.5c0.4,0.3,0.7,0.6,0.9,0.9s0.4,0.8,0.5,1.2
		c0.1,0.4,0.2,0.9,0.2,1.3c0,0.5,0,0.9-0.1,1.3c-0.1,0.4-0.2,0.9-0.4,1.3s-0.4,0.9-0.6,1.3c-0.1,0.2-0.3,0.5-0.5,0.8
		s-0.4,0.6-0.7,0.9c-0.3,0.3-0.5,0.6-0.8,0.8c-0.3,0.2-0.6,0.4-0.9,0.5c-0.2,0.1-0.4,0.1-0.5,0.1c-0.2,0-0.4,0-0.5,0
		c-0.4,0-0.9-0.1-1.3-0.2C308.5,30.8,308.1,30.6,307.8,30.4z M310.1,29.4c0.1,0,0.2,0,0.2,0c0.1,0,0.2,0,0.2,0c0.2,0,0.4,0,0.6-0.1
		c0.2-0.1,0.4-0.2,0.5-0.4c0.2-0.1,0.3-0.3,0.4-0.5c0.1-0.2,0.3-0.4,0.4-0.6c0.2-0.4,0.4-0.8,0.6-1.2c0.2-0.4,0.3-0.8,0.4-1.2
		c0.1-0.5,0.1-1.1,0.1-1.6c-0.1-0.5-0.2-1-0.5-1.4c-0.2-0.3-0.3-0.5-0.5-0.7c-0.2-0.2-0.4-0.3-0.8-0.3c-0.3,0-0.6,0.1-0.9,0.2
		c-0.3,0.2-0.5,0.4-0.7,0.6c-0.2,0.3-0.4,0.5-0.5,0.8c-0.2,0.5-0.4,0.9-0.6,1.4c-0.2,0.5-0.3,1-0.4,1.4c-0.1,0.4-0.1,0.7-0.1,1.1
		c0,0.4,0,0.7,0.1,1c0.1,0.3,0.2,0.6,0.5,0.8C309.4,29.2,309.7,29.3,310.1,29.4z"/>
	<path d="M322.1,26.6c-0.2,0-0.3,0-0.5,0.1c-0.2,0-0.4,0.1-0.5,0.1c-0.2,0.1-0.4,0.1-0.6,0.2s-0.4,0.1-0.6,0.1c-0.1,0-0.1,0-0.1,0
		c0,0-0.1,0-0.1,0c-0.2,0-0.4-0.1-0.5-0.2s-0.1-0.3-0.1-0.5c0-0.2,0.2-0.4,0.4-0.6c0.2-0.2,0.4-0.3,0.6-0.3c0,0,0.1,0,0.2,0l0.4-0.1
		l0.2,0c0.2,0,0.4-0.1,0.5-0.1c0.2,0,0.4-0.1,0.5-0.1c0.2-0.1,0.5-0.1,0.7-0.1c0.2,0,0.5,0,0.7,0c0.2,0,0.4,0,0.6,0.1
		c0.1,0.1,0.2,0.2,0.3,0.4c0.1,0.1,0.1,0.3,0.1,0.5c0,0.2,0,0.3-0.1,0.5c-0.1,0.6-0.3,1.1-0.6,1.7c-0.3,0.5-0.7,1-1.2,1.5
		c-0.5,0.4-1,0.8-1.5,1c-0.6,0.3-1.1,0.4-1.7,0.4c-0.4,0-0.8-0.1-1.1-0.2c-0.3-0.2-0.6-0.4-0.8-0.6c-0.2-0.3-0.4-0.5-0.5-0.9
		c-0.1-0.3-0.2-0.7-0.2-1s0-0.7,0-1.1s0.1-0.7,0.1-1c0.1-0.7,0.4-1.4,0.7-2.2c0.3-0.8,0.7-1.5,1.2-2.1c0.2-0.3,0.4-0.5,0.7-0.8
		c0.3-0.2,0.6-0.5,0.9-0.6c0.3-0.2,0.6-0.3,1-0.4c0.3-0.1,0.7-0.2,1-0.2c0.3,0,0.6,0.1,0.8,0.2s0.4,0.2,0.5,0.4
		c0.1,0.2,0.2,0.4,0.3,0.6c0.1,0.2,0.1,0.5,0.1,0.7c0,0.1,0,0.1,0,0.1c0,0.1-0.1,0.2-0.2,0.3s-0.2,0.2-0.3,0.2
		c-0.1,0.1-0.2,0.1-0.4,0.1c-0.1,0-0.2,0-0.3,0c-0.2,0-0.4,0-0.5-0.1c-0.1-0.1-0.2-0.2-0.2-0.4c0-0.1-0.1-0.3-0.1-0.4
		c-0.1-0.2-0.2-0.2-0.4-0.2c-0.1,0-0.3,0.1-0.5,0.1c-0.2,0.1-0.4,0.2-0.5,0.3c-0.2,0.2-0.4,0.5-0.6,0.8s-0.4,0.7-0.6,1.1
		c-0.2,0.4-0.3,0.8-0.5,1.2c-0.1,0.4-0.2,0.7-0.3,1c-0.1,0.3-0.1,0.6-0.1,0.9c0,0.3,0,0.6,0,0.8c0,0.2,0.1,0.4,0.1,0.6
		c0.1,0.2,0.1,0.4,0.2,0.5c0.1,0.2,0.2,0.3,0.4,0.4c0.1,0.1,0.3,0.2,0.5,0.2c0.3,0,0.6-0.1,0.9-0.3c0.3-0.2,0.6-0.4,0.8-0.7
		c0.2-0.3,0.4-0.6,0.6-0.9C322,27.2,322,26.9,322.1,26.6z"/>
</g>
</svg>
