<?xml version="1.0" encoding="utf-8"?>
<!-- Generator: Adobe Illustrator 26.1.0, SVG Export Plug-In . SVG Version: 6.00 Build 0)  -->
<svg version="1.1" id="Layer_1" xmlns="http://www.w3.org/2000/svg" xmlns:xlink="http://www.w3.org/1999/xlink" x="0px" y="0px"
	 viewBox="0 0 372 36.9" style="enable-background:new 0 0 372 36.9;" xml:space="preserve">
<g>
	<path d="M6.4,7.8c0.2,0,0.4,0,0.6,0s0.4,0,0.6,0c0.2-0.6,0.4-1.1,0.6-1.7C8.4,5.6,8.6,5,8.7,4.5C8.8,4.3,9,4.1,9.2,3.9
		c0.2-0.1,0.5-0.2,0.7-0.2c0.1,0,0.3,0,0.3,0.1c0.1,0.1,0.1,0.2,0.1,0.3C10.1,4.8,9.9,5.4,9.7,6C9.5,6.6,9.3,7.2,9.1,7.8
		c0.4,0,0.7,0,1,0c0.3,0,0.7,0,1,0c0.2,0,0.4,0.1,0.5,0.2c0,0.1,0,0.3-0.1,0.4c-0.1,0.2-0.2,0.3-0.4,0.4C11,9,10.9,9.1,10.7,9.1
		C10.3,9,10,9,9.7,9S9.1,9,8.8,9c-0.1,0.5-0.3,1-0.4,1.4c-0.1,0.5-0.2,1-0.2,1.5c0,0.1,0,0.2,0,0.4c0,0.2,0,0.4,0.1,0.7
		s0.1,0.4,0.2,0.6c0.1,0.2,0.2,0.3,0.3,0.3c0.1,0,0.3-0.1,0.4-0.2c0.1-0.1,0.2-0.2,0.3-0.2c0.1,0,0.2-0.1,0.3-0.1
		c0.1,0,0.2,0,0.3,0.1c0.1,0,0.2,0.1,0.2,0.2s0,0.2,0,0.3c0,0.1-0.1,0.2-0.3,0.4c-0.3,0.3-0.6,0.5-0.9,0.6C9,15,8.7,15,8.4,15
		c-0.5,0-0.9-0.2-1.2-0.5s-0.5-0.7-0.6-1.3c0-0.7,0-1.4,0.1-2.1C6.8,10.5,7,9.7,7.2,9C7,9,6.8,9,6.6,9C6.3,9,6.1,9,5.9,9
		C5.6,9,5.5,9,5.4,8.8c0-0.1,0-0.3,0.1-0.4S5.7,8.1,5.9,8C6,7.9,6.2,7.8,6.4,7.8z"/>
	<path d="M16.4,14.4c0-0.1,0.1-0.3,0.1-0.6s0.1-0.7,0.1-1.1c0-0.4,0.1-0.8,0.1-1.3c0-0.4,0-0.8-0.1-1.2c0-0.4-0.1-0.7-0.2-0.9
		C16.3,9.1,16.2,9,16,9c-0.1,0-0.3,0.1-0.5,0.2c-0.2,0.1-0.3,0.3-0.5,0.5c-0.1,0.2-0.3,0.5-0.4,0.7c-0.1,0.3-0.2,0.5-0.4,0.8
		c-0.1,0.3-0.2,0.5-0.3,0.7c-0.2,0.4-0.3,0.8-0.5,1.2c-0.1,0.4-0.3,0.8-0.4,1.2c0,0.2-0.2,0.3-0.4,0.4C12.4,15,12.2,15,12,15
		c-0.1,0-0.3,0-0.4-0.1c-0.1-0.1-0.1-0.2-0.1-0.4c0.4-1.6,0.7-3.3,1.1-4.9c0.3-1.6,0.7-3.2,1-4.9c0-0.1,0.1-0.2,0.2-0.3
		c0.1-0.1,0.2-0.2,0.3-0.2s0.2-0.1,0.3-0.2c0.1,0,0.2-0.1,0.3-0.1c0.1,0,0.3,0,0.3,0.1c0.1,0.1,0.1,0.2,0.1,0.4
		c-0.1,0.7-0.3,1.4-0.4,2.1S14.5,8,14.3,8.7c0.3-0.3,0.5-0.5,0.9-0.7s0.7-0.3,1-0.4c0.5-0.1,0.9,0,1.2,0.2c0.3,0.2,0.5,0.5,0.7,0.9
		c0.2,0.4,0.3,0.8,0.3,1.3c0,0.5,0,1,0,1.5s-0.1,1-0.2,1.4c-0.1,0.5-0.2,0.8-0.3,1.1c0,0.1-0.1,0.2-0.2,0.3
		c-0.1,0.1-0.2,0.2-0.3,0.2s-0.2,0.1-0.3,0.2c-0.1,0-0.2,0.1-0.3,0.1c-0.1,0-0.2,0-0.3-0.1S16.4,14.6,16.4,14.4z"/>
	<path d="M24.3,7.7c0.4,0,0.7,0.1,1,0.2c0.3,0.1,0.5,0.3,0.6,0.6C26.1,8.7,26.1,9,26,9.4c-0.1,0.3-0.3,0.7-0.6,1.1
		c-0.2,0.2-0.4,0.5-0.7,0.6c-0.3,0.2-0.6,0.4-0.9,0.5c-0.3,0.1-0.6,0.2-1,0.3s-0.7,0.1-1,0.1c-0.2,0-0.5,0-0.7-0.1
		c0,0.2-0.1,0.4-0.1,0.5c0,0.2,0,0.3,0,0.5c0.1,0.3,0.2,0.5,0.3,0.6c0.2,0.1,0.4,0.2,0.6,0.2c0.2,0,0.4,0,0.6-0.1
		c0.2,0,0.5-0.1,0.7-0.2c0.2-0.1,0.4-0.2,0.6-0.3c0.2-0.1,0.3-0.3,0.4-0.4c0.1-0.1,0.2-0.2,0.4-0.3c0.1-0.1,0.3-0.1,0.4-0.1
		c0.2,0,0.4,0.1,0.5,0.2c0.1,0.1,0.1,0.3-0.1,0.6c-0.2,0.3-0.4,0.6-0.7,0.8c-0.3,0.2-0.6,0.4-1,0.6c-0.4,0.2-0.7,0.3-1.1,0.4
		C22.5,15,22.1,15,21.7,15c-0.5,0-0.9-0.1-1.3-0.3c-0.4-0.2-0.6-0.5-0.8-0.9c-0.2-0.4-0.2-0.8-0.1-1.2s0.2-0.9,0.4-1.4
		c-0.1-0.1-0.1-0.3,0-0.4s0.2-0.3,0.4-0.4c0.2-0.3,0.5-0.7,0.7-1c0.3-0.3,0.6-0.6,0.9-0.9c0.3-0.3,0.7-0.5,1.1-0.7
		C23.5,7.8,23.9,7.7,24.3,7.7z M24.3,10c0.2-0.3,0.2-0.6,0.1-0.8c-0.1-0.2-0.3-0.3-0.6-0.3c-0.2,0-0.4,0.1-0.6,0.2
		c-0.2,0.1-0.4,0.3-0.6,0.5s-0.4,0.4-0.5,0.6c-0.2,0.2-0.3,0.4-0.4,0.6c0.2,0.1,0.5,0.1,0.7,0.1c0.2,0,0.4,0,0.6,0
		c0.2,0,0.4-0.1,0.5-0.1s0.3-0.1,0.5-0.2C24.1,10.3,24.2,10.2,24.3,10z"/>
	<path d="M36.6,13.9c-0.1,0.2-0.2,0.5-0.2,0.7c-0.1,0.3-0.1,0.5-0.2,0.8c0,0.1,0,0.2-0.1,0.4c0,0.2,0,0.3,0,0.5c0,0.2,0,0.3,0.1,0.4
		c0,0.1,0.1,0.2,0.2,0.2c0.1,0,0.3-0.1,0.5-0.3c0.1-0.1,0.2-0.2,0.4-0.3c0.2-0.1,0.3-0.1,0.5-0.1c0.1,0,0.2,0,0.3,0
		c0.1,0,0.1,0.1,0.2,0.1s0,0.1,0,0.2c0,0.1-0.1,0.2-0.1,0.3c-0.3,0.5-0.7,0.8-1,1c-0.4,0.2-0.8,0.3-1.1,0.3c-0.4,0-0.7-0.1-1-0.4
		c-0.3-0.3-0.4-0.7-0.4-1.3c0-0.3,0-0.6,0.1-0.9c0.1-0.3,0.1-0.6,0.2-1c-0.2,0.1-0.5,0.2-0.8,0.3S33.5,15,33.2,15
		c-0.4,0-0.7-0.1-1-0.2c-0.3-0.2-0.5-0.4-0.7-0.6c-0.2-0.3-0.3-0.6-0.4-0.9c-0.1-0.3-0.1-0.7-0.1-1c0-0.5,0.2-1.1,0.4-1.6
		c0.2-0.6,0.6-1.1,1-1.6c0.4-0.5,0.8-0.9,1.4-1.2c0.5-0.3,1.1-0.5,1.6-0.5c0.4,0,0.7,0.1,0.9,0.2c0.3,0.1,0.5,0.3,0.6,0.6
		s0.3,0.5,0.4,0.9c0.1,0.3,0.2,0.7,0.2,1c0.2,0.1,0.2,0.3,0.1,0.5c-0.2,0.6-0.4,1.1-0.7,1.7C36.9,12.8,36.7,13.3,36.6,13.9z
		 M32.7,11.9c0,0.2,0,0.4,0.1,0.6c0,0.2,0.1,0.4,0.2,0.6c0.1,0.2,0.2,0.3,0.4,0.4s0.3,0.1,0.5,0.1c0.3,0,0.6-0.1,0.8-0.3
		c0.3-0.2,0.5-0.5,0.7-0.8c0.2-0.3,0.4-0.6,0.5-0.9c0.2-0.3,0.3-0.6,0.4-0.8c0,0,0,0,0,0s0,0,0,0c0-0.2-0.1-0.4-0.1-0.7
		c0-0.3-0.1-0.5-0.2-0.7c-0.1-0.2-0.2-0.4-0.3-0.6c-0.1-0.1-0.3-0.2-0.5-0.2c-0.1,0-0.3,0-0.5,0.1c-0.2,0.1-0.4,0.2-0.6,0.4
		c-0.2,0.2-0.4,0.4-0.5,0.6c-0.2,0.2-0.3,0.5-0.4,0.7s-0.2,0.5-0.3,0.7C32.8,11.4,32.7,11.7,32.7,11.9z"/>
	<path d="M43.5,12.7c-0.2,0.3-0.3,0.5-0.5,0.8c-0.2,0.3-0.4,0.5-0.6,0.8c-0.2,0.2-0.5,0.4-0.7,0.6C41.5,15,41.2,15,40.8,15
		c-0.5,0-0.9-0.1-1.2-0.4c-0.3-0.2-0.5-0.6-0.6-1c-0.1-0.4-0.2-0.8-0.2-1.3c0-0.5,0.1-1,0.1-1.5c0.1-0.5,0.2-1,0.4-1.4
		c0.1-0.5,0.3-0.9,0.4-1.2c0.1-0.2,0.2-0.3,0.4-0.4c0.2-0.1,0.4-0.1,0.6-0.1c0.2,0,0.3,0.1,0.4,0.1c0.1,0.1,0.1,0.3,0,0.5
		c-0.3,0.6-0.5,1.1-0.6,1.6s-0.2,1.1-0.2,1.6c0,0.1,0,0.3,0,0.5c0,0.2,0,0.4,0.1,0.7c0.1,0.2,0.1,0.4,0.2,0.6s0.2,0.2,0.4,0.2
		c0.1,0,0.3-0.1,0.4-0.2c0.1-0.1,0.3-0.3,0.5-0.5c0.2-0.2,0.3-0.5,0.5-0.8c0.2-0.3,0.3-0.7,0.5-1c0.2-0.4,0.3-0.7,0.4-1.1
		c0.1-0.3,0.3-0.7,0.4-1C44,8.7,44,8.4,44.1,8.2c0.1-0.2,0.2-0.3,0.4-0.4c0.2-0.1,0.4-0.2,0.6-0.2c0.1,0,0.3,0,0.4,0.1
		c0.1,0.1,0.1,0.2,0.1,0.4c-0.1,0.5-0.1,1-0.2,1.6s-0.1,1-0.2,1.5c0,0.5,0,1,0,1.5s0.2,1,0.3,1.4c0,0.1,0,0.2,0,0.3
		c-0.1,0.1-0.1,0.2-0.2,0.3c-0.1,0.1-0.2,0.2-0.4,0.2c-0.1,0-0.3,0.1-0.4,0.1c-0.2,0-0.3-0.1-0.4-0.2c-0.2-0.3-0.3-0.7-0.4-1
		C43.6,13.5,43.6,13.1,43.5,12.7z"/>
	<path d="M47.9,8.5c0-0.2,0.2-0.4,0.4-0.5c0.2-0.1,0.5-0.2,0.7-0.2c0.1,0,0.3,0,0.3,0.1c0.1,0.1,0.1,0.2,0.1,0.4
		c-0.1,0.5-0.2,1-0.3,1.6s-0.2,1-0.3,1.6c0,0.2-0.1,0.4-0.1,0.7c-0.1,0.3-0.1,0.5-0.1,0.8c0,0.2,0,0.5,0.1,0.7
		c0.1,0.2,0.2,0.4,0.4,0.5c0.2,0.1,0.2,0.2,0.2,0.3c0,0.1-0.1,0.3-0.2,0.4s-0.3,0.2-0.4,0.3S48.4,15,48.2,15c-0.1,0-0.2,0-0.3-0.1
		c-0.4-0.2-0.6-0.5-0.7-0.8c-0.1-0.4-0.1-0.8-0.1-1.2c0-0.7,0.2-1.5,0.3-2.2C47.6,10,47.8,9.2,47.9,8.5z M48.6,6.7
		c-0.1,0-0.1-0.1-0.1-0.1c0-0.1,0-0.1,0-0.2c0,0,0,0,0-0.1s0,0,0-0.1c0-0.1,0.1-0.2,0.1-0.2c0-0.1,0.1-0.1,0.2-0.2
		c0.1-0.1,0.2-0.2,0.3-0.2c0.1,0,0.1,0,0.2-0.1c0.1,0,0.2,0,0.3,0c0.1,0,0.1,0,0.2,0.1c0.1,0,0.1,0.1,0.1,0.1c0,0.1,0,0.1,0,0.2
		c0,0,0,0,0,0.1c0,0,0,0,0,0.1c0,0.1-0.1,0.2-0.1,0.3c-0.1,0.1-0.1,0.1-0.1,0.1c-0.1,0.1-0.2,0.2-0.4,0.2c-0.1,0-0.1,0-0.2,0.1
		c-0.1,0-0.2,0-0.3,0C48.8,6.8,48.7,6.7,48.6,6.7z"/>
	<path d="M54.8,7.8c0.5,0,1,0.2,1.3,0.5c0.4,0.3,0.6,0.7,0.7,1.3c0,0.1,0,0.2-0.1,0.3c-0.1,0.1-0.1,0.2-0.2,0.3s-0.2,0.1-0.3,0.2
		c-0.1,0-0.2,0.1-0.4,0.1c-0.1,0-0.2,0-0.3-0.1c-0.1-0.1-0.1-0.1-0.2-0.2c-0.1-0.3-0.2-0.6-0.4-0.7s-0.4-0.3-0.7-0.3
		c-0.3,0-0.5,0.1-0.8,0.3c-0.3,0.2-0.5,0.4-0.7,0.7c-0.2,0.3-0.4,0.6-0.5,0.9c-0.1,0.3-0.2,0.6-0.3,0.8c-0.1,0.3-0.1,0.6,0,0.9
		s0.2,0.4,0.4,0.6c0.2,0.2,0.4,0.3,0.7,0.4s0.6,0.1,0.9,0.1c0.5,0,1.1-0.1,1.6-0.4c0.2-0.1,0.3-0.1,0.5-0.1c0.1,0,0.3,0,0.4,0.1
		c0.1,0.1,0.2,0.2,0.2,0.3c0,0.1,0,0.2,0,0.3c-0.1,0.1-0.2,0.2-0.4,0.3c-0.4,0.2-0.9,0.4-1.3,0.5C54.5,15,54,15,53.6,15
		c-0.5,0-1-0.1-1.4-0.2s-0.8-0.4-1.1-0.6c-0.3-0.3-0.5-0.7-0.5-1.1c-0.1-0.5,0-1,0.2-1.6c0.2-0.4,0.4-0.8,0.6-1.3
		C51.7,9.8,52,9.4,52.3,9s0.7-0.6,1.2-0.9C53.9,8,54.4,7.8,54.8,7.8z"/>
	<path d="M64.1,13.5c0.1,0.1,0.1,0.2,0.1,0.3s-0.1,0.2-0.2,0.3c-0.1,0.1-0.2,0.2-0.4,0.2c-0.2,0.1-0.3,0.1-0.4,0.1
		c-0.2,0-0.3,0-0.4-0.1c-0.2-0.2-0.4-0.4-0.5-0.6c-0.2-0.2-0.4-0.4-0.6-0.6s-0.4-0.4-0.7-0.6s-0.5-0.3-0.7-0.5
		c-0.1,0.4-0.1,0.7-0.2,1.1s-0.1,0.7-0.2,1.1c0,0.2-0.2,0.4-0.4,0.5C59.3,15,59,15,58.8,15c-0.1,0-0.3,0-0.3-0.1
		c-0.1-0.1-0.1-0.2-0.1-0.3c0.1-1.6,0.3-3.3,0.7-4.9C59.5,8,60,6.3,60.6,4.7c0.1-0.2,0.2-0.3,0.4-0.4c0.2-0.1,0.4-0.1,0.6-0.1
		c0.2,0,0.3,0,0.4,0.1C62,4.4,62,4.5,62,4.8c-0.3,0.9-0.6,1.8-0.8,2.7c-0.2,0.9-0.4,1.8-0.6,2.7c1.1-0.6,2.1-1.3,3-2.2
		c0.1-0.1,0.2-0.2,0.3-0.2c0.1,0,0.2-0.1,0.3-0.1c0.1,0,0.2,0,0.3,0.1c0.1,0,0.2,0.1,0.2,0.2c0,0.1,0,0.2,0,0.3
		c0,0.1-0.1,0.2-0.2,0.4c-1,1-2.1,1.8-3.3,2.5c0.6,0.3,1.1,0.6,1.6,1.1C63.3,12.6,63.8,13.1,64.1,13.5z"/>
	<path d="M72.7,5.4c-0.2,0.7-0.3,1.3-0.5,2c-0.1,0.7-0.3,1.3-0.4,2c0.5-0.4,1-0.7,1.5-1c0.5-0.3,1-0.4,1.5-0.4
		c0.4,0,0.8,0.1,1.2,0.4c0.3,0.3,0.6,0.7,0.7,1.3c0.2,0.7,0.1,1.4-0.1,2c-0.3,0.6-0.7,1.2-1.2,1.7c-0.5,0.5-1.2,0.9-1.9,1.1
		c-0.7,0.3-1.4,0.4-2.1,0.4c-0.4,0-0.7,0-1.1-0.1c-0.1,0-0.2,0.1-0.3,0.1c-0.1,0-0.3,0-0.4-0.1c-0.1-0.1-0.1-0.2-0.1-0.3
		c0.1-1.5,0.3-2.9,0.6-4.4c0.3-1.5,0.6-2.9,1-4.4c0-0.1,0.1-0.2,0.2-0.3s0.2-0.2,0.3-0.2S71.9,5.1,72,5C72.1,5,72.2,5,72.3,5
		c0.1,0,0.2,0,0.3,0.1S72.7,5.3,72.7,5.4z M71.7,11.1C71.6,11.2,71.6,11.2,71.7,11.1l-0.4,2.6h0c0.1,0,0.2,0.1,0.3,0.1
		c0.1,0,0.2,0,0.4,0c0.5,0,0.9-0.1,1.4-0.3c0.4-0.2,0.8-0.4,1.2-0.7c0.3-0.3,0.6-0.7,0.8-1.1c0.2-0.4,0.2-0.9,0.1-1.4
		c-0.1-0.4-0.2-0.7-0.4-0.8c-0.2-0.2-0.4-0.2-0.6-0.2c-0.2,0-0.4,0.1-0.7,0.2c-0.2,0.1-0.5,0.3-0.7,0.4c-0.2,0.2-0.5,0.4-0.7,0.6
		C72,10.7,71.8,10.9,71.7,11.1z"/>
	<path d="M81.4,7.8c0.2,0,0.4,0,0.6,0.1c0.2,0.1,0.3,0.2,0.5,0.3c0.1,0.1,0.3,0.3,0.4,0.5S83,9,83.1,9.2c0.1,0.1,0.1,0.2,0.1,0.4
		c0,0.1-0.1,0.2-0.2,0.3c-0.1,0.1-0.2,0.2-0.4,0.2c-0.1,0.1-0.3,0.1-0.4,0.1c-0.2,0-0.3-0.1-0.4-0.2c-0.1-0.2-0.2-0.3-0.3-0.5
		c-0.1-0.2-0.2-0.2-0.4-0.2c-0.1,0-0.2,0.1-0.4,0.2c-0.1,0.1-0.3,0.3-0.4,0.5c-0.1,0.2-0.2,0.4-0.3,0.6c-0.1,0.2-0.1,0.3-0.2,0.4
		c-0.2,0.5-0.4,1.1-0.5,1.6c-0.1,0.5-0.2,1.1-0.4,1.6c0,0.1-0.1,0.2-0.2,0.3c-0.1,0.1-0.2,0.2-0.3,0.2s-0.2,0.1-0.3,0.2
		C78.1,15,78,15,77.9,15c-0.1,0-0.2,0-0.3-0.1c-0.1-0.1-0.1-0.2-0.1-0.4c0.1-1,0.3-2.1,0.4-3.1c0.2-1,0.3-2,0.5-3.1
		c0-0.1,0.1-0.2,0.1-0.3c0.1-0.1,0.2-0.2,0.3-0.2c0.1-0.1,0.2-0.1,0.3-0.1c0.1,0,0.2-0.1,0.3-0.1c0.1,0,0.3,0,0.3,0.1
		c0.1,0.1,0.1,0.2,0.1,0.4l-0.1,0.6c0.2-0.2,0.5-0.4,0.7-0.6C80.8,8,81.1,7.9,81.4,7.8z"/>
	<path d="M89.4,13c-0.2,0.3-0.5,0.6-0.8,0.8c-0.3,0.2-0.6,0.5-1,0.7c-0.3,0.2-0.7,0.3-1,0.4s-0.7,0.1-1,0.1c-0.4,0-0.8-0.1-1.1-0.2
		c-0.3-0.2-0.6-0.4-0.9-0.8c-0.3-0.4-0.4-0.9-0.4-1.5c0-0.6,0.1-1.1,0.3-1.7c0.2-0.6,0.5-1.1,0.9-1.6c0.4-0.5,0.9-0.9,1.5-1.1
		c0,0,0.1,0,0.1,0c0,0,0.1,0,0.1,0c0.3-0.1,0.6-0.2,1-0.3c0.3-0.1,0.7-0.1,1,0c0.6,0.1,1.1,0.3,1.4,0.7s0.6,0.8,0.7,1.3
		c0.1,0.5,0.1,1.1,0,1.6C90,11.9,89.7,12.5,89.4,13z M87.4,8.9c-0.3-0.1-0.6,0-0.8,0c-0.3,0.1-0.5,0.2-0.7,0.4
		c-0.2,0.2-0.4,0.4-0.6,0.7s-0.3,0.5-0.4,0.8l0,0c-0.1,0.4-0.2,0.9-0.1,1.3c0,0.4,0.1,0.8,0.3,1c0.1,0.2,0.3,0.4,0.5,0.5
		c0.2,0.1,0.4,0.2,0.6,0.2c0.2,0,0.5,0,0.7-0.1s0.5-0.2,0.7-0.4c0.2-0.2,0.4-0.3,0.6-0.5c0.2-0.2,0.3-0.4,0.4-0.7
		c0.1-0.3,0.2-0.6,0.3-1c0-0.3,0-0.6-0.1-0.9s-0.2-0.5-0.4-0.8C88,9.2,87.7,9,87.4,8.9z"/>
	<path d="M97.8,14.7c-0.2,0.1-0.4,0.1-0.6,0.1c-0.5,0-0.9-0.1-1.2-0.4c-0.3-0.3-0.5-0.7-0.7-1.1c-0.2,0.3-0.4,0.5-0.6,0.8
		s-0.4,0.5-0.7,0.6c-0.2,0.2-0.5,0.3-0.8,0.4c-0.3,0.1-0.6,0.1-0.9,0c-0.4-0.1-0.7-0.2-0.9-0.5c-0.2-0.3-0.4-0.6-0.4-1
		s-0.1-0.8,0-1.3c0-0.5,0.1-1,0.2-1.4c0.1-0.5,0.2-0.9,0.4-1.4c0.1-0.4,0.3-0.8,0.4-1.1c0.1-0.2,0.2-0.3,0.4-0.4
		c0.2-0.1,0.4-0.1,0.6-0.1c0.2,0,0.3,0,0.4,0.1s0.1,0.3,0,0.5c-0.1,0.4-0.3,0.8-0.4,1.2c-0.1,0.4-0.2,0.9-0.3,1.3
		c-0.1,0.4-0.1,0.9-0.1,1.3c0,0.4,0,0.8,0.1,1.1c0,0.2,0.1,0.3,0.2,0.4c0.1,0.1,0.2,0.1,0.2,0.1c0.1,0,0.2-0.1,0.4-0.2
		c0.1-0.1,0.3-0.3,0.4-0.4c0.1-0.2,0.2-0.3,0.3-0.5c0.1-0.2,0.2-0.3,0.2-0.5c0.1-0.3,0.3-0.6,0.4-1c0.1-0.3,0.2-0.6,0.3-1
		c0-0.1,0-0.2,0.1-0.3s0-0.2,0.1-0.3c0-0.1,0.1-0.2,0.2-0.3C95.6,9.1,95.7,9,95.8,9s0.2-0.1,0.3-0.2c0.1,0,0.2-0.1,0.3-0.1
		c0.1,0,0.2,0,0.3,0.1s0.1,0.2,0.1,0.4c0,0.1,0,0.2-0.1,0.3c0,0.1-0.1,0.2-0.1,0.4c-0.1,0.3-0.1,0.6-0.1,0.9c0,0.3,0,0.6,0.1,0.9
		c0,0.2,0.1,0.4,0.1,0.6s0.1,0.4,0.2,0.5c0.1,0.1,0.2,0.2,0.3,0.3s0.3,0.1,0.5,0.1s0.3-0.1,0.4-0.2c0.1-0.1,0.2-0.3,0.3-0.5
		c0.1-0.2,0.1-0.4,0.2-0.6c0-0.2,0.1-0.4,0.1-0.7c0-0.2,0.1-0.4,0.1-0.6c0.1-0.4,0.1-0.8,0.2-1.2c0-0.4,0.1-0.8,0.1-1.2
		c0-0.1,0-0.2,0.1-0.3c0.1-0.1,0.1-0.2,0.2-0.2c0.1-0.1,0.2-0.1,0.3-0.2c0.1,0,0.2-0.1,0.3-0.1c0.1,0,0.3,0,0.4,0.1
		c0.1,0.1,0.1,0.2,0.1,0.4c0,0.3,0,0.7-0.1,1.1s-0.1,0.8-0.2,1.3c-0.1,0.5-0.2,0.9-0.3,1.4c-0.1,0.5-0.3,0.9-0.5,1.3
		c-0.2,0.4-0.5,0.7-0.8,1C98.7,14.4,98.3,14.6,97.8,14.7z"/>
	<path d="M106.8,7.4c0.4,0,0.7,0.1,0.9,0.3s0.3,0.4,0.4,0.7c0.1,0.3,0.1,0.6,0.1,0.9c0,0.3,0,0.6,0,0.9c-0.1,1.4-0.3,2.9-0.7,4.3
		c0,0.2-0.2,0.3-0.4,0.5c-0.2,0.1-0.4,0.2-0.6,0.2c-0.1,0-0.3,0-0.4-0.1c-0.1-0.1-0.1-0.2-0.1-0.4c0.2-0.9,0.4-1.7,0.5-2.5
		c0.1-0.8,0.2-1.6,0.2-2.5c0-0.3-0.1-0.6-0.2-0.7c-0.1-0.1-0.2-0.2-0.4-0.2c-0.2,0-0.4,0.1-0.6,0.2c-0.2,0.1-0.4,0.3-0.6,0.5
		c-0.2,0.2-0.4,0.4-0.6,0.7c-0.2,0.2-0.3,0.4-0.4,0.6c-0.2,0.6-0.4,1.1-0.6,1.7c-0.1,0.6-0.3,1.1-0.4,1.7c0,0.1-0.1,0.2-0.1,0.3
		s-0.2,0.2-0.3,0.2c-0.1,0.1-0.2,0.1-0.3,0.2s-0.2,0.1-0.3,0.1c-0.1,0-0.3,0-0.4-0.1c-0.1-0.1-0.1-0.2-0.1-0.4
		c0.2-1.1,0.4-2.2,0.6-3.2c0.2-1.1,0.5-2.1,0.8-3.2c0.1-0.2,0.2-0.4,0.4-0.5c0.2-0.1,0.5-0.2,0.7-0.2c0.1,0,0.2,0,0.3,0.1
		c0.1,0.1,0.1,0.2,0,0.3c0,0.1-0.1,0.3-0.1,0.4c0,0.1-0.1,0.3-0.1,0.4c0.4-0.3,0.8-0.6,1.3-0.8S106.4,7.3,106.8,7.4z"/>
	<path d="M114.1,12c-0.2,0-0.4,0-0.5-0.1s-0.1-0.2-0.1-0.4c0-0.2,0.1-0.3,0.2-0.4c0.1-0.1,0.3-0.2,0.5-0.3c0,0,0.1,0,0.2,0
		c0-0.5,0-0.9,0.1-1.4c0.1-0.5,0.1-0.9,0.3-1.4s0.3-0.9,0.5-1.3c0.2-0.4,0.5-0.8,0.8-1.2c0.2-0.2,0.4-0.4,0.6-0.6s0.5-0.4,0.8-0.5
		c0.3-0.1,0.5-0.3,0.8-0.3c0.3-0.1,0.5-0.1,0.8-0.1c0.3,0,0.6,0.1,0.8,0.2c0.2,0.2,0.4,0.4,0.5,0.6c0.1,0.2,0.2,0.5,0.3,0.8
		c0.1,0.3,0.1,0.5,0.2,0.8c0,0.1,0,0.2,0,0.3c-0.1,0.1-0.1,0.2-0.2,0.3s-0.2,0.1-0.4,0.2c-0.1,0.1-0.3,0.1-0.4,0.1
		c-0.1,0-0.2,0-0.3-0.1c-0.1,0-0.1-0.1-0.2-0.2c-0.1-0.2-0.2-0.4-0.2-0.7c-0.1-0.2-0.1-0.4-0.2-0.6c-0.1-0.3-0.3-0.4-0.5-0.4
		c-0.1,0-0.3,0-0.4,0.1s-0.3,0.2-0.5,0.4c-0.3,0.3-0.5,0.6-0.7,1s-0.4,0.8-0.5,1.3c-0.1,0.4-0.2,0.9-0.3,1.3
		c-0.1,0.5-0.1,0.9-0.1,1.3c0.6-0.1,1.1-0.1,1.7-0.2c0.5-0.1,1.1-0.1,1.6,0c0.2,0,0.3,0.1,0.4,0.2c0.1,0.1,0.1,0.2,0,0.4
		c-0.1,0.1-0.1,0.3-0.3,0.4c-0.1,0.1-0.3,0.2-0.5,0.2c-0.5,0.1-1,0.1-1.5,0.1c-0.5,0-1,0.1-1.4,0.1c0,0.3,0,0.6,0.1,0.9
		c0,0.3,0.1,0.6,0.1,0.8c0,0,0,0,0,0.1c0,0,0,0,0,0.1c0,0.1,0,0.2,0,0.2s0,0.2,0,0.2c0,0.1,0,0.3-0.1,0.4c-0.1,0.1-0.2,0.2-0.3,0.3
		c-0.1,0.1-0.2,0.2-0.4,0.2c-0.1,0.1-0.2,0.1-0.4,0.1c-0.1,0-0.2,0-0.3-0.1c-0.1-0.1-0.1-0.1-0.1-0.3c-0.1-0.4-0.1-0.9-0.2-1.3
		c-0.1-0.5-0.1-0.9-0.1-1.4c-0.1,0-0.1,0-0.2,0C114.2,12,114.1,12,114.1,12z"/>
	<path d="M126.6,13c-0.2,0.3-0.5,0.6-0.8,0.8c-0.3,0.2-0.6,0.5-1,0.7c-0.3,0.2-0.7,0.3-1,0.4s-0.7,0.1-1,0.1c-0.4,0-0.8-0.1-1.1-0.2
		c-0.3-0.2-0.6-0.4-0.9-0.8c-0.3-0.4-0.4-0.9-0.4-1.5c0-0.6,0.1-1.1,0.3-1.7c0.2-0.6,0.5-1.1,0.9-1.6c0.4-0.5,0.9-0.9,1.5-1.1
		c0,0,0.1,0,0.1,0c0,0,0.1,0,0.1,0c0.3-0.1,0.6-0.2,1-0.3c0.3-0.1,0.7-0.1,1,0c0.6,0.1,1.1,0.3,1.4,0.7s0.6,0.8,0.7,1.3
		c0.1,0.5,0.1,1.1,0,1.6C127.3,11.9,127,12.5,126.6,13z M124.7,8.9c-0.3-0.1-0.6,0-0.8,0c-0.3,0.1-0.5,0.2-0.7,0.4
		c-0.2,0.2-0.4,0.4-0.6,0.7s-0.3,0.5-0.4,0.8l0,0c-0.1,0.4-0.2,0.9-0.1,1.3c0,0.4,0.1,0.8,0.3,1c0.1,0.2,0.3,0.4,0.5,0.5
		c0.2,0.1,0.4,0.2,0.6,0.2c0.2,0,0.5,0,0.7-0.1s0.5-0.2,0.7-0.4c0.2-0.2,0.4-0.3,0.6-0.5c0.2-0.2,0.3-0.4,0.4-0.7
		c0.1-0.3,0.2-0.6,0.3-1c0-0.3,0-0.6-0.1-0.9s-0.2-0.5-0.4-0.8C125.3,9.2,125,9,124.7,8.9z"/>
	<path d="M135.2,8.4c-0.5,0.5-1,0.9-1.4,1.4s-0.9,1-1.4,1.4c0.2,0.4,0.4,0.9,0.6,1.3c0.2,0.4,0.4,0.8,0.7,1.2
		c0.1,0.1,0.1,0.1,0.1,0.2c0,0,0,0.1,0,0.1c0,0,0,0.1,0,0.1c0,0.1,0,0.2,0,0.3c-0.1,0.1-0.1,0.2-0.2,0.3c-0.1,0.1-0.2,0.2-0.4,0.2
		c-0.1,0.1-0.3,0.1-0.4,0.1c-0.2,0-0.3-0.1-0.4-0.2c-0.2-0.4-0.5-0.7-0.7-1.1c-0.2-0.4-0.4-0.8-0.6-1.2c-0.3,0.3-0.6,0.7-0.9,1
		c-0.3,0.3-0.6,0.7-0.9,1c-0.1,0.1-0.3,0.2-0.4,0.3c-0.2,0.1-0.3,0.1-0.5,0.1c-0.2,0-0.4-0.1-0.5-0.2c-0.1-0.1-0.1-0.3,0.1-0.6
		c0.4-0.5,0.8-1,1.3-1.5c0.4-0.5,0.9-1,1.3-1.4c-0.2-0.5-0.4-0.9-0.6-1.4s-0.4-0.9-0.6-1.4c-0.1-0.1-0.1-0.3,0-0.4
		c0-0.1,0.1-0.2,0.2-0.3c0.1-0.1,0.2-0.2,0.4-0.2s0.3-0.1,0.4-0.1c0.2,0,0.3,0.1,0.4,0.2c0.2,0.4,0.3,0.8,0.5,1.1
		c0.2,0.4,0.3,0.8,0.5,1.2c0.4-0.4,0.8-0.8,1.2-1.1c0.4-0.4,0.8-0.8,1.2-1.1c0.1-0.1,0.2-0.2,0.3-0.2c0.1,0,0.2-0.1,0.3-0.1
		c0.1,0,0.2,0,0.3,0.1c0.1,0,0.2,0.1,0.2,0.2c0,0.1,0,0.2,0,0.3C135.4,8.1,135.4,8.2,135.2,8.4z"/>
	<path d="M142.8,16.8c-0.3,0.6-0.6,1-1.1,1.2c-0.4,0.2-0.9,0.4-1.3,0.4c-0.5,0-1-0.1-1.4-0.4c-0.4-0.3-0.7-0.7-0.9-1.2
		c0-0.1,0-0.2,0-0.3c0.1-0.1,0.1-0.2,0.3-0.3c0.1-0.1,0.2-0.2,0.4-0.2c0.1-0.1,0.3-0.1,0.4-0.1c0.2,0,0.3,0.1,0.4,0.2
		c0,0.1,0.1,0.2,0.2,0.3c0.1,0.1,0.2,0.2,0.3,0.3s0.2,0.2,0.4,0.3c0.1,0.1,0.2,0.1,0.4,0.1c0.1,0,0.3-0.1,0.4-0.2
		c0.1-0.1,0.2-0.3,0.3-0.6c0.1-0.4,0.2-0.8,0.2-1.2c0-0.4,0.1-0.8,0.1-1.2c0.1-0.9,0.2-1.7,0.3-2.6c0.1-0.9,0.1-1.7,0.2-2.6
		c0-0.2,0.1-0.4,0.3-0.5C143,8,143.3,8,143.5,8c0.1,0,0.3,0,0.4,0.1c0.1,0.1,0.1,0.2,0.1,0.3c0,0.8-0.1,1.5-0.1,2.3
		c-0.1,0.8-0.1,1.5-0.2,2.3c0,0.3-0.1,0.6-0.1,0.9c0,0.3-0.1,0.7-0.1,1c-0.1,0.3-0.1,0.7-0.2,1C143.1,16.2,143,16.5,142.8,16.8z
		 M142.8,6.8c-0.1,0-0.1-0.1-0.1-0.1c0-0.1,0-0.1,0-0.2c0,0,0,0,0-0.1s0,0,0-0.1c0-0.1,0.1-0.2,0.1-0.2c0-0.1,0.1-0.1,0.2-0.2
		c0.1-0.1,0.2-0.2,0.3-0.2c0,0,0.1,0,0.1,0c0,0,0.1,0,0.1,0c0.1,0,0.2,0,0.3,0c0.1,0,0.1,0,0.2,0.1c0,0,0.1,0.1,0.1,0.1
		c0,0.1,0,0.1,0,0.2c0,0,0,0,0,0.1s0,0,0,0.1c0,0.1-0.1,0.2-0.1,0.3l-0.1,0.1c-0.1,0.1-0.2,0.2-0.3,0.2c-0.1,0-0.1,0-0.2,0.1
		c-0.1,0-0.2,0-0.3,0C142.9,6.9,142.9,6.9,142.8,6.8z"/>
	<path d="M149.5,12.7c-0.2,0.3-0.3,0.5-0.5,0.8c-0.2,0.3-0.4,0.5-0.6,0.8c-0.2,0.2-0.5,0.4-0.7,0.6c-0.3,0.1-0.6,0.2-0.9,0.2
		c-0.5,0-0.9-0.1-1.2-0.4c-0.3-0.2-0.5-0.6-0.6-1c-0.1-0.4-0.2-0.8-0.2-1.3c0-0.5,0.1-1,0.1-1.5c0.1-0.5,0.2-1,0.4-1.4
		c0.1-0.5,0.3-0.9,0.4-1.2c0.1-0.2,0.2-0.3,0.4-0.4c0.2-0.1,0.4-0.1,0.6-0.1c0.2,0,0.3,0.1,0.4,0.1c0.1,0.1,0.1,0.3,0,0.5
		c-0.3,0.6-0.5,1.1-0.6,1.6s-0.2,1.1-0.2,1.6c0,0.1,0,0.3,0,0.5c0,0.2,0,0.4,0.1,0.7c0.1,0.2,0.1,0.4,0.2,0.6s0.2,0.2,0.4,0.2
		c0.1,0,0.3-0.1,0.4-0.2c0.1-0.1,0.3-0.3,0.5-0.5c0.2-0.2,0.3-0.5,0.5-0.8c0.2-0.3,0.3-0.7,0.5-1c0.2-0.4,0.3-0.7,0.4-1.1
		c0.1-0.3,0.3-0.7,0.4-1c0.1-0.3,0.2-0.5,0.3-0.7c0.1-0.2,0.2-0.3,0.4-0.4c0.2-0.1,0.4-0.2,0.6-0.2c0.1,0,0.3,0,0.4,0.1
		c0.1,0.1,0.1,0.2,0.1,0.4c-0.1,0.5-0.1,1-0.2,1.6s-0.1,1-0.2,1.5c0,0.5,0,1,0,1.5s0.2,1,0.3,1.4c0,0.1,0,0.2,0,0.3
		c-0.1,0.1-0.1,0.2-0.2,0.3c-0.1,0.1-0.2,0.2-0.4,0.2c-0.1,0-0.3,0.1-0.4,0.1c-0.2,0-0.3-0.1-0.4-0.2c-0.2-0.3-0.3-0.7-0.4-1
		C149.6,13.5,149.5,13.1,149.5,12.7z"/>
	<path d="M160.2,9.4C160.1,9.2,160.1,9,160,9c-0.1-0.1-0.2-0.1-0.3-0.1c-0.1,0-0.3,0.1-0.4,0.2c-0.1,0.1-0.3,0.3-0.4,0.5
		c-0.1,0.2-0.3,0.5-0.4,0.7s-0.2,0.5-0.3,0.8c-0.1,0.3-0.2,0.5-0.2,0.7c-0.1,0.2-0.1,0.4-0.1,0.5c0,0.1-0.1,0.2-0.1,0.3
		c-0.1,0.1-0.2,0.2-0.3,0.2c-0.1,0.1-0.2,0.1-0.3,0.2c-0.1,0-0.2,0.1-0.3,0.1c-0.1,0-0.3,0-0.4-0.1c-0.1-0.1-0.1-0.2-0.1-0.4
		c0-0.4,0-0.8,0-1.2c0-0.4,0-0.8-0.1-1.2c0-0.2-0.1-0.4-0.1-0.6s-0.1-0.3-0.3-0.4c-0.1,0-0.1-0.1-0.2-0.1c0,0-0.1,0-0.1,0
		c-0.1,0-0.1,0-0.1,0.1c0,0.1-0.1,0.2-0.2,0.4c-0.2,0.4-0.4,0.9-0.5,1.3c-0.1,0.4-0.2,0.9-0.2,1.3l0,1c0,0.1,0,0.3,0,0.5
		c0,0.1,0,0.3,0.1,0.4c0,0.1,0,0.2-0.1,0.3c-0.1,0.1-0.1,0.2-0.2,0.3c-0.1,0.1-0.2,0.2-0.4,0.3c-0.2,0.1-0.3,0.1-0.4,0.1
		s-0.3,0-0.4-0.1c-0.1-0.1-0.2-0.2-0.2-0.4c0-0.9,0-1.9-0.1-2.8c0-0.9,0-1.9-0.1-2.8c0-0.1,0-0.2,0.1-0.3c0.1-0.1,0.1-0.2,0.2-0.2
		s0.2-0.1,0.3-0.2c0.1,0,0.2-0.1,0.3-0.1s0.2,0,0.3,0.1c0.1,0,0.2,0.1,0.2,0.2c0.1-0.1,0.2-0.2,0.4-0.4c0.1-0.1,0.3-0.2,0.5-0.3
		c0.2-0.1,0.3-0.2,0.5-0.2c0.2-0.1,0.4-0.1,0.5-0.1c0.4,0,0.7,0.2,0.9,0.5s0.4,0.7,0.5,1.1c0.2-0.3,0.4-0.5,0.6-0.7
		c0.2-0.2,0.4-0.4,0.7-0.6c0.2-0.1,0.5-0.3,0.8-0.3s0.6-0.1,0.9,0c0.4,0.1,0.8,0.3,1,0.5c0.2,0.3,0.4,0.6,0.5,1
		c0.1,0.4,0.1,0.8,0.1,1.3c0,0.5-0.1,0.9-0.2,1.4c-0.1,0.5-0.2,0.9-0.3,1.3c-0.1,0.4-0.2,0.8-0.4,1.1c-0.1,0.2-0.2,0.4-0.4,0.5
		c-0.2,0.1-0.4,0.1-0.6,0.1c-0.2,0-0.3,0-0.4-0.1c-0.1-0.1-0.1-0.3,0-0.5c0.1-0.4,0.3-0.8,0.4-1.2c0.1-0.4,0.2-0.8,0.3-1.2
		c0.1-0.4,0.1-0.8,0.1-1.2C160.4,10.2,160.3,9.8,160.2,9.4z"/>
	<path d="M163.8,9.2c0-0.1,0.1-0.3,0.2-0.4s0.2-0.2,0.4-0.3s0.3-0.1,0.4-0.1c0.1,0,0.3,0,0.4,0c0.4-0.2,0.7-0.4,1.1-0.5
		c0.4-0.1,0.7-0.2,1.1-0.2c0.1,0,0.2,0,0.3,0c0.1,0,0.2,0,0.3,0c0.3,0.1,0.7,0.2,0.9,0.4c0.3,0.2,0.5,0.4,0.7,0.7s0.3,0.6,0.4,0.9
		c0.1,0.3,0,0.7,0,1.1c-0.1,0.5-0.3,0.9-0.6,1.4c-0.3,0.5-0.6,0.9-1,1.2c-0.4,0.4-0.8,0.7-1.3,0.9c-0.5,0.2-1,0.3-1.4,0.3
		c-0.3,0-0.7-0.1-1-0.2c-0.1,0.6-0.1,1.1-0.2,1.7c-0.1,0.6-0.1,1.1-0.2,1.7c0,0.1,0,0.2-0.1,0.3c-0.1,0.1-0.1,0.2-0.2,0.2
		c-0.1,0.1-0.2,0.1-0.3,0.2s-0.2,0.1-0.3,0.1c-0.2,0-0.3,0-0.4-0.1c-0.1-0.1-0.1-0.2-0.1-0.4c0.1-1.5,0.3-3,0.5-4.5
		C163.3,12.2,163.5,10.7,163.8,9.2z M168.2,11.7c0.1-0.3,0.2-0.7,0.2-1c0-0.3-0.1-0.6-0.3-0.8c-0.1-0.2-0.4-0.4-0.6-0.6
		c-0.3-0.1-0.5-0.2-0.8-0.2c-0.3,0-0.5,0.1-0.8,0.2c-0.3,0.1-0.5,0.3-0.8,0.6c-0.1,0.5-0.2,1.1-0.2,1.6c-0.1,0.5-0.1,1.1-0.2,1.6
		c0.2,0.1,0.4,0.2,0.6,0.3c0.2,0.1,0.4,0.1,0.6,0.1c0.2,0,0.5-0.1,0.7-0.2c0.2-0.1,0.4-0.3,0.7-0.4c0.2-0.2,0.4-0.4,0.5-0.6
		C168,12.1,168.1,11.9,168.2,11.7z"/>
	<path d="M175.5,9.5c0-0.2-0.1-0.4-0.3-0.4c-0.1-0.1-0.3-0.1-0.5-0.1c-0.2,0-0.4,0-0.7,0.1s-0.4,0.2-0.6,0.3
		c-0.2,0.1-0.3,0.2-0.5,0.4c-0.1,0.1-0.1,0.3-0.1,0.4c0,0.1,0.1,0.2,0.3,0.2c0.2,0.1,0.4,0.1,0.6,0.2c0.2,0.1,0.5,0.1,0.7,0.1
		s0.4,0.1,0.5,0.1c0.2,0.1,0.5,0.2,0.8,0.4s0.5,0.3,0.7,0.5c0.2,0.2,0.3,0.4,0.4,0.7c0.1,0.3,0.1,0.6,0,0.9
		c-0.1,0.3-0.3,0.6-0.5,0.8s-0.5,0.4-0.7,0.6c-0.3,0.1-0.6,0.3-0.9,0.3c-0.3,0.1-0.6,0.1-1,0.1c-0.3,0-0.6,0-0.9-0.1
		c-0.3-0.1-0.6-0.1-0.8-0.2c-0.2-0.1-0.5-0.2-0.7-0.4s-0.3-0.3-0.4-0.5c-0.1-0.1-0.1-0.3,0-0.4c0-0.1,0.1-0.2,0.2-0.3
		s0.2-0.2,0.4-0.3c0.1-0.1,0.3-0.1,0.4-0.1c0.2,0,0.3,0.1,0.4,0.2c0.1,0.2,0.3,0.4,0.5,0.5s0.5,0.2,0.8,0.2c0.1,0,0.3,0,0.5,0
		c0.2,0,0.4,0,0.6-0.1c0.2-0.1,0.3-0.2,0.4-0.3c0.1-0.1,0.1-0.4,0.1-0.6c0-0.2-0.1-0.3-0.3-0.5s-0.4-0.2-0.6-0.3
		c-0.2-0.1-0.5-0.2-0.7-0.2c-0.2-0.1-0.4-0.1-0.6-0.2c-0.2-0.1-0.4-0.1-0.7-0.2c-0.3-0.1-0.5-0.2-0.7-0.3c-0.2-0.1-0.3-0.3-0.4-0.5
		c-0.1-0.2,0-0.5,0.2-0.8c0.1-0.3,0.4-0.5,0.7-0.8s0.6-0.5,1-0.7c0.4-0.2,0.7-0.3,1.1-0.5s0.8-0.2,1.1-0.2c0.4,0,0.8,0.1,1.1,0.3
		c0.3,0.2,0.5,0.5,0.5,1c0,0.1,0,0.2-0.1,0.3s-0.1,0.2-0.2,0.3s-0.2,0.1-0.3,0.2s-0.2,0.1-0.4,0.1s-0.2,0-0.3-0.1
		C175.6,9.6,175.5,9.6,175.5,9.5z"/>
	<path d="M188.2,13c-0.2,0.3-0.5,0.6-0.8,0.8s-0.6,0.5-1,0.7c-0.3,0.2-0.7,0.3-1,0.4s-0.7,0.1-1,0.1c-0.4,0-0.8-0.1-1.1-0.2
		c-0.3-0.2-0.6-0.4-0.9-0.8c-0.3-0.4-0.4-0.9-0.4-1.5c0-0.6,0.1-1.1,0.3-1.7c0.2-0.6,0.5-1.1,0.9-1.6c0.4-0.5,0.9-0.9,1.5-1.1
		c0,0,0.1,0,0.1,0c0,0,0.1,0,0.1,0c0.3-0.1,0.6-0.2,1-0.3c0.3-0.1,0.7-0.1,1,0c0.6,0.1,1.1,0.3,1.4,0.7c0.4,0.4,0.6,0.8,0.7,1.3
		c0.1,0.5,0.1,1.1,0,1.6C188.8,11.9,188.6,12.5,188.2,13z M186.2,8.9c-0.3-0.1-0.6,0-0.8,0c-0.3,0.1-0.5,0.2-0.7,0.4
		c-0.2,0.2-0.4,0.4-0.6,0.7s-0.3,0.5-0.4,0.8l0,0c-0.1,0.4-0.2,0.9-0.1,1.3c0,0.4,0.1,0.8,0.3,1c0.1,0.2,0.3,0.4,0.5,0.5
		c0.2,0.1,0.4,0.2,0.6,0.2c0.2,0,0.5,0,0.7-0.1s0.5-0.2,0.7-0.4c0.2-0.2,0.4-0.3,0.6-0.5c0.2-0.2,0.3-0.4,0.4-0.7
		c0.1-0.3,0.2-0.6,0.3-1c0-0.3,0-0.6-0.1-0.9s-0.2-0.5-0.4-0.8C186.8,9.2,186.5,9,186.2,8.9z"/>
	<path d="M190.9,12.6c-0.1-0.6-0.2-1.3-0.3-1.9s-0.2-1.3-0.3-1.9c0-0.1,0-0.2,0.1-0.3c0.1-0.1,0.1-0.2,0.3-0.3
		c0.1-0.1,0.2-0.1,0.4-0.2s0.3-0.1,0.4-0.1c0.2,0,0.4,0.1,0.5,0.3c0.1,0.5,0.2,1,0.3,1.5c0.1,0.5,0.2,1,0.3,1.5
		c0,0.2,0.1,0.5,0.2,0.8c0.1,0.3,0.1,0.6,0.2,1c0.5-0.8,1-1.6,1.5-2.4c0.5-0.8,1-1.6,1.6-2.3c0.1-0.1,0.2-0.2,0.4-0.3
		c0.2-0.1,0.3-0.1,0.5-0.1c0.1,0,0.2,0,0.3,0s0.1,0.1,0.2,0.1s0.1,0.1,0.1,0.2c0,0.1-0.1,0.2-0.1,0.3c-0.6,1-1.3,2-1.9,2.9
		c-0.6,1-1.2,2-1.8,3c-0.1,0.2-0.3,0.3-0.4,0.4c-0.2,0.1-0.4,0.1-0.6,0.1c-0.1,0-0.2,0-0.3,0c-0.1,0-0.2-0.1-0.3-0.3
		c-0.1-0.2-0.2-0.4-0.3-0.6c-0.1-0.2-0.2-0.5-0.2-0.8C191,13.1,190.9,12.8,190.9,12.6z"/>
	<path d="M201.1,7.7c0.4,0,0.7,0.1,1,0.2c0.3,0.1,0.5,0.3,0.6,0.6c0.1,0.2,0.2,0.5,0.1,0.9c-0.1,0.3-0.3,0.7-0.6,1.1
		c-0.2,0.2-0.4,0.5-0.7,0.6c-0.3,0.2-0.6,0.4-0.9,0.5c-0.3,0.1-0.6,0.2-1,0.3s-0.7,0.1-1,0.1c-0.2,0-0.5,0-0.7-0.1
		c0,0.2-0.1,0.4-0.1,0.5c0,0.2,0,0.3,0,0.5c0.1,0.3,0.2,0.5,0.3,0.6s0.4,0.2,0.6,0.2c0.2,0,0.4,0,0.6-0.1c0.2,0,0.5-0.1,0.7-0.2
		s0.4-0.2,0.6-0.3c0.2-0.1,0.3-0.3,0.4-0.4c0.1-0.1,0.2-0.2,0.4-0.3c0.1-0.1,0.3-0.1,0.4-0.1c0.2,0,0.4,0.1,0.5,0.2
		c0.1,0.1,0.1,0.3-0.1,0.6c-0.2,0.3-0.4,0.6-0.7,0.8c-0.3,0.2-0.6,0.4-1,0.6c-0.4,0.2-0.7,0.3-1.1,0.4c-0.4,0.1-0.7,0.1-1.1,0.1
		c-0.5,0-0.9-0.1-1.3-0.3c-0.4-0.2-0.6-0.5-0.8-0.9c-0.2-0.4-0.2-0.8-0.1-1.2c0.1-0.5,0.2-0.9,0.4-1.4c-0.1-0.1-0.1-0.3,0-0.4
		c0.1-0.1,0.2-0.3,0.4-0.4c0.2-0.3,0.5-0.7,0.7-1s0.6-0.6,0.9-0.9c0.3-0.3,0.7-0.5,1.1-0.7C200.3,7.8,200.7,7.7,201.1,7.7z
		 M201.1,10c0.2-0.3,0.2-0.6,0.1-0.8c-0.1-0.2-0.3-0.3-0.6-0.3c-0.2,0-0.4,0.1-0.6,0.2c-0.2,0.1-0.4,0.3-0.6,0.5
		c-0.2,0.2-0.4,0.4-0.5,0.6c-0.2,0.2-0.3,0.4-0.4,0.6c0.2,0.1,0.5,0.1,0.7,0.1c0.2,0,0.4,0,0.6,0c0.2,0,0.4-0.1,0.5-0.1
		c0.2-0.1,0.3-0.1,0.5-0.2C200.9,10.3,201,10.2,201.1,10z"/>
	<path d="M207.6,7.8c0.2,0,0.4,0,0.6,0.1s0.3,0.2,0.5,0.3c0.1,0.1,0.3,0.3,0.4,0.5c0.1,0.2,0.2,0.3,0.3,0.5c0.1,0.1,0.1,0.2,0.1,0.4
		s-0.1,0.2-0.2,0.3c-0.1,0.1-0.2,0.2-0.4,0.2c-0.1,0.1-0.3,0.1-0.4,0.1c-0.2,0-0.3-0.1-0.4-0.2c-0.1-0.2-0.2-0.3-0.3-0.5
		c-0.1-0.2-0.2-0.2-0.4-0.2c-0.1,0-0.2,0.1-0.4,0.2s-0.3,0.3-0.4,0.5c-0.1,0.2-0.2,0.4-0.3,0.6s-0.1,0.3-0.2,0.4
		c-0.2,0.5-0.4,1.1-0.5,1.6c-0.1,0.5-0.2,1.1-0.4,1.6c0,0.1-0.1,0.2-0.2,0.3c-0.1,0.1-0.2,0.2-0.3,0.2c-0.1,0.1-0.2,0.1-0.3,0.2
		c-0.1,0-0.2,0.1-0.3,0.1c-0.1,0-0.2,0-0.3-0.1c-0.1-0.1-0.1-0.2-0.1-0.4c0.1-1,0.3-2.1,0.5-3.1s0.3-2,0.5-3.1
		c0-0.1,0.1-0.2,0.1-0.3c0.1-0.1,0.2-0.2,0.3-0.2c0.1-0.1,0.2-0.1,0.3-0.1c0.1,0,0.2-0.1,0.3-0.1c0.1,0,0.3,0,0.3,0.1
		c0.1,0.1,0.1,0.2,0.1,0.4l-0.1,0.6c0.2-0.2,0.5-0.4,0.7-0.6C207.1,8,207.3,7.9,207.6,7.8z"/>
	<path d="M214.7,7.8c0.2,0,0.4,0,0.6,0s0.4,0,0.6,0c0.2-0.6,0.4-1.1,0.6-1.7c0.2-0.5,0.4-1.1,0.5-1.6c0.1-0.2,0.2-0.4,0.5-0.5
		c0.2-0.1,0.5-0.2,0.7-0.2c0.1,0,0.3,0,0.3,0.1s0.1,0.2,0.1,0.3c-0.2,0.6-0.4,1.2-0.5,1.8c-0.2,0.6-0.4,1.2-0.6,1.8c0.3,0,0.7,0,1,0
		s0.7,0,1,0c0.2,0,0.4,0.1,0.5,0.2c0,0.1,0,0.3-0.1,0.4c-0.1,0.2-0.2,0.3-0.4,0.4s-0.4,0.2-0.6,0.2c-0.3,0-0.6,0-0.9,0
		c-0.3,0-0.6,0-0.9,0c-0.1,0.5-0.3,1-0.4,1.4c-0.1,0.5-0.2,1-0.2,1.5c0,0.1,0,0.2,0,0.4c0,0.2,0,0.4,0.1,0.7s0.1,0.4,0.2,0.6
		c0.1,0.2,0.2,0.3,0.3,0.3c0.1,0,0.3-0.1,0.4-0.2c0.1-0.1,0.2-0.2,0.3-0.2s0.2-0.1,0.3-0.1c0.1,0,0.2,0,0.3,0.1
		c0.1,0,0.2,0.1,0.2,0.2s0,0.2,0,0.3c0,0.1-0.1,0.2-0.3,0.4c-0.3,0.3-0.6,0.5-0.9,0.6c-0.3,0.1-0.6,0.2-0.9,0.2
		c-0.5,0-0.9-0.2-1.2-0.5c-0.4-0.3-0.5-0.7-0.6-1.3c-0.1-0.7,0-1.4,0.1-2.1c0.1-0.7,0.3-1.5,0.6-2.2c-0.2,0-0.5,0-0.7,0
		c-0.2,0-0.5,0-0.7,0c-0.2,0-0.4,0-0.4-0.2s0-0.3,0.1-0.4s0.2-0.3,0.4-0.4C214.4,7.9,214.6,7.8,214.7,7.8z"/>
	<path d="M224.8,14.4c0-0.1,0.1-0.3,0.1-0.6s0.1-0.7,0.1-1.1s0.1-0.8,0.1-1.3c0-0.4,0-0.8-0.1-1.2c0-0.4-0.1-0.7-0.2-0.9
		c-0.1-0.2-0.3-0.4-0.5-0.4c-0.1,0-0.3,0.1-0.5,0.2c-0.2,0.1-0.3,0.3-0.5,0.5c-0.2,0.2-0.3,0.5-0.4,0.7c-0.1,0.3-0.2,0.5-0.4,0.8
		c-0.1,0.3-0.2,0.5-0.3,0.7c-0.2,0.4-0.3,0.8-0.5,1.2c-0.1,0.4-0.3,0.8-0.4,1.2c0,0.2-0.2,0.3-0.4,0.4c-0.2,0.1-0.4,0.2-0.6,0.2
		c-0.1,0-0.3,0-0.4-0.1s-0.1-0.2-0.1-0.4c0.3-1.6,0.7-3.3,1-4.9c0.3-1.6,0.7-3.2,1-4.9c0-0.1,0.1-0.2,0.2-0.3
		c0.1-0.1,0.2-0.2,0.3-0.2c0.1-0.1,0.2-0.1,0.3-0.2c0.1,0,0.2-0.1,0.3-0.1c0.1,0,0.3,0,0.3,0.1c0.1,0.1,0.1,0.2,0.1,0.4
		c-0.2,0.7-0.3,1.4-0.4,2.1c-0.1,0.7-0.3,1.4-0.4,2.1c0.3-0.3,0.5-0.5,0.9-0.7c0.3-0.2,0.7-0.3,1-0.4c0.5-0.1,0.9,0,1.2,0.2
		c0.3,0.2,0.5,0.5,0.7,0.9c0.2,0.4,0.3,0.8,0.3,1.3c0,0.5,0,1,0,1.5c0,0.5-0.1,1-0.2,1.4s-0.2,0.8-0.3,1.1c0,0.1-0.1,0.2-0.2,0.3
		c-0.1,0.1-0.2,0.2-0.3,0.2c-0.1,0.1-0.2,0.1-0.3,0.2c-0.1,0-0.2,0.1-0.3,0.1c-0.1,0-0.3,0-0.3-0.1
		C224.7,14.7,224.7,14.6,224.8,14.4z"/>
	<path d="M232.7,7.7c0.4,0,0.7,0.1,1,0.2c0.3,0.1,0.5,0.3,0.6,0.6c0.1,0.2,0.2,0.5,0.1,0.9c-0.1,0.3-0.3,0.7-0.6,1.1
		c-0.2,0.2-0.4,0.5-0.7,0.6c-0.3,0.2-0.6,0.4-0.9,0.5c-0.3,0.1-0.6,0.2-1,0.3s-0.7,0.1-1,0.1c-0.2,0-0.5,0-0.7-0.1
		c0,0.2-0.1,0.4-0.1,0.5c0,0.2,0,0.3,0,0.5c0.1,0.3,0.2,0.5,0.3,0.6s0.4,0.2,0.6,0.2c0.2,0,0.4,0,0.6-0.1c0.2,0,0.5-0.1,0.7-0.2
		s0.4-0.2,0.6-0.3c0.2-0.1,0.3-0.3,0.4-0.4c0.1-0.1,0.2-0.2,0.4-0.3c0.1-0.1,0.3-0.1,0.4-0.1c0.2,0,0.4,0.1,0.5,0.2
		c0.1,0.1,0.1,0.3-0.1,0.6c-0.2,0.3-0.4,0.6-0.7,0.8c-0.3,0.2-0.6,0.4-1,0.6c-0.4,0.2-0.7,0.3-1.1,0.4c-0.4,0.1-0.7,0.1-1.1,0.1
		c-0.5,0-0.9-0.1-1.3-0.3c-0.4-0.2-0.6-0.5-0.8-0.9c-0.2-0.4-0.2-0.8-0.1-1.2c0.1-0.5,0.2-0.9,0.4-1.4c-0.1-0.1-0.1-0.3,0-0.4
		c0.1-0.1,0.2-0.3,0.4-0.4c0.2-0.3,0.5-0.7,0.7-1s0.6-0.6,0.9-0.9c0.3-0.3,0.7-0.5,1.1-0.7C231.8,7.8,232.2,7.7,232.7,7.7z
		 M232.7,10c0.2-0.3,0.2-0.6,0.1-0.8c-0.1-0.2-0.3-0.3-0.6-0.3c-0.2,0-0.4,0.1-0.6,0.2c-0.2,0.1-0.4,0.3-0.6,0.5
		c-0.2,0.2-0.4,0.4-0.5,0.6c-0.2,0.2-0.3,0.4-0.4,0.6c0.2,0.1,0.5,0.1,0.7,0.1c0.2,0,0.4,0,0.6,0c0.2,0,0.4-0.1,0.5-0.1
		c0.2-0.1,0.3-0.1,0.5-0.2C232.5,10.3,232.6,10.2,232.7,10z"/>
	<path d="M241.3,4.3c0.1-0.2,0.2-0.3,0.4-0.4s0.4-0.2,0.6-0.2s0.3,0,0.4,0.1c0.1,0.1,0.1,0.3,0.1,0.5c-0.3,0.9-0.5,1.7-0.7,2.6
		c-0.2,0.9-0.4,1.7-0.5,2.6c0,0.2-0.1,0.4-0.1,0.7c-0.1,0.3-0.1,0.6-0.2,0.9s-0.1,0.7-0.1,1c0,0.3,0,0.6,0,0.9s0.1,0.5,0.2,0.7
		c0.1,0.2,0.3,0.3,0.5,0.4c0.2,0.1,0.3,0.1,0.3,0.3s-0.1,0.3-0.2,0.4s-0.3,0.3-0.5,0.4c-0.2,0.1-0.4,0.1-0.6,0.1
		c-0.5-0.1-0.8-0.3-1-0.6s-0.3-0.6-0.4-1c0-0.4,0-0.8,0-1.2c0.1-0.4,0.1-0.9,0.2-1.2c0.1-1.2,0.3-2.3,0.6-3.5
		C240.7,6.6,241,5.4,241.3,4.3z"/>
	<path d="M244.8,14.8c-0.2,0-0.5,0-0.7-0.1s-0.4-0.2-0.5-0.4c-0.1-0.2-0.2-0.4-0.3-0.6c-0.1-0.2-0.1-0.5-0.1-0.9
		c0-0.5,0.1-0.9,0.3-1.4c0.2-0.5,0.4-1,0.7-1.4s0.6-0.9,1-1.3c0.4-0.4,0.8-0.7,1.3-0.9c0.2-0.1,0.4-0.2,0.7-0.2
		c0.2,0,0.4-0.1,0.6-0.1c0.5,0,0.9,0.2,1.2,0.6s0.5,0.9,0.6,1.4c0,0.1,0,0.1,0,0.2c0.1,0,0.2,0.1,0.2,0.1c0.1,0.1,0.1,0.2,0.1,0.3
		c0,0.3,0,0.6,0,0.9c0,0.4,0,0.7,0.1,1.1c0,0.4,0.1,0.7,0.3,1c0.1,0.3,0.3,0.5,0.5,0.7c0.1,0.1,0.2,0.2,0.2,0.3s-0.1,0.3-0.2,0.4
		c-0.1,0.1-0.2,0.2-0.4,0.3c-0.2,0.1-0.3,0.1-0.5,0.1c-0.1,0-0.2,0-0.3-0.1c-0.3-0.2-0.6-0.5-0.7-0.8s-0.3-0.8-0.3-1.2
		c-0.2,0.2-0.5,0.5-0.7,0.7c-0.3,0.2-0.6,0.5-0.9,0.6s-0.7,0.3-1,0.5S245.2,14.8,244.8,14.8z M246.2,9.4c-0.4,0.4-0.7,0.8-0.9,1.4
		c-0.2,0.5-0.4,1-0.5,1.5c0,0.1,0,0.3,0,0.5c0,0.2,0,0.3,0,0.4c0,0.1,0.1,0.2,0.2,0.3c0.1,0.1,0.2,0.1,0.4,0.2c0.1,0,0.2,0,0.4-0.1
		c0.1-0.1,0.3-0.1,0.4-0.2c0.1-0.1,0.3-0.2,0.4-0.3c0.1-0.1,0.2-0.2,0.3-0.2c0.4-0.3,0.7-0.7,1-1.1s0.4-0.9,0.5-1.3c0,0,0-0.1,0-0.1
		c-0.1,0-0.2-0.1-0.3-0.3c-0.1-0.4-0.2-0.7-0.3-0.9c-0.1-0.3-0.3-0.4-0.6-0.4c-0.1,0-0.3,0-0.5,0.1C246.6,9,246.4,9.2,246.2,9.4z"/>
	<path d="M258.3,7.5c0.2,0,0.3,0.1,0.3,0.3c0,0.2,0,0.3-0.1,0.5c-0.7,0.9-1.4,1.8-2.2,2.7c-0.8,0.9-1.5,1.7-2.3,2.6c0.5,0,1,0,1.4,0
		c0.5,0,1,0.1,1.4,0.1c0.2,0,0.4,0.1,0.5,0.3c0,0.1,0,0.3,0,0.5c-0.1,0.2-0.2,0.3-0.4,0.4c-0.2,0.1-0.4,0.2-0.6,0.2
		c-0.4,0-0.8-0.1-1.1-0.1c-0.4,0-0.8,0-1.1,0c-0.3,0-0.5,0-0.8,0c-0.3,0-0.5,0-0.8,0.1c-0.1,0-0.2,0-0.4,0c-0.1,0-0.2-0.1-0.3-0.2
		c-0.1-0.1-0.1-0.2-0.1-0.3s0.1-0.2,0.2-0.4c0.8-0.9,1.6-1.8,2.4-2.7c0.8-0.9,1.6-1.8,2.3-2.8c-0.4,0-0.7,0-1.1,0
		c-0.4,0-0.7,0-1.1,0c-0.2,0-0.3,0-0.5,0c-0.2,0-0.3,0-0.5-0.1c-0.2-0.1-0.3-0.2-0.3-0.3s0.1-0.3,0.2-0.4c0.1-0.2,0.3-0.3,0.5-0.4
		s0.4-0.1,0.6-0.1c0.3,0.1,0.7,0.1,1,0.1c0.3,0,0.7,0,1,0c0.3,0,0.7,0,1,0c0.2,0,0.3,0,0.5,0C258,7.4,258.2,7.5,258.3,7.5z"/>
	<path d="M265.1,13c0,0.3-0.1,0.5-0.1,0.8c0,0.3-0.1,0.6-0.1,0.8s-0.1,0.5-0.2,0.8c-0.1,0.3-0.2,0.5-0.4,0.8
		c-0.4,0.7-0.9,1.2-1.5,1.5c-0.6,0.3-1.2,0.4-1.9,0.4c-0.6,0-1.2-0.1-1.8-0.4c-0.2-0.1-0.3-0.2-0.3-0.4c0-0.2,0.1-0.3,0.2-0.4
		c0.1-0.1,0.3-0.3,0.5-0.3c0.2-0.1,0.4-0.1,0.5,0c0.2,0.1,0.5,0.2,0.7,0.2c0.2,0.1,0.5,0.1,0.7,0.1c0.3,0,0.6-0.1,0.9-0.2
		c0.3-0.1,0.5-0.4,0.7-0.8c0.2-0.4,0.3-0.8,0.4-1.2c0-0.4,0.1-0.8,0.2-1.2c-0.3,0.4-0.7,0.7-1.1,0.9c-0.4,0.3-0.8,0.4-1.3,0.5
		c-0.5,0.1-0.9,0-1.2-0.2s-0.5-0.5-0.6-0.9c-0.1-0.4-0.2-0.8-0.2-1.3c0-0.5,0-1,0.1-1.5c0.1-0.5,0.2-1,0.3-1.4
		c0.1-0.5,0.2-0.8,0.3-1.1c0-0.1,0.1-0.2,0.2-0.3s0.2-0.2,0.3-0.2c0.1-0.1,0.2-0.1,0.3-0.1s0.2-0.1,0.3-0.1c0.1,0,0.3,0,0.3,0.1
		c0.1,0.1,0.1,0.2,0.1,0.3c-0.1,0.4-0.2,0.8-0.3,1.3s-0.2,0.8-0.2,1.3c0,0.2,0,0.4-0.1,0.6c0,0.2,0,0.5,0,0.8s0,0.5,0.1,0.7
		c0.1,0.2,0.1,0.4,0.3,0.5c0.2,0.1,0.3,0.2,0.5,0.2c0.2,0,0.4-0.1,0.6-0.3s0.4-0.5,0.6-0.8c0.2-0.3,0.4-0.7,0.6-1.1
		c0.2-0.4,0.3-0.8,0.5-1.1s0.2-0.7,0.3-1c0.1-0.3,0.1-0.5,0.2-0.6c0-0.1,0.1-0.2,0.2-0.3s0.2-0.2,0.3-0.2c0.1-0.1,0.2-0.1,0.3-0.2
		s0.2-0.1,0.3-0.1c0.1,0,0.2,0,0.3,0.1c0.1,0.1,0.1,0.2,0.1,0.4c-0.1,0.8-0.2,1.5-0.3,2.2C265.3,11.5,265.2,12.2,265.1,13z"/>
	<path d="M270.7,14.2c-0.3-0.2-0.4-0.5-0.5-0.8s-0.1-0.7-0.1-1.1c0-0.4,0.1-0.8,0.2-1.1c0.1-0.4,0.3-0.7,0.4-1
		c0.2-0.3,0.4-0.6,0.6-1c0.3-0.3,0.5-0.6,0.8-0.8c0.3-0.2,0.6-0.5,1-0.6c0.3-0.2,0.7-0.2,1.1-0.3c0.3,0,0.6,0,0.9,0.1
		c0.3,0.1,0.5,0.3,0.8,0.5c0.1-0.6,0.3-1.2,0.4-1.7c0.1-0.6,0.3-1.1,0.4-1.7c0-0.1,0.1-0.2,0.1-0.3s0.2-0.2,0.3-0.2
		c0.1-0.1,0.2-0.1,0.3-0.1c0.1,0,0.2-0.1,0.3-0.1c0.1,0,0.2,0,0.3,0.1s0.1,0.2,0.1,0.3c-0.4,1.7-0.7,3.3-1,5c-0.3,1.7-0.7,3.3-1.1,5
		c0,0.1-0.1,0.2-0.2,0.3c-0.1,0.1-0.2,0.2-0.3,0.2c-0.1,0.1-0.2,0.1-0.3,0.2c-0.1,0-0.2,0.1-0.3,0.1c-0.1,0-0.2,0-0.3-0.1
		c-0.1-0.1-0.1-0.2-0.1-0.4v0c-0.3,0.1-0.6,0.1-1,0.2c-0.3,0-0.7,0.1-1,0.1c-0.4,0-0.8,0-1.1-0.1C271.3,14.6,271,14.4,270.7,14.2z
		 M271.7,11.5c0,0.3-0.1,0.5-0.1,0.7c0,0.2,0,0.4,0.1,0.6s0.2,0.3,0.4,0.4c0.2,0.1,0.4,0.2,0.7,0.2c0.3,0,0.7,0,1,0s0.7-0.1,1-0.2
		c0.1-0.5,0.2-1.1,0.3-1.6c0.1-0.5,0.2-1.1,0.4-1.6c-0.1-0.4-0.3-0.7-0.6-0.9c-0.3-0.3-0.6-0.4-1-0.4c-0.3,0-0.6,0.1-0.8,0.3
		c-0.2,0.2-0.5,0.4-0.7,0.7c-0.2,0.3-0.3,0.6-0.5,0.9S271.8,11.2,271.7,11.5z"/>
	<path d="M283.9,13c-0.2,0.3-0.5,0.6-0.8,0.8s-0.6,0.5-1,0.7c-0.3,0.2-0.7,0.3-1,0.4c-0.4,0.1-0.7,0.1-1,0.1c-0.4,0-0.8-0.1-1.1-0.2
		c-0.3-0.2-0.6-0.4-0.9-0.8c-0.3-0.4-0.4-0.9-0.4-1.5c0-0.6,0.1-1.1,0.3-1.7c0.2-0.6,0.5-1.1,0.9-1.6c0.4-0.5,0.9-0.9,1.5-1.1
		c0,0,0.1,0,0.1,0s0.1,0,0.1,0c0.3-0.1,0.6-0.2,1-0.3c0.3-0.1,0.7-0.1,1,0c0.6,0.1,1.1,0.3,1.4,0.7c0.4,0.4,0.6,0.8,0.7,1.3
		c0.1,0.5,0.1,1.1,0,1.6C284.5,11.9,284.3,12.5,283.9,13z M282,8.9c-0.3-0.1-0.5,0-0.8,0s-0.5,0.2-0.7,0.4c-0.2,0.2-0.4,0.4-0.6,0.7
		c-0.2,0.2-0.3,0.5-0.4,0.8l0,0c-0.1,0.4-0.2,0.9-0.1,1.3c0,0.4,0.1,0.8,0.3,1c0.1,0.2,0.3,0.4,0.5,0.5c0.2,0.1,0.4,0.2,0.6,0.2
		c0.2,0,0.5,0,0.7-0.1c0.2-0.1,0.5-0.2,0.7-0.4c0.2-0.2,0.4-0.3,0.6-0.5c0.2-0.2,0.3-0.4,0.4-0.7c0.1-0.3,0.2-0.6,0.3-1
		c0-0.3,0-0.6-0.1-0.9s-0.2-0.5-0.4-0.8C282.5,9.2,282.3,9,282,8.9z"/>
	<path d="M290.7,16.8c-0.4,0.5-0.8,0.9-1.2,1.1c-0.4,0.2-0.9,0.3-1.3,0.3c-0.5,0-1-0.1-1.4-0.4c-0.5-0.2-0.8-0.6-1.2-0.9
		c-0.1-0.1-0.1-0.2-0.1-0.3c0-0.1,0.1-0.2,0.2-0.3c0.1-0.1,0.2-0.2,0.4-0.2c0.2-0.1,0.3-0.1,0.4-0.1c0.2,0,0.3,0.1,0.4,0.2
		c0.1,0.1,0.2,0.2,0.3,0.3c0.1,0.1,0.2,0.2,0.4,0.3c0.1,0.1,0.3,0.2,0.4,0.2c0.1,0.1,0.3,0.1,0.4,0.1c0.2,0,0.3,0,0.5-0.1
		c0.2-0.1,0.3-0.3,0.5-0.5c0.1-0.2,0.2-0.4,0.2-0.5c0.1-0.2,0.1-0.4,0.2-0.6c0-0.2,0.1-0.4,0.1-0.6c0-0.2,0.1-0.4,0.1-0.6
		c0-0.1,0.1-0.3,0.1-0.4c0-0.1,0.1-0.3,0.1-0.4c-0.2,0.2-0.4,0.4-0.7,0.6c-0.2,0.2-0.5,0.4-0.8,0.5c-0.3,0.2-0.5,0.3-0.8,0.4
		c-0.3,0.1-0.6,0.1-0.9,0.1c-0.6,0-1-0.2-1.4-0.6c-0.3-0.4-0.5-0.9-0.4-1.6c0-0.4,0.1-0.8,0.3-1.2s0.4-0.8,0.6-1.2
		c0.3-0.4,0.6-0.7,0.9-1.1c0.3-0.3,0.7-0.6,1.1-0.9s0.7-0.4,1.1-0.6s0.7-0.2,1.1-0.2c0.4,0,0.8,0.1,1.1,0.4c0.3,0.3,0.6,0.7,0.8,1.3
		c0,0.1,0,0.3-0.1,0.4v0.1c0,0.6-0.1,1.3-0.3,1.9c-0.1,0.6-0.3,1.2-0.4,1.9c0,0.3-0.1,0.5-0.1,0.8c-0.1,0.3-0.1,0.6-0.2,0.8
		c-0.1,0.3-0.2,0.5-0.3,0.8C291,16.4,290.9,16.6,290.7,16.8z M289.2,12.9c0.4-0.4,0.8-0.8,1.1-1.2c0.3-0.4,0.5-0.9,0.6-1.4
		c0-0.1,0-0.1,0.1-0.2c-0.1-0.3-0.2-0.5-0.4-0.7s-0.4-0.2-0.6-0.2c-0.3,0-0.6,0.1-0.9,0.3c-0.3,0.2-0.6,0.4-0.9,0.7s-0.5,0.6-0.8,1
		c-0.2,0.3-0.4,0.7-0.4,1c-0.1,0.5-0.1,0.8,0,1.1c0.1,0.3,0.3,0.4,0.7,0.5c0.2,0,0.3,0,0.5,0c0.1,0,0.3-0.1,0.4-0.1
		c0.1-0.1,0.2-0.1,0.3-0.3S289,13,289.2,12.9z"/>
	<path d="M7.2,19.9c0.9,0,1.7,0,2.6,0c0.9,0,1.7,0,2.6,0c0.3,0,0.4,0.1,0.5,0.2c0,0.1,0,0.3-0.1,0.4c-0.1,0.1-0.2,0.3-0.4,0.4
		c-0.2,0.1-0.4,0.2-0.6,0.2c-0.3,0-0.6,0-0.9,0s-0.6,0-0.9,0c-0.3,1.5-0.6,3-0.8,4.5c-0.3,1.5-0.6,3-1,4.5c0,0.1-0.1,0.2-0.2,0.3
		s-0.2,0.2-0.3,0.2c-0.1,0.1-0.2,0.1-0.3,0.2S7.3,31,7.2,31c-0.1,0-0.3,0-0.3-0.1c-0.1-0.1-0.1-0.2-0.1-0.4C7,29,7.3,27.5,7.6,25.9
		c0.3-1.6,0.7-3.1,1-4.7c-0.3,0-0.7,0-1,0c-0.3,0-0.6,0-1,0c-0.2,0-0.4-0.1-0.5-0.2c0-0.1,0-0.3,0.1-0.4c0.1-0.2,0.2-0.3,0.4-0.4
		C6.8,20,7,19.9,7.2,19.9z"/>
	<path d="M20.4,20.4c-0.2,0.8-0.4,1.6-0.5,2.5c-0.2,0.8-0.3,1.6-0.4,2.5c-0.1,0.8-0.3,1.7-0.4,2.5c-0.1,0.8-0.3,1.6-0.5,2.5
		c0,0.1-0.1,0.2-0.2,0.3s-0.2,0.2-0.3,0.2c-0.1,0.1-0.2,0.1-0.3,0.2c-0.1,0-0.2,0.1-0.3,0.1c-0.1,0-0.2,0-0.3-0.1
		c-0.1-0.1-0.1-0.2-0.1-0.4c0.1-0.6,0.2-1.2,0.3-1.8s0.2-1.2,0.3-1.8c-0.6,0-1.2,0.1-1.8,0.1c-0.6,0-1.2,0-1.8,0
		c-0.1,0.5-0.2,1.1-0.3,1.6c-0.1,0.5-0.2,1.1-0.3,1.6c0,0.1-0.1,0.2-0.1,0.3c-0.1,0.1-0.2,0.2-0.3,0.2c-0.1,0.1-0.2,0.1-0.3,0.2
		S12.4,31,12.3,31c-0.1,0-0.3,0-0.3-0.1c-0.1-0.1-0.1-0.2-0.1-0.4c0.3-1.6,0.6-3.3,0.9-4.9c0.3-1.6,0.6-3.3,0.9-5
		c0-0.1,0.1-0.2,0.1-0.3s0.2-0.2,0.3-0.2s0.2-0.1,0.3-0.2s0.2-0.1,0.3-0.1c0.1,0,0.3,0,0.3,0.1c0.1,0.1,0.1,0.2,0.1,0.4
		c-0.2,0.9-0.3,1.8-0.5,2.7c-0.2,0.9-0.3,1.8-0.5,2.7c0.6,0,1.2,0,1.8,0c0.6,0,1.2,0,1.8-0.1c0.1-0.8,0.3-1.7,0.5-2.5
		c0.2-0.8,0.4-1.7,0.6-2.5c0-0.1,0.1-0.2,0.2-0.3c0.1-0.1,0.2-0.2,0.3-0.2s0.2-0.1,0.3-0.2c0.1,0,0.2-0.1,0.3-0.1
		c0.1,0,0.3,0,0.3,0.1C20.4,20.1,20.4,20.2,20.4,20.4z"/>
	<path d="M26,29.3c0.3,0,0.5,0,0.6,0.1s0.1,0.2,0.1,0.4c0,0.2-0.1,0.3-0.3,0.5s-0.3,0.3-0.6,0.3c-0.6,0.1-1.1,0.2-1.8,0.3
		c-0.6,0.1-1.2,0.2-1.8,0.2c-0.3,0-0.6,0-0.8-0.1s-0.4-0.1-0.6-0.2s-0.3-0.3-0.3-0.5c-0.1-0.2-0.1-0.5-0.1-0.9c0-0.7,0-1.4,0.1-2.1
		c0.1-0.7,0.2-1.5,0.4-2.2c0.2-0.7,0.3-1.5,0.5-2.2s0.4-1.4,0.5-2.1c0-0.1,0.1-0.2,0.2-0.3c0.1-0.1,0.2-0.2,0.3-0.2
		c0.1-0.1,0.2-0.1,0.3-0.1s0.2-0.1,0.3-0.1c0.1,0,0.2,0,0.2,0c0.5,0,0.9,0,1.4,0c0.5,0,0.9,0,1.4,0c0.3,0,0.6,0,0.9,0
		c0.3,0,0.6,0,0.9,0c0.2,0,0.4,0.1,0.4,0.2s0,0.3-0.1,0.4c-0.1,0.1-0.2,0.3-0.4,0.4c-0.2,0.1-0.4,0.2-0.5,0.2c-0.7,0.1-1.3,0.1-2,0
		c-0.7,0-1.3,0-2-0.1c-0.2,0.8-0.3,1.5-0.5,2.2c-0.2,0.7-0.3,1.5-0.4,2.2c0.7-0.1,1.5-0.2,2.2-0.2c0.7-0.1,1.5-0.1,2.2-0.1
		c0.2,0,0.4,0.1,0.4,0.2c0,0.1,0,0.3-0.1,0.4c-0.1,0.1-0.2,0.3-0.4,0.4s-0.3,0.2-0.5,0.2c-0.7,0.1-1.4,0.1-2,0.1
		c-0.7,0-1.4,0.1-2,0.2c0,0,0,0.1,0,0.1c0,0,0,0.1,0,0.1c0,0.2-0.1,0.4-0.1,0.7C22,28,22,28.3,22,28.6s0,0.5,0.1,0.7
		c0.1,0.2,0.2,0.4,0.4,0.5c0.1,0,0.2,0.1,0.3,0.1c0.2,0,0.4,0,0.7-0.1c0.3,0,0.5-0.1,0.6-0.1c0.3,0,0.6-0.1,1-0.1
		C25.4,29.4,25.7,29.4,26,29.3z"/>
	<path d="M39.5,20.5c0.5,0.4,0.8,0.9,0.9,1.5c0.2,0.6,0.2,1.3,0.2,1.9c-0.1,0.7-0.2,1.4-0.5,2s-0.5,1.3-0.9,1.9
		c-0.1,0.1-0.2,0.2-0.2,0.4s-0.2,0.2-0.3,0.4c0.1,0.2,0.2,0.5,0.3,0.7c0.1,0.2,0.2,0.5,0.3,0.7c0,0.1,0,0.2,0,0.3
		c-0.1,0.1-0.1,0.2-0.3,0.3c-0.1,0.1-0.2,0.2-0.4,0.2S38.2,31,38.1,31c-0.2,0-0.3-0.1-0.4-0.2c-0.1-0.3-0.3-0.6-0.4-0.8
		c-0.4,0.3-0.8,0.6-1.3,0.8c-0.4,0.2-0.9,0.3-1.3,0.3c-0.3,0-0.5-0.1-0.8-0.2c-0.2-0.1-0.5-0.3-0.7-0.5c-0.3-0.3-0.5-0.7-0.6-1.1
		c-0.1-0.4-0.2-0.9-0.2-1.3c0-0.5,0-1,0.1-1.5c0.1-0.5,0.2-1,0.3-1.5s0.3-1,0.5-1.5c0.2-0.5,0.4-0.9,0.6-1.3c0,0,0,0,0-0.1
		c0,0,0,0,0-0.1c0.2-0.4,0.4-0.7,0.7-1s0.6-0.5,0.9-0.7c0.3-0.2,0.6-0.4,1-0.5c0.3-0.1,0.7-0.2,1-0.2c0.3,0,0.6,0.1,0.9,0.2
		C38.9,20.1,39.2,20.3,39.5,20.5z M37.5,25.5c0.1,0.3,0.2,0.6,0.3,0.9c0.1,0.3,0.2,0.6,0.3,0.9c0.4-0.7,0.6-1.4,0.8-2.1
		c0.2-0.7,0.2-1.4,0.1-2.1c-0.1-0.3-0.1-0.5-0.2-0.8c-0.1-0.2-0.3-0.4-0.4-0.6c-0.2-0.2-0.3-0.3-0.5-0.4s-0.4-0.2-0.6-0.2
		c-0.3,0-0.5,0.1-0.8,0.3s-0.5,0.4-0.8,0.8c-0.4,0.8-0.7,1.6-1,2.5c-0.2,0.8-0.3,1.7-0.3,2.5c0,0.1,0,0.4,0,0.6c0,0.3,0,0.5,0.1,0.8
		c0,0.3,0.1,0.5,0.2,0.7c0.1,0.2,0.2,0.3,0.4,0.4c0.1,0,0.3,0.1,0.4,0.1c0.3,0,0.6-0.1,0.9-0.3c0.3-0.2,0.5-0.4,0.8-0.6
		c-0.2-0.5-0.3-0.9-0.5-1.4c-0.1-0.5-0.3-0.9-0.4-1.4c0-0.1,0-0.2,0-0.3c0-0.1,0.1-0.2,0.2-0.3c0.1-0.1,0.2-0.1,0.4-0.2
		c0.1,0,0.3-0.1,0.4-0.1c0.1,0,0.2,0,0.3,0.1C37.4,25.3,37.4,25.4,37.5,25.5z"/>
	<path d="M43.1,21c0-0.1,0.1-0.2,0.2-0.3c0.1-0.1,0.2-0.2,0.3-0.2s0.2-0.1,0.3-0.2c0.1,0,0.2-0.1,0.3-0.1c0.1,0,0.2,0,0.3,0.1
		c0.1,0.1,0.1,0.2,0,0.3c-0.2,0.8-0.5,1.6-0.7,2.4c-0.2,0.8-0.4,1.6-0.5,2.4c0,0.3-0.1,0.6-0.1,1c-0.1,0.4-0.1,0.7-0.1,1.1
		c0,0.4,0,0.7,0.1,1s0.2,0.6,0.4,0.8c0.2,0.2,0.4,0.3,0.6,0.3c0.2,0,0.4-0.1,0.5-0.2c0.2-0.2,0.3-0.4,0.5-0.6
		c0.2-0.2,0.3-0.5,0.4-0.8c0.1-0.3,0.3-0.6,0.4-0.9c0.1-0.3,0.2-0.6,0.3-0.8c0.1-0.2,0.1-0.4,0.1-0.6c0.2-0.8,0.4-1.7,0.5-2.5
		c0.2-0.8,0.4-1.7,0.6-2.5c0-0.1,0.1-0.2,0.2-0.3c0.1-0.1,0.2-0.2,0.3-0.2c0.1-0.1,0.2-0.1,0.3-0.2c0.1,0,0.2-0.1,0.3-0.1
		c0.1,0,0.2,0,0.3,0.1c0.1,0.1,0.1,0.2,0.1,0.4c-0.1,0.8-0.2,1.6-0.4,2.4c-0.2,0.8-0.3,1.6-0.4,2.4s-0.2,1.6-0.2,2.4
		c0,0.8,0,1.6,0.2,2.3c0,0.1,0,0.2-0.1,0.4c-0.1,0.1-0.1,0.2-0.2,0.3s-0.2,0.1-0.4,0.2c-0.1,0-0.3,0.1-0.4,0.1
		c-0.2,0-0.4-0.1-0.5-0.3c-0.1-0.4-0.2-0.9-0.2-1.3c-0.2,0.3-0.4,0.5-0.6,0.7s-0.5,0.4-0.7,0.5c-0.3,0.2-0.5,0.3-0.8,0.4
		c-0.3,0.1-0.6,0.1-0.9,0.1c-0.5,0-0.9-0.2-1.2-0.4c-0.3-0.2-0.5-0.6-0.6-1s-0.2-0.8-0.2-1.3c0-0.5,0-1,0.1-1.6s0.2-1.1,0.3-1.7
		s0.3-1.1,0.4-1.6c0.1-0.5,0.3-1,0.4-1.4C42.9,21.6,43,21.2,43.1,21z"/>
	<path d="M52.1,20.6c0-0.1,0.1-0.2,0.2-0.3c0.1-0.1,0.2-0.2,0.3-0.2s0.2-0.1,0.3-0.1s0.2-0.1,0.3-0.1c0.1,0,0.2,0,0.3,0.1
		c0.1,0.1,0.1,0.2,0.1,0.3c-0.4,1.7-0.7,3.4-1.1,5c-0.3,1.7-0.7,3.3-1,5c0,0.1-0.1,0.2-0.1,0.3c-0.1,0.1-0.2,0.2-0.3,0.2
		s-0.2,0.1-0.3,0.2c-0.1,0-0.2,0.1-0.3,0.1c-0.1,0-0.3,0-0.3-0.1C50,30.9,50,30.8,50,30.7c0.3-1.7,0.6-3.4,1-5S51.7,22.3,52.1,20.6z
		"/>
	<path d="M59.5,28.4c0.1-0.1,0.2-0.2,0.4-0.3c0.2-0.1,0.3-0.1,0.5-0.1c0.1,0,0.2,0,0.3,0c0.1,0,0.1,0.1,0.2,0.1c0,0.1,0.1,0.1,0,0.2
		c0,0.1-0.1,0.2-0.1,0.3c-0.2,0.3-0.5,0.7-0.8,0.9c-0.3,0.3-0.7,0.5-1,0.7c-0.4,0.2-0.7,0.3-1.1,0.5C57.3,31,57,31,56.6,31
		c-0.5,0-0.9-0.1-1.3-0.2c-0.5-0.2-0.9-0.5-1.1-0.9c-0.3-0.4-0.4-0.9-0.5-1.4c-0.1-0.5-0.1-1.1,0-1.6c0.1-0.6,0.2-1.1,0.3-1.6
		c0.2-0.5,0.4-1,0.7-1.6c0.3-0.5,0.6-1,1-1.5c0.4-0.5,0.8-0.8,1.3-1.2c0.5-0.3,1-0.6,1.5-0.8c0.3-0.1,0.6-0.1,0.9-0.1
		c0.4,0,0.7,0.1,1,0.2c0.3,0.1,0.6,0.3,0.8,0.6s0.4,0.5,0.5,0.9s0.1,0.7,0.1,1.1c0,0.1,0,0.2-0.1,0.3c-0.1,0.1-0.2,0.2-0.2,0.2
		c-0.1,0.1-0.2,0.1-0.3,0.2c-0.1,0-0.2,0.1-0.3,0.1c-0.1,0-0.3,0-0.3-0.1c-0.1-0.1-0.1-0.2-0.1-0.3c0-0.3,0-0.6-0.1-0.9
		c-0.1-0.3-0.3-0.5-0.5-0.7c-0.2-0.1-0.5-0.2-0.8-0.2c-0.3,0-0.6,0.1-0.9,0.2c-0.3,0.2-0.6,0.4-0.9,0.6c-0.5,0.5-0.9,1-1.2,1.6
		c-0.3,0.6-0.5,1.2-0.7,1.9c-0.1,0.3-0.1,0.6-0.1,0.9c0,0.3,0,0.6,0,0.9c0,0.3,0.1,0.6,0.1,0.9c0.1,0.3,0.2,0.5,0.4,0.8
		c0.2,0.2,0.4,0.4,0.6,0.5c0.2,0.1,0.5,0.2,0.8,0.2c0.4,0,0.9-0.1,1.3-0.4S59.2,28.9,59.5,28.4z"/>
	<path d="M64.4,26.4c0.8,0.5,1.5,1.1,2.2,1.7s1.4,1.2,2,1.9c0.1,0.1,0.1,0.2,0.1,0.3s-0.1,0.2-0.2,0.3c-0.1,0.1-0.2,0.2-0.4,0.3
		C68,31,67.8,31,67.7,31c-0.1,0-0.2,0-0.3-0.1c-0.6-0.5-1.2-1-1.8-1.6c-0.6-0.5-1.2-1-1.8-1.5l-0.4,2.4c0,0.2-0.2,0.4-0.4,0.5
		c-0.2,0.1-0.4,0.2-0.7,0.2c-0.1,0-0.3,0-0.4-0.1s-0.1-0.2-0.1-0.4c0.1-1.7,0.4-3.3,0.6-5c0.3-1.7,0.6-3.3,0.9-5
		c0-0.1,0.1-0.2,0.1-0.3c0.1-0.1,0.2-0.2,0.3-0.2c0.1-0.1,0.2-0.1,0.3-0.2s0.2-0.1,0.3-0.1c0.1,0,0.3,0,0.3,0.1
		c0.1,0.1,0.1,0.2,0.1,0.4c-0.1,0.8-0.3,1.6-0.4,2.3c-0.1,0.8-0.2,1.5-0.4,2.3c0.8-0.8,1.6-1.5,2.4-2.3c0.8-0.8,1.6-1.5,2.4-2.3
		c0.1-0.1,0.2-0.2,0.3-0.2c0.1,0,0.2-0.1,0.3-0.1c0.1,0,0.2,0,0.3,0.1c0.1,0,0.2,0.1,0.2,0.2c0,0.1,0,0.2,0,0.3
		c0,0.1-0.1,0.2-0.2,0.4c-0.9,0.9-1.8,1.8-2.8,2.7S65.3,25.5,64.4,26.4z"/>
	<path d="M79.1,25.7c0.4,0,0.8,0,1.2,0.1c0.4,0.1,0.7,0.2,1,0.4c0.3,0.2,0.5,0.4,0.6,0.7c0.1,0.3,0.1,0.7,0.1,1.2
		c-0.1,0.6-0.3,1.1-0.7,1.4c-0.4,0.4-0.8,0.7-1.2,0.9s-1,0.4-1.5,0.5C77.8,31,77.3,31,76.8,31c-0.3,0-0.7,0-1,0
		c-0.3,0-0.6-0.1-0.8-0.1c-0.2,0-0.3-0.1-0.3-0.3c-0.1,0-0.2-0.1-0.3-0.1c-0.1-0.1-0.1-0.2-0.1-0.3c0.1-1.4,0.2-2.8,0.4-4.2
		c0.2-1.4,0.6-2.8,1-4.2c0-0.1,0.1-0.2,0.1-0.2c0-0.1,0.1-0.2,0.3-0.4c0.5-0.4,1.1-0.7,1.6-0.9c0.5-0.2,1.1-0.3,1.7-0.2
		c0.3,0,0.6,0.1,0.8,0.2c0.3,0.1,0.5,0.2,0.8,0.4s0.4,0.3,0.6,0.6c0.1,0.2,0.2,0.5,0.3,0.8c0,0.4,0,0.8-0.2,1.2
		c-0.1,0.4-0.3,0.7-0.6,1c-0.3,0.3-0.6,0.6-0.9,0.9C79.8,25.2,79.4,25.5,79.1,25.7z M75.8,29.7c0.2,0,0.5,0,0.8,0s0.7,0,1.1,0
		c0.4,0,0.8-0.1,1.2-0.2s0.7-0.2,1-0.4c0.3-0.2,0.4-0.4,0.5-0.6c0.1-0.2,0-0.6-0.2-0.9c-0.2-0.3-0.4-0.5-0.7-0.6
		c-0.3-0.1-0.6-0.2-1-0.2c-0.4,0-0.8,0-1.1,0.1c-0.4,0.1-0.7,0.1-1.1,0.2c-0.1,0-0.2,0-0.3,0c-0.1,0.4-0.1,0.9-0.1,1.3
		C75.8,28.9,75.8,29.3,75.8,29.7z M79.5,21.4c-0.3-0.2-0.7-0.2-1-0.2c-0.5,0-0.9,0.1-1.4,0.4c-0.2,0.8-0.4,1.5-0.5,2.2
		c-0.2,0.7-0.3,1.5-0.4,2.2c0.3-0.1,0.6-0.3,0.9-0.5c0.3-0.2,0.6-0.3,1-0.5c0.3-0.2,0.6-0.4,0.9-0.6c0.3-0.2,0.5-0.5,0.8-0.7
		c0.4-0.5,0.6-0.9,0.5-1.4C80.2,22,79.9,21.6,79.5,21.4z"/>
	<path d="M83.1,27.7C83.1,27.6,83.1,27.6,83.1,27.7c0-0.1,0-0.1,0-0.1c0.2-1.1,0.4-2.2,0.6-3.3c0.2-1.1,0.4-2.2,0.7-3.3
		c0-0.1,0.1-0.2,0.2-0.3c0.1-0.1,0.2-0.2,0.3-0.2s0.3-0.1,0.4-0.1c0.1,0,0.3,0,0.4,0c0.4-0.1,0.8-0.2,1.2-0.3
		c0.4-0.1,0.8-0.1,1.2-0.1c0.3,0,0.5,0,0.8,0.1c0.2,0.1,0.5,0.1,0.7,0.3c0.2,0.1,0.4,0.3,0.6,0.6c0.1,0.2,0.2,0.5,0.3,0.7
		c0,0.3,0.1,0.5,0,0.8c0,0.3-0.1,0.6-0.2,0.9c-0.3,0.9-0.7,1.6-1.4,2.3c-0.6,0.7-1.3,1.2-2.1,1.6c0.5,0.3,0.9,0.7,1.2,1.1
		s0.6,1,0.9,1.5c0.1,0.1,0.1,0.3,0,0.4c0,0.1-0.1,0.2-0.2,0.4c-0.1,0.1-0.2,0.2-0.4,0.3c-0.1,0.1-0.3,0.1-0.4,0.1
		c-0.2,0-0.3-0.1-0.4-0.2c-0.1-0.3-0.3-0.6-0.5-0.9c-0.2-0.3-0.4-0.6-0.6-0.9c-0.2-0.3-0.5-0.5-0.8-0.7c-0.3-0.2-0.6-0.3-1-0.3
		c-0.1,0.4-0.1,0.8-0.2,1.2s-0.1,0.8-0.2,1.2c0,0.2-0.2,0.4-0.4,0.5C83.5,31,83.3,31,83.1,31c-0.1,0-0.3,0-0.3-0.1
		c-0.1-0.1-0.1-0.2-0.1-0.4c0.1-0.5,0.2-1,0.2-1.5S83,28.1,83.1,27.7z M88.7,21.5c-0.1-0.2-0.3-0.4-0.5-0.4S87.8,21,87.5,21
		c-0.3,0-0.6,0-0.9,0.1c-0.3,0.1-0.6,0.2-0.9,0.2c-0.2,0.9-0.4,1.8-0.5,2.6c-0.2,0.9-0.3,1.7-0.5,2.6c0,0,0.1,0,0.2,0
		c0.4-0.1,0.7-0.2,1.1-0.4c0.3-0.2,0.7-0.4,1-0.6c0.3-0.2,0.6-0.5,0.8-0.8c0.2-0.3,0.5-0.6,0.6-1c0.1-0.2,0.2-0.4,0.2-0.6
		c0.1-0.2,0.1-0.4,0.1-0.6c0-0.2,0-0.4,0-0.6S88.8,21.7,88.7,21.5z"/>
	<path d="M91.1,30.3c-0.4-0.3-0.6-0.6-0.8-1c-0.2-0.4-0.3-0.8-0.3-1.2c0-0.5,0-0.9,0.1-1.4c0.1-0.5,0.2-1,0.4-1.5
		c0.2-0.5,0.4-1,0.6-1.4s0.4-0.9,0.6-1.2c0,0,0,0,0,0c0.2-0.4,0.4-0.7,0.7-1c0.3-0.3,0.6-0.6,1-0.8c0.3-0.2,0.7-0.4,1.1-0.5
		s0.7-0.2,1.1-0.2c0.5,0,1,0.1,1.4,0.5c0.5,0.4,0.9,0.9,1.2,1.5c0.2,0.6,0.4,1.2,0.4,1.9c0,0.7-0.1,1.4-0.3,2.1
		c-0.2,0.7-0.5,1.4-0.8,2c-0.2,0.3-0.3,0.6-0.5,0.9c-0.2,0.3-0.4,0.6-0.7,0.9c-0.2,0.3-0.5,0.5-0.8,0.8c-0.3,0.2-0.6,0.4-0.9,0.5
		c-0.2,0.1-0.3,0.1-0.5,0.1c-0.2,0-0.4,0-0.5,0c-0.5,0-0.9-0.1-1.3-0.2C91.8,30.7,91.4,30.5,91.1,30.3z M94.8,21.4
		c-0.4,0.1-0.7,0.2-0.9,0.5c-0.2,0.2-0.5,0.5-0.7,0.8c-0.2,0.4-0.4,0.8-0.6,1.2c-0.2,0.4-0.4,0.9-0.5,1.3c-0.1,0.4-0.2,0.9-0.3,1.3
		s-0.1,0.9-0.1,1.3c0,0.5,0.2,0.9,0.5,1.2c0.3,0.3,0.6,0.5,1.1,0.6c0.2,0.1,0.4,0.1,0.5,0.1c0.2,0,0.5,0,0.7-0.1s0.4-0.2,0.6-0.4
		c0.2-0.2,0.3-0.3,0.5-0.6c0.2-0.2,0.3-0.4,0.5-0.7c0.3-0.5,0.5-0.9,0.7-1.4c0.2-0.5,0.3-1,0.4-1.4s0-0.9,0-1.4
		c-0.1-0.5-0.2-0.9-0.5-1.3c-0.1-0.2-0.2-0.3-0.3-0.5c-0.1-0.1-0.2-0.3-0.4-0.3c-0.1-0.1-0.3-0.2-0.5-0.2
		C95.2,21.3,95,21.3,94.8,21.4z"/>
	<path d="M107.7,20.3c0.1-0.2,0.2-0.4,0.4-0.5c0.2-0.1,0.4-0.1,0.6-0.1c0.2,0,0.3,0.1,0.4,0.1c0.1,0.1,0.1,0.3,0.1,0.5
		c-0.3,0.9-0.6,1.7-0.9,2.6c-0.3,0.9-0.6,1.7-1,2.6c-0.3,0.9-0.6,1.7-0.9,2.6c-0.3,0.9-0.6,1.7-0.8,2.6c0,0.1-0.1,0.2-0.2,0.2
		c-0.1,0.1-0.2,0.1-0.3,0.2c-0.1,0.1-0.2,0.1-0.3,0.1c-0.1,0-0.2,0.1-0.3,0.1c-0.1,0-0.2,0-0.3-0.1c-0.1-0.1-0.1-0.1-0.1-0.3
		c0-0.9-0.1-1.8-0.2-2.8c-0.1-0.9-0.1-1.8-0.2-2.8c-0.4,0.9-0.8,1.7-1.1,2.6c-0.4,0.9-0.8,1.7-1.1,2.6c-0.1,0.2-0.2,0.3-0.4,0.4
		c-0.2,0.1-0.4,0.2-0.6,0.2c-0.1,0-0.3,0-0.4-0.1c-0.1-0.1-0.2-0.2-0.2-0.4c0-1.7,0-3.4,0.1-5.1s0.3-3.4,0.5-5.1
		c0-0.1,0.1-0.2,0.1-0.3c0.1-0.1,0.2-0.2,0.3-0.2c0.1-0.1,0.2-0.1,0.3-0.1c0.1,0,0.2-0.1,0.3-0.1c0.1,0,0.3,0,0.4,0.1
		c0.1,0.1,0.1,0.2,0.1,0.4c-0.1,1.1-0.2,2.2-0.3,3.3c-0.1,1.1-0.1,2.2-0.2,3.3c0.4-0.8,0.7-1.6,1.1-2.4s0.7-1.6,1.1-2.4
		c0.1-0.2,0.2-0.3,0.4-0.4c0.2-0.1,0.4-0.2,0.6-0.2c0.1,0,0.3,0,0.4,0.1c0.1,0.1,0.1,0.2,0.1,0.4c0,0.8,0,1.6,0,2.4
		c0,0.8,0.1,1.6,0.1,2.4c0.4-1.1,0.8-2.2,1.2-3.2C106.9,22.4,107.3,21.4,107.7,20.3z"/>
	<path d="M115.1,20.5c0-0.1,0.1-0.2,0.1-0.3s0.2-0.2,0.3-0.2s0.2-0.1,0.3-0.2c0.1,0,0.2-0.1,0.3-0.1c0.1,0,0.3,0,0.3,0.1
		s0.1,0.2,0.1,0.4c-0.3,1.7-0.7,3.3-1.1,5c-0.4,1.7-0.7,3.3-1,5c0,0.2-0.2,0.4-0.4,0.5s-0.4,0.2-0.6,0.2c-0.1,0-0.2,0-0.3-0.1
		c-0.1-0.1-0.2-0.1-0.2-0.2c-0.4-1-0.8-2.1-1.1-3.2s-0.6-2.2-0.8-3.3c-0.2,1-0.4,2.1-0.6,3.1c-0.2,1-0.4,2.1-0.5,3.1
		c0,0.1-0.1,0.2-0.1,0.3c-0.1,0.1-0.2,0.2-0.3,0.2c-0.1,0.1-0.2,0.1-0.3,0.2c-0.1,0-0.2,0.1-0.3,0.1c-0.1,0-0.3,0-0.3-0.1
		c-0.1-0.1-0.1-0.2-0.1-0.4c0.3-1.7,0.5-3.3,0.9-5s0.7-3.3,1.1-5c0-0.1,0.1-0.2,0.2-0.3c0.1-0.1,0.2-0.2,0.3-0.3s0.2-0.1,0.3-0.2
		s0.2-0.1,0.3-0.1c0.1,0,0.2,0,0.3,0.1c0.1,0.1,0.1,0.1,0.1,0.3c0.2,1.2,0.5,2.4,0.7,3.6c0.3,1.2,0.6,2.4,0.9,3.5
		c0.2-1.1,0.5-2.3,0.7-3.4C114.6,22.8,114.9,21.7,115.1,20.5z"/>
	<path d="M123.3,21.5c-0.1,0.1-0.2,0.2-0.3,0.3c-0.1,0.1-0.1,0.3-0.2,0.4c-0.1,0.1-0.1,0.3-0.1,0.4c0,0.1-0.1,0.3-0.1,0.4
		c-0.1,0.2-0.1,0.4-0.1,0.6c0,0.2-0.1,0.4-0.1,0.6c0.1,0,0.3-0.1,0.4-0.1c0.7,0,1.5-0.1,2.2-0.1s1.5,0,2.2,0c0.3,0,0.4,0.1,0.5,0.2
		c0,0.1,0,0.3-0.1,0.4s-0.2,0.3-0.4,0.4c-0.2,0.1-0.4,0.2-0.6,0.2c-0.7,0-1.5,0-2.2,0c-0.7,0-1.4,0-2.2,0.1c0,0,0,0,0,0c0,0,0,0,0,0
		c-0.1,0.8-0.2,1.5-0.3,2.2c-0.1,0.7-0.1,1.5-0.2,2.2V30c0,0,0,0.1,0,0.1c0,0,0,0.1,0,0.1c0,0.1-0.1,0.2-0.1,0.3
		c-0.1,0.1-0.2,0.2-0.3,0.2c-0.1,0.1-0.2,0.1-0.3,0.2s-0.2,0.1-0.3,0.1c-0.1,0-0.3,0-0.4-0.1c-0.1-0.1-0.1-0.2-0.1-0.4
		c0.1-0.9,0.1-1.7,0.3-2.6c0.1-0.9,0.2-1.7,0.4-2.6c0-0.3,0.1-0.6,0.2-1c0.1-0.4,0.1-0.7,0.2-1.1s0.2-0.7,0.3-1.1
		c0.1-0.3,0.3-0.7,0.5-1c0.2-0.2,0.4-0.4,0.6-0.6c0.2-0.2,0.5-0.3,0.8-0.4c0.3-0.1,0.6-0.2,0.9-0.2c0.3,0,0.7-0.1,1-0.1
		c0.5,0,1,0,1.5,0.1c0.5,0.1,0.9,0.1,1.2,0.1c0.2,0,0.4,0.1,0.5,0.2c0,0.1,0,0.3-0.1,0.4c-0.1,0.1-0.2,0.3-0.4,0.4
		c-0.2,0.1-0.4,0.2-0.6,0.1c-0.4-0.1-0.9-0.1-1.3-0.1s-0.9,0-1.3,0c-0.1,0-0.2,0-0.3,0c-0.1,0-0.3,0-0.4,0c-0.1,0-0.3,0-0.4,0
		C123.5,21.4,123.4,21.4,123.3,21.5z"/>
	<path d="M129,30.3c-0.4-0.3-0.6-0.6-0.8-1c-0.2-0.4-0.3-0.8-0.3-1.2c0-0.5,0-0.9,0.1-1.4c0.1-0.5,0.2-1,0.4-1.5
		c0.2-0.5,0.4-1,0.6-1.4s0.4-0.9,0.6-1.2c0,0,0,0,0,0c0.2-0.4,0.4-0.7,0.7-1c0.3-0.3,0.6-0.6,1-0.8c0.3-0.2,0.7-0.4,1.1-0.5
		s0.7-0.2,1.1-0.2c0.5,0,1,0.1,1.4,0.5c0.5,0.4,0.9,0.9,1.2,1.5c0.2,0.6,0.4,1.2,0.4,1.9c0,0.7-0.1,1.4-0.3,2.1
		c-0.2,0.7-0.5,1.4-0.8,2c-0.2,0.3-0.3,0.6-0.5,0.9c-0.2,0.3-0.4,0.6-0.7,0.9c-0.2,0.3-0.5,0.5-0.8,0.8c-0.3,0.2-0.6,0.4-0.9,0.5
		c-0.2,0.1-0.3,0.1-0.5,0.1c-0.2,0-0.4,0-0.5,0c-0.5,0-0.9-0.1-1.3-0.2C129.6,30.7,129.2,30.5,129,30.3z M132.6,21.4
		c-0.4,0.1-0.7,0.2-0.9,0.5c-0.2,0.2-0.5,0.5-0.7,0.8c-0.2,0.4-0.4,0.8-0.6,1.2c-0.2,0.4-0.4,0.9-0.5,1.3c-0.1,0.4-0.2,0.9-0.3,1.3
		s-0.1,0.9-0.1,1.3c0,0.5,0.2,0.9,0.5,1.2c0.3,0.3,0.6,0.5,1.1,0.6c0.2,0.1,0.4,0.1,0.5,0.1c0.2,0,0.5,0,0.7-0.1s0.4-0.2,0.6-0.4
		c0.2-0.2,0.3-0.3,0.5-0.6c0.2-0.2,0.3-0.4,0.5-0.7c0.3-0.5,0.5-0.9,0.7-1.4c0.2-0.5,0.3-1,0.4-1.4s0-0.9,0-1.4
		c-0.1-0.5-0.2-0.9-0.5-1.3c-0.1-0.2-0.2-0.3-0.3-0.5c-0.1-0.1-0.2-0.3-0.4-0.3c-0.1-0.1-0.3-0.2-0.5-0.2
		C133,21.3,132.8,21.3,132.6,21.4z"/>
	<path d="M143.3,20.4c0.1-0.1,0.2-0.2,0.4-0.3c0.2-0.1,0.3-0.1,0.5-0.1c0.2,0,0.4,0.1,0.5,0.2c0.1,0.1,0.1,0.3-0.1,0.5
		c-0.6,0.8-1.1,1.6-1.7,2.5c-0.6,0.8-1.1,1.6-1.7,2.4c0.3,0.8,0.5,1.5,0.8,2.3c0.2,0.8,0.5,1.5,0.7,2.3c0,0.1,0,0.2,0,0.3
		c-0.1,0.1-0.1,0.2-0.2,0.3S142.1,31,142,31c-0.1,0-0.3,0.1-0.4,0.1c-0.1,0-0.2,0-0.3-0.1c-0.1,0-0.2-0.1-0.2-0.2
		c-0.2-0.6-0.4-1.1-0.6-1.7c-0.2-0.6-0.4-1.1-0.6-1.7c-0.4,0.5-0.8,1.1-1.2,1.6c-0.4,0.5-0.8,1.1-1.2,1.6c-0.1,0.1-0.2,0.2-0.4,0.3
		c-0.2,0.1-0.3,0.1-0.5,0.1c-0.2,0-0.4-0.1-0.5-0.2s-0.1-0.3,0.1-0.6c0.5-0.7,1-1.5,1.6-2.2c0.5-0.7,1.1-1.5,1.6-2.2
		c-0.3-0.9-0.5-1.7-0.8-2.5c-0.3-0.8-0.5-1.7-0.8-2.5c0-0.1,0-0.2,0-0.3c0.1-0.1,0.1-0.2,0.2-0.3s0.2-0.1,0.4-0.2
		c0.1,0,0.3-0.1,0.4-0.1c0.1,0,0.2,0,0.3,0.1c0.1,0,0.2,0.1,0.2,0.2c0.2,0.6,0.4,1.3,0.7,1.9c0.2,0.6,0.4,1.3,0.7,1.9
		c0.4-0.6,0.9-1.2,1.3-1.8C142.4,21.6,142.9,21,143.3,20.4z"/>
	<path d="M157.5,20.1c0.2,0,0.4,0.1,0.4,0.2c0,0.1,0,0.2-0.1,0.4c-0.1,0.1-0.2,0.3-0.4,0.4s-0.3,0.2-0.5,0.2c-0.2,0-0.3,0-0.5,0
		c-0.2,0-0.3,0-0.5,0c-0.1,0.7-0.3,1.4-0.4,2.2c-0.1,0.7-0.3,1.4-0.5,2.2c-0.1,0.4-0.2,0.7-0.2,1.1c-0.1,0.4-0.2,0.7-0.3,1.1
		c-0.1,0.4-0.3,0.7-0.4,1c-0.2,0.3-0.4,0.7-0.7,1c-0.4,0.4-0.8,0.7-1.3,0.9c-0.5,0.2-1,0.3-1.4,0.3c-0.1,0-0.3,0-0.4,0
		c-0.1,0-0.3,0-0.4-0.1c-0.8-0.2-1.2-0.5-1.5-0.9c-0.2-0.4-0.3-1-0.2-1.8c0-0.1,0.1-0.2,0.1-0.3c0.1-0.1,0.2-0.2,0.2-0.2
		c0.1-0.1,0.2-0.1,0.3-0.2c0.1,0,0.2-0.1,0.3-0.1c0.1,0,0.3,0,0.4,0.1c0.1,0.1,0.1,0.2,0.1,0.4c0,0.2,0,0.4-0.1,0.6s0,0.3,0,0.4
		c0,0.1,0.1,0.3,0.2,0.4c0.1,0.1,0.3,0.2,0.5,0.3c0.2,0.1,0.5,0.1,0.8,0.1c0.2,0,0.4,0,0.5-0.1c0.2,0,0.4-0.1,0.5-0.2
		c0.2-0.2,0.4-0.4,0.6-0.7c0.1-0.3,0.3-0.5,0.3-0.8s0.2-0.6,0.2-0.9c0-0.3,0.1-0.6,0.1-0.8c0.2-0.8,0.4-1.7,0.6-2.5
		c0.2-0.8,0.3-1.7,0.5-2.5c-0.5,0-0.9,0-1.4,0s-0.9,0-1.4,0c-0.3,0-0.4,0-0.5-0.2c-0.1-0.1,0-0.3,0.1-0.4c0.1-0.2,0.2-0.3,0.4-0.4
		s0.4-0.2,0.6-0.2c0.5,0,1,0,1.6-0.1c0.5,0,1,0,1.6,0c0.4,0,0.7,0,1,0C156.9,20,157.2,20.1,157.5,20.1z"/>
	<path d="M159.2,21c0-0.1,0.1-0.2,0.2-0.3c0.1-0.1,0.2-0.2,0.3-0.2s0.2-0.1,0.3-0.2c0.1,0,0.2-0.1,0.3-0.1c0.1,0,0.2,0,0.3,0.1
		c0.1,0.1,0.1,0.2,0,0.3c-0.2,0.8-0.5,1.6-0.7,2.4c-0.2,0.8-0.4,1.6-0.5,2.4c0,0.3-0.1,0.6-0.1,1c-0.1,0.4-0.1,0.7-0.1,1.1
		c0,0.4,0,0.7,0.1,1s0.2,0.6,0.4,0.8c0.2,0.2,0.4,0.3,0.6,0.3c0.2,0,0.4-0.1,0.5-0.2c0.2-0.2,0.3-0.4,0.5-0.6
		c0.2-0.2,0.3-0.5,0.4-0.8c0.1-0.3,0.3-0.6,0.4-0.9c0.1-0.3,0.2-0.6,0.3-0.8c0.1-0.2,0.1-0.4,0.1-0.6c0.2-0.8,0.4-1.7,0.5-2.5
		c0.2-0.8,0.4-1.7,0.6-2.5c0-0.1,0.1-0.2,0.2-0.3c0.1-0.1,0.2-0.2,0.3-0.2c0.1-0.1,0.2-0.1,0.3-0.2c0.1,0,0.2-0.1,0.3-0.1
		c0.1,0,0.2,0,0.3,0.1c0.1,0.1,0.1,0.2,0.1,0.4c-0.1,0.8-0.2,1.6-0.4,2.4c-0.2,0.8-0.3,1.6-0.4,2.4s-0.2,1.6-0.2,2.4
		c0,0.8,0,1.6,0.2,2.3c0,0.1,0,0.2-0.1,0.4c-0.1,0.1-0.1,0.2-0.2,0.3s-0.2,0.1-0.4,0.2c-0.1,0-0.3,0.1-0.4,0.1
		c-0.2,0-0.4-0.1-0.5-0.3c-0.1-0.4-0.2-0.9-0.2-1.3c-0.2,0.3-0.4,0.5-0.6,0.7s-0.5,0.4-0.7,0.5c-0.3,0.2-0.5,0.3-0.8,0.4
		c-0.3,0.1-0.6,0.1-0.9,0.1c-0.5,0-0.9-0.2-1.2-0.4c-0.3-0.2-0.5-0.6-0.6-1s-0.2-0.8-0.2-1.3c0-0.5,0-1,0.1-1.6s0.2-1.1,0.3-1.7
		s0.3-1.1,0.4-1.6c0.1-0.5,0.3-1,0.4-1.4C159,21.6,159.1,21.2,159.2,21z"/>
	<path d="M173.1,20.4c0.1-0.1,0.2-0.2,0.4-0.3s0.4-0.1,0.5-0.1c0.1,0,0.3,0,0.3,0.1c0.1,0.1,0.1,0.2,0.1,0.4
		c-0.2,0.8-0.3,1.6-0.4,2.5c-0.1,0.8-0.2,1.6-0.3,2.5c-0.1,0.8-0.2,1.6-0.3,2.5c-0.1,0.8-0.2,1.6-0.4,2.5c0,0.1-0.1,0.2-0.1,0.3
		c-0.1,0.1-0.2,0.2-0.3,0.2c-0.1,0.1-0.2,0.1-0.3,0.2c-0.1,0-0.2,0.1-0.3,0.1c-0.1,0-0.3,0-0.4-0.1c-0.1-0.1-0.1-0.2-0.1-0.4
		c0.1-1,0.2-2.1,0.3-3.1c0.1-1,0.2-2.1,0.4-3.1c-0.3,0.7-0.6,1.3-0.9,1.9c-0.3,0.6-0.7,1.3-1,1.9c-0.1,0.1-0.2,0.2-0.4,0.3
		c-0.2,0.1-0.4,0.1-0.5,0.1c-0.1,0-0.2,0-0.3-0.1c-0.1,0-0.1-0.1-0.1-0.3c0-0.6-0.1-1.3-0.2-1.9c-0.1-0.6-0.1-1.3-0.2-1.9
		c-0.3,1-0.6,2-0.8,3c-0.3,1-0.5,2-0.8,3c-0.1,0.2-0.2,0.4-0.5,0.5c-0.2,0.1-0.5,0.2-0.7,0.2c-0.1,0-0.2,0-0.3-0.1
		c-0.1-0.1-0.1-0.2,0-0.3c0.2-0.8,0.5-1.7,0.7-2.5c0.2-0.8,0.4-1.7,0.7-2.5c0.2-0.9,0.5-1.7,0.8-2.5c0.3-0.8,0.6-1.7,0.9-2.5
		c0.1-0.2,0.2-0.3,0.4-0.4c0.2-0.1,0.4-0.2,0.6-0.2c0.1,0,0.3,0,0.4,0.1s0.1,0.2,0.1,0.4c0,0.9,0,1.7,0,2.6s0.1,1.7,0.2,2.6
		c0.2-0.4,0.4-0.9,0.6-1.3s0.4-0.9,0.6-1.3c0.2-0.4,0.5-0.9,0.7-1.3C172.6,21.2,172.8,20.8,173.1,20.4z"/>
	<path d="M174.8,30.6c0.1-1.5,0.3-3.1,0.6-4.6c0.3-1.6,0.6-3.1,1-4.7c-0.1,0-0.2-0.1-0.2-0.2c0-0.1,0-0.2,0.1-0.3
		c0.1-0.1,0.1-0.2,0.3-0.3c0.1-0.1,0.3-0.2,0.4-0.2c0.6-0.1,1.1-0.2,1.7-0.2c0.5,0,0.9,0.1,1.4,0.2c0.5,0.1,0.9,0.3,1.3,0.5
		c0.3,0.2,0.5,0.4,0.7,0.6c0.2,0.2,0.3,0.5,0.3,0.8c0,0.3,0,0.6,0,0.9c0,0.3-0.1,0.6-0.3,1c-0.2,0.5-0.4,0.9-0.7,1.2
		c-0.3,0.4-0.7,0.7-1.1,0.9c-0.4,0.3-0.8,0.5-1.3,0.6c-0.5,0.1-0.9,0.2-1.3,0.2c-0.1,0-0.2,0-0.4,0c-0.1,0-0.2,0-0.3,0
		c-0.2,1.1-0.3,2.2-0.5,3.4c0,0.1-0.1,0.2-0.1,0.3c-0.1,0.1-0.2,0.2-0.2,0.2c-0.1,0.1-0.2,0.1-0.3,0.2c-0.1,0-0.2,0.1-0.3,0.1
		c-0.1,0-0.3,0-0.3-0.1C174.8,30.9,174.7,30.7,174.8,30.6z M180.6,23.5c0.1-0.5,0.1-0.8-0.1-1.1c-0.1-0.3-0.4-0.5-0.6-0.7
		s-0.6-0.3-1-0.4c-0.4-0.1-0.8-0.1-1.2-0.1c-0.3,1.4-0.5,2.8-0.7,4.3c0.3,0.1,0.6,0.2,1,0.2c0.3,0,0.6,0,0.9-0.1
		c0.3-0.1,0.5-0.2,0.8-0.4c0.2-0.2,0.4-0.4,0.6-0.7C180.4,24.2,180.5,23.8,180.6,23.5z"/>
	<path d="M187.5,19.8c0.4,0,0.7,0.1,0.9,0.3c0.3,0.2,0.5,0.4,0.6,0.7s0.3,0.6,0.4,1c0.1,0.3,0.1,0.7,0.1,1c0,0.1,0,0.2-0.1,0.3
		c-0.1,0.1-0.1,0.2-0.2,0.2c-0.1,0.1-0.2,0.1-0.3,0.2s-0.2,0.1-0.3,0.1c-0.1,0-0.3,0-0.4-0.1c-0.1-0.1-0.1-0.2-0.1-0.4
		c0-0.3,0-0.5-0.1-0.8c-0.1-0.2-0.2-0.5-0.3-0.7c-0.1-0.2-0.3-0.3-0.5-0.3c-0.2,0-0.5,0.1-0.8,0.4c-0.3,0.2-0.5,0.5-0.7,0.8
		c-0.2,0.3-0.4,0.7-0.6,1c-0.2,0.3-0.3,0.6-0.4,0.8c-0.1,0.2-0.2,0.4-0.2,0.6c-0.1,0.2-0.1,0.4-0.1,0.6c0,0.3,0.1,0.5,0.2,0.6
		c0.1,0.1,0.3,0.2,0.5,0.2c0.3,0.1,0.6,0.2,1,0.2s0.8,0.1,1.2,0.2c0.4,0.1,0.7,0.2,1,0.3c0.3,0.2,0.5,0.4,0.6,0.7
		c0.2,0.5,0.2,0.9,0,1.3c-0.2,0.4-0.5,0.8-0.9,1.1c-0.4,0.3-0.9,0.5-1.4,0.7s-1.1,0.3-1.6,0.3c-0.5,0-1-0.1-1.4-0.3
		c-0.4-0.2-0.7-0.6-0.8-1c0-0.1,0-0.2,0-0.3c0-0.1,0.1-0.2,0.2-0.3c0.1-0.1,0.2-0.1,0.4-0.2c0.1,0,0.3-0.1,0.4-0.1s0.2,0,0.3,0.1
		c0.1,0,0.2,0.1,0.2,0.2c0.1,0.2,0.3,0.4,0.5,0.5c0.2,0.1,0.5,0.2,0.8,0.2c0.2,0,0.4,0,0.6-0.1c0.2,0,0.4-0.1,0.6-0.2
		c0.1,0,0.2-0.1,0.3-0.2c0.1-0.1,0.2-0.2,0.3-0.3s0.1-0.2,0.2-0.3c0-0.1,0-0.2,0-0.3c0-0.2-0.2-0.3-0.4-0.4
		c-0.2-0.1-0.5-0.2-0.8-0.2c-0.3-0.1-0.6-0.1-0.9-0.1s-0.5-0.1-0.7-0.1c-0.2,0-0.4-0.1-0.6-0.1c-0.2,0-0.4-0.1-0.5-0.1
		s-0.3-0.1-0.4-0.2s-0.2-0.2-0.3-0.4c-0.1-0.2-0.1-0.4-0.1-0.6c0-0.2,0-0.5,0.1-0.7c0.1-0.2,0.1-0.5,0.2-0.7
		c0.1-0.2,0.2-0.4,0.3-0.6c0.2-0.4,0.4-0.8,0.7-1.3c0.3-0.5,0.6-0.9,1-1.3c0.4-0.4,0.8-0.8,1.2-1.1C186.5,20,187,19.8,187.5,19.8z"
		/>
	<path d="M195.4,30.3c-0.3-0.3-0.6-0.6-0.8-1c-0.2-0.4-0.3-0.8-0.3-1.2c0-0.5,0-0.9,0.1-1.4c0.1-0.5,0.2-1,0.4-1.5
		c0.2-0.5,0.4-1,0.6-1.4s0.4-0.9,0.6-1.2c0,0,0,0,0,0c0.2-0.4,0.4-0.7,0.7-1s0.6-0.6,1-0.8c0.3-0.2,0.7-0.4,1.1-0.5s0.7-0.2,1.1-0.2
		c0.5,0,1,0.1,1.4,0.5c0.5,0.4,0.9,0.9,1.2,1.5s0.4,1.2,0.4,1.9c0,0.7-0.1,1.4-0.3,2.1s-0.5,1.4-0.8,2c-0.2,0.3-0.3,0.6-0.5,0.9
		c-0.2,0.3-0.4,0.6-0.7,0.9c-0.2,0.3-0.5,0.5-0.8,0.8c-0.3,0.2-0.6,0.4-0.9,0.5c-0.2,0.1-0.3,0.1-0.5,0.1c-0.2,0-0.4,0-0.5,0
		c-0.5,0-0.9-0.1-1.3-0.2C196.1,30.7,195.7,30.5,195.4,30.3z M199,21.4c-0.4,0.1-0.7,0.2-0.9,0.5c-0.2,0.2-0.5,0.5-0.7,0.8
		c-0.2,0.4-0.4,0.8-0.6,1.2c-0.2,0.4-0.4,0.9-0.5,1.3c-0.1,0.4-0.2,0.9-0.3,1.3c-0.1,0.4-0.1,0.9-0.1,1.3c0,0.5,0.2,0.9,0.5,1.2
		c0.3,0.3,0.6,0.5,1.1,0.6c0.2,0.1,0.4,0.1,0.5,0.1c0.2,0,0.5,0,0.7-0.1s0.4-0.2,0.6-0.4c0.2-0.2,0.3-0.3,0.5-0.6
		c0.2-0.2,0.3-0.4,0.5-0.7c0.3-0.5,0.5-0.9,0.7-1.4c0.2-0.5,0.3-1,0.4-1.4c0.1-0.5,0-0.9,0-1.4c-0.1-0.5-0.2-0.9-0.5-1.3
		c-0.1-0.2-0.2-0.3-0.3-0.5c-0.1-0.1-0.2-0.3-0.4-0.3c-0.1-0.1-0.3-0.2-0.5-0.2S199.3,21.3,199,21.4z"/>
	<path d="M204.2,20.5c0-0.1,0-0.2,0.1-0.3s0.2-0.2,0.3-0.2c0.1-0.1,0.2-0.1,0.4-0.2c0.1,0,0.2-0.1,0.4-0.1c0.1,0,0.2,0,0.3,0.1
		c0.1,0.1,0.1,0.1,0.1,0.2c0.1,1.3,0.1,2.6,0.3,3.8c0.1,1.3,0.2,2.5,0.4,3.8c0.5-1.2,1.1-2.4,1.6-3.6c0.6-1.2,1.1-2.4,1.7-3.6
		c0.1-0.2,0.2-0.3,0.4-0.4c0.2-0.1,0.4-0.1,0.6-0.1c0.2,0,0.3,0,0.4,0.1s0.1,0.2,0,0.5c-0.8,1.7-1.5,3.3-2.3,4.9
		c-0.8,1.6-1.5,3.3-2.2,5c-0.1,0.2-0.2,0.3-0.5,0.4s-0.4,0.2-0.6,0.2c-0.1,0-0.2,0-0.3-0.1c-0.1-0.1-0.1-0.1-0.1-0.3
		C204.6,27.3,204.3,23.9,204.2,20.5z"/>
	<path d="M216.1,29.3c0.3,0,0.5,0,0.6,0.1c0.1,0.1,0.1,0.2,0.1,0.4c0,0.2-0.1,0.3-0.3,0.5c-0.1,0.2-0.3,0.3-0.6,0.3
		c-0.5,0.1-1.1,0.2-1.8,0.3c-0.6,0.1-1.2,0.2-1.8,0.2c-0.3,0-0.6,0-0.8-0.1c-0.2,0-0.4-0.1-0.6-0.2s-0.3-0.3-0.3-0.5
		c-0.1-0.2-0.1-0.5-0.1-0.9c0-0.7,0-1.4,0.1-2.1c0.1-0.7,0.2-1.5,0.4-2.2c0.2-0.7,0.3-1.5,0.5-2.2c0.2-0.7,0.4-1.4,0.5-2.1
		c0-0.1,0.1-0.2,0.2-0.3c0.1-0.1,0.2-0.2,0.3-0.2c0.1-0.1,0.2-0.1,0.3-0.1s0.2-0.1,0.3-0.1c0.1,0,0.2,0,0.2,0c0.5,0,0.9,0,1.4,0
		c0.5,0,0.9,0,1.4,0c0.3,0,0.6,0,0.9,0c0.3,0,0.6,0,0.9,0c0.2,0,0.4,0.1,0.4,0.2s0,0.3-0.1,0.4c-0.1,0.1-0.2,0.3-0.4,0.4
		c-0.2,0.1-0.4,0.2-0.5,0.2c-0.7,0.1-1.3,0.1-2,0c-0.7,0-1.3,0-2-0.1c-0.2,0.8-0.3,1.5-0.5,2.2c-0.2,0.7-0.3,1.5-0.4,2.2
		c0.7-0.1,1.5-0.2,2.2-0.2c0.7-0.1,1.5-0.1,2.2-0.1c0.2,0,0.4,0.1,0.4,0.2c0,0.1,0,0.3-0.1,0.4c-0.1,0.1-0.2,0.3-0.4,0.4
		c-0.2,0.1-0.3,0.2-0.5,0.2c-0.7,0.1-1.4,0.1-2,0.1c-0.7,0-1.3,0.1-2,0.2c0,0,0,0.1,0,0.1c0,0,0,0.1,0,0.1c0,0.2-0.1,0.4-0.1,0.7
		s-0.1,0.5-0.1,0.8s0,0.5,0.1,0.7c0.1,0.2,0.2,0.4,0.4,0.5c0.1,0,0.2,0.1,0.3,0.1c0.2,0,0.4,0,0.7-0.1c0.3,0,0.5-0.1,0.6-0.1
		c0.3,0,0.6-0.1,1-0.1C215.5,29.4,215.8,29.4,216.1,29.3z"/>
	<path d="M218.3,27.7C218.3,27.6,218.3,27.6,218.3,27.7c0-0.1,0-0.1,0-0.1c0.2-1.1,0.4-2.2,0.6-3.3s0.4-2.2,0.7-3.3
		c0-0.1,0.1-0.2,0.2-0.3c0.1-0.1,0.2-0.2,0.3-0.2s0.3-0.1,0.4-0.1c0.1,0,0.3,0,0.4,0c0.4-0.1,0.8-0.2,1.2-0.3
		c0.4-0.1,0.8-0.1,1.2-0.1c0.3,0,0.5,0,0.8,0.1c0.2,0.1,0.5,0.1,0.7,0.3c0.2,0.1,0.4,0.3,0.6,0.6c0.1,0.2,0.2,0.5,0.3,0.7
		c0,0.3,0.1,0.5,0,0.8c0,0.3-0.1,0.6-0.2,0.9c-0.3,0.9-0.7,1.6-1.4,2.3c-0.6,0.7-1.3,1.2-2.1,1.6c0.5,0.3,0.9,0.7,1.2,1.1
		s0.6,1,0.9,1.5c0.1,0.1,0.1,0.3,0,0.4c-0.1,0.1-0.1,0.2-0.2,0.4c-0.1,0.1-0.2,0.2-0.4,0.3c-0.1,0.1-0.3,0.1-0.4,0.1
		c-0.2,0-0.3-0.1-0.4-0.2c-0.1-0.3-0.3-0.6-0.5-0.9c-0.2-0.3-0.4-0.6-0.6-0.9c-0.2-0.3-0.5-0.5-0.8-0.7c-0.3-0.2-0.6-0.3-1-0.3
		c-0.1,0.4-0.1,0.8-0.2,1.2s-0.1,0.8-0.2,1.2c0,0.2-0.2,0.4-0.4,0.5c-0.2,0.1-0.5,0.2-0.7,0.2c-0.1,0-0.3,0-0.3-0.1
		c-0.1-0.1-0.1-0.2-0.1-0.4c0.1-0.5,0.2-1,0.2-1.5C218.2,28.6,218.2,28.1,218.3,27.7z M223.9,21.5c-0.1-0.2-0.3-0.4-0.5-0.4
		c-0.2-0.1-0.4-0.1-0.7-0.1c-0.3,0-0.6,0-0.9,0.1c-0.3,0.1-0.6,0.2-0.9,0.2c-0.2,0.9-0.4,1.8-0.5,2.6s-0.3,1.7-0.5,2.6
		c0,0,0.1,0,0.2,0c0.4-0.1,0.7-0.2,1-0.4s0.7-0.4,1-0.6c0.3-0.2,0.6-0.5,0.8-0.8c0.2-0.3,0.5-0.6,0.6-1c0.1-0.2,0.2-0.4,0.2-0.6
		c0.1-0.2,0.1-0.4,0.1-0.6c0-0.2,0-0.4,0-0.6C224.1,21.8,224,21.7,223.9,21.5z"/>
	<path d="M231.6,19.9c0.9,0,1.7,0,2.6,0c0.9,0,1.7,0,2.6,0c0.3,0,0.4,0.1,0.5,0.2c0,0.1,0,0.3-0.1,0.4c-0.1,0.1-0.2,0.3-0.4,0.4
		c-0.2,0.1-0.4,0.2-0.6,0.2c-0.3,0-0.6,0-0.9,0s-0.6,0-0.9,0c-0.3,1.5-0.6,3-0.8,4.5c-0.3,1.5-0.6,3-1,4.5c0,0.1-0.1,0.2-0.2,0.3
		s-0.2,0.2-0.3,0.2c-0.1,0.1-0.2,0.1-0.3,0.2s-0.2,0.1-0.3,0.1c-0.1,0-0.3,0-0.3-0.1c-0.1-0.1-0.1-0.2-0.1-0.4
		c0.2-1.6,0.5-3.1,0.9-4.7c0.3-1.6,0.7-3.1,1-4.7c-0.3,0-0.7,0-1,0c-0.3,0-0.6,0-1,0c-0.2,0-0.4-0.1-0.4-0.2c-0.1-0.1,0-0.3,0.1-0.4
		c0.1-0.2,0.2-0.3,0.4-0.4C231.2,20,231.4,19.9,231.6,19.9z"/>
	<path d="M244.8,20.4c-0.2,0.8-0.4,1.6-0.5,2.5c-0.2,0.8-0.3,1.6-0.4,2.5c-0.1,0.8-0.3,1.7-0.4,2.5c-0.1,0.8-0.3,1.6-0.5,2.5
		c0,0.1-0.1,0.2-0.2,0.3s-0.2,0.2-0.3,0.2c-0.1,0.1-0.2,0.1-0.3,0.2c-0.1,0-0.2,0.1-0.3,0.1c-0.1,0-0.2,0-0.3-0.1
		c-0.1-0.1-0.1-0.2-0.1-0.4c0.1-0.6,0.2-1.2,0.3-1.8c0.1-0.6,0.2-1.2,0.3-1.8c-0.6,0-1.2,0.1-1.8,0.1c-0.6,0-1.2,0-1.8,0
		c-0.1,0.5-0.2,1.1-0.3,1.6c-0.1,0.5-0.2,1.1-0.3,1.6c0,0.1-0.1,0.2-0.1,0.3c-0.1,0.1-0.2,0.2-0.3,0.2c-0.1,0.1-0.2,0.1-0.3,0.2
		c-0.1,0-0.2,0.1-0.3,0.1c-0.1,0-0.3,0-0.3-0.1s-0.1-0.2-0.1-0.4c0.3-1.6,0.6-3.3,0.9-4.9c0.3-1.6,0.6-3.3,0.9-5
		c0-0.1,0.1-0.2,0.1-0.3c0.1-0.1,0.2-0.2,0.3-0.2s0.2-0.1,0.3-0.2c0.1,0,0.2-0.1,0.3-0.1c0.1,0,0.3,0,0.3,0.1
		c0.1,0.1,0.1,0.2,0.1,0.4c-0.2,0.9-0.3,1.8-0.5,2.7c-0.2,0.9-0.3,1.8-0.5,2.7c0.6,0,1.2,0,1.8,0c0.6,0,1.2,0,1.8-0.1
		c0.1-0.8,0.3-1.7,0.5-2.5c0.2-0.8,0.4-1.7,0.6-2.5c0-0.1,0.1-0.2,0.2-0.3c0.1-0.1,0.2-0.2,0.3-0.2c0.1-0.1,0.2-0.1,0.3-0.2
		c0.1,0,0.2-0.1,0.3-0.1c0.1,0,0.3,0,0.3,0.1S244.8,20.2,244.8,20.4z"/>
	<path d="M250.4,29.3c0.3,0,0.5,0,0.6,0.1c0.1,0.1,0.1,0.2,0.1,0.4c0,0.2-0.1,0.3-0.3,0.5c-0.1,0.2-0.3,0.3-0.6,0.3
		c-0.5,0.1-1.1,0.2-1.8,0.3c-0.6,0.1-1.2,0.2-1.8,0.2c-0.3,0-0.6,0-0.8-0.1c-0.2,0-0.4-0.1-0.6-0.2s-0.3-0.3-0.3-0.5
		c-0.1-0.2-0.1-0.5-0.1-0.9c0-0.7,0-1.4,0.1-2.1c0.1-0.7,0.2-1.5,0.4-2.2c0.2-0.7,0.3-1.5,0.5-2.2c0.2-0.7,0.4-1.4,0.5-2.1
		c0-0.1,0.1-0.2,0.2-0.3c0.1-0.1,0.2-0.2,0.3-0.2c0.1-0.1,0.2-0.1,0.3-0.1s0.2-0.1,0.3-0.1c0.1,0,0.2,0,0.2,0c0.5,0,0.9,0,1.4,0
		c0.5,0,0.9,0,1.4,0c0.3,0,0.6,0,0.9,0c0.3,0,0.6,0,0.9,0c0.2,0,0.4,0.1,0.4,0.2s0,0.3-0.1,0.4c-0.1,0.1-0.2,0.3-0.4,0.4
		c-0.2,0.1-0.4,0.2-0.5,0.2c-0.7,0.1-1.3,0.1-2,0c-0.7,0-1.3,0-2-0.1c-0.2,0.8-0.3,1.5-0.5,2.2c-0.2,0.7-0.3,1.5-0.4,2.2
		c0.7-0.1,1.5-0.2,2.2-0.2c0.7-0.1,1.5-0.1,2.2-0.1c0.2,0,0.4,0.1,0.4,0.2c0,0.1,0,0.3-0.1,0.4c-0.1,0.1-0.2,0.3-0.4,0.4
		c-0.2,0.1-0.3,0.2-0.5,0.2c-0.7,0.1-1.4,0.1-2,0.1c-0.7,0-1.3,0.1-2,0.2c0,0,0,0.1,0,0.1c0,0,0,0.1,0,0.1c0,0.2-0.1,0.4-0.1,0.7
		s-0.1,0.5-0.1,0.8s0,0.5,0.1,0.7c0.1,0.2,0.2,0.4,0.4,0.5c0.1,0,0.2,0.1,0.3,0.1c0.2,0,0.4,0,0.7-0.1c0.3,0,0.5-0.1,0.6-0.1
		c0.3,0,0.6-0.1,1-0.1C249.8,29.4,250.1,29.4,250.4,29.3z"/>
	<path d="M261.6,29.5c0.2,0,0.4,0.1,0.4,0.2s0,0.3-0.1,0.4c-0.1,0.2-0.2,0.3-0.4,0.4c-0.2,0.1-0.4,0.2-0.6,0.2c-0.6,0-1.2,0-1.7,0
		c-0.6,0-1.1,0.1-1.7,0.2c-0.1,0-0.2,0-0.3,0c-0.1,0-0.2,0-0.2-0.1c-0.1,0-0.1-0.1-0.2-0.2c0-0.1,0-0.1,0-0.2c0.3-1.7,0.6-3.3,0.9-5
		c0.3-1.6,0.7-3.3,1.1-5c0-0.1,0.1-0.2,0.2-0.3s0.2-0.2,0.3-0.2c0.1-0.1,0.2-0.1,0.4-0.2c0.1,0,0.2-0.1,0.3-0.1c0.1,0,0.3,0,0.3,0.1
		s0.1,0.2,0.1,0.4c-0.4,1.6-0.7,3.1-1,4.7c-0.3,1.5-0.6,3.1-0.8,4.7c0.5-0.1,1-0.1,1.6-0.2S261,29.5,261.6,29.5z"/>
	<path d="M268.6,20.2c0.4,0,0.8,0.1,1,0.3c0.3,0.2,0.5,0.5,0.6,0.9c0.1,0.4,0.3,0.7,0.3,1.1c0.1,0.4,0.1,0.8,0.1,1.1
		c0,0.5-0.1,1.1-0.1,1.6c-0.1,0.6-0.2,1.1-0.3,1.7c-0.1,0.6-0.3,1.1-0.4,1.7s-0.3,1.1-0.5,1.6c0,0.1-0.1,0.2-0.2,0.3
		c-0.1,0.1-0.2,0.2-0.3,0.2c-0.1,0.1-0.2,0.1-0.3,0.1c-0.1,0-0.2,0.1-0.3,0.1c-0.1,0-0.2,0-0.3-0.1c-0.1-0.1-0.1-0.2,0-0.4
		c0.1-0.4,0.2-0.8,0.3-1.2c0.1-0.4,0.2-0.8,0.3-1.2c-1.2,0-2.5,0.1-3.7,0.3c-0.1,0.3-0.1,0.6-0.1,0.9c0,0.3-0.1,0.6-0.1,0.9
		c0,0.1,0,0.2-0.1,0.3c-0.1,0.1-0.1,0.2-0.2,0.2c-0.1,0.1-0.2,0.1-0.3,0.1c-0.1,0-0.2,0.1-0.3,0.1c-0.1,0-0.3,0-0.3-0.1
		c-0.1-0.1-0.1-0.2-0.1-0.3c0.1-0.6,0.1-1.1,0.2-1.7c0.1-0.6,0.2-1.1,0.3-1.7c0.1-0.6,0.3-1.1,0.5-1.7c0.2-0.6,0.4-1.1,0.7-1.7
		c0.2-0.4,0.4-0.7,0.7-1.1c0.3-0.4,0.6-0.7,0.9-1.1c0.3-0.3,0.7-0.6,1.1-0.8C267.7,20.4,268.1,20.3,268.6,20.2z M264.8,27.3
		c1.3-0.2,2.5-0.3,3.8-0.3l0.2-1.2c0.1-0.3,0.1-0.6,0.2-1c0.1-0.4,0.1-0.7,0.1-1.1s0-0.7-0.1-1c-0.1-0.3-0.2-0.6-0.4-0.8
		c-0.2-0.2-0.4-0.3-0.6-0.3c-0.2,0-0.4,0.1-0.6,0.2c-0.2,0.2-0.4,0.4-0.6,0.6c-0.2,0.2-0.4,0.5-0.5,0.8c-0.2,0.3-0.3,0.6-0.5,0.9
		c-0.1,0.3-0.3,0.6-0.4,0.8c-0.1,0.2-0.2,0.4-0.2,0.6c-0.1,0.3-0.2,0.6-0.2,0.9C265,26.7,264.9,27,264.8,27.3z"/>
	<path d="M278.1,20.2c0.1,0,0.2,0,0.3,0.1c0.1,0,0.1,0.1,0.2,0.2c0,0.1,0,0.2,0,0.3c0,0.1-0.1,0.2-0.1,0.3c-1,1.5-1.9,2.9-2.9,4.4
		c-1,1.5-1.9,2.9-2.9,4.4c0.6,0,1.1-0.1,1.7-0.1c0.6-0.1,1.1-0.1,1.7-0.1c0.3,0,0.4,0,0.5,0.2c0,0.1,0,0.3-0.1,0.4
		c-0.1,0.2-0.2,0.3-0.4,0.4s-0.4,0.2-0.6,0.2c-0.7,0-1.4,0.1-2.1,0.2c-0.7,0.1-1.4,0.1-2.1,0.2c-0.2,0-0.4-0.1-0.5-0.2
		c-0.1-0.2,0-0.4,0.1-0.6c1-1.5,1.9-2.9,2.9-4.4c1-1.5,1.9-2.9,2.9-4.4c-1.1,0-2.2,0-3.2-0.1c-0.2,0-0.4-0.1-0.4-0.2
		c0-0.1,0-0.3,0-0.4c0.1-0.1,0.2-0.3,0.4-0.4c0.2-0.1,0.3-0.2,0.5-0.1c0.8,0.1,1.6,0.1,2.4,0.1c0.3,0,0.6,0,0.9,0
		C277.5,20.2,277.8,20.2,278.1,20.2z"/>
	<path d="M285.2,20.3c0.1-0.1,0.2-0.2,0.4-0.3c0.2-0.1,0.3-0.1,0.5-0.1c0.1,0,0.2,0,0.3,0c0.1,0,0.2,0.1,0.2,0.1
		c0,0.1,0.1,0.1,0,0.2c0,0.1-0.1,0.2-0.2,0.3c-0.8,1-1.5,2-2.2,3c-0.7,1-1.3,2.1-1.9,3.2c0,0.1-0.1,0.1-0.1,0.1c0,0,0,0,0,0
		c-0.1,0.5-0.2,1.1-0.3,1.6c-0.1,0.5-0.2,1.1-0.3,1.6c0,0.1-0.1,0.2-0.1,0.3c-0.1,0.1-0.2,0.2-0.3,0.3c-0.1,0.1-0.2,0.1-0.3,0.2
		c-0.1,0-0.2,0.1-0.4,0.1s-0.2,0-0.3-0.1c-0.1-0.1-0.1-0.1-0.1-0.3c0-0.3,0-0.6,0.1-0.9c0.1-0.3,0.2-0.6,0.2-0.9
		c0-0.3,0.1-0.6,0.2-0.9c0.1-0.3,0.1-0.6,0.2-0.9c-0.3-1-0.5-2-0.7-3c-0.2-1-0.4-2-0.7-3.1c0-0.1,0-0.2,0-0.3
		c0.1-0.1,0.1-0.2,0.2-0.3c0.1-0.1,0.2-0.1,0.4-0.2c0.1,0,0.3-0.1,0.4-0.1c0.1,0,0.2,0,0.3,0.1c0.1,0.1,0.1,0.1,0.2,0.2
		c0.2,0.8,0.3,1.6,0.5,2.3c0.2,0.8,0.4,1.5,0.6,2.3c0.5-0.8,1-1.6,1.5-2.4C284.1,21.8,284.6,21.1,285.2,20.3z"/>
	<path d="M293.1,20c0.6,0.1,1.3,0.4,1.9,0.8c0.6,0.4,1.2,0.8,1.6,1.4s0.8,1.1,1,1.8c0.2,0.7,0.2,1.4-0.1,2.2c-0.2,0.8-0.6,1.5-1.1,2
		c-0.5,0.6-1.1,1.1-1.7,1.5c-0.6,0.4-1.3,0.7-2.1,0.9c-0.7,0.2-1.5,0.3-2.2,0.4c-0.2,0-0.3,0-0.4,0c-0.1,0-0.2-0.1-0.3-0.1
		c0-0.1-0.1-0.1,0-0.2c0,0,0,0,0-0.1c0-1.6,0.2-3.2,0.6-4.9c0.4-1.7,0.8-3.3,1.3-4.9c0-0.1,0.1-0.3,0.2-0.4c0.1-0.1,0.2-0.2,0.3-0.2
		c0.1-0.1,0.2-0.1,0.4-0.1C292.8,20,293,20,293.1,20z M291.4,29.7c0.6-0.1,1.1-0.2,1.7-0.4c0.6-0.2,1.1-0.5,1.5-0.9
		c0.5-0.4,0.8-0.8,1.1-1.3c0.3-0.5,0.4-1.1,0.4-1.7c0-0.5-0.1-0.9-0.3-1.3c-0.2-0.4-0.4-0.8-0.7-1.1c-0.3-0.3-0.7-0.6-1.1-0.9
		c-0.4-0.3-0.8-0.5-1.2-0.6c-0.4,1.4-0.7,2.8-1,4.1C291.7,26.9,291.5,28.3,291.4,29.7z"/>
	<path d="M299.5,30.3c-0.3-0.3-0.6-0.6-0.8-1c-0.2-0.4-0.3-0.8-0.3-1.2c0-0.5,0-0.9,0.1-1.4c0.1-0.5,0.2-1,0.4-1.5
		c0.2-0.5,0.4-1,0.6-1.4s0.4-0.9,0.6-1.2c0,0,0,0,0,0c0.2-0.4,0.4-0.7,0.7-1s0.6-0.6,1-0.8c0.3-0.2,0.7-0.4,1.1-0.5s0.7-0.2,1.1-0.2
		c0.5,0,1,0.1,1.4,0.5c0.5,0.4,0.9,0.9,1.2,1.5s0.4,1.2,0.4,1.9c0,0.7-0.1,1.4-0.3,2.1s-0.5,1.4-0.8,2c-0.2,0.3-0.3,0.6-0.5,0.9
		c-0.2,0.3-0.4,0.6-0.7,0.9c-0.2,0.3-0.5,0.5-0.8,0.8c-0.3,0.2-0.6,0.4-0.9,0.5c-0.2,0.1-0.3,0.1-0.5,0.1c-0.2,0-0.4,0-0.5,0
		c-0.5,0-0.9-0.1-1.3-0.2C300.2,30.7,299.8,30.5,299.5,30.3z M303.1,21.4c-0.4,0.1-0.7,0.2-0.9,0.5c-0.2,0.2-0.5,0.5-0.7,0.8
		c-0.2,0.4-0.4,0.8-0.6,1.2c-0.2,0.4-0.4,0.9-0.5,1.3c-0.1,0.4-0.2,0.9-0.3,1.3c-0.1,0.4-0.1,0.9-0.1,1.3c0,0.5,0.2,0.9,0.5,1.2
		c0.3,0.3,0.6,0.5,1.1,0.6c0.2,0.1,0.4,0.1,0.5,0.1c0.2,0,0.5,0,0.7-0.1s0.4-0.2,0.6-0.4c0.2-0.2,0.3-0.3,0.5-0.6
		c0.2-0.2,0.3-0.4,0.5-0.7c0.3-0.5,0.5-0.9,0.7-1.4c0.2-0.5,0.3-1,0.4-1.4c0.1-0.5,0-0.9,0-1.4c-0.1-0.5-0.2-0.9-0.5-1.3
		c-0.1-0.2-0.2-0.3-0.3-0.5c-0.1-0.1-0.2-0.3-0.4-0.3c-0.1-0.1-0.3-0.2-0.5-0.2S303.4,21.3,303.1,21.4z"/>
	<path d="M314.2,25.1c0.2,0,0.4,0,0.6,0c0.2,0,0.3,0.1,0.4,0.3c0.1,0.2,0.1,0.5,0.1,0.8c0,0.3-0.1,0.6-0.2,0.9
		c-0.1,0.3-0.3,0.6-0.4,0.9s-0.3,0.5-0.5,0.7c-0.2,0.3-0.5,0.6-0.8,0.8c-0.3,0.3-0.6,0.5-1,0.7c-0.3,0.2-0.7,0.3-1,0.5
		c-0.4,0.1-0.7,0.2-1,0.2c-0.4,0-0.7-0.1-1-0.2c-0.3-0.1-0.6-0.4-0.8-0.8c-0.3-0.5-0.5-1.1-0.6-1.8s0-1.4,0.2-2.1
		c0.2-0.7,0.4-1.5,0.7-2.2c0.3-0.7,0.7-1.3,1.1-1.9c0.2-0.3,0.4-0.5,0.7-0.8c0.3-0.2,0.6-0.4,0.9-0.6c0.3-0.2,0.6-0.3,0.9-0.4
		c0.3-0.1,0.6-0.1,0.9-0.1c0.4,0,0.8,0.1,1.1,0.4c0.3,0.3,0.5,0.7,0.5,1.3c0,0.1,0,0.2-0.1,0.3s-0.1,0.2-0.2,0.2
		c-0.1,0.1-0.2,0.1-0.3,0.2c-0.1,0-0.2,0.1-0.3,0.1c-0.1,0-0.3,0-0.4-0.1s-0.2-0.2-0.2-0.4c-0.1-0.5-0.3-0.8-0.6-0.8
		c-0.3,0-0.7,0.2-1.1,0.5c-0.3,0.4-0.6,0.8-0.9,1.2c-0.2,0.4-0.4,0.9-0.6,1.4c-0.2,0.6-0.4,1.2-0.5,1.7c-0.1,0.6-0.2,1.2-0.1,1.7
		c0,0.2,0.1,0.5,0.2,0.7c0.1,0.2,0.2,0.4,0.3,0.6c0.1,0.2,0.3,0.3,0.4,0.4s0.3,0.1,0.6,0.1c0.2,0,0.3,0,0.5-0.1
		c0.2-0.1,0.4-0.2,0.6-0.3s0.4-0.3,0.6-0.5c0.2-0.2,0.4-0.5,0.5-0.7c0.2-0.3,0.3-0.5,0.4-0.8c0.1-0.3,0.1-0.5,0.1-0.8
		c-0.4,0-0.8,0.1-1.3,0.2s-0.9,0.2-1.2,0.3c-0.3,0.1-0.5,0-0.6-0.1c-0.1-0.1-0.1-0.2-0.1-0.4c0-0.2,0.1-0.3,0.3-0.5
		c0.1-0.2,0.3-0.3,0.6-0.3c0.5-0.1,1-0.2,1.5-0.3S313.7,25.1,314.2,25.1z"/>
</g>
</svg>
