<?xml version="1.0" encoding="utf-8"?>
<!-- Generator: Adobe Illustrator 26.1.0, SVG Export Plug-In . SVG Version: 6.00 Build 0)  -->
<svg version="1.1" id="Layer_1" xmlns="http://www.w3.org/2000/svg" xmlns:xlink="http://www.w3.org/1999/xlink" x="0px" y="0px"
	 viewBox="0 0 372 36.9" style="enable-background:new 0 0 372 36.9;" xml:space="preserve">
<g>
	<path d="M6,9.2c-0.2,0-0.4,0-0.6,0c-0.2,0-0.4,0-0.6,0c-0.1,0-0.3,0-0.4-0.1C4.2,9,4.2,8.9,4.2,8.7c0-0.2,0.1-0.5,0.3-0.6
		c0.2-0.2,0.4-0.3,0.7-0.3c0.2,0,0.3,0,0.5,0s0.4,0,0.5,0c0.1-0.5,0.2-1,0.2-1.6c0.1-0.5,0.1-1,0.2-1.6c0-0.3,0.2-0.5,0.4-0.6
		c0.2-0.2,0.5-0.2,0.7-0.2c0.2,0,0.3,0,0.4,0.1C8.4,4,8.4,4.1,8.4,4.3v0c0,0.6-0.1,1.1-0.2,1.7C8.2,6.6,8.1,7.1,8,7.7
		c0.3,0,0.6,0,0.9,0c0.3,0,0.6,0,0.9,0c0.2,0,0.3,0.1,0.5,0.1c0.1,0.1,0.2,0.2,0.2,0.4c0,0.2-0.1,0.5-0.3,0.6
		c-0.2,0.2-0.4,0.3-0.7,0.3c-0.3,0-0.6,0-0.9,0c-0.3,0-0.6,0-0.9,0c0,0.3-0.1,0.6-0.1,0.9c0,0.3,0,0.6,0,0.9c0,0.3,0,0.6,0,0.9
		c0,0.1,0,0.2,0.1,0.4s0.1,0.4,0.2,0.6c0.1,0.2,0.2,0.4,0.2,0.5c0.1,0.2,0.2,0.2,0.3,0.2c0,0,0.1,0,0.1,0c0,0,0.1,0,0.1-0.1
		c0.1-0.1,0.2-0.2,0.4-0.3s0.3-0.1,0.4-0.1c0.1,0,0.2,0,0.3,0s0.2,0.1,0.3,0.1c0.1,0.1,0.1,0.1,0.2,0.2c0.1,0.1,0.1,0.2,0.1,0.3
		c0,0.1,0,0.2-0.1,0.3c-0.1,0.1-0.1,0.2-0.1,0.2c-0.2,0.2-0.4,0.4-0.7,0.6s-0.6,0.2-1,0.2c-0.3,0-0.6,0-0.8-0.1
		c-0.2-0.1-0.5-0.2-0.7-0.4c-0.2-0.2-0.4-0.4-0.5-0.6c-0.1-0.2-0.2-0.5-0.3-0.7C6.1,12.9,6,12.5,6,12.1S5.9,11.4,5.9,11
		c0-0.3,0-0.6,0-0.9C6,9.8,6,9.5,6,9.2z"/>
	<path d="M13.7,8.3c0.2-0.2,0.5-0.4,0.8-0.6c0.3-0.1,0.6-0.2,1-0.2c0.4,0,0.8,0.1,1.1,0.3c0.3,0.2,0.6,0.5,0.8,0.8
		c0.2,0.3,0.4,0.7,0.5,1.1c0.1,0.4,0.2,0.8,0.3,1.2c0.1,0.4,0.1,0.8,0.2,1.2s0,0.8,0,1.1c0,0.1,0,0.3,0,0.5c0,0.2,0,0.3,0,0.5
		c-0.1,0.3-0.2,0.5-0.4,0.6c-0.2,0.2-0.5,0.2-0.7,0.2c-0.1,0-0.3,0-0.4-0.1c-0.1,0-0.1-0.1-0.2-0.2s-0.1-0.2-0.1-0.2
		c0-0.1,0-0.2,0-0.2c0-0.1,0-0.3,0-0.6s-0.1-0.6-0.1-1c0-0.4-0.1-0.8-0.2-1.2c-0.1-0.4-0.1-0.8-0.2-1.1c-0.1-0.3-0.2-0.6-0.3-0.8
		c-0.1-0.2-0.3-0.3-0.4-0.3c-0.2,0-0.3,0.1-0.5,0.3s-0.3,0.5-0.4,0.8c-0.2,0.5-0.3,1.1-0.4,1.6c-0.1,0.6-0.2,1.1-0.3,1.7
		c0,0.1,0,0.3,0,0.4c0,0.1,0,0.3-0.1,0.4c-0.1,0.2-0.2,0.4-0.4,0.5c-0.2,0.1-0.4,0.2-0.7,0.2c-0.2,0-0.4,0-0.5-0.1s-0.2-0.3-0.2-0.5
		c0-0.3,0-0.6,0-0.9c0-0.3,0-0.6,0-0.9l0.1-6.5c0-0.2,0-0.4,0-0.6s0-0.4,0-0.6c0-0.3,0.1-0.5,0.4-0.6c0.2-0.2,0.5-0.2,0.7-0.2
		c0.2,0,0.4,0.1,0.5,0.1c0.1,0.1,0.2,0.2,0.2,0.5c0,0.6,0,1.2,0,1.8C13.7,7.1,13.7,7.7,13.7,8.3z"/>
	<path d="M21.4,12.1c0,0.2,0,0.4,0.1,0.5c0,0.2,0.1,0.3,0.2,0.5c0.1,0.1,0.2,0.2,0.3,0.3c0.1,0.1,0.3,0.1,0.5,0.1
		c0.2,0,0.4,0,0.6-0.1s0.4-0.1,0.6-0.2c0.2-0.1,0.3-0.2,0.5-0.3c0.1-0.1,0.3-0.2,0.3-0.4c0.2-0.3,0.5-0.5,0.9-0.5
		c0.2,0,0.4,0.1,0.5,0.1c0.2,0.1,0.2,0.3,0.2,0.5c0,0.1,0,0.2-0.1,0.3c-0.1,0.3-0.3,0.6-0.6,0.9c-0.3,0.2-0.6,0.5-0.9,0.6
		c-0.3,0.2-0.7,0.3-1,0.4c-0.4,0.1-0.7,0.1-1.1,0.1c-0.9,0-1.6-0.2-2.1-0.7s-0.8-1.1-0.8-2c0-0.2,0-0.4,0-0.6c0-0.2,0.1-0.4,0.1-0.5
		c0,0,0-0.1-0.1-0.1c0,0,0-0.1,0-0.1c0-0.1,0-0.3,0.1-0.4c0.1-0.1,0.2-0.2,0.3-0.2c0.1-0.3,0.3-0.6,0.6-1c0.2-0.3,0.5-0.6,0.8-0.9
		c0.3-0.3,0.6-0.5,1-0.7c0.4-0.2,0.8-0.3,1.2-0.3c0.3,0,0.5,0,0.8,0.1c0.3,0.1,0.5,0.2,0.7,0.3c0.2,0.1,0.4,0.3,0.5,0.5
		c0.1,0.2,0.2,0.5,0.2,0.8c0,0.2,0,0.4-0.1,0.7c-0.1,0.2-0.2,0.4-0.3,0.6c-0.2,0.3-0.4,0.5-0.6,0.7c-0.3,0.2-0.5,0.4-0.8,0.5
		c-0.3,0.1-0.6,0.2-0.9,0.3c-0.3,0.1-0.6,0.1-1,0.1c-0.1,0-0.2,0-0.3,0C21.6,12.2,21.5,12.1,21.4,12.1z M21.8,10.6
		c0.1,0,0.2,0,0.2,0c0.1,0,0.2,0,0.2,0c0.2,0,0.4,0,0.6,0c0.2,0,0.4-0.1,0.5-0.2c0.2-0.1,0.3-0.2,0.4-0.3c0.1-0.1,0.1-0.3,0.1-0.4
		c0-0.2-0.1-0.3-0.2-0.4c-0.1-0.1-0.2-0.2-0.4-0.2c-0.2,0-0.3,0.1-0.5,0.2c-0.2,0.1-0.3,0.2-0.4,0.4c-0.1,0.2-0.2,0.3-0.4,0.5
		S21.8,10.5,21.8,10.6z"/>
	<path d="M35.4,14.8c-0.4,0.2-0.8,0.3-1.3,0.3c-0.5,0-0.9-0.1-1.2-0.3c-0.3-0.2-0.6-0.5-0.9-0.8s-0.4-0.7-0.5-1.1
		c-0.1-0.4-0.2-0.8-0.2-1.1c0-0.5,0.1-1,0.3-1.5s0.4-1,0.7-1.4s0.7-0.8,1.1-1c0.4-0.3,0.9-0.4,1.5-0.4c0.4,0,0.8,0.1,1.1,0.3
		s0.6,0.4,0.8,0.6c0.2,0.3,0.4,0.5,0.6,0.9s0.3,0.6,0.4,0.9c0.2,0.1,0.3,0.3,0.3,0.5c0,0,0,0.1,0,0.1c0,0,0,0.1,0,0.1
		c-0.1,0.5-0.2,1.1-0.3,1.6c-0.1,0.5-0.2,1.1-0.3,1.6c0,0.2,0,0.5-0.1,0.8c0,0.2-0.1,0.5-0.1,0.8c0,0.1,0,0.2,0,0.3
		c0,0.1,0,0.3,0.1,0.4c0,0,0,0.1,0,0.1c0,0,0,0.1,0.1,0.1c0,0,0,0.1,0.1,0.1c0,0,0.1,0.1,0.1,0.1c0,0,0,0,0.1-0.1c0,0,0,0,0-0.1
		c0,0,0,0,0-0.1c0.1-0.2,0.3-0.3,0.4-0.4c0.1-0.1,0.3-0.1,0.6-0.1c0.1,0,0.1,0,0.2,0c0.1,0,0.2,0,0.2,0.1c0.1,0,0.1,0.1,0.2,0.2
		c0,0.1,0.1,0.2,0.1,0.3c0,0.1,0,0.1,0,0.2c0,0.1,0,0.1-0.1,0.2c-0.1,0.2-0.2,0.4-0.3,0.5s-0.3,0.3-0.5,0.4
		c-0.2,0.1-0.4,0.2-0.6,0.3c-0.2,0.1-0.4,0.1-0.7,0.1c-0.4,0-0.7-0.1-1-0.3c-0.3-0.2-0.5-0.4-0.6-0.7c-0.2-0.3-0.3-0.6-0.3-0.9
		c-0.1-0.3-0.1-0.7-0.1-1c0-0.1,0-0.2,0-0.3S35.4,14.9,35.4,14.8z M35.4,12.9c0.2-0.3,0.4-0.6,0.5-1c0.1-0.4,0.2-0.7,0.3-1.1
		c0-0.1-0.1-0.3-0.2-0.6c-0.1-0.2-0.2-0.4-0.3-0.7c-0.1-0.2-0.3-0.4-0.4-0.5c-0.2-0.2-0.3-0.2-0.5-0.2c-0.2,0-0.3,0-0.4,0.1
		c-0.1,0.1-0.3,0.2-0.4,0.3c-0.3,0.3-0.5,0.6-0.6,1c-0.1,0.4-0.2,0.8-0.2,1.2c0,0.2,0,0.4,0.1,0.6c0.1,0.2,0.1,0.5,0.2,0.7
		c0.1,0.2,0.2,0.4,0.4,0.5c0.2,0.1,0.4,0.2,0.6,0.2c0.2,0,0.3-0.1,0.5-0.2C35.1,13.2,35.2,13,35.4,12.9z"/>
	<path d="M44.2,13.2c-0.1,0.2-0.2,0.5-0.3,0.7s-0.3,0.4-0.5,0.6c-0.2,0.2-0.4,0.3-0.6,0.4c-0.2,0.1-0.5,0.2-0.8,0.2
		c-0.6,0-1.1-0.2-1.5-0.5s-0.6-0.7-0.8-1.2c-0.2-0.5-0.3-0.9-0.4-1.4s-0.1-1-0.1-1.3c0-0.2,0-0.4,0-0.6c0-0.2,0-0.4,0-0.6
		c0-0.2,0-0.4,0.1-0.6c0-0.2,0.1-0.4,0.1-0.6c0.1-0.2,0.2-0.4,0.4-0.5s0.4-0.2,0.6-0.2c0.2,0,0.3,0,0.5,0.1c0.2,0.1,0.2,0.2,0.2,0.4
		c0,0.1,0,0.1,0,0.2C41.2,8.7,41.1,9,41,9.3C41,9.6,41,9.9,41,10.3c0,0.4,0,0.9,0.1,1.3c0,0.1,0.1,0.3,0.1,0.5
		c0.1,0.2,0.1,0.4,0.2,0.6c0.1,0.2,0.2,0.4,0.3,0.5c0.1,0.2,0.2,0.2,0.4,0.2c0.1,0,0.2,0,0.3-0.1c0.1-0.1,0.2-0.2,0.2-0.3
		s0.1-0.2,0.2-0.4c0-0.1,0.1-0.2,0.1-0.3c0.1-0.3,0.2-0.6,0.3-0.9s0.1-0.5,0.2-0.7c0.1-0.3,0.1-0.5,0.2-0.8c0.1-0.3,0.1-0.5,0.2-0.8
		c0-0.1,0-0.3,0.1-0.4s0-0.3,0.1-0.4C43.8,8,44,7.9,44.2,7.7s0.4-0.2,0.6-0.2c0.2,0,0.4,0,0.5,0.1c0.1,0.1,0.2,0.2,0.2,0.4
		c0,0.3,0,0.5,0,0.8s0,0.5,0,0.8c0,0.4,0,0.8,0.1,1.1c0,0.4,0.1,0.7,0.1,1c0.1,0.3,0.2,0.7,0.3,1c0.1,0.3,0.3,0.7,0.5,1
		c0,0,0,0.1,0.1,0.1c0,0,0,0.1,0,0.1c0,0.1,0,0.2-0.1,0.3c-0.1,0.1-0.2,0.2-0.3,0.3c-0.1,0.1-0.2,0.1-0.4,0.2S45.7,15,45.6,15
		c-0.2,0-0.3-0.1-0.5-0.2s-0.3-0.3-0.4-0.5c-0.1-0.2-0.2-0.4-0.3-0.6C44.3,13.5,44.2,13.3,44.2,13.2z"/>
	<path d="M49.3,15c-0.2-0.1-0.4-0.2-0.6-0.4c-0.2-0.2-0.3-0.3-0.4-0.5c-0.1-0.2-0.2-0.4-0.2-0.6c0-0.2-0.1-0.4-0.1-0.6
		c-0.1-0.4-0.1-0.9-0.1-1.3s0-0.8,0-1.3l0-1.2V8.5c0-0.1,0-0.3,0.1-0.4c0.1-0.1,0.2-0.2,0.3-0.3c0.1-0.1,0.2-0.1,0.4-0.2
		s0.3-0.1,0.4-0.1c0.2,0,0.4,0.1,0.5,0.2s0.2,0.3,0.2,0.5c0,0.4,0,0.7,0,1c0,0.3,0,0.7,0,1c0,0.2,0,0.3,0,0.5c0,0.2,0,0.3,0,0.5
		c0,0.2,0,0.4,0,0.7c0,0.2,0,0.5,0.1,0.7s0.1,0.4,0.2,0.6c0.1,0.2,0.2,0.3,0.4,0.4c0.1,0,0.2,0.1,0.2,0.2c0.1,0.1,0.1,0.2,0.1,0.3
		c0,0.1,0,0.2-0.1,0.4c-0.1,0.1-0.2,0.2-0.3,0.3C50.2,14.9,50.1,15,50,15s-0.2,0.1-0.4,0.1C49.5,15.1,49.4,15.1,49.3,15z M48,6.4
		c0-0.1,0-0.2,0-0.2c0-0.1,0-0.2,0.1-0.3c0.1-0.1,0.1-0.2,0.2-0.2c0.1-0.1,0.2-0.1,0.3-0.2s0.2-0.1,0.3-0.1c0.3,0,0.4,0.1,0.6,0.2
		c0.1,0.1,0.2,0.3,0.2,0.5c0,0.2-0.1,0.4-0.3,0.6S49,7,48.8,7c-0.1,0-0.3,0-0.5-0.1C48.1,6.8,48,6.6,48,6.4z"/>
	<path d="M51.5,12.2c0-0.4,0.1-0.9,0.2-1.4c0.2-0.5,0.4-1,0.7-1.4c0.3-0.4,0.7-0.8,1.1-1.1c0.4-0.3,1-0.4,1.5-0.4
		c0.6,0,1.1,0.2,1.5,0.5c0.4,0.3,0.7,0.8,0.9,1.3c0,0.1,0,0.1,0,0.2c0,0.1,0,0.2-0.1,0.3c-0.1,0.1-0.1,0.2-0.3,0.3
		c-0.1,0.1-0.2,0.1-0.3,0.2c-0.1,0-0.2,0.1-0.3,0.1c-0.3,0-0.5-0.1-0.6-0.4c-0.1-0.2-0.3-0.5-0.4-0.6c-0.2-0.2-0.4-0.3-0.7-0.3
		c-0.2,0-0.5,0.1-0.7,0.3s-0.4,0.4-0.5,0.7c-0.1,0.3-0.2,0.6-0.3,0.9c-0.1,0.3-0.1,0.6-0.1,0.8c0,0.3,0.1,0.5,0.2,0.7
		s0.3,0.4,0.5,0.5c0.2,0.1,0.4,0.2,0.7,0.3c0.3,0.1,0.5,0.1,0.8,0.1c0.5,0,1-0.1,1.4-0.3c0.1,0,0.2-0.1,0.2-0.1c0.1,0,0.2,0,0.3,0
		c0.1,0,0.2,0,0.3,0s0.2,0.1,0.3,0.1c0.1,0.1,0.2,0.1,0.2,0.2c0.1,0.1,0.1,0.2,0.1,0.3c0,0.1,0,0.3-0.1,0.4s-0.2,0.2-0.3,0.2
		c-0.4,0.2-0.8,0.4-1.3,0.5c-0.5,0.1-1,0.2-1.4,0.2c-0.5,0-0.9-0.1-1.4-0.2c-0.4-0.1-0.8-0.3-1.2-0.5c-0.3-0.2-0.6-0.5-0.8-0.9
		C51.6,13.1,51.5,12.7,51.5,12.2z"/>
	<path d="M61.8,12.3c0,0.3,0,0.6,0,0.9s0,0.6,0,0.9c0,0.3-0.1,0.5-0.3,0.6c-0.2,0.2-0.4,0.2-0.7,0.2c-0.2,0-0.4,0-0.5-0.1
		c-0.1-0.1-0.2-0.2-0.2-0.4c0-0.2-0.1-0.4-0.1-0.5c0-0.2,0-0.4-0.1-0.5c0-0.4-0.1-0.8-0.1-1.2c0-0.4,0-0.8,0-1.2
		c0-0.7,0-1.5,0.1-2.2C60,8.1,60,7.3,60.1,6.6c0-0.3,0.1-0.6,0.1-0.9s0.1-0.6,0.1-0.9c0-0.2,0.2-0.4,0.4-0.5
		c0.2-0.1,0.4-0.2,0.6-0.2c0.5,0,0.8,0.3,0.8,0.8c-0.1,0.8-0.2,1.7-0.2,2.5c-0.1,0.8-0.1,1.7-0.1,2.5c0.3-0.2,0.7-0.4,1-0.7
		C63,9,63.3,8.7,63.6,8.4c0.1-0.1,0.2-0.2,0.2-0.3S64,8,64,7.9c0.1-0.1,0.2-0.2,0.3-0.2c0.1-0.1,0.3-0.1,0.4-0.1
		c0.2,0,0.3,0.1,0.5,0.2c0.2,0.1,0.3,0.3,0.3,0.5c0,0.2-0.1,0.4-0.3,0.7s-0.5,0.6-0.8,0.8c-0.3,0.3-0.6,0.5-0.9,0.8
		c-0.3,0.2-0.5,0.4-0.7,0.5c0.5,0.3,1,0.6,1.5,0.9s0.9,0.7,1.3,1.1c0,0.1,0.1,0.1,0.1,0.1c0,0,0.1,0.1,0.1,0.1
		c0,0.1,0.1,0.1,0.1,0.2s0.1,0.1,0.1,0.2c0,0.1,0,0.2-0.1,0.3c-0.1,0.1-0.2,0.2-0.3,0.2c-0.1,0.1-0.2,0.1-0.4,0.1
		c-0.1,0-0.2,0.1-0.3,0.1c-0.2,0-0.4-0.1-0.5-0.2c-0.1,0-0.1-0.1-0.2-0.2c-0.1-0.1-0.1-0.1-0.2-0.2c-0.4-0.3-0.7-0.6-1.1-0.9
		C62.6,12.8,62.2,12.6,61.8,12.3z"/>
	<path d="M72.7,15c-0.1,0-0.1,0-0.2,0c-0.1,0-0.1,0-0.2,0c-0.2,0-0.4-0.1-0.5-0.2c-0.1-0.1-0.2-0.2-0.2-0.4
		c-0.1-0.2-0.1-0.4-0.1-0.7c0-0.2,0-0.5-0.1-0.7c-0.1-1.1-0.1-2.2-0.1-3.3c0-0.5,0-0.9,0-1.4c0-0.4,0-0.9,0.1-1.4c0-0.2,0-0.5,0-0.7
		c0-0.2,0-0.5,0.1-0.7c0-0.3,0.2-0.5,0.4-0.6C72.1,5,72.3,5,72.6,5c0.2,0,0.3,0,0.4,0.1c0.1,0.1,0.2,0.2,0.2,0.4v0
		c0,0.4,0,0.8-0.1,1.2c0,0.4,0,0.8,0,1.2c0,0.2,0,0.3,0,0.5s0,0.4,0,0.5c0.3-0.3,0.7-0.5,1.2-0.8C74.8,8.1,75.2,8,75.7,8
		c0.4,0,0.8,0.1,1.2,0.3s0.6,0.5,0.8,0.8c0.2,0.3,0.4,0.7,0.5,1.1c0.1,0.4,0.2,0.7,0.2,1.1c0,0.6-0.1,1.1-0.4,1.6
		c-0.3,0.5-0.6,0.9-1.1,1.2c-0.4,0.3-0.9,0.6-1.5,0.8c-0.6,0.2-1.1,0.3-1.7,0.3C73.4,15.1,73,15.1,72.7,15z M73.3,13.6
		c0.1,0,0.2,0,0.3,0c0.1,0,0.2,0,0.3,0c0.4,0,0.7-0.1,1-0.2c0.3-0.1,0.6-0.3,0.9-0.5c0.3-0.2,0.5-0.4,0.6-0.7
		c0.2-0.3,0.2-0.6,0.2-0.9c0-0.2,0-0.4-0.1-0.6c-0.1-0.2-0.1-0.4-0.3-0.6C76.2,10,76,9.8,75.9,9.7c-0.2-0.1-0.3-0.2-0.5-0.2
		c-0.2,0-0.4,0.1-0.6,0.2c-0.2,0.1-0.4,0.3-0.6,0.4c-0.2,0.2-0.4,0.4-0.5,0.6s-0.3,0.4-0.4,0.6c0,0,0,0,0,0c0,0,0,0,0,0
		c0,0.4,0,0.8,0.1,1.1C73.3,12.8,73.3,13.2,73.3,13.6z"/>
	<path d="M81.2,8.3c0.2-0.2,0.4-0.3,0.6-0.4s0.5-0.2,0.8-0.2c0.2,0,0.4,0,0.6,0.1c0.2,0.1,0.4,0.2,0.5,0.3c0.2,0.1,0.3,0.3,0.4,0.5
		c0.1,0.2,0.3,0.3,0.4,0.5c0,0.1,0.1,0.1,0.1,0.2c0,0.1,0,0.1,0,0.2c0,0.1,0,0.2-0.1,0.4c-0.1,0.1-0.2,0.2-0.3,0.3s-0.2,0.1-0.3,0.2
		c-0.1,0-0.2,0.1-0.4,0.1c-0.2,0-0.3,0-0.5-0.1c-0.1-0.1-0.2-0.2-0.3-0.4c0,0,0-0.1-0.1-0.1c0,0,0-0.1-0.1-0.1
		c0-0.1-0.1-0.1-0.1-0.2c-0.1,0-0.1-0.1-0.2-0.1c-0.1,0-0.2,0.1-0.3,0.2c-0.1,0.1-0.2,0.3-0.2,0.5c-0.1,0.2-0.1,0.4-0.2,0.5
		c0,0.2-0.1,0.3-0.1,0.4c-0.1,0.4-0.1,0.7-0.1,1.1s0,0.7,0,1.1c0,0.2,0,0.3,0,0.5c0,0.2,0,0.3,0,0.5c0,0.1,0,0.2-0.1,0.4
		c-0.1,0.1-0.2,0.2-0.3,0.3S80.8,15,80.7,15s-0.3,0.1-0.4,0.1c-0.2,0-0.4-0.1-0.5-0.2s-0.2-0.3-0.2-0.4c0-0.4-0.1-0.8-0.1-1.3
		c0-0.4,0-0.8-0.1-1.3c0-0.6,0-1.2-0.1-1.8c0-0.6,0-1.2,0-1.8c0-0.1,0-0.3,0.1-0.4s0.2-0.2,0.3-0.3s0.2-0.1,0.4-0.2
		c0.1,0,0.3-0.1,0.4-0.1c0.3,0,0.4,0.1,0.5,0.2C81.1,7.9,81.2,8.1,81.2,8.3z"/>
	<path d="M88.2,15.1c-0.5,0-1-0.1-1.4-0.3s-0.7-0.5-1-0.8c-0.3-0.3-0.5-0.7-0.6-1.1s-0.2-0.8-0.2-1.3c0-0.3,0-0.7,0.1-1
		s0.2-0.7,0.4-1c0.2-0.3,0.4-0.6,0.6-0.9s0.6-0.5,0.9-0.7c0.1,0,0.1,0,0.1,0c0,0,0,0,0,0c0,0,0,0,0,0c0.2-0.1,0.5-0.2,0.7-0.2
		c0.2-0.1,0.5-0.1,0.8-0.1c0.5,0,1,0.1,1.4,0.3c0.4,0.2,0.8,0.5,1.1,0.8s0.5,0.7,0.7,1.1c0.2,0.4,0.2,0.9,0.2,1.3
		c0,0.5-0.1,1-0.3,1.5c-0.2,0.5-0.5,0.9-0.9,1.3c-0.4,0.4-0.8,0.6-1.3,0.9C89.3,15,88.8,15.1,88.2,15.1z M88.5,13.6
		c0.3,0,0.5-0.1,0.8-0.2c0.2-0.1,0.4-0.3,0.6-0.5s0.3-0.4,0.4-0.7c0.1-0.3,0.1-0.5,0.1-0.8s0-0.5-0.1-0.8c-0.1-0.3-0.2-0.5-0.4-0.7
		c-0.2-0.2-0.4-0.4-0.6-0.5c-0.2-0.1-0.5-0.2-0.8-0.2c-0.2,0-0.4,0.1-0.7,0.2s-0.4,0.3-0.5,0.5c-0.1,0.2-0.3,0.4-0.4,0.7
		c-0.1,0.2-0.1,0.5-0.1,0.7c0,0.3,0,0.5,0.1,0.8c0.1,0.3,0.1,0.5,0.3,0.8c0.1,0.2,0.3,0.4,0.5,0.6C88,13.5,88.2,13.6,88.5,13.6z"/>
	<path d="M98,13.5c-0.1,0.2-0.2,0.4-0.4,0.6c-0.1,0.2-0.3,0.4-0.5,0.5s-0.4,0.3-0.6,0.4c-0.2,0.1-0.5,0.1-0.7,0.1
		c-0.4,0-0.7-0.1-1-0.2c-0.3-0.1-0.5-0.3-0.7-0.5c-0.2-0.2-0.3-0.5-0.4-0.8c-0.1-0.3-0.2-0.6-0.3-0.9c-0.1-0.3-0.1-0.6-0.1-0.9
		s0-0.5,0-0.8c0-0.2,0-0.4,0-0.7c0-0.2,0-0.5,0-0.7c0-0.2,0-0.5,0.1-0.7c0-0.2,0.1-0.5,0.1-0.7c0-0.2,0.2-0.4,0.4-0.5
		c0.2-0.1,0.4-0.2,0.6-0.2c0.2,0,0.4,0.1,0.5,0.1c0.2,0.1,0.2,0.3,0.2,0.5c0,0,0,0,0,0.1c0,0,0,0.1,0,0.1c-0.1,0.4-0.1,0.8-0.2,1.2
		S95,10.3,95,10.7c0,0.4,0,0.8,0.1,1.2s0.2,0.8,0.3,1.1c0,0.1,0.1,0.2,0.2,0.3c0.1,0.1,0.1,0.2,0.2,0.2c0,0,0.1,0,0.1-0.1
		c0,0,0.1-0.1,0.1-0.2c0-0.1,0.1-0.1,0.1-0.2s0.1-0.1,0.1-0.1c0.2-0.4,0.4-0.9,0.5-1.4c0.1-0.5,0.1-1,0.1-1.5c0-0.1,0-0.1,0-0.2
		c0-0.1,0-0.1,0-0.2c0-0.1,0.1-0.2,0.1-0.4s0.2-0.2,0.3-0.3c0.1-0.1,0.2-0.1,0.4-0.2c0.1,0,0.3-0.1,0.4-0.1c0.2,0,0.4,0.1,0.5,0.2
		c0.1,0.1,0.2,0.3,0.2,0.4c0,0.1,0,0.2,0,0.3c0,0.1,0,0.2,0,0.3c0,0.2,0,0.5,0.1,0.9c0.1,0.4,0.1,0.7,0.3,1c0.1,0.3,0.3,0.6,0.5,0.9
		s0.4,0.4,0.7,0.4c0.1,0,0.2-0.1,0.3-0.2c0.1-0.1,0.1-0.2,0.2-0.4c0-0.2,0.1-0.3,0.1-0.5c0-0.2,0-0.3,0-0.4c0-1-0.1-2.1-0.2-3.1V8.4
		c0-0.1,0-0.3,0.1-0.4s0.2-0.2,0.3-0.3c0.1-0.1,0.2-0.1,0.3-0.2c0.1,0,0.2-0.1,0.3-0.1c0.4,0,0.7,0.2,0.8,0.6
		c0.1,0.4,0.1,0.8,0.2,1.3c0,0.5,0.1,0.9,0.1,1.3c0,0.3,0,0.7-0.1,1.1c0,0.4-0.1,0.8-0.3,1.2c-0.1,0.4-0.3,0.7-0.6,1
		c-0.3,0.3-0.6,0.5-1.1,0.6c-0.2,0.1-0.4,0.1-0.6,0.1c-0.5,0-0.9-0.1-1.2-0.4C98.5,14.2,98.2,13.9,98,13.5z"/>
	<path d="M106.2,8.1c0.3-0.2,0.6-0.4,1-0.6c0.4-0.2,0.7-0.3,1.1-0.3c0.8,0,1.4,0.4,1.7,1c0.1,0.2,0.2,0.6,0.3,0.9s0.2,0.8,0.2,1.2
		c0.1,0.4,0.1,0.8,0.1,1.2s0,0.7,0,1c0,0.3,0,0.6,0,0.8c0,0.3,0,0.6-0.1,0.8c0,0.3-0.2,0.4-0.4,0.5c-0.2,0.1-0.5,0.2-0.7,0.2
		c-0.2,0-0.4,0-0.5-0.1c-0.1-0.1-0.2-0.3-0.2-0.5c0-0.1,0-0.1,0-0.2c0-0.1,0-0.1,0-0.2l0-0.8c0-0.6,0-1.2,0-1.8s-0.1-1.2-0.3-1.8
		c0-0.1,0-0.1-0.1-0.2c0-0.1-0.1-0.2-0.1-0.3c0-0.1-0.1-0.2-0.2-0.2c-0.1-0.1-0.1-0.1-0.2-0.1c-0.1,0-0.3,0.1-0.5,0.2
		s-0.3,0.3-0.5,0.5c-0.2,0.2-0.3,0.4-0.4,0.6c-0.1,0.2-0.2,0.4-0.2,0.5c-0.1,0.3-0.1,0.5-0.2,0.8c0,0.3-0.1,0.5-0.1,0.8
		c0,0.3,0,0.6,0,0.8s0,0.6,0,0.8c0,0.1,0,0.3-0.1,0.4c-0.1,0.1-0.2,0.2-0.3,0.3c-0.1,0.1-0.2,0.1-0.4,0.2c-0.1,0-0.3,0.1-0.4,0.1
		c-0.4,0-0.7-0.2-0.7-0.6c0-0.4,0-0.8,0-1.2c0-0.4,0-0.8,0-1.2c0-0.9,0-1.9,0.1-2.8c0-0.2,0-0.4,0-0.6c0-0.2,0-0.4,0-0.6
		c0-0.3,0.2-0.5,0.4-0.6s0.5-0.2,0.7-0.2c0.2,0,0.3,0,0.4,0.1c0.1,0.1,0.2,0.2,0.2,0.4c0,0.1,0,0.2,0,0.2S106.2,8.1,106.2,8.1z"/>
	<path d="M117.1,12.1c0,0-0.1,0-0.1,0c-0.1,0-0.1,0-0.1,0c-0.1,0-0.1,0-0.2,0c-0.2,0-0.4-0.1-0.5-0.2c-0.1-0.1-0.2-0.3-0.2-0.5
		c0-0.3,0.1-0.4,0.2-0.6c0.2-0.1,0.3-0.2,0.5-0.3c-0.1-0.3-0.1-0.6-0.1-0.9c0-0.3-0.1-0.6-0.1-0.9c0-0.6,0.1-1.1,0.2-1.7
		c0.1-0.6,0.4-1.1,0.7-1.6c0.1-0.2,0.3-0.4,0.5-0.6c0.2-0.2,0.4-0.4,0.7-0.5s0.5-0.3,0.8-0.4c0.3-0.1,0.6-0.1,0.8-0.1
		c0.3,0,0.6,0.1,0.8,0.2c0.2,0.2,0.5,0.4,0.7,0.6c0.2,0.2,0.4,0.5,0.5,0.8s0.3,0.6,0.4,0.8c0,0.1,0.1,0.2,0.1,0.3
		c0,0.1,0,0.2-0.1,0.3s-0.2,0.2-0.3,0.2s-0.2,0.1-0.3,0.2c-0.1,0-0.2,0.1-0.3,0.1c-0.3,0-0.5-0.1-0.7-0.4c-0.1-0.2-0.2-0.4-0.3-0.6
		s-0.2-0.4-0.4-0.6c-0.1-0.1-0.2-0.2-0.2-0.3c-0.1-0.1-0.2-0.1-0.3-0.1c-0.1,0-0.2,0-0.3,0.1c-0.1,0.1-0.2,0.2-0.3,0.3
		c-0.2,0.2-0.3,0.4-0.4,0.6c-0.1,0.2-0.2,0.5-0.2,0.7c-0.1,0.2-0.1,0.5-0.1,0.7s0,0.5,0,0.7c0,0.3,0,0.6,0,0.9
		c0,0.3,0.1,0.6,0.1,0.9c0.5-0.1,0.9-0.1,1.4-0.2c0.5,0,0.9-0.1,1.4-0.1c0.1,0,0.2,0,0.3,0c0.1,0,0.2,0,0.3,0.1s0.2,0.1,0.2,0.2
		c0.1,0.1,0.1,0.2,0.1,0.3c0,0.2-0.1,0.4-0.2,0.6c-0.2,0.2-0.3,0.3-0.6,0.3c-0.4,0.1-0.9,0.1-1.3,0.1c-0.4,0-0.9,0.1-1.3,0.1
		c0.1,0.2,0.1,0.3,0.2,0.5c0,0.2,0.1,0.3,0.1,0.5c0,0.1,0,0.2,0.1,0.2s0.1,0.1,0.1,0.2c0,0.1,0.1,0.2,0.1,0.4c0,0.1,0.1,0.3,0.1,0.4
		c0,0.1,0,0.3-0.1,0.4c-0.1,0.1-0.1,0.2-0.3,0.3S119.1,15,119,15c-0.1,0.1-0.3,0.1-0.4,0.1c-0.3,0-0.5-0.1-0.7-0.4
		c-0.1-0.4-0.3-0.8-0.4-1.3C117.4,13,117.2,12.5,117.1,12.1z"/>
	<path d="M126.5,15.1c-0.5,0-1-0.1-1.4-0.3s-0.7-0.5-1-0.8c-0.3-0.3-0.5-0.7-0.6-1.1s-0.2-0.8-0.2-1.3c0-0.3,0-0.7,0.1-1
		s0.2-0.7,0.4-1c0.2-0.3,0.4-0.6,0.6-0.9s0.6-0.5,0.9-0.7c0.1,0,0.1,0,0.1,0c0,0,0,0,0,0c0,0,0,0,0,0c0.2-0.1,0.5-0.2,0.7-0.2
		c0.2-0.1,0.5-0.1,0.8-0.1c0.5,0,1,0.1,1.4,0.3c0.4,0.2,0.8,0.5,1.1,0.8s0.5,0.7,0.7,1.1c0.2,0.4,0.2,0.9,0.2,1.3
		c0,0.5-0.1,1-0.3,1.5c-0.2,0.5-0.5,0.9-0.9,1.3c-0.4,0.4-0.8,0.6-1.3,0.9C127.5,15,127,15.1,126.5,15.1z M126.8,13.6
		c0.3,0,0.5-0.1,0.8-0.2c0.2-0.1,0.4-0.3,0.6-0.5s0.3-0.4,0.4-0.7c0.1-0.3,0.1-0.5,0.1-0.8s0-0.5-0.1-0.8c-0.1-0.3-0.2-0.5-0.4-0.7
		c-0.2-0.2-0.4-0.4-0.6-0.5c-0.2-0.1-0.5-0.2-0.8-0.2c-0.2,0-0.4,0.1-0.7,0.2s-0.4,0.3-0.5,0.5c-0.1,0.2-0.3,0.4-0.4,0.7
		c-0.1,0.2-0.1,0.5-0.1,0.7c0,0.3,0,0.5,0.1,0.8c0.1,0.3,0.1,0.5,0.3,0.8c0.1,0.2,0.3,0.4,0.5,0.6C126.2,13.5,126.5,13.6,126.8,13.6
		z"/>
	<path d="M134.6,12.8c-0.2,0.3-0.4,0.6-0.6,0.9c-0.2,0.3-0.4,0.6-0.6,0.9c-0.1,0.1-0.3,0.3-0.4,0.3c-0.2,0.1-0.4,0.1-0.5,0.1
		c-0.1,0-0.1,0-0.2,0c-0.1,0-0.2,0-0.3-0.1s-0.1-0.1-0.2-0.2c-0.1-0.1-0.1-0.2-0.1-0.3c0-0.1,0-0.2,0-0.2s0.1-0.1,0.1-0.2
		c0.3-0.5,0.6-0.9,0.9-1.4c0.4-0.5,0.7-1,1-1.4c-0.2-0.3-0.4-0.6-0.5-0.9c-0.2-0.3-0.4-0.6-0.5-0.9c-0.1-0.1-0.2-0.3-0.3-0.4
		c-0.1-0.1-0.2-0.3-0.3-0.4c0-0.1-0.1-0.1-0.1-0.2c0-0.1,0-0.1,0-0.2c0-0.1,0-0.2,0.1-0.3c0.1-0.1,0.1-0.2,0.2-0.3s0.2-0.1,0.3-0.2
		c0.1,0,0.2-0.1,0.4-0.1c0.2,0,0.4,0.1,0.6,0.3c0.1,0.1,0.2,0.2,0.2,0.3c0.1,0.1,0.1,0.2,0.2,0.4c0.1,0.2,0.3,0.5,0.4,0.7
		c0.1,0.2,0.3,0.5,0.4,0.7c0.3-0.3,0.6-0.7,0.9-1c0.3-0.4,0.6-0.7,0.9-1c0.2-0.2,0.4-0.3,0.7-0.3c0.1,0,0.2,0,0.3,0
		c0.1,0,0.2,0.1,0.3,0.1c0.1,0.1,0.1,0.1,0.2,0.2c0.1,0.1,0.1,0.2,0.1,0.3s0,0.2-0.1,0.3s-0.1,0.1-0.1,0.2c-0.1,0.1-0.3,0.3-0.4,0.4
		s-0.3,0.3-0.4,0.4c-0.2,0.3-0.5,0.6-0.7,0.9c-0.2,0.3-0.5,0.6-0.7,0.9c0.2,0.3,0.5,0.7,0.7,1c0.2,0.3,0.5,0.7,0.7,1
		c0.1,0.1,0.2,0.2,0.3,0.3c0.1,0.1,0.2,0.2,0.3,0.3c0.1,0.1,0.2,0.3,0.2,0.4c0,0.1,0,0.2-0.1,0.4s-0.2,0.2-0.3,0.3
		c-0.1,0.1-0.2,0.1-0.4,0.2c-0.1,0-0.2,0.1-0.3,0.1c-0.2,0-0.4-0.1-0.6-0.2c-0.1-0.1-0.3-0.3-0.4-0.5c-0.1-0.2-0.3-0.4-0.4-0.5
		s-0.3-0.4-0.4-0.6S134.7,12.9,134.6,12.8z"/>
	<path d="M142.6,16.6c-0.1-0.1-0.1-0.2-0.1-0.3c0-0.1,0-0.2,0.1-0.4s0.2-0.2,0.3-0.3c0.1-0.1,0.2-0.1,0.4-0.2s0.2-0.1,0.4-0.1
		c0.2,0,0.4,0.1,0.5,0.3c0.1,0.1,0.2,0.2,0.3,0.3c0.1,0.1,0.2,0.2,0.3,0.3c0.1,0.1,0.2,0.2,0.4,0.2c0.1,0.1,0.2,0.1,0.4,0.1
		c0.1,0,0.2,0,0.2-0.1c0.1-0.1,0.1-0.1,0.1-0.2c0-0.1,0.1-0.2,0.1-0.3c0-0.1,0-0.2,0-0.2v-0.4c0-0.3,0-0.6,0-0.9
		c0-0.3,0-0.6-0.1-0.9c0-0.8-0.1-1.7-0.2-2.5c-0.1-0.8-0.2-1.7-0.3-2.5V8.6c0-0.1,0-0.2,0.1-0.3c0.1-0.1,0.1-0.2,0.2-0.2
		s0.2-0.1,0.3-0.2c0.1,0,0.2-0.1,0.3-0.1c0.2,0,0.4,0,0.5,0.1c0.1,0.1,0.2,0.2,0.3,0.4c0,0.2,0.1,0.4,0.1,0.6s0,0.4,0.1,0.6
		c0.1,0.6,0.1,1.1,0.2,1.7c0.1,0.6,0.1,1.1,0.1,1.7c0,0.4,0.1,0.8,0.1,1.2c0,0.4,0.1,0.8,0.1,1.2c0,0.2,0,0.5,0,0.7
		c0,0.2-0.1,0.5-0.2,0.7c-0.2,0.5-0.4,0.9-0.8,1.2s-0.8,0.5-1.4,0.5c-0.3,0-0.6,0-0.8-0.1s-0.5-0.2-0.8-0.4
		c-0.2-0.1-0.5-0.3-0.6-0.5C142.8,17.1,142.7,16.9,142.6,16.6z M145,6.6c0,0,0-0.1,0-0.1s0-0.1,0-0.1c0-0.2,0.1-0.4,0.4-0.5
		s0.4-0.2,0.6-0.2c0.2,0,0.4,0.1,0.6,0.2c0.1,0.1,0.2,0.3,0.2,0.5c0,0.1,0,0.2-0.1,0.3c-0.1,0.1-0.1,0.2-0.2,0.3
		c-0.1,0.1-0.2,0.1-0.3,0.2c-0.1,0-0.2,0.1-0.4,0.1c-0.1,0-0.3,0-0.5-0.1C145,6.9,145,6.8,145,6.6z"/>
	<path d="M153.4,13.2c-0.1,0.2-0.2,0.5-0.3,0.7s-0.3,0.4-0.5,0.6c-0.2,0.2-0.4,0.3-0.6,0.4c-0.2,0.1-0.5,0.2-0.8,0.2
		c-0.6,0-1.1-0.2-1.5-0.5s-0.6-0.7-0.8-1.2c-0.2-0.5-0.3-0.9-0.4-1.4s-0.1-1-0.1-1.3c0-0.2,0-0.4,0-0.6c0-0.2,0-0.4,0-0.6
		c0-0.2,0-0.4,0.1-0.6c0-0.2,0.1-0.4,0.1-0.6c0.1-0.2,0.2-0.4,0.4-0.5s0.4-0.2,0.6-0.2c0.2,0,0.3,0,0.5,0.1c0.2,0.1,0.2,0.2,0.2,0.4
		c0,0.1,0,0.1,0,0.2c-0.1,0.3-0.1,0.6-0.2,0.9c-0.1,0.3-0.1,0.6-0.1,0.9c0,0.4,0,0.9,0.1,1.3c0,0.1,0.1,0.3,0.1,0.5
		c0.1,0.2,0.1,0.4,0.2,0.6c0.1,0.2,0.2,0.4,0.3,0.5c0.1,0.2,0.2,0.2,0.4,0.2c0.1,0,0.2,0,0.3-0.1c0.1-0.1,0.2-0.2,0.2-0.3
		s0.1-0.2,0.2-0.4c0-0.1,0.1-0.2,0.1-0.3c0.1-0.3,0.2-0.6,0.3-0.9s0.1-0.5,0.2-0.7c0.1-0.3,0.1-0.5,0.2-0.8c0.1-0.3,0.1-0.5,0.2-0.8
		c0-0.1,0-0.3,0.1-0.4s0-0.3,0.1-0.4c0.1-0.2,0.2-0.4,0.4-0.5s0.4-0.2,0.6-0.2c0.2,0,0.4,0,0.5,0.1c0.1,0.1,0.2,0.2,0.2,0.4
		c0,0.3,0,0.5,0,0.8s0,0.5,0,0.8c0,0.4,0,0.8,0.1,1.1c0,0.4,0.1,0.7,0.1,1c0.1,0.3,0.2,0.7,0.3,1c0.1,0.3,0.3,0.7,0.5,1
		c0,0,0,0.1,0.1,0.1c0,0,0,0.1,0,0.1c0,0.1,0,0.2-0.1,0.3c-0.1,0.1-0.2,0.2-0.3,0.3c-0.1,0.1-0.2,0.1-0.4,0.2s-0.2,0.1-0.3,0.1
		c-0.2,0-0.3-0.1-0.5-0.2s-0.3-0.3-0.4-0.5c-0.1-0.2-0.2-0.4-0.3-0.6C153.5,13.5,153.5,13.3,153.4,13.2z"/>
	<path d="M159,9.2L159,9.2c-0.1,0.1-0.1,0.2-0.1,0.2c0,0,0,0.1,0,0.1c-0.2,0.5-0.3,1-0.3,1.5c0,0.4,0,0.8,0.1,1.3
		c0.1,0.4,0.2,0.8,0.4,1.2c0,0.1,0.1,0.2,0.1,0.3c0,0.1,0,0.2,0,0.3c0,0.1,0,0.3-0.1,0.4c-0.1,0.1-0.2,0.2-0.3,0.3
		c-0.1,0.1-0.2,0.2-0.4,0.2c-0.1,0.1-0.3,0.1-0.4,0.1c-0.2,0-0.4-0.1-0.5-0.2c-0.1-0.1-0.2-0.2-0.3-0.4c-0.1-0.3-0.2-0.6-0.2-1
		c-0.1-0.3-0.1-0.6-0.2-1c-0.1-0.6-0.2-1.2-0.4-1.8c-0.1-0.6-0.3-1.2-0.4-1.8c0,0,0,0,0-0.1c0,0,0,0,0-0.1c0-0.1,0-0.2,0.1-0.3
		c0.1-0.1,0.1-0.2,0.2-0.2c0.1-0.1,0.2-0.1,0.3-0.1c0.1,0,0.2,0,0.3,0c0.2,0,0.4,0.1,0.6,0.2c0.2-0.2,0.4-0.4,0.7-0.6
		s0.6-0.3,0.9-0.3c0.2,0,0.4,0,0.6,0.1s0.3,0.2,0.5,0.3c0.1,0.1,0.3,0.3,0.4,0.4c0.1,0.2,0.2,0.3,0.3,0.5c0.2-0.4,0.5-0.7,0.8-1
		s0.8-0.4,1.3-0.4c0.6,0,1.1,0.1,1.4,0.4c0.4,0.3,0.6,0.7,0.8,1.1s0.3,0.9,0.4,1.4c0.1,0.5,0.1,0.9,0.1,1.3c0,0.4,0,0.8,0,1.2
		c0,0.4-0.1,0.9-0.2,1.2c-0.1,0.2-0.2,0.4-0.4,0.5c-0.2,0.1-0.4,0.2-0.6,0.2c-0.2,0-0.4-0.1-0.5-0.2c-0.2-0.1-0.2-0.3-0.2-0.5
		c0-0.1,0-0.1,0-0.1c0-0.3,0.1-0.7,0.1-1.1c0-0.4,0.1-0.7,0.1-1.1c0-0.4,0-0.8-0.1-1.2c-0.1-0.4-0.2-0.8-0.4-1.2
		c-0.1-0.1-0.1-0.2-0.2-0.3c-0.1-0.1-0.2-0.2-0.3-0.2c-0.1,0-0.2,0.1-0.3,0.2c-0.1,0.1-0.2,0.3-0.3,0.5s-0.1,0.4-0.2,0.7
		c-0.1,0.3-0.1,0.5-0.2,0.7c0,0.2-0.1,0.4-0.1,0.6c0,0.2,0,0.3-0.1,0.4c0,0.3-0.1,0.5-0.4,0.6c-0.2,0.2-0.5,0.2-0.7,0.2
		c-0.2,0-0.4-0.1-0.5-0.2c-0.1-0.1-0.2-0.2-0.2-0.4c0-0.1,0-0.2-0.1-0.4c0-0.1,0-0.2-0.1-0.4c-0.1-0.3-0.1-0.5-0.2-0.8
		c-0.1-0.3-0.1-0.5-0.2-0.8c-0.1-0.2-0.1-0.4-0.2-0.6C159.4,9.5,159.3,9.4,159,9.2z"/>
	<path d="M169.5,14.7c0.1,0.5,0.1,1,0.2,1.5c0,0.5,0.1,1,0.1,1.5v0.1c0,0.1,0,0.3-0.1,0.4c-0.1,0.1-0.2,0.2-0.3,0.3
		s-0.2,0.1-0.3,0.2s-0.2,0.1-0.3,0.1c-0.4,0-0.7-0.2-0.7-0.6c0-0.2-0.1-0.4-0.1-0.6s0-0.4-0.1-0.6c-0.1-1.3-0.2-2.6-0.3-3.9
		c-0.1-1.3-0.1-2.6-0.1-3.9c0-0.1,0-0.3,0.1-0.4c0.1-0.1,0.2-0.2,0.3-0.3c0.1-0.1,0.2-0.1,0.4-0.2s0.3-0.1,0.4-0.1c0,0,0.1,0,0.2,0
		c0.3-0.2,0.6-0.4,1-0.5s0.7-0.2,1.1-0.2c0.5,0,0.9,0.1,1.3,0.3c0.4,0.2,0.8,0.4,1.1,0.7c0.3,0.3,0.5,0.6,0.7,1
		c0.2,0.4,0.3,0.8,0.3,1.2c0,0.4-0.1,0.9-0.3,1.4c-0.2,0.5-0.5,0.9-0.8,1.3c-0.3,0.4-0.7,0.7-1.2,0.9c-0.5,0.2-0.9,0.4-1.5,0.4
		C170,14.9,169.7,14.8,169.5,14.7z M169.3,12.9c0.2,0.1,0.4,0.2,0.6,0.3c0.2,0.1,0.4,0.1,0.6,0.1c0.2,0,0.5-0.1,0.7-0.2
		c0.2-0.1,0.4-0.3,0.6-0.5c0.2-0.2,0.3-0.4,0.4-0.7s0.1-0.5,0.1-0.7c0-0.2,0-0.5-0.1-0.7c-0.1-0.2-0.2-0.4-0.4-0.6
		c-0.2-0.2-0.4-0.3-0.6-0.4c-0.2-0.1-0.5-0.2-0.7-0.2c-0.2,0-0.5,0.1-0.7,0.2c-0.2,0.1-0.4,0.3-0.5,0.5c0,0.5,0,1,0.1,1.5
		C169.3,11.9,169.3,12.4,169.3,12.9z"/>
	<path d="M175.8,13.8c0-0.1-0.1-0.1-0.1-0.2s0-0.1,0-0.2c0-0.1,0-0.2,0.1-0.3c0.1-0.1,0.1-0.2,0.3-0.3s0.2-0.1,0.3-0.2
		c0.1,0,0.2-0.1,0.4-0.1c0.2,0,0.4,0.1,0.6,0.3c0.2,0.3,0.5,0.4,0.7,0.6c0.2,0.1,0.6,0.2,0.9,0.2c0.1,0,0.2,0,0.3,0s0.2,0,0.3-0.1
		c0.1,0,0.2-0.1,0.2-0.1c0.1-0.1,0.1-0.1,0.1-0.2c0-0.2-0.1-0.4-0.2-0.5s-0.3-0.2-0.5-0.4c-0.2-0.1-0.4-0.2-0.7-0.3
		c-0.3-0.1-0.5-0.1-0.8-0.2c-0.1,0-0.3-0.1-0.4-0.1c-0.1,0-0.3-0.1-0.4-0.1c-0.2-0.1-0.3-0.1-0.5-0.2c-0.2-0.1-0.3-0.1-0.5-0.2
		c-0.2-0.1-0.3-0.2-0.4-0.4c-0.1-0.1-0.1-0.3-0.1-0.5c0-0.4,0.1-0.7,0.4-1.1c0.3-0.3,0.6-0.6,1-0.8s0.8-0.4,1.2-0.5
		c0.4-0.1,0.8-0.2,1.1-0.2c0.5,0,0.9,0.1,1.2,0.3c0.3,0.2,0.6,0.5,0.7,1c0,0.1,0,0.1,0,0.2c0,0.1,0,0.2-0.1,0.4s-0.1,0.2-0.2,0.3
		c-0.1,0.1-0.2,0.1-0.3,0.2c-0.1,0-0.2,0.1-0.3,0.1c-0.2,0-0.3,0-0.4-0.1s-0.2-0.2-0.3-0.4c-0.1-0.1-0.1-0.2-0.2-0.2
		c-0.1-0.1-0.2-0.1-0.5-0.1c-0.1,0-0.3,0-0.4,0.1c-0.2,0.1-0.3,0.1-0.5,0.2c-0.2,0.1-0.3,0.2-0.4,0.3c-0.1,0.1-0.2,0.2-0.2,0.3
		c0,0,0,0,0,0c0,0,0,0,0,0c0,0,0.1,0.1,0.2,0.1c0.1,0,0.2,0.1,0.3,0.1c0.1,0,0.2,0.1,0.3,0.1c0.1,0,0.2,0,0.2,0c0.1,0,0.2,0,0.4,0.1
		s0.2,0,0.3,0.1c0.2,0.1,0.4,0.1,0.5,0.1c0.3,0.1,0.5,0.2,0.8,0.3c0.3,0.1,0.5,0.3,0.8,0.5c0.2,0.2,0.4,0.4,0.6,0.7
		c0.2,0.3,0.2,0.5,0.2,0.9c0,0.4-0.1,0.7-0.3,1c-0.2,0.3-0.4,0.5-0.7,0.7s-0.6,0.3-0.9,0.4c-0.3,0.1-0.7,0.1-1,0.1
		c-0.2,0-0.5,0-0.8-0.1c-0.3,0-0.6-0.1-0.9-0.2c-0.3-0.1-0.6-0.2-0.8-0.4C176.1,14.2,175.9,14.1,175.8,13.8z"/>
	<path d="M189.8,15.1c-0.5,0-1-0.1-1.4-0.3c-0.4-0.2-0.7-0.5-1-0.8c-0.3-0.3-0.5-0.7-0.6-1.1s-0.2-0.8-0.2-1.3c0-0.3,0-0.7,0.1-1
		s0.2-0.7,0.4-1c0.2-0.3,0.4-0.6,0.6-0.9s0.6-0.5,0.9-0.7c0.1,0,0.1,0,0.1,0c0,0,0,0,0,0c0,0,0,0,0,0c0.2-0.1,0.5-0.2,0.7-0.2
		c0.2-0.1,0.5-0.1,0.8-0.1c0.5,0,1,0.1,1.4,0.3c0.4,0.2,0.8,0.5,1.1,0.8s0.5,0.7,0.7,1.1c0.2,0.4,0.2,0.9,0.2,1.3
		c0,0.5-0.1,1-0.3,1.5s-0.5,0.9-0.9,1.3s-0.8,0.6-1.3,0.9C190.8,15,190.3,15.1,189.8,15.1z M190.1,13.6c0.3,0,0.5-0.1,0.8-0.2
		c0.2-0.1,0.4-0.3,0.6-0.5s0.3-0.4,0.4-0.7c0.1-0.3,0.1-0.5,0.1-0.8s0-0.5-0.1-0.8c-0.1-0.3-0.2-0.5-0.4-0.7
		c-0.2-0.2-0.4-0.4-0.6-0.5c-0.2-0.1-0.5-0.2-0.8-0.2c-0.2,0-0.4,0.1-0.7,0.2s-0.4,0.3-0.5,0.5c-0.1,0.2-0.3,0.4-0.4,0.7
		c-0.1,0.2-0.1,0.5-0.1,0.7c0,0.3,0,0.5,0.1,0.8c0.1,0.3,0.1,0.5,0.3,0.8c0.1,0.2,0.3,0.4,0.5,0.6C189.5,13.5,189.8,13.6,190.1,13.6
		z"/>
	<path d="M197.9,12.4c0.4-1,0.8-1.9,1.2-2.8c0.1-0.2,0.2-0.5,0.4-0.8c0.1-0.2,0.2-0.5,0.4-0.7c0.2-0.3,0.5-0.5,0.9-0.5
		c0.2,0,0.3,0,0.5,0.1c0.2,0.1,0.3,0.2,0.3,0.5c0,0.1,0,0.1,0,0.2c0,0.1,0,0.1-0.1,0.2c-0.2,0.6-0.5,1.1-0.7,1.7s-0.5,1.1-0.8,1.7
		c-0.2,0.4-0.3,0.8-0.5,1.2c-0.2,0.4-0.3,0.8-0.5,1.2c-0.1,0.2-0.2,0.4-0.4,0.5c-0.2,0.1-0.4,0.2-0.7,0.2c-0.1,0-0.3,0-0.4,0
		c-0.2,0-0.3-0.2-0.5-0.4c-0.2-0.2-0.3-0.4-0.5-0.7c-0.1-0.3-0.3-0.5-0.4-0.8s-0.2-0.4-0.2-0.6c-0.2-0.6-0.5-1.2-0.7-1.9
		c-0.2-0.6-0.4-1.2-0.7-1.9c0-0.1,0-0.2,0-0.2c0-0.1,0-0.2,0.1-0.4c0.1-0.1,0.1-0.2,0.3-0.3c0.1-0.1,0.2-0.1,0.3-0.2
		c0.1,0,0.2-0.1,0.4-0.1c0.2,0,0.3,0,0.4,0.1c0.1,0.1,0.2,0.2,0.3,0.3c0.1,0.2,0.2,0.3,0.2,0.5c0.1,0.2,0.1,0.3,0.2,0.5
		c0.2,0.5,0.4,1.1,0.6,1.6C197.4,11.3,197.6,11.9,197.9,12.4z"/>
	<path d="M203.4,12.1c0,0.2,0,0.4,0.1,0.5s0.1,0.3,0.2,0.5c0.1,0.1,0.2,0.2,0.3,0.3c0.1,0.1,0.3,0.1,0.5,0.1c0.2,0,0.4,0,0.6-0.1
		c0.2,0,0.4-0.1,0.6-0.2c0.2-0.1,0.3-0.2,0.5-0.3c0.1-0.1,0.3-0.2,0.3-0.4c0.2-0.3,0.5-0.5,0.9-0.5c0.2,0,0.4,0.1,0.5,0.1
		c0.2,0.1,0.2,0.3,0.2,0.5c0,0.1,0,0.2-0.1,0.3c-0.1,0.3-0.3,0.6-0.6,0.9c-0.3,0.2-0.6,0.5-0.9,0.6s-0.7,0.3-1,0.4
		c-0.4,0.1-0.7,0.1-1.1,0.1c-0.9,0-1.6-0.2-2.1-0.7s-0.8-1.1-0.8-2c0-0.2,0-0.4,0-0.6c0-0.2,0.1-0.4,0.1-0.5c0,0,0-0.1-0.1-0.1
		c0,0,0-0.1,0-0.1c0-0.1,0-0.3,0.1-0.4c0.1-0.1,0.2-0.2,0.3-0.2c0.1-0.3,0.3-0.6,0.6-1s0.5-0.6,0.8-0.9c0.3-0.3,0.6-0.5,1-0.7
		s0.8-0.3,1.2-0.3c0.3,0,0.5,0,0.8,0.1c0.3,0.1,0.5,0.2,0.7,0.3c0.2,0.1,0.4,0.3,0.5,0.5c0.1,0.2,0.2,0.5,0.2,0.8
		c0,0.2,0,0.4-0.1,0.7s-0.2,0.4-0.3,0.6c-0.2,0.3-0.4,0.5-0.6,0.7c-0.3,0.2-0.5,0.4-0.8,0.5c-0.3,0.1-0.6,0.2-0.9,0.3
		c-0.3,0.1-0.6,0.1-1,0.1c-0.1,0-0.2,0-0.3,0S203.5,12.1,203.4,12.1z M203.8,10.6c0.1,0,0.2,0,0.2,0c0.1,0,0.2,0,0.2,0
		c0.2,0,0.4,0,0.6,0c0.2,0,0.4-0.1,0.5-0.2c0.2-0.1,0.3-0.2,0.4-0.3c0.1-0.1,0.1-0.3,0.1-0.4c0-0.2-0.1-0.3-0.2-0.4
		c-0.1-0.1-0.2-0.2-0.4-0.2c-0.2,0-0.3,0.1-0.5,0.2s-0.3,0.2-0.4,0.4c-0.1,0.2-0.2,0.3-0.4,0.5C204,10.3,203.9,10.5,203.8,10.6z"/>
	<path d="M211.2,8.3c0.2-0.2,0.4-0.3,0.6-0.4c0.2-0.1,0.5-0.2,0.8-0.2c0.2,0,0.4,0,0.6,0.1c0.2,0.1,0.4,0.2,0.5,0.3
		c0.2,0.1,0.3,0.3,0.4,0.5s0.3,0.3,0.4,0.5c0,0.1,0.1,0.1,0.1,0.2c0,0.1,0,0.1,0,0.2c0,0.1,0,0.2-0.1,0.4c-0.1,0.1-0.2,0.2-0.3,0.3
		c-0.1,0.1-0.2,0.1-0.3,0.2s-0.2,0.1-0.4,0.1c-0.2,0-0.3,0-0.5-0.1s-0.2-0.2-0.3-0.4c0,0,0-0.1-0.1-0.1c0,0,0-0.1-0.1-0.1
		c0-0.1-0.1-0.1-0.1-0.2c-0.1,0-0.1-0.1-0.2-0.1c-0.1,0-0.2,0.1-0.3,0.2c-0.1,0.1-0.2,0.3-0.2,0.5c-0.1,0.2-0.1,0.4-0.2,0.5
		c0,0.2-0.1,0.3-0.1,0.4c-0.1,0.4-0.1,0.7-0.1,1.1s0,0.7,0,1.1c0,0.2,0,0.3,0,0.5c0,0.2,0,0.3,0,0.5c0,0.1-0.1,0.2-0.1,0.4
		c-0.1,0.1-0.2,0.2-0.3,0.3c-0.1,0.1-0.2,0.1-0.4,0.2s-0.3,0.1-0.4,0.1c-0.2,0-0.4-0.1-0.5-0.2c-0.1-0.1-0.2-0.3-0.2-0.4
		c0-0.4-0.1-0.8-0.1-1.3c0-0.4,0-0.8-0.1-1.3c0-0.6,0-1.2-0.1-1.8c0-0.6,0-1.2,0-1.8c0-0.1,0-0.3,0.1-0.4c0.1-0.1,0.2-0.2,0.3-0.3
		c0.1-0.1,0.2-0.1,0.4-0.2c0.1,0,0.3-0.1,0.4-0.1c0.3,0,0.4,0.1,0.5,0.2C211.1,7.9,211.2,8.1,211.2,8.3z"/>
	<path d="M220.7,9.2c-0.2,0-0.4,0-0.6,0c-0.2,0-0.4,0-0.6,0c-0.1,0-0.3,0-0.4-0.1c-0.1-0.1-0.2-0.2-0.2-0.4c0-0.2,0.1-0.5,0.3-0.6
		c0.2-0.2,0.4-0.3,0.7-0.3c0.2,0,0.3,0,0.5,0c0.2,0,0.4,0,0.5,0c0.1-0.5,0.2-1,0.2-1.6c0.1-0.5,0.1-1,0.2-1.6c0-0.3,0.2-0.5,0.4-0.6
		c0.2-0.2,0.5-0.2,0.7-0.2c0.2,0,0.3,0,0.4,0.1C223,4,223,4.1,223,4.3v0c0,0.6-0.1,1.1-0.2,1.7c-0.1,0.6-0.1,1.1-0.2,1.7
		c0.3,0,0.6,0,0.9,0c0.3,0,0.6,0,0.9,0c0.2,0,0.3,0.1,0.5,0.1c0.1,0.1,0.2,0.2,0.2,0.4c0,0.2-0.1,0.5-0.3,0.6
		c-0.2,0.2-0.4,0.3-0.7,0.3c-0.3,0-0.6,0-0.9,0s-0.6,0-0.9,0c0,0.3-0.1,0.6-0.1,0.9c0,0.3,0,0.6,0,0.9c0,0.3,0,0.6,0,0.9
		c0,0.1,0,0.2,0.1,0.4s0.1,0.4,0.2,0.6c0.1,0.2,0.2,0.4,0.2,0.5c0.1,0.2,0.2,0.2,0.3,0.2c0,0,0.1,0,0.1,0s0.1,0,0.1-0.1
		c0.1-0.1,0.2-0.2,0.4-0.3c0.1-0.1,0.3-0.1,0.4-0.1c0.1,0,0.2,0,0.3,0c0.1,0,0.2,0.1,0.3,0.1c0.1,0.1,0.1,0.1,0.2,0.2
		c0.1,0.1,0.1,0.2,0.1,0.3c0,0.1,0,0.2-0.1,0.3s-0.1,0.2-0.2,0.2c-0.2,0.2-0.4,0.4-0.7,0.6s-0.6,0.2-1,0.2c-0.3,0-0.6,0-0.8-0.1
		c-0.2-0.1-0.5-0.2-0.7-0.4c-0.2-0.2-0.4-0.4-0.5-0.6c-0.1-0.2-0.2-0.5-0.3-0.7c-0.1-0.4-0.2-0.8-0.2-1.2s-0.1-0.8-0.1-1.2
		c0-0.3,0-0.6,0-0.9C220.6,9.8,220.6,9.5,220.7,9.2z"/>
	<path d="M228.3,8.3c0.2-0.2,0.5-0.4,0.8-0.6c0.3-0.1,0.6-0.2,1-0.2c0.4,0,0.8,0.1,1.1,0.3c0.3,0.2,0.6,0.5,0.8,0.8
		c0.2,0.3,0.4,0.7,0.5,1.1c0.1,0.4,0.2,0.8,0.3,1.2s0.1,0.8,0.2,1.2s0,0.8,0,1.1c0,0.1,0,0.3,0,0.5c0,0.2,0,0.3,0,0.5
		c0,0.3-0.2,0.5-0.4,0.6c-0.2,0.2-0.5,0.2-0.7,0.2c-0.2,0-0.3,0-0.4-0.1c-0.1,0-0.1-0.1-0.2-0.2s-0.1-0.2-0.1-0.2s0-0.2,0-0.2
		c0-0.1,0-0.3,0-0.6c0-0.3-0.1-0.6-0.1-1s-0.1-0.8-0.2-1.2c-0.1-0.4-0.1-0.8-0.2-1.1c-0.1-0.3-0.2-0.6-0.3-0.8
		c-0.1-0.2-0.3-0.3-0.4-0.3c-0.2,0-0.3,0.1-0.5,0.3s-0.3,0.5-0.4,0.8c-0.2,0.5-0.3,1.1-0.4,1.6c-0.1,0.6-0.2,1.1-0.3,1.7
		c0,0.1,0,0.3,0,0.4c0,0.1,0,0.3-0.1,0.4c-0.1,0.2-0.2,0.4-0.4,0.5c-0.2,0.1-0.4,0.2-0.7,0.2c-0.2,0-0.4,0-0.5-0.1s-0.2-0.3-0.2-0.5
		c0-0.3,0-0.6,0-0.9c0-0.3,0-0.6,0-0.9l0.1-6.5c0-0.2,0-0.4,0-0.6s0-0.4,0-0.6c0-0.3,0.1-0.5,0.4-0.6c0.2-0.2,0.5-0.2,0.7-0.2
		c0.2,0,0.4,0.1,0.5,0.1c0.1,0.1,0.2,0.2,0.2,0.5c0,0.6,0,1.2,0,1.8S228.3,7.7,228.3,8.3z"/>
	<path d="M236,12.1c0,0.2,0,0.4,0.1,0.5s0.1,0.3,0.2,0.5c0.1,0.1,0.2,0.2,0.3,0.3c0.1,0.1,0.3,0.1,0.5,0.1c0.2,0,0.4,0,0.6-0.1
		c0.2,0,0.4-0.1,0.6-0.2c0.2-0.1,0.3-0.2,0.5-0.3c0.1-0.1,0.3-0.2,0.3-0.4c0.2-0.3,0.5-0.5,0.9-0.5c0.2,0,0.4,0.1,0.5,0.1
		c0.2,0.1,0.2,0.3,0.2,0.5c0,0.1,0,0.2-0.1,0.3c-0.1,0.3-0.3,0.6-0.6,0.9c-0.3,0.2-0.6,0.5-0.9,0.6s-0.7,0.3-1,0.4
		c-0.4,0.1-0.7,0.1-1.1,0.1c-0.9,0-1.6-0.2-2.1-0.7s-0.8-1.1-0.8-2c0-0.2,0-0.4,0-0.6c0-0.2,0.1-0.4,0.1-0.5c0,0,0-0.1-0.1-0.1
		c0,0,0-0.1,0-0.1c0-0.1,0-0.3,0.1-0.4c0.1-0.1,0.2-0.2,0.3-0.2c0.1-0.3,0.3-0.6,0.6-1s0.5-0.6,0.8-0.9c0.3-0.3,0.6-0.5,1-0.7
		s0.8-0.3,1.2-0.3c0.3,0,0.5,0,0.8,0.1c0.3,0.1,0.5,0.2,0.7,0.3c0.2,0.1,0.4,0.3,0.5,0.5c0.1,0.2,0.2,0.5,0.2,0.8
		c0,0.2,0,0.4-0.1,0.7s-0.2,0.4-0.3,0.6c-0.2,0.3-0.4,0.5-0.6,0.7c-0.3,0.2-0.5,0.4-0.8,0.5c-0.3,0.1-0.6,0.2-0.9,0.3
		c-0.3,0.1-0.6,0.1-1,0.1c-0.1,0-0.2,0-0.3,0S236.1,12.1,236,12.1z M236.4,10.6c0.1,0,0.2,0,0.2,0c0.1,0,0.2,0,0.2,0
		c0.2,0,0.4,0,0.6,0c0.2,0,0.4-0.1,0.5-0.2c0.2-0.1,0.3-0.2,0.4-0.3c0.1-0.1,0.1-0.3,0.1-0.4c0-0.2-0.1-0.3-0.2-0.4
		c-0.1-0.1-0.2-0.2-0.4-0.2c-0.2,0-0.3,0.1-0.5,0.2s-0.3,0.2-0.4,0.4c-0.1,0.2-0.2,0.3-0.4,0.5C236.5,10.3,236.5,10.5,236.4,10.6z"
		/>
	<path d="M248.2,15.4c-0.4-0.1-0.7-0.2-0.9-0.4c-0.2-0.2-0.4-0.4-0.6-0.7c-0.2-0.3-0.3-0.6-0.3-0.9c-0.1-0.3-0.1-0.6-0.2-1
		c-0.1-1.2-0.2-2.4-0.2-3.6c0-0.5,0-1.1,0-1.6c0-0.5,0.1-1.1,0.1-1.6c0-0.2,0-0.4,0.1-0.6s0-0.4,0.1-0.6c0-0.2,0.2-0.4,0.4-0.5
		c0.2-0.1,0.4-0.2,0.6-0.2c0.5,0,0.8,0.3,0.8,0.8c-0.1,0.7-0.1,1.3-0.2,2c0,0.7-0.1,1.3-0.1,2c0,0.3,0,0.6,0,0.9c0,0.3,0,0.6,0,0.9
		c0,0.2,0,0.5,0,0.8c0,0.3,0,0.6,0.1,1c0,0.3,0.1,0.6,0.2,0.9c0.1,0.3,0.2,0.5,0.4,0.7c0.1,0.1,0.1,0.1,0.2,0.1
		c0.1,0,0.1,0.1,0.2,0.1c0.1,0,0.2,0.1,0.3,0.2c0.1,0.1,0.2,0.2,0.2,0.4c0,0.1,0,0.2-0.1,0.4c-0.1,0.1-0.1,0.2-0.3,0.3
		c-0.1,0.1-0.2,0.2-0.4,0.2c-0.1,0-0.3,0.1-0.4,0.1c0,0-0.1,0-0.1,0C248.3,15.4,248.3,15.4,248.2,15.4z"/>
	<path d="M255.4,13.1c-0.2,0.2-0.4,0.5-0.6,0.7c-0.2,0.2-0.5,0.4-0.8,0.6s-0.6,0.3-0.9,0.4c-0.3,0.1-0.6,0.1-0.9,0.1
		c-0.4,0-0.8-0.1-1-0.2c-0.3-0.2-0.5-0.4-0.7-0.6c-0.2-0.3-0.3-0.5-0.3-0.9c-0.1-0.3-0.1-0.6-0.1-0.9c0-0.4,0-0.8,0.1-1.3
		s0.2-0.9,0.4-1.3c0.2-0.4,0.4-0.8,0.7-1.1c0.3-0.3,0.6-0.6,1.1-0.8c0.2-0.1,0.4-0.2,0.6-0.2s0.4-0.1,0.6-0.1c0.3,0,0.6,0.1,0.9,0.2
		c0.2,0.1,0.5,0.3,0.7,0.5c0.2,0.2,0.3,0.4,0.5,0.7c0.1,0.2,0.2,0.5,0.3,0.7c0,0,0,0,0,0.1c0,0,0,0.1,0,0.1c0.1,0.1,0.2,0.1,0.3,0.2
		c0.1,0.1,0.1,0.2,0.1,0.3c0,0.1,0.1,0.2,0.1,0.3c0,0.1,0,0.2,0.1,0.4c0.1,0.2,0.1,0.5,0.2,0.8s0.2,0.5,0.3,0.8
		c0.1,0.3,0.2,0.5,0.4,0.7c0.1,0.2,0.3,0.4,0.5,0.5c0.1,0.1,0.2,0.1,0.2,0.2c0.1,0.1,0.1,0.2,0.1,0.3c0,0.1,0,0.2-0.1,0.4
		c-0.1,0.1-0.2,0.2-0.3,0.3c-0.1,0.1-0.2,0.1-0.3,0.2s-0.2,0.1-0.3,0.1c-0.2,0-0.4-0.1-0.6-0.2c-0.2-0.1-0.4-0.3-0.5-0.5
		c-0.2-0.2-0.3-0.4-0.4-0.6C255.6,13.5,255.5,13.3,255.4,13.1z M254.8,10.4c-0.1,0-0.1-0.1-0.2-0.1c0-0.1-0.1-0.1-0.1-0.2
		c0,0,0-0.1-0.1-0.2c0-0.1-0.1-0.1-0.1-0.2c-0.1-0.2-0.2-0.3-0.3-0.5c-0.1-0.2-0.3-0.3-0.5-0.3c-0.1,0-0.3,0.1-0.4,0.2
		c-0.1,0.1-0.3,0.2-0.4,0.4c-0.3,0.3-0.4,0.7-0.6,1.2s-0.2,0.9-0.2,1.3c0,0.1,0,0.3,0,0.4c0,0.2,0,0.3,0.1,0.5s0.1,0.3,0.2,0.4
		c0.1,0.1,0.2,0.1,0.4,0.1c0.2,0,0.3-0.1,0.6-0.3c0.5-0.3,0.8-0.7,1.1-1.2S254.7,11,254.8,10.4z"/>
	<path d="M261.8,13.3c0.4,0,0.9,0,1.3,0c0.4,0,0.9,0.1,1.3,0.1c0.2,0,0.3,0.1,0.5,0.2c0.2,0.1,0.2,0.3,0.2,0.5
		c0,0.2-0.1,0.5-0.3,0.6c-0.2,0.2-0.4,0.3-0.7,0.3H264c-0.4,0-0.8,0-1.1-0.1c-0.4,0-0.7,0-1.1,0c-0.3,0-0.5,0-0.8,0
		s-0.5,0.1-0.8,0.1c0,0-0.1,0-0.1,0c-0.1,0-0.2,0-0.3,0c-0.1,0-0.2-0.1-0.3-0.1c-0.1-0.1-0.2-0.1-0.2-0.2c-0.1-0.1-0.1-0.2-0.1-0.3
		c0-0.1,0-0.1,0-0.2c0-0.1,0.1-0.1,0.1-0.2c0.2-0.3,0.4-0.6,0.6-0.9c0.2-0.3,0.4-0.6,0.6-0.9c0.4-0.6,0.8-1.1,1.2-1.7
		c0.4-0.6,0.8-1.1,1.1-1.7c-0.3,0-0.6,0-0.9,0.1c-0.3,0-0.6,0-0.9,0c-0.1,0-0.3,0-0.5,0c-0.2,0-0.4,0-0.5-0.1s-0.3-0.1-0.4-0.2
		c-0.1-0.1-0.2-0.2-0.2-0.4c0-0.1,0-0.2,0.1-0.4c0.1-0.1,0.2-0.2,0.3-0.3c0.1-0.1,0.2-0.2,0.4-0.2c0.1-0.1,0.3-0.1,0.4-0.1
		c0.1,0,0.2,0,0.2,0c0.3,0.1,0.7,0.1,1,0.1c0.3,0,0.6,0,1,0c0.3,0,0.6,0,1,0h0.4c0.1,0,0.2,0,0.4,0c0.1,0,0.2,0.1,0.4,0.1
		c0.1,0.1,0.2,0.1,0.3,0.2c0.1,0.1,0.1,0.2,0.1,0.4c0,0.1,0,0.2-0.1,0.4c-0.1,0.2-0.2,0.4-0.4,0.7c-0.1,0.2-0.3,0.5-0.5,0.8
		c-0.2,0.3-0.4,0.6-0.6,0.9c-0.2,0.2-0.3,0.5-0.5,0.7s-0.3,0.5-0.5,0.7c-0.2,0.2-0.3,0.4-0.4,0.6S261.9,13.2,261.8,13.3z"/>
	<path d="M271,13.9c-0.3,0.3-0.6,0.6-1,0.8c-0.4,0.2-0.8,0.3-1.3,0.3c-0.6,0-1-0.2-1.4-0.5c-0.3-0.3-0.6-0.8-0.8-1.2
		c-0.2-0.5-0.3-1-0.3-1.6c-0.1-0.6-0.1-1-0.1-1.5c0-0.3,0-0.6,0-0.8c0-0.3,0-0.6,0.1-0.8s0.2-0.5,0.4-0.6c0.2-0.2,0.5-0.2,0.7-0.2
		c0.2,0,0.3,0,0.5,0.1c0.1,0.1,0.2,0.2,0.2,0.4v0.1c0,0.3,0,0.6-0.1,0.9c0,0.3,0,0.6,0,0.9c0,0.2,0,0.5,0,0.8c0,0.3,0.1,0.6,0.1,0.9
		c0.1,0.3,0.1,0.6,0.2,0.8s0.2,0.4,0.4,0.6c0.2,0.1,0.3,0.2,0.4,0.2c0.2,0,0.3-0.1,0.5-0.3c0.1-0.2,0.3-0.4,0.4-0.7
		c0.1-0.3,0.2-0.6,0.3-0.9c0.1-0.3,0.2-0.7,0.2-1c0.1-0.3,0.1-0.7,0.2-1c0-0.3,0.1-0.5,0.1-0.7c0-0.3,0.2-0.5,0.4-0.6
		c0.2-0.2,0.5-0.2,0.7-0.2c0.2,0,0.4,0.1,0.5,0.2c0.1,0.1,0.2,0.3,0.2,0.4c0,0.2,0,0.5,0,0.7s0,0.5,0,0.7l0.2,3c0,0.3,0,0.6,0.1,0.8
		c0,0.3,0,0.6,0,0.8c0,0.3,0,0.5,0,0.8c0,0.3-0.1,0.5-0.2,0.8c-0.3,0.7-0.7,1.2-1.2,1.5s-1.2,0.5-1.9,0.5c-0.1,0-0.3,0-0.6,0
		c-0.3,0-0.5-0.1-0.8-0.1c-0.3-0.1-0.5-0.2-0.7-0.3c-0.2-0.1-0.3-0.3-0.3-0.5c0-0.1,0-0.2,0.1-0.3c0.1-0.1,0.1-0.2,0.2-0.3
		s0.2-0.1,0.3-0.2c0.1,0,0.2-0.1,0.4-0.1c0.1,0,0.2,0,0.3,0c0.2,0.1,0.5,0.1,0.7,0.2c0.2,0.1,0.5,0.1,0.7,0.1c0.3,0,0.5-0.1,0.7-0.1
		c0.2-0.1,0.3-0.2,0.4-0.4c0.1-0.2,0.2-0.4,0.2-0.6c0-0.2,0.1-0.5,0.1-0.7c0-0.2,0-0.3,0-0.5C271,14.2,271,14,271,13.9z"/>
	<path d="M282.8,5.8c0-0.2,0-0.4,0-0.5c0-0.2,0-0.4,0-0.5c0-0.3,0.2-0.5,0.4-0.6s0.4-0.2,0.7-0.2c0.2,0,0.4,0.1,0.5,0.2
		c0.1,0.1,0.2,0.2,0.2,0.4c0,0.3,0,0.6,0,0.9s0,0.6,0,0.9c0,0.6,0,1.1,0,1.7s0,1.2,0,1.7c0,0.7,0,1.5,0,2.2c0,0.7,0,1.5-0.1,2.2
		c0,0.2-0.2,0.5-0.4,0.6c-0.2,0.2-0.5,0.2-0.7,0.2c-0.1,0-0.3,0-0.4-0.1c-0.1-0.1-0.2-0.2-0.2-0.3c-0.6,0.1-1.2,0.2-1.7,0.2
		c-1.1,0-1.9-0.3-2.5-0.8c-0.5-0.5-0.8-1.3-0.8-2.3c0-0.5,0.1-1,0.2-1.5s0.4-1,0.7-1.4c0.3-0.4,0.7-0.8,1.1-1.1
		c0.4-0.3,0.9-0.4,1.5-0.4c0.3,0,0.5,0,0.8,0.1c0.3,0.1,0.5,0.2,0.7,0.3L282.8,5.8z M282.6,13.2v-0.9c0-0.4,0-0.7,0-1.1
		c0-0.4,0-0.7,0-1.1c-0.2-0.3-0.4-0.5-0.7-0.8s-0.6-0.3-1-0.3c-0.3,0-0.5,0.1-0.7,0.3c-0.2,0.2-0.4,0.4-0.5,0.6s-0.2,0.5-0.3,0.8
		c-0.1,0.3-0.1,0.6-0.1,0.8c0,0.6,0.1,1.1,0.4,1.4s0.8,0.4,1.5,0.4C281.7,13.3,282.2,13.3,282.6,13.2z"/>
	<path d="M288.5,15.1c-0.5,0-1-0.1-1.4-0.3s-0.7-0.5-1-0.8c-0.3-0.3-0.5-0.7-0.6-1.1s-0.2-0.8-0.2-1.3c0-0.3,0-0.7,0.1-1
		s0.2-0.7,0.4-1c0.2-0.3,0.4-0.6,0.6-0.9c0.3-0.3,0.6-0.5,0.9-0.7c0.1,0,0.1,0,0.1,0c0,0,0,0,0,0s0,0,0,0c0.2-0.1,0.5-0.2,0.7-0.2
		c0.2-0.1,0.5-0.1,0.8-0.1c0.5,0,1,0.1,1.4,0.3c0.4,0.2,0.8,0.5,1.1,0.8s0.5,0.7,0.7,1.1c0.2,0.4,0.2,0.9,0.2,1.3
		c0,0.5-0.1,1-0.3,1.5s-0.5,0.9-0.9,1.3s-0.8,0.6-1.3,0.9C289.6,15,289.1,15.1,288.5,15.1z M288.8,13.6c0.3,0,0.5-0.1,0.8-0.2
		c0.2-0.1,0.4-0.3,0.6-0.5s0.3-0.4,0.4-0.7c0.1-0.3,0.1-0.5,0.1-0.8s0-0.5-0.1-0.8c-0.1-0.3-0.2-0.5-0.4-0.7
		c-0.2-0.2-0.4-0.4-0.6-0.5c-0.2-0.1-0.5-0.2-0.8-0.2c-0.2,0-0.4,0.1-0.7,0.2s-0.4,0.3-0.5,0.5c-0.2,0.2-0.3,0.4-0.4,0.7
		c-0.1,0.2-0.1,0.5-0.1,0.7c0,0.3,0,0.5,0.1,0.8c0.1,0.3,0.1,0.5,0.3,0.8c0.1,0.2,0.3,0.4,0.5,0.6C288.3,13.5,288.5,13.6,288.8,13.6
		z"/>
	<path d="M298.5,13.7c-0.2,0.2-0.3,0.3-0.5,0.5c-0.2,0.2-0.4,0.3-0.6,0.4c-0.2,0.1-0.4,0.2-0.7,0.3c-0.2,0.1-0.5,0.1-0.8,0.1
		c-0.4,0-0.7-0.1-1-0.2c-0.3-0.2-0.6-0.4-0.8-0.6c-0.2-0.2-0.4-0.5-0.5-0.8c-0.1-0.3-0.2-0.6-0.2-0.9c0-0.5,0.1-1.1,0.4-1.6
		s0.6-1.1,1-1.5c0.4-0.5,0.9-0.8,1.4-1.1s1-0.4,1.6-0.4c0.3,0,0.6,0,0.8,0.1c0.2,0.1,0.5,0.2,0.7,0.4c0.2,0.2,0.4,0.3,0.5,0.5
		s0.3,0.4,0.4,0.6c0,0.1,0.1,0.2,0.1,0.3c0,0.1,0,0.1,0,0.2c0,0.1,0,0.2,0.1,0.4c0,0.2,0,0.3,0,0.5c0,0.2,0,0.4,0,0.5s0,0.3,0,0.4
		c0,0.5,0,0.9,0,1.4s0,0.9,0,1.4c0,0.4,0,0.7-0.1,1.1s-0.2,0.8-0.3,1.1c-0.2,0.5-0.5,0.8-0.9,1.1c-0.4,0.3-0.9,0.4-1.4,0.4
		c-0.2,0-0.5,0-0.8-0.1c-0.3-0.1-0.5-0.2-0.8-0.3c-0.3-0.1-0.5-0.3-0.7-0.4c-0.2-0.2-0.4-0.3-0.6-0.5c0-0.1-0.1-0.1-0.1-0.2
		c0-0.1-0.1-0.1-0.1-0.2c0-0.1,0-0.2,0.1-0.4s0.2-0.2,0.3-0.3s0.2-0.1,0.4-0.2s0.2-0.1,0.3-0.1c0.2,0,0.4,0.1,0.6,0.2
		c0.2,0.2,0.5,0.4,0.7,0.6c0.3,0.2,0.5,0.3,0.8,0.3c0.2,0,0.4-0.1,0.5-0.2s0.2-0.3,0.3-0.5s0.1-0.4,0.1-0.6c0-0.2,0-0.4,0-0.5
		c0-0.1,0-0.3,0-0.4s0-0.2,0-0.3c0-0.1,0-0.1,0-0.2C298.5,13.9,298.5,13.8,298.5,13.7z M298.5,10c-0.1-0.2-0.2-0.4-0.4-0.5
		c-0.2-0.1-0.3-0.2-0.6-0.2c-0.3,0-0.5,0.1-0.8,0.3c-0.3,0.2-0.5,0.4-0.7,0.7c-0.2,0.3-0.4,0.6-0.5,0.9s-0.2,0.6-0.2,0.9
		c0,0,0,0,0,0.1s0,0,0,0.1c0,0.4,0.1,0.7,0.2,0.9c0.1,0.2,0.4,0.4,0.8,0.4c0.2,0,0.3,0,0.5-0.1s0.2-0.2,0.4-0.3
		c0.4-0.4,0.7-0.8,1-1.3s0.4-0.9,0.5-1.5C298.5,10.2,298.5,10.2,298.5,10C298.5,10.1,298.5,10.1,298.5,10z"/>
	<path d="M6.6,21.5c-0.3,0-0.6,0-0.9,0s-0.6,0-0.9,0c-0.1,0-0.1,0-0.2,0s-0.2-0.1-0.2-0.1c-0.1,0-0.1-0.1-0.2-0.2
		c0-0.1-0.1-0.2-0.1-0.3c0-0.2,0.1-0.5,0.3-0.7s0.4-0.3,0.7-0.3h2.6c0.3,0,0.6,0,0.9,0c0.3,0,0.6,0,0.9,0c0.1,0,0.3,0,0.4,0
		c0.1,0,0.3,0,0.4,0c0.1,0,0.1,0,0.2,0c0.1,0,0.2,0,0.2,0.1c0.1,0,0.1,0.1,0.2,0.2s0.1,0.2,0.1,0.3c0,0.1,0,0.3-0.1,0.4
		c-0.1,0.1-0.1,0.2-0.2,0.3c-0.1,0.1-0.2,0.1-0.3,0.2c-0.1,0.1-0.2,0.1-0.4,0.1c-0.3,0-0.5,0-0.8,0s-0.5,0-0.8,0c0,0.9,0,1.7,0,2.6
		s0,1.7,0,2.6c0,0.8,0,1.6,0,2.3c0,0.2,0,0.4,0,0.6c0,0.2,0,0.4,0,0.6c0,0.3-0.2,0.5-0.4,0.6c-0.2,0.2-0.5,0.2-0.7,0.2
		c-0.2,0-0.4-0.1-0.5-0.2c-0.1-0.1-0.2-0.2-0.2-0.4c0-0.1,0-0.3,0-0.5c0-0.2,0-0.3,0-0.4c0-0.4,0-0.7,0-1c0-0.3,0-0.7,0-1
		c0-1,0-2,0-3C6.6,23.5,6.6,22.5,6.6,21.5z"/>
	<path d="M13.8,29.4c0,0.1,0,0.3,0,0.4c0,0.1,0,0.3,0,0.4c0,0.3-0.1,0.5-0.4,0.6c-0.2,0.2-0.5,0.2-0.7,0.2c-0.2,0-0.4-0.1-0.5-0.2
		c-0.1-0.1-0.2-0.2-0.2-0.4c0-0.1,0-0.2,0-0.3c0-0.1,0-0.2,0-0.3c0-0.8,0-1.6,0-2.4c0-0.8,0-1.6,0-2.4c0-0.7,0-1.4,0-2.2
		c0-0.7,0-1.4,0-2.2c0-0.1,0-0.3,0.1-0.4c0.1-0.1,0.2-0.2,0.3-0.3c0.1-0.1,0.2-0.1,0.3-0.2c0.1,0,0.2-0.1,0.4-0.1
		c0.4,0,0.7,0.2,0.7,0.6c0,0.3,0,0.6,0,0.9c0,0.3,0,0.6,0,0.9c0,0.6,0,1.2,0,1.7c0,0.6,0,1.2,0,1.7c0.5,0,1.1,0,1.6,0s1.1,0,1.6-0.1
		c0-0.3,0-0.6,0-1s0-0.7,0-1c0-0.3,0-0.7,0-1c0-0.3,0-0.7,0-1c0-0.1,0-0.3,0-0.4s0-0.3,0-0.4c0-0.3,0.2-0.5,0.4-0.6
		c0.2-0.2,0.5-0.2,0.7-0.2c0.2,0,0.3,0,0.5,0.1c0.1,0.1,0.2,0.2,0.2,0.4v0c0,0.4,0,0.7,0,1s0,0.7,0,1c0,1,0,1.9,0.1,2.9
		c0,0.9,0.1,1.9,0.1,2.9c0,0.3,0,0.6,0,0.9c0,0.3,0,0.6-0.1,0.9c0,0.3-0.2,0.5-0.4,0.6s-0.5,0.2-0.7,0.2c-0.3,0-0.5-0.1-0.5-0.2
		c-0.1-0.1-0.1-0.3-0.1-0.6c0-1.1,0-2.1,0-3.2c-0.5,0-1.1,0-1.6,0c-0.5,0-1.1,0-1.6,0V29.4z"/>
	<path d="M22.2,27c0,0.2,0,0.5,0,0.7c0,0.3,0,0.6,0.1,0.8c0.1,0.3,0.2,0.5,0.3,0.7s0.3,0.3,0.6,0.3c0.1,0,0.2,0,0.3,0
		c0.1,0,0.2,0,0.3,0c0.4,0,0.8-0.1,1.2-0.2c0.4-0.1,0.8-0.2,1.2-0.2c0,0,0.1,0,0.1,0s0.1,0,0.1,0c0.2,0,0.4,0.1,0.5,0.2
		c0.1,0.1,0.2,0.3,0.2,0.5c0,0.2-0.1,0.4-0.2,0.6s-0.4,0.3-0.6,0.3c-0.2,0.1-0.5,0.1-0.8,0.2C25.3,30.9,25,31,24.7,31
		s-0.6,0.1-0.9,0.1c-0.3,0-0.6,0-0.9,0c-0.4,0-0.7,0-0.9-0.1c-0.3,0-0.5-0.1-0.6-0.3c-0.2-0.1-0.3-0.3-0.5-0.5
		c-0.1-0.2-0.2-0.5-0.3-0.9c-0.1-0.6-0.2-1.2-0.3-1.8c0-0.6-0.1-1.2-0.1-1.8c0-0.6,0-1.1,0-1.7c0-0.5,0.1-1.1,0.1-1.7
		c0-0.3,0-0.5,0-0.8c0-0.3,0-0.5,0-0.8c0-0.2,0.1-0.3,0.1-0.4c0.1-0.1,0.2-0.2,0.3-0.3c0.1-0.1,0.2-0.1,0.3-0.2s0.2-0.1,0.3-0.1
		c0,0,0,0,0.1,0c0,0,0,0,0.1,0c0,0,0.1,0,0.1,0s0.2,0,0.3,0c0.1,0,0.2,0,0.3,0s0.1,0,0.2,0l1.4,0h0.7c0.3,0,0.6,0,0.9,0
		c0.3,0,0.6,0,0.9,0.1c0.1,0,0.1,0,0.2,0s0.2,0.1,0.2,0.1c0.1,0,0.1,0.1,0.2,0.2c0,0.1,0.1,0.2,0.1,0.3c0,0.1,0,0.2-0.1,0.3
		s-0.1,0.2-0.2,0.3c-0.1,0.1-0.2,0.1-0.3,0.2c-0.1,0.1-0.2,0.1-0.3,0.1c-0.2,0-0.5,0-0.7,0c-0.2,0-0.5,0-0.7,0c-0.4,0-0.8,0-1.2,0
		s-0.8,0-1.2,0c0,0.7,0,1.4,0,2c0,0.7,0,1.3,0,2c0.6-0.1,1.3-0.1,1.9-0.2c0.6-0.1,1.3-0.1,1.9-0.1c0,0,0.1,0,0.1,0s0.1,0,0.1,0
		c0.2,0,0.3,0,0.5,0.1c0.2,0.1,0.2,0.2,0.2,0.4c0,0.1,0,0.2-0.1,0.3c-0.1,0.1-0.1,0.2-0.2,0.3c-0.1,0.1-0.2,0.2-0.3,0.2
		c-0.1,0.1-0.2,0.1-0.3,0.1c-0.2,0-0.4,0.1-0.7,0.1c-0.2,0-0.4,0-0.6,0c-0.4,0-0.9,0.1-1.3,0.1C23.1,27,22.6,27,22.2,27z"/>
	<path d="M38,30.2c-0.3,0.3-0.6,0.5-1,0.7c-0.4,0.2-0.8,0.3-1.3,0.3c-0.3,0-0.6-0.1-0.9-0.2s-0.5-0.3-0.8-0.5
		c-0.3-0.3-0.6-0.6-0.8-1s-0.4-0.7-0.5-1.1c-0.1-0.4-0.2-0.8-0.2-1.2c0-0.4-0.1-0.8-0.1-1.2c0-0.7,0.1-1.3,0.2-1.9
		c0.1-0.6,0.2-1.2,0.4-1.9l0-0.1c0.1-0.3,0.3-0.6,0.5-0.9c0.2-0.3,0.4-0.5,0.7-0.8c0.3-0.2,0.6-0.4,0.9-0.5c0.3-0.1,0.7-0.2,1.1-0.2
		c0.4,0,0.7,0.1,1.1,0.2c0.3,0.1,0.7,0.3,1,0.5c0.3,0.3,0.6,0.6,0.9,0.9s0.4,0.7,0.6,1.1c0.1,0.4,0.2,0.8,0.3,1.1
		c0.1,0.4,0.1,0.8,0.1,1.2c0,0.6-0.1,1.3-0.2,2c-0.2,0.7-0.4,1.3-0.8,1.8c0,0.1,0.1,0.2,0.2,0.3c0.1,0.2,0.2,0.3,0.3,0.5
		s0.2,0.3,0.2,0.5C40,30,40,30.1,40,30.2c0,0.1,0,0.2-0.1,0.4c-0.1,0.1-0.2,0.2-0.3,0.3c-0.1,0.1-0.2,0.1-0.4,0.2
		c-0.1,0-0.2,0.1-0.4,0.1c-0.1,0-0.2,0-0.3-0.1c-0.1,0-0.2-0.1-0.2-0.2c0-0.1-0.1-0.1-0.1-0.2c-0.1-0.1-0.1-0.1-0.1-0.2
		c0,0,0-0.1-0.1-0.1C38,30.3,38,30.2,38,30.2z M37.2,28.8c-0.1-0.1-0.2-0.3-0.3-0.6c-0.2-0.3-0.3-0.6-0.5-0.9
		c-0.2-0.3-0.3-0.6-0.5-0.9s-0.2-0.5-0.2-0.5c0-0.1,0-0.2,0.1-0.3c0.1-0.1,0.2-0.2,0.3-0.2c0.1-0.1,0.2-0.1,0.3-0.1
		c0.1,0,0.2-0.1,0.3-0.1c0.3,0,0.5,0.1,0.7,0.4c0.1,0.1,0.1,0.2,0.2,0.3c0,0.1,0.1,0.2,0.2,0.3c0.1,0.1,0.1,0.3,0.2,0.4
		c0.1,0.1,0.2,0.3,0.2,0.4c0.1-0.3,0.1-0.6,0.2-0.8c0-0.3,0.1-0.6,0.1-0.9c0-0.3,0-0.7-0.1-1c-0.1-0.3-0.1-0.6-0.2-0.9
		c-0.1-0.2-0.2-0.4-0.3-0.6c-0.1-0.2-0.3-0.4-0.5-0.6c-0.2-0.2-0.4-0.3-0.6-0.4c-0.2-0.1-0.4-0.2-0.7-0.2c-0.2,0-0.4,0-0.5,0.1
		c-0.1,0.1-0.3,0.2-0.4,0.3s-0.2,0.3-0.3,0.4s-0.1,0.3-0.2,0.5c-0.1,0.4-0.2,0.9-0.3,1.3s-0.1,0.9-0.1,1.3c0,0.1,0,0.3,0,0.6
		c0,0.2,0,0.5,0.1,0.8s0.1,0.6,0.2,0.9c0.1,0.3,0.1,0.6,0.2,0.8s0.2,0.5,0.3,0.6s0.3,0.3,0.4,0.3c0.1,0,0.2,0.1,0.4,0.1
		c0.2,0,0.5-0.1,0.7-0.2S37,29,37.2,28.8z"/>
	<path d="M47.3,29.7c-0.3,0.4-0.6,0.7-1,1c-0.4,0.3-0.9,0.4-1.4,0.4c-0.5,0-0.9-0.1-1.2-0.3c-0.3-0.2-0.6-0.4-0.9-0.8
		c-0.2-0.3-0.4-0.7-0.5-1.1c-0.1-0.4-0.2-0.8-0.3-1.2c-0.1-0.4-0.1-0.8-0.1-1.2s0-0.7,0-1c0-0.5,0-1.1,0.1-1.6
		c0-0.5,0.1-1.1,0.1-1.6c0-0.2,0-0.4,0.1-0.7c0-0.2,0-0.4,0.1-0.6c0.1-0.3,0.2-0.5,0.4-0.6c0.2-0.2,0.5-0.2,0.7-0.2
		c0.2,0,0.3,0,0.4,0.1c0.1,0.1,0.2,0.2,0.2,0.4v0.1c-0.1,0.6-0.1,1.3-0.2,1.9c-0.1,0.6-0.1,1.2-0.1,1.9c0,0.2,0,0.3,0,0.5
		c0,0.2,0,0.3,0,0.5c0,0.3,0,0.6,0,1c0,0.4,0,0.7,0.1,1.1c0.1,0.4,0.2,0.7,0.3,1c0.1,0.3,0.3,0.5,0.5,0.7c0.1,0.1,0.2,0.1,0.3,0.2
		c0.1,0.1,0.2,0.1,0.3,0.1c0.2,0,0.3-0.1,0.4-0.2s0.2-0.3,0.3-0.6c0.1-0.2,0.2-0.5,0.2-0.8c0.1-0.3,0.1-0.6,0.2-0.8
		c0-0.3,0.1-0.5,0.1-0.8s0-0.4,0-0.5c0-0.5,0-1.1,0-1.6c0-0.5,0-1.1,0-1.6c0-0.2,0-0.5,0-0.8c0-0.3,0-0.6,0.1-0.8
		c0-0.3,0.2-0.5,0.4-0.6c0.2-0.2,0.5-0.2,0.7-0.2c0.2,0,0.4,0.1,0.5,0.2c0.1,0.1,0.2,0.2,0.2,0.4c0,0.1,0,0.3,0,0.5
		c0,0.2,0,0.3,0,0.5c0,0.4,0,0.7,0,1.1s0,0.7,0,1.1c0,0.6,0,1.1,0,1.6c0,0.5,0.1,1,0.1,1.5s0.1,1,0.3,1.5c0.1,0.5,0.3,1,0.5,1.5
		c0,0.1,0,0.1,0,0.2c0,0.1,0,0.2-0.1,0.4c-0.1,0.1-0.2,0.2-0.3,0.3s-0.2,0.1-0.3,0.2c-0.1,0-0.2,0.1-0.3,0.1c-0.3,0-0.5-0.1-0.7-0.4
		c-0.1-0.1-0.1-0.3-0.2-0.5C47.4,30,47.4,29.9,47.3,29.7z"/>
	<path d="M51.2,30.6c0-0.1,0-0.3,0-0.4c0-0.1,0-0.3,0-0.4c0-0.3,0-0.5,0-0.8c0-0.3,0-0.5,0-0.8c0-0.9,0-1.7,0-2.5s0-1.7,0.1-2.5
		l0.1-1.7c0-0.1,0-0.2,0-0.4c0-0.1,0-0.2,0-0.4c0-0.3,0.2-0.5,0.4-0.6c0.2-0.2,0.5-0.2,0.7-0.2c0.2,0,0.3,0.1,0.5,0.1
		c0.1,0.1,0.2,0.2,0.2,0.4c0,0.4,0,0.9,0,1.3s0,0.9,0,1.3c0,0.9,0,1.9,0,2.8c0,0.9,0,1.8,0,2.8l0,1.7c0,0.1,0,0.2-0.1,0.4
		c-0.1,0.1-0.2,0.2-0.3,0.3s-0.2,0.1-0.3,0.2s-0.2,0.1-0.4,0.1c-0.2,0-0.4-0.1-0.5-0.2C51.3,30.9,51.2,30.8,51.2,30.6z"/>
	<path d="M60.3,23c0-0.2-0.1-0.4-0.2-0.5s-0.2-0.3-0.3-0.5c-0.1-0.1-0.3-0.2-0.5-0.3c-0.2-0.1-0.4-0.1-0.6-0.1
		c-0.3,0-0.6,0.1-0.8,0.2c-0.3,0.2-0.5,0.4-0.7,0.6c-0.4,0.5-0.7,1-0.9,1.6c-0.2,0.6-0.3,1.2-0.3,1.9c0,0.4,0,0.8,0.1,1.2
		c0.1,0.4,0.2,0.8,0.4,1.2c0.2,0.4,0.4,0.7,0.7,0.9c0.3,0.2,0.7,0.4,1.1,0.4c0.4,0,0.7-0.1,1.1-0.3c0.3-0.2,0.6-0.4,0.8-0.8
		c0.1-0.2,0.2-0.4,0.4-0.5s0.4-0.2,0.6-0.2c0.2,0,0.3,0,0.5,0.1c0.2,0.1,0.3,0.2,0.3,0.5c0,0.1,0,0.3-0.1,0.3
		c-0.1,0.3-0.4,0.7-0.6,0.9c-0.3,0.3-0.6,0.5-0.9,0.7s-0.7,0.4-1.1,0.5c-0.4,0.1-0.8,0.2-1.2,0.2c-0.8,0-1.4-0.2-1.9-0.5
		c-0.5-0.3-0.9-0.7-1.2-1.2c-0.3-0.5-0.5-1-0.6-1.6c-0.1-0.6-0.2-1.2-0.2-1.7c0-0.6,0.1-1.1,0.2-1.8c0.1-0.6,0.4-1.2,0.6-1.7
		c0.3-0.5,0.7-1,1.1-1.5c0.5-0.4,1-0.8,1.6-1c0.2,0,0.3-0.1,0.5-0.1c0.2,0,0.3,0,0.5,0c0.3,0,0.7,0.1,1,0.1c0.3,0.1,0.6,0.2,0.9,0.4
		c0.3,0.2,0.5,0.4,0.7,0.6c0.2,0.2,0.3,0.5,0.4,0.8c0,0.1,0.1,0.2,0.1,0.4s0,0.3,0,0.4s0,0.2-0.1,0.4c-0.1,0.1-0.1,0.2-0.2,0.3
		c-0.1,0.1-0.2,0.1-0.3,0.2c-0.1,0-0.2,0.1-0.4,0.1c-0.2,0-0.4-0.1-0.5-0.2C60.4,23.4,60.3,23.2,60.3,23L60.3,23z"/>
	<path d="M65.3,28.2c0,0.4,0,0.7,0.1,1c0,0.3,0,0.7,0,1c0,0.3-0.1,0.5-0.3,0.6c-0.2,0.2-0.5,0.2-0.7,0.2c-0.2,0-0.4-0.1-0.5-0.2
		c-0.1-0.1-0.2-0.2-0.2-0.4c0-0.2,0-0.3,0-0.5c0-0.2,0-0.3,0-0.5c-0.1-1.5-0.2-2.9-0.2-4.4c0-1.5,0-2.9,0-4.4c0-0.1,0-0.3,0.1-0.4
		c0.1-0.1,0.2-0.2,0.3-0.3c0.1-0.1,0.2-0.1,0.4-0.2s0.2-0.1,0.4-0.1c0.2,0,0.4,0.1,0.5,0.2s0.2,0.3,0.2,0.5c0,0.7,0,1.4,0,2.1
		c0,0.7,0,1.4,0.1,2.1c0.4-0.5,0.8-0.9,1.2-1.4c0.4-0.4,0.8-0.9,1.2-1.4c0.2-0.2,0.3-0.4,0.5-0.6c0.2-0.2,0.3-0.4,0.5-0.6
		c0.1-0.2,0.2-0.3,0.4-0.4c0.1-0.1,0.3-0.2,0.5-0.2c0.1,0,0.2,0,0.3,0c0.1,0,0.2,0.1,0.3,0.1c0.1,0,0.1,0.1,0.2,0.2
		c0,0.1,0.1,0.2,0.1,0.3c0,0.1,0,0.2-0.1,0.3c0,0.1-0.1,0.2-0.1,0.2c-0.2,0.3-0.5,0.6-0.7,0.9c-0.2,0.3-0.5,0.6-0.7,0.9
		c-0.5,0.6-1,1.1-1.5,1.7c-0.5,0.6-1,1.1-1.5,1.7c0.6,0.4,1.2,0.7,1.7,1.1c0.6,0.4,1.1,0.8,1.6,1.2c0.2,0.2,0.5,0.4,0.7,0.5
		c0.2,0.2,0.5,0.4,0.7,0.6c0,0.1,0.1,0.1,0.1,0.2s0.1,0.1,0.1,0.2c0,0.1,0,0.2-0.1,0.3c-0.1,0.1-0.2,0.2-0.3,0.3S70,31,69.9,31
		s-0.2,0.1-0.4,0.1c-0.1,0-0.3,0-0.4-0.1c-0.2-0.1-0.5-0.3-0.7-0.5c-0.2-0.2-0.4-0.3-0.7-0.5c-0.4-0.3-0.8-0.6-1.2-0.9
		C66.2,28.7,65.8,28.4,65.3,28.2z"/>
	<path d="M76.6,30.6c-0.1,0-0.3-0.1-0.3-0.2c-0.1-0.1-0.1-0.2-0.2-0.4c-0.1-0.2-0.1-0.4-0.1-0.7c0-0.3-0.1-0.5-0.1-0.7
		c-0.1-0.6-0.1-1.2-0.2-1.8c0-0.6,0-1.2,0-1.8c0-0.5,0-1.1,0-1.6c0-0.5,0.1-1.1,0.1-1.6c0,0,0-0.1,0-0.1c0,0,0-0.1,0-0.1
		c0,0,0-0.1,0-0.1c0-0.1,0-0.1,0.1-0.2c0,0,0.1-0.1,0.1-0.1c0.4-0.3,0.8-0.6,1.2-0.8c0.5-0.2,1-0.3,1.5-0.3c0.2,0,0.3,0,0.5,0
		c0.4,0.1,0.8,0.1,1.1,0.3c0.4,0.1,0.7,0.3,1,0.5c0.3,0.2,0.5,0.5,0.7,0.8s0.2,0.7,0.2,1.1c0,0.3-0.1,0.6-0.2,0.9
		c-0.1,0.3-0.2,0.5-0.4,0.8c-0.2,0.2-0.4,0.5-0.6,0.7s-0.4,0.4-0.7,0.6c0.4,0,0.7,0.1,1.1,0.2s0.7,0.2,0.9,0.4s0.5,0.4,0.7,0.7
		c0.2,0.3,0.2,0.7,0.2,1.1c0,0.6-0.1,1.1-0.4,1.5c-0.3,0.4-0.7,0.7-1.1,0.9s-1,0.4-1.5,0.5c-0.6,0.1-1.1,0.1-1.6,0.1
		c-0.1,0-0.3,0-0.4,0c-0.2,0-0.3,0-0.5,0s-0.3,0-0.5,0c-0.2,0-0.3,0-0.4-0.1c-0.1,0-0.2,0-0.3-0.1S76.7,30.7,76.6,30.6z M77.5,25.8
		c0.1-0.1,0.2-0.1,0.4-0.2c0.1-0.1,0.3-0.1,0.4-0.2c0.2-0.1,0.5-0.3,0.7-0.5c0.3-0.2,0.5-0.4,0.7-0.6c0.2-0.2,0.4-0.4,0.6-0.7
		c0.2-0.2,0.2-0.5,0.2-0.8c0-0.2-0.1-0.4-0.2-0.6c-0.1-0.2-0.2-0.3-0.4-0.5c-0.2-0.1-0.4-0.2-0.6-0.3c-0.2-0.1-0.5-0.1-0.7-0.1
		c-0.2,0-0.4,0-0.6,0.1c-0.2,0.1-0.4,0.2-0.5,0.3c-0.1,0.9-0.1,1.7-0.1,2.6c0,0.2,0,0.5,0,0.7C77.5,25.4,77.5,25.6,77.5,25.8z
		 M77.9,29.5c0.1,0,0.2,0,0.3,0s0.2,0,0.3,0c0.2,0,0.5,0,0.8,0c0.4,0,0.7-0.1,1.1-0.1s0.7-0.2,1-0.3c0.3-0.1,0.4-0.3,0.4-0.6
		c0-0.1,0-0.3-0.1-0.4c-0.1-0.1-0.1-0.3-0.2-0.4c-0.2-0.3-0.4-0.4-0.7-0.5s-0.6-0.1-1-0.1s-0.7,0-1,0.1c-0.2,0-0.4,0.1-0.5,0.1
		c-0.2,0-0.4,0.1-0.5,0.1c0,0-0.1,0-0.1,0C77.7,28.1,77.8,28.8,77.9,29.5z"/>
	<path d="M86.5,28c0,0.4,0,0.8,0,1.1c0,0.4,0,0.7,0,1.1c0,0.1,0,0.3-0.1,0.4s-0.1,0.2-0.3,0.3S86,31,85.9,31s-0.3,0.1-0.4,0.1
		c-0.2,0-0.4-0.1-0.5-0.2c-0.1-0.1-0.2-0.2-0.2-0.4c0-0.2,0-0.3,0-0.5c0-0.2,0-0.3,0-0.5c-0.1-1.6-0.1-3.2-0.1-4.7
		c0-0.4,0-0.8,0-1.3s0-0.8,0-1.3c0-0.2,0-0.4,0-0.6c0-0.2,0-0.4,0-0.6c0-0.1,0-0.2,0.1-0.4c0.1-0.1,0.2-0.2,0.3-0.3s0.2-0.1,0.3-0.2
		s0.2-0.1,0.4-0.1c0,0,0.1,0,0.2,0c0.4-0.1,0.7-0.2,1.1-0.3s0.8-0.1,1.2-0.1c0.5,0,0.9,0.1,1.3,0.2c0.4,0.2,0.7,0.4,0.9,0.6
		s0.4,0.6,0.6,0.9c0.1,0.4,0.2,0.8,0.2,1.2c0,0.4-0.1,0.9-0.2,1.3c-0.1,0.4-0.3,0.8-0.5,1.2c-0.2,0.4-0.5,0.7-0.8,1
		c-0.3,0.3-0.7,0.6-1,0.8c0.5,0.3,0.9,0.7,1.3,1.1c0.4,0.5,0.8,0.9,1,1.4c0.1,0.1,0.1,0.2,0.1,0.4c0,0.1,0,0.2-0.1,0.4
		c-0.1,0.1-0.1,0.2-0.2,0.3s-0.2,0.2-0.3,0.2c-0.1,0-0.3,0.1-0.4,0.1c-0.2,0-0.4-0.1-0.6-0.3c-0.1-0.1-0.2-0.2-0.3-0.3
		s-0.2-0.2-0.2-0.3c-0.2-0.2-0.3-0.4-0.5-0.6c-0.2-0.2-0.4-0.4-0.6-0.6c-0.2-0.2-0.4-0.3-0.7-0.5C87.1,28.1,86.8,28,86.5,28z
		 M86.5,26.4C86.5,26.4,86.5,26.4,86.5,26.4c0.1,0,0.2-0.1,0.3-0.1c0.1,0,0.2-0.1,0.3-0.1c0.3-0.1,0.6-0.3,0.9-0.6s0.5-0.5,0.8-0.8
		c0.2-0.3,0.4-0.6,0.5-0.9c0.1-0.3,0.2-0.7,0.2-1c0-0.5-0.1-0.9-0.4-1.2c-0.2-0.3-0.6-0.4-1.1-0.4c-0.2,0-0.5,0-0.8,0.1
		c-0.2,0.1-0.5,0.1-0.8,0.2c0,0.3,0,0.6,0,0.9c0,0.3,0,0.6,0,0.9C86.5,24.3,86.5,25.4,86.5,26.4z"/>
	<path d="M93.6,30.4c-0.3-0.2-0.6-0.5-0.8-0.8s-0.4-0.6-0.5-0.9c-0.1-0.3-0.2-0.7-0.3-1c-0.1-0.4-0.1-0.7-0.1-1.1
		c0-0.3,0-0.7,0.1-1.2c0.1-0.4,0.1-0.9,0.2-1.3c0.1-0.4,0.2-0.9,0.4-1.3s0.3-0.8,0.5-1c0.2-0.2,0.4-0.5,0.6-0.7
		c0.2-0.2,0.5-0.4,0.7-0.6s0.5-0.3,0.8-0.4s0.6-0.1,0.9-0.1c0.6,0,1.1,0.2,1.6,0.5c0.4,0.3,0.8,0.6,1.1,0.9c0.3,0.4,0.5,0.8,0.7,1.2
		s0.3,0.9,0.4,1.3c0.1,0.5,0.1,0.9,0.1,1.3c0,0.9-0.2,1.8-0.5,2.6c-0.1,0.2-0.2,0.5-0.4,0.8s-0.3,0.6-0.5,0.9
		c-0.2,0.3-0.4,0.6-0.7,0.8c-0.2,0.2-0.5,0.4-0.8,0.5c-0.2,0.1-0.3,0.1-0.5,0.1c-0.2,0-0.4,0-0.5,0c-0.4,0-0.9-0.1-1.4-0.2
		S94,30.6,93.6,30.4z M95.7,29.4c0.1,0,0.2,0,0.2,0c0.1,0,0.2,0,0.2,0c0.4,0,0.7-0.1,1-0.5c0.3-0.3,0.5-0.7,0.7-1.1
		c0.2-0.4,0.3-0.9,0.4-1.3c0.1-0.5,0.1-0.8,0.1-1.1c0-0.5-0.1-1.1-0.2-1.6c-0.2-0.5-0.4-1-0.8-1.4c-0.2-0.3-0.4-0.5-0.6-0.7
		c-0.2-0.2-0.5-0.3-0.8-0.3c-0.4,0-0.7,0.1-1,0.3c-0.2,0.2-0.5,0.5-0.6,0.9c0,0.1-0.1,0.2-0.1,0.2c0,0.1,0,0.2-0.1,0.2
		c-0.1,0.5-0.3,0.9-0.4,1.4s-0.1,1-0.1,1.4c0,0.4,0,0.7,0.1,1.1c0.1,0.4,0.2,0.7,0.3,1c0.1,0.3,0.3,0.6,0.6,0.8
		C94.9,29.2,95.3,29.3,95.7,29.4z"/>
	<path d="M103.6,26c0.1-0.4,0.2-0.8,0.3-1.2c0.1-0.4,0.2-0.8,0.3-1.2l0.4-1.6c0.1-0.2,0.2-0.4,0.4-0.5c0.2-0.1,0.4-0.2,0.6-0.2
		c0.2,0,0.4,0.1,0.5,0.2c0.1,0.1,0.2,0.3,0.2,0.4c0,0.1,0,0.2,0.1,0.3s0,0.2,0.1,0.3c0.1,0.6,0.2,1.1,0.4,1.7
		c0.1,0.6,0.3,1.1,0.4,1.7c0.1-0.6,0.2-1.2,0.3-1.8s0.2-1.2,0.3-1.8c0-0.2,0.1-0.5,0.1-0.7c0-0.2,0.1-0.5,0.1-0.7
		c0-0.1,0-0.2,0.1-0.3c0-0.1,0-0.2,0.1-0.3c0.1-0.2,0.2-0.4,0.4-0.5s0.4-0.2,0.6-0.2c0.5,0,0.8,0.3,0.8,0.8
		c-0.2,1.1-0.4,2.3-0.6,3.4c-0.2,1.1-0.4,2.2-0.6,3.4c-0.1,0.4-0.1,0.8-0.2,1.1c-0.1,0.4-0.1,0.8-0.2,1.1c0,0.2,0,0.3-0.1,0.5
		c0,0.2,0,0.3-0.1,0.5c0,0.1-0.1,0.2-0.1,0.3S108.1,31,108,31c-0.1,0.1-0.2,0.1-0.3,0.1c-0.1,0-0.2,0-0.3,0c-0.3,0-0.4-0.1-0.5-0.2
		c-0.1-0.1-0.2-0.3-0.2-0.5c0,0,0-0.1,0-0.2c0,0,0-0.1,0-0.1c-0.1-0.2-0.1-0.4-0.1-0.6c-0.1-0.2-0.1-0.4-0.1-0.6
		c-0.1-0.5-0.3-1-0.4-1.5c-0.1-0.5-0.3-1-0.4-1.5c-0.1,0.5-0.2,0.9-0.3,1.4c-0.1,0.4-0.2,0.9-0.3,1.4l-0.3,1.2c0,0.1,0,0.2-0.1,0.3
		c0,0.1,0,0.2-0.1,0.3c-0.1,0.2-0.2,0.4-0.4,0.5c-0.2,0.1-0.4,0.2-0.6,0.2c-0.2,0-0.4-0.1-0.5-0.2c-0.1-0.1-0.2-0.2-0.3-0.4
		c0-0.2-0.1-0.3-0.1-0.5c0-0.2-0.1-0.3-0.1-0.5c-0.3-1.5-0.5-3-0.7-4.5c-0.2-1.5-0.3-3-0.4-4.5v0c0-0.1,0-0.3,0.1-0.4
		c0.1-0.1,0.2-0.2,0.3-0.3c0.1-0.1,0.2-0.1,0.3-0.2c0.1,0,0.2-0.1,0.4-0.1c0.3,0,0.5,0.1,0.6,0.3c0.1,0.2,0.1,0.4,0.2,0.7
		c0,0,0,0.1,0,0.1c0,0.1,0,0.1,0,0.1c0.1,0.9,0.2,1.7,0.3,2.5C103.4,24.3,103.5,25.1,103.6,26z"/>
	<path d="M111.4,29.1c0-0.6,0-1.2,0-1.8s0-1.2,0-1.8c0-0.5,0-1.1,0-1.6s0-1.1,0-1.6c0-0.2,0-0.5,0-0.8c0-0.3,0-0.5,0.1-0.7
		c0-0.2,0.2-0.4,0.4-0.6c0.2-0.2,0.5-0.3,0.7-0.3c0.2,0,0.3,0,0.4,0.1c0.1,0.1,0.2,0.2,0.2,0.3c0,0.1,0.1,0.2,0.1,0.3
		c0,0.1,0.1,0.2,0.1,0.3c0.4,1,0.8,1.9,1.2,2.9c0.4,0.9,0.8,1.9,1.3,2.8c0-0.7,0-1.3,0-2c0-0.6,0-1.3,0-1.9l0-1.5c0-0.1,0-0.2,0-0.3
		c0-0.1,0-0.2,0-0.3c0-0.3,0.2-0.5,0.4-0.6c0.2-0.2,0.5-0.2,0.7-0.2c0.2,0,0.4,0.1,0.5,0.2c0.1,0.1,0.2,0.3,0.2,0.5
		c0,1.5,0,2.9-0.1,4.4c-0.1,1.4-0.1,2.9-0.1,4.4v1c0,0.3-0.1,0.5-0.3,0.6s-0.4,0.2-0.7,0.2c-0.3,0-0.6-0.1-0.8-0.4
		c-0.5-0.9-1-1.8-1.5-2.7c-0.5-0.9-0.9-1.9-1.3-2.8c0,1.2,0,2.4,0,3.6c0,0.3,0,0.6,0,0.8c0,0.3,0,0.6,0,0.8c0,0.1,0,0.2-0.1,0.4
		c-0.1,0.1-0.1,0.2-0.3,0.3s-0.2,0.1-0.4,0.2c-0.1,0-0.3,0.1-0.4,0.1c-0.2,0-0.4-0.1-0.5-0.2c-0.1-0.1-0.2-0.2-0.2-0.4L111.4,29.1z"
		/>
	<path d="M124.7,25.6c0,0.7,0.1,1.4,0.1,2.1c0,0.7,0.1,1.4,0.2,2.1c0,0.1,0,0.2,0,0.2c0,0.1,0,0.2,0,0.2c0,0.1,0,0.3-0.1,0.4
		c-0.1,0.1-0.2,0.2-0.3,0.3c-0.1,0.1-0.2,0.1-0.4,0.2c-0.1,0-0.2,0.1-0.4,0.1c-0.2,0-0.4,0-0.5-0.1c-0.1-0.1-0.2-0.2-0.2-0.4
		c0-0.2-0.1-0.5-0.1-0.7c0-0.2,0-0.5-0.1-0.7c-0.1-0.6-0.1-1.2-0.1-1.8s-0.1-1.2-0.1-1.8c0-0.3,0-0.6,0-0.8c0-0.3,0-0.6,0-0.9
		c0-0.6,0.1-1.2,0.2-1.6c0.1-0.5,0.3-0.8,0.6-1.1s0.7-0.5,1.1-0.7c0.5-0.1,1.1-0.2,1.8-0.2c0.4,0,0.9,0,1.4,0.1
		c0.5,0,0.9,0.1,1.4,0.2c0.1,0,0.3,0.1,0.5,0.2c0.2,0.1,0.2,0.2,0.2,0.5c0,0.2-0.1,0.4-0.3,0.6c-0.2,0.2-0.4,0.2-0.7,0.2h-0.1
		c-0.6-0.1-1.1-0.1-1.6-0.1c-0.6,0-1.1,0-1.7,0c-0.1,0-0.2,0-0.3,0c-0.1,0-0.2,0-0.3,0.1c-0.1,0.1-0.2,0.3-0.3,0.6
		c0,0.1,0,0.3,0,0.4c0,0.2,0,0.3,0,0.5c0,0.2,0,0.3,0,0.5s0,0.3,0,0.4c0.2,0,0.5-0.1,0.8-0.1s0.7-0.1,1.1-0.1s0.7,0,1,0
		c0.3,0,0.5,0,0.7,0c0.2,0,0.3,0,0.5,0c0.2,0,0.3,0,0.5,0c0.1,0,0.1,0,0.2,0c0.1,0,0.2,0,0.2,0.1s0.1,0.1,0.2,0.2
		c0,0.1,0.1,0.2,0.1,0.3c0,0.1,0,0.2-0.1,0.4c-0.1,0.1-0.1,0.2-0.2,0.3s-0.2,0.1-0.3,0.2c-0.1,0.1-0.2,0.1-0.3,0.1
		c-0.3,0-0.6,0-0.8,0c-0.3,0-0.6,0-0.8,0c-0.4,0-0.8,0-1.3,0C125.5,25.5,125.1,25.6,124.7,25.6z"/>
	<path d="M132.4,30.4c-0.3-0.2-0.6-0.5-0.8-0.8s-0.4-0.6-0.5-0.9c-0.1-0.3-0.2-0.7-0.3-1c-0.1-0.4-0.1-0.7-0.1-1.1
		c0-0.3,0-0.7,0.1-1.2c0.1-0.4,0.1-0.9,0.2-1.3c0.1-0.4,0.2-0.9,0.4-1.3s0.3-0.8,0.5-1c0.2-0.2,0.4-0.5,0.6-0.7
		c0.2-0.2,0.5-0.4,0.7-0.6s0.5-0.3,0.8-0.4s0.6-0.1,0.9-0.1c0.6,0,1.1,0.2,1.6,0.5c0.4,0.3,0.8,0.6,1.1,0.9c0.3,0.4,0.5,0.8,0.7,1.2
		s0.3,0.9,0.4,1.3c0.1,0.5,0.1,0.9,0.1,1.3c0,0.9-0.2,1.8-0.5,2.6c-0.1,0.2-0.2,0.5-0.4,0.8s-0.3,0.6-0.5,0.9
		c-0.2,0.3-0.4,0.6-0.7,0.8c-0.2,0.2-0.5,0.4-0.8,0.5c-0.2,0.1-0.3,0.1-0.5,0.1c-0.2,0-0.4,0-0.5,0c-0.4,0-0.9-0.1-1.4-0.2
		S132.8,30.6,132.4,30.4z M134.5,29.4c0.1,0,0.2,0,0.2,0c0.1,0,0.2,0,0.2,0c0.4,0,0.7-0.1,1-0.5c0.3-0.3,0.5-0.7,0.7-1.1
		c0.2-0.4,0.3-0.9,0.4-1.3c0.1-0.5,0.1-0.8,0.1-1.1c0-0.5-0.1-1.1-0.2-1.6c-0.2-0.5-0.4-1-0.8-1.4c-0.2-0.3-0.4-0.5-0.6-0.7
		c-0.2-0.2-0.5-0.3-0.8-0.3c-0.4,0-0.7,0.1-1,0.3c-0.2,0.2-0.5,0.5-0.6,0.9c0,0.1-0.1,0.2-0.1,0.2c0,0.1,0,0.2-0.1,0.2
		c-0.1,0.5-0.3,0.9-0.4,1.4s-0.1,1-0.1,1.4c0,0.4,0,0.7,0.1,1.1c0.1,0.4,0.2,0.7,0.3,1c0.1,0.3,0.3,0.6,0.6,0.8
		C133.8,29.2,134.1,29.3,134.5,29.4z"/>
	<path d="M144.3,21.7c0.1-0.2,0.2-0.4,0.3-0.6c0.1-0.2,0.2-0.4,0.4-0.6c0.2-0.3,0.5-0.5,0.9-0.5c0.1,0,0.2,0,0.3,0
		c0.1,0,0.2,0.1,0.2,0.1c0.1,0,0.1,0.1,0.2,0.2c0.1,0.1,0.1,0.2,0.1,0.3c0,0.1,0,0.1,0,0.2c0,0.1,0,0.1-0.1,0.2
		c-0.1,0.3-0.2,0.5-0.4,0.8c-0.1,0.3-0.3,0.5-0.4,0.8c-0.3,0.5-0.5,1.1-0.8,1.6s-0.5,1.1-0.8,1.6c0.1,0.1,0.2,0.3,0.3,0.6
		c0.1,0.3,0.3,0.6,0.5,0.9c0.2,0.3,0.4,0.7,0.5,1c0.2,0.4,0.4,0.7,0.5,1c0.2,0.3,0.3,0.6,0.4,0.8c0.1,0.2,0.1,0.4,0.1,0.4
		c0,0.1,0,0.2-0.1,0.3c-0.1,0.1-0.2,0.2-0.3,0.3s-0.2,0.1-0.3,0.2c-0.1,0-0.2,0-0.3,0c-0.3,0-0.5-0.1-0.7-0.3
		c-0.1-0.2-0.2-0.4-0.3-0.6s-0.2-0.4-0.3-0.6c-0.2-0.3-0.4-0.6-0.5-1c-0.2-0.3-0.4-0.6-0.5-1c-0.2,0.3-0.3,0.6-0.5,0.9
		s-0.3,0.6-0.5,0.9c-0.1,0.2-0.2,0.3-0.3,0.5c-0.1,0.2-0.2,0.3-0.3,0.5c-0.1,0.2-0.2,0.3-0.4,0.4c-0.2,0.1-0.3,0.1-0.5,0.1
		c-0.1,0-0.2,0-0.3,0c-0.1,0-0.2-0.1-0.3-0.1c-0.1,0-0.1-0.1-0.2-0.2c-0.1-0.1-0.1-0.2-0.1-0.3c0-0.1,0-0.1,0-0.2
		c0-0.1,0-0.1,0.1-0.2c0.1-0.2,0.2-0.5,0.4-0.7c0.1-0.2,0.2-0.5,0.4-0.7c0.2-0.5,0.5-1,0.8-1.4c0.2-0.5,0.5-1,0.8-1.4
		c-0.3-0.5-0.6-1.1-0.8-1.6c-0.3-0.5-0.6-1.1-0.8-1.6c-0.1-0.3-0.3-0.5-0.4-0.8c-0.1-0.3-0.3-0.5-0.4-0.8c0-0.1-0.1-0.2-0.1-0.3
		c0-0.1,0-0.2,0.1-0.3c0.1-0.1,0.2-0.2,0.3-0.3c0.1-0.1,0.2-0.1,0.3-0.2c0.1,0,0.2-0.1,0.3-0.1c0.3,0,0.5,0.1,0.7,0.4
		c0.1,0.1,0.1,0.1,0.1,0.2c0,0.1,0.1,0.1,0.1,0.2l0.5,0.9c0.2,0.4,0.4,0.8,0.6,1.1s0.4,0.7,0.6,1.1L144.3,21.7z"/>
	<path d="M155.8,21.6c-0.3,0-0.6,0-0.9,0c-0.3,0-0.6,0-0.8,0c-0.2,0-0.3,0-0.5-0.1s-0.2-0.2-0.2-0.4c0-0.3,0.1-0.5,0.3-0.7
		s0.4-0.3,0.7-0.3c0.2,0,0.3,0,0.5,0c0.2,0,0.3,0,0.5,0c0.4,0,0.7,0,1.1-0.1c0.4,0,0.7,0,1.1,0c0.3,0,0.7,0,1,0c0.3,0,0.7,0,1,0.1
		c0.1,0,0.3,0.1,0.4,0.1c0.2,0.1,0.2,0.2,0.2,0.4c0,0.1,0,0.2-0.1,0.3c-0.1,0.1-0.1,0.2-0.2,0.3c-0.1,0.1-0.2,0.1-0.3,0.2
		c-0.1,0-0.2,0.1-0.3,0.1c-0.1,0-0.3,0-0.4,0c-0.1,0-0.3,0-0.4,0c0,0.2,0,0.5,0,0.7s0,0.5,0,0.7c0,0.9,0,1.8,0,2.7
		c0,0.4,0,0.7,0,1.1s0,0.7-0.1,1.1c-0.1,0.5-0.2,0.9-0.3,1.3c-0.2,0.4-0.4,0.8-0.7,1c-0.3,0.3-0.6,0.5-1,0.7
		c-0.4,0.2-0.8,0.3-1.4,0.3c-0.2,0-0.3,0-0.5,0c-0.2,0-0.3,0-0.5-0.1c-0.4-0.1-0.8-0.2-1-0.4c-0.3-0.2-0.5-0.4-0.7-0.6
		c-0.2-0.2-0.3-0.5-0.4-0.8s-0.1-0.6-0.2-1v0c0-0.1,0-0.2,0.1-0.4s0.1-0.2,0.2-0.3c0.1-0.1,0.2-0.1,0.3-0.2c0.1,0,0.2-0.1,0.4-0.1
		c0.2,0,0.4,0.1,0.5,0.2c0.1,0.1,0.2,0.3,0.2,0.5c0,0,0,0.1,0,0.1c0,0,0,0.1,0,0.2c0,0.1,0,0.2,0.1,0.3s0.1,0.2,0.1,0.3
		s0.1,0.2,0.3,0.3s0.3,0.2,0.4,0.2c0.2,0.1,0.5,0.1,0.8,0.1c0.3,0,0.5-0.1,0.7-0.2c0.2-0.1,0.3-0.3,0.4-0.4s0.2-0.4,0.2-0.6
		s0.1-0.5,0.1-0.7c0-0.2,0-0.3,0-0.5c0-0.2,0-0.3,0-0.4v-0.4c0-0.8,0.1-1.6,0.1-2.4s0-1.6,0-2.4H155.8z"/>
	<path d="M166.7,29.7c-0.3,0.4-0.6,0.7-1,1c-0.4,0.3-0.9,0.4-1.4,0.4c-0.5,0-0.9-0.1-1.2-0.3c-0.3-0.2-0.6-0.4-0.9-0.8
		c-0.2-0.3-0.4-0.7-0.5-1.1c-0.1-0.4-0.2-0.8-0.3-1.2c-0.1-0.4-0.1-0.8-0.1-1.2s0-0.7,0-1c0-0.5,0-1.1,0.1-1.6
		c0-0.5,0.1-1.1,0.1-1.6c0-0.2,0-0.4,0.1-0.7c0-0.2,0-0.4,0.1-0.6c0.1-0.3,0.2-0.5,0.4-0.6c0.2-0.2,0.5-0.2,0.7-0.2
		c0.2,0,0.3,0,0.4,0.1c0.1,0.1,0.2,0.2,0.2,0.4v0.1c-0.1,0.6-0.1,1.3-0.2,1.9c-0.1,0.6-0.1,1.2-0.1,1.9c0,0.2,0,0.3,0,0.5
		c0,0.2,0,0.3,0,0.5c0,0.3,0,0.6,0,1c0,0.4,0,0.7,0.1,1.1c0.1,0.4,0.2,0.7,0.3,1c0.1,0.3,0.3,0.5,0.5,0.7c0.1,0.1,0.2,0.1,0.3,0.2
		c0.1,0.1,0.2,0.1,0.3,0.1c0.2,0,0.3-0.1,0.4-0.2s0.2-0.3,0.3-0.6c0.1-0.2,0.2-0.5,0.2-0.8c0.1-0.3,0.1-0.6,0.2-0.8
		c0-0.3,0.1-0.5,0.1-0.8s0-0.4,0-0.5c0-0.5,0-1.1,0-1.6c0-0.5,0-1.1,0-1.6c0-0.2,0-0.5,0-0.8c0-0.3,0-0.6,0.1-0.8
		c0-0.3,0.2-0.5,0.4-0.6c0.2-0.2,0.5-0.2,0.7-0.2c0.2,0,0.4,0.1,0.5,0.2c0.1,0.1,0.2,0.2,0.2,0.4c0,0.1,0,0.3,0,0.5
		c0,0.2,0,0.3,0,0.5c0,0.4,0,0.7,0,1.1s0,0.7,0,1.1c0,0.6,0,1.1,0,1.6c0,0.5,0.1,1,0.1,1.5s0.1,1,0.3,1.5c0.1,0.5,0.3,1,0.5,1.5
		c0,0.1,0,0.1,0,0.2c0,0.1,0,0.2-0.1,0.4c-0.1,0.1-0.2,0.2-0.3,0.3s-0.2,0.1-0.3,0.2c-0.1,0-0.2,0.1-0.3,0.1c-0.3,0-0.5-0.1-0.7-0.4
		c-0.1-0.1-0.1-0.3-0.2-0.5C166.8,30,166.8,29.9,166.7,29.7z"/>
	<path d="M172.1,25.3c-0.1,0.7-0.1,1.5-0.2,2.2c0,0.7-0.1,1.4-0.1,2.2c0,0.1,0,0.2,0,0.3c0,0.1,0,0.2,0,0.3
		c-0.1,0.3-0.2,0.5-0.4,0.6s-0.5,0.2-0.7,0.2c-0.2,0-0.3,0-0.4-0.1s-0.2-0.2-0.2-0.4v-0.1c0.1-1.2,0.2-2.4,0.2-3.5s0.2-2.3,0.3-3.5
		c0-0.4,0.1-0.8,0.2-1.1c0.1-0.4,0.1-0.7,0.2-1.1c0,0,0-0.1,0-0.1c0-0.1,0-0.1,0-0.2c0-0.1,0-0.1,0-0.2c0-0.1,0-0.1,0-0.1
		c0.1-0.2,0.2-0.4,0.4-0.5c0.2-0.1,0.4-0.2,0.6-0.2c0.3,0,0.5,0.1,0.6,0.3c0.1,0.2,0.2,0.4,0.2,0.6l0,0.3c0.1,0.7,0.3,1.3,0.5,2
		c0.2,0.6,0.4,1.3,0.6,1.9c0.2-0.7,0.4-1.3,0.5-2c0.2-0.6,0.4-1.3,0.7-1.9c0,0,0.1-0.1,0.1-0.2s0.1-0.1,0.1-0.2
		c0.1-0.2,0.1-0.3,0.2-0.4c0.1-0.2,0.3-0.3,0.4-0.4s0.4-0.1,0.6-0.1c0.2,0,0.4,0,0.5,0.1s0.2,0.2,0.2,0.5c0,1.1,0,2.2,0.1,3.3
		s0.2,2.2,0.3,3.3c0,0.5,0.1,1,0.1,1.6s0.1,1,0.1,1.6c0,0.1,0,0.3-0.1,0.4c-0.1,0.1-0.1,0.2-0.3,0.3c-0.1,0.1-0.2,0.1-0.3,0.2
		s-0.2,0.1-0.4,0.1c-0.1,0-0.3,0-0.4-0.1c-0.1,0-0.2-0.1-0.2-0.2c-0.1-0.1-0.1-0.2-0.1-0.3c0-0.1,0-0.2,0-0.3c0,0,0-0.1,0-0.2
		s0-0.1,0-0.2l-0.1-1.3c-0.1-0.5-0.1-1.1-0.1-1.6c0-0.5-0.1-1.1-0.1-1.6c-0.1,0.2-0.1,0.4-0.2,0.7s-0.1,0.5-0.2,0.8
		c-0.1,0.2-0.2,0.5-0.3,0.7c-0.1,0.2-0.2,0.5-0.3,0.7c-0.1,0.2-0.2,0.3-0.4,0.4c-0.2,0.1-0.4,0.1-0.6,0.1c-0.2,0-0.4-0.1-0.5-0.2
		c-0.1-0.1-0.2-0.3-0.2-0.5c0,0,0-0.1,0-0.1c0,0,0-0.1,0-0.1l-0.2-0.8c-0.1-0.3-0.2-0.6-0.3-0.9S172.2,25.6,172.1,25.3z"/>
	<path d="M181.1,27.1c0,0.5,0,1,0.1,1.6c0,0.5,0,1,0,1.6c0,0.3-0.1,0.5-0.3,0.6c-0.2,0.2-0.5,0.2-0.7,0.2c-0.2,0-0.4-0.1-0.5-0.2
		c-0.1-0.1-0.2-0.2-0.2-0.4c-0.1-0.2-0.1-0.5-0.1-0.8c0-0.3,0-0.6-0.1-0.8c-0.1-0.7-0.1-1.3-0.1-2c0-0.7,0-1.3,0-2
		c0-0.6,0-1.1,0-1.7c0-0.6,0-1.1,0-1.7c-0.1-0.1-0.1-0.1-0.2-0.2c0-0.1-0.1-0.2-0.1-0.3c0-0.3,0.1-0.5,0.3-0.6
		c0.2-0.1,0.4-0.2,0.7-0.3c0.3-0.1,0.5-0.1,0.8-0.1c0.3,0,0.5,0,0.7,0c0.5,0,1.1,0.1,1.6,0.2c0.5,0.1,1,0.3,1.4,0.6
		c0.4,0.3,0.7,0.6,1,1c0.3,0.4,0.4,0.9,0.4,1.5c0,0.6-0.1,1.1-0.3,1.6c-0.2,0.5-0.5,0.9-0.9,1.2c-0.4,0.3-0.8,0.6-1.3,0.8
		c-0.5,0.2-1,0.3-1.6,0.3c-0.1,0-0.2,0-0.3,0C181.2,27.1,181.2,27.1,181.1,27.1z M181,25.4c0.3,0.1,0.6,0.2,0.9,0.2
		c0.3,0,0.6-0.1,0.8-0.2c0.2-0.1,0.5-0.3,0.6-0.5c0.2-0.2,0.3-0.4,0.4-0.7s0.1-0.5,0.1-0.8c0-0.4-0.1-0.7-0.3-1s-0.4-0.5-0.7-0.6
		c-0.3-0.1-0.6-0.3-1-0.3c-0.4-0.1-0.7-0.1-1-0.1c0,0.7,0,1.3,0,2S181,24.7,181,25.4z"/>
	<path d="M187.4,29.7c0-0.1-0.1-0.2-0.1-0.3c0-0.1,0-0.2,0.1-0.3s0.2-0.2,0.3-0.2c0.1-0.1,0.2-0.1,0.3-0.1s0.2-0.1,0.3-0.1
		c0.3,0,0.5,0.1,0.7,0.4c0.2,0.2,0.3,0.4,0.5,0.5c0.2,0.1,0.4,0.1,0.7,0.1c0.2,0,0.3,0,0.5-0.1s0.4-0.1,0.5-0.2
		c0.1-0.1,0.2-0.2,0.4-0.3c0.1-0.1,0.2-0.3,0.2-0.4c0-0.2-0.1-0.3-0.3-0.4c-0.2-0.1-0.5-0.2-0.8-0.3c-0.3-0.1-0.6-0.1-1-0.2
		c-0.3,0-0.6-0.1-0.7-0.1c-0.1,0-0.2,0-0.3,0c-0.1,0-0.2,0-0.3,0c-0.6-0.1-1-0.3-1.3-0.6c-0.3-0.3-0.5-0.8-0.5-1.4
		c0-0.3,0-0.6,0.1-0.8s0.1-0.5,0.2-0.8c0.1-0.4,0.2-0.8,0.4-1.3c0.2-0.5,0.4-0.9,0.7-1.4s0.6-0.8,1-1.1c0.4-0.3,0.9-0.5,1.4-0.5
		c0.4,0,0.7,0.1,1,0.3s0.6,0.4,0.8,0.8c0.2,0.3,0.4,0.6,0.5,1c0.1,0.3,0.2,0.7,0.3,1c0,0,0,0.1,0,0.1c0,0.1,0,0.2-0.1,0.3
		c-0.1,0.1-0.1,0.2-0.2,0.2c-0.1,0.1-0.2,0.1-0.3,0.2s-0.2,0.1-0.3,0.1c-0.4,0-0.7-0.2-0.8-0.6c-0.1-0.3-0.1-0.5-0.2-0.7
		c-0.1-0.2-0.2-0.4-0.4-0.6c-0.2-0.2-0.3-0.2-0.4-0.2c-0.2,0-0.3,0.1-0.5,0.2c-0.1,0.1-0.3,0.3-0.4,0.5c-0.1,0.2-0.2,0.4-0.3,0.7
		c-0.1,0.2-0.2,0.5-0.3,0.7c-0.1,0.2-0.1,0.5-0.2,0.7c-0.1,0.2-0.1,0.4-0.1,0.5c0,0.1,0,0.1,0,0.2c0,0.1,0,0.1,0,0.2
		c0,0.1,0,0.1,0,0.1c0,0.2,0.1,0.4,0.2,0.5c0.1,0.1,0.3,0.1,0.5,0.2c0.2,0.1,0.3,0.1,0.5,0.1c0.2,0,0.4,0,0.5,0.1
		c0.2,0,0.4,0,0.6,0.1s0.4,0.1,0.6,0.1c0.3,0.1,0.6,0.1,0.8,0.2c0.3,0.1,0.5,0.2,0.7,0.4c0.2,0.2,0.4,0.4,0.5,0.6
		c0.1,0.2,0.2,0.5,0.2,0.9c0,0.4-0.1,0.8-0.4,1.1c-0.2,0.3-0.6,0.6-0.9,0.8c-0.4,0.2-0.8,0.4-1.2,0.5c-0.4,0.1-0.8,0.2-1.2,0.2
		c-0.3,0-0.5,0-0.8-0.1c-0.3-0.1-0.5-0.1-0.8-0.3c-0.2-0.1-0.5-0.3-0.6-0.5C187.6,30.1,187.5,29.9,187.4,29.7z"/>
	<path d="M200.6,30.4c-0.3-0.2-0.6-0.5-0.8-0.8c-0.2-0.3-0.4-0.6-0.5-0.9c-0.1-0.3-0.2-0.7-0.3-1c-0.1-0.4-0.1-0.7-0.1-1.1
		c0-0.3,0-0.7,0.1-1.2c0.1-0.4,0.1-0.9,0.2-1.3c0.1-0.4,0.2-0.9,0.4-1.3s0.3-0.8,0.5-1c0.2-0.2,0.3-0.5,0.6-0.7
		c0.2-0.2,0.5-0.4,0.7-0.6s0.5-0.3,0.8-0.4s0.6-0.1,0.9-0.1c0.6,0,1.1,0.2,1.6,0.5c0.4,0.3,0.8,0.6,1.1,0.9c0.3,0.4,0.5,0.8,0.7,1.2
		c0.2,0.4,0.3,0.9,0.4,1.3c0.1,0.5,0.1,0.9,0.1,1.3c0,0.9-0.2,1.8-0.5,2.6c-0.1,0.2-0.2,0.5-0.4,0.8s-0.3,0.6-0.5,0.9
		c-0.2,0.3-0.4,0.6-0.7,0.8c-0.2,0.2-0.5,0.4-0.8,0.5c-0.2,0.1-0.3,0.1-0.5,0.1c-0.2,0-0.4,0-0.5,0c-0.4,0-0.9-0.1-1.4-0.2
		C201.4,30.8,201,30.6,200.6,30.4z M202.7,29.4c0.1,0,0.2,0,0.2,0c0.1,0,0.2,0,0.2,0c0.4,0,0.7-0.1,1-0.5c0.3-0.3,0.5-0.7,0.7-1.1
		c0.2-0.4,0.3-0.9,0.4-1.3c0.1-0.5,0.1-0.8,0.1-1.1c0-0.5-0.1-1.1-0.2-1.6s-0.4-1-0.8-1.4c-0.2-0.3-0.4-0.5-0.6-0.7
		s-0.5-0.3-0.8-0.3c-0.4,0-0.7,0.1-1,0.3c-0.2,0.2-0.4,0.5-0.6,0.9c0,0.1-0.1,0.2-0.1,0.2c0,0.1,0,0.2-0.1,0.2
		c-0.2,0.5-0.3,0.9-0.4,1.4c-0.1,0.5-0.1,1-0.1,1.4c0,0.4,0,0.7,0.1,1.1c0.1,0.4,0.2,0.7,0.3,1c0.1,0.3,0.3,0.6,0.6,0.8
		C202,29.2,202.3,29.3,202.7,29.4z"/>
	<path d="M211.3,27.1c0.3-1,0.5-2,0.8-2.9c0.3-1,0.5-1.9,0.8-2.9c0-0.1,0.1-0.2,0.1-0.3c0-0.1,0.1-0.2,0.1-0.3
		c0.1-0.2,0.2-0.4,0.4-0.5s0.4-0.2,0.6-0.2c0.2,0,0.3,0,0.5,0.1s0.2,0.2,0.2,0.5c0,0.1,0,0.1,0,0.2c-0.3,1.1-0.6,2.2-0.9,3.3
		s-0.6,2.2-0.9,3.3c-0.1,0.4-0.2,0.7-0.3,1.1c-0.1,0.4-0.2,0.7-0.3,1.1c0,0.2-0.1,0.3-0.1,0.5c0,0.2-0.1,0.3-0.1,0.5
		c-0.1,0.2-0.2,0.4-0.4,0.5s-0.4,0.2-0.7,0.2c-0.2,0-0.3,0-0.4-0.1s-0.2-0.2-0.2-0.3c-0.1-0.2-0.1-0.3-0.2-0.5s-0.1-0.3-0.1-0.5
		c-0.5-1.5-0.9-3-1.4-4.5c-0.4-1.5-0.8-3-1.2-4.5c0,0,0,0,0-0.1c0,0,0,0,0-0.1c0-0.1,0-0.2,0.1-0.3c0.1-0.1,0.2-0.2,0.3-0.2
		c0.1-0.1,0.2-0.1,0.4-0.1s0.2-0.1,0.3-0.1c0.3,0,0.5,0.1,0.6,0.4c0,0.1,0.1,0.2,0.1,0.4c0,0.1,0.1,0.3,0.1,0.4
		c0.3,1,0.5,2.1,0.8,3.1S211,26,211.3,27.1z"/>
	<path d="M217.5,27c0,0.2,0,0.5,0,0.7c0,0.3,0,0.6,0.1,0.8c0.1,0.3,0.2,0.5,0.3,0.7c0.1,0.2,0.3,0.3,0.6,0.3c0.1,0,0.2,0,0.3,0
		c0.1,0,0.2,0,0.3,0c0.4,0,0.8-0.1,1.2-0.2c0.4-0.1,0.8-0.2,1.2-0.2c0,0,0.1,0,0.1,0s0.1,0,0.1,0c0.2,0,0.4,0.1,0.5,0.2
		c0.1,0.1,0.2,0.3,0.2,0.5c0,0.2-0.1,0.4-0.2,0.6s-0.3,0.3-0.6,0.3c-0.2,0.1-0.5,0.1-0.8,0.2c-0.3,0.1-0.6,0.1-0.9,0.2
		c-0.3,0-0.6,0.1-0.9,0.1c-0.3,0-0.6,0-0.9,0c-0.4,0-0.7,0-0.9-0.1c-0.2,0-0.5-0.1-0.6-0.3c-0.2-0.1-0.3-0.3-0.5-0.5
		c-0.1-0.2-0.2-0.5-0.3-0.9c-0.1-0.6-0.2-1.2-0.3-1.8s-0.1-1.2-0.1-1.8c0-0.6,0-1.1,0-1.7c0-0.5,0.1-1.1,0.1-1.7c0-0.3,0-0.5,0-0.8
		c0-0.3,0-0.5,0-0.8c0-0.2,0.1-0.3,0.1-0.4c0.1-0.1,0.2-0.2,0.3-0.3c0.1-0.1,0.2-0.1,0.3-0.2c0.1,0,0.2-0.1,0.3-0.1c0,0,0,0,0.1,0
		c0,0,0,0,0.1,0c0,0,0.1,0,0.1,0c0.1,0,0.2,0,0.3,0s0.2,0,0.3,0s0.1,0,0.2,0l1.4,0h0.7c0.3,0,0.6,0,0.9,0c0.3,0,0.6,0,0.9,0.1
		c0.1,0,0.1,0,0.2,0c0.1,0,0.2,0.1,0.2,0.1c0.1,0,0.1,0.1,0.2,0.2c0,0.1,0.1,0.2,0.1,0.3c0,0.1,0,0.2-0.1,0.3
		c-0.1,0.1-0.1,0.2-0.2,0.3c-0.1,0.1-0.2,0.1-0.3,0.2c-0.1,0.1-0.2,0.1-0.3,0.1c-0.2,0-0.5,0-0.7,0c-0.2,0-0.5,0-0.7,0
		c-0.4,0-0.8,0-1.2,0c-0.4,0-0.8,0-1.2,0c0,0.7,0,1.4,0,2c0,0.7,0,1.3,0,2c0.6-0.1,1.3-0.1,1.9-0.2c0.6-0.1,1.3-0.1,1.9-0.1
		c0,0,0.1,0,0.1,0s0.1,0,0.1,0c0.2,0,0.3,0,0.5,0.1c0.2,0.1,0.2,0.2,0.2,0.4c0,0.1,0,0.2-0.1,0.3c-0.1,0.1-0.1,0.2-0.2,0.3
		s-0.2,0.2-0.3,0.2c-0.1,0.1-0.2,0.1-0.3,0.1c-0.2,0-0.4,0.1-0.7,0.1c-0.2,0-0.4,0-0.6,0c-0.4,0-0.9,0.1-1.3,0.1
		C218.4,27,217.9,27,217.5,27z"/>
	<path d="M225.5,28c0,0.4,0,0.8,0,1.1c0,0.4,0,0.7,0,1.1c0,0.1,0,0.3-0.1,0.4c-0.1,0.1-0.1,0.2-0.3,0.3c-0.1,0.1-0.2,0.1-0.4,0.2
		s-0.3,0.1-0.4,0.1c-0.2,0-0.4-0.1-0.5-0.2c-0.1-0.1-0.2-0.2-0.2-0.4c0-0.2,0-0.3,0-0.5c0-0.2,0-0.3,0-0.5c-0.1-1.6-0.1-3.2-0.1-4.7
		c0-0.4,0-0.8,0-1.3c0-0.4,0-0.8,0-1.3c0-0.2,0-0.4,0-0.6c0-0.2,0-0.4,0-0.6c0-0.1,0-0.2,0.1-0.4c0.1-0.1,0.2-0.2,0.3-0.3
		s0.2-0.1,0.3-0.2s0.2-0.1,0.4-0.1c0,0,0.1,0,0.2,0c0.4-0.1,0.7-0.2,1.1-0.3s0.8-0.1,1.2-0.1c0.5,0,0.9,0.1,1.3,0.2
		c0.4,0.2,0.7,0.4,0.9,0.6s0.4,0.6,0.6,0.9s0.2,0.8,0.2,1.2c0,0.4-0.1,0.9-0.2,1.3s-0.3,0.8-0.5,1.2c-0.2,0.4-0.5,0.7-0.8,1
		c-0.3,0.3-0.7,0.6-1,0.8c0.5,0.3,0.9,0.7,1.3,1.1c0.4,0.5,0.8,0.9,1,1.4c0.1,0.1,0.1,0.2,0.1,0.4c0,0.1,0,0.2-0.1,0.4
		c-0.1,0.1-0.1,0.2-0.2,0.3c-0.1,0.1-0.2,0.2-0.3,0.2s-0.3,0.1-0.4,0.1c-0.2,0-0.4-0.1-0.6-0.3c-0.1-0.1-0.2-0.2-0.3-0.3
		c-0.1-0.1-0.2-0.2-0.2-0.3c-0.2-0.2-0.3-0.4-0.5-0.6c-0.2-0.2-0.4-0.4-0.6-0.6c-0.2-0.2-0.4-0.3-0.7-0.5
		C226,28.1,225.7,28,225.5,28z M225.4,26.4C225.5,26.4,225.5,26.4,225.4,26.4c0.1,0,0.2-0.1,0.3-0.1c0.1,0,0.2-0.1,0.3-0.1
		c0.3-0.1,0.6-0.3,0.9-0.6s0.5-0.5,0.8-0.8c0.2-0.3,0.4-0.6,0.5-0.9c0.1-0.3,0.2-0.7,0.2-1c0-0.5-0.1-0.9-0.4-1.2
		c-0.2-0.3-0.6-0.4-1.1-0.4c-0.2,0-0.5,0-0.8,0.1s-0.5,0.1-0.8,0.2c0,0.3,0,0.6,0,0.9c0,0.3,0,0.6,0,0.9
		C225.4,24.3,225.4,25.4,225.4,26.4z"/>
	<path d="M237.3,21.5c-0.3,0-0.6,0-0.9,0c-0.3,0-0.6,0-0.9,0c-0.1,0-0.1,0-0.2,0s-0.2-0.1-0.2-0.1c-0.1,0-0.1-0.1-0.2-0.2
		c0-0.1-0.1-0.2-0.1-0.3c0-0.2,0.1-0.5,0.3-0.7s0.4-0.3,0.7-0.3h2.6c0.3,0,0.6,0,0.9,0c0.3,0,0.6,0,0.9,0c0.1,0,0.3,0,0.4,0
		c0.1,0,0.3,0,0.4,0c0.1,0,0.1,0,0.2,0c0.1,0,0.2,0,0.2,0.1c0.1,0,0.1,0.1,0.2,0.2s0.1,0.2,0.1,0.3c0,0.1,0,0.3-0.1,0.4
		c-0.1,0.1-0.1,0.2-0.2,0.3c-0.1,0.1-0.2,0.1-0.3,0.2c-0.1,0.1-0.2,0.1-0.4,0.1c-0.3,0-0.5,0-0.8,0c-0.3,0-0.5,0-0.8,0
		c0,0.9,0,1.7,0,2.6s0,1.7,0,2.6c0,0.8,0,1.6,0,2.3c0,0.2,0,0.4,0,0.6c0,0.2,0,0.4,0,0.6c0,0.3-0.2,0.5-0.4,0.6
		c-0.2,0.2-0.5,0.2-0.7,0.2c-0.2,0-0.4-0.1-0.5-0.2c-0.1-0.1-0.2-0.2-0.2-0.4c0-0.1,0-0.3,0-0.5c0-0.2,0-0.3,0-0.4c0-0.4,0-0.7,0-1
		c0-0.3,0-0.7,0-1c0-1,0-2,0-3C237.2,23.5,237.3,22.5,237.3,21.5z"/>
	<path d="M244.4,29.4c0,0.1,0,0.3,0,0.4s0,0.3,0,0.4c0,0.3-0.1,0.5-0.4,0.6c-0.2,0.2-0.5,0.2-0.7,0.2c-0.2,0-0.4-0.1-0.5-0.2
		c-0.1-0.1-0.2-0.2-0.2-0.4c0-0.1,0-0.2,0-0.3c0-0.1,0-0.2,0-0.3c0-0.8,0-1.6,0-2.4c0-0.8,0-1.6,0-2.4c0-0.7,0-1.4,0-2.2
		c0-0.7,0-1.4,0-2.2c0-0.1,0-0.3,0.1-0.4c0.1-0.1,0.2-0.2,0.3-0.3c0.1-0.1,0.2-0.1,0.3-0.2c0.1,0,0.2-0.1,0.4-0.1
		c0.4,0,0.7,0.2,0.7,0.6c0,0.3,0,0.6,0,0.9s0,0.6,0,0.9c0,0.6,0,1.2,0,1.7c0,0.6,0,1.2,0,1.7c0.5,0,1.1,0,1.6,0c0.5,0,1.1,0,1.6-0.1
		c0-0.3,0-0.6,0-1s0-0.7,0-1c0-0.3,0-0.7,0-1c0-0.3,0-0.7,0-1c0-0.1,0-0.3,0-0.4s0-0.3,0-0.4c0-0.3,0.2-0.5,0.4-0.6
		c0.2-0.2,0.5-0.2,0.7-0.2c0.2,0,0.3,0,0.4,0.1c0.1,0.1,0.2,0.2,0.2,0.4v0c0,0.4,0,0.7,0,1s0,0.7,0,1c0,1,0,1.9,0.1,2.9
		c0,0.9,0.1,1.9,0.1,2.9c0,0.3,0,0.6,0,0.9s0,0.6-0.1,0.9c0,0.3-0.2,0.5-0.4,0.6s-0.5,0.2-0.7,0.2c-0.3,0-0.5-0.1-0.5-0.2
		c-0.1-0.1-0.1-0.3-0.1-0.6c0-1.1,0-2.1,0-3.2c-0.5,0-1.1,0-1.6,0c-0.5,0-1.1,0-1.6,0V29.4z"/>
	<path d="M252.8,27c0,0.2,0,0.5,0,0.7c0,0.3,0,0.6,0.1,0.8c0.1,0.3,0.2,0.5,0.3,0.7c0.1,0.2,0.3,0.3,0.6,0.3c0.1,0,0.2,0,0.3,0
		c0.1,0,0.2,0,0.3,0c0.4,0,0.8-0.1,1.2-0.2c0.4-0.1,0.8-0.2,1.2-0.2c0,0,0.1,0,0.1,0s0.1,0,0.1,0c0.2,0,0.4,0.1,0.5,0.2
		c0.1,0.1,0.2,0.3,0.2,0.5c0,0.2-0.1,0.4-0.2,0.6s-0.3,0.3-0.6,0.3c-0.2,0.1-0.5,0.1-0.8,0.2c-0.3,0.1-0.6,0.1-0.9,0.2
		c-0.3,0-0.6,0.1-0.9,0.1c-0.3,0-0.6,0-0.9,0c-0.4,0-0.7,0-0.9-0.1c-0.2,0-0.5-0.1-0.6-0.3c-0.2-0.1-0.3-0.3-0.5-0.5
		c-0.1-0.2-0.2-0.5-0.3-0.9c-0.1-0.6-0.2-1.2-0.3-1.8s-0.1-1.2-0.1-1.8c0-0.6,0-1.1,0-1.7c0-0.5,0.1-1.1,0.1-1.7c0-0.3,0-0.5,0-0.8
		c0-0.3,0-0.5,0-0.8c0-0.2,0.1-0.3,0.1-0.4c0.1-0.1,0.2-0.2,0.3-0.3c0.1-0.1,0.2-0.1,0.3-0.2c0.1,0,0.2-0.1,0.3-0.1c0,0,0,0,0.1,0
		c0,0,0,0,0.1,0c0,0,0.1,0,0.1,0c0.1,0,0.2,0,0.3,0s0.2,0,0.3,0s0.1,0,0.2,0l1.4,0h0.7c0.3,0,0.6,0,0.9,0c0.3,0,0.6,0,0.9,0.1
		c0.1,0,0.1,0,0.2,0c0.1,0,0.2,0.1,0.2,0.1c0.1,0,0.1,0.1,0.2,0.2c0,0.1,0.1,0.2,0.1,0.3c0,0.1,0,0.2-0.1,0.3
		c-0.1,0.1-0.1,0.2-0.2,0.3c-0.1,0.1-0.2,0.1-0.3,0.2c-0.1,0.1-0.2,0.1-0.3,0.1c-0.2,0-0.5,0-0.7,0c-0.2,0-0.5,0-0.7,0
		c-0.4,0-0.8,0-1.2,0c-0.4,0-0.8,0-1.2,0c0,0.7,0,1.4,0,2c0,0.7,0,1.3,0,2c0.6-0.1,1.3-0.1,1.9-0.2c0.6-0.1,1.3-0.1,1.9-0.1
		c0,0,0.1,0,0.1,0s0.1,0,0.1,0c0.2,0,0.3,0,0.5,0.1c0.2,0.1,0.2,0.2,0.2,0.4c0,0.1,0,0.2-0.1,0.3c-0.1,0.1-0.1,0.2-0.2,0.3
		s-0.2,0.2-0.3,0.2c-0.1,0.1-0.2,0.1-0.3,0.1c-0.2,0-0.4,0.1-0.7,0.1c-0.2,0-0.4,0-0.6,0c-0.4,0-0.9,0.1-1.3,0.1
		C253.7,27,253.3,27,252.8,27z"/>
	<path d="M265.5,29.4c0.4,0,0.8-0.1,1.2-0.1s0.8,0,1.2,0c0.1,0,0.2,0,0.4,0s0.3,0,0.4,0.1c0.1,0,0.2,0.1,0.3,0.2s0.1,0.2,0.1,0.3
		c0,0.3-0.1,0.5-0.3,0.6c-0.2,0.2-0.4,0.2-0.7,0.3c-0.1,0-0.1,0-0.2,0c-0.1,0-0.1,0-0.2,0c-0.5,0-1,0-1.5,0.1
		c-0.5,0.1-1,0.1-1.5,0.2c0,0-0.1,0-0.2,0c-0.2,0-0.3,0-0.5-0.1c-0.1-0.1-0.2-0.1-0.2-0.2c0-0.1-0.1-0.2-0.1-0.4s0-0.3,0-0.4l0-1.2
		c0-1.2,0-2.3,0-3.5c0-1,0-2.1,0-3.1c0-0.2,0-0.5,0-0.7s0-0.5,0.1-0.7c0-0.1,0.1-0.3,0.1-0.4c0.1-0.1,0.2-0.2,0.3-0.3
		c0.1-0.1,0.2-0.1,0.4-0.2s0.3-0.1,0.4-0.1c0.2,0,0.3,0,0.5,0.1c0.1,0.1,0.2,0.2,0.2,0.4v0c0,0.8-0.1,1.5-0.1,2.3c0,0.8,0,1.5,0,2.3
		s0,1.5,0,2.2C265.5,28,265.5,28.7,265.5,29.4z"/>
	<path d="M271.7,28.5l0.1,1.6v0.1c0,0.1,0,0.2-0.1,0.3c-0.1,0.1-0.1,0.2-0.2,0.2c-0.1,0.1-0.2,0.1-0.3,0.2S271,31,270.8,31
		c-0.4,0-0.6-0.2-0.7-0.6c0-0.2,0-0.3-0.1-0.5s0-0.3,0-0.5c0-0.4-0.1-0.8-0.1-1.1c0-0.4,0-0.8,0-1.1c0-0.6,0-1.2,0.1-1.8
		c0.1-0.6,0.2-1.2,0.4-1.7c0.1-0.4,0.3-0.7,0.5-1.1c0.2-0.4,0.4-0.7,0.7-1.1c0.3-0.3,0.6-0.6,1-0.8s0.8-0.4,1.3-0.4c0,0,0.1,0,0.2,0
		c0.4,0,0.8,0.1,1.1,0.4c0.3,0.2,0.6,0.6,0.8,0.9c0.2,0.4,0.4,0.7,0.5,1.1c0.1,0.4,0.2,0.7,0.3,1c0.1,0.5,0.1,0.9,0.2,1.4
		c0,0.5,0,0.9,0,1.4c0,0.4,0,0.9,0,1.3c0,0.4,0,0.8-0.1,1.3c0,0.2,0,0.4,0,0.6c0,0.2,0,0.4-0.1,0.6c0,0.3-0.2,0.5-0.4,0.6
		c-0.2,0.2-0.5,0.2-0.7,0.2c-0.2,0-0.3,0-0.4-0.1c-0.1-0.1-0.2-0.2-0.2-0.4v-0.1c0-0.4,0.1-0.7,0.1-1.1c0-0.4,0-0.7,0-1.1
		c-0.5,0-1.1,0-1.6,0.1C272.8,28.4,272.3,28.5,271.7,28.5z M275,25.7c0-0.3,0-0.6,0-0.9c0-0.3-0.1-0.7-0.1-1
		c-0.1-0.3-0.2-0.6-0.3-0.9s-0.3-0.5-0.5-0.7c-0.2-0.1-0.3-0.2-0.5-0.2c-0.2,0-0.4,0.1-0.6,0.4s-0.4,0.6-0.6,1.1
		c-0.2,0.6-0.4,1.2-0.5,1.8c-0.1,0.6-0.2,1.2-0.2,1.9c0.6-0.1,1.1-0.1,1.7-0.2s1.1-0.1,1.7-0.1V25.7z"/>
	<path d="M280.4,29.5c0.5,0,1-0.1,1.5-0.1s1-0.1,1.5-0.1c0.1,0,0.2,0,0.2,0c0.1,0,0.2,0,0.2,0.1c0.1,0,0.1,0.1,0.2,0.2
		c0,0.1,0.1,0.2,0.1,0.3c0,0.1,0,0.2-0.1,0.4c-0.1,0.1-0.1,0.2-0.2,0.3s-0.2,0.2-0.3,0.2s-0.2,0.1-0.4,0.1c-0.1,0-0.2,0-0.3,0
		c-0.1,0-0.2,0-0.3,0c-0.2,0-0.4,0-0.6,0.1c-0.2,0-0.4,0-0.6,0.1c-0.4,0-0.8,0.1-1.2,0.1s-0.8,0.1-1.2,0.1c-0.2,0-0.4-0.1-0.5-0.2
		s-0.2-0.3-0.2-0.5c0-0.1,0-0.2,0.1-0.3c0.2-0.5,0.4-0.9,0.7-1.4s0.4-0.9,0.7-1.4c0.4-0.9,0.9-1.9,1.3-2.8c0.4-0.9,0.9-1.9,1.3-2.8
		h-0.4c-0.2,0-0.4,0-0.6,0c-0.2,0-0.5,0-0.7,0c-0.2,0-0.5,0-0.7,0c-0.2,0-0.4,0-0.6-0.1c-0.2,0-0.3-0.1-0.4-0.2
		c-0.1-0.1-0.2-0.2-0.2-0.5c0-0.3,0.1-0.5,0.3-0.6s0.4-0.2,0.7-0.2c0.4,0,0.8,0.1,1.2,0.1c0.4,0,0.8,0,1.2,0c0.3,0,0.6,0,0.9,0
		c0.3,0,0.6,0,0.9,0h0c0.2,0,0.4,0.1,0.5,0.2c0.1,0.1,0.2,0.3,0.2,0.5c0,0.1,0,0.2-0.1,0.3c-0.2,0.5-0.4,0.9-0.6,1.4
		c-0.2,0.5-0.4,0.9-0.7,1.4c-0.4,0.9-0.9,1.9-1.3,2.8C281.2,27.6,280.8,28.5,280.4,29.5z"/>
	<path d="M287.8,27.1C287.8,27.1,287.8,27.1,287.8,27.1c0-0.1-0.1-0.1-0.1-0.1c0,0,0-0.1-0.1-0.2c0-0.1-0.1-0.1-0.1-0.2
		c-0.4-0.9-0.8-1.8-1.2-2.7c-0.4-0.9-0.8-1.8-1.1-2.7c0,0,0-0.1,0-0.1s0-0.1,0-0.1c0-0.1,0-0.2,0.1-0.3c0.1-0.1,0.2-0.2,0.3-0.3
		c0.1-0.1,0.2-0.1,0.3-0.2c0.1,0,0.2-0.1,0.3-0.1c0.3,0,0.5,0.1,0.7,0.4c0.1,0.2,0.2,0.5,0.3,0.7s0.2,0.5,0.3,0.8l1.2,2.7
		c0.2-0.6,0.5-1.1,0.7-1.6s0.5-1.1,0.8-1.6c0.1-0.2,0.2-0.3,0.3-0.5c0.1-0.2,0.2-0.3,0.3-0.5c0.1-0.2,0.2-0.3,0.4-0.4
		s0.3-0.1,0.5-0.1c0.1,0,0.1,0,0.2,0c0.1,0,0.2,0,0.2,0.1c0.1,0,0.1,0.1,0.2,0.2c0.1,0.1,0.1,0.2,0.1,0.3c0,0.1,0,0.1,0,0.2
		s-0.1,0.1-0.1,0.2c-0.2,0.4-0.4,0.8-0.6,1.1c-0.2,0.4-0.4,0.7-0.6,1.1c-0.3,0.6-0.6,1.2-0.8,1.9c-0.3,0.6-0.5,1.3-0.7,1.9
		c0,0,0,0,0,0c0,0,0,0,0,0c0,0,0,0,0,0s0,0,0,0v0.3V28l0,1.4v0.7c0,0.1,0,0.2-0.1,0.4c-0.1,0.1-0.2,0.2-0.3,0.3s-0.2,0.1-0.4,0.2
		s-0.2,0.1-0.4,0.1c-0.3,0-0.5-0.1-0.6-0.3c-0.1-0.2-0.1-0.4-0.2-0.6v-0.3c0-0.2,0-0.4,0-0.5c0-0.2,0-0.4,0-0.5c0-0.3,0-0.6,0-0.8
		C287.8,27.7,287.8,27.4,287.8,27.1z"/>
	<path d="M297.7,30.5c-0.1-0.7-0.2-1.5-0.3-2.2c-0.1-0.8-0.1-1.5-0.1-2.2c0-0.9,0-1.7,0.1-2.6c0.1-0.9,0.2-1.7,0.3-2.6
		c0-0.2,0.1-0.3,0.1-0.4c0.1-0.1,0.2-0.2,0.4-0.3c0.1,0,0.2-0.1,0.3-0.1c0.1,0,0.2,0,0.3,0c0,0,0.1,0,0.1,0c0,0,0.1,0,0.1,0
		c0.7,0.1,1.4,0.4,2.1,0.7c0.7,0.4,1.3,0.8,1.9,1.3s1,1.1,1.4,1.7c0.3,0.6,0.5,1.3,0.5,2c0,0.1,0,0.2,0,0.2s0,0.1,0,0.2
		c-0.1,0.8-0.3,1.4-0.7,2s-0.8,1.1-1.4,1.5c-0.6,0.4-1.2,0.7-1.9,0.9c-0.7,0.2-1.4,0.4-2.2,0.4c0,0-0.1,0-0.1,0s-0.1,0-0.1,0
		c0,0-0.1,0-0.1,0s-0.1,0-0.1,0c-0.2,0-0.3-0.1-0.3-0.2C297.9,30.8,297.8,30.7,297.7,30.5L297.7,30.5z M299.4,29.5
		c0.5-0.1,0.9-0.2,1.4-0.4c0.4-0.2,0.8-0.4,1.2-0.7c0.3-0.3,0.6-0.6,0.8-1c0.2-0.4,0.3-0.8,0.3-1.3c0-0.5-0.1-1-0.3-1.4
		c-0.2-0.4-0.5-0.8-0.8-1.2c-0.4-0.4-0.7-0.7-1.2-1c-0.4-0.3-0.9-0.5-1.4-0.7c-0.1,0.5-0.1,1.1-0.1,1.6c0,0.5,0,1.1,0,1.6
		c0,0.8,0,1.5,0.1,2.2C299.3,28,299.4,28.7,299.4,29.5z"/>
	<path d="M307.7,30.4c-0.3-0.2-0.6-0.5-0.8-0.8c-0.2-0.3-0.4-0.6-0.5-0.9c-0.1-0.3-0.2-0.7-0.3-1c-0.1-0.4-0.1-0.7-0.1-1.1
		c0-0.3,0-0.7,0.1-1.2c0.1-0.4,0.1-0.9,0.2-1.3c0.1-0.4,0.2-0.9,0.4-1.3s0.3-0.8,0.5-1c0.2-0.2,0.3-0.5,0.6-0.7
		c0.2-0.2,0.5-0.4,0.7-0.6s0.5-0.3,0.8-0.4s0.6-0.1,0.9-0.1c0.6,0,1.1,0.2,1.6,0.5c0.4,0.3,0.8,0.6,1.1,0.9c0.3,0.4,0.5,0.8,0.7,1.2
		c0.2,0.4,0.3,0.9,0.4,1.3c0.1,0.5,0.1,0.9,0.1,1.3c0,0.9-0.2,1.8-0.5,2.6c-0.1,0.2-0.2,0.5-0.4,0.8s-0.3,0.6-0.5,0.9
		c-0.2,0.3-0.4,0.6-0.7,0.8c-0.2,0.2-0.5,0.4-0.8,0.5c-0.2,0.1-0.3,0.1-0.5,0.1c-0.2,0-0.4,0-0.5,0c-0.4,0-0.9-0.1-1.4-0.2
		C308.4,30.8,308,30.6,307.7,30.4z M309.8,29.4c0.1,0,0.2,0,0.2,0c0.1,0,0.2,0,0.2,0c0.4,0,0.7-0.1,1-0.5c0.3-0.3,0.5-0.7,0.7-1.1
		c0.2-0.4,0.3-0.9,0.4-1.3c0.1-0.5,0.1-0.8,0.1-1.1c0-0.5-0.1-1.1-0.2-1.6s-0.4-1-0.8-1.4c-0.2-0.3-0.4-0.5-0.6-0.7
		s-0.5-0.3-0.8-0.3c-0.4,0-0.7,0.1-1,0.3c-0.2,0.2-0.4,0.5-0.6,0.9c0,0.1-0.1,0.2-0.1,0.2c0,0.1,0,0.2-0.1,0.2
		c-0.2,0.5-0.3,0.9-0.4,1.4c-0.1,0.5-0.1,1-0.1,1.4c0,0.4,0,0.7,0.1,1.1c0.1,0.4,0.2,0.7,0.3,1c0.1,0.3,0.3,0.6,0.6,0.8
		C309,29.2,309.3,29.3,309.8,29.4z"/>
	<path d="M321.2,26.6c-0.2,0-0.3,0-0.5,0.1s-0.3,0.1-0.5,0.1c-0.2,0.1-0.4,0.1-0.6,0.2c-0.2,0.1-0.4,0.1-0.6,0.1c-0.1,0-0.2,0-0.3,0
		c-0.2,0-0.4-0.1-0.5-0.2s-0.2-0.3-0.2-0.5c0-0.2,0.1-0.4,0.2-0.6c0.2-0.2,0.3-0.3,0.6-0.3c0.3-0.1,0.6-0.2,0.9-0.2s0.6-0.1,0.9-0.2
		c0.2-0.1,0.4-0.1,0.6-0.1c0.2,0,0.4,0,0.7,0c0.2,0,0.5,0,0.6,0.1c0.2,0.1,0.3,0.2,0.4,0.4c0.1,0.1,0.2,0.3,0.2,0.5
		c0,0.2,0,0.3,0,0.5c0,0.6-0.1,1.1-0.3,1.7c-0.2,0.5-0.5,1-0.9,1.5c-0.4,0.4-0.8,0.8-1.3,1c-0.5,0.3-1.1,0.4-1.6,0.4
		c-0.6,0-1.2-0.2-1.6-0.5s-0.8-0.7-1-1.2c-0.3-0.5-0.4-1-0.5-1.5c-0.1-0.5-0.2-1-0.2-1.5c0-0.7,0.1-1.4,0.3-2.2
		c0.2-0.8,0.4-1.5,0.8-2.1c0.1-0.3,0.3-0.5,0.6-0.8c0.2-0.2,0.5-0.5,0.8-0.6c0.3-0.2,0.6-0.3,0.9-0.4c0.3-0.1,0.6-0.2,1-0.2
		c0.3,0,0.6,0.1,0.8,0.2c0.2,0.1,0.4,0.2,0.6,0.4s0.3,0.4,0.4,0.6c0.1,0.2,0.2,0.5,0.2,0.7c0,0,0,0,0,0.1c0,0,0,0,0,0.1
		c0,0.1,0,0.2-0.1,0.3c-0.1,0.1-0.1,0.2-0.2,0.2c-0.1,0.1-0.2,0.1-0.3,0.1c-0.1,0-0.2,0-0.3,0c-0.2,0-0.4,0-0.5-0.1
		c-0.1-0.1-0.2-0.2-0.3-0.4c0-0.1-0.1-0.3-0.2-0.4c-0.1-0.2-0.2-0.2-0.4-0.2c-0.1,0-0.3,0.1-0.5,0.1c-0.2,0.1-0.3,0.2-0.4,0.3
		c-0.1,0.1-0.2,0.3-0.3,0.5c-0.1,0.2-0.2,0.4-0.2,0.6c-0.2,0.5-0.3,1-0.4,1.5c-0.1,0.5-0.2,1-0.2,1.6c0,0.3,0,0.6,0.1,1
		c0.1,0.4,0.2,0.7,0.3,1.1c0.1,0.3,0.3,0.6,0.6,0.9c0.2,0.2,0.5,0.4,0.9,0.4c0.3,0,0.6-0.1,0.8-0.3c0.2-0.2,0.5-0.4,0.6-0.6
		c0.2-0.3,0.3-0.5,0.4-0.8c0.1-0.3,0.1-0.6,0.1-0.8c0,0,0-0.1,0-0.1C321.2,26.7,321.2,26.6,321.2,26.6z"/>
</g>
</svg>
