<?xml version="1.0" encoding="utf-8"?>
<!-- Generator: Adobe Illustrator 26.1.0, SVG Export Plug-In . SVG Version: 6.00 Build 0)  -->
<svg version="1.1" id="Layer_1" xmlns="http://www.w3.org/2000/svg" xmlns:xlink="http://www.w3.org/1999/xlink" x="0px" y="0px"
	 viewBox="0 0 372 36.9" style="enable-background:new 0 0 372 36.9;" xml:space="preserve">
<g>
	<path d="M5,7.8c0.2,0,0.4,0,0.6,0s0.4,0,0.6,0c0.1-0.6,0.2-1.1,0.3-1.7S6.7,5,6.7,4.5c0-0.1,0-0.2,0.1-0.3C6.9,4.1,7,4,7,3.9
		c0.1-0.1,0.2-0.1,0.3-0.2c0.1,0,0.2-0.1,0.3-0.1c0.1,0,0.3,0,0.4,0.1C8.1,3.9,8.2,4,8.1,4.2C8.1,4.8,8,5.4,8,6
		C7.9,6.6,7.8,7.2,7.7,7.8c0.4,0,0.7,0,1,0c0.3,0,0.7,0,1,0c0.2,0,0.4,0.1,0.5,0.2c0.1,0.1,0.1,0.3,0,0.4c-0.1,0.2-0.2,0.3-0.3,0.4
		C9.9,9,9.7,9.1,9.5,9.1c-0.3,0-0.6,0-1,0s-0.6,0-1,0c0,0.1,0,0.3,0,0.4c0,0.1,0,0.2,0,0.4c0,0.4,0,0.7,0,1.1c0,0.4,0,0.7,0,1.1
		c0,0.1,0,0.2,0.1,0.4c0,0.2,0.1,0.4,0.2,0.7c0.1,0.2,0.2,0.4,0.3,0.6c0.1,0.2,0.3,0.3,0.4,0.3c0.1,0,0.2-0.1,0.4-0.2
		c0.1-0.1,0.2-0.2,0.3-0.2c0.1,0,0.2-0.1,0.3-0.1c0.1,0,0.2,0,0.3,0.1c0.1,0,0.2,0.1,0.2,0.2c0.1,0.1,0.1,0.2,0.1,0.3
		c0,0.1-0.1,0.2-0.2,0.4c-0.2,0.3-0.5,0.5-0.8,0.6C9,15,8.7,15,8.4,15c-0.2,0-0.5,0-0.7-0.1c-0.2-0.1-0.4-0.2-0.6-0.3
		c-0.2-0.2-0.4-0.3-0.5-0.5c-0.1-0.2-0.3-0.5-0.3-0.7c-0.2-0.7-0.3-1.4-0.3-2.1c0-0.7,0-1.5,0.1-2.2C5.8,9,5.6,9,5.4,9
		C5.2,9,4.9,9,4.7,9C4.5,9,4.3,9,4.2,8.8s-0.1-0.3,0-0.4C4.3,8.3,4.4,8.1,4.5,8C4.7,7.9,4.8,7.8,5,7.8z"/>
	<path d="M16.3,14.4c0-0.1,0-0.3,0-0.6c0-0.3,0-0.7-0.1-1.1s-0.1-0.8-0.2-1.3c-0.1-0.4-0.2-0.8-0.3-1.2c-0.1-0.4-0.2-0.7-0.4-0.9
		C15.2,9.1,15,9,14.8,9c-0.1,0-0.3,0.1-0.5,0.2c-0.1,0.1-0.3,0.3-0.4,0.5c-0.1,0.2-0.2,0.5-0.3,0.7c-0.1,0.3-0.1,0.5-0.2,0.8
		c-0.1,0.3-0.1,0.5-0.1,0.7c-0.1,0.4-0.2,0.8-0.2,1.2c-0.1,0.4-0.1,0.8-0.2,1.2c0,0.2-0.1,0.3-0.3,0.4C12.4,15,12.2,15,12,15
		c-0.1,0-0.3,0-0.4-0.1c-0.1-0.1-0.2-0.2-0.2-0.4c0-1.6,0.1-3.3,0.1-4.9c0-1.6,0.1-3.2,0.1-4.9c0-0.2,0.1-0.4,0.3-0.5
		c0.2-0.1,0.4-0.2,0.6-0.2c0.1,0,0.3,0,0.4,0.1c0.1,0.1,0.1,0.2,0.1,0.4c0,0.7,0,1.4,0,2.1s0,1.4,0,2.1c0.2-0.3,0.5-0.5,0.7-0.7
		s0.6-0.3,0.9-0.4c0.5-0.1,0.9,0,1.3,0.2c0.3,0.2,0.6,0.5,0.9,0.9c0.2,0.4,0.4,0.8,0.6,1.3c0.1,0.5,0.2,1,0.3,1.5s0.1,1,0.1,1.4
		c0,0.5,0,0.8,0,1.1c0,0.1,0,0.2-0.1,0.3c-0.1,0.1-0.1,0.2-0.2,0.2c-0.1,0.1-0.2,0.1-0.3,0.2c-0.1,0-0.2,0.1-0.3,0.1
		c-0.1,0-0.3,0-0.3-0.1C16.3,14.7,16.3,14.6,16.3,14.4z"/>
	<path d="M22.9,7.7c0.4,0,0.7,0.1,1,0.2c0.3,0.1,0.6,0.3,0.8,0.6c0.2,0.2,0.3,0.5,0.3,0.9c0,0.3-0.1,0.7-0.4,1.1
		c-0.2,0.2-0.3,0.5-0.6,0.6c-0.2,0.2-0.5,0.4-0.8,0.5c-0.3,0.1-0.6,0.2-0.9,0.3c-0.3,0.1-0.6,0.1-1,0.1c-0.1,0-0.3,0-0.4,0
		c-0.1,0-0.2,0-0.4-0.1c0,0.2,0,0.4,0,0.5c0,0.2,0.1,0.3,0.2,0.5c0.1,0.3,0.3,0.5,0.5,0.6c0.2,0.1,0.4,0.2,0.7,0.2
		c0.2,0,0.4,0,0.6-0.1c0.2,0,0.4-0.1,0.6-0.2c0.2-0.1,0.4-0.2,0.6-0.3s0.3-0.3,0.4-0.4c0.1-0.1,0.2-0.2,0.3-0.3
		c0.1-0.1,0.3-0.1,0.4-0.1c0.2,0,0.4,0.1,0.5,0.2c0.1,0.1,0.1,0.3,0,0.6c-0.1,0.3-0.3,0.6-0.5,0.8c-0.2,0.2-0.5,0.4-0.8,0.6
		c-0.3,0.2-0.7,0.3-1,0.4C22.4,15,22.1,15,21.7,15c-0.5,0-0.9-0.1-1.3-0.3c-0.4-0.2-0.7-0.5-1-0.9c-0.2-0.4-0.4-0.8-0.4-1.2
		c0-0.5,0-0.9,0.2-1.4c-0.1-0.1-0.1-0.3-0.1-0.4c0.1-0.1,0.2-0.3,0.4-0.4c0.2-0.3,0.3-0.7,0.6-1c0.2-0.3,0.5-0.6,0.8-0.9
		c0.3-0.3,0.6-0.5,1-0.6S22.5,7.7,22.9,7.7z M23.3,10c0.1-0.3,0.1-0.6-0.1-0.8c-0.2-0.2-0.4-0.3-0.6-0.3c-0.2,0-0.4,0.1-0.6,0.2
		c-0.2,0.1-0.4,0.3-0.5,0.5c-0.1,0.2-0.3,0.4-0.4,0.6c-0.1,0.2-0.2,0.4-0.3,0.6c0.2,0.1,0.5,0.1,0.7,0.1c0.2,0,0.4,0,0.6,0
		c0.2,0,0.4-0.1,0.5-0.1s0.3-0.1,0.4-0.2C23.2,10.3,23.3,10.2,23.3,10z"/>
	<path d="M36.3,13.9c0,0.2-0.1,0.5-0.1,0.7c0,0.3,0,0.5-0.1,0.8c0,0.1,0,0.2,0,0.4c0,0.2,0.1,0.3,0.1,0.5c0,0.2,0.1,0.3,0.2,0.4
		c0.1,0.1,0.1,0.2,0.2,0.2c0.1,0,0.2-0.1,0.4-0.3c0.1-0.1,0.2-0.2,0.3-0.3c0.1-0.1,0.3-0.1,0.4-0.1c0.2,0,0.4,0.1,0.5,0.2
		c0.1,0.1,0.1,0.3,0,0.6c-0.2,0.5-0.5,0.8-0.8,1c-0.3,0.2-0.7,0.3-1,0.3c-0.4,0-0.8-0.1-1.1-0.4s-0.6-0.7-0.7-1.3
		c-0.1-0.3-0.1-0.6-0.1-0.9c0-0.3,0-0.6,0.1-1c-0.2,0.1-0.5,0.2-0.7,0.3C33.7,15,33.5,15,33.2,15c-0.4,0-0.7-0.1-1-0.2
		c-0.3-0.2-0.6-0.4-0.8-0.6c-0.2-0.3-0.4-0.6-0.5-0.9c-0.1-0.3-0.2-0.7-0.3-1c0-0.4,0-0.9,0.1-1.4c0.1-0.5,0.2-0.9,0.4-1.4
		c0.2-0.4,0.5-0.8,0.8-1.1s0.7-0.6,1.2-0.7c0.3-0.1,0.7-0.2,1-0.2c0.4,0,0.7,0.1,1,0.2c0.3,0.1,0.5,0.3,0.8,0.6
		C36,8.4,36.2,8.7,36.3,9c0.2,0.3,0.3,0.7,0.4,1c0.2,0.1,0.3,0.3,0.2,0.5c-0.1,0.6-0.2,1.1-0.3,1.7C36.5,12.8,36.4,13.3,36.3,13.9z
		 M32.1,11.9c0,0.2,0.1,0.4,0.2,0.6c0.1,0.2,0.2,0.4,0.3,0.6c0.1,0.2,0.3,0.3,0.4,0.4s0.3,0.1,0.5,0.1c0.3,0,0.6-0.1,0.8-0.3
		c0.2-0.2,0.4-0.5,0.5-0.8s0.3-0.6,0.4-0.9c0.1-0.3,0.2-0.6,0.2-0.8c0,0,0,0,0,0c0,0,0,0,0,0c-0.1-0.2-0.1-0.4-0.2-0.7
		c-0.1-0.3-0.2-0.5-0.3-0.7c-0.1-0.2-0.3-0.4-0.5-0.6s-0.4-0.2-0.6-0.2c-0.1,0-0.3,0-0.5,0.1s-0.3,0.2-0.5,0.4
		c-0.2,0.2-0.3,0.4-0.4,0.6c-0.1,0.2-0.2,0.5-0.3,0.7s-0.1,0.5-0.1,0.7C32.1,11.4,32.1,11.7,32.1,11.9z"/>
	<path d="M43.1,12.7C43.1,12.7,43.1,12.7,43.1,12.7c0,0.1,0,0.1,0,0.1c-0.1,0.3-0.2,0.5-0.3,0.8c-0.1,0.3-0.3,0.5-0.4,0.7
		c-0.2,0.2-0.4,0.4-0.6,0.5C41.4,15,41.2,15,40.8,15c-0.5,0-0.9-0.1-1.3-0.4c-0.3-0.2-0.6-0.6-0.8-1c-0.2-0.4-0.4-0.8-0.4-1.3
		s-0.1-1-0.1-1.5c0-0.5,0-1,0.1-1.4c0.1-0.5,0.1-0.9,0.2-1.2c0-0.2,0.2-0.3,0.4-0.4c0.2-0.1,0.4-0.1,0.5-0.1c0.2,0,0.3,0.1,0.4,0.1
		c0.1,0.1,0.1,0.3,0.1,0.5c-0.2,0.6-0.2,1.1-0.3,1.6c0,0.5,0,1.1,0.1,1.6c0,0.1,0.1,0.3,0.1,0.5c0.1,0.2,0.1,0.4,0.2,0.7
		c0.1,0.2,0.2,0.4,0.3,0.6c0.1,0.2,0.3,0.2,0.4,0.2c0.1,0,0.3-0.1,0.4-0.2c0.1-0.1,0.2-0.3,0.4-0.5s0.2-0.5,0.3-0.9
		c0.1-0.3,0.2-0.7,0.3-1c0.1-0.4,0.2-0.7,0.2-1.1c0.1-0.3,0.1-0.7,0.2-1c0-0.3,0.1-0.5,0.1-0.7c0-0.2,0.1-0.3,0.3-0.4
		c0.2-0.1,0.4-0.2,0.6-0.2c0.1,0,0.3,0,0.4,0.1c0.1,0.1,0.2,0.2,0.2,0.4c0,0.5,0.1,1,0.1,1.6c0,0.5,0,1,0.1,1.5
		c0.1,0.5,0.1,1,0.3,1.5s0.3,1,0.6,1.4c0.1,0.1,0.1,0.2,0,0.3s-0.1,0.2-0.2,0.3c-0.1,0.1-0.2,0.2-0.3,0.2c-0.1,0-0.3,0.1-0.4,0.1
		c-0.2,0-0.3-0.1-0.4-0.2c-0.2-0.3-0.4-0.7-0.6-1C43.3,13.5,43.2,13.1,43.1,12.7z"/>
	<path d="M46.6,8.5c0-0.2,0.1-0.4,0.3-0.5c0.2-0.1,0.4-0.2,0.6-0.2c0.1,0,0.3,0,0.4,0.1c0.1,0.1,0.2,0.2,0.2,0.4c0,0.5,0,1,0,1.6
		s0,1,0,1.6c0,0.2,0,0.4,0,0.7s0,0.5,0.1,0.8c0,0.2,0.1,0.5,0.2,0.7c0.1,0.2,0.3,0.4,0.5,0.5c0.2,0.1,0.3,0.2,0.3,0.3
		c0,0.1,0,0.3-0.1,0.4s-0.2,0.2-0.4,0.3C48.5,15,48.4,15,48.2,15c-0.1,0-0.2,0-0.3-0.1c-0.4-0.2-0.7-0.5-0.9-0.8
		c-0.2-0.4-0.3-0.8-0.3-1.2c-0.1-0.7-0.1-1.5-0.1-2.2C46.6,10,46.6,9.2,46.6,8.5z M47,6.7c-0.1,0-0.2-0.1-0.2-0.2c0-0.1,0-0.2,0-0.3
		c0-0.1,0-0.2,0.1-0.3c0,0,0.1-0.1,0.1-0.1c0.1-0.1,0.2-0.2,0.3-0.2c0.1,0,0.1,0,0.2-0.1c0.1,0,0.2,0,0.3,0c0.1,0,0.2,0,0.2,0.1
		c0.1,0,0.1,0.1,0.1,0.1c0,0.1,0.1,0.1,0.1,0.2c0,0.1,0,0.1,0,0.1c0,0.1,0,0.2-0.1,0.3c0,0-0.1,0.1-0.1,0.1
		c-0.1,0.1-0.2,0.2-0.3,0.2c-0.1,0-0.1,0-0.2,0.1c-0.1,0-0.2,0-0.3,0C47.2,6.8,47.1,6.7,47,6.7z"/>
	<path d="M53.4,7.8c0.5,0,1,0.2,1.4,0.5c0.4,0.3,0.7,0.7,0.9,1.3c0,0.1,0.1,0.2,0,0.3c0,0.1-0.1,0.2-0.2,0.3s-0.2,0.1-0.3,0.2
		c-0.1,0-0.2,0.1-0.4,0.1c-0.2,0-0.4-0.1-0.5-0.3c-0.1-0.3-0.3-0.6-0.5-0.7c-0.2-0.2-0.5-0.3-0.7-0.3c-0.3,0-0.5,0.1-0.8,0.3
		c-0.2,0.2-0.4,0.4-0.5,0.7c-0.1,0.3-0.3,0.6-0.3,0.9c-0.1,0.3-0.1,0.6-0.1,0.8c0,0.3,0.1,0.6,0.2,0.9c0.1,0.2,0.3,0.4,0.5,0.6
		c0.2,0.2,0.5,0.3,0.8,0.4c0.3,0.1,0.6,0.1,0.9,0.1c0.3,0,0.5,0,0.8-0.1c0.3-0.1,0.5-0.2,0.7-0.3c0.2-0.1,0.3-0.1,0.4-0.1
		c0.2,0,0.3,0,0.4,0.1c0.1,0.1,0.2,0.2,0.3,0.3c0.1,0.1,0.1,0.2,0,0.3c0,0.1-0.1,0.2-0.3,0.3c-0.4,0.2-0.8,0.4-1.2,0.5
		C54.5,15,54,15,53.6,15c-0.5,0-1-0.1-1.5-0.2c-0.5-0.1-0.9-0.4-1.2-0.6c-0.3-0.3-0.6-0.7-0.8-1.1c-0.2-0.5-0.2-1-0.1-1.6
		c0.1-0.4,0.2-0.8,0.4-1.3c0.2-0.4,0.4-0.8,0.7-1.2c0.3-0.3,0.6-0.6,1-0.8C52.5,8,53,7.8,53.4,7.8z"/>
	<path d="M63.8,13.5c0.1,0.1,0.2,0.2,0.2,0.3c0,0.1-0.1,0.2-0.2,0.3c-0.1,0.1-0.2,0.2-0.3,0.2s-0.3,0.1-0.4,0.1
		c-0.2,0-0.3,0-0.4-0.1c-0.2-0.2-0.4-0.4-0.7-0.6s-0.5-0.4-0.7-0.6c-0.3-0.2-0.5-0.4-0.8-0.6c-0.3-0.2-0.5-0.3-0.8-0.5
		c0,0.4,0,0.7,0,1.1c0,0.4,0,0.7,0,1.1c0,0.2-0.1,0.4-0.3,0.5C59.2,15,59,15,58.8,15c-0.1,0-0.3,0-0.4-0.1s-0.2-0.2-0.2-0.3
		c-0.1-0.8-0.2-1.6-0.2-2.5c0-0.8,0-1.7,0-2.5c0-0.8,0.1-1.7,0.2-2.5s0.2-1.6,0.3-2.4c0-0.2,0.1-0.3,0.3-0.4
		c0.2-0.1,0.3-0.1,0.5-0.1c0.2,0,0.3,0,0.4,0.1S60,4.5,60,4.8c-0.1,0.9-0.2,1.8-0.3,2.7c0,0.9-0.1,1.8-0.1,2.7
		c1-0.6,1.9-1.3,2.6-2.2c0.1-0.1,0.2-0.2,0.3-0.2s0.2-0.1,0.3-0.1s0.2,0,0.3,0.1c0.1,0,0.2,0.1,0.2,0.2c0.1,0.1,0.1,0.2,0.1,0.3
		s-0.1,0.2-0.2,0.4c-0.8,1-1.7,1.8-2.8,2.5c0.6,0.3,1.2,0.6,1.8,1.1C62.9,12.6,63.4,13.1,63.8,13.5z"/>
	<path d="M70.8,5.4c0,0.7-0.1,1.3-0.1,2c0,0.7,0,1.3,0,2c0.4-0.4,0.9-0.7,1.3-1c0.5-0.3,1-0.4,1.4-0.4c0.4,0,0.9,0.1,1.2,0.4
		c0.4,0.3,0.7,0.7,1,1.3c0.3,0.7,0.4,1.4,0.3,2c-0.1,0.6-0.4,1.2-0.9,1.7c-0.4,0.5-1,0.9-1.6,1.1c-0.6,0.3-1.3,0.4-2,0.4
		c-0.4,0-0.7,0-1.1-0.1c-0.1,0-0.2,0.1-0.3,0.1s-0.3,0-0.4-0.1c-0.1-0.1-0.2-0.2-0.2-0.3c-0.2-1.5-0.3-2.9-0.3-4.4
		c0-1.5,0.1-2.9,0.1-4.4c0-0.2,0.1-0.4,0.3-0.5C70,5,70.2,5,70.4,5c0.1,0,0.3,0,0.4,0.1C70.8,5.1,70.8,5.3,70.8,5.4z M70.8,11.2
		c0,0.8,0.1,1.7,0.1,2.5h0c0.1,0,0.2,0.1,0.4,0.1s0.2,0,0.4,0c0.5,0,0.9-0.1,1.3-0.3s0.8-0.4,1-0.7c0.3-0.3,0.5-0.7,0.5-1.1
		c0.1-0.4,0-0.9-0.2-1.4c-0.2-0.4-0.4-0.7-0.6-0.8s-0.4-0.2-0.7-0.2s-0.5,0.1-0.7,0.2C72.3,9.6,72,9.8,71.8,10
		c-0.2,0.2-0.4,0.4-0.6,0.6S70.9,11,70.8,11.2z"/>
	<path d="M80,7.8c0.2,0,0.4,0,0.6,0.1s0.4,0.2,0.5,0.3c0.2,0.1,0.3,0.3,0.5,0.5C81.7,8.8,81.8,9,82,9.2c0.1,0.1,0.1,0.2,0.1,0.4
		c0,0.1-0.1,0.2-0.2,0.3c-0.1,0.1-0.2,0.2-0.3,0.2c-0.1,0.1-0.3,0.1-0.4,0.1c-0.2,0-0.3-0.1-0.5-0.2c-0.1-0.2-0.3-0.3-0.4-0.5
		c-0.1-0.2-0.3-0.2-0.4-0.2c-0.1,0-0.2,0.1-0.3,0.2c-0.1,0.1-0.2,0.3-0.3,0.5c-0.1,0.2-0.1,0.4-0.2,0.6c-0.1,0.2-0.1,0.3-0.1,0.4
		c-0.1,0.5-0.2,1.1-0.2,1.6c0,0.5,0,1.1,0,1.6c0,0.1,0,0.2-0.1,0.3c-0.1,0.1-0.1,0.2-0.2,0.2c-0.1,0.1-0.2,0.1-0.3,0.2
		C78.1,15,78,15,77.9,15c-0.1,0-0.3,0-0.4-0.1c-0.1-0.1-0.1-0.2-0.2-0.4c-0.1-1-0.1-2.1-0.2-3.1c0-1-0.1-2-0.1-3.1
		c0-0.1,0-0.2,0.1-0.3c0.1-0.1,0.1-0.2,0.2-0.2c0.1-0.1,0.2-0.1,0.3-0.1c0.1,0,0.2-0.1,0.3-0.1c0.1,0,0.3,0,0.4,0.1
		c0.1,0.1,0.2,0.2,0.2,0.4c0,0.1,0,0.2,0,0.3c0,0.1,0,0.2,0,0.3c0.2-0.2,0.4-0.4,0.6-0.6C79.4,8,79.7,7.9,80,7.8z"/>
	<path d="M89,13c-0.2,0.3-0.4,0.6-0.6,0.8c-0.2,0.2-0.5,0.5-0.8,0.7c-0.3,0.2-0.6,0.3-1,0.4s-0.7,0.1-1,0.1c-0.4,0-0.8-0.1-1.2-0.2
		c-0.4-0.2-0.7-0.4-1-0.8c-0.4-0.4-0.6-0.9-0.7-1.5c-0.1-0.6-0.1-1.1,0-1.7c0.1-0.6,0.3-1.1,0.6-1.6c0.3-0.5,0.7-0.9,1.3-1.1
		C84.6,8,84.7,8,84.7,8c0.3-0.1,0.6-0.2,0.9-0.3c0.3-0.1,0.6-0.1,1,0c0.6,0.1,1.1,0.3,1.6,0.7c0.4,0.4,0.8,0.8,1,1.3
		c0.2,0.5,0.3,1.1,0.3,1.6C89.4,11.9,89.3,12.5,89,13z M86.2,8.9c-0.3-0.1-0.6,0-0.8,0c-0.2,0.1-0.4,0.2-0.6,0.4s-0.3,0.4-0.5,0.7
		s-0.2,0.5-0.3,0.8v0c0,0.4,0,0.9,0.1,1.3c0.1,0.4,0.2,0.8,0.4,1c0.2,0.2,0.4,0.4,0.6,0.5c0.2,0.1,0.4,0.2,0.6,0.2
		c0.2,0,0.4,0,0.7-0.1c0.2-0.1,0.4-0.2,0.6-0.4c0.2-0.2,0.3-0.3,0.5-0.5s0.2-0.4,0.3-0.7c0.1-0.3,0.1-0.6,0.1-1
		c0-0.3-0.1-0.6-0.3-0.9s-0.3-0.5-0.6-0.8C86.9,9.2,86.6,9,86.2,8.9z"/>
	<path d="M97.8,14.7c-0.2,0.1-0.4,0.1-0.6,0.1c-0.5,0-0.9-0.1-1.2-0.4c-0.3-0.3-0.6-0.7-0.9-1.1c-0.1,0.3-0.3,0.5-0.4,0.8
		c-0.2,0.2-0.3,0.5-0.6,0.6c-0.2,0.2-0.4,0.3-0.7,0.4c-0.3,0.1-0.5,0.1-0.8,0c-0.4-0.1-0.8-0.2-1.1-0.5c-0.3-0.3-0.5-0.6-0.6-1
		s-0.2-0.8-0.3-1.3c0-0.5-0.1-1,0-1.4c0-0.5,0-0.9,0.1-1.4c0.1-0.4,0.1-0.8,0.2-1.1c0-0.2,0.1-0.3,0.3-0.4s0.4-0.1,0.5-0.1
		c0.2,0,0.3,0,0.4,0.1s0.2,0.3,0.1,0.5C92.1,8.6,92.1,9,92,9.4c0,0.4-0.1,0.9-0.1,1.3c0,0.4,0,0.9,0.1,1.3c0.1,0.4,0.2,0.8,0.4,1.1
		c0.1,0.2,0.2,0.3,0.3,0.4c0.1,0.1,0.2,0.1,0.3,0.1c0.1,0,0.2-0.1,0.3-0.2c0.1-0.1,0.2-0.3,0.3-0.4c0.1-0.2,0.2-0.3,0.2-0.5
		c0.1-0.2,0.1-0.3,0.2-0.5c0.1-0.3,0.2-0.6,0.2-1c0-0.3,0.1-0.6,0.1-1c0-0.1,0-0.2,0-0.3c0-0.1,0-0.2,0-0.3c0-0.1,0-0.2,0.1-0.3
		C94.5,9.1,94.6,9,94.6,9c0.1-0.1,0.2-0.1,0.3-0.2c0.1,0,0.2-0.1,0.3-0.1c0.1,0,0.3,0,0.4,0.1s0.1,0.2,0.1,0.4c0,0.1,0,0.2,0,0.3
		c0,0.1,0,0.2,0,0.4c0,0.2,0,0.6,0.1,0.9s0.1,0.8,0.3,1.1c0.1,0.4,0.3,0.7,0.5,0.9c0.2,0.3,0.5,0.4,0.8,0.4c0.2,0,0.3-0.1,0.4-0.2
		c0.1-0.1,0.2-0.3,0.2-0.5c0-0.2,0.1-0.4,0.1-0.6c0-0.2,0-0.4,0-0.7c0-0.2,0-0.4,0-0.6c0-0.4,0-0.8,0-1.2c0-0.4-0.1-0.8-0.1-1.2
		c0-0.2,0.1-0.4,0.3-0.6c0.2-0.1,0.4-0.2,0.6-0.2c0.1,0,0.3,0,0.4,0.1c0.1,0.1,0.2,0.2,0.2,0.4c0,0.3,0.1,0.7,0.1,1.1
		c0,0.4,0.1,0.8,0.1,1.3c0,0.5,0,0.9-0.1,1.4c0,0.5-0.1,0.9-0.3,1.3c-0.1,0.4-0.3,0.7-0.6,1C98.5,14.4,98.2,14.6,97.8,14.7z"/>
	<path d="M105.3,7.4c0.4,0,0.7,0.1,0.9,0.3c0.2,0.2,0.4,0.4,0.6,0.7c0.1,0.3,0.2,0.6,0.3,0.9c0.1,0.3,0.1,0.6,0.2,0.9
		c0.2,1.4,0.3,2.9,0.1,4.3c0,0.2-0.1,0.3-0.3,0.5c-0.2,0.1-0.4,0.2-0.6,0.2c-0.2,0-0.3,0-0.4-0.1c-0.1-0.1-0.2-0.2-0.2-0.4
		c0-0.9,0-1.7,0-2.5c0-0.8-0.1-1.6-0.3-2.5c-0.1-0.3-0.2-0.6-0.3-0.7c-0.1-0.1-0.3-0.2-0.4-0.2c-0.2,0-0.4,0.1-0.6,0.2
		s-0.4,0.3-0.5,0.5c-0.2,0.2-0.3,0.4-0.4,0.7c-0.1,0.2-0.2,0.4-0.2,0.6c-0.1,0.6-0.2,1.1-0.3,1.7c0,0.6,0,1.1,0,1.7
		c0,0.1,0,0.2-0.1,0.3c-0.1,0.1-0.1,0.2-0.2,0.2c-0.1,0.1-0.2,0.1-0.3,0.2c-0.1,0-0.2,0.1-0.3,0.1c-0.1,0-0.3,0-0.4-0.1
		c-0.1-0.1-0.2-0.2-0.2-0.4c-0.1-1.1-0.1-2.2-0.1-3.2c0-1.1,0.1-2.1,0.2-3.2c0-0.1,0-0.2,0.1-0.3c0.1-0.1,0.1-0.2,0.2-0.2
		s0.2-0.1,0.3-0.1c0.1,0,0.2-0.1,0.3-0.1c0.1,0,0.3,0,0.4,0.1s0.1,0.2,0.1,0.3c0,0.1,0,0.3,0,0.4s0,0.3,0,0.4
		c0.3-0.3,0.7-0.6,1.1-0.8C104.4,7.4,104.9,7.3,105.3,7.4z"/>
	<path d="M113.5,12c-0.2,0-0.4,0-0.5-0.1c-0.1-0.1-0.2-0.2-0.2-0.4c0-0.2,0.1-0.3,0.2-0.4s0.3-0.2,0.5-0.3c0,0,0.1,0,0.2,0
		c-0.1-0.5-0.2-0.9-0.2-1.4c0-0.5,0-0.9,0-1.4s0.1-0.9,0.3-1.3c0.1-0.4,0.3-0.8,0.6-1.2c0.1-0.2,0.3-0.4,0.5-0.6
		c0.2-0.2,0.4-0.4,0.7-0.5s0.5-0.3,0.7-0.3c0.3-0.1,0.5-0.1,0.8-0.1c0.3,0,0.6,0.1,0.8,0.2s0.4,0.4,0.6,0.6c0.2,0.2,0.3,0.5,0.5,0.8
		c0.1,0.3,0.3,0.5,0.4,0.8c0.1,0.1,0.1,0.2,0,0.3c0,0.1-0.1,0.2-0.2,0.3c-0.1,0.1-0.2,0.1-0.3,0.2c-0.1,0.1-0.2,0.1-0.4,0.1
		c-0.1,0-0.2,0-0.3-0.1c-0.1,0-0.2-0.1-0.2-0.2c-0.1-0.2-0.2-0.4-0.3-0.7c-0.1-0.2-0.2-0.4-0.4-0.6c-0.2-0.3-0.4-0.4-0.6-0.4
		c-0.1,0-0.3,0-0.4,0.1s-0.3,0.2-0.4,0.4c-0.2,0.2-0.3,0.4-0.4,0.6c-0.1,0.2-0.2,0.5-0.2,0.7C115,7.4,115,7.6,115,7.9
		c0,0.3,0,0.5,0,0.7c0,0.3,0,0.7,0.1,1c0,0.3,0.1,0.7,0.1,1c0.5-0.1,1.1-0.1,1.6-0.2c0.5-0.1,1.1-0.1,1.6,0c0.2,0,0.4,0.1,0.4,0.2
		c0.1,0.1,0.1,0.2,0.1,0.4s-0.1,0.3-0.2,0.4c-0.1,0.1-0.2,0.2-0.4,0.2c-0.5,0.1-1,0.1-1.4,0.1c-0.5,0-0.9,0.1-1.4,0.1
		c0.1,0.3,0.2,0.6,0.2,0.9s0.2,0.6,0.3,0.8c0,0,0,0.1,0.1,0.1c0,0.1,0,0.2,0.1,0.2s0,0.2,0.1,0.2c0,0.1,0,0.3,0,0.4
		c0,0.1-0.1,0.2-0.2,0.3c-0.1,0.1-0.2,0.2-0.3,0.2c-0.1,0.1-0.2,0.1-0.4,0.1c-0.1,0-0.2,0-0.3-0.1c-0.1-0.1-0.2-0.1-0.2-0.3
		c-0.1-0.4-0.3-0.9-0.4-1.3c-0.1-0.5-0.3-0.9-0.4-1.4c-0.1,0-0.1,0-0.2,0C113.6,12,113.6,12,113.5,12z"/>
	<path d="M126.2,13c-0.2,0.3-0.4,0.6-0.6,0.8c-0.2,0.2-0.5,0.5-0.8,0.7c-0.3,0.2-0.6,0.3-1,0.4s-0.7,0.1-1,0.1
		c-0.4,0-0.8-0.1-1.2-0.2c-0.4-0.2-0.7-0.4-1-0.8c-0.4-0.4-0.6-0.9-0.7-1.5c-0.1-0.6-0.1-1.1,0-1.7c0.1-0.6,0.3-1.1,0.6-1.6
		c0.3-0.5,0.7-0.9,1.3-1.1c0.1,0,0.1-0.1,0.2-0.1c0.3-0.1,0.6-0.2,0.9-0.3c0.3-0.1,0.6-0.1,1,0c0.6,0.1,1.1,0.3,1.6,0.7
		c0.4,0.4,0.8,0.8,1,1.3c0.2,0.5,0.3,1.1,0.3,1.6C126.7,11.9,126.5,12.5,126.2,13z M123.5,8.9c-0.3-0.1-0.6,0-0.8,0
		c-0.2,0.1-0.4,0.2-0.6,0.4s-0.3,0.4-0.5,0.7s-0.2,0.5-0.3,0.8v0c0,0.4,0,0.9,0.1,1.3c0.1,0.4,0.2,0.8,0.4,1
		c0.2,0.2,0.4,0.4,0.6,0.5c0.2,0.1,0.4,0.2,0.6,0.2c0.2,0,0.4,0,0.7-0.1c0.2-0.1,0.4-0.2,0.6-0.4c0.2-0.2,0.3-0.3,0.5-0.5
		s0.2-0.4,0.3-0.7c0.1-0.3,0.1-0.6,0.1-1c0-0.3-0.1-0.6-0.3-0.9s-0.3-0.5-0.6-0.8C124.1,9.2,123.8,9,123.5,8.9z"/>
	<path d="M133.9,8.4c-0.4,0.5-0.8,0.9-1.2,1.4s-0.7,1-1.1,1.4c0.3,0.4,0.6,0.9,0.9,1.3c0.3,0.4,0.6,0.8,0.9,1.2
		c0.1,0.1,0.1,0.1,0.2,0.2c0,0,0,0.1,0.1,0.1c0,0,0.1,0.1,0.1,0.1c0.1,0.1,0.1,0.2,0.1,0.3s-0.1,0.2-0.2,0.3
		c-0.1,0.1-0.2,0.2-0.3,0.2c-0.1,0.1-0.3,0.1-0.4,0.1c-0.2,0-0.4-0.1-0.5-0.2c-0.3-0.4-0.6-0.7-0.9-1.1c-0.3-0.4-0.6-0.8-0.8-1.2
		c-0.2,0.3-0.5,0.7-0.7,1c-0.2,0.3-0.5,0.7-0.7,1c-0.1,0.1-0.2,0.2-0.4,0.3s-0.3,0.1-0.5,0.1c-0.1,0-0.2,0-0.3,0
		c-0.1,0-0.2-0.1-0.2-0.1c-0.1-0.1-0.1-0.1-0.1-0.2c0-0.1,0-0.2,0.1-0.3c0.3-0.5,0.6-1,1-1.5c0.3-0.5,0.7-1,1.1-1.4
		c-0.3-0.5-0.6-0.9-0.8-1.4s-0.6-0.9-0.8-1.4c-0.1-0.1-0.1-0.3-0.1-0.4s0.1-0.2,0.2-0.3c0.1-0.1,0.2-0.2,0.3-0.2
		c0.1-0.1,0.3-0.1,0.4-0.1c0.2,0,0.3,0.1,0.4,0.2c0.2,0.4,0.5,0.8,0.7,1.1s0.5,0.8,0.7,1.2c0.3-0.4,0.6-0.8,1-1.1
		c0.3-0.4,0.6-0.8,1-1.1c0.1-0.1,0.2-0.2,0.3-0.2s0.2-0.1,0.3-0.1c0.1,0,0.2,0,0.3,0.1c0.1,0,0.2,0.1,0.2,0.2
		c0.1,0.1,0.1,0.2,0.1,0.3C134.1,8.1,134,8.2,133.9,8.4z"/>
	<path d="M143.2,16.8c-0.2,0.6-0.5,1-0.8,1.2s-0.8,0.4-1.2,0.4c-0.2,0-0.5,0-0.8-0.1c-0.3-0.1-0.5-0.2-0.7-0.3s-0.4-0.3-0.6-0.5
		c-0.2-0.2-0.4-0.4-0.5-0.7c-0.1-0.1-0.1-0.2,0-0.3c0-0.1,0.1-0.2,0.2-0.3s0.2-0.2,0.3-0.2c0.1-0.1,0.3-0.1,0.4-0.1
		c0.2,0,0.3,0.1,0.4,0.2c0.1,0.1,0.2,0.2,0.3,0.3c0.1,0.1,0.2,0.2,0.4,0.3s0.3,0.2,0.4,0.3c0.1,0.1,0.3,0.1,0.4,0.1
		c0.1,0,0.3-0.1,0.4-0.2c0.1-0.1,0.2-0.3,0.2-0.6c0-0.4,0-0.8,0-1.2s-0.1-0.8-0.1-1.2c0-0.9-0.1-1.7-0.2-2.6
		c-0.1-0.9-0.2-1.7-0.3-2.6c0-0.1,0-0.2,0-0.3s0.1-0.2,0.2-0.2s0.2-0.1,0.3-0.1S142,8,142.1,8c0.1,0,0.3,0,0.4,0.1
		c0.1,0.1,0.2,0.2,0.2,0.3c0.1,0.8,0.2,1.5,0.3,2.3c0.1,0.8,0.2,1.5,0.2,2.3c0,0.3,0,0.6,0.1,0.9c0,0.3,0.1,0.7,0.1,1s0,0.7,0,1
		C143.3,16.2,143.3,16.5,143.2,16.8z M141.2,6.8c-0.1,0-0.2-0.1-0.2-0.2c0-0.1,0-0.2,0-0.3c0-0.1,0-0.2,0.1-0.3c0,0,0.1-0.1,0.1-0.1
		c0.1-0.1,0.2-0.2,0.3-0.2c0,0,0.1,0,0.1,0c0,0,0.1,0,0.1,0c0.1,0,0.2,0,0.3,0c0.1,0,0.2,0,0.2,0.1c0.1,0,0.1,0.1,0.1,0.1
		c0.1,0.1,0.1,0.1,0.1,0.2c0,0.1,0,0.1,0,0.1c0,0.1,0,0.2-0.1,0.3c0,0-0.1,0.1-0.1,0.1c-0.1,0.1-0.2,0.2-0.3,0.2
		c-0.1,0-0.1,0-0.2,0.1c-0.1,0-0.2,0-0.3,0C141.4,6.9,141.3,6.9,141.2,6.8z"/>
	<path d="M149.1,12.7C149,12.7,149,12.7,149.1,12.7c0,0.1,0,0.1,0,0.1c-0.1,0.3-0.2,0.5-0.3,0.8c-0.1,0.3-0.3,0.5-0.4,0.7
		c-0.2,0.2-0.4,0.4-0.6,0.5c-0.2,0.1-0.5,0.2-0.8,0.2c-0.5,0-0.9-0.1-1.3-0.4c-0.3-0.2-0.6-0.6-0.8-1c-0.2-0.4-0.4-0.8-0.4-1.3
		s-0.1-1-0.1-1.5c0-0.5,0-1,0.1-1.4c0.1-0.5,0.1-0.9,0.2-1.2c0-0.2,0.2-0.3,0.4-0.4c0.2-0.1,0.4-0.1,0.5-0.1c0.2,0,0.3,0.1,0.4,0.1
		c0.1,0.1,0.1,0.3,0.1,0.5c-0.2,0.6-0.2,1.1-0.3,1.6c0,0.5,0,1.1,0.1,1.6c0,0.1,0.1,0.3,0.1,0.5c0.1,0.2,0.1,0.4,0.2,0.7
		c0.1,0.2,0.2,0.4,0.3,0.6c0.1,0.2,0.3,0.2,0.4,0.2c0.1,0,0.3-0.1,0.4-0.2c0.1-0.1,0.2-0.3,0.4-0.5s0.2-0.5,0.3-0.9
		c0.1-0.3,0.2-0.7,0.3-1c0.1-0.4,0.2-0.7,0.2-1.1c0.1-0.3,0.1-0.7,0.2-1c0-0.3,0.1-0.5,0.1-0.7c0-0.2,0.1-0.3,0.3-0.4
		c0.2-0.1,0.4-0.2,0.6-0.2c0.1,0,0.3,0,0.4,0.1c0.1,0.1,0.2,0.2,0.2,0.4c0,0.5,0.1,1,0.1,1.6c0,0.5,0,1,0.1,1.5
		c0.1,0.5,0.1,1,0.3,1.5s0.3,1,0.6,1.4c0.1,0.1,0.1,0.2,0,0.3s-0.1,0.2-0.2,0.3c-0.1,0.1-0.2,0.2-0.3,0.2c-0.1,0-0.3,0.1-0.4,0.1
		c-0.2,0-0.3-0.1-0.4-0.2c-0.2-0.3-0.4-0.7-0.6-1C149.3,13.5,149.1,13.1,149.1,12.7z"/>
	<path d="M159.1,9.4C159,9.2,158.9,9,158.8,9c-0.1-0.1-0.2-0.1-0.3-0.1c-0.1,0-0.2,0.1-0.4,0.2c-0.1,0.1-0.2,0.3-0.3,0.5
		c-0.1,0.2-0.2,0.5-0.2,0.7c-0.1,0.3-0.1,0.5-0.2,0.8c0,0.3-0.1,0.5-0.1,0.7c0,0.2,0,0.4,0,0.5c0,0.2-0.1,0.4-0.3,0.6
		c-0.2,0.1-0.4,0.2-0.6,0.2c-0.1,0-0.3,0-0.4-0.1c-0.1-0.1-0.2-0.2-0.2-0.4c-0.1-0.4-0.1-0.8-0.2-1.2c-0.1-0.4-0.2-0.8-0.3-1.2
		c-0.1-0.2-0.1-0.4-0.2-0.6c-0.1-0.2-0.2-0.3-0.4-0.4c-0.2-0.1-0.3-0.1-0.3-0.1c-0.1,0-0.1,0-0.1,0.1c0,0.1-0.1,0.2-0.1,0.4
		c-0.2,0.4-0.3,0.9-0.3,1.3c0,0.4,0,0.9,0.1,1.3c0,0.2,0.1,0.3,0.1,0.5c0,0.2,0.1,0.3,0.1,0.5c0,0.1,0.1,0.3,0.1,0.5
		c0,0.1,0.1,0.3,0.1,0.4c0,0.1,0,0.2,0,0.3c0,0.1-0.1,0.2-0.2,0.3c-0.1,0.1-0.2,0.2-0.3,0.3c-0.1,0.1-0.3,0.1-0.4,0.1
		s-0.3,0-0.4-0.1c-0.1-0.1-0.2-0.2-0.2-0.4c-0.2-0.9-0.4-1.9-0.6-2.8c-0.2-0.9-0.4-1.9-0.6-2.8c-0.1-0.2,0-0.4,0.2-0.5
		c0.2-0.1,0.4-0.2,0.6-0.2c0.1,0,0.2,0,0.3,0.1s0.2,0.1,0.2,0.2c0.2-0.2,0.4-0.5,0.8-0.7c0.3-0.2,0.6-0.3,0.9-0.3
		c0.4,0,0.7,0.2,1,0.5s0.5,0.7,0.7,1.1c0.1-0.3,0.3-0.5,0.4-0.7c0.2-0.2,0.4-0.4,0.6-0.6c0.2-0.1,0.4-0.3,0.7-0.3s0.5-0.1,0.8,0
		c0.4,0.1,0.8,0.3,1.1,0.5c0.3,0.3,0.5,0.6,0.7,1c0.2,0.4,0.3,0.8,0.3,1.3c0.1,0.5,0.1,0.9,0.1,1.4c0,0.5,0,0.9-0.1,1.3
		c0,0.4-0.1,0.8-0.1,1.1c0,0.2-0.1,0.4-0.3,0.5c-0.2,0.1-0.4,0.1-0.6,0.1c-0.2,0-0.3,0-0.5-0.1c-0.1-0.1-0.2-0.3-0.1-0.5
		c0.1-0.4,0.1-0.8,0.2-1.2c0-0.4,0.1-0.8,0.1-1.2c0-0.4-0.1-0.8-0.1-1.2C159.5,10.2,159.3,9.8,159.1,9.4z"/>
	<path d="M162.6,9.2c0-0.1,0-0.3,0.1-0.4s0.2-0.2,0.3-0.3c0.1-0.1,0.2-0.1,0.4-0.1s0.3,0,0.4,0c0.3-0.2,0.6-0.4,1-0.5
		c0.4-0.1,0.7-0.2,1.1-0.2c0.2,0,0.5,0,0.7,0.1c0.4,0.1,0.7,0.2,1,0.4c0.3,0.2,0.6,0.4,0.8,0.7c0.2,0.3,0.4,0.6,0.5,0.9
		c0.1,0.3,0.2,0.7,0.2,1.1c0,0.5-0.1,0.9-0.3,1.4c-0.2,0.5-0.5,0.9-0.8,1.2c-0.3,0.4-0.7,0.7-1.1,0.9c-0.4,0.2-0.9,0.3-1.4,0.3
		c-0.3,0-0.7-0.1-1-0.2c0.1,0.6,0.1,1.1,0.2,1.7c0.1,0.6,0.1,1.1,0.2,1.7c0,0.2-0.1,0.4-0.3,0.5s-0.4,0.2-0.6,0.2
		c-0.1,0-0.3,0-0.4-0.1c-0.1-0.1-0.2-0.2-0.2-0.4c-0.2-1.5-0.3-3-0.4-4.5C162.7,12.2,162.6,10.7,162.6,9.2z M167.5,11.7
		c0.1-0.3,0.1-0.7,0-1c-0.1-0.3-0.2-0.6-0.4-0.8c-0.2-0.2-0.4-0.4-0.7-0.6c-0.3-0.1-0.6-0.2-0.8-0.2c-0.3,0-0.5,0.1-0.8,0.2
		c-0.2,0.1-0.5,0.3-0.7,0.6c0,0.5,0,1.1,0.1,1.6c0,0.5,0.1,1.1,0.1,1.6c0.2,0.1,0.4,0.2,0.7,0.3c0.2,0.1,0.4,0.1,0.7,0.1
		c0.2,0,0.4-0.1,0.7-0.2s0.4-0.3,0.6-0.4c0.2-0.2,0.3-0.4,0.4-0.6C167.4,12.1,167.5,11.9,167.5,11.7z"/>
	<path d="M174.4,9.5c-0.1-0.2-0.2-0.4-0.3-0.4c-0.2-0.1-0.3-0.1-0.5-0.1c-0.2,0-0.4,0-0.7,0.1c-0.2,0.1-0.4,0.2-0.6,0.3
		c-0.2,0.1-0.3,0.2-0.4,0.4c-0.1,0.1-0.1,0.3,0,0.4c0.1,0.1,0.2,0.2,0.4,0.2c0.2,0.1,0.4,0.1,0.7,0.2c0.2,0.1,0.5,0.1,0.7,0.1
		s0.4,0.1,0.5,0.1c0.3,0.1,0.5,0.2,0.8,0.4s0.6,0.3,0.8,0.5c0.2,0.2,0.4,0.4,0.6,0.7c0.1,0.3,0.2,0.6,0.1,0.9c0,0.3-0.1,0.6-0.3,0.8
		c-0.2,0.2-0.4,0.4-0.6,0.6s-0.5,0.3-0.8,0.3c-0.3,0.1-0.6,0.1-1,0.1c-0.3,0-0.6,0-0.9-0.1c-0.3-0.1-0.6-0.1-0.8-0.2
		c-0.3-0.1-0.5-0.2-0.7-0.4c-0.2-0.1-0.4-0.3-0.5-0.5c-0.1-0.1-0.1-0.3-0.1-0.4c0-0.1,0.1-0.2,0.2-0.3c0.1-0.1,0.2-0.2,0.3-0.3
		c0.1-0.1,0.3-0.1,0.4-0.1c0.2,0,0.3,0.1,0.4,0.2c0.2,0.2,0.4,0.4,0.6,0.5s0.5,0.2,0.8,0.2c0.1,0,0.3,0,0.5,0c0.2,0,0.4,0,0.5-0.1
		s0.3-0.2,0.4-0.3c0.1-0.1,0.1-0.4,0-0.6c-0.1-0.2-0.2-0.3-0.4-0.5c-0.2-0.1-0.4-0.2-0.7-0.3c-0.2-0.1-0.5-0.2-0.7-0.2
		s-0.5-0.1-0.6-0.2c-0.2-0.1-0.5-0.1-0.8-0.2s-0.5-0.2-0.7-0.3c-0.2-0.1-0.4-0.3-0.5-0.5c-0.1-0.2-0.1-0.5,0-0.8
		c0.1-0.3,0.3-0.5,0.5-0.8s0.5-0.5,0.8-0.7c0.3-0.2,0.7-0.3,1-0.5s0.7-0.2,1.1-0.2c0.4,0,0.8,0.1,1.1,0.3c0.3,0.2,0.6,0.5,0.7,1
		c0,0.1,0,0.2,0,0.3c0,0.1-0.1,0.2-0.2,0.3s-0.2,0.1-0.3,0.2c-0.1,0-0.2,0.1-0.3,0.1s-0.2,0-0.3-0.1C174.5,9.6,174.4,9.6,174.4,9.5z
		"/>
	<path d="M187.8,13c-0.2,0.3-0.4,0.6-0.6,0.8s-0.5,0.5-0.8,0.7c-0.3,0.2-0.6,0.3-1,0.4s-0.7,0.1-1,0.1c-0.4,0-0.8-0.1-1.2-0.2
		c-0.4-0.2-0.7-0.4-1-0.8c-0.4-0.4-0.6-0.9-0.7-1.5c-0.1-0.6-0.1-1.1,0-1.7c0.1-0.6,0.3-1.1,0.6-1.6c0.3-0.5,0.7-0.9,1.3-1.1
		c0.1,0,0.1-0.1,0.2-0.1c0.3-0.1,0.6-0.2,0.9-0.3c0.3-0.1,0.6-0.1,1,0c0.6,0.1,1.1,0.3,1.6,0.7c0.4,0.4,0.8,0.8,1,1.3
		c0.2,0.5,0.3,1.1,0.3,1.6C188.2,11.9,188.1,12.5,187.8,13z M185,8.9c-0.3-0.1-0.6,0-0.8,0c-0.2,0.1-0.4,0.2-0.6,0.4
		s-0.3,0.4-0.5,0.7s-0.2,0.5-0.3,0.8v0c0,0.4,0,0.9,0.1,1.3c0.1,0.4,0.2,0.8,0.4,1c0.2,0.2,0.4,0.4,0.6,0.5c0.2,0.1,0.4,0.2,0.6,0.2
		c0.2,0,0.4,0,0.7-0.1c0.2-0.1,0.4-0.2,0.6-0.4c0.2-0.2,0.3-0.3,0.5-0.5s0.2-0.4,0.3-0.7c0.1-0.3,0.1-0.6,0.1-1
		c0-0.3-0.1-0.6-0.3-0.9s-0.3-0.5-0.6-0.8C185.7,9.2,185.4,9,185,8.9z"/>
	<path d="M190.4,12.6c-0.2-0.6-0.5-1.3-0.7-1.9s-0.5-1.3-0.7-1.9c0-0.1,0-0.2,0-0.3c0-0.1,0.1-0.2,0.2-0.3s0.2-0.1,0.3-0.2
		c0.1,0,0.2-0.1,0.4-0.1c0.1,0,0.2,0,0.3,0.1c0.1,0.1,0.2,0.1,0.2,0.2c0.2,0.5,0.4,1,0.6,1.5c0.2,0.5,0.4,1,0.6,1.5
		c0.1,0.2,0.2,0.5,0.3,0.8s0.2,0.6,0.4,1c0.3-0.8,0.7-1.6,1-2.4c0.3-0.8,0.7-1.6,1.1-2.3c0.1-0.1,0.2-0.2,0.3-0.3
		c0.1-0.1,0.3-0.1,0.5-0.1c0.2,0,0.4,0.1,0.5,0.2c0.1,0.1,0.1,0.3,0,0.6c-0.4,1-0.9,2-1.3,2.9c-0.4,1-0.8,2-1.2,3
		c-0.1,0.2-0.2,0.3-0.4,0.4s-0.4,0.1-0.6,0.1c-0.1,0-0.2,0-0.3,0c-0.1,0-0.2-0.1-0.4-0.3c-0.1-0.2-0.3-0.4-0.4-0.6
		c-0.1-0.2-0.3-0.5-0.4-0.8C190.6,13.1,190.5,12.8,190.4,12.6z"/>
	<path d="M199.7,7.7c0.4,0,0.7,0.1,1,0.2c0.3,0.1,0.6,0.3,0.8,0.6s0.3,0.5,0.3,0.9c0,0.3-0.1,0.7-0.4,1.1c-0.2,0.2-0.3,0.5-0.6,0.6
		s-0.5,0.4-0.8,0.5c-0.3,0.1-0.6,0.2-0.9,0.3s-0.6,0.1-1,0.1c-0.1,0-0.3,0-0.4,0s-0.2,0-0.4-0.1c0,0.2,0,0.4,0,0.5
		c0,0.2,0.1,0.3,0.1,0.5c0.1,0.3,0.3,0.5,0.5,0.6c0.2,0.1,0.4,0.2,0.7,0.2c0.2,0,0.4,0,0.6-0.1s0.4-0.1,0.6-0.2
		c0.2-0.1,0.4-0.2,0.6-0.3s0.3-0.3,0.4-0.4c0.1-0.1,0.2-0.2,0.3-0.3c0.1-0.1,0.3-0.1,0.4-0.1c0.2,0,0.4,0.1,0.5,0.2
		c0.1,0.1,0.1,0.3,0,0.6c-0.1,0.3-0.3,0.6-0.5,0.8c-0.2,0.2-0.5,0.4-0.8,0.6c-0.3,0.2-0.7,0.3-1,0.4c-0.4,0.1-0.7,0.1-1.1,0.1
		c-0.5,0-0.9-0.1-1.3-0.3c-0.4-0.2-0.7-0.5-1-0.9c-0.2-0.4-0.4-0.8-0.4-1.2c0-0.5,0-0.9,0.2-1.4c-0.1-0.1-0.1-0.3-0.1-0.4
		s0.2-0.3,0.4-0.4c0.2-0.3,0.3-0.7,0.6-1c0.2-0.3,0.5-0.6,0.8-0.9c0.3-0.3,0.6-0.5,1-0.6C198.9,7.8,199.3,7.7,199.7,7.7z M200.1,10
		c0.1-0.3,0.1-0.6-0.1-0.8c-0.2-0.2-0.4-0.3-0.6-0.3c-0.2,0-0.4,0.1-0.6,0.2c-0.2,0.1-0.4,0.3-0.5,0.5c-0.1,0.2-0.3,0.4-0.4,0.6
		c-0.1,0.2-0.2,0.4-0.3,0.6c0.2,0.1,0.5,0.1,0.7,0.1c0.2,0,0.4,0,0.6,0c0.2,0,0.4-0.1,0.5-0.1s0.3-0.1,0.4-0.2S200.1,10.2,200.1,10z
		"/>
	<path d="M206.2,7.8c0.2,0,0.4,0,0.6,0.1c0.2,0.1,0.4,0.2,0.5,0.3c0.2,0.1,0.3,0.3,0.4,0.5c0.1,0.2,0.3,0.3,0.4,0.5
		c0.1,0.1,0.1,0.2,0.1,0.4c0,0.1-0.1,0.2-0.2,0.3c-0.1,0.1-0.2,0.2-0.3,0.2c-0.1,0.1-0.3,0.1-0.4,0.1c-0.2,0-0.3-0.1-0.4-0.2
		c-0.1-0.2-0.3-0.3-0.4-0.5s-0.3-0.2-0.4-0.2c-0.1,0-0.2,0.1-0.3,0.2c-0.1,0.1-0.2,0.3-0.3,0.5s-0.1,0.4-0.2,0.6
		c0,0.2-0.1,0.3-0.1,0.4c-0.1,0.5-0.2,1.1-0.2,1.6c0,0.5,0,1.1,0,1.6c0,0.1,0,0.2-0.1,0.3c-0.1,0.1-0.1,0.2-0.2,0.2
		s-0.2,0.1-0.3,0.2c-0.1,0-0.2,0.1-0.3,0.1c-0.1,0-0.3,0-0.4-0.1c-0.1-0.1-0.1-0.2-0.2-0.4c-0.1-1-0.1-2.1-0.2-3.1s-0.1-2-0.1-3.1
		c0-0.1,0-0.2,0.1-0.3c0.1-0.1,0.1-0.2,0.2-0.2c0.1-0.1,0.2-0.1,0.3-0.1c0.1,0,0.2-0.1,0.3-0.1c0.1,0,0.3,0,0.4,0.1
		c0.1,0.1,0.2,0.2,0.2,0.4c0,0.1,0,0.2,0,0.3c0,0.1,0,0.2,0,0.3c0.2-0.2,0.4-0.4,0.6-0.6C205.7,8,205.9,7.9,206.2,7.8z"/>
	<path d="M213.3,7.8c0.2,0,0.4,0,0.6,0s0.4,0,0.6,0c0.1-0.6,0.2-1.1,0.3-1.7S215,5,215,4.5c0-0.1,0-0.2,0.1-0.3
		c0.1-0.1,0.1-0.2,0.2-0.2c0.1-0.1,0.2-0.1,0.3-0.2c0.1,0,0.2-0.1,0.3-0.1c0.1,0,0.3,0,0.4,0.1c0.1,0.1,0.1,0.2,0.1,0.3
		c-0.1,0.6-0.1,1.2-0.2,1.8c-0.1,0.6-0.2,1.2-0.2,1.8c0.3,0,0.7,0,1,0c0.3,0,0.7,0,1,0c0.2,0,0.4,0.1,0.5,0.2c0.1,0.1,0.1,0.3,0,0.4
		c-0.1,0.2-0.2,0.3-0.3,0.4c-0.2,0.1-0.3,0.2-0.5,0.2c-0.3,0-0.6,0-1,0c-0.3,0-0.6,0-1,0c0,0.1,0,0.3,0,0.4c0,0.1,0,0.2,0,0.4
		c0,0.4,0,0.7,0,1.1s0,0.7,0,1.1c0,0.1,0,0.2,0.1,0.4c0,0.2,0.1,0.4,0.2,0.7s0.2,0.4,0.3,0.6c0.1,0.2,0.3,0.3,0.4,0.3
		c0.1,0,0.2-0.1,0.4-0.2c0.1-0.1,0.2-0.2,0.3-0.2s0.2-0.1,0.3-0.1c0.1,0,0.2,0,0.3,0.1c0.1,0,0.2,0.1,0.2,0.2s0.1,0.2,0.1,0.3
		s-0.1,0.2-0.2,0.4c-0.2,0.3-0.5,0.5-0.8,0.6c-0.3,0.1-0.5,0.2-0.8,0.2c-0.2,0-0.5,0-0.7-0.1c-0.2-0.1-0.4-0.2-0.6-0.3
		c-0.2-0.2-0.4-0.3-0.5-0.5c-0.1-0.2-0.3-0.5-0.3-0.7c-0.2-0.7-0.3-1.4-0.3-2.1c0-0.7,0-1.5,0.1-2.2c-0.2,0-0.5,0-0.7,0
		c-0.2,0-0.5,0-0.7,0c-0.2,0-0.4,0-0.5-0.2c-0.1-0.1-0.1-0.3,0-0.4c0.1-0.1,0.2-0.3,0.3-0.4C213,7.9,213.2,7.8,213.3,7.8z"/>
	<path d="M224.6,14.4c0-0.1,0-0.3,0-0.6c0-0.3,0-0.7-0.1-1.1c0-0.4-0.1-0.8-0.2-1.3c-0.1-0.4-0.2-0.8-0.3-1.2
		c-0.1-0.4-0.2-0.7-0.4-0.9c-0.2-0.2-0.3-0.4-0.5-0.4c-0.2,0-0.3,0.1-0.5,0.2c-0.2,0.1-0.3,0.3-0.4,0.5c-0.1,0.2-0.2,0.5-0.3,0.7
		c-0.1,0.3-0.1,0.5-0.2,0.8c-0.1,0.3-0.1,0.5-0.1,0.7c-0.1,0.4-0.2,0.8-0.2,1.2c-0.1,0.4-0.1,0.8-0.2,1.2c0,0.2-0.1,0.3-0.3,0.4
		c-0.2,0.1-0.4,0.2-0.6,0.2c-0.1,0-0.3,0-0.4-0.1c-0.1-0.1-0.2-0.2-0.2-0.4c0-1.6,0.1-3.3,0.1-4.9c0-1.6,0.1-3.2,0.1-4.9
		c0-0.2,0.1-0.4,0.3-0.5c0.2-0.1,0.4-0.2,0.6-0.2c0.1,0,0.3,0,0.4,0.1c0.1,0.1,0.2,0.2,0.2,0.4c0,0.7,0,1.4,0,2.1c0,0.7,0,1.4,0,2.1
		c0.2-0.3,0.5-0.5,0.7-0.7c0.3-0.2,0.6-0.3,0.9-0.4c0.5-0.1,0.9,0,1.3,0.2c0.3,0.2,0.6,0.5,0.9,0.9c0.2,0.4,0.4,0.8,0.6,1.3
		c0.1,0.5,0.2,1,0.3,1.5c0.1,0.5,0.1,1,0.1,1.4s0,0.8,0,1.1c0,0.1,0,0.2-0.1,0.3c-0.1,0.1-0.1,0.2-0.2,0.2c-0.1,0.1-0.2,0.1-0.3,0.2
		c-0.1,0-0.2,0.1-0.3,0.1c-0.1,0-0.3,0-0.3-0.1S224.6,14.6,224.6,14.4z"/>
	<path d="M231.2,7.7c0.4,0,0.7,0.1,1,0.2c0.3,0.1,0.6,0.3,0.8,0.6s0.3,0.5,0.3,0.9c0,0.3-0.1,0.7-0.4,1.1c-0.2,0.2-0.3,0.5-0.6,0.6
		s-0.5,0.4-0.8,0.5c-0.3,0.1-0.6,0.2-0.9,0.3s-0.6,0.1-1,0.1c-0.1,0-0.3,0-0.4,0s-0.2,0-0.4-0.1c0,0.2,0,0.4,0,0.5
		c0,0.2,0.1,0.3,0.1,0.5c0.1,0.3,0.3,0.5,0.5,0.6c0.2,0.1,0.4,0.2,0.7,0.2c0.2,0,0.4,0,0.6-0.1s0.4-0.1,0.6-0.2
		c0.2-0.1,0.4-0.2,0.6-0.3s0.3-0.3,0.4-0.4c0.1-0.1,0.2-0.2,0.3-0.3c0.1-0.1,0.3-0.1,0.4-0.1c0.2,0,0.4,0.1,0.5,0.2
		c0.1,0.1,0.1,0.3,0,0.6c-0.1,0.3-0.3,0.6-0.5,0.8c-0.2,0.2-0.5,0.4-0.8,0.6c-0.3,0.2-0.7,0.3-1,0.4c-0.4,0.1-0.7,0.1-1.1,0.1
		c-0.5,0-0.9-0.1-1.3-0.3c-0.4-0.2-0.7-0.5-1-0.9c-0.2-0.4-0.4-0.8-0.4-1.2c0-0.5,0-0.9,0.2-1.4c-0.1-0.1-0.1-0.3-0.1-0.4
		s0.2-0.3,0.4-0.4c0.2-0.3,0.3-0.7,0.6-1c0.2-0.3,0.5-0.6,0.8-0.9c0.3-0.3,0.6-0.5,1-0.6C230.5,7.8,230.8,7.7,231.2,7.7z M231.7,10
		c0.1-0.3,0.1-0.6-0.1-0.8c-0.2-0.2-0.4-0.3-0.6-0.3c-0.2,0-0.4,0.1-0.6,0.2c-0.2,0.1-0.4,0.3-0.5,0.5c-0.1,0.2-0.3,0.4-0.4,0.6
		c-0.1,0.2-0.2,0.4-0.3,0.6c0.2,0.1,0.5,0.1,0.7,0.1c0.2,0,0.4,0,0.6,0c0.2,0,0.4-0.1,0.5-0.1s0.3-0.1,0.4-0.2S231.6,10.2,231.7,10z
		"/>
	<path d="M239.3,4.3c0-0.2,0.1-0.3,0.3-0.4s0.4-0.2,0.5-0.2c0.2,0,0.3,0,0.5,0.1s0.2,0.3,0.2,0.5c-0.2,1.7-0.3,3.4-0.2,5.1
		c0,0.2,0,0.4,0,0.7c0,0.3,0,0.6,0,0.9c0,0.3,0,0.7,0.1,1c0,0.3,0.1,0.6,0.2,0.9s0.2,0.5,0.4,0.7c0.2,0.2,0.4,0.3,0.6,0.4
		c0.2,0.1,0.4,0.1,0.4,0.3s0,0.3-0.1,0.4s-0.2,0.3-0.4,0.4c-0.2,0.1-0.4,0.1-0.5,0.1c-0.5-0.1-0.9-0.3-1.1-0.6s-0.5-0.6-0.6-1
		c-0.1-0.4-0.2-0.8-0.2-1.2c0-0.4-0.1-0.9-0.1-1.2C239,10,239,8.9,239,7.7C239,6.6,239.1,5.4,239.3,4.3z"/>
	<path d="M244.8,14.8c-0.5,0-0.9-0.2-1.3-0.5c-0.4-0.3-0.6-0.8-0.7-1.4c-0.1-0.5-0.1-0.9,0-1.4c0.1-0.5,0.2-1,0.4-1.4
		c0.2-0.5,0.4-0.9,0.7-1.3c0.3-0.4,0.7-0.7,1.1-0.9c0.2-0.1,0.4-0.2,0.6-0.2c0.2,0,0.4-0.1,0.6-0.1c0.5,0,1,0.2,1.3,0.6
		s0.7,0.9,0.9,1.4c0,0.1,0,0.1,0,0.2c0.2,0.1,0.3,0.2,0.4,0.4c0.1,0.3,0.1,0.6,0.2,0.9c0.1,0.4,0.2,0.7,0.3,1.1
		c0.1,0.4,0.3,0.7,0.5,1c0.2,0.3,0.4,0.5,0.6,0.7c0.2,0.1,0.2,0.2,0.3,0.3s0,0.3-0.1,0.4c-0.1,0.1-0.2,0.2-0.4,0.3
		c-0.1,0.1-0.3,0.1-0.5,0.1c-0.1,0-0.2,0-0.3-0.1c-0.4-0.2-0.7-0.5-0.9-0.8c-0.2-0.4-0.4-0.8-0.6-1.2c-0.2,0.3-0.4,0.5-0.6,0.8
		c-0.2,0.2-0.5,0.5-0.8,0.6c-0.3,0.2-0.6,0.3-0.9,0.5C245.5,14.8,245.1,14.8,244.8,14.8z M245.1,9.4c-0.3,0.4-0.5,0.8-0.6,1.4
		c-0.1,0.5-0.2,1-0.2,1.5c0,0.1,0,0.3,0,0.5c0,0.2,0.1,0.3,0.1,0.4c0.1,0.1,0.1,0.2,0.3,0.3c0.1,0.1,0.3,0.1,0.5,0.2
		c0.1,0,0.2,0,0.4-0.1c0.1-0.1,0.2-0.1,0.4-0.2c0.1-0.1,0.2-0.2,0.3-0.3c0.1-0.1,0.2-0.2,0.2-0.2c0.3-0.3,0.6-0.7,0.7-1.1
		s0.3-0.9,0.3-1.3c0-0.1,0-0.1,0-0.1c-0.1,0-0.3-0.1-0.3-0.3c-0.1-0.4-0.3-0.7-0.5-0.9c-0.2-0.3-0.4-0.4-0.7-0.4
		c-0.1,0-0.3,0-0.4,0.1S245.3,9.2,245.1,9.4z"/>
	<path d="M256.9,7.5c0.2,0,0.3,0.1,0.4,0.3c0.1,0.2,0,0.3,0,0.5c-0.5,0.9-1,1.8-1.6,2.7s-1.2,1.7-1.8,2.6c0.5,0,1,0,1.5,0
		c0.5,0,1,0.1,1.5,0.1c0.3,0,0.4,0.1,0.5,0.3c0.1,0.1,0.1,0.3,0,0.5c-0.1,0.2-0.2,0.3-0.3,0.4c-0.2,0.1-0.3,0.2-0.5,0.2
		c-0.4,0-0.8-0.1-1.2-0.1c-0.4,0-0.8,0-1.1,0c-0.3,0-0.5,0-0.8,0c-0.3,0-0.5,0-0.8,0.1c-0.1,0-0.2,0-0.3,0c-0.1,0-0.2-0.1-0.3-0.2
		s-0.1-0.2-0.2-0.3c0-0.1,0-0.2,0.1-0.4c0.6-0.9,1.2-1.8,1.9-2.7c0.6-0.9,1.2-1.8,1.8-2.8c-0.4,0-0.7,0-1.1,0c-0.4,0-0.7,0-1.1,0
		c-0.2,0-0.4,0-0.5,0c-0.2,0-0.3,0-0.5-0.1c-0.2-0.1-0.4-0.2-0.4-0.3c0-0.1,0-0.3,0.1-0.4c0.1-0.2,0.2-0.3,0.4-0.4
		c0.2-0.1,0.4-0.1,0.6-0.1c0.3,0.1,0.7,0.1,1,0.1c0.3,0,0.6,0,1,0c0.3,0,0.7,0,1,0c0.2,0,0.3,0,0.5,0C256.6,7.4,256.7,7.5,256.9,7.5
		z"/>
	<path d="M264.7,13c0,0.3,0,0.5,0.1,0.8c0,0.3,0,0.6,0,0.8s0,0.5,0,0.8c0,0.3-0.1,0.5-0.2,0.8c-0.3,0.7-0.7,1.2-1.2,1.5
		c-0.5,0.3-1.1,0.4-1.8,0.4c-0.3,0-0.6,0-1-0.1c-0.3-0.1-0.6-0.2-0.9-0.3c-0.2-0.1-0.3-0.2-0.4-0.4c0-0.2,0-0.3,0.1-0.4
		c0.1-0.1,0.2-0.3,0.4-0.3c0.2-0.1,0.4-0.1,0.5,0c0.2,0.1,0.5,0.2,0.7,0.2c0.3,0.1,0.5,0.1,0.7,0.1c0.3,0,0.6-0.1,0.8-0.2
		c0.2-0.1,0.4-0.4,0.6-0.8c0.1-0.2,0.1-0.4,0.1-0.6c0-0.2,0-0.4,0-0.6s0-0.4,0-0.6s0-0.4,0-0.6c-0.2,0.4-0.5,0.7-0.9,0.9
		c-0.3,0.3-0.8,0.4-1.2,0.5c-0.5,0.1-0.9,0-1.3-0.2s-0.6-0.5-0.8-0.9c-0.2-0.4-0.4-0.8-0.4-1.3c-0.1-0.5-0.1-1-0.2-1.5s0-1,0-1.4
		c0-0.5,0-0.8,0.1-1.1c0-0.1,0-0.2,0.1-0.3c0.1-0.1,0.1-0.2,0.2-0.2s0.2-0.1,0.3-0.1c0.1,0,0.2-0.1,0.3-0.1c0.1,0,0.3,0,0.4,0.1
		c0.1,0.1,0.1,0.2,0.1,0.3c0,0.4-0.1,0.8-0.1,1.3c0,0.4,0,0.8,0,1.3c0,0.2,0,0.4,0.1,0.8c0,0.3,0.1,0.6,0.2,1
		c0.1,0.3,0.2,0.6,0.4,0.8s0.4,0.3,0.7,0.3c0.2,0,0.4-0.1,0.6-0.3s0.3-0.5,0.5-0.8s0.2-0.7,0.3-1.1c0.1-0.4,0.2-0.8,0.2-1.1
		c0.1-0.4,0.1-0.7,0.2-1c0-0.3,0.1-0.5,0.1-0.6c0-0.1,0-0.2,0.1-0.3c0.1-0.1,0.1-0.2,0.2-0.2c0.1-0.1,0.2-0.1,0.3-0.2
		c0.1,0,0.2-0.1,0.3-0.1c0.1,0,0.2,0,0.3,0.1c0.1,0.1,0.1,0.2,0.2,0.4c0,0.8,0.1,1.5,0.1,2.2C264.6,11.5,264.6,12.2,264.7,13z"/>
	<path d="M270.5,14.2c-0.3-0.2-0.5-0.5-0.7-0.8c-0.2-0.3-0.3-0.7-0.3-1.1c0-0.4,0-0.8,0-1.1c0.1-0.4,0.1-0.7,0.2-1
		c0.1-0.3,0.3-0.6,0.5-1c0.2-0.3,0.4-0.6,0.7-0.8c0.3-0.2,0.6-0.5,0.9-0.6c0.3-0.2,0.7-0.2,1-0.3c0.3,0,0.6,0,0.9,0.1
		c0.3,0.1,0.6,0.3,0.9,0.5c0-0.6,0.1-1.2,0.1-1.7c0-0.6,0.1-1.1,0.1-1.7c0-0.2,0.1-0.4,0.3-0.5s0.4-0.2,0.6-0.2c0.1,0,0.2,0,0.3,0.1
		c0.1,0.1,0.1,0.2,0.1,0.3c0,1.7-0.1,3.3,0,5c0,1.7,0,3.3-0.1,5c0,0.1,0,0.2-0.1,0.3c-0.1,0.1-0.1,0.2-0.2,0.2s-0.2,0.1-0.3,0.2
		c-0.1,0-0.2,0.1-0.3,0.1c-0.3,0-0.5-0.2-0.5-0.5c-0.3,0.1-0.6,0.1-0.9,0.2s-0.6,0.1-1,0.1c-0.4,0-0.8,0-1.2-0.1
		C271.2,14.6,270.8,14.4,270.5,14.2z M271,11.5c0,0.3,0,0.5,0.1,0.7c0,0.2,0.1,0.4,0.2,0.6c0.1,0.2,0.3,0.3,0.5,0.4
		c0.2,0.1,0.4,0.2,0.7,0.2c0.3,0,0.7,0,1,0c0.3,0,0.7-0.1,1-0.2c0-0.5,0-1.1,0-1.6s0-1.1,0-1.6c-0.1-0.2-0.2-0.3-0.3-0.5
		c-0.1-0.2-0.3-0.3-0.5-0.4c-0.2-0.1-0.3-0.2-0.5-0.3c-0.2-0.1-0.4-0.1-0.5-0.1c-0.3,0-0.6,0.1-0.8,0.3c-0.2,0.2-0.4,0.4-0.5,0.7
		s-0.2,0.6-0.3,0.9C271.1,11,271,11.2,271,11.5z"/>
	<path d="M283.5,13c-0.2,0.3-0.4,0.6-0.6,0.8s-0.5,0.5-0.8,0.7c-0.3,0.2-0.6,0.3-1,0.4s-0.7,0.1-1,0.1c-0.4,0-0.8-0.1-1.2-0.2
		c-0.4-0.2-0.7-0.4-1-0.8c-0.4-0.4-0.6-0.9-0.7-1.5c-0.1-0.6-0.1-1.1,0-1.7c0.1-0.6,0.3-1.1,0.6-1.6c0.3-0.5,0.7-0.9,1.3-1.1
		c0.1,0,0.1-0.1,0.2-0.1c0.3-0.1,0.6-0.2,0.9-0.3c0.3-0.1,0.6-0.1,1,0c0.6,0.1,1.1,0.3,1.6,0.7c0.4,0.4,0.8,0.8,1,1.3
		c0.2,0.5,0.3,1.1,0.3,1.6C283.9,11.9,283.8,12.5,283.5,13z M280.8,8.9c-0.3-0.1-0.6,0-0.8,0c-0.2,0.1-0.5,0.2-0.6,0.4
		c-0.2,0.2-0.3,0.4-0.5,0.7s-0.2,0.5-0.3,0.8v0c0,0.4,0,0.9,0.1,1.3c0.1,0.4,0.2,0.8,0.5,1c0.2,0.2,0.4,0.4,0.6,0.5
		c0.2,0.1,0.4,0.2,0.6,0.2c0.2,0,0.4,0,0.7-0.1c0.2-0.1,0.4-0.2,0.6-0.4c0.2-0.2,0.3-0.3,0.5-0.5s0.2-0.4,0.3-0.7
		c0.1-0.3,0.1-0.6,0.1-1c0-0.3-0.1-0.6-0.3-0.9c-0.1-0.3-0.3-0.5-0.6-0.8C281.4,9.2,281.1,9,280.8,8.9z"/>
	<path d="M291.1,16.8c-0.3,0.5-0.6,0.9-1,1.1c-0.4,0.2-0.8,0.3-1.2,0.3c-0.5,0-1-0.1-1.5-0.4c-0.5-0.2-0.9-0.6-1.3-0.9
		c-0.1-0.1-0.2-0.2-0.2-0.3c0-0.1,0.1-0.2,0.2-0.3c0.1-0.1,0.2-0.2,0.3-0.2c0.1-0.1,0.3-0.1,0.4-0.1c0.2,0,0.3,0.1,0.5,0.2
		c0.1,0.1,0.2,0.2,0.3,0.3s0.3,0.2,0.4,0.3c0.2,0.1,0.3,0.2,0.5,0.2c0.2,0.1,0.3,0.1,0.5,0.1c0.2,0,0.3,0,0.5-0.1
		c0.1-0.1,0.3-0.3,0.4-0.5c0.1-0.3,0.2-0.7,0.2-1.1c0-0.4,0-0.8,0-1.1c0-0.1,0-0.3,0-0.4c0-0.1,0-0.3,0-0.4
		c-0.2,0.2-0.3,0.4-0.6,0.6c-0.2,0.2-0.4,0.4-0.7,0.5c-0.2,0.2-0.5,0.3-0.8,0.4c-0.3,0.1-0.5,0.1-0.8,0.1c-0.6,0-1.1-0.2-1.5-0.6
		c-0.4-0.4-0.7-0.9-0.7-1.6c-0.1-0.6,0-1.2,0.2-1.8c0.2-0.6,0.5-1.1,1-1.6s0.9-0.9,1.4-1.2c0.5-0.3,1-0.5,1.6-0.5
		c0.4,0,0.8,0.1,1.2,0.4c0.4,0.3,0.7,0.7,1,1.3c0.1,0.1,0.1,0.3,0,0.4c0,0,0,0,0,0c0,0,0,0,0,0c0.1,0.6,0.1,1.3,0.1,1.9
		c0,0.6,0,1.2,0,1.9c0,0.3,0,0.5,0,0.8c0,0.3,0,0.6,0,0.8c0,0.3,0,0.5-0.1,0.8C291.3,16.4,291.2,16.6,291.1,16.8z M288.8,12.9
		c0.3-0.4,0.6-0.8,0.8-1.2c0.2-0.4,0.4-0.9,0.4-1.4c0-0.1,0-0.1,0-0.2c-0.2-0.3-0.3-0.5-0.5-0.7s-0.4-0.2-0.6-0.2
		c-0.3,0-0.6,0.1-0.9,0.3c-0.3,0.2-0.5,0.4-0.8,0.7c-0.2,0.3-0.4,0.6-0.6,1c-0.1,0.3-0.2,0.7-0.2,1c0,0.2,0,0.4,0,0.6
		c0,0.2,0.1,0.3,0.1,0.5s0.2,0.2,0.3,0.3s0.3,0.1,0.5,0.1c0.2,0,0.3,0,0.5,0c0.1,0,0.2-0.1,0.3-0.1c0.1-0.1,0.2-0.1,0.3-0.3
		S288.6,13,288.8,12.9z"/>
	<path d="M5,19.9c0.9,0,1.7,0,2.6,0c0.9,0,1.7,0,2.6,0c0.3,0,0.4,0.1,0.5,0.2c0.1,0.1,0.1,0.3,0,0.4c-0.1,0.1-0.2,0.3-0.3,0.4
		c-0.2,0.1-0.3,0.2-0.5,0.2c-0.3,0-0.6,0-0.9,0c-0.3,0-0.6,0-0.9,0c0,1.5,0,3,0.1,4.5s0,3-0.1,4.5c0,0.1,0,0.2-0.1,0.3
		s-0.1,0.2-0.2,0.2c-0.1,0.1-0.2,0.1-0.3,0.2S7.3,31,7.2,31c-0.1,0-0.3,0-0.4-0.1c-0.1-0.1-0.1-0.2-0.2-0.4
		c-0.1-1.6-0.1-3.1-0.1-4.7c0-1.6,0.1-3.1,0.1-4.7c-0.3,0-0.7,0-1,0c-0.3,0-0.7,0-1,0c-0.2,0-0.4-0.1-0.5-0.2
		c-0.1-0.1-0.1-0.3,0-0.4c0.1-0.2,0.2-0.3,0.3-0.4C4.7,20,4.8,19.9,5,19.9z"/>
	<path d="M18.3,20.4c-0.1,0.8-0.1,1.6-0.1,2.5c0,0.8,0,1.6,0.1,2.5c0,0.8,0,1.7,0.1,2.5c0,0.8,0,1.6-0.1,2.5c0,0.1,0,0.2-0.1,0.3
		s-0.1,0.2-0.2,0.2c-0.1,0.1-0.2,0.1-0.3,0.2c-0.1,0-0.2,0.1-0.3,0.1c-0.1,0-0.3,0-0.4-0.1c-0.1-0.1-0.1-0.2-0.1-0.4
		c0-0.6,0-1.2,0-1.8s0-1.2,0-1.8c-0.6,0-1.2,0.1-1.8,0.1c-0.6,0-1.2,0-1.8,0c0,0.5,0,1.1,0,1.6c0,0.5,0,1.1,0,1.6
		c0,0.1,0,0.2-0.1,0.3c-0.1,0.1-0.1,0.2-0.2,0.2c-0.1,0.1-0.2,0.1-0.3,0.2S12.4,31,12.3,31c-0.1,0-0.3,0-0.4-0.1s-0.1-0.2-0.1-0.4
		c0-1.6-0.1-3.3-0.1-4.9c0-1.6,0-3.3,0-5c0-0.1,0-0.2,0.1-0.3c0.1-0.1,0.1-0.2,0.2-0.2s0.2-0.1,0.3-0.2c0.1,0,0.2-0.1,0.3-0.1
		c0.1,0,0.3,0,0.4,0.1c0.1,0.1,0.2,0.2,0.2,0.4l0,5.4c0.6,0,1.2,0,1.8,0c0.6,0,1.2,0,1.8-0.1c0-0.8,0-1.7,0-2.5c0-0.8,0-1.7,0.1-2.5
		c0-0.1,0-0.2,0.1-0.3c0.1-0.1,0.1-0.2,0.2-0.2c0.1-0.1,0.2-0.1,0.3-0.2c0.1,0,0.2-0.1,0.3-0.1c0.1,0,0.3,0,0.4,0.1
		S18.3,20.2,18.3,20.4z"/>
	<path d="M25.7,29.3c0.3,0,0.5,0,0.6,0.1s0.2,0.2,0.2,0.4c0,0.2-0.1,0.3-0.2,0.5c-0.1,0.2-0.3,0.3-0.5,0.3c-0.5,0.1-1.1,0.2-1.7,0.3
		c-0.6,0.1-1.2,0.2-1.8,0.2c-0.3,0-0.6,0-0.9-0.1s-0.4-0.1-0.6-0.2s-0.3-0.3-0.4-0.5c-0.1-0.2-0.2-0.5-0.3-0.9
		c-0.2-0.7-0.3-1.4-0.3-2.1c-0.1-0.7-0.1-1.5,0-2.2c0-0.7,0.1-1.5,0.1-2.2s0.1-1.4,0.1-2.1c0-0.1,0-0.2,0.1-0.3
		c0.1-0.1,0.1-0.2,0.2-0.2c0.1-0.1,0.2-0.1,0.3-0.1c0.1,0,0.2-0.1,0.3-0.1c0,0,0.1,0,0.1,0c0,0,0.1,0,0.1,0c0.5,0,0.9,0,1.4,0
		c0.5,0,0.9,0,1.4,0c0.3,0,0.6,0,0.9,0c0.3,0,0.6,0,0.9,0c0.2,0,0.4,0.1,0.5,0.2c0.1,0.1,0.1,0.3,0,0.4c-0.1,0.1-0.2,0.3-0.3,0.4
		c-0.1,0.1-0.3,0.2-0.5,0.2c-0.7,0.1-1.3,0.1-2,0c-0.7,0-1.3,0-2-0.1c0,0.8-0.1,1.5-0.1,2.2c0,0.7,0,1.5,0,2.2
		c0.7-0.1,1.4-0.2,2.2-0.2c0.7-0.1,1.5-0.1,2.2-0.1c0.2,0,0.4,0.1,0.5,0.2c0.1,0.1,0.1,0.3,0,0.4c-0.1,0.1-0.2,0.3-0.3,0.4
		s-0.3,0.2-0.5,0.2c-0.7,0.1-1.4,0.1-2,0.1c-0.7,0-1.3,0.1-2,0.2v0.2c0,0.2,0,0.4,0,0.7s0,0.5,0.1,0.8s0.1,0.5,0.2,0.7
		c0.1,0.2,0.3,0.4,0.5,0.5c0.1,0,0.2,0.1,0.4,0.1c0.2,0,0.5,0,0.7-0.1c0.3,0,0.5-0.1,0.6-0.1c0.3,0,0.6-0.1,0.9-0.1
		C25.1,29.4,25.4,29.4,25.7,29.3z"/>
	<path d="M37.4,20.5c0.5,0.4,0.9,0.9,1.2,1.5c0.3,0.6,0.5,1.3,0.5,1.9c0.1,0.7,0.1,1.4-0.1,2c-0.1,0.7-0.3,1.3-0.5,1.9
		c-0.1,0.1-0.1,0.2-0.2,0.4c-0.1,0.1-0.1,0.2-0.2,0.4c0.1,0.2,0.3,0.5,0.4,0.7c0.1,0.2,0.3,0.5,0.4,0.7c0.1,0.1,0.1,0.2,0,0.3
		c0,0.1-0.1,0.2-0.2,0.3c-0.1,0.1-0.2,0.2-0.3,0.2C38.4,31,38.2,31,38.1,31c-0.2,0-0.3-0.1-0.4-0.2c-0.1-0.1-0.2-0.3-0.3-0.4
		c-0.1-0.1-0.2-0.3-0.3-0.4c-0.3,0.3-0.7,0.6-1.1,0.8s-0.8,0.3-1.2,0.3c-0.3,0-0.5-0.1-0.8-0.2c-0.3-0.1-0.5-0.3-0.8-0.5
		c-0.3-0.3-0.6-0.7-0.8-1.1c-0.2-0.4-0.4-0.9-0.5-1.3c-0.1-0.5-0.2-1-0.2-1.5c0-0.5,0-1,0-1.5c0-0.5,0.1-1,0.2-1.5
		c0.1-0.5,0.2-0.9,0.3-1.3l0-0.1c0.3-0.7,0.7-1.3,1.3-1.7c0.6-0.4,1.2-0.6,1.8-0.6c0.3,0,0.6,0.1,1,0.2
		C36.8,20.1,37.1,20.3,37.4,20.5z M36.4,25.5c0.1,0.3,0.3,0.6,0.5,0.9c0.2,0.3,0.3,0.6,0.5,0.9c0.2-0.7,0.4-1.4,0.4-2.1
		c0-0.7-0.1-1.4-0.4-2.1c-0.1-0.3-0.2-0.5-0.4-0.8c-0.2-0.2-0.3-0.4-0.5-0.6c-0.2-0.2-0.4-0.3-0.6-0.4s-0.4-0.2-0.7-0.2
		c-0.3,0-0.5,0.1-0.8,0.3s-0.5,0.4-0.6,0.8c-0.3,0.8-0.4,1.6-0.5,2.5s0,1.7,0.2,2.5c0,0.1,0.1,0.4,0.1,0.6c0.1,0.3,0.1,0.5,0.2,0.8
		c0.1,0.3,0.2,0.5,0.3,0.7c0.1,0.2,0.3,0.3,0.5,0.4c0.2,0,0.3,0.1,0.4,0.1c0.3,0,0.6-0.1,0.8-0.3c0.2-0.2,0.5-0.4,0.7-0.6
		c-0.3-0.5-0.5-0.9-0.8-1.4c-0.2-0.5-0.5-0.9-0.7-1.4c-0.1-0.1-0.1-0.2,0-0.3s0.1-0.2,0.2-0.3c0.1-0.1,0.2-0.1,0.3-0.2
		c0.1,0,0.2-0.1,0.4-0.1c0.1,0,0.2,0,0.3,0.1C36.3,25.3,36.3,25.4,36.4,25.5z"/>
	<path d="M41.2,21c0-0.1,0-0.2,0.1-0.3c0.1-0.1,0.1-0.2,0.2-0.2s0.2-0.1,0.3-0.2c0.1,0,0.2-0.1,0.3-0.1c0.1,0,0.3,0,0.4,0.1
		c0.1,0.1,0.1,0.2,0.1,0.3c-0.1,0.8-0.1,1.6-0.2,2.4c-0.1,0.8-0.1,1.6,0,2.4c0,0.3,0,0.6,0.1,1c0,0.4,0.1,0.7,0.1,1.1
		c0.1,0.4,0.2,0.7,0.3,1c0.1,0.3,0.3,0.6,0.6,0.8c0.2,0.2,0.5,0.3,0.7,0.3c0.2,0,0.4-0.1,0.5-0.2c0.1-0.2,0.3-0.4,0.4-0.6
		c0.1-0.2,0.2-0.5,0.3-0.8c0.1-0.3,0.1-0.6,0.2-0.9s0.1-0.6,0.1-0.8c0-0.2,0-0.4,0-0.6c0-0.8,0.1-1.7,0.1-2.5c0-0.8,0-1.7,0.1-2.5
		c0-0.1,0-0.2,0.1-0.3c0.1-0.1,0.1-0.2,0.2-0.2s0.2-0.1,0.3-0.2c0.1,0,0.2-0.1,0.3-0.1c0.1,0,0.3,0,0.4,0.1c0.1,0.1,0.1,0.2,0.2,0.4
		c0,0.8,0.1,1.6,0.1,2.4c0,0.8,0,1.6,0.1,2.4s0.1,1.6,0.2,2.4c0.1,0.8,0.3,1.6,0.6,2.3c0.1,0.1,0.1,0.2,0,0.4c0,0.1-0.1,0.2-0.2,0.3
		c-0.1,0.1-0.2,0.1-0.3,0.2c-0.1,0-0.2,0.1-0.4,0.1c-0.2,0-0.4-0.1-0.5-0.3c-0.1-0.2-0.2-0.4-0.3-0.7c-0.1-0.2-0.1-0.4-0.2-0.7
		c-0.1,0.3-0.3,0.5-0.5,0.7c-0.2,0.2-0.4,0.4-0.6,0.5s-0.5,0.3-0.7,0.4s-0.5,0.1-0.8,0.1c-0.5,0-0.9-0.2-1.2-0.4
		c-0.3-0.2-0.6-0.6-0.8-1c-0.2-0.4-0.4-0.8-0.5-1.3c-0.1-0.5-0.2-1-0.2-1.6c0-0.5-0.1-1.1,0-1.7s0-1.1,0.1-1.6c0-0.5,0.1-1,0.1-1.4
		C41.1,21.6,41.1,21.2,41.2,21z"/>
	<path d="M50.1,20.6c0-0.1,0-0.2,0.1-0.3s0.1-0.2,0.2-0.2s0.2-0.1,0.3-0.1c0.1,0,0.2-0.1,0.3-0.1c0.1,0,0.3,0,0.3,0.1
		c0.1,0.1,0.1,0.2,0.1,0.3c-0.1,1.7-0.1,3.4-0.1,5c0,1.7,0,3.3,0,5c0,0.2-0.1,0.4-0.3,0.5s-0.4,0.2-0.6,0.2c-0.1,0-0.3,0-0.4-0.1
		c-0.1-0.1-0.2-0.2-0.2-0.4c-0.1-1.7-0.1-3.4,0-5C50,24,50,22.3,50.1,20.6z"/>
	<path d="M59,28.4c0.1-0.1,0.2-0.2,0.3-0.3c0.1-0.1,0.3-0.1,0.4-0.1c0.2,0,0.4,0.1,0.5,0.2c0.1,0.1,0.1,0.3,0,0.6
		c-0.2,0.3-0.4,0.7-0.6,0.9c-0.3,0.3-0.6,0.5-0.9,0.7c-0.3,0.2-0.7,0.3-1,0.5C57.3,31,57,31,56.6,31c-0.5,0-0.9-0.1-1.3-0.2
		c-0.5-0.2-1-0.5-1.3-0.9s-0.6-0.9-0.8-1.4c-0.2-0.5-0.3-1.1-0.3-1.6c0-0.6,0-1.1,0-1.6c0.1-0.5,0.2-1,0.4-1.6
		c0.2-0.5,0.4-1,0.7-1.5s0.6-0.8,1-1.2c0.4-0.3,0.9-0.6,1.4-0.8c0.3-0.1,0.6-0.1,0.9-0.1c0.4,0,0.7,0.1,1.1,0.2
		c0.3,0.1,0.7,0.3,0.9,0.6c0.3,0.2,0.5,0.5,0.7,0.9c0.2,0.3,0.3,0.7,0.3,1.1c0,0.1,0,0.2-0.1,0.3c-0.1,0.1-0.1,0.2-0.2,0.2
		c-0.1,0.1-0.2,0.1-0.3,0.2c-0.1,0-0.2,0.1-0.3,0.1c-0.1,0-0.3,0-0.4-0.1c-0.1-0.1-0.2-0.2-0.2-0.3c0-0.2-0.1-0.5-0.2-0.7
		c-0.1-0.2-0.2-0.4-0.4-0.6c-0.2-0.2-0.3-0.3-0.5-0.4c-0.2-0.1-0.4-0.1-0.7-0.1c-0.3,0-0.6,0.1-0.9,0.2c-0.3,0.2-0.5,0.4-0.8,0.6
		c-0.4,0.5-0.7,1-0.9,1.6c-0.2,0.6-0.3,1.2-0.3,1.9c0,0.3,0,0.6,0,0.9s0.1,0.6,0.1,0.9c0.1,0.3,0.2,0.6,0.3,0.9
		c0.1,0.3,0.3,0.5,0.5,0.8c0.2,0.2,0.5,0.4,0.7,0.5c0.3,0.1,0.5,0.2,0.8,0.2c0.4,0,0.8-0.1,1.2-0.4S58.7,28.9,59,28.4z"/>
	<path d="M63.5,26.4c0.9,0.5,1.7,1.1,2.5,1.7c0.8,0.6,1.6,1.2,2.4,1.9c0.1,0.1,0.2,0.2,0.2,0.3s-0.1,0.2-0.2,0.3
		c-0.1,0.1-0.2,0.2-0.3,0.3C67.9,31,67.8,31,67.7,31c-0.1,0-0.2,0-0.3-0.1c-0.7-0.5-1.4-1-2.1-1.6c-0.7-0.5-1.4-1-2.1-1.5
		c0,0.4,0,0.8,0.1,1.2c0,0.4,0,0.8,0.1,1.2c0,0.1,0,0.2-0.1,0.3c-0.1,0.1-0.1,0.2-0.2,0.2c-0.1,0.1-0.2,0.1-0.3,0.2
		c-0.1,0-0.2,0.1-0.3,0.1c-0.1,0-0.3,0-0.4-0.1s-0.2-0.2-0.2-0.4c-0.2-1.7-0.3-3.3-0.3-5c0-1.7-0.1-3.3-0.1-5c0-0.2,0.1-0.4,0.3-0.5
		c0.2-0.1,0.4-0.2,0.6-0.2c0.1,0,0.3,0,0.4,0.1c0.1,0.1,0.1,0.2,0.1,0.4c0,0.8,0,1.6,0,2.3c0,0.8,0.1,1.5,0.1,2.3
		c0.6-0.8,1.3-1.5,2-2.3s1.3-1.5,1.9-2.3c0.1-0.1,0.2-0.2,0.3-0.2c0.1,0,0.2-0.1,0.3-0.1c0.1,0,0.2,0,0.3,0.1c0.1,0,0.2,0.1,0.2,0.2
		c0.1,0.1,0.1,0.2,0.1,0.3c0,0.1-0.1,0.2-0.2,0.4c-0.7,0.9-1.5,1.8-2.2,2.7C65,24.6,64.3,25.5,63.5,26.4z"/>
	<path d="M78,25.7c0.4,0,0.8,0,1.2,0.1c0.4,0.1,0.7,0.2,1,0.4c0.3,0.2,0.5,0.4,0.7,0.7c0.2,0.3,0.3,0.7,0.3,1.2
		c0,0.6-0.1,1.1-0.4,1.4c-0.3,0.4-0.6,0.7-1.1,0.9c-0.4,0.2-0.9,0.4-1.5,0.5C77.8,31,77.3,31,76.8,31c-0.4,0-0.7,0-1,0
		c-0.3,0-0.6-0.1-0.9-0.1c-0.2,0-0.3-0.1-0.4-0.3c-0.1,0-0.2-0.1-0.3-0.1c-0.1-0.1-0.1-0.2-0.2-0.3c-0.4-2.8-0.5-5.6-0.2-8.4
		c0,0,0-0.1,0-0.1c0,0,0-0.1,0-0.1c0-0.1,0.1-0.2,0.2-0.4c0.5-0.4,0.9-0.7,1.5-0.9c0.5-0.2,1.1-0.3,1.7-0.2c0.3,0,0.6,0.1,0.9,0.2
		c0.3,0.1,0.6,0.2,0.8,0.4s0.5,0.3,0.7,0.6c0.2,0.2,0.3,0.5,0.4,0.8c0.1,0.4,0.1,0.8,0.1,1.2c-0.1,0.4-0.2,0.7-0.4,1
		c-0.2,0.3-0.4,0.6-0.7,0.9C78.7,25.2,78.4,25.5,78,25.7z M77.6,21.4c-0.4-0.2-0.7-0.2-1.1-0.2c-0.5,0-0.9,0.1-1.3,0.4
		c-0.1,0.8-0.1,1.5-0.1,2.2c0,0.7,0,1.5,0,2.2c0.3-0.1,0.6-0.3,0.8-0.5c0.3-0.2,0.6-0.3,0.9-0.5c0.3-0.2,0.6-0.4,0.8-0.6
		c0.2-0.2,0.5-0.5,0.6-0.7c0.3-0.5,0.4-0.9,0.2-1.4C78.4,22,78.1,21.6,77.6,21.4z M75.5,29.7c0.2,0,0.5,0,0.8,0s0.7,0,1.1,0
		c0.4,0,0.8-0.1,1.1-0.2c0.4-0.1,0.7-0.2,0.9-0.4c0.2-0.2,0.4-0.4,0.4-0.6s-0.1-0.6-0.3-0.9c-0.2-0.3-0.5-0.5-0.8-0.6
		c-0.3-0.1-0.7-0.2-1-0.2c-0.4,0-0.7,0-1.1,0.1c-0.4,0.1-0.7,0.1-1,0.2c-0.1,0-0.2,0-0.3,0c0,0.4,0.1,0.9,0.1,1.3
		C75.4,28.9,75.5,29.3,75.5,29.7z"/>
	<path d="M82.4,27.7v-0.1c0-1.1,0-2.2,0-3.3s0-2.2,0-3.3c0-0.1,0-0.2,0.1-0.3c0.1-0.1,0.2-0.2,0.3-0.2c0.1-0.1,0.2-0.1,0.4-0.1
		c0.1,0,0.3,0,0.4,0c0.4-0.1,0.7-0.2,1.1-0.3c0.4-0.1,0.8-0.1,1.2-0.1c0.3,0,0.5,0,0.8,0.1c0.2,0.1,0.5,0.1,0.7,0.3
		c0.3,0.1,0.5,0.3,0.7,0.6c0.2,0.2,0.3,0.5,0.4,0.7c0.1,0.3,0.2,0.5,0.2,0.8c0,0.3,0,0.6,0,0.9c-0.1,0.4-0.2,0.8-0.3,1.2
		c-0.2,0.4-0.4,0.7-0.6,1.1c-0.2,0.3-0.5,0.6-0.8,0.9c-0.3,0.3-0.6,0.5-1,0.7c0.5,0.3,1,0.7,1.4,1.1c0.4,0.5,0.8,1,1.2,1.5
		c0.1,0.1,0.1,0.3,0.1,0.4c0,0.1-0.1,0.2-0.2,0.4c-0.1,0.1-0.2,0.2-0.3,0.3c-0.1,0.1-0.3,0.1-0.4,0.1c-0.2,0-0.4-0.1-0.5-0.2
		c-0.2-0.3-0.4-0.6-0.7-0.9c-0.2-0.3-0.5-0.6-0.8-0.9c-0.3-0.3-0.6-0.5-0.9-0.7c-0.3-0.2-0.7-0.3-1.1-0.3c0,0.4,0,0.8,0,1.2
		c0,0.4,0,0.8,0,1.2c0,0.1,0,0.2-0.1,0.3c-0.1,0.1-0.1,0.2-0.2,0.2c-0.1,0.1-0.2,0.1-0.3,0.2S83.2,31,83.1,31c-0.1,0-0.3,0-0.4-0.1
		c-0.1-0.1-0.2-0.2-0.2-0.4c0-0.5,0-1-0.1-1.5S82.4,28.1,82.4,27.7z M86.9,21.5c-0.2-0.2-0.4-0.4-0.6-0.4C86,21,85.8,21,85.5,21
		c-0.3,0-0.6,0-0.9,0.1c-0.3,0.1-0.6,0.2-0.8,0.2c0,0.9,0,1.8,0,2.6c0,0.9,0,1.7,0,2.6c0,0,0.1,0,0.2,0c0.7-0.2,1.3-0.5,1.8-1
		c0.5-0.5,0.9-1.1,1.1-1.8c0.1-0.2,0.1-0.4,0.1-0.6c0-0.2,0-0.4,0-0.6c0-0.2-0.1-0.4-0.1-0.6C87.1,21.8,87,21.7,86.9,21.5z"/>
	<path d="M91,30.3c-0.4-0.3-0.7-0.6-1-1c-0.2-0.4-0.4-0.8-0.5-1.2c-0.1-0.5-0.2-0.9-0.2-1.4c0-0.5,0-1,0.1-1.5
		c0.1-0.5,0.2-1,0.3-1.4s0.3-0.9,0.4-1.2c0,0,0,0,0,0c0.1-0.4,0.3-0.7,0.5-1s0.5-0.6,0.8-0.8c0.3-0.2,0.6-0.4,1-0.5s0.7-0.2,1.1-0.2
		c0.5,0,1,0.1,1.5,0.5c0.6,0.4,1.1,0.9,1.4,1.5s0.6,1.2,0.7,1.9c0.1,0.7,0.2,1.4,0.1,2.1c-0.1,0.7-0.2,1.4-0.4,2
		c-0.1,0.3-0.2,0.6-0.4,0.9c-0.1,0.3-0.3,0.6-0.5,0.9c-0.2,0.3-0.4,0.5-0.6,0.8c-0.2,0.2-0.5,0.4-0.8,0.5c-0.2,0.1-0.3,0.1-0.5,0.1
		c-0.2,0-0.3,0-0.5,0c-0.5,0-0.9-0.1-1.4-0.2C91.7,30.7,91.3,30.5,91,30.3z M92.9,21.4c-0.4,0.1-0.7,0.2-0.8,0.5
		c-0.2,0.2-0.4,0.5-0.5,0.8c-0.1,0.4-0.3,0.8-0.4,1.2c-0.1,0.4-0.2,0.9-0.2,1.3c-0.1,0.4-0.1,0.9,0,1.3s0.1,0.9,0.2,1.3
		c0.1,0.5,0.4,0.9,0.7,1.2c0.3,0.3,0.7,0.5,1.3,0.6c0.2,0.1,0.4,0.1,0.5,0.1c0.2,0,0.5,0,0.7-0.1s0.3-0.2,0.5-0.4
		c0.1-0.2,0.3-0.3,0.4-0.6c0.1-0.2,0.2-0.4,0.3-0.7c0.2-0.5,0.3-0.9,0.4-1.4s0.1-1,0.1-1.4c0-0.5-0.1-0.9-0.3-1.4
		c-0.2-0.5-0.4-0.9-0.7-1.3c-0.1-0.2-0.3-0.3-0.4-0.5c-0.1-0.1-0.3-0.3-0.4-0.3c-0.1-0.1-0.3-0.2-0.5-0.2S93.1,21.3,92.9,21.4z"/>
	<path d="M105.6,20.3c0-0.2,0.1-0.4,0.3-0.5c0.2-0.1,0.4-0.1,0.5-0.1c0.2,0,0.3,0.1,0.5,0.1c0.1,0.1,0.2,0.3,0.1,0.5
		c-0.1,0.9-0.3,1.7-0.4,2.6c-0.2,0.9-0.3,1.7-0.5,2.6c-0.1,0.9-0.3,1.7-0.4,2.6c-0.1,0.9-0.2,1.7-0.3,2.6c0,0.2-0.1,0.3-0.3,0.4
		c-0.2,0.1-0.4,0.2-0.6,0.2c-0.1,0-0.2,0-0.3-0.1c-0.1-0.1-0.2-0.1-0.2-0.3c-0.2-0.9-0.5-1.8-0.7-2.8c-0.3-0.9-0.5-1.8-0.7-2.8
		c-0.2,0.9-0.4,1.7-0.6,2.6c-0.2,0.9-0.4,1.7-0.6,2.6c0,0.2-0.2,0.3-0.3,0.4c-0.2,0.1-0.4,0.2-0.5,0.2c-0.1,0-0.3,0-0.4-0.1
		s-0.2-0.2-0.2-0.4c-0.3-1.7-0.6-3.4-0.8-5.1c-0.2-1.7-0.4-3.4-0.5-5.1c0-0.1,0-0.2,0.1-0.3c0.1-0.1,0.1-0.2,0.2-0.2
		c0.1-0.1,0.2-0.1,0.3-0.1c0.1,0,0.2-0.1,0.3-0.1c0.1,0,0.3,0,0.4,0.1s0.2,0.2,0.2,0.4c0.1,1.1,0.2,2.2,0.3,3.3
		c0.1,1.1,0.3,2.2,0.5,3.3c0.2-0.8,0.4-1.6,0.6-2.4s0.4-1.6,0.6-2.4c0-0.2,0.2-0.3,0.3-0.4c0.2-0.1,0.4-0.2,0.5-0.2
		c0.1,0,0.3,0,0.4,0.1c0.1,0.1,0.2,0.2,0.2,0.4c0.1,0.8,0.3,1.6,0.5,2.4c0.2,0.8,0.4,1.6,0.6,2.4c0.2-1.1,0.4-2.2,0.6-3.2
		C105.2,22.4,105.4,21.4,105.6,20.3z"/>
	<path d="M113.1,20.5c0-0.1,0-0.2,0.1-0.3c0.1-0.1,0.1-0.2,0.2-0.2c0.1-0.1,0.2-0.1,0.3-0.2c0.1,0,0.2-0.1,0.3-0.1
		c0.1,0,0.3,0,0.4,0.1s0.1,0.2,0.1,0.4c0,1.7-0.1,3.3-0.1,5c0,1.7-0.1,3.3,0,5c0,0.2-0.1,0.4-0.3,0.5s-0.4,0.2-0.6,0.2
		c-0.1,0-0.2,0-0.3-0.1c-0.1-0.1-0.2-0.1-0.3-0.2c-0.6-1-1.2-2.1-1.7-3.2s-1-2.2-1.5-3.3c0,1,0,2.1,0,3.1c0,1,0,2.1,0.1,3.1
		c0,0.1,0,0.2-0.1,0.3c-0.1,0.1-0.1,0.2-0.2,0.2c-0.1,0.1-0.2,0.1-0.3,0.2c-0.1,0-0.2,0.1-0.3,0.1c-0.1,0-0.3,0-0.4-0.1
		c-0.1-0.1-0.2-0.2-0.2-0.4c-0.1-1.7-0.1-3.3-0.1-5s0-3.3,0.1-5c0-0.1,0-0.2,0.1-0.3c0.1-0.1,0.1-0.2,0.2-0.3s0.2-0.1,0.3-0.2
		c0.1,0,0.2-0.1,0.3-0.1c0.2,0,0.4,0.1,0.5,0.3c0.5,1.2,0.9,2.4,1.4,3.6c0.5,1.2,1,2.4,1.6,3.5c0-1.1,0-2.3,0.1-3.4
		C113,22.8,113.1,21.7,113.1,20.5z"/>
	<path d="M121.5,21.5c-0.1,0.1-0.2,0.2-0.2,0.3c-0.1,0.1-0.1,0.3-0.1,0.4s0,0.3,0,0.4c0,0.1,0,0.3,0,0.4c0,0.2,0,0.4,0,0.6
		c0,0.2,0,0.4,0,0.6c0.1,0,0.2-0.1,0.4-0.1c0.7,0,1.4-0.1,2.2-0.1c0.7,0,1.4,0,2.2,0c0.3,0,0.4,0.1,0.5,0.2c0.1,0.1,0.1,0.3,0,0.4
		c-0.1,0.1-0.2,0.3-0.3,0.4c-0.2,0.1-0.3,0.2-0.5,0.2c-0.7,0-1.4,0-2.2,0c-0.7,0-1.4,0-2.2,0.1c0,0,0,0,0,0c0,0,0,0,0,0
		c0,0.8,0.1,1.5,0.1,2.2s0.1,1.5,0.2,2.2c0,0,0,0.1,0,0.2c0,0.1,0,0.2,0,0.2c0,0.1,0,0.2-0.1,0.3c-0.1,0.1-0.1,0.2-0.2,0.2
		c-0.1,0.1-0.2,0.1-0.3,0.2s-0.2,0.1-0.3,0.1c-0.1,0-0.3,0-0.4-0.1c-0.1-0.1-0.2-0.2-0.2-0.4c-0.2-1.7-0.3-3.5-0.4-5.2
		c0-0.3,0-0.6,0-1s0-0.7,0-1.1c0-0.4,0-0.7,0.1-1.1c0.1-0.3,0.2-0.7,0.3-1c0.1-0.2,0.3-0.4,0.5-0.6c0.2-0.2,0.5-0.3,0.7-0.4
		c0.3-0.1,0.6-0.2,0.9-0.2c0.3,0,0.6-0.1,1-0.1c0.5,0,1,0,1.5,0.1c0.5,0.1,0.9,0.1,1.3,0.1c0.2,0,0.4,0.1,0.5,0.2
		c0.1,0.1,0.1,0.3,0,0.4s-0.2,0.3-0.3,0.4c-0.1,0.1-0.3,0.2-0.5,0.1c-0.4-0.1-0.9-0.1-1.3-0.1s-0.9,0-1.3,0c-0.1,0-0.2,0-0.3,0
		c-0.1,0-0.3,0-0.4,0c-0.1,0-0.3,0-0.4,0C121.7,21.4,121.6,21.4,121.5,21.5z"/>
	<path d="M128.8,30.3c-0.4-0.3-0.7-0.6-1-1c-0.2-0.4-0.4-0.8-0.5-1.2c-0.1-0.5-0.2-0.9-0.2-1.4c0-0.5,0-1,0.1-1.5
		c0.1-0.5,0.2-1,0.3-1.4s0.3-0.9,0.4-1.2c0,0,0,0,0,0c0.1-0.4,0.3-0.7,0.5-1s0.5-0.6,0.8-0.8c0.3-0.2,0.6-0.4,1-0.5s0.7-0.2,1.1-0.2
		c0.5,0,1,0.1,1.5,0.5c0.6,0.4,1.1,0.9,1.4,1.5s0.6,1.2,0.7,1.9c0.1,0.7,0.2,1.4,0.1,2.1c-0.1,0.7-0.2,1.4-0.4,2
		c-0.1,0.3-0.2,0.6-0.4,0.9c-0.1,0.3-0.3,0.6-0.5,0.9c-0.2,0.3-0.4,0.5-0.6,0.8c-0.2,0.2-0.5,0.4-0.8,0.5c-0.2,0.1-0.3,0.1-0.5,0.1
		c-0.2,0-0.3,0-0.5,0c-0.5,0-0.9-0.1-1.4-0.2C129.5,30.7,129.1,30.5,128.8,30.3z M130.7,21.4c-0.4,0.1-0.7,0.2-0.8,0.5
		c-0.2,0.2-0.4,0.5-0.5,0.8c-0.1,0.4-0.3,0.8-0.4,1.2c-0.1,0.4-0.2,0.9-0.2,1.3c-0.1,0.4-0.1,0.9,0,1.3s0.1,0.9,0.2,1.3
		c0.1,0.5,0.4,0.9,0.7,1.2c0.3,0.3,0.7,0.5,1.3,0.6c0.2,0.1,0.4,0.1,0.5,0.1c0.2,0,0.5,0,0.7-0.1s0.3-0.2,0.5-0.4
		c0.1-0.2,0.3-0.3,0.4-0.6c0.1-0.2,0.2-0.4,0.3-0.7c0.2-0.5,0.3-0.9,0.4-1.4s0.1-1,0.1-1.4c0-0.5-0.1-0.9-0.3-1.4
		c-0.2-0.5-0.4-0.9-0.7-1.3c-0.1-0.2-0.3-0.3-0.4-0.5c-0.1-0.1-0.3-0.3-0.4-0.3c-0.1-0.1-0.3-0.2-0.5-0.2S130.9,21.3,130.7,21.4z"/>
	<path d="M141.2,20.4c0.1-0.1,0.2-0.2,0.3-0.3s0.3-0.1,0.4-0.1c0.2,0,0.4,0.1,0.5,0.2c0.1,0.1,0.1,0.3,0,0.5
		c-0.4,0.8-0.8,1.6-1.2,2.5c-0.4,0.8-0.8,1.6-1.2,2.4c0.4,0.8,0.8,1.5,1.2,2.3c0.4,0.8,0.8,1.5,1.1,2.3c0.1,0.1,0.1,0.2,0,0.3
		c0,0.1-0.1,0.2-0.2,0.3S142.1,31,142,31c-0.1,0-0.2,0.1-0.4,0.1s-0.2,0-0.3-0.1s-0.2-0.1-0.2-0.2c-0.3-0.6-0.6-1.1-0.9-1.7
		c-0.3-0.6-0.6-1.1-0.9-1.7c-0.3,0.5-0.6,1.1-0.8,1.6c-0.3,0.5-0.6,1.1-0.9,1.6c-0.1,0.1-0.2,0.2-0.3,0.3c-0.1,0.1-0.3,0.1-0.5,0.1
		c-0.1,0-0.2,0-0.3-0.1s-0.2-0.1-0.2-0.2c-0.1-0.1-0.1-0.1-0.1-0.2c0-0.1,0-0.2,0.1-0.3c0.4-0.7,0.8-1.5,1.1-2.2s0.8-1.5,1.1-2.2
		c-0.4-0.9-0.9-1.7-1.3-2.5s-0.9-1.7-1.3-2.5c-0.1-0.1-0.1-0.2,0-0.3c0-0.1,0.1-0.2,0.2-0.3c0.1-0.1,0.2-0.1,0.3-0.2
		c0.1,0,0.3-0.1,0.4-0.1s0.2,0,0.3,0.1c0.1,0,0.2,0.1,0.2,0.2c0.3,0.6,0.7,1.3,1,1.9c0.3,0.6,0.7,1.3,1,1.9c0.3-0.6,0.7-1.2,1-1.8
		C140.6,21.6,140.9,21,141.2,20.4z"/>
	<path d="M155.4,20.1c0.2,0,0.4,0.1,0.5,0.2c0.1,0.1,0.1,0.2,0,0.4c-0.1,0.1-0.2,0.3-0.3,0.4s-0.3,0.2-0.5,0.2c-0.2,0-0.3,0-0.5,0
		c-0.2,0-0.3,0-0.5,0c0,0.7,0,1.4,0,2.2c0,0.7,0,1.4,0,2.2c0,0.4,0,0.7,0,1.1s0,0.7-0.1,1.1c0,0.4-0.1,0.7-0.2,1
		c-0.1,0.3-0.3,0.7-0.5,1c-0.3,0.4-0.7,0.7-1.1,0.9c-0.4,0.2-0.9,0.3-1.4,0.3c-0.1,0-0.3,0-0.4,0c-0.1,0-0.3,0-0.4-0.1
		c-0.4-0.1-0.7-0.2-1-0.4c-0.3-0.2-0.5-0.3-0.7-0.6c-0.2-0.2-0.3-0.5-0.4-0.8c-0.1-0.3-0.1-0.6-0.1-1c0-0.1,0-0.2,0.1-0.3
		c0.1-0.1,0.1-0.2,0.2-0.2c0.1-0.1,0.2-0.1,0.3-0.2c0.1,0,0.2-0.1,0.3-0.1c0.1,0,0.3,0,0.4,0.1c0.1,0.1,0.2,0.2,0.2,0.4
		c0,0.2,0,0.4,0.1,0.6s0.1,0.3,0.1,0.4c0.1,0.1,0.2,0.3,0.3,0.4c0.1,0.1,0.3,0.2,0.6,0.3c0.2,0.1,0.5,0.1,0.8,0.1
		c0.2,0,0.4,0,0.5-0.1c0.2,0,0.3-0.1,0.5-0.2c0.2-0.2,0.3-0.4,0.4-0.7c0.1-0.3,0.1-0.5,0.2-0.8c0-0.3,0-0.6,0-0.9c0-0.3,0-0.6,0-0.8
		c0-0.8,0.1-1.7,0.1-2.5c0-0.8,0-1.7,0-2.5c-0.4,0-0.9,0-1.4,0c-0.4,0-0.9,0-1.3,0c-0.3,0-0.4,0-0.5-0.2c-0.1-0.1-0.1-0.3,0-0.4
		c0.1-0.2,0.2-0.3,0.3-0.4c0.2-0.1,0.3-0.2,0.5-0.2c0.5,0,1,0,1.5-0.1s1,0,1.6,0c0.4,0,0.7,0,1,0C154.7,20,155.1,20.1,155.4,20.1z"
		/>
	<path d="M157.3,21c0-0.1,0-0.2,0.1-0.3c0.1-0.1,0.1-0.2,0.2-0.2s0.2-0.1,0.3-0.2c0.1,0,0.2-0.1,0.3-0.1c0.1,0,0.3,0,0.4,0.1
		c0.1,0.1,0.1,0.2,0.1,0.3c-0.1,0.8-0.1,1.6-0.2,2.4c-0.1,0.8-0.1,1.6,0,2.4c0,0.3,0,0.6,0.1,1c0,0.4,0.1,0.7,0.1,1.1
		c0.1,0.4,0.2,0.7,0.3,1c0.1,0.3,0.3,0.6,0.6,0.8c0.2,0.2,0.5,0.3,0.7,0.3c0.2,0,0.4-0.1,0.5-0.2c0.1-0.2,0.3-0.4,0.4-0.6
		c0.1-0.2,0.2-0.5,0.3-0.8c0.1-0.3,0.1-0.6,0.2-0.9s0.1-0.6,0.1-0.8c0-0.2,0-0.4,0-0.6c0-0.8,0.1-1.7,0.1-2.5c0-0.8,0-1.7,0.1-2.5
		c0-0.1,0-0.2,0.1-0.3c0.1-0.1,0.1-0.2,0.2-0.2s0.2-0.1,0.3-0.2c0.1,0,0.2-0.1,0.3-0.1c0.1,0,0.3,0,0.4,0.1c0.1,0.1,0.1,0.2,0.2,0.4
		c0,0.8,0.1,1.6,0.1,2.4c0,0.8,0,1.6,0.1,2.4s0.1,1.6,0.2,2.4c0.1,0.8,0.3,1.6,0.6,2.3c0.1,0.1,0.1,0.2,0,0.4c0,0.1-0.1,0.2-0.2,0.3
		c-0.1,0.1-0.2,0.1-0.3,0.2c-0.1,0-0.2,0.1-0.4,0.1c-0.2,0-0.4-0.1-0.5-0.3c-0.1-0.2-0.2-0.4-0.3-0.7c-0.1-0.2-0.1-0.4-0.2-0.7
		c-0.1,0.3-0.3,0.5-0.5,0.7c-0.2,0.2-0.4,0.4-0.6,0.5s-0.5,0.3-0.7,0.4s-0.5,0.1-0.8,0.1c-0.5,0-0.9-0.2-1.2-0.4
		c-0.3-0.2-0.6-0.6-0.8-1c-0.2-0.4-0.4-0.8-0.5-1.3c-0.1-0.5-0.2-1-0.2-1.6c0-0.5-0.1-1.1,0-1.7s0-1.1,0.1-1.6c0-0.5,0.1-1,0.1-1.4
		C157.2,21.6,157.2,21.2,157.3,21z"/>
	<path d="M171.1,20.4c0.1-0.1,0.2-0.2,0.4-0.3s0.3-0.1,0.5-0.1c0.1,0,0.3,0,0.4,0.1s0.2,0.2,0.2,0.4c0,0.8,0,1.6,0.1,2.5
		c0.1,0.8,0.1,1.6,0.2,2.5c0.1,0.8,0.1,1.6,0.2,2.5c0.1,0.8,0.1,1.6,0.1,2.5c0,0.1,0,0.2-0.1,0.3c-0.1,0.1-0.1,0.2-0.2,0.2
		c-0.1,0.1-0.2,0.1-0.3,0.2c-0.1,0-0.2,0.1-0.3,0.1c-0.1,0-0.3,0-0.4-0.1c-0.1-0.1-0.2-0.2-0.2-0.4c-0.1-1-0.2-2.1-0.3-3.1
		c-0.1-1-0.2-2.1-0.2-3.1c-0.2,0.7-0.3,1.3-0.5,1.9c-0.2,0.6-0.4,1.3-0.7,1.9c-0.1,0.1-0.2,0.2-0.4,0.3c-0.2,0.1-0.3,0.1-0.5,0.1
		c-0.1,0-0.2,0-0.3-0.1c-0.1,0-0.2-0.1-0.2-0.3c-0.2-0.6-0.4-1.3-0.6-1.9c-0.2-0.6-0.4-1.3-0.6-1.9c-0.1,1-0.2,2-0.3,3
		c-0.1,1-0.1,2-0.2,3c0,0.1,0,0.2-0.1,0.3c-0.1,0.1-0.1,0.2-0.2,0.2c-0.1,0.1-0.2,0.1-0.3,0.1s-0.2,0.1-0.3,0.1
		c-0.1,0-0.3,0-0.4-0.1c-0.1-0.1-0.1-0.2-0.1-0.3c0.1-0.8,0.1-1.7,0.2-2.5c0.1-0.8,0.1-1.7,0.2-2.5s0.2-1.7,0.3-2.5
		c0.1-0.8,0.3-1.7,0.5-2.5c0-0.2,0.2-0.3,0.3-0.4c0.2-0.1,0.3-0.2,0.5-0.2c0.1,0,0.3,0,0.4,0.1c0.1,0.1,0.2,0.2,0.2,0.4
		c0.1,0.9,0.3,1.7,0.6,2.6c0.2,0.9,0.5,1.7,0.7,2.6c0.1-0.4,0.3-0.9,0.4-1.3c0.1-0.4,0.2-0.9,0.4-1.3c0.1-0.4,0.3-0.9,0.4-1.3
		C170.7,21.2,170.8,20.8,171.1,20.4z"/>
	<path d="M174.7,30.6c-0.2-1.5-0.3-3.1-0.3-4.6c0-1.6,0-3.1,0.1-4.7c-0.1,0-0.2-0.1-0.2-0.2c0-0.1,0-0.2,0-0.3s0.1-0.2,0.2-0.3
		s0.2-0.2,0.4-0.2c0.5-0.1,1.1-0.2,1.6-0.2c0.5,0,1,0.1,1.4,0.2s0.9,0.3,1.4,0.5c0.3,0.2,0.6,0.4,0.8,0.6c0.2,0.2,0.3,0.5,0.4,0.8
		s0.2,0.6,0.2,0.9c0,0.3,0,0.6-0.1,1c-0.1,0.5-0.2,0.9-0.5,1.2c-0.2,0.4-0.5,0.7-0.9,0.9c-0.4,0.3-0.7,0.5-1.2,0.6
		c-0.4,0.1-0.9,0.2-1.3,0.2c-0.1,0-0.2,0-0.4,0c-0.1,0-0.2,0-0.4,0c0,0.6,0,1.1,0.1,1.7c0,0.6,0,1.1,0,1.7c0,0.2-0.1,0.4-0.3,0.5
		c-0.2,0.1-0.4,0.2-0.6,0.2c-0.1,0-0.3,0-0.4-0.1C174.7,30.9,174.7,30.7,174.7,30.6z M179.1,23.5c0-0.5-0.1-0.8-0.3-1.1
		c-0.2-0.3-0.5-0.5-0.8-0.7c-0.3-0.2-0.7-0.3-1.1-0.4c-0.4-0.1-0.8-0.1-1.2-0.1c0,0.7,0,1.4,0,2.1s0,1.4,0.1,2.1
		c0.4,0.1,0.7,0.2,1,0.2c0.3,0,0.6,0,0.8-0.1c0.3-0.1,0.5-0.2,0.7-0.4c0.2-0.2,0.4-0.4,0.5-0.7S179.1,23.8,179.1,23.5z"/>
	<path d="M185.3,19.8c0.4,0,0.7,0.1,1,0.3c0.3,0.2,0.6,0.4,0.8,0.7c0.2,0.3,0.4,0.6,0.5,1c0.1,0.3,0.2,0.7,0.3,1c0,0.1,0,0.2,0,0.3
		c0,0.1-0.1,0.2-0.2,0.2c-0.1,0.1-0.2,0.1-0.3,0.2c-0.1,0-0.2,0.1-0.3,0.1c-0.1,0-0.3,0-0.4-0.1c-0.1-0.1-0.2-0.2-0.2-0.4
		c0-0.1-0.1-0.3-0.1-0.5c-0.1-0.2-0.2-0.4-0.3-0.6c-0.1-0.2-0.2-0.3-0.4-0.5s-0.3-0.2-0.5-0.2c-0.2,0-0.5,0.1-0.7,0.4
		c-0.2,0.2-0.4,0.5-0.6,0.8c-0.2,0.3-0.3,0.7-0.4,1s-0.2,0.6-0.2,0.8c0,0.2-0.1,0.4-0.1,0.6c0,0.2-0.1,0.4,0,0.6
		c0,0.3,0.1,0.5,0.3,0.6c0.2,0.1,0.3,0.2,0.6,0.2c0.3,0.1,0.7,0.2,1.1,0.2c0.4,0,0.8,0.1,1.2,0.2c0.4,0.1,0.8,0.2,1.1,0.3
		c0.3,0.2,0.6,0.4,0.8,0.7c0.3,0.5,0.3,0.9,0.2,1.3c-0.1,0.4-0.3,0.8-0.7,1.1c-0.4,0.3-0.8,0.5-1.3,0.7s-1,0.3-1.5,0.3
		c-0.5,0-1-0.1-1.5-0.3s-0.8-0.6-1-1c-0.1-0.1-0.1-0.2,0-0.3c0-0.1,0.1-0.2,0.2-0.3s0.2-0.1,0.3-0.2c0.1,0,0.2-0.1,0.4-0.1
		c0.1,0,0.2,0,0.3,0.1c0.1,0,0.2,0.1,0.2,0.2c0.2,0.2,0.4,0.4,0.6,0.5c0.2,0.1,0.5,0.2,0.8,0.2c0.2,0,0.4,0,0.6-0.1
		c0.2,0,0.4-0.1,0.5-0.2c0.1,0,0.2-0.1,0.2-0.2c0.1-0.1,0.2-0.2,0.2-0.3c0.1-0.1,0.1-0.2,0.1-0.3c0-0.1,0-0.2-0.1-0.3
		c-0.1-0.2-0.2-0.3-0.5-0.4c-0.2-0.1-0.5-0.2-0.8-0.2c-0.3-0.1-0.6-0.1-0.9-0.1s-0.5-0.1-0.7-0.1c-0.2,0-0.4-0.1-0.6-0.1
		c-0.2,0-0.4-0.1-0.6-0.1c-0.2-0.1-0.3-0.1-0.5-0.2s-0.3-0.2-0.4-0.4c-0.1-0.2-0.2-0.4-0.2-0.6c0-0.2,0-0.5,0-0.7
		c0-0.2,0-0.5,0.1-0.7c0.1-0.2,0.1-0.4,0.1-0.6c0.1-0.4,0.2-0.8,0.4-1.3c0.2-0.5,0.4-0.9,0.7-1.3c0.3-0.4,0.6-0.8,1-1.1
		C184.4,20,184.8,19.8,185.3,19.8z"/>
	<path d="M195.3,30.3c-0.4-0.3-0.7-0.6-1-1c-0.2-0.4-0.4-0.8-0.5-1.2c-0.1-0.5-0.2-0.9-0.2-1.4c0-0.5,0-1,0.1-1.5
		c0.1-0.5,0.2-1,0.3-1.4s0.3-0.9,0.4-1.2c0,0,0,0,0,0c0.1-0.4,0.3-0.7,0.5-1c0.2-0.3,0.5-0.6,0.8-0.8s0.6-0.4,1-0.5
		c0.3-0.1,0.7-0.2,1.1-0.2c0.5,0,1,0.1,1.5,0.5c0.6,0.4,1.1,0.9,1.4,1.5c0.4,0.6,0.6,1.2,0.7,1.9c0.1,0.7,0.2,1.4,0.1,2.1
		c-0.1,0.7-0.2,1.4-0.4,2c-0.1,0.3-0.2,0.6-0.4,0.9c-0.2,0.3-0.3,0.6-0.5,0.9c-0.2,0.3-0.4,0.5-0.6,0.8c-0.2,0.2-0.5,0.4-0.8,0.5
		c-0.2,0.1-0.3,0.1-0.5,0.1c-0.2,0-0.3,0-0.5,0c-0.5,0-0.9-0.1-1.4-0.2C196,30.7,195.6,30.5,195.3,30.3z M197.2,21.4
		c-0.4,0.1-0.7,0.2-0.8,0.5s-0.4,0.5-0.5,0.8c-0.1,0.4-0.3,0.8-0.4,1.2c-0.1,0.4-0.2,0.9-0.2,1.3c0,0.4-0.1,0.9,0,1.3
		c0,0.4,0.1,0.9,0.2,1.3c0.1,0.5,0.4,0.9,0.7,1.2c0.3,0.3,0.7,0.5,1.3,0.6c0.2,0.1,0.4,0.1,0.5,0.1c0.2,0,0.5,0,0.7-0.1
		c0.2-0.1,0.3-0.2,0.5-0.4c0.1-0.2,0.3-0.3,0.4-0.6c0.1-0.2,0.2-0.4,0.3-0.7c0.2-0.5,0.3-0.9,0.4-1.4s0.1-1,0.1-1.4
		s-0.1-0.9-0.3-1.4c-0.2-0.5-0.4-0.9-0.7-1.3c-0.1-0.2-0.3-0.3-0.4-0.5c-0.1-0.1-0.3-0.3-0.4-0.3c-0.2-0.1-0.3-0.2-0.5-0.2
		C197.6,21.3,197.4,21.3,197.2,21.4z"/>
	<path d="M202.2,20.5c0-0.1,0-0.2,0-0.3s0.1-0.2,0.2-0.2c0.1-0.1,0.2-0.1,0.3-0.2c0.1,0,0.2-0.1,0.3-0.1s0.2,0,0.3,0.1
		c0.1,0.1,0.2,0.1,0.2,0.2c0.3,1.3,0.6,2.6,1,3.8c0.4,1.3,0.7,2.5,1.1,3.8c0.3-1.2,0.6-2.4,0.9-3.6c0.3-1.2,0.6-2.4,1-3.6
		c0-0.2,0.2-0.3,0.4-0.4c0.2-0.1,0.4-0.1,0.6-0.1c0.2,0,0.3,0,0.4,0.1c0.1,0.1,0.1,0.2,0.1,0.5c-0.4,1.7-0.9,3.3-1.3,4.9
		c-0.4,1.6-0.9,3.3-1.3,5c0,0.2-0.2,0.3-0.4,0.4s-0.4,0.2-0.6,0.2c-0.1,0-0.2,0-0.3-0.1c-0.1-0.1-0.2-0.1-0.2-0.3
		c-0.5-1.7-1.1-3.4-1.5-5C203,24,202.6,22.2,202.2,20.5z"/>
	<path d="M215.8,29.3c0.3,0,0.5,0,0.6,0.1s0.2,0.2,0.2,0.4c0,0.2-0.1,0.3-0.2,0.5s-0.3,0.3-0.5,0.3c-0.5,0.1-1.1,0.2-1.7,0.3
		c-0.6,0.1-1.2,0.2-1.8,0.2c-0.3,0-0.6,0-0.9-0.1s-0.4-0.1-0.6-0.2s-0.3-0.3-0.4-0.5c-0.1-0.2-0.2-0.5-0.3-0.9
		c-0.2-0.7-0.3-1.4-0.3-2.1c-0.1-0.7-0.1-1.5,0-2.2c0-0.7,0.1-1.5,0.1-2.2c0.1-0.7,0.1-1.4,0.1-2.1c0-0.1,0-0.2,0.1-0.3
		c0.1-0.1,0.1-0.2,0.2-0.2c0.1-0.1,0.2-0.1,0.3-0.1c0.1,0,0.2-0.1,0.3-0.1c0,0,0.1,0,0.1,0c0,0,0.1,0,0.1,0c0.5,0,0.9,0,1.4,0
		c0.5,0,0.9,0,1.4,0c0.3,0,0.6,0,0.9,0c0.3,0,0.6,0,0.9,0c0.2,0,0.4,0.1,0.5,0.2s0.1,0.3,0,0.4c-0.1,0.1-0.2,0.3-0.3,0.4
		c-0.1,0.1-0.3,0.2-0.5,0.2c-0.7,0.1-1.3,0.1-2,0c-0.7,0-1.3,0-2-0.1c0,0.8-0.1,1.5-0.1,2.2c0,0.7,0,1.5,0,2.2
		c0.7-0.1,1.4-0.2,2.2-0.2c0.7-0.1,1.5-0.1,2.2-0.1c0.2,0,0.4,0.1,0.5,0.2c0.1,0.1,0.1,0.3,0,0.4c-0.1,0.1-0.2,0.3-0.3,0.4
		c-0.1,0.1-0.3,0.2-0.5,0.2c-0.7,0.1-1.4,0.1-2,0.1c-0.7,0-1.3,0.1-2,0.2v0.2c0,0.2,0,0.4,0,0.7s0,0.5,0.1,0.8s0.1,0.5,0.2,0.7
		s0.3,0.4,0.5,0.5c0.1,0,0.2,0.1,0.4,0.1c0.2,0,0.5,0,0.7-0.1c0.3,0,0.5-0.1,0.6-0.1c0.3,0,0.6-0.1,0.9-0.1
		C215.1,29.4,215.5,29.4,215.8,29.3z"/>
	<path d="M217.7,27.7v-0.1c0-1.1,0-2.2,0-3.3c0-1.1,0-2.2,0-3.3c0-0.1,0-0.2,0.1-0.3c0.1-0.1,0.2-0.2,0.3-0.2
		c0.1-0.1,0.2-0.1,0.4-0.1c0.1,0,0.3,0,0.4,0c0.4-0.1,0.7-0.2,1.1-0.3c0.4-0.1,0.8-0.1,1.2-0.1c0.3,0,0.5,0,0.8,0.1
		c0.2,0.1,0.5,0.1,0.7,0.3c0.3,0.1,0.5,0.3,0.7,0.6c0.2,0.2,0.3,0.5,0.4,0.7c0.1,0.3,0.2,0.5,0.2,0.8c0,0.3,0,0.6,0,0.9
		c-0.1,0.4-0.2,0.8-0.3,1.2s-0.4,0.7-0.6,1.1s-0.5,0.6-0.8,0.9c-0.3,0.3-0.6,0.5-1,0.7c0.5,0.3,1,0.7,1.4,1.1c0.4,0.5,0.8,1,1.2,1.5
		c0.1,0.1,0.1,0.3,0.1,0.4c0,0.1-0.1,0.2-0.2,0.4c-0.1,0.1-0.2,0.2-0.3,0.3c-0.1,0.1-0.3,0.1-0.4,0.1c-0.2,0-0.4-0.1-0.5-0.2
		c-0.2-0.3-0.4-0.6-0.7-0.9c-0.2-0.3-0.5-0.6-0.8-0.9c-0.3-0.3-0.6-0.5-0.9-0.7c-0.3-0.2-0.7-0.3-1-0.3c0,0.4,0,0.8,0,1.2
		c0,0.4,0,0.8,0,1.2c0,0.1,0,0.2-0.1,0.3s-0.1,0.2-0.2,0.2c-0.1,0.1-0.2,0.1-0.3,0.2s-0.2,0.1-0.3,0.1c-0.1,0-0.3,0-0.4-0.1
		c-0.1-0.1-0.2-0.2-0.2-0.4c0-0.5,0-1-0.1-1.5C217.7,28.6,217.7,28.1,217.7,27.7z M222.1,21.5c-0.2-0.2-0.4-0.4-0.6-0.4
		c-0.2-0.1-0.5-0.1-0.7-0.1c-0.3,0-0.6,0-0.9,0.1c-0.3,0.1-0.6,0.2-0.8,0.2c0,0.9,0,1.8,0,2.6s0,1.7,0,2.6c0,0,0.1,0,0.2,0
		c0.7-0.2,1.3-0.5,1.8-1s0.9-1.1,1.1-1.8c0.1-0.2,0.1-0.4,0.1-0.6c0-0.2,0-0.4,0-0.6c0-0.2-0.1-0.4-0.1-0.6
		C222.3,21.8,222.2,21.7,222.1,21.5z"/>
	<path d="M229.4,19.9c0.9,0,1.7,0,2.6,0c0.9,0,1.7,0,2.6,0c0.3,0,0.4,0.1,0.5,0.2c0.1,0.1,0.1,0.3,0,0.4c-0.1,0.1-0.2,0.3-0.3,0.4
		s-0.3,0.2-0.5,0.2c-0.3,0-0.6,0-0.9,0s-0.6,0-0.9,0c0,1.5,0,3,0.1,4.5c0,1.5,0,3-0.1,4.5c0,0.1,0,0.2-0.1,0.3
		c-0.1,0.1-0.1,0.2-0.2,0.2c-0.1,0.1-0.2,0.1-0.3,0.2c-0.1,0-0.2,0.1-0.3,0.1c-0.1,0-0.3,0-0.4-0.1c-0.1-0.1-0.1-0.2-0.2-0.4
		c-0.1-1.6-0.1-3.1-0.1-4.7c0-1.6,0.1-3.1,0.1-4.7c-0.3,0-0.7,0-1,0c-0.3,0-0.7,0-1,0c-0.2,0-0.4-0.1-0.5-0.2s-0.1-0.3,0-0.4
		c0.1-0.2,0.2-0.3,0.3-0.4C229,20,229.2,19.9,229.4,19.9z"/>
	<path d="M242.7,20.4c0,0.8-0.1,1.6-0.1,2.5c0,0.8,0,1.6,0.1,2.5c0,0.8,0,1.7,0.1,2.5c0,0.8,0,1.6-0.1,2.5c0,0.1,0,0.2-0.1,0.3
		c-0.1,0.1-0.1,0.2-0.2,0.2c-0.1,0.1-0.2,0.1-0.3,0.2c-0.1,0-0.2,0.1-0.3,0.1c-0.1,0-0.3,0-0.4-0.1c-0.1-0.1-0.1-0.2-0.1-0.4
		c0-0.6,0-1.2,0-1.8s0-1.2,0-1.8c-0.6,0-1.2,0.1-1.8,0.1c-0.6,0-1.2,0-1.8,0c0,0.5,0,1.1,0,1.6c0,0.5,0,1.1,0,1.6
		c0,0.1,0,0.2-0.1,0.3c-0.1,0.1-0.1,0.2-0.2,0.2c-0.1,0.1-0.2,0.1-0.3,0.2c-0.1,0-0.2,0.1-0.3,0.1c-0.1,0-0.3,0-0.4-0.1
		s-0.1-0.2-0.1-0.4c0-1.6-0.1-3.3-0.1-4.9c0-1.6,0-3.3,0-5c0-0.1,0-0.2,0.1-0.3c0.1-0.1,0.1-0.2,0.2-0.2c0.1-0.1,0.2-0.1,0.3-0.2
		c0.1,0,0.2-0.1,0.3-0.1c0.1,0,0.3,0,0.4,0.1c0.1,0.1,0.2,0.2,0.2,0.4l0,5.4c0.6,0,1.2,0,1.8,0c0.6,0,1.2,0,1.8-0.1
		c0-0.8,0-1.7,0-2.5c0-0.8,0-1.7,0.1-2.5c0-0.1,0-0.2,0.1-0.3c0.1-0.1,0.1-0.2,0.2-0.2c0.1-0.1,0.2-0.1,0.3-0.2
		c0.1,0,0.2-0.1,0.3-0.1c0.1,0,0.3,0,0.4,0.1S242.7,20.2,242.7,20.4z"/>
	<path d="M250.1,29.3c0.3,0,0.5,0,0.6,0.1s0.2,0.2,0.2,0.4c0,0.2-0.1,0.3-0.2,0.5s-0.3,0.3-0.5,0.3c-0.5,0.1-1.1,0.2-1.7,0.3
		c-0.6,0.1-1.2,0.2-1.8,0.2c-0.3,0-0.6,0-0.9-0.1s-0.4-0.1-0.6-0.2s-0.3-0.3-0.4-0.5c-0.1-0.2-0.2-0.5-0.3-0.9
		c-0.2-0.7-0.3-1.4-0.3-2.1c-0.1-0.7-0.1-1.5,0-2.2c0-0.7,0.1-1.5,0.1-2.2c0.1-0.7,0.1-1.4,0.1-2.1c0-0.1,0-0.2,0.1-0.3
		c0.1-0.1,0.1-0.2,0.2-0.2c0.1-0.1,0.2-0.1,0.3-0.1c0.1,0,0.2-0.1,0.3-0.1c0,0,0.1,0,0.1,0c0,0,0.1,0,0.1,0c0.5,0,0.9,0,1.4,0
		c0.5,0,0.9,0,1.4,0c0.3,0,0.6,0,0.9,0c0.3,0,0.6,0,0.9,0c0.2,0,0.4,0.1,0.5,0.2s0.1,0.3,0,0.4c-0.1,0.1-0.2,0.3-0.3,0.4
		c-0.1,0.1-0.3,0.2-0.5,0.2c-0.7,0.1-1.3,0.1-2,0c-0.7,0-1.3,0-2-0.1c0,0.8-0.1,1.5-0.1,2.2c0,0.7,0,1.5,0,2.2
		c0.7-0.1,1.4-0.2,2.2-0.2c0.7-0.1,1.5-0.1,2.2-0.1c0.2,0,0.4,0.1,0.5,0.2c0.1,0.1,0.1,0.3,0,0.4c-0.1,0.1-0.2,0.3-0.3,0.4
		c-0.1,0.1-0.3,0.2-0.5,0.2c-0.7,0.1-1.4,0.1-2,0.1c-0.7,0-1.3,0.1-2,0.2v0.2c0,0.2,0,0.4,0,0.7s0,0.5,0.1,0.8s0.1,0.5,0.2,0.7
		s0.3,0.4,0.5,0.5c0.1,0,0.2,0.1,0.4,0.1c0.2,0,0.5,0,0.7-0.1c0.3,0,0.5-0.1,0.6-0.1c0.3,0,0.6-0.1,0.9-0.1
		C249.5,29.4,249.8,29.4,250.1,29.3z"/>
	<path d="M261.3,29.5c0.2,0,0.4,0.1,0.5,0.2c0.1,0.1,0.1,0.3,0,0.4c-0.1,0.2-0.1,0.3-0.3,0.4c-0.1,0.1-0.3,0.2-0.5,0.2
		c-0.6,0-1.2,0-1.7,0s-1.1,0.1-1.7,0.2c-0.1,0-0.3,0-0.5-0.1c-0.2-0.1-0.3-0.2-0.3-0.4c0-1.7-0.1-3.3-0.1-5c0-1.6,0-3.3,0.1-5
		c0-0.1,0-0.2,0.1-0.3c0.1-0.1,0.1-0.2,0.2-0.2c0.1-0.1,0.2-0.1,0.3-0.2c0.1,0,0.2-0.1,0.3-0.1c0.1,0,0.3,0,0.4,0.1s0.1,0.2,0.1,0.4
		c-0.1,1.6-0.1,3.1-0.1,4.7c0,1.5,0,3.1,0.1,4.7c0.5-0.1,1-0.1,1.5-0.2S260.7,29.5,261.3,29.5z"/>
	<path d="M266.5,20.2c0.4,0,0.8,0.1,1.1,0.3c0.3,0.2,0.6,0.5,0.8,0.9c0.2,0.4,0.4,0.7,0.5,1.1s0.2,0.8,0.3,1.1
		c0.1,0.5,0.1,1.1,0.2,1.6c0,0.6,0,1.1,0,1.7c0,0.6,0,1.1-0.1,1.7s-0.1,1.1-0.1,1.6c0,0.1,0,0.2-0.1,0.3c-0.1,0.1-0.1,0.2-0.2,0.2
		c-0.1,0.1-0.2,0.1-0.3,0.1c-0.1,0-0.2,0.1-0.3,0.1c-0.1,0-0.3,0-0.4-0.1c-0.1-0.1-0.1-0.2-0.1-0.4c0-0.4,0.1-0.8,0.1-1.2
		c0-0.4,0-0.8,0-1.2c-1.2,0-2.4,0.1-3.6,0.3c0,0.3,0,0.6,0.1,0.9c0,0.3,0,0.6,0.1,0.9c0,0.1,0,0.2-0.1,0.3c0,0.1-0.1,0.2-0.2,0.2
		c-0.1,0.1-0.2,0.1-0.3,0.1c-0.1,0-0.2,0.1-0.3,0.1c-0.1,0-0.3,0-0.4-0.1c-0.1-0.1-0.2-0.2-0.2-0.3c0-0.6-0.1-1.1-0.1-1.7
		c0-0.6-0.1-1.1-0.1-1.7c0-0.6,0-1.1,0.1-1.7c0.1-0.6,0.2-1.1,0.4-1.7c0.1-0.4,0.3-0.7,0.5-1.1s0.4-0.7,0.7-1.1
		c0.3-0.3,0.6-0.6,0.9-0.8C265.6,20.4,266,20.3,266.5,20.2z M264.1,27.3c1.2-0.2,2.5-0.3,3.7-0.3v-1.2c0-0.3,0-0.6,0-1
		c0-0.4-0.1-0.7-0.1-1.1c-0.1-0.4-0.2-0.7-0.3-1c-0.1-0.3-0.3-0.6-0.6-0.8c-0.1-0.1-0.2-0.2-0.3-0.2c-0.1,0-0.2-0.1-0.3-0.1
		c-0.2,0-0.4,0.1-0.5,0.2c-0.2,0.2-0.3,0.4-0.5,0.6c-0.1,0.2-0.3,0.5-0.4,0.8c-0.1,0.3-0.2,0.6-0.3,0.9c-0.1,0.3-0.1,0.6-0.2,0.8
		s-0.1,0.4-0.1,0.6C264.1,26.1,264.1,26.7,264.1,27.3z"/>
	<path d="M276,20.2c0.1,0,0.2,0,0.3,0.1c0.1,0,0.2,0.1,0.2,0.2c0,0.1,0.1,0.2,0.1,0.3c0,0.1,0,0.2-0.1,0.3c-0.7,1.5-1.4,2.9-2,4.4
		c-0.7,1.5-1.4,2.9-2,4.4c0.5,0,1.1-0.1,1.6-0.1c0.5-0.1,1.1-0.1,1.6-0.1c0.3,0,0.4,0,0.5,0.2c0.1,0.1,0.1,0.3,0,0.4
		c0,0.2-0.2,0.3-0.3,0.4s-0.3,0.2-0.5,0.2c-0.7,0-1.4,0.1-2.1,0.2c-0.7,0.1-1.4,0.1-2.1,0.2c-0.2,0-0.4-0.1-0.5-0.2
		c-0.1-0.2-0.1-0.4,0-0.6c0.7-1.5,1.4-2.9,2.1-4.4c0.7-1.5,1.4-2.9,2.1-4.4c-1.1,0-2.2,0-3.3-0.1c-0.2,0-0.4-0.1-0.5-0.2
		c-0.1-0.1-0.1-0.3,0-0.4c0-0.1,0.1-0.3,0.3-0.4c0.2-0.1,0.3-0.2,0.5-0.1c0.8,0.1,1.6,0.1,2.4,0.1c0.3,0,0.6,0,0.9,0
		C275.4,20.2,275.7,20.2,276,20.2z"/>
	<path d="M283.1,20.3c0.1-0.1,0.2-0.2,0.3-0.3c0.2-0.1,0.3-0.1,0.5-0.1c0.2,0,0.4,0.1,0.5,0.2c0.1,0.1,0.1,0.3,0,0.5
		c-0.6,1-1.1,2-1.6,3c-0.5,1-0.9,2.1-1.3,3.2c0,0,0,0.1,0,0.1c0,0,0,0,0,0.1c0,0,0,0,0,0c0,0,0,0,0,0c0,0.5,0,1.1,0,1.6s0,1.1,0,1.6
		c0,0.1,0,0.2-0.1,0.3c-0.1,0.1-0.1,0.2-0.2,0.3c-0.1,0.1-0.2,0.1-0.3,0.2c-0.1,0-0.2,0.1-0.3,0.1s-0.2,0-0.3-0.1
		c-0.1-0.1-0.2-0.1-0.2-0.3c-0.1-0.3-0.1-0.6-0.1-0.9c0-0.3,0-0.6,0-0.9c0-0.3,0-0.6,0-0.9c0-0.3,0-0.6,0-0.9c-0.5-1-0.9-2-1.3-3
		s-0.8-2-1.3-3.1c0-0.1-0.1-0.2,0-0.3c0-0.1,0.1-0.2,0.2-0.3c0.1-0.1,0.2-0.1,0.3-0.2c0.1,0,0.2-0.1,0.4-0.1c0.1,0,0.2,0,0.3,0.1
		c0.1,0.1,0.2,0.1,0.2,0.2c0.3,0.8,0.7,1.6,1,2.3c0.3,0.8,0.7,1.5,1,2.3c0.3-0.8,0.7-1.6,1-2.4C282.3,21.8,282.7,21.1,283.1,20.3z"
		/>
	<path d="M290.9,20c0.5,0.1,0.9,0.2,1.4,0.4c0.5,0.2,0.9,0.4,1.4,0.7c0.4,0.3,0.9,0.6,1.2,1c0.4,0.4,0.7,0.8,1,1.2
		c0.3,0.4,0.5,0.9,0.6,1.4c0.1,0.5,0.2,1,0.1,1.5c-0.1,0.8-0.3,1.5-0.7,2c-0.4,0.6-0.9,1.1-1.4,1.5c-0.6,0.4-1.2,0.7-1.9,0.9
		c-0.7,0.2-1.4,0.3-2.1,0.4c-0.2,0-0.3,0-0.4,0c-0.1,0-0.2-0.1-0.3-0.1c-0.1-0.1-0.1-0.1-0.1-0.2c0,0,0,0,0-0.1
		c-0.3-1.6-0.4-3.2-0.4-4.9c0-1.7,0.2-3.3,0.4-4.9c0-0.1,0.1-0.3,0.1-0.4s0.1-0.2,0.3-0.2c0.1-0.1,0.2-0.1,0.4-0.1
		C290.7,20,290.8,20,290.9,20z M291.1,29.7c0.6-0.1,1.1-0.2,1.6-0.4s1-0.5,1.4-0.9c0.4-0.4,0.7-0.8,0.9-1.3c0.2-0.5,0.2-1.1,0.1-1.7
		c-0.1-0.5-0.2-0.9-0.5-1.3s-0.6-0.8-1-1.1s-0.8-0.6-1.2-0.9c-0.4-0.3-0.9-0.5-1.3-0.6c-0.1,1.4-0.2,2.8-0.2,4.1
		S291,28.3,291.1,29.7z"/>
	<path d="M299.4,30.3c-0.4-0.3-0.7-0.6-1-1c-0.2-0.4-0.4-0.8-0.5-1.2c-0.1-0.5-0.2-0.9-0.2-1.4c0-0.5,0-1,0.1-1.5
		c0.1-0.5,0.2-1,0.3-1.4s0.3-0.9,0.4-1.2c0,0,0,0,0,0c0.1-0.4,0.3-0.7,0.5-1c0.2-0.3,0.5-0.6,0.8-0.8s0.6-0.4,1-0.5
		c0.3-0.1,0.7-0.2,1.1-0.2c0.5,0,1,0.1,1.5,0.5c0.6,0.4,1.1,0.9,1.4,1.5c0.4,0.6,0.6,1.2,0.7,1.9c0.1,0.7,0.2,1.4,0.1,2.1
		c-0.1,0.7-0.2,1.4-0.4,2c-0.1,0.3-0.2,0.6-0.4,0.9c-0.2,0.3-0.3,0.6-0.5,0.9c-0.2,0.3-0.4,0.5-0.6,0.8c-0.2,0.2-0.5,0.4-0.8,0.5
		c-0.2,0.1-0.3,0.1-0.5,0.1c-0.2,0-0.3,0-0.5,0c-0.5,0-0.9-0.1-1.4-0.2C300.1,30.7,299.7,30.5,299.4,30.3z M301.2,21.4
		c-0.4,0.1-0.7,0.2-0.8,0.5s-0.4,0.5-0.5,0.8c-0.1,0.4-0.3,0.8-0.4,1.2c-0.1,0.4-0.2,0.9-0.2,1.3c0,0.4-0.1,0.9,0,1.3
		c0,0.4,0.1,0.9,0.2,1.3c0.1,0.5,0.4,0.9,0.7,1.2c0.3,0.3,0.7,0.5,1.3,0.6c0.2,0.1,0.4,0.1,0.5,0.1c0.2,0,0.5,0,0.7-0.1
		c0.2-0.1,0.3-0.2,0.5-0.4c0.1-0.2,0.3-0.3,0.4-0.6c0.1-0.2,0.2-0.4,0.3-0.7c0.2-0.5,0.3-0.9,0.4-1.4s0.1-1,0.1-1.4
		s-0.1-0.9-0.3-1.4c-0.2-0.5-0.4-0.9-0.7-1.3c-0.1-0.2-0.3-0.3-0.4-0.5c-0.1-0.1-0.3-0.3-0.4-0.3c-0.2-0.1-0.3-0.2-0.5-0.2
		C301.7,21.3,301.5,21.3,301.2,21.4z"/>
	<path d="M313,25.1c0.2,0,0.4,0,0.6,0c0.2,0,0.3,0.1,0.5,0.3c0.2,0.2,0.2,0.5,0.3,0.8c0,0.3,0,0.6-0.1,0.9c-0.1,0.3-0.1,0.6-0.3,0.9
		s-0.2,0.5-0.3,0.7c-0.2,0.3-0.4,0.6-0.6,0.8s-0.5,0.5-0.8,0.7c-0.3,0.2-0.6,0.3-1,0.5s-0.7,0.2-1,0.2c-0.4,0-0.7-0.1-1.1-0.2
		c-0.3-0.1-0.7-0.4-1-0.8c-0.4-0.5-0.7-1.1-0.9-1.8c-0.2-0.7-0.3-1.4-0.2-2.1c0-0.7,0.1-1.5,0.3-2.2c0.2-0.7,0.4-1.3,0.7-1.9
		c0.2-0.3,0.3-0.5,0.6-0.8c0.2-0.2,0.5-0.4,0.8-0.6c0.3-0.2,0.6-0.3,0.9-0.4c0.3-0.1,0.6-0.1,0.9-0.1c0.4,0,0.8,0.1,1.2,0.4
		c0.3,0.3,0.6,0.7,0.7,1.3c0.1,0.2,0,0.4-0.2,0.5c-0.2,0.1-0.4,0.2-0.6,0.2c-0.2,0-0.3,0-0.4-0.1s-0.2-0.2-0.2-0.4
		c-0.2-0.5-0.4-0.8-0.8-0.8c-0.3,0-0.6,0.2-1,0.5c-0.3,0.4-0.5,0.8-0.6,1.2s-0.3,0.9-0.4,1.4c-0.1,0.6-0.2,1.2-0.2,1.7
		c0,0.6,0.1,1.2,0.3,1.7c0.1,0.2,0.2,0.5,0.3,0.7c0.1,0.2,0.2,0.4,0.4,0.6c0.1,0.2,0.3,0.3,0.5,0.4s0.4,0.1,0.6,0.1
		c0.2,0,0.3,0,0.5-0.1s0.3-0.2,0.5-0.3s0.4-0.3,0.5-0.5c0.2-0.2,0.3-0.5,0.4-0.7c0.1-0.3,0.2-0.5,0.2-0.8c0-0.3,0-0.5,0-0.8
		c-0.4,0-0.8,0.1-1.2,0.2s-0.8,0.2-1.2,0.3c-0.2,0.1-0.4,0-0.6-0.1c-0.1-0.1-0.2-0.2-0.2-0.4c0-0.2,0.1-0.3,0.2-0.5
		c0.1-0.2,0.3-0.3,0.5-0.3c0.5-0.1,0.9-0.2,1.4-0.3C312.1,25.2,312.6,25.1,313,25.1z"/>
</g>
</svg>
