<?xml version="1.0" encoding="utf-8"?>
<!-- Generator: Adobe Illustrator 26.1.0, SVG Export Plug-In . SVG Version: 6.00 Build 0)  -->
<svg version="1.1" id="Layer_1" xmlns="http://www.w3.org/2000/svg" xmlns:xlink="http://www.w3.org/1999/xlink" x="0px" y="0px"
	 viewBox="0 0 372 36.9" style="enable-background:new 0 0 372 36.9;" xml:space="preserve">
<rect width="372" height="36.9" fill="white"/>
<g>
	<path d="M12,4.3c0.1,0.1,0.3,0.3,0.3,0.5c0,0,0,0.1-0.1,0.1c-0.2,0.3-0.6,0.3-0.8,0.3c-0.6,0-1.3,0-1.5,0c0,0.2-0.1,0.4-0.1,0.6
		c0,0-0.2,1.2-0.5,2.5c-1.2,5.3-1.4,6.5-1.8,8.2c-0.1,0.2-0.2,0.3-0.4,0.3c-0.1,0-0.3,0-0.4-0.1c-0.2-0.1-0.6-0.4-0.6-0.8
		c0.1-0.6,0.3-1.2,0.4-1.8c0.1-0.2,0.9-4.1,1.2-5.4C8.2,6,8.3,5.3,8.4,5.2c-1,0-1.5,0-1.9-0.5C6.4,4.7,6.3,4.5,6.3,4.4
		c0,0,0,0,0-0.1C6.5,4.1,6.8,4.1,7,4C7.3,4,8,4,9,4c0.6,0,1.5,0,1.6,0C11.1,4,11.6,4,12,4.3z"/>
	<path d="M18.2,12c-0.1,0.8-0.3,1.4-0.4,1.9c-0.3,1.2-0.4,1.7-0.6,2.3c-0.1,0.4-0.2,0.4-0.4,0.6c-0.2,0.1-0.5,0-0.6,0
		c-0.2-0.1-0.4-0.2-0.5-0.4c-0.2-0.4-0.1-1,0-1.5c0.1-0.4,0.2-0.9,0.3-1.4c0.1-0.3,0.1-0.7,0.2-1.1c-0.6,0-1.3,0-1.9,0
		c-0.3,0-0.8-0.1-0.9-0.1c-0.1,0.7-0.3,1.4-0.4,2l-0.2,1.2c-0.1,0.4-0.2,0.8-0.3,1.2c0,0.2-0.2,0.3-0.4,0.3c-0.2,0-0.3-0.1-0.5-0.1
		c-0.3-0.1-0.7-0.5-0.6-0.8c0.1-0.9,0.4-1.8,0.6-2.6c0.5-2.4,1.2-5.9,1.5-7c0.1-0.4,0.2-0.8,0.3-1.2c0-0.2,0.1-0.4,0.1-0.6
		c0.1-0.2,0.1-0.4,0.3-0.5c0.2-0.2,0.5-0.1,0.6-0.1c0.3,0.1,0.5,0.3,0.6,0.5c0.1,0.4,0,1-0.1,1.5c-0.3,1.3-0.6,2.9-1.1,5
		c0.6,0,2.3,0,2.8,0c0.6-2.9,0.7-3.2,1.1-4.8c0.3-1.2,0.4-1.5,0.5-1.8c0-0.1,0.1-0.2,0.1-0.3C18.3,4,18.4,4,18.5,3.9
		c0,0,0.1,0,0.1,0c0.1,0,0.2,0,0.3,0.1c0.1,0.1,0.3,0.2,0.4,0.3c0.1,0.1,0.2,0.3,0.2,0.4c0,0.1,0,0.3,0,0.4
		C19.5,5.5,19.2,6.8,18.2,12z"/>
	<path d="M23.3,16c0.2,0.1,0.5,0.5,0.2,0.7c-0.2,0.2-0.4,0.2-0.7,0.2c-0.1,0-0.3,0-0.4,0c-1.3,0-2.1,0-2.6-0.1c-0.2,0-0.4,0-0.5-0.1
		c-0.2-0.1-0.4-0.2-0.6-0.4c-0.2-0.4,0-1,0.1-1.4c1.8-8.2,1.8-8.7,2.2-9.6c0-0.1,0.1-0.3,0.2-0.6c-0.1-0.1-0.3-0.2-0.3-0.3
		c0,0,0-0.1,0.1-0.1c0.3-0.2,0.7-0.2,1-0.2c0.3,0,1.6-0.1,2.6-0.1c0.2,0,0.4,0,0.6,0c0.4,0,0.8,0.3,0.9,0.6c0,0.1,0,0.2,0,0.2
		c0,0.2-0.2,0.3-0.5,0.3c-0.2,0-2.1,0-3.2-0.1c0,0.7-0.1,1.3-0.2,1.7c-0.2,0.9-0.4,1.9-0.6,2.8c0.8,0,1.6,0,1.7,0
		c0.4,0,0.7,0.1,1,0.3c0.1,0.1,0.3,0.3,0.3,0.5c0,0.1,0,0.3-0.2,0.4c-0.4,0.2-0.8,0.1-1.2,0.1c-0.8,0-1.4,0-2-0.1
		c-0.1,0.3-0.1,0.6-0.2,0.9c-0.5,2.3-0.8,3.8-0.8,4c0.3,0,1.3,0,1.9,0C22.7,15.7,23,15.8,23.3,16z"/>
	<path d="M37.1,16.4c0,0.2,0,0.4-0.2,0.5c-0.1,0-0.2,0.1-0.3,0.1c-0.2,0-0.4-0.1-0.6-0.2c-0.3-0.1-0.4-0.3-0.6-0.6
		c-0.2,0.2-0.4,0.3-0.7,0.4C34,17,33.2,17,32.5,16.9c-1.2-0.2-2.1-1-2.4-2c-0.4-1-0.4-2.4-0.3-3.6c0.1-0.5,0.1-0.9,0.2-1.4
		c0.2-0.8,0.4-1.5,0.7-2.2c0.5-1.1,1.2-2.2,2.2-2.9c0.9-0.6,1.9-0.9,2.8-0.8c0.1,0,0.2,0,0.3,0c0.1,0,0.3,0,0.7,0.1
		C37.4,4.2,38,4.4,38.4,5c0.3,0.5,0.4,1,0.5,1.6c0.2,1.1,0,2.3-0.2,3.5c0,0.1,0,0.2-0.1,0.3c-0.2,1-0.5,2-1,3
		c-0.3,0.6-0.6,1.2-1,1.8C37,16,37.1,16.1,37.1,16.4z M34.8,15c-0.8-1.8-1-2.6-1.3-3.1c-0.1-0.3-0.3-0.5-0.1-0.8
		c0.2-0.3,0.7-0.2,0.9-0.1c0.3,0.1,0.6,0.4,0.8,0.7c0.2,0.4,0.2,0.7,0.6,1.6c0.1-0.3,0.2-0.5,0.3-0.8c0.4-1.1,0.7-2.2,0.8-3.3
		c0.1-1,0.1-2-0.1-2.9c-0.1-0.5-0.2-0.7-0.4-0.9C36.4,5.1,36.3,5,36,4.9c-0.2,0-0.6-0.1-1.4,0.3c-0.1,0-0.4,0.2-0.7,0.5
		c-0.9,0.9-1.4,1.9-1.7,3c-0.3,1.1-0.5,2.3-0.6,3.4c0,0.5,0,1,0.1,1.5c0.1,0.7,0.2,0.9,0.3,1.1c0.1,0.2,0.3,0.5,0.5,0.7
		c0.3,0.3,0.5,0.3,0.6,0.4c0.1,0,0.3,0.1,0.8-0.2C34.4,15.5,34.6,15.3,34.8,15z"/>
	<path d="M46.1,12.2c-0.2,0.6-0.4,1.3-0.8,2c-0.3,0.5-0.5,1.1-0.9,1.6c-0.5,0.6-1.2,1-1.8,1.2c-0.2,0-0.4,0.1-0.6,0.1
		c-0.7,0-1.4-0.2-1.8-0.7c-0.4-0.4-0.7-1-0.8-1.7c-0.1-0.8-0.1-1.6,0-2.6c0.1-1,0.5-2.6,0.8-4c0.3-1.4,0.6-2.7,0.7-2.9
		c0.1-0.2,0.2-0.5,0.3-0.8c0.1-0.2,0.4-0.3,0.6-0.3c0.2,0,0.3,0,0.4,0.1c0.1,0.1,0.3,0.1,0.3,0.6c-0.1,1.2-0.4,1.9-1,5.1
		c-0.2,0.8-0.3,1.7-0.5,2.6c-0.1,1.1-0.1,1.7,0.1,2.5c0.1,0.3,0.2,0.6,0.3,0.8c0.2,0.3,0.5,0.5,0.7,0.4c1.1-0.5,1.7-2.2,2-3
		c0.4-1.1,1.3-5.5,1.8-8.1c0-0.1,0.1-0.4,0.3-0.7C46.3,4,46.8,4,47,4c0.5,0,0.6,0.2,0.7,0.3c0,0.1,0.1,0.3,0.1,0.4
		c0,0.4-0.2,1.5-0.5,2.7C46.8,9.1,46.3,11.2,46.1,12.2z"/>
	<path d="M49.4,4c0.1-0.1,0.2-0.1,0.3-0.1c0.1,0,0.2,0,0.3,0.1c0.2,0.1,0.5,0.3,0.6,0.5c0.2,0.4,0,1-0.1,1.5c0,0.3-0.1,0.6-0.2,0.9
		c0,0.1-0.1,0.3-0.1,0.4c-0.3,1.6-0.7,3.1-1,4.7c-0.2,0.8-0.3,1.6-0.5,2.4s-0.3,1.6-0.5,2.4c-0.1,0.2-0.2,0.3-0.4,0.3
		c-0.2,0-0.4-0.1-0.5-0.1c-0.3-0.1-0.7-0.4-0.6-0.8c0.1-0.9,0.4-1.8,0.5-2.7c0.3-1.6,0.7-3.1,1-4.7c0.2-0.8,0.3-1.6,0.5-2.4
		c0.1-0.4,0.2-0.8,0.3-1.2C49,5,49,4.8,49.1,4.6C49.1,4.4,49.2,4.2,49.4,4z"/>
	<path d="M58.1,7.5c-0.1,0.2-0.5,0.1-0.6,0c-0.2-0.1-0.5-0.2-0.4-0.5c0-0.5,0-1.4-0.4-1.8c-0.2-0.2-0.3-0.4-0.9-0.2
		c-0.6,0.3-1.1,0.9-1.4,1.4c-0.4,0.6-0.7,1.3-1,2c-0.3,0.7-0.5,1.5-0.7,2.2c-0.2,0.7-0.4,1.5-0.5,2.2c-0.2,2.2,0.6,2.9,0.7,2.9
		c0.2,0.1,0.7-0.1,1.1-0.4c0.8-0.6,0.9-1.1,1.5-1.5c0.2-0.1,0.5,0,0.7,0.1c0.2,0.1,0.4,0.3,0.4,0.5c0,0.5-0.4,0.9-0.7,1.2
		c-0.3,0.4-0.7,0.7-1.1,0.9c-0.4,0.2-0.8,0.3-1.2,0.3c-0.6,0-1.2-0.2-1.6-0.6c-1.2-1-1.4-2.7-1.2-4.3c0-0.2,0.1-0.5,0.1-0.7
		c0.1-0.6,0.3-1.3,0.5-1.9c0.3-0.8,0.6-1.6,1-2.4c0.3-0.7,0.8-1.5,1.4-2.1C54.3,4.3,55,4,55.7,4C55.8,4,56,4,56.2,4
		c0.8,0.2,1.6,0.8,1.9,1.5c0.1,0.3,0.2,0.6,0.2,1c0,0.2,0,0.3,0,0.5C58.3,7.2,58.2,7.4,58.1,7.5z"/>
	<path d="M63.7,16.5c-0.5-1-1-1.9-1.5-2.9c-0.3-0.7-0.6-1.4-1-2.1c-0.3,0.3-0.7,0.6-1,0.9c0,0,0,0,0,0l-0.9,4
		c-0.2,0.8-1.7,0.3-1.5-0.4l1.8-8.6c0.2-0.9,0.5-1.9,0.6-2.9c0-0.8,1.9-0.7,1.6,0.2c-0.5,1.7-0.8,3.3-1.1,5c0.6-0.6,1.2-1.2,1.7-1.8
		c1.2-1.2,2.3-2.5,3.5-3.7c0.6-0.6,1.9,0.1,1.4,0.7c-1.2,1.3-2.4,2.6-3.6,3.8c-0.5,0.5-1,1.1-1.5,1.7c0.3,0.9,0.9,1.7,1.3,2.5
		c0.5,1,1,2,1.5,3C65.5,16.9,64.1,17.2,63.7,16.5z"/>
	<path d="M75.8,16.2c-1.5,0.8-3,0.8-4.5,0.8c-0.5,0-0.8-0.4-0.8-0.7c0-0.1,0-0.2,0-0.3l1.8-8.5c0.2-0.9,0.6-2,0.6-3
		C72.9,4,73.6,3.9,74,4c2.4-0.5,5,0.5,4.9,3.1c-0.1,1.6-1.2,2.7-2.6,3.5c1.1,0.4,1.8,1.2,1.6,2.5C77.7,14.3,77.1,15.5,75.8,16.2z
		 M76.4,12.3c-0.1-0.4-0.5-0.5-0.9-0.6c-0.7-0.2-1.4-0.2-2.1,0c-0.1,0-0.2,0.1-0.3,0.1c-0.3,1.3-0.6,2.6-0.9,4
		c1.6-0.1,3.4-0.4,4-2.3C76.3,13.1,76.5,12.6,76.4,12.3z M74.4,5.3c-0.4,1.6-0.7,3.3-1,5c1.5-0.4,3.1-1.1,3.8-2.6
		c0.3-0.8,0.2-1.8-0.4-2.2C76.1,5,75.2,5.3,74.4,5.3z"/>
	<path d="M80.2,16.6c-0.2,0.8-1.7,0.3-1.5-0.5l1.8-8.4c0.2-0.9,0.5-1.8,0.6-2.6c-0.3-0.3-0.3-0.7,0.3-0.9c1.3-0.5,3.3-0.3,4.4,0.2
		c1,0.5,1.8,1.5,1.8,2.7c0,2.5-2.6,4.4-4.9,4.9c0.8,1.3,1.7,2.6,2.5,3.9c0.5,0.9-1,1.2-1.3,0.5c-0.8-1.4-1.8-2.7-2.6-4.1
		C80.8,13.8,80.5,15.2,80.2,16.6z M85.8,7.6c0.7-2.2-1.5-2.3-3.2-2.2c-0.5,1.8-0.8,3.6-1.2,5.4c0,0,0,0.1,0,0.1
		C83.2,10.7,85.2,9.5,85.8,7.6z"/>
	<path d="M96.4,10.1c0,0.1,0,0.2-0.1,0.3c-0.4,2.1-1.5,4.3-2.5,5.3c-0.4,0.5-0.9,0.8-1.4,1c-0.5,0.2-1,0.3-1.5,0.3
		c-0.2,0-0.5,0-0.7-0.1c-1.2-0.2-2-1-2.4-2.1c-0.4-1.1-0.4-2.4-0.2-3.6c0-0.4,0.1-0.9,0.2-1.3c0.2-0.8,0.4-1.5,0.7-2.2
		c0.5-1.1,1.2-2.2,2.2-2.9c0.9-0.6,1.9-0.9,2.8-0.8c0.1,0,0.2,0,0.4,0c0,0,0.1,0,0.1,0c1.6,0.1,2,0.9,2.1,1c0.3,0.5,0.4,1,0.5,1.6
		C96.7,7.7,96.6,8.9,96.4,10.1z M93.9,12.3c0.4-1.1,0.6-2.2,0.8-3.2c0.1-1,0.2-2.1-0.1-3c0-0.2-0.2-0.6-0.2-0.7
		c0-0.1-0.1-0.2-0.3-0.3C94,5,93.9,5,93.7,4.9c-0.2,0-0.3,0-0.4,0c-0.1,0-0.2,0-0.4,0.1c-0.2,0.1-0.5,0.2-0.7,0.3
		c-0.3,0.2-0.4,0.3-0.6,0.5c-0.9,0.9-1.4,2-1.7,3c-0.3,1.1-0.5,2.2-0.5,3.3c0,0.7,0,1.9,0.4,2.6c0.2,0.4,0.4,0.6,0.6,0.9
		c0.2,0.1,0.2,0.1,0.3,0.2C91,16,91,16,91,16c0.4,0,1-0.4,1-0.5c0.1-0.1,0.5-0.4,0.9-1.1C93.3,13.8,93.8,12.6,93.9,12.3z"/>
	<path d="M105.2,14.7c-0.3,0.8-0.7,1.9-1,2.1c-1.9,0.7-1.5-1.5-1.6-3c0.1-1.9,0.2-3.7,0.2-5.5c-1,2.7-1.8,5.5-2.9,8.1
		c-0.1,0.5-0.7,0.6-1.1,0.6c-1.1,0-0.8-1.7-0.8-2.7c0.1-3,0.2-6.5,0.2-9.6c0-1,1.1-1,1.1-0.5c0.2,2.1,0.1,6.3,0.3,8.6
		c0.9-2.5,2-6.3,3.3-8.6c0.3-0.4,1.5-0.4,1.5,0.1c0.4,2.1-0.3,6.4-0.2,8.6c1-2.2,2.3-6.3,3.4-8.7c0.2-0.4,1.3-0.4,1.3,0.1
		C109,4.8,106.8,10.5,105.2,14.7z"/>
	<path d="M116.6,6.1c-0.1,0.4-0.2,0.9-0.3,1.3c-0.2,0.8-0.3,1.5-0.5,2.3l-1,4.6c-0.2,0.8-0.3,1.5-0.5,2.3c-0.1,0.3-0.3,0.4-0.6,0.4
		c-0.3,0-0.6-0.1-0.8-0.2c-0.5-0.3-0.7-0.6-0.9-1.1c-0.1-0.4-0.3-0.8-0.4-1.1c-0.5-1.5-0.9-3.1-1.1-4.8c-0.1,0.7-0.3,1.4-1,4.6
		c-0.3,1.4-0.4,1.7-0.4,1.9c0,0.1-0.1,0.2-0.1,0.3c-0.1,0.1-0.2,0.2-0.3,0.3c-0.2,0.2-0.9,0-1-0.5c-0.1-0.1-0.1-0.3-0.1-0.5
		c0-0.2,0-0.3,0.5-2.4c0.3-1.7,1-4.7,1.4-6.7c0.2-1,0.4-1.7,0.4-1.9c0-0.2,0.2-0.7,0.3-0.9c0.1-0.1,0.2-0.1,0.3-0.2c0,0,0.1,0,0.1,0
		c0.4,0,0.7,0.3,0.8,0.6c0.1,0.2,0.1,0.5,0,0.8c0,0,0,0.2,0.1,0.6c0,0.1,0.6,4.3,1.1,6.3c0.1,0.5,0.3,1,0.4,1.5
		c0.2-1.2,0.6-2.6,1-4.9c0.2-0.8,0.3-1.6,0.5-2.3c0.1-0.4,0.2-0.8,0.3-1.1c0.1-0.4,0.1-0.8,0.3-1.2c0.1-0.3,0.8-0.2,0.9-0.1
		c0.3,0.1,0.7,0.3,0.7,0.6C116.9,5.2,116.7,5.6,116.6,6.1z"/>
	<path d="M128.1,4.8C128.1,4.8,128.1,4.9,128.1,4.8c-0.1,0.6-2.7,0.5-4.1,0.5c0,0.4-0.1,1-0.4,2.2c-0.2,0.8-0.3,1.6-0.5,2.4
		c0.1,0,0.4,0,0.9,0c0.6,0,1.3,0,1.6,0.4c0.1,0.1,0.4,0.4,0.2,0.7c-0.2,0.3-0.7,0.2-1,0.2c-1.4,0-1.7-0.1-2-0.1
		c-0.1,0.3-0.1,0.7-0.2,1c-0.6,2.7-0.7,3.8-1.2,4.7c-0.1,0.1-0.2,0.2-0.3,0.2c-0.2,0-0.4-0.1-0.5-0.1c-0.3-0.1-0.3-0.3-0.3-0.6
		c0-0.2,0-0.5,0-0.7c0-0.1,1.1-5.6,1.8-8.5c0.2-0.9,0.3-1.5,0.4-1.7c0.1-0.4,0.2-0.7,0.3-0.8c0-0.1,0-0.3,0.1-0.3
		c0.4-0.2,0.7-0.2,1.1-0.2c0.3,0,1.4,0,2.3,0c0.4,0,0.8,0,0.9,0C127.4,4.1,128,4.4,128.1,4.8z"/>
	<path d="M136.1,10.1c0,0.1,0,0.2-0.1,0.3c-0.4,2.1-1.5,4.3-2.5,5.3c-0.4,0.5-0.9,0.8-1.4,1c-0.5,0.2-1,0.3-1.5,0.3
		c-0.2,0-0.5,0-0.7-0.1c-1.2-0.2-2-1-2.4-2.1c-0.4-1.1-0.4-2.4-0.2-3.6c0-0.4,0.1-0.9,0.2-1.3c0.2-0.8,0.4-1.5,0.7-2.2
		c0.5-1.1,1.2-2.2,2.2-2.9c0.9-0.6,1.9-0.9,2.8-0.8c0.1,0,0.2,0,0.4,0c0,0,0.1,0,0.1,0c1.6,0.1,2,0.9,2.1,1c0.3,0.5,0.4,1,0.5,1.6
		C136.4,7.7,136.3,8.9,136.1,10.1z M133.6,12.3c0.4-1.1,0.6-2.2,0.8-3.2c0.1-1,0.2-2.1-0.1-3c0-0.2-0.2-0.6-0.2-0.7
		c0-0.1-0.1-0.2-0.3-0.3c-0.1-0.1-0.2-0.1-0.4-0.2c-0.2,0-0.3,0-0.4,0c-0.1,0-0.2,0-0.4,0.1c-0.2,0.1-0.5,0.2-0.7,0.3
		c-0.3,0.2-0.4,0.3-0.6,0.5c-0.9,0.9-1.4,2-1.7,3c-0.3,1.1-0.5,2.2-0.5,3.3c0,0.7,0,1.9,0.4,2.6c0.2,0.4,0.4,0.6,0.6,0.9
		c0.2,0.1,0.2,0.1,0.3,0.2c0.2,0.1,0.2,0.1,0.3,0.1c0.4,0,1-0.4,1-0.5c0.1-0.1,0.5-0.4,0.9-1.1C133,13.8,133.5,12.6,133.6,12.3z"/>
	<path d="M143.3,16.4c0,0.1,0,0.1,0,0.1c0,0.1,0,0.1-0.1,0.2c-0.2,0.2-0.6,0.3-0.9,0.3c-0.1,0-0.1,0-0.2,0c-0.3,0-0.5-0.2-0.6-0.3
		c-0.2-1-0.5-2.4-0.7-2.9c-0.4-1.7-0.5-2.2-0.5-2.2c-2.4,3.6-2.8,4.6-3.3,5.1c-0.3,0.3-0.7,0.2-0.8,0.2c-0.1,0-0.6-0.1-0.5-0.4
		c0.1-0.5,1-1.8,1.7-2.9c0.9-1.4,1.7-2.6,2.5-3.8c-0.3-1.2-0.5-2.2-0.9-3.3c-0.5-1.8-0.8-1.9-0.6-2.3c0.1-0.3,0.6-0.2,0.8-0.2
		c0.4,0.2,0.6,0.5,0.9,1.2c0.1,0.2,0.5,0.8,1,2.7c0.6-0.8,1.2-1.7,1.8-2.5c0.3-0.5,0.7-0.9,1.1-1.3c0.1-0.2,0.4-0.2,0.8-0.2
		c0.2,0,0.4,0,0.5,0.1c0.1,0.1,0.1,0.2,0.1,0.4c-0.3,0.4-0.6,0.9-0.9,1.3c-0.7,0.9-2.1,2.8-2.9,4C141.8,9.9,142,10.8,143.3,16.4z"/>
	<path d="M157.6,4.2c0.1,0.1,0.2,0.2,0.2,0.3v0c0,0.1-0.2,0.2-0.3,0.3C157,5,156.7,5,156.3,5c0,0.6-0.1,1.3-0.2,1.7
		c-0.1,0.7-0.3,1.5-0.4,2.2c-0.2,1.3-0.5,2.6-0.8,3.9c-0.3,1.2-0.8,2.4-1.8,3.3c-0.6,0.5-1.4,0.9-2.2,0.9c0,0,0,0,0,0
		c-0.8,0-1.4-0.4-1.8-1c-0.2-0.4-0.3-0.9-0.3-1.4c0-0.4,0-0.7,0.1-0.9c0-0.1,0-0.2,0.1-0.3c0.1-0.2,0.2-0.3,0.3-0.5
		c0.2-0.2,0.6-0.2,0.8-0.2c0.2,0,0.5,0.1,0.6,0.3c0.1,0.1,0.1,0.3,0,0.5c0,0.1,0,0.3-0.1,0.4c0,0.3-0.1,0.7,0,0.7
		c0,0.6,0.3,0.9,0.3,0.9c0.2,0.4,0.3,0.2,0.5,0c0.2-0.2,0.4-0.5,0.6-0.8c0.6-1,0.9-2.1,1.1-3.2c0.3-1.2,0.6-2.4,0.8-3.5
		c0.3-1.3,0.6-2.4,0.7-2.7c0-0.1,0.1-0.5,0.2-0.5c-0.1,0-0.8-0.1-1.1-0.3c-0.1-0.1-0.1-0.2,0.1-0.3c0.3-0.2,0.7-0.2,1-0.3
		c0.5-0.1,1.8-0.1,2.1-0.1c0,0,0,0,0,0C157.2,3.9,157.4,4,157.6,4.2z"/>
	<path d="M164,12.2c-0.2,0.6-0.4,1.3-0.8,2c-0.3,0.5-0.5,1.1-0.9,1.6c-0.5,0.6-1.2,1-1.8,1.2c-0.2,0-0.4,0.1-0.6,0.1
		c-0.7,0-1.4-0.2-1.8-0.7c-0.4-0.4-0.7-1-0.8-1.7c-0.1-0.8-0.1-1.6,0-2.6c0.1-1,0.5-2.6,0.8-4c0.3-1.4,0.6-2.7,0.7-2.9
		c0.1-0.2,0.2-0.5,0.3-0.8c0.1-0.2,0.4-0.3,0.6-0.3c0.2,0,0.3,0,0.4,0.1c0.1,0.1,0.3,0.1,0.3,0.6c-0.1,1.2-0.4,1.9-1,5.1
		c-0.2,0.8-0.3,1.7-0.5,2.6c-0.1,1.1-0.1,1.7,0.1,2.5c0.1,0.3,0.2,0.6,0.3,0.8c0.2,0.3,0.5,0.5,0.7,0.4c1.1-0.5,1.7-2.2,2-3
		c0.4-1.1,1.3-5.5,1.8-8.1c0-0.1,0.1-0.4,0.3-0.7c0.1-0.3,0.5-0.3,0.7-0.3c0.5,0,0.6,0.2,0.7,0.3c0,0.1,0.1,0.3,0.1,0.4
		c0,0.4-0.2,1.5-0.5,2.7C164.7,9.1,164.2,11.2,164,12.2z"/>
	<path d="M174.2,16.5c0,0.2-0.2,0.3-0.4,0.3c-0.6,0.2-1.5,0.2-1.6-0.4c0.2-2.3,0.8-5.7,1.1-8c-1,2.3-2.6,5.7-3,8.1
		c0,0.2-0.3,0.4-0.4,0.4c-1.3,0.2-1.6-0.3-1.4-1.7c0-2.3-0.3-4.5-0.2-6.8c-1.1,2.7-1.8,5.5-2.8,8.2c-0.2,0.4-1.3,0.4-1.3-0.1
		c1.4-4.1,2.7-8.2,4.2-12.3c0.1-0.3,0.5-0.3,0.7-0.3c0.2,0,0.6,0,0.7,0.3c0.1,2.5,0.3,5.6,0.4,8.2c1.3-2.5,2.2-5.8,3.7-8.2
		c0.3-0.4,1.2-0.3,1.2,0.1c0,0.9-0.1,1.9-0.1,2.8C174.7,10.2,174.5,13.3,174.2,16.5z"/>
	<path d="M183.7,10.8c-1.2,1-2.8,1.5-4.3,1.9c-0.2,0.1-0.4,0.1-0.6,0c-0.3,1.3-0.6,2.6-0.8,3.9c-0.2,0.9-1.7,0.3-1.6-0.5l1.8-8.6
		c0.1-0.7,0.4-1.5,0.5-2.3c-0.5-0.2-0.9-0.8-0.1-1.1c1.4-0.5,3.1-0.1,4.2,0.4c1.1,0.5,2,1.4,2.2,2.7C185.3,8.5,184.8,9.8,183.7,10.8
		z M183.6,7.8c0-1-0.6-1.8-1.4-2.1c-0.6-0.2-1.2-0.3-1.8-0.3c-0.5,1.8-0.8,3.6-1.1,5.4c0,0.2-0.1,0.4-0.1,0.7
		C181,10.8,183.5,9.9,183.6,7.8z"/>
	<path d="M189.4,16.9c-2,0.6-3.8-0.8-3.8-2.7c0-0.9,1.6-0.6,1.6,0.1c0,0.7,0.2,1.3,0.9,1.4c0.6,0.1,1.3-0.3,1.5-0.9
		c0.3-0.5,0.5-1.3,0.2-1.7c-0.2-0.4-0.8-0.5-1.2-0.7c-1-0.4-2-0.8-2.5-1.8c-0.4-0.9,0.1-2.2,0.6-3.2c0.5-1.1,1.2-2.2,2.2-2.9
		c1.1-0.7,2.2-0.5,3,0.1c1.3,1,0.9,3.1,0.3,4.7c-0.2,0.5-0.7,0.7-1.2,0.5c-0.6-0.2-0.5-0.6-0.3-1.2c0.3-0.8,0.5-1.7,0.4-2.5
		c-0.1-0.3-0.1-0.6-0.4-0.7c-0.5-0.2-1.2,0.5-1.5,0.9c-0.8,0.9-1.2,1.9-1.5,2.9c-0.2,0.6-0.3,1.1,0.1,1.4c0.3,0.3,0.8,0.5,1.2,0.6
		c0.8,0.3,1.7,0.7,2.1,1.4C192,13.8,191.3,16.3,189.4,16.9z"/>
	<path d="M206,10.1c0,0.1,0,0.2-0.1,0.3c-0.5,2.1-1.5,4.3-2.5,5.3c-0.4,0.5-0.9,0.8-1.4,1c-0.5,0.2-1,0.3-1.5,0.3
		c-0.2,0-0.5,0-0.7-0.1c-1.2-0.2-2-1-2.4-2.1c-0.4-1.1-0.4-2.4-0.2-3.6c0-0.4,0.1-0.9,0.2-1.3c0.2-0.8,0.4-1.5,0.7-2.2
		c0.5-1.1,1.2-2.2,2.2-2.9c0.9-0.6,1.9-0.9,2.8-0.8c0.1,0,0.2,0,0.4,0c0,0,0.1,0,0.1,0c1.6,0.1,2,0.9,2.1,1c0.3,0.5,0.4,1,0.5,1.6
		C206.3,7.7,206.2,8.9,206,10.1z M203.5,12.3c0.4-1.1,0.6-2.2,0.8-3.2c0.1-1,0.2-2.1-0.1-3c0-0.2-0.2-0.6-0.2-0.7
		c0-0.1-0.2-0.2-0.3-0.3c-0.1-0.1-0.2-0.1-0.4-0.2c-0.2,0-0.3,0-0.4,0c-0.1,0-0.2,0-0.4,0.1s-0.5,0.2-0.7,0.3
		c-0.3,0.2-0.4,0.3-0.6,0.5c-0.9,0.9-1.4,2-1.7,3c-0.3,1.1-0.5,2.2-0.5,3.3c0,0.7,0,1.9,0.4,2.6c0.2,0.4,0.4,0.6,0.6,0.9
		c0.2,0.1,0.2,0.1,0.3,0.2c0.2,0.1,0.2,0.1,0.3,0.1c0.4,0,1-0.4,1-0.5c0.1-0.1,0.5-0.4,0.9-1.1C202.9,13.8,203.4,12.6,203.5,12.3z"
		/>
	<path d="M214.4,5.6c-0.2,0.4-0.4,0.8-0.6,1.2c-0.8,1.7-1.5,3.3-2.3,5c-0.7,1.5-1.2,2.8-1.7,4.3c-0.1,0.3-0.2,0.7-0.5,0.8
		c-0.6,0.2-1.4,0.2-1.5-0.4c0-0.9,0-1.8,0-2.8c0-2.9,0-5.7-0.1-8.6c-0.1-0.8,0.3-1.4,1.1-1c0.6,0.6,0.5,2,0.6,2.8
		c0.1,2.1,0.2,4.3,0,6.4c0.5-1.3,1.2-3.3,1.8-4.3c0.4-0.9,0.9-1.8,1.3-2.8c0.3-0.7,0.6-1.4,0.9-2c0.1-0.2,0.5-0.3,0.7-0.3
		c0.2,0,0.5,0,0.7,0.2C214.9,4.6,214.5,5.2,214.4,5.6z"/>
	<path d="M218,16c0.2,0.1,0.5,0.5,0.2,0.7c-0.2,0.2-0.4,0.2-0.7,0.2c-0.1,0-0.3,0-0.4,0c-1.3,0-2.1,0-2.6-0.1c-0.2,0-0.4,0-0.5-0.1
		c-0.2-0.1-0.5-0.2-0.6-0.4c-0.2-0.4,0-1,0.1-1.4c1.8-8.2,1.8-8.7,2.2-9.6c0-0.1,0.1-0.3,0.2-0.6c-0.1-0.1-0.3-0.2-0.3-0.3
		c0,0,0-0.1,0.1-0.1c0.3-0.2,0.7-0.2,1-0.2c0.3,0,1.6-0.1,2.6-0.1c0.2,0,0.4,0,0.6,0c0.4,0,0.8,0.3,0.9,0.6c0,0.1,0,0.2,0,0.2
		c0,0.2-0.2,0.3-0.5,0.3s-2.1,0-3.2-0.1c0,0.7-0.1,1.3-0.2,1.7c-0.2,0.9-0.4,1.9-0.6,2.8c0.8,0,1.6,0,1.7,0c0.4,0,0.7,0.1,1.1,0.3
		c0.1,0.1,0.3,0.3,0.3,0.5c0,0.1,0,0.3-0.2,0.4c-0.4,0.2-0.8,0.1-1.2,0.1c-0.8,0-1.4,0-2-0.1c-0.1,0.3-0.1,0.6-0.2,0.9
		c-0.5,2.3-0.8,3.8-0.8,4c0.3,0,1.3,0,1.9,0C217.4,15.7,217.7,15.8,218,16z"/>
	<path d="M221.6,16.6c-0.2,0.8-1.7,0.3-1.5-0.5l1.8-8.4c0.2-0.9,0.5-1.8,0.6-2.6c-0.3-0.3-0.3-0.7,0.3-0.9c1.3-0.5,3.3-0.3,4.4,0.2
		c1,0.5,1.8,1.5,1.8,2.7c0,2.5-2.6,4.4-5,4.9c0.8,1.3,1.7,2.6,2.5,3.9c0.5,0.9-1,1.2-1.3,0.5c-0.8-1.4-1.8-2.7-2.6-4.1
		C222.2,13.8,221.9,15.2,221.6,16.6z M227.2,7.6c0.7-2.2-1.5-2.3-3.2-2.2c-0.5,1.8-0.8,3.6-1.2,5.4c0,0,0,0.1,0,0.1
		C224.6,10.7,226.6,9.5,227.2,7.6z"/>
	<path d="M239.7,4.3c0.1,0.1,0.3,0.3,0.3,0.5c0,0,0,0.1-0.1,0.1c-0.2,0.3-0.6,0.3-0.8,0.3c-0.6,0-1.3,0-1.5,0c0,0.2-0.1,0.4-0.1,0.6
		c0,0-0.2,1.2-0.5,2.5c-1.2,5.3-1.3,6.5-1.8,8.2c-0.1,0.2-0.2,0.3-0.4,0.3c-0.2,0-0.3,0-0.4-0.1c-0.2-0.1-0.6-0.4-0.6-0.8
		c0.1-0.6,0.3-1.2,0.4-1.8c0.1-0.2,0.9-4.1,1.2-5.4c0.6-2.8,0.7-3.5,0.8-3.6c-1,0-1.5,0-1.9-0.5c-0.1-0.1-0.2-0.2-0.1-0.3
		c0,0,0,0,0-0.1c0.1-0.2,0.5-0.3,0.7-0.3c0.3,0,1-0.1,2-0.1c0.6,0,1.5,0,1.6,0C238.8,4,239.3,4,239.7,4.3z"/>
	<path d="M245.9,12c-0.2,0.8-0.3,1.4-0.4,1.9c-0.3,1.2-0.4,1.7-0.6,2.3c-0.1,0.4-0.2,0.4-0.4,0.6c-0.2,0.1-0.5,0-0.6,0
		c-0.2-0.1-0.4-0.2-0.5-0.4c-0.2-0.4-0.1-1,0-1.5c0.1-0.4,0.2-0.9,0.3-1.4c0.1-0.3,0.1-0.7,0.2-1.1c-0.6,0-1.3,0-1.9,0
		c-0.3,0-0.8-0.1-0.9-0.1c-0.1,0.7-0.3,1.4-0.4,2l-0.2,1.2c-0.1,0.4-0.2,0.8-0.3,1.2c0,0.2-0.2,0.3-0.4,0.3c-0.2,0-0.3-0.1-0.5-0.1
		c-0.3-0.1-0.7-0.5-0.6-0.8c0.2-0.9,0.4-1.8,0.6-2.6c0.5-2.4,1.2-5.9,1.5-7c0.1-0.4,0.2-0.8,0.3-1.2c0-0.2,0.1-0.4,0.1-0.6
		c0.1-0.2,0.1-0.4,0.3-0.5c0.2-0.2,0.5-0.1,0.6-0.1c0.3,0.1,0.5,0.3,0.6,0.5c0.1,0.4,0,1-0.1,1.5c-0.3,1.3-0.6,2.9-1.1,5
		c0.6,0,2.3,0,2.8,0c0.6-2.9,0.7-3.2,1.1-4.8c0.3-1.2,0.4-1.5,0.4-1.8c0-0.1,0.1-0.2,0.2-0.3c0.1-0.1,0.2-0.1,0.3-0.2
		c0,0,0.1,0,0.1,0c0.1,0,0.2,0,0.3,0.1c0.1,0.1,0.3,0.2,0.4,0.3c0.1,0.1,0.2,0.3,0.2,0.4c0,0.1,0,0.3,0,0.4
		C247.1,5.5,246.9,6.8,245.9,12z"/>
	<path d="M251,16c0.2,0.1,0.5,0.5,0.2,0.7c-0.2,0.2-0.4,0.2-0.7,0.2c-0.1,0-0.3,0-0.4,0c-1.3,0-2.1,0-2.6-0.1c-0.2,0-0.4,0-0.5-0.1
		c-0.2-0.1-0.5-0.2-0.6-0.4c-0.2-0.4,0-1,0.1-1.4c1.8-8.2,1.8-8.7,2.2-9.6c0-0.1,0.1-0.3,0.2-0.6c-0.1-0.1-0.3-0.2-0.3-0.3
		c0,0,0-0.1,0.1-0.1c0.3-0.2,0.7-0.2,1-0.2c0.3,0,1.6-0.1,2.6-0.1c0.2,0,0.4,0,0.6,0c0.4,0,0.8,0.3,0.9,0.6c0,0.1,0,0.2,0,0.2
		c0,0.2-0.2,0.3-0.5,0.3s-2.1,0-3.2-0.1c0,0.7-0.1,1.3-0.2,1.7c-0.2,0.9-0.4,1.9-0.6,2.8c0.8,0,1.6,0,1.7,0c0.4,0,0.7,0.1,1.1,0.3
		c0.1,0.1,0.3,0.3,0.3,0.5c0,0.1,0,0.3-0.2,0.4c-0.4,0.2-0.8,0.1-1.2,0.1c-0.8,0-1.4,0-2-0.1c-0.1,0.3-0.1,0.6-0.2,0.9
		c-0.5,2.3-0.8,3.8-0.8,4c0.3,0,1.3,0,1.9,0C250.4,15.7,250.7,15.8,251,16z"/>
	<path d="M261.5,16.2c0,0.1,0.1,0.2,0,0.3c0,0.1-0.1,0.2-0.2,0.2l-0.2,0.1c-0.3,0.1-0.4,0.1-0.9,0.1c-0.3,0-0.6,0-0.8,0
		c-0.1,0-0.2,0-0.2,0c-2,0-1.9-0.3-2.1-0.4c-0.2-0.1-0.5-0.3-0.5-0.6c0-0.3,0-0.5,0-0.8c0-0.1,0.1-0.8,0.4-2
		c0.3-1.2,1.4-6.2,1.6-7.1c0.1-0.4,0.2-0.8,0.3-1.2c0.1-0.4,0.2-0.9,0.6-1c0,0,0,0,0,0l0.1,0c0.4,0,0.7,0.3,0.8,0.6
		c0.1,0.2,0,0.5,0,0.8c-0.1,0.5-0.2,0.9-0.2,1.4c-0.2,1-0.3,1.4-1,5c-0.5,2.4-0.9,3.8-0.9,3.9c1.1,0,1.6,0,1.8,0
		c0.3,0,0.5,0.1,0.7,0.2C261.1,15.7,261.4,16,261.5,16.2z"/>
	<path d="M269.1,16.9c-0.5,0.1-0.8-0.2-0.8-0.7c0-0.8,0-1.8,0-2.6c-0.7,0-1.6,0-2.5-0.1c-0.4,1-0.8,2-1.3,3
		c-0.2,0.4-0.7,0.5-1.1,0.5c-0.3,0-0.8-0.2-0.8-0.6c1.6-3.8,3.1-7.6,4.9-11.3c0.3-1,2.1-1.1,1.7,0c0.8,3.6,0.3,7.5,0.5,11.2
		C269.8,16.7,269.4,16.9,269.1,16.9z M267.8,12.7l0.4,0c0.1,0,0.1,0,0.2,0c0-1.7,0-3.8-0.1-5.5c-0.6,1.5-1.5,3.9-2.1,5.5
		c0.1,0,0.3,0,0.4,0h0.7c0.1,0,0.3,0,0.4,0C267.6,12.7,267.7,12.7,267.8,12.7z"/>
	<path d="M276.7,15.9c0.1,0,0.7,0.1,0.7,0.5c0,0.1,0,0.2-0.1,0.3c-0.1,0.1-0.4,0.2-0.5,0.3c-0.2,0-0.4,0-0.8,0c-0.7,0-1.8,0-4.1,0
		c-0.3,0-0.6-0.1-0.8-0.3c0-0.1-0.1-0.2-0.1-0.3c0-0.1,0.1-0.2,0.2-0.3c0.5-0.8,2.1-3.7,4.3-7c1.8-2.7,2.8-4.1,2.9-4.2
		c-3.2,0-3.6,0.1-4.3-0.2c-0.2-0.1-0.3-0.2-0.2-0.3c0-0.1,0-0.2,0.3-0.3c0.5-0.2,0.8-0.2,2.4-0.2c0.5,0,1.1,0,1.8,0
		c1.6,0,1.9,0.1,1.9,0.6c0,0,0,0,0,0c-0.1,0.3-0.3,0.6-0.5,0.9c-0.5,0.7-1.2,1.8-1.5,2.1c-1.1,1.6-2,3-2.8,4.4
		c-0.7,1.1-1.8,3.1-2.2,3.9C275.6,15.9,276.2,15.8,276.7,15.9z"/>
	<path d="M288.1,4.2c-0.2,0.3-0.4,0.7-0.6,1c-0.1,0.1-0.8,1.3-1.3,2.1c-1,1.7-1.5,2.4-1.7,2.6c0,0-0.4,2.2-1.1,5.2
		c-0.3,1.3-0.5,1.5-0.5,1.6c-0.2,0.2-0.4,0.3-0.7,0.3c-0.3,0-0.6-0.1-0.6-0.3c-0.1-0.2-0.2-0.4,0.1-1.6c0.7-3.5,0.8-3.9,1.1-5
		c-0.1-0.1-0.1-0.2-0.1-0.4c-0.1-0.5-0.9-3.4-1-3.9c-0.1-0.4-0.3-0.8-0.4-1.3c0,0,0-0.1,0-0.1c0,0,0-0.1,0.1-0.1
		c0.1-0.2,0.4-0.2,0.5-0.2c0.1,0,0.2,0,0.3,0c0.3,0,0.5,0.1,0.6,0.2c0.3,0.4,0.5,0.8,0.7,1.3c0.4,1,0.5,1.8,0.8,3
		c0.3-0.6,0.7-1,1-1.4c1.3-1.9,1.9-2.5,2.4-2.9c0,0,0.2-0.1,0.3-0.1C287.9,4.1,288.1,4.1,288.1,4.2C288.1,4.2,288.1,4.2,288.1,4.2z"
		/>
	<path d="M296.8,14.9c-1.3,1.4-3,1.8-4.6,1.9c-0.4,0.4-1.5-0.1-1.4-0.7l1.8-8.6c0.2-1,0.6-2,0.6-3c0-0.3,0.3-0.5,0.7-0.6
		c0.1,0,0.2-0.1,0.4-0.1c1.7,0,3.3,0.4,4.2,1.7c0.7,1.2,0.6,2.7,0.3,4.2C298.5,11.5,298.2,13.5,296.8,14.9z M297.2,9.9
		c0.2-1.2,0.5-2.5,0-3.6c-0.4-0.9-1.5-1.1-2.5-1.1c-0.5,1.8-0.8,3.7-1.2,5.5c-0.3,1.6-0.7,3.2-1,4.8c1-0.2,2.1-0.6,2.9-1.4
		C296.7,12.9,297,11.3,297.2,9.9z"/>
	<path d="M308.5,10.1c0,0.1,0,0.2-0.1,0.3c-0.5,2.1-1.5,4.3-2.5,5.3c-0.4,0.5-0.9,0.8-1.4,1c-0.5,0.2-1,0.3-1.5,0.3
		c-0.2,0-0.5,0-0.7-0.1c-1.2-0.2-2-1-2.4-2.1c-0.4-1.1-0.4-2.4-0.2-3.6c0-0.4,0.1-0.9,0.2-1.3c0.2-0.8,0.4-1.5,0.7-2.2
		c0.5-1.1,1.2-2.2,2.2-2.9c0.9-0.6,1.9-0.9,2.8-0.8c0.1,0,0.2,0,0.4,0c0,0,0.1,0,0.1,0c1.6,0.1,2,0.9,2.1,1c0.3,0.5,0.4,1,0.5,1.6
		C308.8,7.7,308.7,8.9,308.5,10.1z M306,12.3c0.4-1.1,0.6-2.2,0.8-3.2c0.1-1,0.2-2.1-0.1-3c0-0.2-0.2-0.6-0.2-0.7
		c0-0.1-0.2-0.2-0.3-0.3C306.1,5,306,5,305.8,4.9c-0.2,0-0.3,0-0.4,0c-0.1,0-0.2,0-0.4,0.1s-0.5,0.2-0.7,0.3
		c-0.3,0.2-0.4,0.3-0.6,0.5c-0.9,0.9-1.4,2-1.7,3c-0.3,1.1-0.5,2.2-0.5,3.3c0,0.7,0,1.9,0.4,2.6c0.2,0.4,0.4,0.6,0.6,0.9
		c0.2,0.1,0.2,0.1,0.3,0.2c0.2,0.1,0.2,0.1,0.3,0.1c0.4,0,1-0.4,1-0.5c0.1-0.1,0.5-0.4,0.9-1.1C305.4,13.8,305.9,12.6,306,12.3z"/>
	<path d="M312.3,17c-2.6,0-3-3.3-2.7-5.4c0.1-1.2,0.5-2.5,1-3.7c0.5-1.1,1.3-2.6,2.4-3.4c1-0.7,2.3-0.6,3.1,0
		c0.4,0.3,0.6,0.7,0.7,1.1c0.1,0.6,0,1.2,0.1,1.7c0.2,0.9-1.8,0.9-1.6,0.1c0.1-0.5,0.3-1.9-0.3-2.1c-0.9-0.2-1.6,1-2,1.6
		c-1,1.5-1.7,3.3-1.8,5c-0.1,0.9-0.1,4.8,1.7,3.6c0.7-0.5,1.2-1.5,1.6-2.2c0.3-0.6,0.4-1.2,0.6-1.8c-0.5,0-1,0.1-1.5,0.1
		c-0.4,0-0.8-0.2-0.9-0.5c-0.1-0.3,0.1-0.7,0.5-0.7c1-0.1,1.9-0.2,2.8-0.2c0.4,0,0.8,0.4,0.8,0.8C316.3,13,315,17,312.3,17z"/>
	<path d="M12,20.3c0.1,0.1,0.3,0.3,0.3,0.5c0,0,0,0.1-0.1,0.1c-0.2,0.3-0.6,0.3-0.8,0.3c-0.6,0-1.3,0-1.5,0c0,0.2-0.1,0.4-0.1,0.6
		c0,0-0.2,1.2-0.5,2.5c-1.2,5.3-1.4,6.5-1.8,8.2c-0.1,0.2-0.2,0.3-0.4,0.3c-0.1,0-0.3,0-0.4-0.1c-0.2-0.1-0.6-0.4-0.6-0.8
		c0.1-0.6,0.3-1.2,0.4-1.8c0.1-0.2,0.9-4.1,1.2-5.4c0.6-2.8,0.7-3.5,0.8-3.6c-1,0-1.5,0-1.9-0.5c-0.1-0.1-0.2-0.2-0.1-0.3
		c0,0,0,0,0-0.1C6.5,20.1,6.8,20.1,7,20C7.3,20,8,20,9,20c0.6,0,1.5,0,1.6,0C11.1,20,11.6,20,12,20.3z"/>
	<path d="M18.2,28c-0.1,0.8-0.3,1.4-0.4,1.9c-0.3,1.2-0.4,1.7-0.6,2.3c-0.1,0.4-0.2,0.4-0.4,0.6c-0.2,0.1-0.5,0-0.6,0
		c-0.2-0.1-0.4-0.2-0.5-0.4c-0.2-0.4-0.1-1,0-1.5c0.1-0.5,0.2-0.9,0.3-1.4c0.1-0.3,0.1-0.7,0.2-1.1c-0.6,0-1.3,0-1.9,0
		c-0.3,0-0.8-0.1-0.9-0.1c-0.1,0.7-0.3,1.4-0.4,2l-0.2,1.2c-0.1,0.4-0.2,0.8-0.3,1.2c0,0.2-0.2,0.3-0.4,0.3c-0.2,0-0.3-0.1-0.5-0.1
		c-0.3-0.1-0.7-0.5-0.6-0.8c0.1-0.9,0.4-1.8,0.6-2.6c0.5-2.4,1.2-5.9,1.5-7c0.1-0.4,0.2-0.8,0.3-1.2c0-0.2,0.1-0.4,0.1-0.6
		c0.1-0.2,0.1-0.4,0.3-0.5c0.2-0.2,0.5-0.1,0.6-0.1c0.3,0.1,0.5,0.3,0.6,0.5c0.1,0.4,0,1-0.1,1.5c-0.3,1.3-0.6,2.9-1.1,5
		c0.6,0,2.3,0,2.8,0c0.6-2.9,0.7-3.2,1.1-4.8c0.3-1.2,0.4-1.5,0.5-1.8c0-0.1,0.1-0.2,0.1-0.3c0.1-0.1,0.2-0.1,0.3-0.2
		c0,0,0.1,0,0.1,0c0.1,0,0.2,0,0.3,0.1c0.1,0.1,0.3,0.2,0.4,0.3l0.2,0.4c0,0.1,0,0.3,0,0.4C19.5,21.5,19.2,22.8,18.2,28z"/>
	<path d="M23.3,32c0.2,0.2,0.5,0.5,0.2,0.7c-0.2,0.2-0.4,0.2-0.7,0.2c-0.1,0-0.3,0-0.4,0c-1.3,0-2.1,0-2.6-0.1c-0.2,0-0.4,0-0.5-0.1
		c-0.2-0.1-0.4-0.2-0.6-0.4c-0.2-0.4,0-1,0.1-1.4c1.8-8.2,1.8-8.7,2.2-9.6c0-0.1,0.1-0.3,0.2-0.6c-0.1-0.1-0.3-0.2-0.3-0.3
		c0,0,0-0.1,0.1-0.1c0.3-0.2,0.7-0.2,1-0.2c0.3,0,1.6-0.1,2.6-0.1c0.2,0,0.4,0,0.6,0c0.4,0,0.8,0.3,0.9,0.6c0,0.1,0,0.2,0,0.2
		c0,0.2-0.2,0.3-0.5,0.3c-0.2,0-2.1,0-3.2-0.1c0,0.7-0.1,1.3-0.2,1.7c-0.2,0.9-0.4,1.9-0.6,2.8c0.8,0,1.6,0,1.7,0
		c0.4,0,0.7,0.1,1,0.3c0.1,0.1,0.3,0.3,0.3,0.5c0,0.1,0,0.3-0.2,0.4c-0.4,0.2-0.8,0.1-1.2,0.1c-0.8,0-1.4,0-2-0.1
		c-0.1,0.3-0.1,0.6-0.2,0.9c-0.5,2.3-0.8,3.8-0.8,4c0.3,0,1.3,0,1.9,0C22.7,31.7,23,31.8,23.3,32z"/>
	<path d="M37.1,32.4c0,0.2,0,0.4-0.2,0.5c-0.1,0-0.2,0.1-0.3,0.1c-0.2,0-0.4-0.1-0.6-0.2c-0.3-0.1-0.4-0.3-0.6-0.6
		c-0.2,0.2-0.4,0.3-0.7,0.4C34,33,33.2,33,32.5,32.9c-1.2-0.2-2.1-1-2.4-2c-0.4-1-0.4-2.4-0.3-3.6c0.1-0.5,0.1-0.9,0.2-1.4
		c0.2-0.8,0.4-1.5,0.7-2.2c0.5-1.1,1.2-2.2,2.2-2.9c0.9-0.6,1.9-0.9,2.8-0.8c0.1,0,0.2,0,0.3,0c0.1,0,0.3,0,0.7,0.1
		c0.6,0.1,1.3,0.4,1.6,0.9c0.3,0.5,0.4,1,0.5,1.6c0.2,1.1,0,2.3-0.2,3.5c0,0.1,0,0.2-0.1,0.3c-0.2,1-0.5,2-1,3
		c-0.3,0.6-0.6,1.2-1,1.8C37,32,37.1,32.1,37.1,32.4z M34.8,31c-0.8-1.8-1-2.6-1.3-3.1c-0.1-0.3-0.3-0.5-0.1-0.8
		c0.2-0.3,0.7-0.2,0.9-0.1c0.3,0.1,0.6,0.4,0.8,0.7c0.2,0.4,0.2,0.7,0.6,1.6c0.1-0.3,0.2-0.5,0.3-0.8c0.4-1.1,0.7-2.2,0.8-3.3
		c0.1-1,0.1-2-0.1-2.9c-0.1-0.5-0.2-0.7-0.4-0.9c-0.1-0.1-0.2-0.3-0.5-0.3c-0.2,0-0.6-0.1-1.4,0.3c-0.1,0-0.4,0.2-0.7,0.5
		c-0.9,0.9-1.4,1.9-1.7,3c-0.3,1.1-0.5,2.3-0.6,3.4c0,0.5,0,1,0.1,1.5c0.1,0.7,0.2,0.9,0.3,1.1c0.1,0.2,0.3,0.5,0.5,0.7
		c0.3,0.3,0.5,0.3,0.6,0.4c0.1,0,0.3,0.1,0.8-0.2C34.4,31.5,34.6,31.3,34.8,31z"/>
	<path d="M46.1,28.2c-0.2,0.6-0.4,1.3-0.8,2c-0.3,0.5-0.5,1.1-0.9,1.6c-0.5,0.6-1.2,1-1.8,1.2c-0.2,0-0.4,0.1-0.6,0.1
		c-0.7,0-1.4-0.2-1.8-0.7c-0.4-0.4-0.7-1-0.8-1.7c-0.1-0.7-0.1-1.6,0-2.6c0.1-1,0.5-2.6,0.8-4c0.3-1.4,0.6-2.7,0.7-2.9
		c0.1-0.2,0.2-0.5,0.3-0.8c0.1-0.2,0.4-0.3,0.6-0.3c0.2,0,0.3,0,0.4,0.1c0.1,0.1,0.3,0.1,0.3,0.6c-0.1,1.2-0.4,1.9-1,5.1
		c-0.2,0.8-0.3,1.7-0.5,2.6c-0.1,1.1-0.1,1.7,0.1,2.5c0.1,0.3,0.2,0.6,0.3,0.8c0.2,0.3,0.5,0.5,0.7,0.4c1.1-0.5,1.7-2.2,2-3
		c0.4-1.1,1.3-5.5,1.8-8.1c0-0.1,0.1-0.4,0.3-0.7c0.1-0.3,0.5-0.3,0.7-0.3c0.5,0,0.6,0.2,0.7,0.3c0,0.1,0.1,0.3,0.1,0.4
		c0,0.4-0.2,1.5-0.5,2.7C46.8,25.1,46.3,27.2,46.1,28.2z"/>
	<path d="M53.8,20.6c0,0.1,0.1,0.2,0,0.4c0,0.2-0.5,0.4-0.7,0.4c-0.1,0-0.2,0-0.3,0H52c0,0.2-0.1,0.4-0.1,0.6l-0.5,2.2
		c-0.3,1.4-0.6,2.7-0.9,4.1L50.4,29c0,0.1,0,0.2-0.1,0.4c-0.2,0.7-0.3,1.5-0.5,2.2c0.4,0,0.8,0.2,1.1,0.4c0,0,0.3,0.2,0.3,0.5
		c0,0.5-0.8,0.5-1,0.5c-0.1,0-0.1,0-0.2,0h-1.4c-0.1,0-0.2,0-0.3,0c-0.6,0-1.3-0.1-1.6-0.4c-0.1-0.1-0.3-0.3-0.2-0.5
		c0.1-0.4,1-0.5,1.3-0.5c0.2,0,0.3,0,0.5,0c0.1-0.5,0.2-1,0.3-1.5c0.5-1.8,0.8-3.6,1.1-5.3c0-0.2,0.1-0.5,0.1-0.7l0.6-2.7
		c-0.4,0-0.8-0.1-1.1-0.4c-0.1-0.2-0.4-0.4-0.2-0.6c0.2-0.3,0.7-0.3,1-0.3c0.4,0,0.7,0,1.1,0h1.4c0.2,0,0.4,0.1,0.6,0.1c0,0,0,0,0,0
		C53.4,20.2,53.7,20.4,53.8,20.6z"/>
	<path d="M60.9,23.5c-0.1,0.2-0.5,0.1-0.6,0c-0.2-0.1-0.5-0.2-0.4-0.5c0-0.5,0-1.4-0.4-1.8c-0.2-0.2-0.3-0.4-0.9-0.2
		c-0.6,0.3-1.1,0.9-1.4,1.4c-0.4,0.6-0.7,1.3-1,2c-0.3,0.7-0.5,1.5-0.7,2.2c-0.2,0.7-0.4,1.5-0.5,2.2c-0.2,2.2,0.6,2.9,0.7,2.9
		c0.2,0.1,0.7-0.1,1.1-0.4c0.8-0.6,0.9-1.1,1.5-1.5c0.2-0.1,0.5,0,0.7,0.1c0.2,0.1,0.4,0.3,0.4,0.5c0,0.5-0.4,0.9-0.7,1.2
		c-0.3,0.4-0.7,0.7-1.1,0.9c-0.4,0.2-0.8,0.3-1.2,0.3c-0.6,0-1.2-0.2-1.6-0.6c-1.2-1-1.4-2.7-1.2-4.3c0-0.2,0.1-0.5,0.1-0.7
		c0.1-0.6,0.3-1.3,0.5-1.9c0.3-0.8,0.6-1.6,1-2.4c0.3-0.7,0.8-1.5,1.4-2.1c0.6-0.6,1.2-0.9,1.9-0.9c0.2,0,0.4,0,0.5,0.1
		c0.8,0.2,1.6,0.8,1.9,1.5c0.1,0.3,0.2,0.6,0.2,1C61.1,23,61.1,23.1,60.9,23.5z"/>
	<path d="M67.1,33.1c-0.4,0.1-1,0.1-1.3-0.1c-0.3-0.2-0.5-0.6-0.7-0.9c-0.1-0.3-0.3-0.5-0.4-0.8c-0.3-0.6-0.6-1.2-0.9-1.9
		c-0.1-0.3-0.3-0.6-0.4-0.9c0,0.2-0.1,0.3-0.1,0.5l-0.2,1c-0.2,0.8-0.3,1.6-0.6,2.4c-0.1,0.2-0.2,0.4-0.3,0.6C62.2,33,62,33,61.9,33
		c-0.1,0-0.2,0-0.4,0c-0.2,0-0.6-0.1-0.6-0.3c-0.2-1,0.1-1.9,0.3-2.9c0.3-1.7,0.7-3.4,1-5.1c0.3-1.5,0.4-3,1-4.4
		c0-0.1,0.1-0.3,0.2-0.4c0,0,0.1-0.1,0.2-0.1c0.4-0.3,1.2-0.2,1.5,0.1c0.2,0.2,0.1,0.6,0.1,0.9L65,21.6l-0.5,2.1
		c0.1-0.1,0.1-0.1,0.2-0.2c0.8-0.8,1.6-1.5,2.4-2.2c0.3-0.2,0.6-0.5,0.8-0.7c0.2-0.1,0.3-0.3,0.5-0.4c0.2-0.2,0.4-0.2,0.6-0.3
		c0.3-0.1,0.6-0.2,0.9-0.1c0.1,0.1,0.4,0.1,0.3,0.4l-0.1,0.2c-0.2,0.3-0.4,0.5-0.7,0.7c-0.2,0.2-0.5,0.5-0.8,0.7
		c-0.5,0.5-1.1,1-1.6,1.4c-0.9,0.8-1.8,1.7-2.6,2.6c0.1,0.2,0.2,0.4,0.3,0.6c0.1,0.3,0.3,0.6,0.4,0.9c0.3,0.6,0.5,1.2,0.8,1.8
		c0.4,0.8,0.8,1.6,1.3,2.4c0.1,0.1,0.2,0.3,0.3,0.4c0.1,0.2,0.2,0.3,0.3,0.5C67.8,32.8,67.4,33,67.1,33.1z"/>
	<path d="M79.9,27.9c0.1,0.4,0.1,0.9,0,1.4c-0.1,0.5-0.3,1-0.7,1.5c-0.7,0.9-1.6,1.5-2.6,1.8c-0.5,0.2-1,0.2-1.4,0.3
		c-0.1,0-0.2,0-0.3,0c-0.4,0-0.9,0-1.2-0.2c-0.3-0.1-0.6-0.3-0.7-0.6c-0.1-0.2,0.1-0.3,0.3-0.4c0-0.3,0-0.4,0.1-0.9
		c0.1-0.4,0.1-0.8,0.2-1.3c0.3-1.5,0.6-3.1,0.9-4.6c0.7-3.2,0.9-3.9,0.9-4c-0.1-0.1-0.2-0.2-0.2-0.3c0,0,0-0.1,0.1-0.1
		c0.8-0.4,1.7-0.6,2.5-0.6c0.1,0,0.2,0,0.3,0c1.1,0.1,2.1,0.6,2.6,1.5c0.5,0.8,0.1,1.9-0.4,2.9c-0.4,0.7-1.1,1.3-1.9,1.7
		C79.2,26.4,79.7,27.1,79.9,27.9z M77.8,29.8c0.5-0.7,0.7-1.5,0.6-2.3c-0.1-0.3-0.2-0.5-0.3-0.7c-0.1-0.1-0.2-0.2-0.7-0.2
		c-0.7,0-1.3,0.2-1.6,0.2c-0.1,0.4-0.2,0.9-0.3,1.4c-0.2,0.8-0.4,1.5-0.6,2.3c-0.1,0.6-0.3,1.1-0.3,1.2c0,0,0.6-0.1,1-0.3
		C76.5,31.1,77.3,30.5,77.8,29.8z M76.8,21c0.2,0.6-0.4,2.9-0.7,4.3c0.4-0.1,0.7-0.2,1-0.4c0.7-0.4,1.2-0.8,1.7-1.4
		c0.5-0.6,0.6-1.3,0.6-1.6c0-0.1,0-0.2-0.1-0.4C79,21,78.3,20.9,76.8,21z"/>
	<path d="M82.5,32.6c-0.2,0.8-1.7,0.3-1.5-0.5l1.8-8.4c0.2-0.9,0.5-1.8,0.6-2.6c-0.3-0.3-0.3-0.7,0.3-0.9c1.3-0.5,3.3-0.3,4.4,0.2
		c1,0.5,1.8,1.5,1.8,2.7c0,2.5-2.6,4.4-4.9,4.9c0.8,1.3,1.7,2.6,2.5,3.9c0.5,0.9-1,1.2-1.3,0.5c-0.8-1.4-1.8-2.7-2.6-4.1
		C83.1,29.8,82.8,31.2,82.5,32.6z M88.1,23.6c0.7-2.2-1.5-2.3-3.2-2.2c-0.5,1.8-0.8,3.6-1.2,5.4c0,0,0,0.1,0,0.1
		C85.5,26.7,87.5,25.5,88.1,23.6z"/>
	<path d="M99,26.1c0,0.1,0,0.2-0.1,0.3c-0.4,2.1-1.5,4.3-2.5,5.3c-0.4,0.5-0.9,0.8-1.4,1c-0.5,0.2-1,0.3-1.5,0.3
		c-0.2,0-0.5,0-0.7-0.1c-1.2-0.2-2-1-2.4-2.1c-0.4-1.1-0.4-2.4-0.2-3.6c0-0.4,0.1-0.9,0.2-1.3c0.2-0.8,0.4-1.5,0.7-2.2
		c0.5-1.1,1.2-2.2,2.2-2.9c1.1-0.7,2.1-0.8,3.2-0.8c0,0,0.1,0,0.1,0c1.6,0.1,2,0.9,2.1,1c0.3,0.5,0.4,1,0.5,1.6
		C99.4,23.7,99.2,24.9,99,26.1z M96.5,28.3c0.4-1.1,0.6-2.2,0.8-3.2c0.1-1,0.2-2.1-0.1-3c0-0.2-0.2-0.6-0.2-0.7
		c0-0.1-0.1-0.2-0.3-0.3l-0.4-0.2c-0.2,0-0.3,0-0.4,0c-0.1,0-0.2,0-0.4,0.1s-0.5,0.2-0.7,0.3c-0.3,0.2-0.4,0.3-0.6,0.5
		c-0.9,0.9-1.3,2-1.7,3C92.2,26,92,27.1,92,28.2c0,0.7,0,1.9,0.4,2.6c0.2,0.4,0.4,0.6,0.6,0.9c0.2,0.1,0.4,0.3,0.6,0.3
		c0.4,0,1-0.4,1-0.5c0.1-0.1,0.5-0.4,0.9-1.1C95.9,29.8,96.4,28.6,96.5,28.3z"/>
	<path d="M107.8,30.7c-0.3,0.8-0.7,1.9-1,2.1c-1.9,0.7-1.5-1.5-1.6-3c0.1-1.9,0.2-3.7,0.2-5.5c-1,2.7-1.8,5.5-2.9,8.1
		c-0.1,0.5-0.7,0.6-1.1,0.6c-1.1,0-0.8-1.7-0.8-2.7c0.1-3,0.2-6.5,0.2-9.6c0-1,1.1-1,1.1-0.5c0.2,2.1,0.1,6.3,0.3,8.6
		c0.9-2.5,2-6.3,3.3-8.6c0.3-0.4,1.5-0.4,1.5,0.1c0.4,2.1-0.3,6.4-0.2,8.6c1-2.2,2.3-6.3,3.4-8.7c0.2-0.4,1.3-0.4,1.3,0.1
		C111.6,20.8,109.4,26.5,107.8,30.7z"/>
	<path d="M119.3,22.1c-0.1,0.4-0.2,0.9-0.3,1.3c-0.2,0.8-0.3,1.5-0.5,2.3l-1,4.6c-0.2,0.8-0.3,1.5-0.5,2.3c-0.1,0.3-0.3,0.4-0.6,0.4
		c-0.3,0-0.6-0.1-0.8-0.2c-0.5-0.3-0.7-0.6-0.9-1.1c-0.1-0.4-0.3-0.8-0.4-1.1c-0.5-1.5-0.9-3.1-1.1-4.8c-0.1,0.7-0.3,1.4-1,4.6
		c-0.3,1.4-0.4,1.7-0.4,1.9c0,0.1-0.1,0.2-0.1,0.3c-0.1,0.1-0.2,0.2-0.3,0.3c-0.2,0.2-0.9,0-1-0.5c-0.1-0.2-0.1-0.3-0.1-0.5
		c0-0.2,0-0.3,0.5-2.4c0.3-1.7,1-4.7,1.4-6.7c0.2-1,0.4-1.7,0.4-1.9c0-0.2,0.2-0.7,0.3-0.9c0.1-0.1,0.2-0.1,0.3-0.2
		c0.4,0,0.8,0.2,0.9,0.6c0.1,0.2,0.1,0.5,0,0.8c0,0,0,0.2,0.1,0.6c0,0.1,0.6,4.3,1.1,6.3c0.1,0.5,0.3,1,0.4,1.5
		c0.2-1.2,0.6-2.6,1-4.9c0.2-0.8,0.3-1.6,0.5-2.3c0.1-0.4,0.2-0.8,0.3-1.1c0.1-0.4,0.1-0.8,0.3-1.2c0.1-0.3,0.8-0.2,0.9-0.1
		c0.3,0.1,0.7,0.3,0.7,0.6C119.5,21.2,119.4,21.6,119.3,22.1z"/>
	<path d="M130.7,20.8C130.7,20.8,130.7,20.9,130.7,20.8c-0.1,0.6-2.7,0.5-4.1,0.5c0,0.4-0.1,1-0.4,2.2c-0.2,0.8-0.3,1.6-0.5,2.4
		c0.1,0,0.4,0,0.9,0c0.6,0,1.3,0,1.6,0.4c0.1,0.1,0.4,0.4,0.2,0.7c-0.2,0.3-0.7,0.2-1,0.2c-1.4,0-1.7-0.1-2-0.1
		c-0.1,0.3-0.1,0.7-0.2,1c-0.6,2.7-0.7,3.8-1.2,4.7c-0.1,0.1-0.2,0.2-0.3,0.2c-0.2,0-0.4-0.1-0.5-0.1c-0.3-0.1-0.3-0.3-0.3-0.6
		c0-0.2,0-0.5,0-0.7c0-0.1,1.1-5.6,1.8-8.5c0.2-0.9,0.3-1.5,0.4-1.7c0.1-0.4,0.2-0.7,0.3-0.8c0-0.1,0-0.3,0.1-0.3
		c0.4-0.2,0.7-0.2,1.1-0.2c0.3,0,1.4,0,2.3,0c0.4,0,0.8,0,0.9,0C130.1,20.1,130.6,20.4,130.7,20.8z"/>
	<path d="M139,26.1c0,0.1,0,0.2-0.1,0.3c-0.4,2.1-1.5,4.3-2.5,5.3c-0.4,0.5-0.9,0.8-1.4,1c-0.5,0.2-1,0.3-1.5,0.3
		c-0.2,0-0.5,0-0.7-0.1c-1.2-0.2-2-1-2.4-2.1c-0.4-1.1-0.4-2.4-0.2-3.6c0-0.4,0.1-0.9,0.2-1.3c0.2-0.8,0.4-1.5,0.7-2.2
		c0.5-1.1,1.2-2.2,2.2-2.9c1.1-0.7,2.1-0.8,3.2-0.8c0,0,0.1,0,0.1,0c1.6,0.1,2,0.9,2.1,1c0.3,0.5,0.4,1,0.5,1.6
		C139.3,23.7,139.2,24.9,139,26.1z M136.5,28.3c0.4-1.1,0.6-2.2,0.8-3.2c0.1-1,0.2-2.1-0.1-3c0-0.2-0.2-0.6-0.2-0.7
		c0-0.1-0.1-0.2-0.3-0.3l-0.4-0.2c-0.2,0-0.3,0-0.4,0c-0.1,0-0.2,0-0.4,0.1s-0.5,0.2-0.7,0.3c-0.3,0.2-0.4,0.3-0.6,0.5
		c-0.9,0.9-1.3,2-1.7,3c-0.3,1.1-0.5,2.2-0.5,3.3c0,0.7,0,1.9,0.4,2.6c0.2,0.4,0.4,0.6,0.6,0.9c0.2,0.1,0.4,0.3,0.6,0.3
		c0.4,0,1-0.4,1-0.5c0.1-0.1,0.5-0.4,0.9-1.1C135.9,29.8,136.4,28.6,136.5,28.3z"/>
	<path d="M145.8,32.4c0,0.1,0,0.1,0,0.2c0,0.1,0,0.1-0.1,0.2c-0.2,0.2-0.6,0.3-0.9,0.3c-0.1,0-0.1,0-0.2,0c-0.3,0-0.5-0.2-0.6-0.3
		c-0.2-1-0.5-2.4-0.7-2.9c-0.4-1.7-0.5-2.2-0.5-2.2c-2.4,3.6-2.8,4.6-3.3,5.1c-0.3,0.3-0.7,0.2-0.8,0.2c-0.1,0-0.6-0.1-0.5-0.4
		c0.1-0.5,1-1.8,1.7-2.9c0.9-1.4,1.7-2.6,2.5-3.8c-0.3-1.2-0.5-2.2-0.9-3.3c-0.5-1.8-0.8-1.9-0.6-2.3c0.1-0.3,0.6-0.2,0.8-0.2
		c0.4,0.2,0.6,0.5,0.9,1.2c0.1,0.2,0.5,0.8,1,2.7c0.6-0.8,1.2-1.7,1.8-2.5c0.3-0.5,0.7-0.9,1.1-1.3c0.1-0.2,0.4-0.2,0.8-0.2
		c0.2,0,0.4,0,0.5,0.1c0.1,0.1,0.1,0.2,0.1,0.4c-0.3,0.4-0.6,0.9-0.9,1.3c-0.7,0.9-2.1,2.8-2.9,4C144.2,25.9,144.5,26.8,145.8,32.4z
		"/>
	<path d="M160.1,20.2c0.1,0.1,0.2,0.2,0.2,0.3v0c0,0.1-0.2,0.2-0.3,0.3c-0.4,0.2-0.8,0.2-1.2,0.2c0,0.6-0.1,1.3-0.2,1.7
		c-0.1,0.7-0.3,1.5-0.4,2.2c-0.2,1.3-0.5,2.6-0.8,3.9c-0.3,1.2-0.8,2.4-1.8,3.3c-0.6,0.5-1.5,0.9-2.2,0.9c-0.8,0-1.4-0.4-1.8-1
		c-0.2-0.4-0.3-0.9-0.3-1.4c0-0.2,0.1-0.9,0.2-1.2c0.1-0.2,0.2-0.3,0.3-0.5c0.2-0.2,0.6-0.2,0.8-0.2c0.2,0,0.5,0.1,0.6,0.3
		c0.1,0.1,0.1,0.3,0,0.5c0,0.1,0,0.3-0.1,0.4c-0.1,0.7-0.1,1.1,0.2,1.7c0.2,0.4,0.3,0.2,0.5,0c0.2-0.2,0.4-0.5,0.6-0.8
		c0.6-1,0.9-2.1,1.1-3.2c0.3-1.2,0.6-2.4,0.8-3.5c0.3-1.3,0.6-2.4,0.7-2.7c0-0.1,0.1-0.5,0.2-0.5c-0.1,0-0.8-0.1-1.1-0.3
		c-0.1-0.1-0.1-0.2,0.1-0.3c0.3-0.2,0.7-0.2,1-0.3c0.5-0.1,1.8-0.1,2.1-0.1c0,0,0,0,0,0C159.6,19.9,159.9,20,160.1,20.2z"/>
	<path d="M166.4,28.2c-0.2,0.6-0.4,1.3-0.8,2c-0.3,0.5-0.5,1.1-0.9,1.6c-0.5,0.6-1.2,1-1.8,1.2c-0.2,0-0.4,0.1-0.6,0.1
		c-0.7,0-1.4-0.2-1.8-0.7c-0.4-0.4-0.7-1-0.8-1.7c-0.1-0.7-0.1-1.6,0-2.6c0.1-1,0.5-2.6,0.8-4c0.3-1.4,0.6-2.7,0.7-2.9
		c0.1-0.2,0.2-0.5,0.3-0.8c0.1-0.2,0.4-0.3,0.6-0.3c0.2,0,0.3,0,0.4,0.1c0.1,0.1,0.3,0.1,0.3,0.6c-0.1,1.2-0.4,1.9-1,5.1
		c-0.2,0.8-0.3,1.7-0.5,2.6c-0.1,1.1-0.1,1.7,0.1,2.5c0.1,0.3,0.2,0.6,0.3,0.8c0.2,0.3,0.5,0.5,0.7,0.4c1.1-0.5,1.7-2.2,2-3
		c0.4-1.1,1.3-5.5,1.8-8.1c0-0.1,0.1-0.4,0.3-0.7c0.1-0.3,0.5-0.3,0.7-0.3c0.5,0,0.6,0.2,0.7,0.3c0,0.1,0.1,0.3,0.1,0.4
		c0,0.4-0.2,1.5-0.5,2.7C167.2,25.1,166.7,27.2,166.4,28.2z"/>
	<path d="M176.8,32.4C176.8,32.5,176.8,32.5,176.8,32.4c0,0.2-0.3,0.3-0.4,0.4c-0.3,0.1-0.5,0.1-0.8,0.1c-0.4,0-0.9-0.1-0.9-0.6
		c0-0.1,0.4-3.1,1-7.6c-0.1,0.2-0.2,0.4-0.3,0.7l-0.8,1.8c-0.1,0.3-0.2,0.5-0.3,0.7c-0.4,0.8-0.6,1.3-0.9,2.2
		c-0.2,0.4-0.3,0.8-0.5,1.2c-0.1,0.4-0.2,0.8-0.2,1.1c0,0.2-0.3,0.3-0.4,0.4c-0.2,0.1-0.5,0.1-0.7,0.1c-0.2,0-0.5,0-0.7-0.1
		c-0.1-0.1-0.4-0.2-0.4-0.4c0-0.4,0-0.9,0-1.3l0-1.3c0-0.4,0-0.8,0-1.2l0-2.4c0-0.4,0-0.8,0-1.2c0-0.2,0-0.4,0-0.6
		c-0.4,1-0.7,2-1.1,3c-0.6,1.7-1.1,3.4-1.8,5.1c-0.1,0.3-0.4,0.3-0.6,0.3c-0.1,0-0.6-0.1-0.6-0.3v0c0.1-0.5,0.3-1.1,0.5-1.6
		c1.3-3.8,1.4-3.9,2-6c0.5-1.6,1.1-3.1,1.6-4.7c0.1-0.3,0.5-0.3,0.7-0.3c0.1,0,0.3,0,0.5,0.1c0.1,0,0.3,0.1,0.3,0.2
		c0,0.5,0.2,3.8,0.5,7.4v0c0.5-1,1-2,1.5-3.1c0.7-1.5,1.5-3,2.2-4.4c0.1-0.2,0.4-0.2,0.6-0.2c0.2,0,0.7,0,0.7,0.3
		C177.4,24.3,177.1,29.6,176.8,32.4z"/>
	<path d="M186.2,26.8c-1.2,1-2.8,1.5-4.3,1.9c-0.2,0.1-0.4,0.1-0.6,0c-0.3,1.3-0.6,2.6-0.8,3.9c-0.2,0.9-1.7,0.3-1.6-0.5l1.8-8.6
		c0.1-0.7,0.4-1.5,0.5-2.3c-0.5-0.2-0.9-0.8-0.1-1.1c1.4-0.5,3.1-0.1,4.2,0.4c1.1,0.5,2,1.4,2.2,2.7
		C187.8,24.5,187.3,25.8,186.2,26.8z M186.1,23.8c0-1-0.6-1.8-1.4-2.1c-0.6-0.2-1.2-0.3-1.8-0.3c-0.5,1.8-0.8,3.6-1.1,5.4
		c0,0.2-0.1,0.4-0.1,0.7C183.4,26.8,185.9,25.9,186.1,23.8z"/>
	<path d="M195.2,24.1c-0.2,0.7-1.9,0.4-1.6-0.4c0.4-0.8,0.6-1.8,0-2.3c-1-0.7-2.2,1.2-2.7,2.1c-0.3,0.5-0.5,1.1-0.7,1.6
		c-0.2,0.7-0.3,1,0.1,1.5c0.7,0.7,1.5,1.2,2.3,1.7c1.7,1,1.3,3.7-0.9,4.4c-2,0.7-3.9-0.7-3.8-2.7c0-0.9,1.7-0.6,1.7,0.1
		c0,0.6,0,1.2,0.5,1.4c0.5,0.2,1.2,0,1.6-0.5c0.3-0.4,0.4-1.3,0.2-1.7c-0.2-0.4-0.9-0.7-1.3-1c-0.8-0.5-1.7-1.1-2.1-2
		c-0.3-0.8,0.1-1.9,0.5-2.8c0.8-1.8,2.6-4.3,4.7-3.6c0.8,0.3,1.5,0.9,1.7,1.8C195.6,22.6,195.4,23.3,195.2,24.1z"/>
	<path d="M208.5,26.1c0,0.1,0,0.2-0.1,0.3c-0.5,2.1-1.5,4.3-2.5,5.3c-0.4,0.5-0.9,0.8-1.4,1c-0.5,0.2-1,0.3-1.5,0.3
		c-0.2,0-0.5,0-0.7-0.1c-1.2-0.2-2-1-2.4-2.1c-0.4-1.1-0.4-2.4-0.2-3.6c0-0.4,0.1-0.9,0.2-1.3c0.2-0.8,0.4-1.5,0.7-2.2
		c0.5-1.1,1.2-2.2,2.2-2.9c1-0.7,2.1-0.8,3.2-0.8c0,0,0.1,0,0.1,0c1.6,0.1,2,0.9,2.1,1c0.3,0.5,0.4,1,0.5,1.6
		C208.9,23.7,208.8,24.9,208.5,26.1z M206,28.3c0.4-1.1,0.6-2.2,0.8-3.2c0.1-1,0.2-2.1-0.1-3c0-0.2-0.2-0.6-0.2-0.7
		c0-0.1-0.2-0.2-0.3-0.3l-0.4-0.2c-0.2,0-0.3,0-0.4,0c-0.1,0-0.2,0-0.4,0.1s-0.5,0.2-0.7,0.3c-0.3,0.2-0.4,0.3-0.6,0.5
		c-0.9,0.9-1.4,2-1.7,3c-0.3,1.1-0.5,2.2-0.5,3.3c0,0.7,0,1.9,0.4,2.6c0.2,0.4,0.4,0.6,0.6,0.9c0.1,0.1,0.4,0.3,0.6,0.3
		c0.4,0,1-0.4,1-0.5c0.1-0.1,0.5-0.4,0.9-1.1C205.4,29.8,206,28.6,206,28.3z"/>
	<path d="M217.4,21.6c-0.2,0.4-0.4,0.8-0.6,1.2c-0.8,1.7-1.5,3.3-2.3,5c-0.7,1.5-1.2,2.8-1.7,4.3c-0.1,0.3-0.2,0.7-0.5,0.8
		c-0.6,0.2-1.4,0.2-1.5-0.4c0-0.9,0-1.8,0-2.8c0-2.9,0-5.7-0.1-8.6c-0.1-0.8,0.3-1.4,1.1-1c0.6,0.6,0.5,2,0.6,2.8
		c0.1,2.1,0.2,4.3,0,6.4c0.5-1.3,1.2-3.3,1.8-4.3c0.4-0.9,0.9-1.8,1.3-2.8c0.3-0.7,0.6-1.4,0.9-2c0.1-0.2,0.5-0.3,0.7-0.3
		c0.2,0,0.5,0,0.7,0.2C217.9,20.6,217.6,21.2,217.4,21.6z"/>
	<path d="M221,32c0.2,0.2,0.5,0.5,0.2,0.7c-0.2,0.2-0.4,0.2-0.7,0.2c-0.1,0-0.3,0-0.4,0c-1.3,0-2.1,0-2.6-0.1c-0.2,0-0.4,0-0.5-0.1
		c-0.2-0.1-0.5-0.2-0.6-0.4c-0.2-0.4,0-1,0.1-1.4c1.8-8.2,1.8-8.7,2.2-9.6c0-0.1,0.1-0.3,0.2-0.6c-0.1-0.1-0.3-0.2-0.3-0.3
		c0,0,0-0.1,0.1-0.1c0.3-0.2,0.7-0.2,1-0.2c0.3,0,1.6-0.1,2.6-0.1c0.2,0,0.4,0,0.6,0c0.4,0,0.8,0.3,0.9,0.6c0,0.1,0,0.2,0,0.2
		c0,0.2-0.2,0.3-0.5,0.3s-2.1,0-3.2-0.1c0,0.7-0.1,1.3-0.2,1.7c-0.2,0.9-0.4,1.9-0.6,2.8c0.8,0,1.6,0,1.7,0c0.4,0,0.7,0.1,1.1,0.3
		c0.1,0.1,0.3,0.3,0.3,0.5c0,0.1,0,0.3-0.2,0.4c-0.4,0.2-0.8,0.1-1.2,0.1c-0.8,0-1.4,0-2-0.1c-0.1,0.3-0.1,0.6-0.2,0.9
		c-0.5,2.3-0.8,3.8-0.8,4c0.3,0,1.3,0,1.9,0C220.4,31.7,220.7,31.8,221,32z"/>
	<path d="M224.6,32.6c-0.2,0.8-1.7,0.3-1.5-0.5l1.8-8.4c0.2-0.9,0.5-1.8,0.6-2.6c-0.3-0.3-0.3-0.7,0.3-0.9c1.3-0.5,3.3-0.3,4.4,0.2
		c1,0.5,1.8,1.5,1.8,2.7c0,2.5-2.6,4.4-5,4.9c0.8,1.3,1.7,2.6,2.5,3.9c0.5,0.9-1,1.2-1.3,0.5c-0.8-1.4-1.8-2.7-2.6-4.1
		C225.2,29.8,224.9,31.2,224.6,32.6z M230.2,23.6c0.7-2.2-1.5-2.3-3.2-2.2c-0.5,1.8-0.8,3.6-1.2,5.4c0,0,0,0.1,0,0.1
		C227.6,26.7,229.6,25.5,230.2,23.6z"/>
	<path d="M242.9,20.3c0.1,0.1,0.3,0.3,0.3,0.5c0,0,0,0.1-0.1,0.1c-0.2,0.3-0.6,0.3-0.8,0.3c-0.6,0-1.3,0-1.5,0
		c0,0.2-0.1,0.4-0.1,0.6c0,0-0.2,1.2-0.5,2.5c-1.2,5.3-1.3,6.5-1.8,8.2c-0.1,0.2-0.2,0.3-0.4,0.3c-0.2,0-0.3,0-0.4-0.1
		c-0.2-0.1-0.6-0.4-0.6-0.8c0.1-0.6,0.3-1.2,0.4-1.8c0.1-0.2,0.9-4.1,1.2-5.4c0.6-2.8,0.7-3.5,0.8-3.6c-1,0-1.5,0-1.9-0.5
		c-0.1-0.1-0.2-0.2-0.1-0.3c0,0,0,0,0-0.1c0.1-0.2,0.5-0.3,0.7-0.3c0.3,0,1-0.1,2-0.1c0.6,0,1.5,0,1.6,0C242,20,242.5,20,242.9,20.3
		z"/>
	<path d="M249,28c-0.2,0.8-0.3,1.4-0.4,1.9c-0.3,1.2-0.4,1.7-0.6,2.3c-0.1,0.4-0.2,0.4-0.4,0.6c-0.2,0.1-0.5,0-0.6,0
		c-0.2-0.1-0.4-0.2-0.5-0.4c-0.2-0.4-0.1-1,0-1.5c0.1-0.5,0.2-0.9,0.3-1.4c0.1-0.3,0.1-0.7,0.2-1.1c-0.6,0-1.3,0-1.9,0
		c-0.3,0-0.8-0.1-0.9-0.1c-0.1,0.7-0.3,1.4-0.4,2l-0.2,1.2c-0.1,0.4-0.2,0.8-0.3,1.2c0,0.2-0.2,0.3-0.4,0.3c-0.2,0-0.3-0.1-0.5-0.1
		c-0.3-0.1-0.7-0.5-0.6-0.8c0.2-0.9,0.4-1.8,0.6-2.6c0.5-2.4,1.2-5.9,1.5-7c0.1-0.4,0.2-0.8,0.3-1.2c0-0.2,0.1-0.4,0.1-0.6
		c0.1-0.2,0.1-0.4,0.3-0.5c0.2-0.2,0.5-0.1,0.6-0.1c0.3,0.1,0.5,0.3,0.6,0.5c0.1,0.4,0,1-0.1,1.5c-0.3,1.3-0.6,2.9-1.1,5
		c0.6,0,2.3,0,2.8,0c0.6-2.9,0.7-3.2,1.1-4.8c0.3-1.2,0.4-1.5,0.4-1.8c0-0.1,0.1-0.2,0.2-0.3c0.1-0.1,0.2-0.1,0.3-0.2
		c0,0,0.1,0,0.1,0c0.1,0,0.2,0,0.3,0.1c0.1,0.1,0.3,0.2,0.4,0.3l0.2,0.4c0,0.1,0,0.3,0,0.4C250.3,21.5,250.1,22.8,249,28z"/>
	<path d="M254.2,32c0.2,0.2,0.5,0.5,0.2,0.7c-0.2,0.2-0.4,0.2-0.7,0.2c-0.1,0-0.3,0-0.4,0c-1.3,0-2.1,0-2.6-0.1
		c-0.2,0-0.4,0-0.5-0.1c-0.2-0.1-0.5-0.2-0.6-0.4c-0.2-0.4,0-1,0.1-1.4c1.8-8.2,1.8-8.7,2.2-9.6c0-0.1,0.1-0.3,0.2-0.6
		c-0.1-0.1-0.3-0.2-0.3-0.3c0,0,0-0.1,0.1-0.1c0.3-0.2,0.7-0.2,1-0.2c0.3,0,1.6-0.1,2.6-0.1c0.2,0,0.4,0,0.6,0
		c0.4,0,0.8,0.3,0.9,0.6c0,0.1,0,0.2,0,0.2c0,0.2-0.2,0.3-0.5,0.3s-2.1,0-3.2-0.1c0,0.7-0.1,1.3-0.2,1.7c-0.2,0.9-0.4,1.9-0.6,2.8
		c0.8,0,1.6,0,1.7,0c0.4,0,0.7,0.1,1.1,0.3c0.1,0.1,0.3,0.3,0.3,0.5c0,0.1,0,0.3-0.2,0.4c-0.4,0.2-0.8,0.1-1.2,0.1
		c-0.8,0-1.4,0-2-0.1c-0.1,0.3-0.1,0.6-0.2,0.9c-0.5,2.3-0.8,3.8-0.8,4c0.3,0,1.3,0,1.9,0C253.6,31.7,253.9,31.8,254.2,32z"/>
	<path d="M264.6,32.2c0.1,0.1,0.1,0.4-0.1,0.5l-0.2,0.1c-0.4,0.2-1.3,0.1-1.7,0.1c-0.1,0-0.2,0-0.2,0c-0.5,0-2.6-0.1-2.6-1
		c0-0.3,0-0.5,0-0.8c0-0.1,0.1-0.8,0.4-2c0.3-1.2,1.4-6.2,1.6-7.1c0.1-0.5,0.4-2.1,1-2.2c0.4,0,0.8,0.3,0.9,0.6c0.1,0.2,0,0.5,0,0.8
		c-0.1,0.5-0.2,0.9-0.2,1.4c-0.2,1-0.3,1.4-1,5c-0.5,2.4-0.9,3.8-0.9,3.9c1.1,0,1.6,0,1.8,0c0.3,0,0.5,0.1,0.7,0.2
		C264.3,31.7,264.6,32,264.6,32.2z"/>
	<path d="M272.7,33c-0.6,0.1-0.8-0.3-0.8-0.8c-0.1-0.9,0-1.9,0-2.7c-0.8,0-2.9,0-2.9,0c-0.5,1-0.9,2-1.4,3c-0.2,0.4-0.8,0.5-1.1,0.5
		c-0.3,0-0.6-0.2-0.5-0.6c1.8-4,3.4-7.8,5.2-11.9c0.5-1,2.2-1,1.8,0.1c0.8,3.8,0.3,7.9,0.5,11.8C273.5,32.8,273,33,272.7,33z
		 M271.9,28.6c0-1.8-0.1-4-0.1-5.8c-0.7,1.6-1.7,4.1-2.4,5.8c0.5,0,1.3,0,1.8,0C271.3,28.6,271.8,28.6,271.9,28.6z"/>
	<path d="M279.9,31.9c0.1,0,0.7,0.1,0.7,0.5c0,0.1,0,0.2-0.1,0.3c-0.1,0.1-0.4,0.2-0.5,0.3c-0.2,0-0.4,0-0.8,0c-0.7,0-1.8,0-4.1,0
		c-0.3,0-0.6-0.1-0.8-0.3c0-0.1-0.1-0.2-0.1-0.3c0-0.1,0.1-0.2,0.2-0.3c0.5-0.8,2.1-3.7,4.3-7c1.8-2.7,2.8-4.1,2.9-4.2
		c-3.2,0-3.6,0.1-4.3-0.2c-0.2-0.1-0.3-0.2-0.2-0.3c0-0.1,0-0.2,0.3-0.3c0.5-0.2,0.8-0.2,2.4-0.2c0.5,0,1.1,0,1.8,0
		c1.6,0,1.9,0.1,1.9,0.6c0,0,0,0,0,0c-0.1,0.3-0.3,0.6-0.5,0.9c-0.5,0.7-1.2,1.8-1.5,2.1c-1.1,1.6-2,3-2.8,4.4
		c-0.7,1.1-1.8,3.1-2.2,3.9C278.7,31.9,279.3,31.8,279.9,31.9z"/>
	<path d="M291.2,20.2c-0.2,0.3-0.4,0.7-0.6,1c-0.1,0.1-0.8,1.3-1.3,2.1c-1,1.7-1.5,2.4-1.7,2.6c0,0-0.4,2.2-1.1,5.2
		c-0.3,1.3-0.5,1.5-0.5,1.6c-0.2,0.2-0.4,0.3-0.7,0.3c-0.3,0-0.6-0.1-0.6-0.3c-0.1-0.2-0.2-0.4,0.1-1.6c0.7-3.5,0.8-3.9,1.1-5
		c-0.1-0.1-0.1-0.2-0.1-0.4c-0.1-0.5-0.9-3.4-1-3.9c-0.1-0.4-0.3-0.8-0.4-1.3c0,0,0-0.1,0-0.1c0,0,0-0.1,0.1-0.1
		c0.1-0.2,0.4-0.2,0.5-0.2c0.1,0,0.2,0,0.3,0c0.3,0,0.5,0.1,0.6,0.2c0.3,0.4,0.5,0.8,0.7,1.3c0.4,1,0.5,1.8,0.8,3
		c0.3-0.6,0.7-1,1-1.4c1.3-1.9,1.9-2.5,2.4-2.9c0,0,0.2-0.1,0.3-0.1C291.1,20.1,291.3,20.1,291.2,20.2
		C291.2,20.2,291.2,20.2,291.2,20.2z"/>
	<path d="M302.2,24.8c0,0.7-0.1,1.3-0.3,2c-0.2,0.9-0.4,1.6-0.7,2.5c-0.2,0.6-0.6,1.3-1,1.9c-0.5,0.6-1.1,1-1.8,1.3
		c-0.7,0.3-1.3,0.4-2,0.4c-0.3,0-0.6,0-0.9,0c-0.1,0.1-0.2,0.1-0.4,0.1c-0.1,0-0.3,0-0.4-0.1c-0.2-0.1-0.5-0.3-0.6-0.5
		c-0.1-0.1-0.1-0.1-0.2-0.2c-0.1-0.1-0.2-0.2-0.2-0.4c0-0.2,0.3-0.3,0.4-0.3c0-0.3,0.1-0.5,0.2-0.8c0.1-0.5,1.2-5.2,2.2-10.1
		c-0.2-0.1-0.3-0.2-0.2-0.3c0.2-0.4,0.6-0.4,0.9-0.4c0.4,0,0.8,0.1,1.2,0.1c0.9,0.2,1.7,0.4,2.4,0.9c0.5,0.4,1,1,1.3,1.6
		C302.2,23.3,302.3,24,302.2,24.8z M299.7,28.3c0.5-1.4,0.7-2.8,0.9-4.1c0.1-1.2-0.1-1.8-0.4-2.3c-0.6-0.8-1.9-1-2.1-1
		c-0.7,3.4-2.1,10.3-2.2,10.6c0.5-0.1,1.2-0.1,1.7-0.4c1-0.5,1.4-1.1,1.7-1.7C299.3,29.4,299.4,29.2,299.7,28.3z"/>
	<path d="M312.1,26.1c0,0.1,0,0.2-0.1,0.3c-0.5,2.1-1.5,4.3-2.5,5.3c-0.4,0.5-0.9,0.8-1.4,1c-0.5,0.2-1,0.3-1.5,0.3
		c-0.2,0-0.5,0-0.7-0.1c-1.2-0.2-2-1-2.4-2.1c-0.4-1.1-0.4-2.4-0.2-3.6c0-0.4,0.1-0.9,0.2-1.3c0.2-0.8,0.4-1.5,0.7-2.2
		c0.5-1.1,1.2-2.2,2.2-2.9c1-0.7,2.1-0.8,3.2-0.8c0,0,0.1,0,0.1,0c1.6,0.1,2,0.9,2.1,1c0.3,0.5,0.4,1,0.5,1.6
		C312.4,23.7,312.3,24.9,312.1,26.1z M309.6,28.3c0.4-1.1,0.6-2.2,0.8-3.2c0.1-1,0.2-2.1-0.1-3c0-0.2-0.2-0.6-0.2-0.7
		c0-0.1-0.2-0.2-0.3-0.3l-0.4-0.2c-0.2,0-0.3,0-0.4,0c-0.1,0-0.2,0-0.4,0.1s-0.5,0.2-0.7,0.3c-0.3,0.2-0.4,0.3-0.6,0.5
		c-0.9,0.9-1.4,2-1.7,3c-0.3,1.1-0.5,2.2-0.5,3.3c0,0.7,0,1.9,0.4,2.6c0.2,0.4,0.4,0.6,0.6,0.9c0.1,0.1,0.4,0.3,0.6,0.3
		c0.4,0,1-0.4,1-0.5c0.1-0.1,0.5-0.4,0.9-1.1C309,29.8,309.5,28.6,309.6,28.3z"/>
	<path d="M315.9,33c-2.6,0-3-3.3-2.7-5.4c0.1-1.2,0.5-2.5,1-3.7c0.5-1.1,1.3-2.6,2.4-3.4c1-0.7,2.3-0.6,3.1,0
		c0.4,0.3,0.6,0.7,0.7,1.1c0.1,0.6,0,1.2,0.1,1.7c0.2,0.9-1.8,0.9-1.6,0.1c0.1-0.5,0.3-1.9-0.3-2.1c-0.9-0.2-1.6,1-2,1.6
		c-1,1.5-1.7,3.3-1.8,5c-0.1,0.9-0.1,4.8,1.7,3.6c0.7-0.5,1.2-1.5,1.6-2.2c0.3-0.6,0.4-1.2,0.6-1.8c-0.5,0-1,0.1-1.5,0.1
		c-0.4,0-0.8-0.2-0.9-0.5c-0.1-0.3,0.1-0.7,0.5-0.7c1-0.1,1.9-0.2,2.8-0.2c0.5,0,0.8,0.4,0.8,0.8C319.9,29,318.6,33,315.9,33z"/>
</g>
</svg>
