<?xml version="1.0" encoding="utf-8"?>
<!-- Generator: Adobe Illustrator 26.1.0, SVG Export Plug-In . SVG Version: 6.00 Build 0)  -->
<svg version="1.1" id="Layer_1" xmlns="http://www.w3.org/2000/svg" xmlns:xlink="http://www.w3.org/1999/xlink" x="0px" y="0px"
	 viewBox="0 0 372 36.9" style="enable-background:new 0 0 372 36.9;" xml:space="preserve">
<rect width="372" height="36.9" fill="white"/>
<g>
	<path d="M3.9,4.9C3.8,4.8,3.6,4.7,3.6,4.5c0-0.2,0.2-0.3,0.4-0.4C4.2,4,4.6,4,4.9,4c0.3,0,0.7,0,0.9,0H8c0.6,0,1.1,0,1.6,0.4
		C9.7,4.5,10,4.7,10,5c0,0.1,0,0.1-0.1,0.1C9.7,5.4,9.4,5.4,9,5.4H7.8c0,0,0,0,0,0.1l0,0.1c0,0,0,0,0,0.1c0,3.1,0,6.2,0,9.3
		c0,0.1,0,0.2,0,0.3l0,0.6c0,0.1,0,0.2,0,0.3v0.2c0,0.4-0.1,0.7-0.5,0.7c-0.6,0-1.3-0.4-1.3-1c0-0.2,0-0.5,0-0.7c0-0.1,0-0.2,0-0.3
		l0-0.5c0-0.1,0-0.2,0-0.3V5.4C5.2,5.4,4.4,5.4,3.9,4.9z"/>
	<path d="M16.1,3.9L16.1,3.9c0.1,0,0.1-0.1,0.2-0.1c0.5,0,1,0.5,1.2,0.9c0.1,0.2,0.1,0.8,0.1,1.5c0,0.6,0,1.3,0,1.6
		c0,2.2,0.1,4.3,0.1,6.5c0,0.3,0,0.7,0,1.1c0,0.4-0.1,0.9-0.2,1.1c-0.1,0.2-0.2,0.3-0.5,0.3c-0.1,0-0.3,0-0.4-0.1
		c-0.3-0.1-0.5-0.3-0.7-0.5c-0.2-0.3-0.3-0.8-0.3-1.4c0-0.6,0-1.1,0-1.5c0-0.3,0-0.6,0-0.9c-0.4,0-0.8,0-1.2,0c-0.4,0-0.8,0-1.2-0.1
		c0,1.3,0,2.6,0,3.9c0,0.3-0.1,0.6-0.5,0.6c-0.6,0-1.4-0.5-1.4-1c0-0.3,0-0.7,0-1c0-0.5,0-1.1,0-1.6c0-2.8,0-5.6,0-8.4
		c0-0.3,0.1-1,0.6-1c0.1,0,0.3,0,0.4,0.1c0.9,0.3,1,1.1,1,1.8c0,1.7,0,3.4,0,5.1c0.2,0,0.4,0,0.5,0c0.6,0,1.3,0,1.9,0
		c0-1.5,0-3,0.1-4.6c0-0.2,0-0.6,0-1c0-0.4,0-0.8,0.1-1c0-0.1,0.1-0.2,0.2-0.2c0,0,0.1,0,0.1-0.1C16,4,16,4,16.1,3.9L16.1,3.9z"/>
	<path d="M20.9,15c0,0.2,0,0.4,0,0.6c0.6,0,1.2,0,1.8,0c0.5,0,1.6,0.4,1.6,1c0,0.4-0.5,0.5-0.9,0.5c-0.1,0-0.3,0-0.4,0h-1.3
		c-0.3,0-0.6,0-0.9-0.1c-0.1,0-0.1,0-0.2,0c-0.1,0-0.1,0-0.2,0c0,0-0.1,0-0.1,0c-0.1,0-0.3,0-0.4-0.1c-0.7-0.2-0.9-0.7-0.9-1.3
		c0-2.5,0-5,0-7.6c0-1,0-2,0.2-3c-0.1-0.1-0.4-0.2-0.4-0.4c0-0.3,0.8-0.4,1.6-0.5C21.3,4,22.2,4,22.5,4c0.2,0,0.4,0,0.6,0
		c0.5,0,1.3,0.4,1.3,0.9c0,0.4-0.5,0.4-0.9,0.4c-0.9,0-1.8,0-2.8-0.1c0.1,0.5,0.1,1.1,0.2,1.6c0,0.9,0,1.8,0,2.7c0.5,0,1,0,1.5,0
		c0.6,0,1.7,0.4,1.7,1c0,0.4-0.5,0.5-0.9,0.5c-0.2,0-0.4,0-0.6,0c-0.6,0-1.2,0-1.8,0V15z"/>
	<path d="M34.1,17c-0.3,0-0.5,0-0.8-0.1c-3.5-0.7-4.1-4.4-4.1-7c0-1.7,0.4-3.9,1.9-5.2C31.8,4.3,32.7,4,33.6,4c0.1,0,0.3,0,0.4,0
		c0,0,0.2,0,0.2,0c1,0,2,0.3,2.6,1c1.2,1.3,1.4,3.8,1.4,5.4c0,1.5-0.3,3.3-0.9,4.7c0.1,0.2,0.3,0.5,0.5,0.8c0.2,0.3,0.3,0.6,0.3,0.8
		c0,0.3-0.3,0.5-0.6,0.5c-0.5,0-1-0.4-1.4-0.7C35.6,16.8,34.9,17,34.1,17z M33.9,13c-0.5-0.8-1-1.6-1-1.8c0-0.3,0.3-0.5,0.6-0.5
		c0.6,0,1.2,0.4,1.5,0.8c0.3,0.4,0.5,0.8,0.8,1.2c0.1-0.8,0.2-1.5,0.2-2.3c0-1.4-0.1-2.8-0.7-4.2c-0.2-0.5-0.6-1.2-1.3-1.2
		c-0.3,0-0.6,0.2-0.9,0.3c-1.5,1-1.7,3-1.7,4.5c0,1.6,0.4,4.3,1.8,5.4c0.2,0.2,0.5,0.4,0.8,0.4c0.5,0,0.9-0.5,1.1-0.9
		C35,14.6,34.4,13.8,33.9,13z"/>
	<path d="M42.6,15.5c0,0,0.1,0.1,0.1,0.1c0.1,0.1,0.2,0.1,0.3,0.1c0.4-0.2,0.7-0.8,0.9-1.3c0.2-0.6,0.3-1.1,0.4-1.5
		c0.1-0.5,0.1-1,0.1-1.4c0-0.8,0-1.7,0-2.5V6.5V5c0-0.2,0-0.4,0.1-0.6c0,0,0,0,0,0v0C44.7,4,45,4,45.4,4c0.6,0,0.9,0.3,1,0.6
		c0.1,0.2,0.1,0.4,0.1,0.6c0,0.2,0,0.4,0,0.6c0,0.6,0,1.2,0,1.8c0,1.6,0,3.2-0.1,4.7c0,0.6-0.2,1.3-0.3,1.9
		c-0.3,1.4-0.9,2.9-2.9,2.9c-0.8,0-1.5-0.3-2.1-0.7c-1.3-1-1.6-2.9-1.7-4.3c-0.1-1.3-0.1-2.7-0.1-4c0-0.6,0-1.2,0-1.9
		c0-0.3,0-0.7,0-1c0-0.2,0.1-0.6,0.2-0.8c0.1-0.3,0.4-0.4,0.7-0.4c0.9,0,1,0.5,1,1.2c0,0.3,0,0.5,0,0.8c0,0.8,0,1.7,0,2.5
		c0,1.3,0,2.6,0.1,3.9c0.1,1.1,0.3,2.1,1.1,3.1C42.6,15.5,42.6,15.5,42.6,15.5z"/>
	<path d="M47.7,15c0-0.1,0-0.3,0-0.4l0-0.8c0-0.1,0-0.3,0-0.4c0-2.2,0-4.5,0-6.8V4.9c0-0.3,0.1-1,0.7-1c0.9,0,1.3,0.8,1.4,1.4
		c0,0.3,0,0.5,0,0.8c0,0.1,0,0.2,0,0.3l0,0.6c0,0.1,0,0.2,0,0.3c0,0.4,0,0.8,0,1.2l0,2.3c0,0.4,0,0.8,0,1.2c0,1.5,0,2.9,0,4.4
		c0,0.3-0.1,0.6-0.6,0.6c-0.6,0-1.3-0.5-1.4-1C47.7,15.7,47.7,15.3,47.7,15z"/>
	<path d="M54.5,15.7c0.5,0,1-0.5,1.2-0.8c0.1-0.2,0.2-0.5,0.4-0.7c0.2-0.2,0.4-0.4,0.7-0.4c0.5,0,1,0.3,1.1,0.7v0c0,0,0,0,0,0v0.1
		c0,0.4-0.2,0.8-0.4,1.1C57,16.5,56.2,17,55.2,17c-0.6,0-1.4-0.2-1.8-0.6c-1.6-1.2-2.1-3.3-2.1-5c0-1.7,0.4-5,1.5-6.4
		C53.2,4.4,53.9,4,54.7,4c1.7,0,3.4,1.7,3.4,3.2c0,0.2,0,0.7-0.4,0.7c-0.5,0-1-0.3-1.1-0.7c-0.1-0.3-0.1-0.6-0.3-0.9
		c-0.1-0.3-0.3-0.6-0.6-0.9c-0.1-0.1-0.2-0.2-0.3-0.2c-0.1,0-0.2,0-0.3,0.1c-1.6,0.8-1.9,5.1-1.9,6.6c0,1.2,0.2,2.6,1.1,3.6
		L54.5,15.7L54.5,15.7C54.5,15.7,54.5,15.7,54.5,15.7z"/>
	<path d="M61.4,16.4c0,0.3-0.2,0.5-0.6,0.5c-0.6,0-1.3-0.5-1.3-1V7.5c0-0.6,0.1-1.2,0.1-1.8c0-0.4-0.1-0.7-0.1-1.1
		c0-0.4,0.4-0.6,0.8-0.6c0.6,0,1.1,0.3,1.1,0.9c0,0.2,0,0.5,0,0.7c0,0.5,0,1,0,1.5c0,0.8,0,1.5,0,2.3c0.3-0.5,0.7-0.9,1.1-1.4
		c0.7-0.9,1.3-1.8,1.9-2.6c0.1-0.2,0.3-0.4,0.4-0.6c0.1-0.2,0.3-0.4,0.4-0.5C65.3,4.1,65.5,4,65.8,4C66.3,4,67,4.4,67,4.9
		c0,0.1,0,0.2-0.1,0.3C66,6.5,65,7.7,64.1,8.9c-0.4,0.5-0.7,1.1-1.1,1.6c0.2,0.5,0.5,0.9,0.8,1.3c0.3,0.4,0.7,0.8,1,1.2
		c0.5,0.6,0.9,1.3,1.4,1.9c0.3,0.3,0.5,0.7,0.8,1c0.1,0.1,0.2,0.3,0.2,0.5c0,0.4-0.4,0.6-0.8,0.6c-0.4,0-0.6-0.1-0.9-0.4
		c-0.3-0.3-0.5-0.6-0.7-0.9c-0.5-0.6-1-1.3-1.4-1.9c-0.4-0.6-0.9-1.2-1.3-1.8c-0.2,0.2-0.4,0.5-0.7,0.7V16.4z"/>
	<path d="M79.5,13.4c0,1.1-0.4,2.3-1.5,2.9c-1.3,0.8-3,0.8-4.5,0.8c-0.6,0-1.1-0.6-1.1-1.1V7.6c0-0.1,0-0.3,0-0.5l0-0.9
		c0-0.2,0-0.3,0-0.5c0-0.4-0.1-0.8-0.1-1.2c0-0.4,0.4-0.6,0.8-0.6c0.1,0,0.2,0,0.3,0c0.4-0.1,0.7-0.1,1.1-0.1c2.6,0,4.6,1.6,4.6,3.8
		c0,1.2-0.7,2.1-1.8,2.8C78.8,11.1,79.5,12.1,79.5,13.4z M77.3,7.3c0-0.6-0.3-1.3-0.9-1.7c-0.3-0.2-0.5-0.2-0.9-0.2
		s-0.8,0.1-1.1,0.1c0,0.6,0,1.1,0,1.6c0,1,0,2,0,3C75.6,9.7,77.3,8.9,77.3,7.3z M74.3,15.5c1.7-0.1,2.9-0.5,3.2-2.1
		c0-0.2,0.1-0.4,0.1-0.6c0-0.7-0.3-0.8-1-1c-0.4-0.1-0.7-0.1-1.1-0.1c-0.4,0-0.8,0.1-1.2,0.2V15.5z"/>
	<path d="M82.8,16.5c0,0.3-0.2,0.5-0.6,0.5c-0.6,0-1.3-0.5-1.3-1V7.8c0-0.6,0-1.2,0-1.8c0-0.2,0-0.5,0-0.7c-0.2-0.1-0.3-0.3-0.3-0.5
		c0-0.7,1.7-0.8,2.3-0.8c2.7,0,5.2,1.5,5.2,4c0,2-1.7,3.6-3.9,4.2c0.7,0.8,1.4,1.6,2.1,2.5c0.4,0.4,0.7,0.8,1.1,1.3
		c0.1,0.1,0.2,0.3,0.2,0.5c0,0.4-0.4,0.6-0.8,0.6c-0.4,0-0.7-0.1-0.9-0.4c-0.4-0.4-0.7-0.9-1.1-1.3c-0.7-0.8-1.4-1.6-2.1-2.4V16.5z
		 M86.2,7.4c0-1.6-1.5-1.8-3-1.8h-0.4c0,0.6,0,1.1,0,1.7c0,1.2,0,2.4,0,3.6C84.7,10.5,86.2,9.2,86.2,7.4z"/>
	<path d="M94.5,4.1c0.2,0,0.4,0.1,0.5,0.1c2.5,0.6,2.9,4.2,2.9,6.2c0,1.6-0.4,4-1.3,5.3c-0.6,0.9-1.6,1.4-2.7,1.4
		c-1.6,0-2.9-0.8-3.7-2.2C89.2,13.4,89,11.5,89,10c0-2.9,1-6,4.4-6l0.2,0c0,0,0,0,0.1,0c0,0,0.1,0,0.1,0l0.2,0c0,0,0.1,0,0.1,0h0
		C94,4,94.2,4,94.5,4.1z M93.6,15.8c0.3,0,0.6-0.3,0.8-0.4c1-0.9,1.3-3.7,1.3-4.9c0-1.5-0.2-2.9-0.8-4.3c-0.2-0.5-0.5-1.1-1.2-1.1
		c-0.2,0-0.3,0-0.5,0.1c-1.8,0.7-2.1,3.2-2.1,4.7c0,1.6,0.4,4.6,1.9,5.6C93.2,15.7,93.4,15.8,93.6,15.8z"/>
	<path d="M103,16.4c0,0.5-0.6,0.7-1.1,0.7c-0.5,0-0.8-0.3-1-0.7c-0.1-0.2-0.2-0.4-0.2-0.6c-0.1-0.5-0.2-1-0.3-1.5
		c-0.6-3.1-1.2-6.3-1.8-9.4c0-0.1,0-0.2,0-0.3c0-0.4,0.2-0.7,0.7-0.7c0.3,0,0.5,0.2,0.6,0.4c0.1,0.1,0.1,0.3,0.2,0.4
		c0,0.2,0.1,0.3,0.1,0.5c0.2,0.6,0.3,1.3,0.5,1.9c0.4,1.6,0.7,3.3,1.2,5c0.3-2.4,0.5-4.8,1.1-7.1c0-0.1,0.1-0.3,0.1-0.4
		c0-0.1,0.1-0.3,0.1-0.4c0.2-0.3,0.5-0.4,0.9-0.4c0.5,0,0.7,0.1,0.9,0.5c0.1,0.1,0.1,0.2,0.1,0.3c0,0.1,0.1,0.2,0.1,0.4
		c0.6,2.4,0.8,4.7,1.3,7.1c0.3-1.7,0.5-3.5,0.8-5.2c0.1-0.6,0.3-1.3,0.4-1.9c0-0.1,0-0.3,0.1-0.4c0-0.1,0.1-0.3,0.1-0.4
		c0.2-0.3,0.4-0.4,0.8-0.4c0.4,0,0.9,0.2,0.9,0.6c0,0.4-0.1,0.8-0.1,1.3c-0.1,0.7-0.2,1.4-0.3,2.2c-0.4,2.3-0.8,4.5-1.2,6.7
		c0,0.3-0.1,0.6-0.1,0.9c0,0.3-0.2,0.9-0.3,1.1c-0.2,0.3-0.4,0.3-0.8,0.3c-0.7,0-1-0.6-1.2-1c-0.2-0.5-0.3-0.9-0.4-1.4
		c-0.2-0.9-0.3-1.8-0.5-2.7s-0.3-1.8-0.5-2.7C103.7,11.6,103.4,14,103,16.4L103,16.4z"/>
	<path d="M115.6,5c0-0.1,0-0.2,0-0.3c0-0.1,0-0.2,0.1-0.3c0.1-0.2,0.2-0.3,0.6-0.3c0.6,0,1.3,0.3,1.4,0.8c0.1,0.2,0.1,0.4,0.1,0.6v2
		c0,3,0,6.1,0,9.1c0,0.3-0.3,0.5-0.6,0.5c-1,0-1.7-0.7-2.1-1.4c-0.2-0.4-0.4-0.7-0.6-1.1c-0.7-1.3-1.3-2.6-1.9-4v4.6
		c0,0.6,0,1.3-0.1,1.4c-0.1,0.2-0.3,0.4-0.6,0.4c-0.8,0-1.3-0.7-1.3-1.4c0-0.3,0-0.6,0-0.8c0-3,0-6,0-9c0-0.2,0-0.4,0-0.6
		c0-0.1,0-0.2,0-0.4c0-0.1,0-0.3,0.1-0.4c0.1-0.2,0.2-0.4,0.6-0.4c0.5,0,0.9,0.3,1.1,0.7c0.2,0.3,0.2,0.5,0.2,0.8
		c0.1,0.1,0.7,1.9,0.8,2.1c0.6,1.6,1.1,3.2,1.8,4.7c0,0.1,0.1,0.1,0.1,0.2l0.2,0.5c0,0.1,0.1,0.1,0.1,0.2V5z"/>
	<path d="M125.3,14.7c0,0.4,0,1.7-0.2,2.1c-0.1,0.2-0.2,0.3-0.5,0.3c-0.6,0-0.9-0.3-1.1-0.8c-0.1-0.3-0.2-0.7-0.2-1
		c0-0.2,0-0.3,0-0.5c0-2.9,0-5.9,0-8.9c0-0.3,0-0.8,0.1-1.1c0-0.1-0.1-0.1-0.1-0.2c0-0.1,0-0.2,0.1-0.3c0.3-0.2,0.8-0.2,1.1-0.2
		c0.8,0,1.5,0,2.2,0c0.1,0,0.3,0,0.4,0c0.2,0,0.3,0,0.5,0c0.5,0.1,1.4,0.5,1.4,1c0,0.5-1.8,0.5-2.1,0.5c-0.6,0-1.2,0-1.8,0
		c0.1,0.7,0.1,1.4,0.1,2v2.3c0.3,0,0.7,0,1,0c0.6,0,1.1,0.1,1.5,0.4c0.2,0.2,0.4,0.4,0.4,0.7c0,0.4-0.4,0.5-0.8,0.5
		c-0.7,0-1.5,0-2.2-0.1C125.3,12.4,125.3,13.6,125.3,14.7z"/>
	<path d="M135.2,4.1c0.2,0,0.4,0.1,0.5,0.1c2.5,0.6,2.9,4.2,2.9,6.2c0,1.6-0.4,4-1.3,5.3c-0.6,0.9-1.6,1.4-2.7,1.4
		c-1.6,0-2.9-0.8-3.7-2.2c-0.8-1.4-1.1-3.3-1.1-4.9c0-2.9,1-6,4.4-6l0.2,0c0,0,0,0,0.1,0c0,0,0.1,0,0.1,0l0.2,0c0,0,0.1,0,0.1,0h0
		C134.8,4,135,4,135.2,4.1z M134.3,15.8c0.3,0,0.6-0.3,0.8-0.4c1-0.9,1.3-3.7,1.3-4.9c0-1.5-0.2-2.9-0.8-4.3
		c-0.2-0.5-0.5-1.1-1.2-1.1c-0.2,0-0.3,0-0.5,0.1c-1.8,0.7-2.1,3.2-2.1,4.7c0,1.6,0.4,4.6,1.9,5.6C133.9,15.7,134.2,15.8,134.3,15.8
		z"/>
	<path d="M142.6,13.6c-0.1,0.3-0.4,1-0.6,1.6c-0.3,0.7-0.6,1.3-0.7,1.5c-0.2,0.2-0.4,0.3-0.7,0.3c-0.3,0-0.9-0.1-0.9-0.5
		c0-0.7,2.3-5.7,2.8-6.7c-0.5-1.1-0.9-2.2-1.5-3.3c-0.2-0.3-0.3-0.6-0.5-0.9c-0.1-0.2-0.3-0.4-0.4-0.6c0-0.1-0.1-0.2-0.2-0.3
		c0-0.1-0.1-0.2-0.1-0.3c0-0.3,0.3-0.4,0.6-0.4c0.1,0,0.3,0,0.4,0.1c0.9,0.3,2.3,2.9,2.7,3.7c0.4-0.7,0.8-1.5,1.2-2.2
		c0.1-0.2,0.2-0.5,0.4-0.7c0.1-0.3,0.3-0.5,0.4-0.6c0.2-0.2,0.5-0.3,0.8-0.3s0.8,0.1,0.8,0.5c0,0.1-0.2,0.6-0.3,0.7
		c-0.8,1.5-1.6,3.1-2.4,4.6c0.3,0.6,0.6,1.2,0.9,1.8c0.5,1,1,2,1.4,3.1c0.1,0.2,0.3,0.6,0.4,1c0.2,0.4,0.3,0.8,0.3,0.9
		c0,0.4-0.7,0.6-1,0.6c-0.4,0-0.8-0.1-1-0.5c-0.1-0.1-0.2-0.3-0.2-0.5c-0.1-0.2-0.1-0.3-0.2-0.5c-0.6-1.2-1.2-2.5-1.6-3.7
		C143.1,12.5,142.8,13,142.6,13.6z"/>
	<path d="M155.2,15.5L155.2,15.5c0.6-0.6,0.9-1.6,0.9-2.4c0-0.5,0.1-1,0.1-1.5c0-1.2,0.1-2.3,0.1-3.5c0-1,0-2,0.2-3
		c-0.2,0-0.5-0.1-0.7-0.2s-0.5-0.2-0.5-0.4c0-0.3,0.7-0.5,1.4-0.6c0.8-0.1,1.6-0.1,1.8-0.1c0.4,0,1.2,0.3,1.2,0.7
		c0,0.5-1,0.6-1.4,0.6c0.2,1.2,0.2,2.5,0.2,3.8c0,1,0,2.1,0,3.1c0,1.3-0.1,2.8-1.1,4c-0.5,0.5-1.3,0.9-2.1,0.9c-2,0-2.8-2-2.8-3.4
		c0-0.6,0.3-1,1.1-1c0.5,0,0.8,0.1,0.9,0.3c0.1,0.1,0.1,0.2,0.1,0.4s0,0.3,0,0.5C154.5,14.4,154.8,15,155.2,15.5L155.2,15.5z"/>
	<path d="M164,15.5c0,0,0.1,0.1,0.1,0.1c0.1,0.1,0.2,0.1,0.3,0.1c0.4-0.2,0.7-0.8,0.9-1.3c0.2-0.6,0.3-1.1,0.4-1.5
		c0.1-0.5,0.1-1,0.1-1.4c0-0.8,0-1.7,0-2.5V6.5V5c0-0.2,0-0.4,0.1-0.6c0,0,0,0,0,0v0c0.2-0.3,0.5-0.3,0.8-0.3c0.6,0,0.9,0.3,1,0.6
		c0.1,0.2,0.1,0.4,0.1,0.6c0,0.2,0,0.4,0,0.6c0,0.6,0,1.2,0,1.8c0,1.6,0,3.2-0.1,4.7c0,0.6-0.2,1.3-0.3,1.9
		c-0.3,1.4-0.9,2.9-2.9,2.9c-0.8,0-1.5-0.3-2.1-0.7c-1.3-1-1.6-2.9-1.7-4.3c-0.1-1.3-0.1-2.7-0.1-4c0-0.6,0-1.2,0-1.9
		c0-0.3,0-0.7,0-1c0-0.2,0.1-0.6,0.2-0.8c0.1-0.3,0.4-0.4,0.7-0.4c0.9,0,1,0.5,1,1.2c0,0.3,0,0.5,0,0.8c0,0.8,0,1.7,0,2.5
		c0,1.3,0,2.6,0.1,3.9c0.1,1.1,0.3,2.1,1.1,3.1C163.9,15.5,163.9,15.5,164,15.5z"/>
	<path d="M175.1,6.6c0.1-0.5,0.4-1.9,0.7-2.3c0.2-0.3,0.3-0.3,0.7-0.3c0.4,0,0.7,0.1,0.8,0.4c0.1,0.1,0.1,0.3,0.1,0.5
		c0,0.2,0,0.3,0,0.5c0.4,2.7,0.8,5.4,1.2,8.1c0.1,0.7,0.2,1.4,0.3,2.1c0,0.3,0.1,0.6,0.1,0.9c0,0.5-0.8,0.6-1.1,0.6
		c-0.5,0-0.9-0.2-1.1-0.7c0-0.1,0-0.2-0.1-0.3c0-0.1,0-0.2,0-0.3c-0.1-0.6-0.1-1.2-0.1-1.8c-0.1-1.5-0.2-2.9-0.3-4.4
		c-0.2,1.1-0.5,2.2-0.7,3.2c-0.2,1.1-0.4,2.2-0.4,3.4c0,0.1,0,0.2,0,0.4c0,0.5-0.6,0.6-1,0.6c-0.6,0-0.9-0.2-1.2-0.7
		c-0.1-0.2-0.1-0.4-0.1-0.5c0-0.2,0-0.4-0.1-0.6c0-0.2-0.1-0.4-0.1-0.7c-0.4-1.8-1-3.5-1.4-5.2c-0.2,1.6-0.4,3.1-0.6,4.7
		c-0.1,0.6-0.2,1.2-0.2,1.8c0,0.1,0,0.3,0,0.4s0,0.3-0.1,0.4c-0.1,0.3-0.4,0.4-0.7,0.4c-0.3,0-0.8-0.1-0.8-0.5
		c0-0.3,0.1-0.5,0.1-0.8c0.1-0.5,0.1-1,0.2-1.6c0.2-1.4,0.3-2.9,0.5-4.3c0.2-1.7,0.5-3.4,0.6-5.1c0.1-0.5,0.1-0.8,0.8-0.8
		c0.4,0,0.7,0.1,0.9,0.4c0,0,0.1,0.4,0.2,0.7c0.1,0.3,0.2,0.7,0.2,0.8c0.5,2,1,4,1.5,6C174.5,10.1,174.7,8.3,175.1,6.6z"/>
	<path d="M183.2,16.6c0,0.3-0.3,0.6-0.6,0.6c-0.6,0-1.3-0.5-1.3-1V7.6c0-0.7,0-1.4,0-2.2c-0.3-0.1-0.7-0.4-0.7-0.8
		c0-0.6,1.4-0.8,1.9-0.8c1,0,2.1,0.3,3,0.7c1.8,0.8,3.1,2.2,3.1,4c0,0.8-0.3,1.7-0.9,2.3c-0.8,0.8-2.2,1.4-3.3,1.7
		c-0.2,0.1-0.4,0.1-0.6,0.2c-0.2,0-0.3,0.1-0.5,0V16.6z M186.6,8.3c0-1.1-0.7-2-1.8-2.4c-0.5-0.2-1-0.3-1.6-0.3c0,0.6,0,1.1,0,1.7
		c0,1.4,0,2.7,0,4C184.7,10.7,186.6,9.9,186.6,8.3z"/>
	<path d="M190.2,14c0-0.3,0.3-0.5,0.7-0.5c0.6,0,1,0.3,1.2,0.8c0.1,0.1,0.1,0.3,0.2,0.5c0.1,0.1,0.1,0.3,0.2,0.4
		c0.2,0.3,0.5,0.4,0.9,0.4c0.9,0,1.1-0.9,1.1-1.5c0-0.3-0.1-0.6-0.3-0.9c-0.2-0.2-0.3-0.3-0.6-0.4c-0.2-0.1-0.5-0.2-0.7-0.2
		c-1.8-0.6-3.3-1.4-3.3-3.3c0-1.6,0.9-5.3,3.4-5.3c0.6,0,1.2,0.2,1.7,0.6c1.2,0.8,1.5,2.2,1.5,3.4c0,0.4,0,0.9-0.1,1.3
		c-0.1,0.4-0.3,0.7-0.8,0.7c-0.6,0-1.1-0.3-1.1-0.9c0-0.2,0-0.3,0-0.5c0-0.3,0.1-0.7,0.1-1c0-0.5-0.1-2-0.8-2
		c-0.2,0-0.4,0.2-0.6,0.3c-1,1-1.4,2.6-1.4,3.9c0,0.4,0.1,0.6,0.4,0.8c0.2,0.1,0.4,0.3,0.6,0.3c0.2,0.1,0.5,0.2,0.7,0.3
		c1.9,0.7,3.2,1.5,3.2,3.4c0,1.4-0.8,2.6-2.6,2.6c-1.9,0-3.2-1.4-3.6-2.9C190.2,14.1,190.2,14.1,190.2,14z"/>
	<path d="M206.8,4.1c0.2,0,0.4,0.1,0.5,0.1c2.5,0.6,2.9,4.2,2.9,6.2c0,1.6-0.4,4-1.3,5.3c-0.6,0.9-1.6,1.4-2.7,1.4
		c-1.6,0-2.9-0.8-3.7-2.2c-0.8-1.4-1.1-3.3-1.1-4.9c0-2.9,1-6,4.4-6l0.2,0c0,0,0,0,0.1,0c0,0,0.1,0,0.1,0l0.2,0c0,0,0.1,0,0.1,0h0
		C206.4,4,206.6,4,206.8,4.1z M206,15.8c0.3,0,0.6-0.3,0.8-0.4c1-0.9,1.3-3.7,1.3-4.9c0-1.5-0.2-2.9-0.8-4.3
		c-0.2-0.5-0.5-1.1-1.2-1.1c-0.2,0-0.3,0-0.5,0.1c-1.8,0.7-2.1,3.2-2.1,4.7c0,1.6,0.4,4.6,2,5.6C205.5,15.7,205.8,15.8,206,15.8z"/>
	<path d="M218.1,4.3c0,0.1,0,0.2,0,0.3c0,0.2,0,0.4-0.1,0.5c0,0.2-0.1,0.4-0.1,0.5l-0.3,1.2c-0.4,1.6-0.8,3.3-1.2,4.9
		c-0.3,1.4-0.6,2.8-0.8,4.2c0,0.1,0,0.3-0.1,0.4c-0.1,0.5-0.6,0.6-1,0.6c-0.5,0-0.9-0.2-1.1-0.6c-0.1-0.1-0.1-0.3-0.1-0.5
		c0-0.1-0.1-0.3-0.1-0.5c-0.1-0.6-0.3-1.2-0.4-1.8c-0.4-1.9-0.8-3.8-1.3-5.7c-0.2-0.9-0.4-1.8-0.7-2.7c0-0.1-0.1-0.2-0.1-0.3
		c0-0.1,0-0.2,0-0.3c0-0.3,0.2-0.7,0.7-0.7c0.2,0,0.4,0.1,0.6,0.1c0.3,0.1,0.5,0.6,0.7,1.1c0.2,0.5,0.3,1,0.4,1.3c0.6,2,1.1,4,1.4,6
		c0.2-1.1,0.4-2.3,0.7-3.4c0.3-1.4,0.7-2.7,1-4.1c0-0.1,0-0.2,0.1-0.3c0-0.1,0-0.2,0.1-0.3c0.2-0.3,0.5-0.3,0.8-0.3
		C217.5,3.9,217.8,4,218.1,4.3L218.1,4.3z"/>
	<path d="M221.1,15c0,0.2,0,0.4,0,0.6c0.6,0,1.2,0,1.8,0c0.5,0,1.6,0.4,1.6,1c0,0.4-0.5,0.5-0.9,0.5c-0.1,0-0.3,0-0.4,0h-1.3
		c-0.3,0-0.6,0-0.9-0.1c-0.1,0-0.1,0-0.2,0c-0.1,0-0.1,0-0.2,0c0,0-0.1,0-0.1,0c-0.2,0-0.3,0-0.4-0.1c-0.7-0.2-0.9-0.7-0.9-1.3
		c0-2.5,0-5,0-7.6c0-1,0-2,0.2-3c-0.1-0.1-0.4-0.2-0.4-0.4c0-0.3,0.8-0.4,1.6-0.5c0.9-0.1,1.8-0.1,2-0.1c0.2,0,0.4,0,0.6,0
		c0.5,0,1.3,0.4,1.3,0.9c0,0.4-0.5,0.4-0.9,0.4c-0.9,0-1.8,0-2.8-0.1c0.1,0.5,0.1,1.1,0.2,1.6c0,0.9,0,1.8,0,2.7c0.5,0,1,0,1.5,0
		c0.6,0,1.7,0.4,1.7,1c0,0.4-0.5,0.5-0.9,0.5c-0.2,0-0.4,0-0.6,0c-0.6,0-1.2,0-1.8,0V15z"/>
	<path d="M228,16.5c0,0.3-0.2,0.5-0.6,0.5c-0.6,0-1.3-0.5-1.3-1V7.8c0-0.6,0-1.2,0-1.8c0-0.2,0-0.5,0-0.7c-0.2-0.1-0.3-0.3-0.3-0.5
		c0-0.7,1.7-0.8,2.3-0.8c2.7,0,5.2,1.5,5.2,4c0,2-1.7,3.6-3.9,4.2c0.7,0.8,1.4,1.6,2.1,2.5c0.4,0.4,0.7,0.8,1.1,1.3
		c0.1,0.1,0.2,0.3,0.2,0.5c0,0.4-0.4,0.6-0.8,0.6c-0.4,0-0.7-0.1-0.9-0.4c-0.4-0.4-0.7-0.9-1.1-1.3c-0.7-0.8-1.4-1.6-2.1-2.4V16.5z
		 M231.4,7.4c0-1.6-1.5-1.8-3-1.8H228c0,0.6,0,1.1,0,1.7c0,1.2,0,2.4,0,3.6C230,10.5,231.4,9.2,231.4,7.4z"/>
	<path d="M238.1,4.9c-0.1-0.1-0.2-0.3-0.2-0.4c0-0.2,0.2-0.3,0.4-0.4c0.2-0.1,0.5-0.1,0.9-0.1c0.3,0,0.7,0,0.9,0h2.2
		c0.6,0,1.1,0,1.6,0.4c0.2,0.1,0.4,0.4,0.4,0.6c0,0.1,0,0.1-0.1,0.1c-0.2,0.3-0.5,0.3-0.9,0.3H242c0,0,0,0,0,0.1l0,0.1
		c0,0,0,0,0,0.1c0,3.1,0,6.2,0,9.3c0,0.1,0,0.2,0,0.3l0,0.6c0,0.1,0,0.2,0,0.3v0.2c0,0.4-0.1,0.7-0.5,0.7c-0.6,0-1.3-0.4-1.3-1
		c0-0.2,0-0.5,0-0.7c0-0.1,0-0.2,0-0.3l0-0.5c0-0.1,0-0.2,0-0.3V5.4C239.4,5.4,238.6,5.4,238.1,4.9z"/>
	<path d="M250.2,3.9L250.2,3.9c0.1,0,0.1-0.1,0.2-0.1c0.5,0,1,0.5,1.2,0.9c0.1,0.2,0.1,0.8,0.2,1.5c0,0.6,0,1.3,0,1.6
		c0,2.2,0.1,4.3,0.1,6.5c0,0.3,0,0.7,0,1.1c0,0.4-0.1,0.9-0.2,1.1c-0.1,0.2-0.2,0.3-0.5,0.3c-0.2,0-0.3,0-0.5-0.1
		c-0.3-0.1-0.5-0.3-0.7-0.5c-0.2-0.3-0.3-0.8-0.3-1.4c0-0.6,0-1.1,0-1.5c0-0.3,0-0.6,0-0.9c-0.4,0-0.8,0-1.2,0s-0.8,0-1.2-0.1
		c0,1.3,0,2.6,0,3.9c0,0.3-0.1,0.6-0.5,0.6c-0.6,0-1.3-0.5-1.4-1c0-0.3,0-0.7,0-1c0-0.5,0-1.1,0-1.6c0-2.8,0-5.6,0-8.4
		c0-0.3,0.1-1,0.6-1c0.1,0,0.3,0,0.4,0.1c0.9,0.3,1,1.1,1,1.8c0,1.7,0,3.4,0,5.1c0.2,0,0.4,0,0.5,0c0.6,0,1.3,0,1.9,0
		c0-1.5,0-3,0.1-4.6c0-0.2,0-0.6,0-1c0-0.4,0-0.8,0.1-1c0-0.1,0.1-0.2,0.2-0.2c0,0,0.1,0,0.1-0.1C250.2,4,250.2,4,250.2,3.9
		L250.2,3.9z"/>
	<path d="M255.1,15c0,0.2,0,0.4,0,0.6c0.6,0,1.2,0,1.8,0c0.5,0,1.6,0.4,1.6,1c0,0.4-0.5,0.5-0.9,0.5c-0.1,0-0.3,0-0.4,0h-1.3
		c-0.3,0-0.6,0-0.9-0.1c-0.1,0-0.1,0-0.2,0c-0.1,0-0.1,0-0.2,0c0,0-0.1,0-0.2,0c-0.1,0-0.3,0-0.4-0.1c-0.7-0.2-0.9-0.7-0.9-1.3
		c0-2.5,0-5,0-7.6c0-1,0-2,0.2-3c-0.1-0.1-0.4-0.2-0.4-0.4c0-0.3,0.8-0.4,1.6-0.5c0.9-0.1,1.8-0.1,2-0.1c0.2,0,0.4,0,0.6,0
		c0.5,0,1.3,0.4,1.3,0.9c0,0.4-0.5,0.4-0.9,0.4c-0.9,0-1.8,0-2.8-0.1c0.1,0.5,0.1,1.1,0.2,1.6c0,0.9,0,1.8,0,2.7c0.5,0,1,0,1.5,0
		c0.6,0,1.7,0.4,1.7,1c0,0.4-0.5,0.5-0.9,0.5c-0.2,0-0.4,0-0.6,0c-0.6,0-1.2,0-1.8,0V15z"/>
	<path d="M264,16.3c-0.1-0.1-0.2-0.2-0.3-0.4c-0.2-0.6-0.2-1.3-0.2-1.9c0-1.7,0-3.5,0-5.2c0-1.3,0-2.5,0.1-3.8c0-0.1,0-0.2,0-0.3
		c0-0.1,0-0.2,0-0.3c0.1-0.3,0.3-0.6,0.6-0.6c0.5,0,0.9,0.3,1.1,0.7c0.2,0.3,0.2,1.5,0.3,2.7c0,1.2,0,2.5,0,3c0,1.4,0,2.7,0,4.1
		c0,0.3,0,0.6,0,0.9c0.3,0,0.6,0,0.9,0s0.6,0,0.9,0.1c0.6,0.1,1.2,0.3,1.5,0.8c0.1,0.1,0.1,0.2,0.1,0.4c0,0.3-0.6,0.5-0.9,0.5
		c-0.2,0-0.3,0-0.4,0c-0.3,0-0.7,0-1,0c-0.5,0-1.4,0-1.9-0.2c-0.1,0-0.1-0.1-0.2-0.1c-0.1,0-0.1-0.1-0.2-0.1c-0.1,0-0.2-0.1-0.3-0.1
		C264.2,16.4,264.1,16.4,264,16.3z"/>
	<path d="M272.8,14l-0.2,0.9c0,0.2-0.1,0.3-0.1,0.5l-0.1,0.5c-0.1,0.7-0.3,1-1.1,1c-0.4,0-1.2-0.2-1.2-0.7c0-0.2,0-0.4,0.1-0.6
		c0-0.2,0.1-0.4,0.1-0.5l0.4-2.2c0.5-2.6,1-5.3,1.8-7.9c0.1-0.5,0.5-0.9,1.1-0.9c0.5,0,0.9,0.4,0.9,0.8c0,0,0,0.1,0,0.1
		c0,0,0.1,0.1,0.1,0.2c0,0.1,0.1,0.2,0.1,0.3c0.7,1.7,1.2,3.5,1.5,5.3c0.4,1.8,0.7,3.6,1.2,5.3c0,0,0,0.1,0,0.1
		c0,0.5-0.5,0.6-0.9,0.6c-0.3,0-0.5-0.1-0.7-0.3c-0.2-0.2-0.3-0.8-0.4-1.4c-0.1-0.6-0.2-1.3-0.3-1.6c-0.2,0-0.4,0-0.6,0l-1.1,0
		c-0.2,0-0.4,0-0.6,0C272.9,13.7,272.9,13.9,272.8,14z M274.1,12.6c0.1,0,0.2,0,0.2,0l0.4,0c0.1,0,0.2,0,0.2,0c-0.3-1.5-0.7-3-1-4.5
		c-0.2,1.5-0.5,3-0.8,4.5C273.4,12.6,273.8,12.6,274.1,12.6z"/>
	<path d="M278.9,15.8c0-0.1,0-0.1,0-0.1c0.2-0.6,0.4-1.3,0.7-1.9c0.6-1.6,1.2-3.1,2-4.7l1.3-2.7c0.2-0.4,0.4-0.9,0.6-1.3
		c-0.8,0-1.7,0-2.5,0c-0.1,0-0.3,0-0.5,0c-0.2,0-0.5,0-0.7-0.1c-0.4-0.1-0.8-0.2-0.8-0.6c0-0.6,1.5-0.6,1.9-0.6c0.9,0,1.7,0,2.6,0
		c0.2,0,0.4,0,0.6,0c0.2,0,0.4,0,0.6,0c0.4,0.1,0.9,0.3,0.9,0.7c0,0.2,0,0.3-0.1,0.5c-0.1,0.2-0.1,0.3-0.2,0.4
		c-0.4,0.7-0.6,1.4-1,2.1c-0.7,1.4-1.3,2.9-1.9,4.3c-0.5,1.2-0.9,2.4-1.4,3.6c0.8,0,1.7,0,2.5,0c0.2,0,0.3,0,0.5,0
		c0.2,0,0.3,0,0.5,0.1c0.4,0.1,0.8,0.3,0.8,0.7c0,0.3-0.3,0.5-0.6,0.5c-0.1,0-0.3,0-0.5,0.1c-0.2,0-0.3,0-0.4,0c-1.4,0-2.7,0-4.1,0
		c-0.5,0-1.1-0.2-1.1-0.7c0-0.1,0-0.1,0.1-0.2c0,0,0-0.1,0.1-0.1C278.9,15.9,278.9,15.8,278.9,15.8z"/>
	<path d="M289.3,10C289.3,10,289.3,10,289.3,10c-0.1-0.1-0.1-0.2-0.1-0.3c-0.6-1.3-1.2-2.6-1.9-3.9c-0.1-0.2-0.3-0.5-0.4-0.7
		c-0.1-0.2-0.3-0.5-0.3-0.7c0-0.4,0.6-0.5,0.9-0.5c0.3,0,0.5,0.1,0.8,0.3c0.8,0.6,1.9,3,2.3,4c0.3-0.6,0.6-1.3,0.9-2
		c0.4-0.7,0.8-1.4,1.3-1.9c0,0,0,0,0,0c0,0,0,0,0,0h0c0,0,0,0,0,0c0.1-0.1,0.3-0.1,0.4-0.1c0.2,0,0.4,0.1,0.4,0.3
		c0,0.1-2.1,5.3-2.4,5.6c0,1.9,0,3.9,0,5.8c0,0.6-0.2,1.2-1,1.2c-0.5,0-0.8-0.2-0.9-0.6c-0.1-0.2-0.1-0.3-0.1-0.5c0-0.2,0-0.4,0-0.5
		c0-1,0-1.9,0-2.9C289.4,11.7,289.4,10.9,289.3,10C289.4,10.1,289.4,10,289.3,10z"/>
	<path d="M300.3,17.1c-0.6,0-1.2-0.5-1.2-1V7.6c0-0.6,0-1.2,0-1.8c0-0.4-0.1-0.8-0.1-1.2c0-0.5,0.7-0.7,1.2-0.7
		c1.8,0,3.5,0.5,4.5,1.8C306,7.2,306,9.2,306,11c0,3.2-1,5.6-5.2,5.9C300.7,17,300.5,17.1,300.3,17.1z M304.1,10.5
		c0-0.6,0-1.3-0.1-2.1c-0.1-0.7-0.3-1.4-0.6-2c-0.5-0.8-1.4-1-2.4-1c0,0.6,0,1.1,0,1.7c0,1.2,0,2.4,0,3.6v4.6
		C303.8,14.8,304.1,12.7,304.1,10.5z"/>
	<path d="M312.5,4.1c0.2,0,0.4,0.1,0.5,0.1c2.5,0.6,2.9,4.2,2.9,6.2c0,1.6-0.4,4-1.3,5.3c-0.6,0.9-1.6,1.4-2.7,1.4
		c-1.6,0-2.9-0.8-3.7-2.2c-0.8-1.4-1.1-3.3-1.1-4.9c0-2.9,1-6,4.4-6l0.2,0c0,0,0,0,0.1,0c0,0,0.1,0,0.1,0l0.2,0c0,0,0.1,0,0.1,0h0
		C312.1,4,312.3,4,312.5,4.1z M311.7,15.8c0.3,0,0.6-0.3,0.8-0.4c1-0.9,1.3-3.7,1.3-4.9c0-1.5-0.2-2.9-0.8-4.3
		c-0.2-0.5-0.5-1.1-1.2-1.1c-0.2,0-0.3,0-0.5,0.1c-1.8,0.7-2.1,3.2-2.1,4.7c0,1.6,0.4,4.6,2,5.6C311.3,15.7,311.5,15.8,311.7,15.8z"
		/>
	<path d="M321.2,11.8c-0.5,0-1.2-0.4-1.2-0.9c0-0.3,0.2-0.5,0.5-0.6c0.1,0,0.1,0,0.2,0c0.1,0,0.2,0,0.2,0c0.7-0.1,1.3-0.1,2-0.1
		c0.7,0,1.3,0.3,1.4,1c0,0.2,0,0.5,0,0.7c0,1.6-0.5,5.2-3.1,5.2c-3.3,0-4.1-4.5-4.1-6.6c0-1.6,0.6-4.8,2-5.9c0.4-0.3,1-0.5,1.6-0.5
		c1.2,0,2.2,0.7,2.6,1.6c0.1,0.3,0.2,0.6,0.3,0.9c0.1,0.3,0.1,0.6,0.2,0.8c0,0,0,0.1,0,0.1c0,0,0,0.1,0,0.1c0,0.4-0.5,0.6-0.9,0.6
		c-0.6,0-1-0.2-1.1-0.7c0-0.2,0-0.7-0.2-1.2c-0.1-0.4-0.3-0.8-0.7-0.8c-0.6,0-1.1,1.1-1.3,1.5c-0.5,1.3-0.8,2.4-0.8,3.8
		c0,0.4,0,0.7,0.1,1.1c0.1,0.7,0.7,3.6,1.7,3.6c0.8,0,1.4-1.7,1.5-2.3c0.1-0.5,0.2-1,0.2-1.6c-0.2,0-0.4,0-0.7,0.1
		C321.6,11.8,321.4,11.8,321.2,11.8C321.3,11.8,321.2,11.8,321.2,11.8z"/>
	<path d="M3.9,20.9c-0.1-0.1-0.2-0.3-0.2-0.4c0-0.2,0.2-0.3,0.4-0.4C4.2,20,4.6,20,4.9,20c0.3,0,0.7,0,0.9,0H8c0.6,0,1.1,0,1.6,0.4
		C9.7,20.5,10,20.7,10,21c0,0.1,0,0.1-0.1,0.1c-0.2,0.3-0.5,0.3-0.9,0.3H7.8c0,0,0,0,0,0.1l0,0.1c0,0,0,0,0,0.1c0,3.1,0,6.2,0,9.3
		c0,0.1,0,0.2,0,0.3l0,0.6c0,0.1,0,0.2,0,0.3v0.2c0,0.4-0.1,0.7-0.5,0.7c-0.6,0-1.3-0.4-1.3-1c0-0.2,0-0.5,0-0.7c0-0.1,0-0.2,0-0.3
		l0-0.5c0-0.1,0-0.2,0-0.3v-8.8C5.2,21.4,4.4,21.4,3.9,20.9z"/>
	<path d="M16.1,19.9L16.1,19.9c0.1,0,0.1-0.1,0.2-0.1c0.5,0,1,0.5,1.2,0.9c0.1,0.2,0.2,2.3,0.2,4.5c0,2.2,0,4.5,0,5.1
		c0,0.2,0,0.8,0,1.3c0,0.5-0.1,1-0.3,1.2c-0.1,0.1-0.2,0.1-0.3,0.1c-0.1,0-0.3,0-0.4-0.1c-0.3-0.1-0.5-0.3-0.7-0.5
		c-0.2-0.3-0.3-0.8-0.3-1.4c0-0.6,0-1.1,0-1.5c0-0.3,0-0.6,0-0.9c-0.4,0-0.8,0-1.2,0c-0.4,0-0.8,0-1.2-0.1c0,1.3,0,2.6,0,3.9
		c0,0.3-0.1,0.6-0.5,0.6c-0.6,0-1.4-0.5-1.4-1c0-0.3,0-0.7,0-1c0-0.5,0-1.1,0-1.6c0-2.8,0-5.6,0-8.4c0-0.3,0.1-1,0.6-1
		c0.1,0,0.3,0,0.4,0.1c0.9,0.3,1,1.1,1,1.8c0,1.7,0,3.4,0,5.1c0.2,0,0.4,0,0.5,0c0.6,0,1.3,0,1.9,0c0-1.5,0-3,0.1-4.6
		c0-0.2,0-0.6,0-1c0-0.4,0-0.8,0.1-1c0-0.1,0.1-0.2,0.2-0.2c0,0,0.1,0,0.1-0.1C16,20,16,20,16.1,19.9L16.1,19.9z"/>
	<path d="M20.9,31c0,0.2,0,0.4,0,0.6c0.6,0,1.2,0,1.8,0c0.5,0,1.6,0.4,1.6,1c0,0.4-0.5,0.5-0.9,0.5c-0.1,0-0.3,0-0.4,0h-1.3
		c-0.3,0-0.6,0-0.9-0.1c-0.1,0-0.1,0-0.2,0c-0.1,0-0.1,0-0.2,0c0,0-0.1,0-0.1,0c-0.1,0-0.3,0-0.4-0.1c-0.7-0.2-0.9-0.7-0.9-1.3
		c0-2.5,0-5,0-7.6c0-1,0-2,0.2-3c-0.1-0.1-0.4-0.2-0.4-0.4c0-0.3,0.8-0.4,1.6-0.5c0.9-0.1,1.8-0.1,2-0.1c0.2,0,0.4,0,0.6,0
		c0.5,0,1.3,0.4,1.3,0.9c0,0.4-0.5,0.4-0.9,0.4c-0.9,0-1.8,0-2.8-0.1c0.1,0.5,0.1,1.1,0.2,1.6c0,0.9,0,1.8,0,2.7c0.5,0,1,0,1.5,0
		c0.6,0,1.7,0.4,1.7,1c0,0.4-0.5,0.5-0.9,0.5c-0.2,0-0.4,0-0.6,0c-0.6,0-1.2,0-1.8,0V31z"/>
	<path d="M34.1,33c-0.3,0-0.5,0-0.8-0.1c-3.5-0.7-4.1-4.4-4.1-7c0-1.7,0.4-3.9,1.9-5.2c0.6-0.5,1.5-0.8,2.4-0.8c0.1,0,0.3,0,0.4,0
		c0,0,0.2,0,0.2,0c1,0,2,0.3,2.6,1c1.2,1.3,1.4,3.8,1.4,5.4c0,1.5-0.3,3.3-0.9,4.7c0.1,0.2,0.3,0.5,0.5,0.8c0.2,0.3,0.3,0.6,0.3,0.8
		c0,0.3-0.3,0.5-0.6,0.5c-0.5,0-1-0.4-1.4-0.7C35.6,32.8,34.9,33,34.1,33z M33.9,29c-0.5-0.8-1-1.6-1-1.8c0-0.3,0.3-0.5,0.6-0.5
		c0.6,0,1.2,0.4,1.5,0.8c0.3,0.4,0.5,0.8,0.8,1.2c0.1-0.8,0.2-1.5,0.2-2.3c0-1.4-0.1-2.8-0.7-4.2c-0.2-0.5-0.6-1.2-1.3-1.2
		c-0.3,0-0.6,0.2-0.9,0.3c-1.5,1-1.7,3-1.7,4.5c0,1.6,0.4,4.3,1.8,5.4c0.2,0.2,0.5,0.4,0.8,0.4c0.5,0,0.9-0.5,1.1-0.9
		C34.9,30.6,34.4,29.8,33.9,29z"/>
	<path d="M42.5,31.4L42.5,31.4c0.1,0.1,0.1,0.1,0.1,0.1c0,0,0,0,0,0l0.1,0.1c0,0,0,0,0,0c0.1,0.1,0.2,0.1,0.3,0.1
		c0.4-0.2,0.7-0.8,0.9-1.3c0.2-0.6,0.3-1.1,0.4-1.5c0.1-0.5,0.1-1,0.1-1.4c0-0.8,0-1.7,0-2.5v-4c0-0.2,0-0.4,0.1-0.6c0,0,0,0,0,0v0
		C44.7,20,45,20,45.3,20c0.8,0,1,0.5,1.1,1.2c0,0.2,0,0.4,0,0.6c0,0.2,0,0.3,0,0.4l0,0.9c0,0.1,0,0.3,0,0.4c0,1.6,0,3.2-0.1,4.7
		c0,0.6-0.2,1.3-0.3,1.9c-0.3,1.4-0.9,2.9-2.9,2.9c-0.8,0-1.5-0.3-2.1-0.7c-1.3-1-1.6-2.9-1.7-4.3c-0.1-1.3-0.1-2.7-0.1-4
		c0-0.2,0-0.3,0-0.5l0-0.9c0-0.2,0-0.3,0-0.5v-0.5c0-0.4,0-1,0.2-1.3c0.1-0.3,0.4-0.4,0.7-0.4c0.9,0,1,0.5,1,1.2c0,0.3,0,0.5,0,0.8
		c0,0.2,0,0.4,0,0.6l0,1.3c0,0.2,0,0.4,0,0.6c0,1.3,0,2.6,0.1,3.9C41.5,29.5,41.7,30.5,42.5,31.4C42.5,31.4,42.5,31.4,42.5,31.4z"/>
	<path d="M49.2,30c0-0.2,0-0.4,0-0.6c0-0.4,0-0.8,0-1.2c0-1.4-0.1-2.8-0.1-4.2v-2.6c-0.5-0.1-1.5-0.4-1.5-1c0-0.5,0.7-0.6,1.1-0.6
		c0.4,0,0.7,0,1.1,0h1.4c0.6,0,1.7,0.5,1.7,1.1c0,0.3-0.3,0.4-0.7,0.5c-0.4,0.1-0.8,0-1,0c0,0.1,0,0.3,0,0.4v2.2c0,1.4,0,2.7,0,4.1
		c0,1,0,2.1,0,3.1c0.6,0.1,1.6,0.4,1.6,1c0,0.5-0.7,0.6-1.1,0.6c-0.1,0-0.1,0-0.2,0h-1.3c-0.1,0-0.2,0-0.3,0c-0.6,0-1.3-0.1-1.8-0.5
		c-0.2-0.2-0.4-0.3-0.4-0.6c0-0.3,0.3-0.5,0.7-0.5c0.2,0,0.4,0,0.6,0c0.2,0,0.3,0,0.4,0C49.2,31,49.2,30.5,49.2,30z"/>
	<path d="M57.2,31.7c0.3,0,0.6-0.2,0.8-0.4c0.2-0.1,0.3-0.3,0.4-0.5c0.1-0.2,0.2-0.5,0.4-0.7c0.2-0.2,0.4-0.4,0.7-0.4
		c0.4,0,1,0.3,1.1,0.7v0c0,0,0,0,0,0c0,0,0,0,0,0v0.1c0,0.4-0.2,0.8-0.4,1.1C59.7,32.5,59,33,58,33c-0.6,0-1.3-0.2-1.8-0.6
		c-1.6-1.2-2.1-3.3-2.1-5c0-1.7,0.4-5,1.5-6.4c0.4-0.6,1.1-0.9,1.9-0.9c1.2,0,2.4,0.8,2.9,1.7c0.2,0.3,0.3,0.7,0.5,1
		c0,0.1,0.1,0.3,0.1,0.5c0,0.2,0,0.7-0.4,0.7c-0.5,0-1-0.3-1.1-0.7c-0.1-0.3-0.1-0.6-0.3-0.9c-0.1-0.3-0.3-0.6-0.6-0.9
		c-0.1-0.1-0.2-0.2-0.3-0.2c-0.1,0-0.2,0-0.3,0.1c-1.6,0.8-1.9,5.1-1.9,6.6c0,1.2,0.2,2.6,1.1,3.6c0,0,0.1,0.1,0.1,0.1
		C57.1,31.6,57.1,31.6,57.2,31.7L57.2,31.7C57.2,31.7,57.2,31.7,57.2,31.7z"/>
	<path d="M64.7,31.1c0,0.5,0,1.4-0.3,1.8c-0.2,0.3-0.5,0.3-0.8,0.3c-0.3,0-0.6-0.1-0.8-0.3c-0.2-0.3-0.3-0.9-0.3-1.4
		c0-0.6,0-1.1,0-1.5c0-1.7-0.1-3.3-0.1-5c0-0.9-0.1-1.8-0.1-2.7c0-0.3,0-1.8,0.2-2c0.2-0.3,0.6-0.4,1-0.4c1,0,1.2,0.5,1.2,1.2
		c0,0.2,0,0.5,0,0.7v1.7c0.6-0.7,1.2-1.4,1.9-2.1c0.3-0.4,0.7-0.7,1.1-1.1c0.3-0.2,0.8-0.5,1.2-0.5c0.3,0,0.8,0.1,0.8,0.4
		c0,0.2-0.2,0.6-0.4,0.7c-0.1,0.1-0.2,0.2-0.3,0.3c-0.2,0.2-0.4,0.5-0.6,0.7c-1.1,1.3-2.2,2.6-3.3,3.9c0.4,0.4,0.6,0.9,1,1.4
		c0.9,1.4,1.9,2.8,3,4.1c0.1,0.1,0.3,0.3,0.5,0.6c0.2,0.2,0.3,0.4,0.3,0.6c0,0.5-0.7,0.7-1.2,0.7c-0.3,0-0.6-0.1-0.9-0.2
		c-0.2-0.1-0.4-0.3-0.5-0.4c-0.1-0.2-0.3-0.3-0.4-0.5c-0.7-1-1.5-2.1-2.2-3.1C64.6,29.6,64.7,30.4,64.7,31.1z"/>
	<path d="M75,30.8c0-0.4,0-0.8,0-1.3c-0.1-1.8-0.1-3.7-0.1-5.5c0-0.6,0-1.2,0-1.9c0-0.2,0-0.3,0-0.5c0-0.2,0-0.3,0.1-0.5
		c-0.1-0.1-0.2-0.2-0.2-0.3c0-0.5,2.1-0.8,2.5-0.8c1.7,0,3.9,1.1,3.9,3c0,1.2-0.6,2.4-1.7,3.1c1.3,0.7,2,1.9,2,3.2
		c0,1.5-1.1,2.8-2.7,3.4c-0.5,0.2-1.1,0.3-1.7,0.3c-0.9,0-1.7-0.2-2.2-0.9c0,0-0.1-0.1-0.1-0.2c0-0.1,0.1-0.2,0.2-0.3
		C75,31.3,75,31.1,75,30.8z M79.3,22.4c0-0.9-0.6-1.2-1.6-1.2c-0.3,0-0.6,0-0.9,0.1C77,21.9,77,23,77,23.7c0,0.1,0,0.3,0,0.4l0,0.8
		c0,0.1,0,0.3,0,0.4C78.3,24.7,79.3,23.7,79.3,22.4z M79.5,28.6c0-0.5-0.2-1.2-0.6-1.6c-0.2-0.2-0.3-0.2-0.6-0.2
		c-0.2,0-0.5,0-0.7,0.1C77.4,27,77.2,27,77,27c0,0.4,0,0.8,0,1.2c0,1.1-0.1,2.2-0.1,3.3C78.2,31.3,79.5,30,79.5,28.6z"/>
	<path d="M85.1,32.5c0,0.3-0.2,0.5-0.6,0.5c-0.6,0-1.3-0.5-1.3-1v-8.3c0-0.6,0-1.2,0-1.8c0-0.2,0-0.5,0-0.7
		c-0.2-0.1-0.3-0.3-0.3-0.5c0-0.7,1.7-0.8,2.3-0.8c2.7,0,5.2,1.5,5.2,4c0,2-1.7,3.6-3.9,4.2c0.7,0.8,1.4,1.6,2.1,2.5
		c0.4,0.4,0.7,0.8,1.1,1.3c0.1,0.1,0.2,0.3,0.2,0.5c0,0.4-0.4,0.6-0.8,0.6c-0.4,0-0.7-0.1-0.9-0.4c-0.4-0.4-0.7-0.9-1.1-1.3
		c-0.7-0.8-1.4-1.6-2.1-2.4V32.5z M88.5,23.4c0-1.6-1.5-1.8-3-1.8h-0.4c0,0.6,0,1.1,0,1.7c0,1.2,0,2.4,0,3.6
		C87,26.5,88.5,25.2,88.5,23.4z"/>
	<path d="M96.7,20c0.8,0,1.8,0.4,2.4,1.1c1.1,1.4,1.3,3.7,1.3,5.3c0,1.5-0.3,4-1.3,5.3c-0.6,0.9-1.6,1.3-2.7,1.3
		c-3.7,0-4.8-3.9-4.8-7c0-1.6,0.3-4,1.8-5.2C94.4,20.1,95.4,20,96.7,20L96.7,20z M96.2,31.8c0.3,0,0.6-0.3,0.8-0.4
		c0.9-0.9,1.3-3.7,1.3-4.9c0-1.5-0.2-2.9-0.8-4.3c-0.2-0.5-0.5-1.1-1.2-1.1c-0.2,0-0.3,0-0.5,0.1c-1.8,0.7-2.1,3.2-2.1,4.7
		c0,1.6,0.4,4.6,1.9,5.6C95.8,31.7,96.1,31.8,96.2,31.8z"/>
	<path d="M105.6,32.4c0,0.5-0.6,0.7-1.1,0.7c-0.5,0-0.8-0.3-1-0.7c-0.1-0.2-0.2-0.4-0.2-0.6c-0.1-0.5-0.2-1-0.3-1.5
		c-0.6-3.1-1.2-6.3-1.8-9.4c0-0.1,0-0.2,0-0.3c0-0.4,0.2-0.7,0.7-0.7c0.3,0,0.5,0.2,0.6,0.4c0.1,0.1,0.1,0.3,0.2,0.4
		c0,0.2,0.1,0.3,0.1,0.5c0.2,0.6,0.3,1.3,0.5,1.9c0.4,1.6,0.7,3.3,1.2,5c0.3-2.4,0.5-4.8,1.1-7.1c0-0.1,0.1-0.3,0.1-0.4
		c0-0.1,0.1-0.3,0.1-0.4c0.2-0.3,0.5-0.4,0.9-0.4c0.5,0,0.7,0.1,0.9,0.5c0.1,0.1,0.1,0.2,0.1,0.3c0,0.1,0.1,0.2,0.1,0.4
		c0.6,2.4,0.8,4.7,1.3,7.1c0.3-1.7,0.5-3.5,0.8-5.2c0.1-0.6,0.3-1.3,0.4-1.9c0-0.1,0-0.3,0.1-0.4c0-0.1,0.1-0.3,0.1-0.4
		c0.2-0.3,0.4-0.4,0.8-0.4c0.4,0,0.9,0.2,0.9,0.6c0,0.4-0.1,0.8-0.1,1.3c-0.1,0.7-0.2,1.4-0.3,2.2c-0.4,2.3-0.8,4.5-1.2,6.7
		c0,0.3-0.1,0.6-0.1,0.9c0,0.3-0.2,0.9-0.3,1.1c-0.2,0.3-0.4,0.3-0.8,0.3c-0.7,0-1-0.6-1.2-1c-0.2-0.5-0.3-0.9-0.4-1.4
		c-0.2-0.9-0.3-1.8-0.5-2.7s-0.3-1.8-0.5-2.7C106.3,27.6,106,30,105.6,32.4L105.6,32.4z"/>
	<path d="M118.2,22.7V21c0-0.1,0-0.2,0-0.3c0-0.1,0-0.2,0.1-0.3c0.1-0.2,0.2-0.3,0.6-0.3c0.6,0,1.3,0.3,1.4,0.8
		c0.1,0.2,0.1,0.4,0.1,0.6v2c0,3,0,6.1,0,9.1c0,0.3-0.3,0.5-0.6,0.5c-1,0-1.7-0.7-2.1-1.4c-0.2-0.4-0.4-0.8-0.6-1.1
		c-0.7-1.3-1.3-2.6-1.9-4v3.1c0,0.1,0,0.8,0,1.5c0,0.6,0,1.3-0.1,1.4c-0.1,0.2-0.3,0.4-0.6,0.4c-0.4,0-0.9-0.3-1.1-0.6
		c-0.2-0.2-0.2-0.5-0.3-0.8c0-0.3,0-0.6,0-0.8c0-3,0-6,0-9c0-0.2,0-0.4,0-0.6c0-0.1,0-0.2,0-0.3c0-0.1,0-0.3,0-0.4
		c0.1-0.2,0.2-0.5,0.5-0.5c0.5,0,1,0.3,1.2,0.7c0.2,0.3,0.2,0.5,0.2,0.8c0.1,0.1,0.7,1.9,0.8,2.1c0.6,1.6,1.1,3.2,1.8,4.7
		c0.1,0.3,0.3,0.6,0.4,0.9V22.7z"/>
	<path d="M127.9,30.7c0,0.4,0,1.7-0.2,2.1c-0.1,0.2-0.2,0.3-0.5,0.3c-0.6,0-0.9-0.3-1.1-0.8c-0.1-0.3-0.2-0.7-0.2-1
		c0-0.2,0-0.3,0-0.5c0-2.9,0-5.9,0-8.9c0-0.3,0-0.8,0.1-1.1c0-0.1-0.1-0.1-0.1-0.2c0-0.1,0-0.2,0.1-0.3c0.3-0.2,0.8-0.2,1.1-0.2
		c0.8,0,1.5,0,2.2,0c0.1,0,0.3,0,0.4,0c0.2,0,0.3,0,0.5,0c0.5,0.1,1.4,0.5,1.4,1c0,0.5-1.8,0.5-2.1,0.5c-0.6,0-1.2,0-1.8,0
		c0.1,0.7,0.1,1.4,0.1,2v2.3c0.3,0,0.7,0,1,0c0.6,0,1.1,0.1,1.5,0.4c0.2,0.2,0.4,0.4,0.4,0.7c0,0.4-0.4,0.5-0.8,0.5
		c-0.7,0-1.5,0-2.2-0.1C127.9,28.4,127.9,29.6,127.9,30.7z"/>
	<path d="M137.7,20c0.8,0,1.8,0.4,2.4,1.1c1.1,1.4,1.3,3.7,1.3,5.3c0,1.5-0.3,4-1.3,5.3c-0.6,0.9-1.6,1.3-2.7,1.3
		c-3.7,0-4.8-3.9-4.8-7c0-1.6,0.3-4,1.8-5.2C135.4,20.1,136.4,20,137.7,20L137.7,20z M137.2,31.8c0.3,0,0.6-0.3,0.8-0.4
		c0.9-0.9,1.3-3.7,1.3-4.9c0-1.5-0.2-2.9-0.8-4.3c-0.2-0.5-0.5-1.1-1.2-1.1c-0.2,0-0.3,0-0.5,0.1c-1.8,0.7-2.1,3.2-2.1,4.7
		c0,1.6,0.4,4.6,1.9,5.6C136.8,31.7,137,31.8,137.2,31.8z"/>
	<path d="M145,29.6c-0.1,0.3-0.4,1-0.6,1.6c-0.3,0.7-0.6,1.3-0.7,1.5c-0.2,0.2-0.4,0.3-0.7,0.3c-0.3,0-0.9-0.1-0.9-0.5
		c0-0.7,2.3-5.7,2.8-6.7c-0.5-1.1-0.9-2.2-1.5-3.3c-0.2-0.3-0.3-0.6-0.5-0.9c-0.1-0.2-0.3-0.4-0.4-0.6c0-0.1-0.1-0.2-0.2-0.3
		c0-0.1-0.1-0.2-0.1-0.3c0-0.3,0.3-0.4,0.6-0.4c0.1,0,0.3,0,0.4,0.1c0.9,0.3,2.3,2.9,2.7,3.7c0.4-0.7,0.8-1.5,1.2-2.2
		c0.1-0.2,0.2-0.5,0.4-0.7c0.1-0.3,0.3-0.5,0.4-0.6c0.2-0.2,0.5-0.3,0.8-0.3s0.8,0.1,0.8,0.5c0,0.1-0.2,0.6-0.3,0.7
		c-0.8,1.5-1.6,3.1-2.4,4.6c0.3,0.6,0.6,1.2,0.9,1.8c0.5,1,1,2,1.4,3.1c0.1,0.2,0.3,0.6,0.4,1c0.2,0.4,0.3,0.8,0.3,0.9
		c0,0.5-0.7,0.6-1,0.6c-0.4,0-0.8-0.1-1-0.5c-0.1-0.2-0.2-0.3-0.2-0.5c-0.1-0.2-0.1-0.3-0.2-0.5c-0.6-1.2-1.2-2.5-1.6-3.7
		C145.5,28.5,145.3,29,145,29.6z"/>
	<path d="M157.6,31.5L157.6,31.5c0.6-0.6,0.9-1.6,0.9-2.4c0-0.5,0.1-1,0.1-1.5c0-1.2,0.1-2.3,0.1-3.5c0-1,0-2,0.2-3
		c-0.1,0-0.5-0.1-0.7-0.2s-0.5-0.2-0.5-0.4c0-0.3,0.7-0.5,1.4-0.6c0.7-0.1,1.6-0.1,1.8-0.1c0.4,0,1.2,0.3,1.2,0.7
		c0,0.5-1,0.6-1.4,0.6c0.2,1.2,0.2,2.5,0.2,3.8c0,1,0,2.1,0,3.1c0,1.3-0.1,2.9-1.1,4c-0.5,0.5-1.4,0.9-2.1,0.9c-2.1,0-2.8-2-2.8-3.5
		c0-0.6,0.3-1,1.1-1c0.5,0,0.8,0.1,0.9,0.3c0.1,0.1,0.1,0.2,0.1,0.4c0,0.1,0,0.3,0,0.5C156.9,30.4,157.2,31,157.6,31.5L157.6,31.5z"
		/>
	<path d="M166.3,31.4L166.3,31.4c0.1,0.1,0.1,0.1,0.1,0.1c0,0,0,0,0,0l0.1,0.1c0,0,0,0,0,0c0.1,0.1,0.2,0.1,0.3,0.1
		c0.4-0.2,0.7-0.8,0.9-1.3c0.2-0.6,0.3-1.1,0.4-1.5c0.1-0.5,0.1-1,0.1-1.4c0-0.8,0-1.7,0-2.5v-4c0-0.2,0-0.4,0.1-0.6c0,0,0,0,0,0v0
		c0.2-0.3,0.5-0.3,0.8-0.3c0.8,0,1,0.5,1.1,1.2c0,0.2,0,0.4,0,0.6c0,0.2,0,0.3,0,0.4l0,0.9c0,0.1,0,0.3,0,0.4c0,1.6,0,3.2-0.1,4.7
		c0,0.6-0.2,1.3-0.3,1.9c-0.3,1.4-0.9,2.9-2.9,2.9c-0.8,0-1.5-0.3-2.1-0.7c-1.3-1-1.6-2.9-1.7-4.3c-0.1-1.3-0.1-2.7-0.1-4
		c0-0.2,0-0.3,0-0.5l0-0.9c0-0.2,0-0.3,0-0.5v-0.5c0-0.4,0-1,0.2-1.3c0.1-0.3,0.4-0.4,0.7-0.4c0.9,0,1,0.5,1,1.2c0,0.3,0,0.5,0,0.8
		c0,0.2,0,0.4,0,0.6l0,1.3c0,0.2,0,0.4,0,0.6c0,1.3,0,2.6,0.1,3.9C165.3,29.5,165.5,30.5,166.3,31.4
		C166.3,31.4,166.3,31.4,166.3,31.4z"/>
	<path d="M178,21.8c0.1-0.3,0.2-0.6,0.3-1c0-0.1,0-0.2,0-0.2c0-0.1,0-0.1,0.1-0.2c0.1-0.3,0.4-0.3,0.7-0.3c0.4,0,0.8,0.1,0.9,0.4
		c0.1,0.2,0.1,0.4,0.1,0.6c0,0.2,0,0.4,0.1,0.6c0.1,1,0.3,1.9,0.4,2.9c0.3,1.6,0.5,3.3,0.7,4.9c0.1,1,0.3,2,0.4,3v0
		c0,0.5-0.8,0.6-1.2,0.6c-0.4,0-0.8-0.2-1-0.5c-0.1-0.1-0.1-0.5-0.1-0.6c0-0.6-0.1-1.2-0.1-1.9c-0.1-1.4-0.3-2.9-0.4-4.3
		c-0.2,0.8-0.3,1.5-0.5,2.2c-0.2,0.7-0.3,1.4-0.4,2.1c-0.1,0.6-0.2,1.1-0.2,1.7c0,0.2,0,0.4,0,0.6c0,0.5-0.7,0.6-1.1,0.6
		c-0.5,0-1.1-0.2-1.3-0.6c-0.1-0.2-0.1-0.4-0.1-0.6c0-0.2,0-0.4-0.1-0.6l-0.3-1.3c-0.3-1.5-0.7-3-1-4.5c-0.1,0.7-0.2,1.4-0.3,2.2
		c-0.2,1.1-0.3,2.2-0.5,3.4c0,0.2-0.1,0.5-0.1,0.8s-0.1,0.7-0.1,0.8c-0.1,0.3-0.3,0.4-0.7,0.4c-0.3,0-0.8-0.1-0.8-0.5
		c0-0.5,0.1-1.1,0.2-1.6c0.3-2.2,0.6-4.3,0.8-6.4c0.1-1.2,0.3-2.4,0.5-3.6c0-0.1,0-0.2,0-0.4c0-0.1,0-0.2,0.1-0.3
		c0.1-0.2,0.5-0.2,0.7-0.2c0.4,0,0.7,0.1,0.9,0.4c0,0,0.2,0.5,0.3,1c0.1,0.5,0.3,1,0.3,1.1c0.4,1.5,0.9,3.1,1.3,4.6
		C176.9,25.4,177.4,23.6,178,21.8z"/>
	<path d="M185.6,32.6c0,0.3-0.3,0.6-0.6,0.6c-0.6,0-1.3-0.5-1.3-1v-8.5c0-0.7,0-1.4,0-2.2c-0.3-0.1-0.7-0.4-0.7-0.8
		c0-0.6,1.4-0.8,1.9-0.8c1,0,2.1,0.3,3,0.7c1.8,0.8,3.1,2.2,3.1,4c0,0.8-0.3,1.7-0.9,2.3c-0.8,0.8-2.2,1.4-3.3,1.7
		c-0.2,0.1-0.4,0.1-0.6,0.2c-0.2,0-0.3,0.1-0.5,0V32.6z M189.1,24.3c0-1.1-0.7-2-1.8-2.4c-0.5-0.2-1-0.3-1.6-0.3c0,0.6,0,1.1,0,1.7
		c0,1.4,0,2.7,0,4C187.2,26.7,189.1,25.9,189.1,24.3z"/>
	<path d="M192.5,30c0-0.4,0.4-0.6,0.7-0.6c0.5,0,1.1,0.3,1.2,0.8c0,0.1,0.1,0.3,0.1,0.4c0,0.2,0.1,0.3,0.1,0.4
		c0.1,0.3,0.4,0.5,0.8,0.5c0.4,0,0.8-0.2,0.9-0.5c0.1-0.2,0.1-0.4,0.1-0.6c0-0.3-0.1-0.7-0.3-1c-0.2-0.2-0.4-0.4-0.7-0.5
		c-0.3-0.1-0.6-0.3-0.8-0.4c-0.9-0.5-2-1.2-2.5-2c-0.2-0.4-0.3-0.8-0.3-1.2c0-1.6,1-5.4,3.5-5.4c1.3,0,2.5,1,3,2
		c0.2,0.5,0.3,0.9,0.3,1.4c0,0.1,0,0.3,0,0.4c0,0.2,0,0.3,0,0.5c-0.1,0.3-0.3,0.5-0.8,0.5c-0.5,0-1.2-0.3-1.2-0.8c0,0,0-0.1,0-0.1
		c0.1-0.3,0.1-0.6,0.1-0.9c0-0.5-0.1-1-0.6-1.3c-0.1-0.1-0.2-0.1-0.4-0.1c-0.4,0-0.8,0.6-1,0.8c-0.6,0.9-1,2.4-1,3.5
		c0,0.4,0.1,0.5,0.4,0.8c0.2,0.2,0.4,0.3,0.6,0.5c0.2,0.1,0.4,0.3,0.7,0.4c0.5,0.3,0.9,0.5,1.4,0.8c1,0.5,1.5,1.5,1.5,2.5
		c0,1.3-1,2.3-2.6,2.3c-1.8,0-3.2-1.5-3.5-2.9C192.5,30.1,192.5,30,192.5,30z"/>
	<path d="M209,20c0.8,0,1.8,0.4,2.4,1.1c1.1,1.4,1.3,3.7,1.3,5.3c0,1.5-0.3,4-1.3,5.3c-0.6,0.9-1.6,1.3-2.7,1.3
		c-3.8,0-4.8-3.9-4.8-7c0-1.6,0.3-4,1.8-5.2C206.7,20.1,207.8,20,209,20L209,20z M208.6,31.8c0.3,0,0.6-0.3,0.8-0.4
		c0.9-0.9,1.3-3.7,1.3-4.9c0-1.5-0.2-2.9-0.8-4.3c-0.2-0.5-0.5-1.1-1.2-1.1c-0.2,0-0.3,0-0.5,0.1c-1.8,0.7-2.1,3.2-2.1,4.7
		c0,1.6,0.4,4.6,2,5.6C208.1,31.7,208.4,31.8,208.6,31.8z"/>
	<path d="M221.1,20.3c0,0.1,0,0.2,0,0.3c0,0.2,0,0.4-0.1,0.5c0,0.2-0.1,0.4-0.1,0.5l-0.3,1.2c-0.4,1.6-0.8,3.3-1.2,4.9
		c-0.3,1.4-0.6,2.8-0.8,4.2c0,0.1,0,0.3-0.1,0.4c-0.1,0.5-0.6,0.6-1,0.6c-0.5,0-0.9-0.2-1.1-0.6c-0.1-0.1-0.1-0.3-0.1-0.5
		c0-0.1-0.1-0.3-0.1-0.5c-0.1-0.6-0.3-1.2-0.4-1.8c-0.4-1.9-0.8-3.8-1.3-5.7c-0.2-0.9-0.4-1.8-0.7-2.7c0-0.1-0.1-0.2-0.1-0.3
		c0-0.1,0-0.2,0-0.3c0-0.3,0.2-0.7,0.7-0.7c0.2,0,0.4,0.1,0.6,0.1c0.3,0.1,0.5,0.6,0.7,1.1c0.2,0.5,0.3,1,0.4,1.3c0.6,2,1.1,4,1.4,6
		c0.2-1.1,0.4-2.3,0.7-3.4c0.3-1.4,0.7-2.7,1-4.1c0-0.1,0-0.2,0.1-0.3c0-0.1,0-0.2,0.1-0.3c0.2-0.3,0.5-0.3,0.8-0.3
		C220.6,19.9,220.9,20,221.1,20.3L221.1,20.3z"/>
	<path d="M224.1,31c0,0.2,0,0.4,0,0.6c0.6,0,1.2,0,1.8,0c0.5,0,1.6,0.4,1.6,1c0,0.4-0.5,0.5-0.9,0.5c-0.1,0-0.3,0-0.4,0h-1.3
		c-0.3,0-0.6,0-0.9-0.1c-0.1,0-0.1,0-0.2,0c-0.1,0-0.1,0-0.2,0c0,0-0.1,0-0.1,0c-0.2,0-0.3,0-0.4-0.1c-0.7-0.2-0.9-0.7-0.9-1.3
		c0-2.5,0-5,0-7.6c0-1,0-2,0.2-3c-0.1-0.1-0.4-0.2-0.4-0.4c0-0.3,0.8-0.4,1.6-0.5c0.9-0.1,1.8-0.1,2-0.1c0.2,0,0.4,0,0.6,0
		c0.5,0,1.3,0.4,1.3,0.9c0,0.4-0.5,0.4-0.9,0.4c-0.9,0-1.8,0-2.8-0.1c0.1,0.5,0.1,1.1,0.2,1.6c0,0.9,0,1.8,0,2.7c0.5,0,1,0,1.5,0
		c0.6,0,1.7,0.4,1.7,1c0,0.4-0.5,0.5-0.9,0.5c-0.2,0-0.4,0-0.6,0c-0.6,0-1.2,0-1.8,0V31z"/>
	<path d="M231,32.5c0,0.3-0.2,0.5-0.6,0.5c-0.6,0-1.3-0.5-1.3-1v-8.3c0-0.6,0-1.2,0-1.8c0-0.2,0-0.5,0-0.7c-0.2-0.1-0.3-0.3-0.3-0.5
		c0-0.7,1.7-0.8,2.3-0.8c2.7,0,5.2,1.5,5.2,4c0,2-1.7,3.6-3.9,4.2c0.7,0.8,1.4,1.6,2.1,2.5c0.4,0.4,0.7,0.8,1.1,1.3
		c0.1,0.1,0.2,0.3,0.2,0.5c0,0.4-0.4,0.6-0.8,0.6c-0.4,0-0.7-0.1-0.9-0.4c-0.4-0.4-0.7-0.9-1.1-1.3c-0.7-0.8-1.4-1.6-2.1-2.4V32.5z
		 M234.4,23.4c0-1.6-1.5-1.8-3-1.8H231c0,0.6,0,1.1,0,1.7c0,1.2,0,2.4,0,3.6C233,26.5,234.4,25.2,234.4,23.4z"/>
	<path d="M241.3,20.9c-0.1-0.1-0.2-0.3-0.2-0.4c0-0.2,0.2-0.3,0.4-0.4c0.2-0.1,0.5-0.1,0.9-0.1c0.3,0,0.7,0,0.9,0h2.2
		c0.6,0,1.1,0,1.6,0.4c0.2,0.1,0.4,0.4,0.4,0.6c0,0.1,0,0.1-0.1,0.1c-0.2,0.3-0.5,0.3-0.9,0.3h-1.3c0,0,0,0,0,0.1l0,0.1
		c0,0,0,0,0,0.1c0,3.1,0,6.2,0,9.3c0,0.1,0,0.2,0,0.3l0,0.6c0,0.1,0,0.2,0,0.3v0.2c0,0.4-0.1,0.7-0.5,0.7c-0.6,0-1.3-0.4-1.3-1
		c0-0.2,0-0.5,0-0.7c0-0.1,0-0.2,0-0.3l0-0.5c0-0.1,0-0.2,0-0.3v-8.8C242.6,21.4,241.8,21.4,241.3,20.9z"/>
	<path d="M253.4,19.9L253.4,19.9c0.1,0,0.1-0.1,0.2-0.1c0.5,0,1,0.5,1.2,0.9c0.1,0.2,0.2,2.3,0.2,4.5c0,2.2,0,4.5,0,5.1
		c0,0.2,0,0.8,0,1.3c0,0.5-0.1,1-0.3,1.2c-0.1,0.1-0.2,0.1-0.3,0.1c-0.2,0-0.3,0-0.5-0.1c-0.3-0.1-0.5-0.3-0.7-0.5
		c-0.2-0.3-0.3-0.8-0.3-1.4c0-0.6,0-1.1,0-1.5c0-0.3,0-0.6,0-0.9c-0.4,0-0.8,0-1.2,0s-0.8,0-1.2-0.1c0,1.3,0,2.6,0,3.9
		c0,0.3-0.1,0.6-0.5,0.6c-0.6,0-1.3-0.5-1.4-1c0-0.3,0-0.7,0-1c0-0.5,0-1.1,0-1.6c0-2.8,0-5.6,0-8.4c0-0.3,0.1-1,0.6-1
		c0.1,0,0.3,0,0.4,0.1c0.9,0.3,1,1.1,1,1.8c0,1.7,0,3.4,0,5.1c0.2,0,0.4,0,0.5,0c0.6,0,1.3,0,1.9,0c0-1.5,0-3,0.1-4.6
		c0-0.2,0-0.6,0-1c0-0.4,0-0.8,0.1-1c0-0.1,0.1-0.2,0.2-0.2c0,0,0.1,0,0.1-0.1C253.3,20,253.4,20,253.4,19.9L253.4,19.9z"/>
	<path d="M258.3,31c0,0.2,0,0.4,0,0.6c0.6,0,1.2,0,1.8,0c0.5,0,1.6,0.4,1.6,1c0,0.4-0.5,0.5-0.9,0.5c-0.1,0-0.3,0-0.4,0h-1.3
		c-0.3,0-0.6,0-0.9-0.1c-0.1,0-0.1,0-0.2,0c-0.1,0-0.1,0-0.2,0c0,0-0.1,0-0.2,0c-0.1,0-0.3,0-0.4-0.1c-0.7-0.2-0.9-0.7-0.9-1.3
		c0-2.5,0-5,0-7.6c0-1,0-2,0.2-3c-0.1-0.1-0.4-0.2-0.4-0.4c0-0.3,0.8-0.4,1.6-0.5c0.9-0.1,1.8-0.1,2-0.1c0.2,0,0.4,0,0.6,0
		c0.5,0,1.3,0.4,1.3,0.9c0,0.4-0.5,0.4-0.9,0.4c-0.9,0-1.8,0-2.8-0.1c0.1,0.5,0.1,1.1,0.2,1.6c0,0.9,0,1.8,0,2.7c0.5,0,1,0,1.5,0
		c0.6,0,1.7,0.4,1.7,1c0,0.4-0.5,0.5-0.9,0.5c-0.2,0-0.4,0-0.6,0c-0.6,0-1.2,0-1.8,0V31z"/>
	<path d="M269.7,31.3c0.3,0,0.6,0,0.9,0.1c0.6,0.1,1.2,0.3,1.5,0.8c0.1,0.1,0.1,0.2,0.1,0.4c0,0.5-1.1,0.5-1.5,0.5c-0.3,0-0.6,0-1,0
		c-0.4,0-0.8,0-1.2-0.1c-0.8-0.1-1.5-0.4-1.6-0.9c-0.2-0.5-0.2-1-0.2-1.5c0-0.4,0-0.9,0-1.3c0-1.3,0-2.7,0-4c0-1,0-2,0.1-3
		c0-0.4,0-0.7,0-1.1c0-0.3,0.1-0.9,0.4-1.1c0.1,0,0.2-0.1,0.3-0.1c0.4,0,0.9,0.3,1.1,0.7c0.2,0.3,0.2,1.5,0.3,2.7s0,2.5,0,3
		c0,1.4,0,2.7,0,4.1c0,0.3,0,0.6,0,0.9C269.1,31.3,269.4,31.3,269.7,31.3z"/>
	<path d="M274.3,33.1c-0.5,0-0.9-0.3-0.9-0.7c0-0.2,0-0.4,0.1-0.6c0-0.2,0.1-0.4,0.2-0.6c0.6-2.6,1.2-5.2,1.8-7.9
		c0.2-0.9,0.3-1.8,0.6-2.7c0.2-0.5,0.5-0.9,1.2-0.9c0.6,0,1,0.4,1,0.9l0,0c0,0,0,0,0,0c0,0,0.1,0.2,0.2,0.5c0.4,0.9,0.7,1.8,0.9,2.8
		c0.7,2.8,1.2,5.5,1.9,8.3c0,0,0,0.1,0,0.2c0,0.4-0.5,0.6-0.9,0.6c-0.3,0-0.5-0.1-0.7-0.3c-0.2-0.2-0.3-0.9-0.5-1.5
		c-0.1-0.6-0.2-1.3-0.3-1.6c-0.9,0-1.8,0-2.7,0c-0.2,0.6-0.4,1.3-0.5,1.9c0,0.2-0.1,0.3-0.1,0.5C275.3,32.7,275.1,33.1,274.3,33.1z
		 M276.7,28.5l0.6,0c0.1,0,0.2,0,0.3,0c0.1,0,0.1,0,0.2,0l0.4,0c0.1,0,0.2,0,0.2,0l-0.6-2.5c-0.2-0.8-0.4-1.7-0.6-2.5
		c-0.1,0.4-0.2,0.8-0.3,1.2l-0.5,2.5c-0.1,0.4-0.2,0.8-0.3,1.2C276.4,28.5,276.6,28.5,276.7,28.5z"/>
	<path d="M282.1,31.8c0-0.1,0-0.1,0-0.2c0.2-0.6,0.4-1.3,0.7-1.9c0.6-1.6,1.2-3.1,2-4.7l1.3-2.7c0.2-0.4,0.4-0.9,0.6-1.3
		c-0.8,0-1.7,0-2.5,0c-0.1,0-0.3,0-0.5,0c-0.2,0-0.5,0-0.7-0.1c-0.4-0.1-0.8-0.2-0.8-0.6c0-0.6,1.5-0.6,1.9-0.6c0.9,0,1.7,0,2.6,0
		c0.2,0,0.4,0,0.6,0c0.2,0,0.4,0,0.6,0c0.4,0.1,0.9,0.3,0.9,0.7c0,0.2,0,0.3-0.1,0.5c-0.1,0.2-0.1,0.3-0.2,0.4
		c-0.4,0.7-0.6,1.4-1,2.1c-0.7,1.4-1.3,2.9-1.9,4.3c-0.5,1.2-0.9,2.4-1.4,3.6c0.8,0,1.7,0,2.5,0c0.2,0,0.3,0,0.5,0
		c0.2,0,0.3,0,0.5,0.1c0.4,0.1,0.8,0.3,0.8,0.7c0,0.3-0.3,0.5-0.6,0.5c-0.1,0-0.3,0-0.5,0.1c-0.2,0-0.3,0-0.4,0c-1.4,0-2.7,0-4.1,0
		c-0.5,0-1.1-0.2-1.1-0.7c0-0.1,0-0.2,0.1-0.2c0,0,0-0.1,0.1-0.1C282,31.9,282,31.8,282.1,31.8z"/>
	<path d="M292.5,26C292.4,26,292.4,26,292.5,26c-0.1-0.1-0.1-0.2-0.1-0.3c-0.6-1.3-1.2-2.6-1.9-3.9c-0.1-0.2-0.3-0.5-0.4-0.7
		c-0.1-0.2-0.3-0.5-0.3-0.7c0-0.4,0.6-0.5,0.9-0.5c0.3,0,0.5,0.1,0.8,0.3c0.8,0.6,1.9,3,2.3,4c0.3-0.6,0.6-1.3,0.9-2
		c0.4-0.7,0.8-1.4,1.3-1.9c0,0,0,0,0,0c0,0,0,0,0,0h0c0,0,0,0,0,0c0.1-0.1,0.3-0.1,0.4-0.1c0.2,0,0.4,0.1,0.4,0.3
		c0,0.1-2.1,5.3-2.4,5.6c0,1.9,0,3.9,0,5.8c0,0.6-0.2,1.2-1,1.2c-0.5,0-0.8-0.2-0.9-0.6c-0.1-0.2-0.1-0.3-0.1-0.5c0-0.2,0-0.4,0-0.5
		c0-1,0-1.9,0-2.9C292.5,27.7,292.5,26.9,292.5,26C292.5,26.1,292.5,26,292.5,26z"/>
	<path d="M302.4,32.4c-0.1,0-0.1-0.1-0.2-0.1c-0.1,0-0.1-0.1-0.2-0.2c-0.1-0.1-0.2-0.2-0.2-0.4c0-0.2,0.2-0.3,0.4-0.4
		c0-3.5,0-7,0-10.5c-0.1-0.1-0.3-0.2-0.3-0.4c0-0.5,0.6-0.5,1-0.5c0.4,0,0.8,0.1,1.2,0.1c0.9,0.2,1.9,0.4,2.6,0.9
		c1.5,1,2.1,2.2,2.4,3.8c0.1,0.7,0.1,1.3,0.1,2c0,0.8-0.1,1.6-0.2,2.4c-0.2,1.4-0.7,2.5-2.2,3.2c-0.6,0.3-1.3,0.4-2,0.4
		c-0.3,0-0.6,0-0.9,0c-0.1,0.1-0.3,0.1-0.4,0.1C303.2,33,302.7,32.8,302.4,32.4C302.5,32.5,302.4,32.4,302.4,32.4z M305.5,31
		c1.2-0.6,1.4-1.6,1.5-2.7c0.1-0.6,0.1-1.2,0.1-1.8c0-0.8,0-1.5-0.1-2.2c-0.1-0.8-0.3-1.6-0.9-2.2c-0.5-0.5-1.3-0.8-2-0.9
		c0,3.4,0.1,6.8,0.1,10.2C304.7,31.3,305.1,31.2,305.5,31z"/>
	<path d="M315.8,20c0.8,0,1.8,0.4,2.4,1.1c1.1,1.4,1.3,3.7,1.3,5.3c0,1.5-0.3,4-1.3,5.3c-0.6,0.9-1.6,1.3-2.7,1.3
		c-3.8,0-4.8-3.9-4.8-7c0-1.6,0.3-4,1.8-5.2C313.4,20.1,314.5,20,315.8,20L315.8,20z M315.3,31.8c0.3,0,0.6-0.3,0.8-0.4
		c0.9-0.9,1.3-3.7,1.3-4.9c0-1.5-0.2-2.9-0.8-4.3c-0.2-0.5-0.5-1.1-1.2-1.1c-0.2,0-0.3,0-0.5,0.1c-1.8,0.7-2.1,3.2-2.1,4.7
		c0,1.6,0.4,4.6,2,5.6C314.8,31.7,315.1,31.8,315.3,31.8z"/>
	<path d="M324.8,27.8c-0.5,0-1.2-0.4-1.2-0.9c0-0.3,0.2-0.5,0.5-0.6c0.1,0,0.1,0,0.2,0c0.1,0,0.2,0,0.2,0c0.7-0.1,1.3-0.1,2-0.1
		c0.7,0,1.3,0.3,1.4,1c0,0.2,0,0.5,0,0.7c0,1.6-0.5,5.2-3.1,5.2c-3.3,0-4.1-4.5-4.1-6.6c0-1.6,0.6-4.8,2-5.9c0.4-0.3,1-0.5,1.6-0.5
		c1.2,0,2.2,0.7,2.6,1.6c0.1,0.3,0.2,0.6,0.3,0.9c0.1,0.3,0.1,0.6,0.2,0.8c0,0,0,0.1,0,0.1c0,0,0,0.1,0,0.1c0,0.4-0.5,0.6-0.9,0.6
		c-0.6,0-1-0.2-1.1-0.7c0-0.2,0-0.7-0.2-1.2c-0.1-0.4-0.3-0.8-0.7-0.8c-0.6,0-1.1,1.1-1.3,1.5c-0.5,1.3-0.8,2.4-0.8,3.8
		c0,0.4,0,0.7,0.1,1.1c0.1,0.7,0.7,3.6,1.7,3.6c0.8,0,1.4-1.7,1.5-2.3c0.1-0.5,0.2-1,0.2-1.6c-0.2,0-0.4,0-0.7,0.1
		C325.2,27.8,325,27.8,324.8,27.8C324.8,27.8,324.8,27.8,324.8,27.8z"/>
</g>
</svg>
