<?xml version="1.0" encoding="utf-8"?>
<!-- Generator: Adobe Illustrator 26.1.0, SVG Export Plug-In . SVG Version: 6.00 Build 0)  -->
<svg version="1.1" id="Layer_1" xmlns="http://www.w3.org/2000/svg" xmlns:xlink="http://www.w3.org/1999/xlink" x="0px" y="0px"
	 viewBox="0 0 372 36.9" style="enable-background:new 0 0 372 36.9;" xml:space="preserve">
<rect width="372" height="36.9" fill="white"/>
<g>
	<path d="M6.5,4.9C6.4,4.8,6.3,4.7,6.3,4.5c0-0.2,0.3-0.3,0.5-0.4C7,4,7.3,4,7.7,4C8,4,8.4,4,8.6,4h2.2c0.6,0,1.1,0,1.5,0.4
		c0.2,0.1,0.3,0.4,0.3,0.6c0,0.1,0,0.1-0.1,0.1c-0.3,0.3-0.5,0.3-0.9,0.3h-1.3c0,0.1,0,0.2,0,0.3c-0.7,3.1-1.3,6.2-2,9.3
		c-0.1,0.4-0.2,0.8-0.3,1.1c0,0.2-0.1,0.3-0.1,0.5C7.7,16.9,7.5,17,7.2,17c-0.6,0-1.2-0.4-1.1-1c0-0.2,0.1-0.5,0.1-0.7
		c0.1-0.4,0.2-0.7,0.3-1.1l1.9-8.8C7.6,5.4,6.9,5.4,6.5,4.9z"/>
	<path d="M18.8,3.9L18.8,3.9c0.1,0,0.1-0.1,0.2-0.1c0.5,0,0.9,0.5,1,0.9c0,0.2,0,0.8-0.2,1.5c-0.1,0.6-0.3,1.3-0.3,1.6
		c-0.4,2.2-0.9,4.3-1.3,6.5c-0.1,0.3-0.2,0.7-0.3,1.1c-0.1,0.4-0.3,0.9-0.4,1.1c-0.1,0.2-0.3,0.3-0.6,0.3c-0.1,0-0.3,0-0.4-0.1
		c-0.3-0.1-0.5-0.3-0.6-0.5c-0.2-0.3-0.1-0.8,0-1.4c0.1-0.6,0.2-1.1,0.3-1.5c0.1-0.3,0.1-0.6,0.2-0.9c-0.4,0-0.8,0-1.2,0
		c-0.4,0-0.8,0-1.2-0.1c-0.3,1.3-0.6,2.6-0.8,3.9c-0.1,0.3-0.2,0.6-0.7,0.6c-0.6,0-1.2-0.5-1.2-1c0-0.3,0.1-0.7,0.2-1
		c0.1-0.5,0.3-1.1,0.4-1.6c0.6-2.8,1.2-5.6,1.8-8.4c0.1-0.3,0.3-1,0.9-1c0.1,0,0.3,0,0.4,0.1c0.8,0.3,0.8,1.1,0.6,1.8
		c-0.4,1.7-0.7,3.4-1.1,5.1c0.2,0,0.4,0,0.5,0c0.6,0,1.3,0,1.9,0c0.3-1.5,0.7-3,1-4.6c0-0.2,0.1-0.6,0.2-1c0.1-0.4,0.2-0.8,0.3-1
		c0.1-0.1,0.1-0.2,0.2-0.2c0,0,0.1,0,0.1-0.1C18.7,4,18.8,4,18.8,3.9L18.8,3.9z"/>
	<path d="M21.4,15c0,0.2-0.1,0.4-0.1,0.6c0.6,0,1.2,0,1.8,0c0.5,0,1.5,0.4,1.4,1c-0.1,0.4-0.6,0.5-1,0.5c-0.1,0-0.3,0-0.4,0h-1.3
		c-0.3,0-0.6,0-0.9-0.1c-0.1,0-0.1,0-0.2,0c-0.1,0-0.1,0-0.2,0c0,0-0.1,0-0.2,0c-0.1,0-0.3,0-0.4-0.1c-0.7-0.2-0.8-0.7-0.7-1.3
		c0.5-2.5,1.1-5,1.6-7.6c0.2-1,0.4-2,0.8-3c-0.1-0.1-0.3-0.2-0.3-0.4c0.1-0.3,0.9-0.4,1.8-0.5S25,4,25.2,4c0.2,0,0.4,0,0.6,0
		c0.5,0,1.2,0.4,1.1,0.9c-0.1,0.4-0.6,0.4-0.9,0.4c-0.9,0-1.8,0-2.7-0.1c0,0.5-0.1,1.1-0.2,1.6c-0.2,0.9-0.3,1.8-0.5,2.7
		c0.5,0,1,0,1.5,0c0.6,0,1.6,0.4,1.5,1c-0.1,0.4-0.6,0.5-1,0.5c-0.2,0-0.4,0-0.5,0c-0.6,0-1.2,0-1.8,0L21.4,15z"/>
	<path d="M34.1,17c-0.3,0-0.5,0-0.8-0.1c-3.3-0.7-3.1-4.4-2.6-7c0.4-1.7,1.2-3.9,3-5.2C34.5,4.3,35.5,4,36.4,4c0.1,0,0.3,0,0.4,0
		c0,0,0.2,0,0.2,0c1,0,1.9,0.3,2.4,1c0.9,1.3,0.6,3.8,0.2,5.4c-0.3,1.5-1,3.3-1.9,4.7c0.1,0.2,0.2,0.5,0.4,0.8
		c0.1,0.3,0.2,0.6,0.1,0.8c-0.1,0.3-0.4,0.5-0.7,0.5c-0.5,0-1-0.4-1.2-0.7C35.7,16.8,34.9,17,34.1,17z M34.8,13
		c-0.3-0.8-0.6-1.6-0.6-1.8c0.1-0.3,0.4-0.5,0.7-0.5c0.6,0,1.1,0.4,1.3,0.8c0.2,0.4,0.3,0.8,0.5,1.2c0.3-0.8,0.6-1.5,0.7-2.3
		c0.3-1.4,0.5-2.8,0.1-4.2c-0.1-0.5-0.3-1.2-1.1-1.2c-0.3,0-0.7,0.2-1,0.3c-1.7,1-2.3,3-2.7,4.5c-0.3,1.6-0.5,4.3,0.6,5.4
		c0.2,0.2,0.5,0.4,0.7,0.4c0.5,0,1-0.5,1.3-0.9C35.5,14.6,35.1,13.8,34.8,13z"/>
	<path d="M42.9,15.5c0,0,0,0.1,0.1,0.1c0.1,0.1,0.2,0.1,0.3,0.1c0.4-0.2,0.8-0.8,1.1-1.3c0.3-0.6,0.5-1.1,0.7-1.5
		c0.2-0.5,0.3-1,0.4-1.4c0.2-0.8,0.4-1.7,0.6-2.5l0.5-2.5L47,5c0.1-0.2,0.1-0.4,0.3-0.6c0,0,0,0,0,0v0C47.5,4,47.8,4,48.1,4
		c0.6,0,0.8,0.3,0.8,0.6c0,0.2,0,0.4,0,0.6c0,0.2-0.1,0.4-0.1,0.6c-0.1,0.6-0.2,1.2-0.3,1.8c-0.3,1.6-0.7,3.2-1.1,4.7
		c-0.2,0.6-0.5,1.3-0.8,1.9C46,15.5,45.1,17,43.2,17c-0.8,0-1.4-0.3-1.9-0.7c-1.1-1-1-2.9-0.8-4.3c0.2-1.3,0.5-2.7,0.8-4
		c0.1-0.6,0.3-1.2,0.4-1.9c0.1-0.3,0.1-0.7,0.2-1c0.1-0.2,0.2-0.6,0.4-0.8c0.2-0.3,0.5-0.4,0.8-0.4c0.9,0,0.9,0.5,0.8,1.2
		c0,0.3-0.1,0.5-0.1,0.8c-0.2,0.8-0.4,1.7-0.6,2.5c-0.3,1.3-0.5,2.6-0.7,3.9c-0.1,1.1-0.1,2.1,0.5,3.1
		C42.9,15.5,42.9,15.5,42.9,15.5z"/>
	<path d="M48.2,15c0.1-0.5,0.3-1.1,0.4-1.6c0.5-2.2,0.9-4.5,1.4-6.8l0.4-1.7c0.1-0.3,0.3-1,0.9-1c0.9,0,1.1,0.8,1.1,1.4
		c0,0.3-0.1,0.5-0.1,0.8c-0.1,0.4-0.2,0.9-0.3,1.3c-0.3,1.5-0.7,3.1-1,4.6c-0.3,1.5-0.6,2.9-0.9,4.4c-0.1,0.3-0.2,0.6-0.7,0.6
		c-0.6,0-1.2-0.5-1.2-1C48,15.7,48.1,15.3,48.2,15z"/>
	<path d="M54.8,15.7c0.5,0,1.1-0.5,1.4-0.8c0.2-0.2,0.3-0.5,0.6-0.7c0.2-0.2,0.5-0.4,0.8-0.4c0.5,0,0.9,0.3,0.9,0.7v0c0,0,0,0,0,0
		c0,0,0,0,0,0l0,0.1c-0.1,0.4-0.4,0.8-0.7,1.1c-0.6,0.7-1.5,1.2-2.5,1.2c-0.6,0-1.3-0.2-1.7-0.6c-1.4-1.2-1.5-3.3-1.1-5
		c0.4-1.7,1.5-5,2.9-6.4C55.9,4.4,56.7,4,57.4,4c1.7,0,3.1,1.7,2.8,3.2c-0.1,0.2-0.2,0.7-0.6,0.7c-0.4,0-0.9-0.3-1-0.7
		c0-0.3,0-0.6-0.1-0.9c-0.1-0.3-0.2-0.6-0.4-0.9c-0.1-0.1-0.1-0.2-0.3-0.2c-0.1,0-0.2,0-0.3,0.1c-1.8,0.8-3,5.1-3.3,6.6
		c-0.3,1.2-0.4,2.6,0.3,3.6c0,0,0,0.1,0.1,0.1C54.7,15.6,54.7,15.6,54.8,15.7L54.8,15.7C54.7,15.7,54.7,15.7,54.8,15.7z"/>
	<path d="M61.5,16.4c-0.1,0.3-0.4,0.5-0.8,0.5c-0.6,0-1.2-0.5-1.1-1l1.8-8.4c0.1-0.6,0.3-1.2,0.5-1.8C62,5.3,62,4.9,62.1,4.6
		C62.2,4.2,62.7,4,63.1,4c0.6,0,1,0.3,0.9,0.9c-0.1,0.2-0.1,0.5-0.2,0.7c-0.1,0.5-0.3,1-0.4,1.5c-0.2,0.8-0.3,1.5-0.4,2.3
		c0.5-0.5,0.9-0.9,1.4-1.4c0.9-0.9,1.6-1.8,2.4-2.6C67,5.2,67.1,5,67.3,4.8c0.2-0.2,0.3-0.4,0.5-0.5C68,4.1,68.2,4,68.5,4
		c0.5,0,1.1,0.4,1,0.9c0,0.1-0.1,0.2-0.1,0.3c-1.1,1.3-2.4,2.5-3.6,3.8c-0.5,0.5-0.9,1.1-1.4,1.6c0.1,0.5,0.3,0.9,0.6,1.3
		c0.2,0.4,0.5,0.8,0.7,1.2c0.3,0.6,0.6,1.3,1,1.9c0.2,0.3,0.4,0.7,0.5,1c0.1,0.1,0.1,0.3,0.1,0.5c-0.1,0.4-0.5,0.6-0.9,0.6
		c-0.4,0-0.6-0.1-0.8-0.4c-0.2-0.3-0.3-0.6-0.5-0.9c-0.3-0.6-0.7-1.3-1-1.9c-0.3-0.6-0.6-1.2-0.9-1.8c-0.3,0.2-0.5,0.5-0.8,0.7
		L61.5,16.4z"/>
	<path d="M80.3,13.4c-0.2,1.1-0.9,2.3-2.1,2.9c-1.4,0.8-3.1,0.8-4.6,0.8c-0.6,0-1-0.6-0.9-1.1l1.8-8.4c0.1-0.6,0.3-1.2,0.4-1.8
		C74.9,5.3,75,5,75,4.6C75.1,4.2,75.6,4,76,4c0.1,0,0.2,0,0.3,0c0.4-0.1,0.8-0.1,1.1-0.1c2.6,0,4.2,1.6,3.7,3.8
		c-0.3,1.2-1.1,2.1-2.4,2.8C80.1,11.1,80.6,12.1,80.3,13.4z M74.7,15.5c1.8-0.1,3-0.5,3.6-2.1c0.1-0.2,0.1-0.4,0.2-0.6
		c0.2-0.7-0.1-0.8-0.8-1c-0.3-0.1-0.7-0.1-1-0.1c-0.4,0-0.8,0.1-1.2,0.2L74.7,15.5z M79.2,7.7c0-0.1,0.1-0.3,0.1-0.4
		c0.1-0.6,0-1.3-0.5-1.7c-0.3-0.2-0.5-0.2-0.9-0.2s-0.8,0.1-1.1,0.1c-0.1,0.6-0.3,1.1-0.4,1.6c-0.2,1-0.4,2-0.6,3
		C77.3,9.7,78.6,9,79.2,7.7z"/>
	<path d="M82.9,16.5c-0.1,0.3-0.3,0.5-0.7,0.5c-0.6,0-1.2-0.5-1.1-1l1.8-8.3c0.1-0.6,0.3-1.2,0.4-1.8c0.1-0.2,0.1-0.5,0.1-0.7
		c-0.1-0.1-0.2-0.3-0.2-0.5c0.1-0.7,1.9-0.8,2.4-0.8c2.7,0,4.9,1.5,4.4,4c-0.4,2-2.5,3.6-4.8,4.2c0.5,0.8,1.1,1.6,1.6,2.5
		c0.3,0.4,0.6,0.8,0.8,1.3c0.1,0.1,0.1,0.3,0.1,0.5c-0.1,0.4-0.5,0.6-0.9,0.6c-0.4,0-0.6-0.1-0.8-0.4c-0.3-0.4-0.5-0.9-0.8-1.3
		c-0.5-0.8-1.1-1.6-1.5-2.4L82.9,16.5z M88.2,7.4c0.3-1.6-1.1-1.8-2.6-1.8h-0.4c-0.1,0.6-0.3,1.1-0.4,1.7c-0.3,1.2-0.5,2.4-0.7,3.6
		C86.1,10.5,87.8,9.2,88.2,7.4z"/>
	<path d="M97.2,4.1c0.2,0,0.4,0.1,0.5,0.1c0.6,0.2,1,0.5,1.3,0.9c0.8,1.4,0.6,3.6,0.3,5.3c-0.3,1.6-1.2,4-2.5,5.3
		c-0.8,0.9-1.8,1.4-3,1.4c-0.3,0-0.5,0-0.8-0.1c-1.3-0.2-2.1-1.1-2.5-2.1c-0.5-1.4-0.4-3.3-0.1-4.9c0.4-1.7,1.2-4,3-5.2
		C94.2,4.3,95.1,4,96,4c0.1,0,0.2,0,0.3,0c0.2,0,0.3,0,0.5,0h0C96.8,4,97,4,97.2,4.1z M93.9,15.8c0.3,0,0.6-0.3,0.8-0.4
		c1.1-0.9,2.1-3.7,2.3-4.9c0.3-1.5,0.4-2.9,0.1-4.3c-0.1-0.5-0.3-1.1-1-1.1c-0.2,0-0.3,0-0.5,0.1c-2,0.7-2.8,3.2-3.1,4.7
		c-0.3,1.6-0.6,4.6,0.8,5.6C93.5,15.7,93.7,15.8,93.9,15.8z"/>
	<path d="M103.1,16.4c-0.1,0.5-0.8,0.7-1.2,0.7c-0.5,0-0.8-0.3-0.9-0.7c-0.1-0.2-0.1-0.4-0.1-0.6c0-0.5,0.1-1,0.1-1.5
		c0.1-3.1,0.1-6.3,0.2-9.4c0-0.1,0-0.2,0-0.3c0.1-0.4,0.4-0.7,0.9-0.7c0.3,0,0.5,0.2,0.5,0.4c0,0.1,0.1,0.3,0.1,0.4
		c0,0.2,0,0.3,0,0.5c0,0.6,0.1,1.3,0.1,1.9c0,1.6,0,3.3,0.1,5c0.8-2.4,1.5-4.8,2.6-7.1c0.1-0.1,0.1-0.3,0.2-0.4
		c0.1-0.1,0.1-0.3,0.2-0.4c0.2-0.3,0.6-0.4,0.9-0.4c0.5,0,0.7,0.1,0.8,0.5c0,0.1,0.1,0.2,0.1,0.3c0,0.1,0,0.2,0,0.4
		c0.1,2.4-0.2,4.7-0.3,7.1c0.7-1.7,1.3-3.5,1.9-5.2c0.3-0.6,0.5-1.3,0.8-1.9c0.1-0.1,0.1-0.3,0.1-0.4c0.1-0.1,0.1-0.3,0.2-0.4
		c0.2-0.3,0.5-0.4,0.9-0.4c0.4,0,0.9,0.2,0.8,0.6c-0.1,0.4-0.3,0.8-0.4,1.3c-0.3,0.7-0.5,1.4-0.8,2.2c-0.8,2.3-1.7,4.5-2.6,6.7
		c-0.1,0.3-0.2,0.6-0.3,0.9c-0.1,0.3-0.3,0.9-0.5,1.1c-0.2,0.3-0.5,0.3-0.9,0.3c-0.7,0-0.9-0.6-1-1c-0.1-0.5-0.1-0.9-0.1-1.4
		c0-0.9,0-1.8,0.1-2.7s0.1-1.8,0.1-2.7C104.8,11.6,104,14,103.1,16.4L103.1,16.4z"/>
	<path d="M117.8,6.7l0.4-1.7c0-0.1,0-0.2,0.1-0.3c0-0.1,0.1-0.2,0.1-0.3c0.1-0.2,0.3-0.3,0.6-0.3c0.6,0,1.2,0.3,1.3,0.8
		c0,0.2,0,0.4-0.1,0.6l-0.4,2c-0.6,3-1.3,6.1-2,9.1c-0.1,0.3-0.4,0.5-0.7,0.5c-1,0-1.5-0.7-1.8-1.4c-0.1-0.4-0.2-0.7-0.3-1.1
		c-0.4-1.3-0.8-2.6-1-4l-0.7,3.1c0,0.1-0.2,0.8-0.3,1.5c-0.2,0.6-0.3,1.3-0.4,1.4c-0.1,0.2-0.4,0.4-0.6,0.4c-0.4,0-0.8-0.3-0.9-0.6
		c-0.1-0.2-0.1-0.5-0.1-0.8s0.1-0.6,0.2-0.8c0.6-3,1.2-6,1.9-9c0-0.2,0.1-0.4,0.1-0.6c0-0.1,0-0.2,0.1-0.4c0-0.1,0.1-0.3,0.1-0.4
		c0.1-0.2,0.3-0.4,0.7-0.4c0.5,0,0.8,0.3,1,0.7c0.1,0.3,0.1,0.5,0,0.8c0.1,0.1,0.3,1.9,0.3,2.1c0.2,1.6,0.4,3.2,0.9,4.7
		c0.1,0.3,0.2,0.6,0.2,0.9L117.8,6.7z"/>
	<path d="M125.8,14.7c-0.1,0.4-0.4,1.7-0.7,2.1c-0.2,0.2-0.3,0.3-0.5,0.3c-0.6,0-0.9-0.3-0.9-0.8c0-0.3,0-0.7,0-1
		c0-0.2,0.1-0.3,0.1-0.5c0.6-2.9,1.2-5.9,1.8-8.9c0.1-0.3,0.2-0.8,0.4-1.1c0-0.1,0-0.1,0-0.2c0-0.1,0.1-0.2,0.2-0.3
		c0.3-0.2,0.9-0.2,1.2-0.2c0.8,0,1.5,0,2.2,0c0.1,0,0.3,0,0.5,0c0.2,0,0.3,0,0.5,0c0.5,0.1,1.3,0.5,1.2,1c-0.1,0.5-1.9,0.5-2.3,0.5
		c-0.6,0-1.2,0-1.8,0c0,0.7-0.2,1.4-0.3,2l-0.5,2.3c0.3,0,0.7,0,1,0c0.6,0,1.1,0.1,1.4,0.4c0.2,0.2,0.3,0.4,0.3,0.7
		c-0.1,0.4-0.5,0.5-0.9,0.5c-0.7,0-1.5,0-2.2-0.1C126.3,12.4,126,13.6,125.8,14.7z"/>
	<path d="M137.9,4.1c0.2,0,0.4,0.1,0.5,0.1c0.6,0.2,1,0.5,1.3,0.9c0.8,1.4,0.6,3.6,0.3,5.3c-0.3,1.6-1.2,4-2.5,5.3
		c-0.8,0.9-1.8,1.4-3,1.4c-0.3,0-0.5,0-0.8-0.1c-1.3-0.2-2.1-1.1-2.5-2.1c-0.5-1.4-0.4-3.3-0.1-4.9c0.4-1.7,1.2-4,3-5.2
		c0.8-0.5,1.7-0.8,2.6-0.8c0.1,0,0.2,0,0.3,0c0.2,0,0.3,0,0.5,0h0C137.5,4,137.7,4,137.9,4.1z M134.6,15.8c0.3,0,0.6-0.3,0.8-0.4
		c1.1-0.9,2.1-3.7,2.3-4.9c0.3-1.5,0.4-2.9,0.1-4.3c-0.1-0.5-0.3-1.1-1-1.1c-0.2,0-0.3,0-0.5,0.1c-2,0.7-2.8,3.2-3.1,4.7
		c-0.3,1.6-0.6,4.6,0.7,5.6C134.2,15.7,134.4,15.8,134.6,15.8z"/>
	<path d="M143.3,13.6c-0.2,0.3-0.6,1-1,1.6c-0.4,0.7-0.8,1.3-1,1.5c-0.2,0.2-0.5,0.3-0.8,0.3c-0.3,0-0.9-0.1-0.8-0.5
		c0.2-0.7,3.5-5.7,4.2-6.7c-0.2-1.1-0.5-2.2-0.8-3.3c-0.1-0.3-0.2-0.6-0.3-0.9c-0.1-0.2-0.2-0.4-0.2-0.6c0-0.1-0.1-0.2-0.1-0.3
		c0-0.1,0-0.2,0-0.3c0.1-0.3,0.4-0.4,0.7-0.4c0.1,0,0.3,0,0.4,0.1c0.8,0.3,1.6,2.9,1.9,3.7c0.5-0.7,1.1-1.5,1.6-2.2
		c0.1-0.2,0.3-0.5,0.5-0.7c0.2-0.3,0.4-0.5,0.6-0.6c0.3-0.2,0.6-0.3,0.9-0.3s0.8,0.1,0.8,0.5c0,0.1-0.4,0.6-0.5,0.7
		c-1.2,1.5-2.3,3.1-3.4,4.6c0.1,0.6,0.3,1.2,0.5,1.8c0.3,1,0.5,2,0.8,3.1c0,0.2,0.1,0.6,0.2,1c0.1,0.4,0.2,0.8,0.1,0.9
		c-0.1,0.4-0.8,0.6-1.2,0.6c-0.4,0-0.7-0.1-0.9-0.5c-0.1-0.1-0.1-0.3-0.1-0.5c0-0.2,0-0.3-0.1-0.5c-0.3-1.2-0.6-2.5-0.9-3.7
		C144,12.5,143.7,13,143.3,13.6z"/>
	<path d="M155.5,15.5L155.5,15.5c0.8-0.6,1.2-1.6,1.4-2.4c0.1-0.5,0.3-1,0.4-1.5c0.3-1.2,0.6-2.3,0.8-3.5c0.2-1,0.5-2,0.8-3
		c-0.1,0-0.4-0.1-0.7-0.2c-0.3-0.1-0.5-0.2-0.4-0.4c0.1-0.3,0.8-0.5,1.6-0.6c0.8-0.1,1.6-0.1,1.8-0.1c0.4,0,1.1,0.3,1,0.7
		c-0.1,0.5-1.1,0.6-1.5,0.6c0,1.2-0.3,2.5-0.6,3.8c-0.2,1-0.4,2.1-0.6,3.1c-0.3,1.3-0.7,2.8-2,4c-0.6,0.5-1.5,0.9-2.3,0.9
		c-2,0-2.4-2-2.1-3.4c0.1-0.6,0.5-1,1.3-1c0.5,0,0.8,0.1,0.8,0.3c0,0.1,0,0.2,0,0.4c0,0.1-0.1,0.3-0.1,0.5
		C155,14.4,155.2,15,155.5,15.5L155.5,15.5z"/>
	<path d="M164.3,15.5c0,0,0,0.1,0.1,0.1c0.1,0.1,0.2,0.1,0.3,0.1c0.4-0.2,0.8-0.8,1.1-1.3c0.3-0.6,0.5-1.1,0.7-1.5
		c0.2-0.5,0.3-1,0.4-1.4c0.2-0.8,0.4-1.7,0.6-2.5l0.5-2.5l0.3-1.5c0.1-0.2,0.1-0.4,0.3-0.6c0,0,0,0,0,0v0c0.3-0.3,0.5-0.3,0.9-0.3
		c0.6,0,0.8,0.3,0.8,0.6c0,0.2,0,0.4,0,0.6c0,0.2-0.1,0.4-0.1,0.6c-0.1,0.6-0.2,1.2-0.3,1.8c-0.3,1.6-0.7,3.2-1.1,4.7
		c-0.2,0.6-0.5,1.3-0.8,1.9c-0.6,1.4-1.5,2.9-3.5,2.9c-0.8,0-1.4-0.3-1.9-0.7c-1.1-1-1-2.9-0.8-4.3c0.2-1.3,0.5-2.7,0.8-4
		c0.1-0.6,0.3-1.2,0.4-1.9c0.1-0.3,0.1-0.7,0.2-1c0.1-0.2,0.2-0.6,0.4-0.8c0.2-0.3,0.5-0.4,0.8-0.4c0.9,0,0.9,0.5,0.8,1.2
		c0,0.3-0.1,0.5-0.1,0.8c-0.2,0.8-0.4,1.7-0.6,2.5c-0.3,1.3-0.5,2.6-0.7,3.9c-0.1,1.1-0.1,2.1,0.5,3.1
		C164.2,15.5,164.2,15.5,164.3,15.5z"/>
	<path d="M177.3,6.6c0.2-0.5,0.8-1.9,1.2-2.3c0.2-0.3,0.4-0.3,0.8-0.3c0.4,0,0.7,0.1,0.8,0.4c0,0.1,0,0.3,0,0.5
		c0,0.2-0.1,0.3-0.1,0.5c-0.1,2.7-0.4,5.4-0.5,8.1c0,0.7-0.1,1.4-0.2,2.1c0,0.3,0,0.6-0.1,0.9c-0.1,0.5-0.9,0.6-1.3,0.6
		c-0.5,0-0.9-0.2-0.9-0.7c0-0.1,0-0.2,0-0.3c0-0.1,0-0.2,0.1-0.3c0.1-0.6,0.1-1.2,0.2-1.8c0.2-1.5,0.4-2.9,0.6-4.4
		c-0.5,1.1-1,2.2-1.4,3.2c-0.5,1.1-0.9,2.2-1.1,3.4c0,0.1,0,0.2-0.1,0.4c-0.1,0.5-0.7,0.6-1.2,0.6c-0.6,0-0.9-0.2-1-0.7
		c0-0.2,0-0.4,0-0.5c0-0.2,0-0.4,0.1-0.6c0-0.2,0-0.4,0-0.7c0-1.8-0.2-3.5-0.2-5.2c-0.6,1.6-1.1,3.1-1.6,4.7
		c-0.2,0.6-0.4,1.2-0.6,1.8c0,0.1-0.1,0.3-0.1,0.4s-0.1,0.3-0.2,0.4c-0.2,0.3-0.5,0.4-0.8,0.4c-0.3,0-0.8-0.1-0.7-0.5
		c0.1-0.3,0.2-0.5,0.3-0.8c0.2-0.5,0.4-1,0.5-1.6c0.5-1.4,0.9-2.9,1.4-4.3c0.6-1.7,1.2-3.4,1.7-5.1c0.2-0.5,0.3-0.8,1-0.8
		c0.4,0,0.7,0.1,0.8,0.4c0,0,0,0.4,0,0.7c0,0.3,0,0.7,0,0.8c0.1,2,0.2,4,0.3,6C176,10.1,176.6,8.3,177.3,6.6z"/>
	<path d="M183.3,16.6c-0.1,0.3-0.4,0.6-0.8,0.6c-0.6,0-1.2-0.5-1.1-1l1.8-8.5c0.1-0.7,0.3-1.4,0.5-2.2c-0.3-0.1-0.6-0.4-0.5-0.8
		c0.1-0.6,1.5-0.8,2.1-0.8c1,0,2,0.3,2.8,0.7c1.6,0.8,2.6,2.2,2.2,4c-0.2,0.8-0.7,1.7-1.4,2.3c-0.9,0.8-2.5,1.4-3.7,1.7
		c-0.2,0.1-0.4,0.1-0.7,0.2c-0.2,0-0.4,0.1-0.5,0L183.3,16.6z M188.4,8.3c0.2-1.1-0.3-2-1.3-2.4c-0.5-0.2-1-0.3-1.5-0.3
		c-0.1,0.6-0.3,1.1-0.4,1.7c-0.3,1.4-0.5,2.7-0.8,4C186.1,10.7,188.1,9.9,188.4,8.3z"/>
	<path d="M190.8,14c0.1-0.3,0.4-0.5,0.8-0.5c0.6,0,1,0.3,1,0.8c0,0.1,0,0.3,0.1,0.5c0,0.1,0.1,0.3,0.1,0.4c0.1,0.3,0.3,0.4,0.8,0.4
		c0.9,0,1.3-0.9,1.4-1.5c0.1-0.3,0.1-0.6-0.1-0.9c-0.1-0.2-0.3-0.3-0.5-0.4c-0.2-0.1-0.4-0.2-0.6-0.2c-1.6-0.6-3-1.4-2.6-3.3
		c0.3-1.6,2.1-5.3,4.5-5.3c0.6,0,1.2,0.2,1.6,0.6c1,0.8,1,2.2,0.7,3.4c-0.1,0.4-0.2,0.9-0.4,1.3c-0.2,0.4-0.5,0.7-1,0.7
		c-0.6,0-1-0.3-0.9-0.9c0-0.2,0.1-0.3,0.1-0.5c0.1-0.3,0.2-0.7,0.3-1c0.1-0.5,0.3-2-0.4-2c-0.2,0-0.5,0.2-0.6,0.3
		c-1.2,1-1.9,2.6-2.2,3.9c-0.1,0.4,0,0.6,0.2,0.8c0.2,0.1,0.3,0.3,0.6,0.3c0.2,0.1,0.4,0.2,0.6,0.3c1.7,0.7,2.8,1.5,2.4,3.4
		c-0.3,1.4-1.4,2.6-3.1,2.6c-1.9,0-2.9-1.4-3-2.9C190.8,14.1,190.8,14.1,190.8,14z"/>
	<path d="M209.6,4.1c0.2,0,0.4,0.1,0.5,0.1c0.6,0.2,1,0.5,1.3,0.9c0.8,1.4,0.6,3.6,0.3,5.3c-0.3,1.6-1.2,4-2.5,5.3
		c-0.8,0.9-1.8,1.4-3,1.4c-0.3,0-0.5,0-0.8-0.1c-1.3-0.2-2.1-1.1-2.5-2.1c-0.5-1.4-0.4-3.3-0.1-4.9c0.4-1.7,1.2-4,3-5.2
		c0.8-0.5,1.7-0.8,2.6-0.8c0.1,0,0.2,0,0.3,0c0.1,0,0.3,0,0.5,0h0C209.2,4,209.4,4,209.6,4.1z M206.2,15.8c0.3,0,0.6-0.3,0.8-0.4
		c1.1-0.9,2.1-3.7,2.3-4.9c0.3-1.5,0.4-2.9,0.1-4.3c-0.1-0.5-0.3-1.1-1-1.1c-0.2,0-0.3,0-0.5,0.1c-2,0.7-2.8,3.2-3.1,4.7
		c-0.3,1.6-0.6,4.6,0.8,5.6C205.8,15.7,206.1,15.8,206.2,15.8z"/>
	<path d="M220.8,4.3c0,0.1,0,0.2,0,0.3c0,0.2-0.1,0.4-0.2,0.5c-0.1,0.2-0.2,0.4-0.3,0.5l-0.6,1.2c-0.8,1.6-1.5,3.3-2.3,4.9
		c-0.6,1.4-1.2,2.8-1.7,4.2c0,0.1-0.1,0.3-0.2,0.4c-0.2,0.5-0.7,0.6-1.2,0.6c-0.5,0-0.9-0.2-0.9-0.6c0-0.1,0-0.3,0-0.5
		c0-0.1,0-0.3,0-0.5c0-0.6,0-1.2,0-1.8c0-1.9,0-3.8,0-5.7c0-0.9,0-1.8-0.1-2.7c0-0.1,0-0.2,0-0.3c0-0.1,0-0.2,0-0.3
		c0.1-0.3,0.3-0.7,0.8-0.7c0.2,0,0.4,0.1,0.6,0.1c0.2,0.1,0.4,0.6,0.5,1.1c0.1,0.5,0.1,1,0.1,1.3c0.2,2,0.3,4,0.1,6
		c0.5-1.1,0.9-2.3,1.4-3.4c0.6-1.4,1.3-2.7,1.9-4.1c0.1-0.1,0.1-0.2,0.2-0.3c0-0.1,0.1-0.2,0.2-0.3c0.2-0.3,0.5-0.3,0.9-0.3
		C220.3,3.9,220.6,4,220.8,4.3L220.8,4.3z"/>
	<path d="M221.5,15c0,0.2-0.1,0.4-0.1,0.6c0.6,0,1.2,0,1.8,0c0.5,0,1.5,0.4,1.4,1c-0.1,0.4-0.6,0.5-1,0.5c-0.1,0-0.3,0-0.4,0h-1.3
		c-0.3,0-0.6,0-0.9-0.1c-0.1,0-0.1,0-0.2,0c-0.1,0-0.1,0-0.2,0c0,0-0.1,0-0.2,0c-0.2,0-0.3,0-0.4-0.1c-0.7-0.2-0.8-0.7-0.7-1.3
		c0.5-2.5,1.1-5,1.7-7.6c0.2-1,0.4-2,0.8-3c-0.1-0.1-0.3-0.2-0.3-0.4c0.1-0.3,0.9-0.4,1.8-0.5c0.9-0.1,1.8-0.1,2-0.1
		c0.2,0,0.4,0,0.6,0c0.5,0,1.2,0.4,1.1,0.9c-0.1,0.4-0.6,0.4-0.9,0.4c-0.9,0-1.8,0-2.7-0.1c0,0.5-0.1,1.1-0.2,1.6
		c-0.2,0.9-0.3,1.8-0.5,2.7c0.5,0,1,0,1.5,0c0.6,0,1.7,0.4,1.5,1c-0.1,0.4-0.6,0.5-1,0.5c-0.2,0-0.4,0-0.5,0c-0.6,0-1.2,0-1.8,0
		L221.5,15z"/>
	<path d="M228.1,16.5c-0.1,0.3-0.3,0.5-0.7,0.5c-0.6,0-1.2-0.5-1.1-1l1.8-8.3c0.1-0.6,0.3-1.2,0.4-1.8c0.1-0.2,0.1-0.5,0.1-0.7
		c-0.2-0.1-0.2-0.3-0.2-0.5c0.1-0.7,1.9-0.8,2.4-0.8c2.7,0,4.9,1.5,4.4,4c-0.4,2-2.5,3.6-4.8,4.2c0.5,0.8,1.1,1.6,1.6,2.5
		c0.3,0.4,0.6,0.8,0.8,1.3c0.1,0.1,0.2,0.3,0.1,0.5c-0.1,0.4-0.5,0.6-0.9,0.6c-0.4,0-0.6-0.1-0.8-0.4c-0.3-0.4-0.5-0.9-0.8-1.3
		c-0.5-0.8-1-1.6-1.5-2.4L228.1,16.5z M233.5,7.4c0.3-1.6-1.1-1.8-2.6-1.8h-0.4c-0.2,0.6-0.3,1.1-0.4,1.7c-0.3,1.2-0.5,2.4-0.7,3.6
		C231.3,10.5,233.1,9.2,233.5,7.4z"/>
	<path d="M240.6,4.9c-0.1-0.1-0.2-0.3-0.2-0.4c0-0.2,0.3-0.3,0.5-0.4c0.2-0.1,0.6-0.1,0.9-0.1s0.7,0,0.9,0h2.2c0.6,0,1.1,0,1.5,0.4
		c0.1,0.1,0.3,0.4,0.3,0.6c0,0.1,0,0.1-0.1,0.1c-0.3,0.3-0.5,0.3-0.9,0.3h-1.3c0,0.1,0,0.2,0,0.3c-0.7,3.1-1.3,6.2-2,9.3
		c-0.1,0.4-0.2,0.8-0.3,1.1c0,0.2-0.1,0.3-0.1,0.5c-0.1,0.3-0.3,0.4-0.6,0.4c-0.6,0-1.2-0.4-1.1-1c0-0.2,0.1-0.5,0.1-0.7
		c0.1-0.4,0.2-0.7,0.3-1.1l1.9-8.8C241.8,5.4,241.1,5.4,240.6,4.9z"/>
	<path d="M253,3.9L253,3.9c0.1,0,0.1-0.1,0.2-0.1c0.5,0,0.9,0.5,1,0.9c0,0.2,0,0.8-0.2,1.5c-0.1,0.6-0.3,1.3-0.3,1.6
		c-0.4,2.2-0.9,4.3-1.3,6.5c-0.1,0.3-0.2,0.7-0.3,1.1c-0.1,0.4-0.3,0.9-0.4,1.1c-0.1,0.2-0.3,0.3-0.6,0.3c-0.2,0-0.3,0-0.4-0.1
		c-0.3-0.1-0.5-0.3-0.6-0.5c-0.2-0.3-0.1-0.8,0-1.4c0.1-0.6,0.2-1.1,0.3-1.5c0.1-0.3,0.1-0.6,0.2-0.9c-0.4,0-0.8,0-1.2,0
		s-0.8,0-1.2-0.1c-0.3,1.3-0.6,2.6-0.8,3.9c-0.1,0.3-0.2,0.6-0.7,0.6c-0.6,0-1.2-0.5-1.2-1c0-0.3,0.1-0.7,0.2-1
		c0.1-0.5,0.3-1.1,0.4-1.6c0.6-2.8,1.2-5.6,1.8-8.4c0.1-0.3,0.3-1,0.9-1c0.1,0,0.3,0,0.4,0.1c0.8,0.3,0.8,1.1,0.6,1.8
		c-0.4,1.7-0.7,3.4-1.1,5.1c0.2,0,0.4,0,0.5,0c0.6,0,1.3,0,1.9,0c0.3-1.5,0.7-3,1-4.6c0-0.2,0.1-0.6,0.2-1c0.1-0.4,0.2-0.8,0.3-1
		c0.1-0.1,0.2-0.2,0.2-0.2c0,0,0.1,0,0.1-0.1C252.9,4,253,4,253,3.9L253,3.9z"/>
	<path d="M255.6,15c0,0.2-0.1,0.4-0.1,0.6c0.6,0,1.2,0,1.8,0c0.5,0,1.5,0.4,1.4,1c-0.1,0.4-0.6,0.5-1,0.5c-0.1,0-0.3,0-0.4,0h-1.3
		c-0.3,0-0.6,0-0.9-0.1c-0.1,0-0.1,0-0.2,0c-0.1,0-0.1,0-0.2,0c0,0-0.1,0-0.2,0c-0.2,0-0.3,0-0.4-0.1c-0.7-0.2-0.8-0.7-0.7-1.3
		c0.5-2.5,1.1-5,1.7-7.6c0.2-1,0.4-2,0.8-3c-0.1-0.1-0.3-0.2-0.3-0.4c0.1-0.3,0.9-0.4,1.8-0.5c0.9-0.1,1.8-0.1,2-0.1
		c0.2,0,0.4,0,0.6,0c0.5,0,1.2,0.4,1.1,0.9c-0.1,0.4-0.6,0.4-0.9,0.4c-0.9,0-1.8,0-2.7-0.1c0,0.5-0.1,1.1-0.2,1.6
		c-0.2,0.9-0.3,1.8-0.5,2.7c0.5,0,1,0,1.5,0c0.6,0,1.7,0.4,1.5,1c-0.1,0.4-0.6,0.5-1,0.5c-0.2,0-0.4,0-0.5,0c-0.6,0-1.2,0-1.8,0
		L255.6,15z"/>
	<path d="M264.2,16.3c-0.1-0.1-0.2-0.2-0.2-0.4c-0.1-0.6,0-1.3,0.2-1.9c0.4-1.7,0.8-3.5,1.2-5.2c0.3-1.3,0.6-2.5,0.9-3.8
		c0-0.1,0-0.2,0.1-0.3c0-0.1,0-0.2,0.1-0.3c0.1-0.3,0.4-0.6,0.7-0.6c0.5,0,0.8,0.3,0.9,0.7c0.1,0.3-0.1,1.5-0.3,2.7
		c-0.2,1.2-0.5,2.5-0.6,3c-0.3,1.4-0.6,2.7-0.9,4.1c-0.1,0.3-0.1,0.6-0.2,0.9c0.3,0,0.6,0,0.9,0s0.6,0,0.9,0.1
		c0.6,0.1,1.1,0.3,1.3,0.8c0,0.1,0.1,0.2,0,0.4c-0.1,0.3-0.7,0.5-0.9,0.5c-0.1,0-0.3,0-0.4,0c-0.3,0-0.7,0-1,0c-0.5,0-1.4,0-1.8-0.2
		c-0.1,0-0.1-0.1-0.2-0.1c0,0-0.1-0.1-0.1-0.1c-0.1,0-0.2-0.1-0.2-0.1C264.3,16.4,264.2,16.4,264.2,16.3z"/>
	<path d="M272.9,15.5c-0.1,0.2-0.1,0.3-0.2,0.5c-0.1,0.2-0.1,0.3-0.2,0.5c-0.3,0.4-0.6,0.6-1.1,0.6c-0.4,0-1.1-0.2-1-0.7
		c0-0.2,0.1-0.4,0.2-0.6c0.1-0.2,0.2-0.4,0.3-0.5l0.9-2.2c1.1-2.6,2.2-5.3,3.5-7.9c0.2-0.5,0.7-0.9,1.3-0.9c0.5,0,0.8,0.4,0.7,0.8
		c0,0,0,0.1,0,0.1c0,0,0,0.1,0,0.2c0,0.1,0,0.2,0,0.3c0.3,1.7,0.4,3.5,0.4,5.3c0,1.8,0,3.6,0,5.3c0,0,0,0.1,0,0.1
		c-0.1,0.5-0.6,0.6-1,0.6c-0.3,0-0.5-0.1-0.6-0.3c-0.1-0.2-0.1-0.8-0.1-1.4c0-0.6,0-1.3,0-1.6c-0.7,0-1.5,0-2.2-0.1
		C273.4,14.2,273.1,14.8,272.9,15.5z M275,12.6c0.3,0,0.6,0,0.9,0c0-1.5,0-3-0.1-4.5c-0.6,1.5-1.1,3-1.8,4.5
		C274.4,12.6,274.7,12.6,275,12.6z"/>
	<path d="M279.2,15.8c0-0.1,0-0.1,0.1-0.1c0.3-0.6,0.7-1.3,1.1-1.9c0.9-1.6,1.9-3.1,3-4.7l1.8-2.7c0.3-0.4,0.6-0.9,0.9-1.3
		c-0.8,0-1.7,0-2.5,0c-0.1,0-0.3,0-0.5,0c-0.2,0-0.4,0-0.7-0.1c-0.4-0.1-0.8-0.2-0.7-0.6c0.1-0.6,1.6-0.6,2.1-0.6c0.9,0,1.7,0,2.6,0
		c0.2,0,0.4,0,0.6,0c0.2,0,0.4,0,0.6,0c0.4,0.1,0.8,0.3,0.7,0.7c0,0.2-0.1,0.3-0.2,0.5c-0.1,0.2-0.2,0.3-0.3,0.4
		c-0.5,0.7-0.9,1.4-1.4,2.1c-1,1.4-1.9,2.9-2.8,4.3c-0.7,1.2-1.5,2.4-2.2,3.6c0.8,0,1.7,0,2.5,0c0.2,0,0.3,0,0.5,0
		c0.2,0,0.3,0,0.5,0.1c0.3,0.1,0.8,0.3,0.7,0.7c-0.1,0.3-0.4,0.5-0.7,0.5c-0.2,0-0.3,0-0.5,0.1c-0.2,0-0.3,0-0.4,0
		c-1.4,0-2.7,0-4.1,0c-0.5,0-1.1-0.2-1-0.7c0-0.1,0.1-0.1,0.1-0.2c0,0,0.1-0.1,0.1-0.1C279.2,15.9,279.2,15.8,279.2,15.8z"/>
	<path d="M290.8,10C290.8,10,290.8,10,290.8,10c0-0.1-0.1-0.2-0.1-0.3c-0.3-1.3-0.7-2.6-1-3.9c-0.1-0.2-0.2-0.5-0.3-0.7
		c0-0.2-0.1-0.5-0.1-0.7c0.1-0.4,0.7-0.5,1-0.5c0.3,0,0.5,0.1,0.7,0.3c0.6,0.6,1.2,3,1.4,4c0.4-0.6,0.9-1.3,1.4-2
		c0.5-0.7,1.1-1.4,1.7-1.9c0,0,0,0,0.1,0c0,0,0,0,0,0h0c0,0,0,0,0,0c0.1-0.1,0.3-0.1,0.4-0.1c0.2,0,0.4,0.1,0.4,0.3
		c0,0.1-3.3,5.3-3.6,5.6c-0.4,1.9-0.8,3.9-1.2,5.8c-0.1,0.6-0.5,1.2-1.3,1.2c-0.5,0-0.8-0.2-0.8-0.6c0-0.2,0-0.3,0-0.5
		c0-0.2,0.1-0.4,0.1-0.5c0.2-1,0.4-1.9,0.6-2.9C290.5,11.7,290.7,10.9,290.8,10C290.8,10.1,290.8,10,290.8,10z"/>
	<path d="M300.3,17.1c-0.6,0-1.2-0.5-1-1l1.8-8.5c0.1-0.6,0.3-1.2,0.4-1.8c0.1-0.4,0.1-0.8,0.2-1.2c0.1-0.5,0.8-0.7,1.3-0.7
		c1.8,0,3.4,0.5,4.2,1.8c0.9,1.5,0.5,3.6,0.1,5.3c-0.7,3.2-2.2,5.6-6.4,5.9C300.7,17,300.5,17.1,300.3,17.1z M305.5,10.5
		c0.1-0.6,0.3-1.3,0.4-2.1c0.1-0.7,0.1-1.4-0.2-2c-0.4-0.8-1.2-1-2.2-1c-0.1,0.6-0.3,1.1-0.4,1.7c-0.3,1.2-0.5,2.4-0.7,3.6l-1,4.6
		C304.3,14.8,305,12.7,305.5,10.5z"/>
	<path d="M315.3,4.1c0.2,0,0.4,0.1,0.5,0.1c0.6,0.2,1,0.5,1.3,0.9c0.8,1.4,0.6,3.6,0.3,5.3c-0.3,1.6-1.2,4-2.5,5.3
		c-0.8,0.9-1.8,1.4-3,1.4c-0.3,0-0.5,0-0.8-0.1c-1.3-0.2-2.1-1.1-2.5-2.1c-0.5-1.4-0.4-3.3-0.1-4.9c0.4-1.7,1.2-4,3-5.2
		c0.8-0.5,1.7-0.8,2.6-0.8c0.1,0,0.2,0,0.3,0c0.1,0,0.3,0,0.5,0h0C314.9,4,315.1,4,315.3,4.1z M312,15.8c0.3,0,0.6-0.3,0.8-0.4
		c1.1-0.9,2.1-3.7,2.3-4.9c0.3-1.5,0.4-2.9,0.1-4.3c-0.1-0.5-0.3-1.1-1-1.1c-0.2,0-0.3,0-0.5,0.1c-2,0.7-2.8,3.2-3.1,4.7
		c-0.3,1.6-0.6,4.6,0.8,5.6C311.5,15.7,311.8,15.8,312,15.8z"/>
	<path d="M322.3,11.8c-0.5,0-1.1-0.4-1-0.9c0.1-0.3,0.3-0.5,0.7-0.6c0.1,0,0.1,0,0.2,0c0.1,0,0.2,0,0.2,0c0.7-0.1,1.4-0.1,2-0.1
		c0.7,0,1.3,0.3,1.2,1c0,0.2-0.1,0.5-0.1,0.7c-0.3,1.6-1.5,5.2-4.2,5.2c-3.3,0-3.2-4.5-2.7-6.6c0.3-1.6,1.6-4.8,3.2-5.9
		c0.5-0.3,1.1-0.5,1.7-0.5c1.2,0,2.1,0.7,2.3,1.6c0.1,0.3,0.1,0.6,0.1,0.9c0,0.3,0,0.6,0.1,0.8c0,0,0,0.1,0,0.1s0,0.1,0,0.1
		c-0.1,0.4-0.6,0.6-1,0.6c-0.6,0-1-0.2-0.9-0.7c0-0.2,0.1-0.7,0.1-1.2c0-0.4-0.1-0.8-0.5-0.8c-0.6,0-1.3,1.1-1.6,1.5
		c-0.8,1.3-1.3,2.4-1.6,3.8c-0.1,0.4-0.1,0.7-0.2,1.1c0,0.7,0,3.6,1,3.6c0.8,0,1.8-1.7,2-2.3c0.3-0.5,0.4-1,0.5-1.6
		c-0.2,0-0.4,0-0.7,0.1C322.8,11.8,322.5,11.8,322.3,11.8C322.4,11.8,322.3,11.8,322.3,11.8z"/>
	<path d="M6.5,20.9c-0.1-0.1-0.2-0.3-0.1-0.4c0-0.2,0.3-0.3,0.5-0.4C7,20,7.3,20,7.7,20c0.3,0,0.7,0,0.9,0h2.2c0.6,0,1.1,0,1.5,0.4
		c0.2,0.1,0.3,0.4,0.3,0.6c0,0.1,0,0.1-0.1,0.1c-0.3,0.3-0.5,0.3-0.9,0.3h-1.3c0,0.1,0,0.2,0,0.3c-0.7,3.1-1.3,6.2-2,9.3
		c-0.1,0.4-0.2,0.8-0.3,1.1c0,0.2-0.1,0.3-0.1,0.5C7.7,32.9,7.5,33,7.2,33c-0.6,0-1.2-0.4-1.1-1c0-0.2,0.1-0.5,0.1-0.7
		c0.1-0.4,0.2-0.7,0.3-1.1l1.9-8.8C7.6,21.4,6.9,21.4,6.5,20.9z"/>
	<path d="M18.8,19.9L18.8,19.9c0.1,0,0.1-0.1,0.2-0.1c0.5,0,0.9,0.5,1,0.9c0.1,0.2-0.3,2.3-0.8,4.5c-0.4,2.2-0.9,4.5-1,5.1
		c-0.1,0.2-0.2,0.8-0.3,1.3c-0.2,0.5-0.3,1-0.6,1.2c-0.1,0.1-0.2,0.1-0.4,0.1c-0.1,0-0.3,0-0.4-0.1c-0.3-0.1-0.5-0.3-0.6-0.5
		c-0.2-0.3-0.1-0.8,0-1.4c0.1-0.6,0.2-1.1,0.3-1.5c0.1-0.3,0.1-0.6,0.2-0.9c-0.4,0-0.8,0-1.2,0c-0.4,0-0.8,0-1.2-0.1
		c-0.3,1.3-0.6,2.6-0.8,3.9c-0.1,0.3-0.2,0.6-0.7,0.6c-0.6,0-1.2-0.5-1.2-1c0-0.3,0.1-0.7,0.2-1c0.1-0.5,0.3-1.1,0.4-1.6
		c0.6-2.8,1.2-5.6,1.8-8.4c0.1-0.3,0.3-1,0.9-1c0.1,0,0.3,0,0.4,0.1c0.8,0.3,0.8,1.1,0.6,1.8c-0.4,1.7-0.7,3.4-1.1,5.1
		c0.2,0,0.4,0,0.5,0c0.6,0,1.3,0,1.9,0c0.3-1.5,0.7-3,1-4.6c0-0.2,0.1-0.6,0.2-1c0.1-0.4,0.2-0.8,0.3-1c0.1-0.1,0.1-0.2,0.2-0.2
		c0,0,0.1,0,0.1-0.1C18.7,20,18.8,20,18.8,19.9L18.8,19.9z"/>
	<path d="M21.4,31c0,0.2-0.1,0.4-0.1,0.6c0.6,0,1.2,0,1.8,0c0.5,0,1.5,0.4,1.4,1c-0.1,0.4-0.6,0.5-1,0.5c-0.1,0-0.3,0-0.4,0h-1.3
		c-0.3,0-0.6,0-0.9-0.1c-0.1,0-0.1,0-0.2,0c-0.1,0-0.1,0-0.2,0c0,0-0.1,0-0.2,0c-0.1,0-0.3,0-0.4-0.1c-0.7-0.2-0.8-0.7-0.7-1.3
		c0.5-2.5,1.1-5,1.6-7.6c0.2-1,0.4-2,0.8-3c-0.1-0.1-0.3-0.2-0.3-0.4c0.1-0.3,0.9-0.4,1.8-0.5s1.8-0.1,2-0.1c0.2,0,0.4,0,0.6,0
		c0.5,0,1.2,0.4,1.1,0.9c-0.1,0.4-0.6,0.4-0.9,0.4c-0.9,0-1.8,0-2.7-0.1c0,0.5-0.1,1.1-0.2,1.6c-0.2,0.9-0.3,1.8-0.5,2.7
		c0.5,0,1,0,1.5,0c0.6,0,1.6,0.4,1.5,1c-0.1,0.4-0.6,0.5-1,0.5c-0.2,0-0.4,0-0.5,0c-0.6,0-1.2,0-1.8,0L21.4,31z"/>
	<path d="M34.1,33c-0.3,0-0.5,0-0.7-0.1c-3.3-0.7-3.1-4.4-2.6-7c0.4-1.7,1.2-3.9,3-5.2c0.8-0.5,1.7-0.8,2.6-0.8c0.1,0,0.3,0,0.4,0
		c0,0,0.2,0,0.2,0c1,0,1.9,0.3,2.4,1c0.9,1.3,0.6,3.8,0.2,5.4c-0.3,1.5-1,3.3-1.9,4.7c0.1,0.2,0.2,0.5,0.4,0.8
		c0.1,0.3,0.2,0.6,0.2,0.8c-0.1,0.3-0.4,0.5-0.7,0.5c-0.5,0-1-0.4-1.2-0.7C35.6,32.8,34.9,33,34.1,33z M34.8,29
		c-0.3-0.8-0.6-1.6-0.6-1.8c0.1-0.3,0.4-0.5,0.7-0.5c0.6,0,1.1,0.4,1.3,0.8c0.2,0.4,0.3,0.8,0.5,1.2c0.3-0.8,0.6-1.5,0.7-2.3
		c0.3-1.4,0.5-2.8,0.1-4.2c-0.1-0.5-0.3-1.2-1.1-1.2c-0.3,0-0.7,0.2-1,0.3c-1.7,1-2.3,3-2.7,4.5c-0.3,1.6-0.5,4.3,0.6,5.4
		c0.2,0.2,0.5,0.4,0.7,0.4c0.5,0,1-0.5,1.3-0.9C35.4,30.6,35.1,29.8,34.8,29z"/>
	<path d="M42.9,31.5c0,0,0,0.1,0.1,0.1c0.1,0.1,0.2,0.1,0.3,0.1c0.4-0.2,0.8-0.8,1.1-1.3c0.3-0.6,0.5-1.1,0.7-1.5
		c0.2-0.5,0.3-1,0.4-1.4c0.2-0.8,0.4-1.7,0.6-2.5l0.5-2.5L47,21c0.1-0.2,0.1-0.4,0.3-0.6c0,0,0,0,0,0v0c0.3-0.3,0.5-0.3,0.9-0.3
		c0.6,0,0.8,0.3,0.8,0.6c0,0.2,0,0.4,0,0.6c0,0.2-0.1,0.4-0.1,0.6c-0.1,0.6-0.2,1.2-0.3,1.8c-0.3,1.6-0.7,3.2-1.1,4.7
		c-0.2,0.6-0.5,1.3-0.8,1.9C46,31.5,45.1,33,43.2,33c-0.8,0-1.4-0.3-1.9-0.7c-1.1-1-1-2.9-0.8-4.3c0.2-1.3,0.5-2.7,0.8-4
		c0.1-0.6,0.3-1.2,0.4-1.9c0.1-0.3,0.1-0.7,0.2-1c0.1-0.2,0.2-0.6,0.4-0.8c0.2-0.3,0.5-0.4,0.8-0.4c0.9,0,0.9,0.5,0.8,1.2
		c0,0.3-0.1,0.5-0.1,0.8c-0.2,0.8-0.4,1.7-0.6,2.5c-0.3,1.3-0.5,2.6-0.7,3.9c-0.1,1.1-0.1,2.1,0.5,3.1
		C42.9,31.5,42.9,31.5,42.9,31.5z"/>
	<path d="M49.8,30c0-0.2,0.1-0.4,0.1-0.6c0.1-0.4,0.2-0.8,0.3-1.2c0.3-1.4,0.5-2.8,0.8-4.2l0.5-2.6c-0.5-0.1-1.5-0.4-1.3-1
		c0.1-0.5,0.8-0.6,1.2-0.6c0.4,0,0.7,0,1.1,0H54c0.6,0,1.6,0.5,1.5,1.1c-0.1,0.3-0.4,0.4-0.8,0.5c-0.4,0.1-0.8,0-1,0
		c0,0.1-0.1,0.3-0.1,0.4L53,24.3c-0.3,1.4-0.6,2.7-0.9,4.1c-0.2,1-0.4,2.1-0.6,3.1c0.5,0.1,1.5,0.4,1.4,1C52.8,32.9,52,33,51.6,33
		c-0.1,0-0.1,0-0.2,0h-1.3c-0.1,0-0.2,0-0.3,0c-0.6,0-1.3-0.1-1.8-0.5c-0.1-0.2-0.3-0.3-0.3-0.6c0.1-0.3,0.4-0.5,0.8-0.5
		c0.2,0,0.4,0,0.6,0c0.2,0,0.3,0,0.4,0C49.6,31,49.7,30.5,49.8,30z"/>
	<path d="M57.5,31.7c0.3,0,0.6-0.2,0.9-0.4c0.2-0.1,0.4-0.3,0.5-0.5c0.2-0.2,0.3-0.5,0.6-0.7c0.2-0.2,0.5-0.4,0.8-0.4
		c0.5,0,0.9,0.3,0.9,0.7v0c0,0,0,0,0,0c0,0,0,0,0,0l0,0.1c-0.1,0.4-0.4,0.8-0.7,1.1C59.8,32.5,59,33,58,33c-0.6,0-1.3-0.2-1.7-0.6
		c-1.4-1.2-1.5-3.3-1.1-5c0.4-1.7,1.5-5,2.9-6.4c0.6-0.6,1.3-0.9,2.1-0.9c1.2,0,2.2,0.8,2.6,1.7c0.1,0.3,0.2,0.7,0.2,1
		c0,0.1,0,0.3,0,0.5c-0.1,0.2-0.2,0.7-0.6,0.7c-0.4,0-0.9-0.3-1-0.7c0-0.3,0-0.6-0.1-0.9c-0.1-0.3-0.2-0.6-0.4-0.9
		c-0.1-0.1-0.1-0.2-0.3-0.2c-0.1,0-0.2,0-0.3,0.1c-1.8,0.8-3,5.1-3.3,6.6c-0.3,1.2-0.4,2.6,0.3,3.6c0,0,0,0.1,0.1,0.1
		C57.4,31.6,57.4,31.6,57.5,31.7L57.5,31.7C57.4,31.7,57.5,31.7,57.5,31.7z"/>
	<path d="M65.1,31.1c-0.1,0.5-0.3,1.4-0.7,1.8c-0.3,0.3-0.6,0.3-0.9,0.3c-0.3,0-0.6-0.1-0.7-0.3c-0.1-0.3-0.1-0.9,0-1.4
		c0.1-0.6,0.2-1.1,0.3-1.5c0.4-1.7,0.6-3.3,1-5c0.2-0.9,0.3-1.8,0.5-2.7c0.1-0.3,0.4-1.8,0.6-2c0.3-0.3,0.7-0.4,1.1-0.4
		c1,0,1.1,0.5,0.9,1.2c0,0.2-0.1,0.5-0.1,0.7l-0.4,1.7c0.8-0.7,1.5-1.4,2.3-2.1c0.4-0.4,0.8-0.7,1.3-1.1c0.3-0.2,0.9-0.5,1.3-0.5
		c0.3,0,0.8,0.1,0.7,0.4c0,0.2-0.4,0.6-0.5,0.7c-0.1,0.1-0.3,0.2-0.4,0.3c-0.3,0.2-0.5,0.5-0.8,0.7c-1.4,1.3-2.8,2.6-4.1,3.9
		c0.3,0.4,0.5,0.9,0.7,1.4c0.6,1.4,1.3,2.8,2.1,4.1c0.1,0.1,0.2,0.3,0.3,0.6c0.1,0.2,0.2,0.4,0.2,0.6c-0.1,0.5-0.8,0.7-1.3,0.7
		c-0.3,0-0.6-0.1-0.9-0.2c-0.1-0.1-0.3-0.3-0.4-0.4c-0.1-0.2-0.2-0.3-0.3-0.5c-0.5-1-1.1-2.1-1.5-3.1C65.3,29.6,65.2,30.4,65.1,31.1
		z"/>
	<path d="M75.5,30.8c0.1-0.4,0.1-0.8,0.2-1.3c0.3-1.8,0.7-3.7,1.1-5.5c0.1-0.6,0.3-1.2,0.4-1.9c0-0.2,0.1-0.3,0.1-0.5
		c0-0.2,0.1-0.3,0.2-0.5c-0.1-0.1-0.2-0.2-0.2-0.3c0-0.1,0.1-0.1,0.2-0.2c0.6-0.4,1.9-0.6,2.6-0.6c1.3,0,2.5,0.6,3.1,1.5
		c0.2,0.4,0.3,0.9,0.2,1.5c-0.3,1.2-1.1,2.4-2.4,3.1c1.1,0.7,1.6,1.9,1.3,3.2c-0.3,1.5-1.7,2.8-3.4,3.4c-0.6,0.2-1.2,0.3-1.8,0.3
		c-0.9,0-1.7-0.2-2-0.9c0,0,0-0.1,0-0.2c0-0.1,0.1-0.2,0.3-0.3C75.3,31.3,75.4,31.1,75.5,30.8z M78,31.3c1.2-0.5,2.2-1.6,2.5-2.7
		c0.1-0.5,0-1.2-0.3-1.6c-0.1-0.2-0.3-0.2-0.5-0.2c-0.2,0-0.5,0-0.7,0.1c-0.2,0-0.5,0.1-0.7,0.1c-0.1,0.4-0.2,0.8-0.3,1.2
		c-0.2,1.1-0.5,2.2-0.8,3.3C77.4,31.5,77.7,31.4,78,31.3z M81.5,22.4c0.2-0.9-0.4-1.2-1.3-1.2c-0.3,0-0.6,0-0.9,0.1
		c0.1,0.6-0.1,1.7-0.3,2.4c-0.1,0.5-0.2,1.1-0.3,1.6C80.1,24.7,81.2,23.7,81.5,22.4z"/>
	<path d="M85.2,32.5c-0.1,0.3-0.3,0.5-0.7,0.5c-0.6,0-1.2-0.5-1.1-1l1.8-8.3c0.1-0.6,0.3-1.2,0.4-1.8c0.1-0.2,0.1-0.5,0.1-0.7
		c-0.1-0.1-0.2-0.3-0.2-0.5c0.1-0.7,1.9-0.8,2.4-0.8c2.7,0,4.9,1.5,4.4,4c-0.4,2-2.5,3.6-4.8,4.2c0.5,0.8,1.1,1.6,1.6,2.5
		c0.3,0.4,0.6,0.8,0.8,1.3c0.1,0.1,0.1,0.3,0.1,0.5C90,32.8,89.5,33,89.2,33c-0.4,0-0.6-0.1-0.8-0.4c-0.3-0.4-0.5-0.9-0.8-1.3
		c-0.5-0.8-1.1-1.6-1.5-2.4L85.2,32.5z M90.5,23.4c0.3-1.6-1.1-1.8-2.6-1.8h-0.4c-0.1,0.6-0.3,1.1-0.4,1.7c-0.3,1.2-0.5,2.4-0.7,3.6
		C88.4,26.5,90.1,25.2,90.5,23.4z"/>
	<path d="M99.5,20c0.3,0,0.6,0.1,0.8,0.1c0.6,0.2,1.1,0.5,1.3,0.9c0.8,1.4,0.6,3.7,0.2,5.3c-0.3,1.5-1.2,4-2.4,5.3
		c-0.8,0.9-1.8,1.3-3,1.3c-0.3,0-0.5,0-0.7-0.1c-1.3-0.2-2.1-1.1-2.5-2.1c-0.5-1.4-0.4-3.3-0.1-4.9c0.4-1.6,1.2-4,3-5.2
		C97.1,20.1,98.2,20,99.5,20L99.5,20L99.5,20z M96.5,31.8c0.3,0,0.6-0.3,0.8-0.4c1.1-0.9,2.1-3.7,2.3-4.9c0.3-1.5,0.4-2.9,0.1-4.3
		c-0.1-0.5-0.3-1.1-1-1.1c-0.2,0-0.3,0-0.5,0.1c-1.9,0.7-2.8,3.2-3.1,4.7c-0.3,1.6-0.6,4.6,0.8,5.6C96.1,31.7,96.3,31.8,96.5,31.8z"
		/>
	<path d="M105.8,32.4c-0.1,0.5-0.8,0.7-1.2,0.7c-0.5,0-0.8-0.3-0.9-0.7c-0.1-0.2-0.1-0.4-0.1-0.6c0-0.5,0.1-1,0.1-1.5
		c0.1-3.1,0.1-6.3,0.2-9.4c0-0.1,0-0.2,0-0.3c0.1-0.4,0.4-0.7,0.9-0.7c0.3,0,0.5,0.2,0.5,0.4c0,0.1,0.1,0.3,0.1,0.4
		c0,0.2,0,0.3,0,0.5c0,0.6,0.1,1.3,0.1,1.9c0,1.6,0,3.3,0.1,5c0.8-2.4,1.5-4.8,2.6-7.1c0.1-0.1,0.1-0.3,0.2-0.4
		c0.1-0.1,0.1-0.3,0.2-0.4c0.2-0.3,0.6-0.4,0.9-0.4c0.5,0,0.7,0.1,0.8,0.5c0,0.1,0.1,0.2,0.1,0.3c0,0.1,0,0.2,0,0.4
		c0.1,2.4-0.2,4.7-0.3,7.1c0.7-1.7,1.3-3.5,1.9-5.2c0.3-0.6,0.5-1.3,0.8-1.9c0.1-0.1,0.1-0.3,0.1-0.4c0.1-0.1,0.1-0.3,0.2-0.4
		c0.2-0.3,0.5-0.4,0.9-0.4c0.4,0,0.9,0.2,0.8,0.6c-0.1,0.4-0.3,0.8-0.4,1.3c-0.3,0.7-0.5,1.4-0.8,2.2c-0.8,2.3-1.7,4.5-2.6,6.7
		c-0.1,0.3-0.2,0.6-0.3,0.9c-0.1,0.3-0.3,0.9-0.5,1.1c-0.2,0.3-0.5,0.3-0.9,0.3c-0.7,0-0.9-0.6-1-1c-0.1-0.5-0.1-0.9-0.1-1.4
		c0-0.9,0-1.8,0.1-2.7s0.1-1.8,0.1-2.7C107.4,27.6,106.6,30,105.8,32.4L105.8,32.4z"/>
	<path d="M120.4,22.7l0.4-1.7c0-0.1,0-0.2,0.1-0.3c0-0.1,0.1-0.2,0.1-0.3c0.1-0.2,0.3-0.3,0.6-0.3c0.6,0,1.2,0.3,1.3,0.8
		c0,0.2,0,0.4-0.1,0.6l-0.4,2c-0.6,3-1.3,6.1-2,9.1c-0.1,0.3-0.4,0.5-0.7,0.5c-1,0-1.5-0.7-1.8-1.4c-0.1-0.4-0.2-0.8-0.3-1.1
		c-0.4-1.3-0.8-2.6-1-4l-0.7,3.1c0,0.1-0.2,0.8-0.3,1.5c-0.2,0.6-0.3,1.3-0.4,1.4c-0.1,0.2-0.4,0.4-0.6,0.4c-0.4,0-0.8-0.3-0.9-0.6
		c-0.1-0.2-0.1-0.5-0.1-0.8s0.1-0.6,0.2-0.8c0.6-3,1.2-6,1.9-9c0-0.2,0.1-0.4,0.1-0.6c0-0.1,0-0.2,0.1-0.3c0-0.1,0.1-0.3,0.1-0.4
		c0.1-0.2,0.3-0.5,0.6-0.5c0.5,0,0.9,0.3,1,0.7c0.1,0.3,0.1,0.5,0,0.8c0.1,0.1,0.3,1.9,0.3,2.1c0.2,1.6,0.4,3.2,0.9,4.7
		c0.1,0.3,0.2,0.6,0.2,0.9L120.4,22.7z"/>
	<path d="M128.4,30.7c-0.1,0.4-0.4,1.7-0.7,2.1c-0.2,0.2-0.3,0.3-0.5,0.3c-0.6,0-0.9-0.3-0.9-0.8c0-0.3,0-0.7,0-1
		c0-0.2,0.1-0.3,0.1-0.5c0.6-2.9,1.2-5.9,1.8-8.9c0.1-0.3,0.2-0.8,0.4-1.1c0-0.1,0-0.1,0-0.2c0-0.1,0.1-0.2,0.2-0.3
		c0.3-0.2,0.9-0.2,1.2-0.2c0.8,0,1.5,0,2.2,0c0.1,0,0.3,0,0.5,0c0.2,0,0.3,0,0.5,0c0.5,0.1,1.3,0.5,1.2,1c-0.1,0.5-1.9,0.5-2.3,0.5
		c-0.6,0-1.2,0-1.8,0c0,0.7-0.2,1.4-0.3,2l-0.5,2.3c0.3,0,0.7,0,1,0c0.6,0,1.1,0.1,1.4,0.4c0.2,0.2,0.3,0.4,0.3,0.7
		c-0.1,0.4-0.5,0.5-0.9,0.5c-0.7,0-1.5,0-2.2-0.1C128.9,28.4,128.6,29.6,128.4,30.7z"/>
	<path d="M140.4,20c0.3,0,0.6,0.1,0.8,0.1c0.6,0.2,1.1,0.5,1.3,0.9c0.8,1.4,0.6,3.7,0.2,5.3c-0.3,1.5-1.2,4-2.4,5.3
		c-0.8,0.9-1.8,1.3-3,1.3c-0.3,0-0.5,0-0.7-0.1c-1.3-0.2-2.1-1.1-2.5-2.1c-0.5-1.4-0.4-3.3-0.1-4.9c0.4-1.6,1.2-4,3-5.2
		C138.1,20.1,139.2,20,140.4,20L140.4,20L140.4,20z M137.5,31.8c0.3,0,0.6-0.3,0.8-0.4c1.1-0.9,2.1-3.7,2.3-4.9
		c0.3-1.5,0.4-2.9,0.1-4.3c-0.1-0.5-0.3-1.1-1-1.1c-0.2,0-0.3,0-0.5,0.1c-1.9,0.7-2.8,3.2-3.1,4.7c-0.3,1.6-0.6,4.6,0.8,5.6
		C137.1,31.7,137.3,31.8,137.5,31.8z"/>
	<path d="M145.7,29.6c-0.2,0.3-0.6,1-1,1.6c-0.4,0.7-0.8,1.3-1,1.5c-0.2,0.2-0.5,0.3-0.8,0.3c-0.3,0-0.9-0.1-0.8-0.5
		c0.2-0.7,3.5-5.7,4.2-6.7c-0.2-1.1-0.5-2.2-0.8-3.3c-0.1-0.3-0.2-0.6-0.3-0.9c-0.1-0.2-0.2-0.4-0.2-0.6c0-0.1-0.1-0.2-0.1-0.3
		c0-0.1,0-0.2,0-0.3c0.1-0.3,0.4-0.4,0.7-0.4c0.1,0,0.3,0,0.4,0.1c0.8,0.3,1.6,2.9,1.9,3.7c0.5-0.7,1.1-1.5,1.6-2.2
		c0.1-0.2,0.3-0.5,0.5-0.7c0.2-0.3,0.4-0.5,0.6-0.6c0.3-0.2,0.6-0.3,0.9-0.3s0.8,0.1,0.8,0.5c0,0.1-0.4,0.6-0.5,0.7
		c-1.2,1.5-2.3,3.1-3.4,4.6c0.1,0.6,0.3,1.2,0.5,1.8c0.3,1,0.5,2,0.8,3.1c0,0.2,0.1,0.6,0.2,1c0.1,0.4,0.2,0.8,0.1,0.9
		c-0.1,0.5-0.8,0.6-1.2,0.6c-0.4,0-0.7-0.1-0.9-0.5c-0.1-0.2-0.1-0.3-0.1-0.5c0-0.2,0-0.3-0.1-0.5c-0.3-1.2-0.6-2.5-0.9-3.7
		C146.5,28.5,146.1,29,145.7,29.6z"/>
	<path d="M157.9,31.5L157.9,31.5c0.8-0.6,1.2-1.6,1.4-2.4c0.1-0.5,0.3-1,0.4-1.5c0.3-1.2,0.6-2.3,0.8-3.5c0.2-1,0.4-2,0.8-3
		c-0.1,0-0.5-0.1-0.7-0.2c-0.3-0.1-0.5-0.2-0.5-0.4c0.1-0.3,0.8-0.5,1.6-0.6c0.8-0.1,1.6-0.1,1.8-0.1c0.4,0,1.1,0.3,1,0.7
		c-0.1,0.5-1.1,0.6-1.5,0.6c0,1.2-0.3,2.5-0.6,3.8c-0.2,1-0.4,2.1-0.6,3.1c-0.3,1.3-0.7,2.9-1.9,4c-0.6,0.5-1.6,0.9-2.3,0.9
		c-2.1,0-2.4-2-2.1-3.5c0.1-0.6,0.5-1,1.3-1c0.5,0,0.8,0.1,0.8,0.3c0,0.1,0,0.2,0,0.4c0,0.1-0.1,0.3-0.1,0.5
		C157.5,30.4,157.6,31,157.9,31.5L157.9,31.5z"/>
	<path d="M166.7,31.5c0,0,0,0.1,0.1,0.1c0.1,0.1,0.2,0.1,0.3,0.1c0.4-0.2,0.8-0.8,1.1-1.3c0.3-0.6,0.5-1.1,0.7-1.5
		c0.2-0.5,0.3-1,0.4-1.4c0.2-0.8,0.4-1.7,0.6-2.5l0.5-2.5l0.3-1.5c0.1-0.2,0.1-0.4,0.3-0.6c0,0,0,0,0,0v0c0.3-0.3,0.5-0.3,0.9-0.3
		c0.6,0,0.8,0.3,0.8,0.6c0,0.2,0,0.4,0,0.6c0,0.2-0.1,0.4-0.1,0.6c-0.1,0.6-0.2,1.2-0.3,1.8c-0.3,1.6-0.7,3.2-1.1,4.7
		c-0.2,0.6-0.5,1.3-0.8,1.9c-0.6,1.4-1.5,2.9-3.5,2.9c-0.8,0-1.4-0.3-1.9-0.7c-1.1-1-1-2.9-0.8-4.3c0.2-1.3,0.5-2.7,0.8-4
		c0.1-0.6,0.3-1.2,0.4-1.9c0.1-0.3,0.1-0.7,0.2-1c0.1-0.2,0.2-0.6,0.4-0.8c0.2-0.3,0.5-0.4,0.8-0.4c0.9,0,0.9,0.5,0.8,1.2
		c0,0.3-0.1,0.5-0.1,0.8c-0.2,0.8-0.4,1.7-0.6,2.5c-0.3,1.3-0.5,2.6-0.7,3.9c-0.1,1.1-0.1,2.1,0.5,3.1
		C166.6,31.5,166.7,31.5,166.7,31.5z"/>
	<path d="M180.3,21.8c0.2-0.3,0.3-0.6,0.5-1c0-0.1,0.1-0.2,0.1-0.2c0-0.1,0.1-0.1,0.1-0.2c0.2-0.3,0.4-0.3,0.8-0.3
		c0.4,0,0.7,0.1,0.8,0.4c0,0.2,0,0.4,0,0.6c0,0.2,0,0.4-0.1,0.6c-0.1,1-0.2,1.9-0.2,2.9c-0.1,1.6-0.2,3.3-0.3,4.9
		c-0.1,1-0.1,2-0.2,3l0,0c-0.1,0.5-0.9,0.6-1.3,0.6c-0.4,0-0.8-0.2-0.9-0.5c0-0.1,0-0.5,0-0.6c0.1-0.6,0.2-1.2,0.3-1.9
		c0.2-1.4,0.3-2.9,0.5-4.3c-0.3,0.8-0.6,1.5-0.9,2.2c-0.3,0.7-0.6,1.4-0.9,2.1c-0.2,0.6-0.4,1.1-0.6,1.7c0,0.2-0.1,0.4-0.1,0.6
		c-0.1,0.5-0.8,0.6-1.3,0.6c-0.5,0-1.1-0.2-1.2-0.6c0-0.2,0-0.4,0-0.6c0-0.2,0.1-0.4,0.1-0.6l0-1.3c0-1.5-0.1-3-0.1-4.5
		c-0.3,0.7-0.5,1.4-0.8,2.2c-0.4,1.1-0.8,2.2-1.2,3.4c-0.1,0.2-0.2,0.5-0.3,0.8c-0.1,0.3-0.3,0.7-0.3,0.8c-0.2,0.3-0.4,0.4-0.8,0.4
		c-0.3,0-0.8-0.1-0.7-0.5c0.1-0.5,0.3-1.1,0.5-1.6c0.8-2.2,1.5-4.3,2.2-6.4c0.4-1.2,0.8-2.4,1.2-3.6c0-0.1,0.1-0.2,0.1-0.4
		c0-0.1,0.1-0.2,0.1-0.3c0.2-0.2,0.5-0.2,0.8-0.2c0.4,0,0.7,0.1,0.8,0.4c0,0,0.1,0.5,0.1,1c0,0.5,0,1,0.1,1.1
		c0.1,1.5,0.2,3.1,0.3,4.6C178.6,25.4,179.4,23.6,180.3,21.8z"/>
	<path d="M185.7,32.6c-0.1,0.3-0.4,0.6-0.8,0.6c-0.6,0-1.2-0.5-1.1-1l1.8-8.5c0.1-0.7,0.3-1.4,0.5-2.2c-0.3-0.1-0.6-0.4-0.5-0.8
		c0.1-0.6,1.5-0.8,2.1-0.8c1,0,2,0.3,2.8,0.7c1.6,0.8,2.6,2.2,2.2,4c-0.2,0.8-0.7,1.7-1.4,2.3c-0.9,0.8-2.5,1.4-3.7,1.7
		c-0.2,0.1-0.4,0.1-0.7,0.2c-0.2,0-0.4,0.1-0.5,0L185.7,32.6z M190.9,24.3c0.2-1.1-0.3-2-1.3-2.4c-0.5-0.2-1-0.3-1.5-0.3
		c-0.1,0.6-0.3,1.1-0.4,1.7c-0.3,1.4-0.5,2.7-0.8,4C188.5,26.7,190.6,25.9,190.9,24.3z"/>
	<path d="M193.2,30c0.1-0.4,0.5-0.6,0.9-0.6c0.5,0,1,0.3,1.1,0.8c0,0.1,0,0.3,0,0.4c0,0.2,0,0.3,0,0.4c0.1,0.3,0.3,0.5,0.7,0.5
		c0.4,0,0.8-0.2,1-0.5c0.1-0.2,0.2-0.4,0.2-0.6c0.1-0.3,0.1-0.7-0.1-1c-0.1-0.2-0.3-0.4-0.6-0.5c-0.2-0.1-0.5-0.3-0.7-0.4
		c-0.8-0.5-1.7-1.2-2.1-2c-0.2-0.4-0.2-0.8-0.1-1.2c0.3-1.6,2.2-5.4,4.6-5.4c1.3,0,2.3,1,2.5,2c0.1,0.5,0.1,0.9,0,1.4
		c0,0.1-0.1,0.3-0.1,0.4c0,0.2-0.1,0.3-0.1,0.5c-0.1,0.3-0.4,0.5-0.9,0.5c-0.5,0-1.1-0.3-1-0.8c0,0,0-0.1,0-0.1
		c0.1-0.3,0.2-0.6,0.3-0.9c0.1-0.5,0.1-1-0.3-1.3c-0.1-0.1-0.2-0.1-0.4-0.1c-0.4,0-0.9,0.6-1.2,0.8c-0.8,0.9-1.5,2.4-1.7,3.5
		c-0.1,0.4,0,0.5,0.3,0.8c0.1,0.2,0.3,0.3,0.5,0.5c0.2,0.1,0.4,0.3,0.6,0.4c0.4,0.3,0.8,0.5,1.2,0.8c0.8,0.5,1.2,1.5,1,2.5
		c-0.3,1.3-1.5,2.3-3.1,2.3c-1.8,0-2.9-1.5-2.9-2.9C193.2,30.1,193.2,30,193.2,30z"/>
	<path d="M211.8,20c0.3,0,0.6,0.1,0.8,0.1c0.6,0.2,1.1,0.5,1.3,0.9c0.8,1.4,0.6,3.7,0.2,5.3c-0.3,1.5-1.2,4-2.4,5.3
		c-0.8,0.9-1.8,1.3-3,1.3c-0.3,0-0.5,0-0.8-0.1c-1.3-0.2-2.1-1.1-2.5-2.1c-0.5-1.4-0.4-3.3-0.1-4.9c0.4-1.6,1.2-4,3-5.2
		C209.5,20.1,210.5,20,211.8,20L211.8,20L211.8,20z M208.8,31.8c0.3,0,0.6-0.3,0.8-0.4c1.1-0.9,2.1-3.7,2.3-4.9
		c0.3-1.5,0.5-2.9,0.1-4.3c-0.1-0.5-0.3-1.1-1-1.1c-0.2,0-0.3,0-0.5,0.1c-2,0.7-2.8,3.2-3.1,4.7c-0.3,1.6-0.6,4.6,0.8,5.6
		C208.4,31.7,208.7,31.8,208.8,31.8z"/>
	<path d="M223.8,20.3c0,0.1,0,0.2,0,0.3c0,0.2-0.1,0.4-0.2,0.5c-0.1,0.2-0.2,0.4-0.3,0.5l-0.6,1.2c-0.8,1.6-1.5,3.3-2.3,4.9
		c-0.6,1.4-1.2,2.8-1.7,4.2c0,0.1-0.1,0.3-0.2,0.4c-0.2,0.5-0.7,0.6-1.2,0.6c-0.5,0-0.9-0.2-0.9-0.6c0-0.1,0-0.3,0-0.5
		c0-0.1,0-0.3,0-0.5c0-0.6,0-1.2,0-1.8c0-1.9,0-3.8,0-5.7c0-0.9,0-1.8-0.1-2.7c0-0.1,0-0.2,0-0.3c0-0.1,0-0.2,0-0.3
		c0.1-0.3,0.3-0.7,0.8-0.7c0.2,0,0.4,0.1,0.6,0.1c0.2,0.1,0.4,0.6,0.5,1.1c0.1,0.5,0.1,1,0.1,1.3c0.2,2,0.3,4,0.1,6
		c0.5-1.1,0.9-2.3,1.4-3.4c0.6-1.4,1.3-2.7,1.9-4.1c0.1-0.1,0.1-0.2,0.2-0.3c0-0.1,0.1-0.2,0.2-0.3c0.2-0.3,0.5-0.3,0.9-0.3
		C223.3,19.9,223.6,20,223.8,20.3L223.8,20.3z"/>
	<path d="M224.5,31c0,0.2-0.1,0.4-0.1,0.6c0.6,0,1.2,0,1.8,0c0.5,0,1.5,0.4,1.4,1c-0.1,0.4-0.6,0.5-1,0.5c-0.1,0-0.3,0-0.4,0h-1.3
		c-0.3,0-0.6,0-0.9-0.1c-0.1,0-0.1,0-0.2,0c-0.1,0-0.1,0-0.2,0c0,0-0.1,0-0.2,0c-0.2,0-0.3,0-0.4-0.1c-0.7-0.2-0.8-0.7-0.7-1.3
		c0.5-2.5,1.1-5,1.7-7.6c0.2-1,0.4-2,0.8-3c-0.1-0.1-0.3-0.2-0.3-0.4c0.1-0.3,0.9-0.4,1.8-0.5c0.9-0.1,1.8-0.1,2-0.1
		c0.2,0,0.4,0,0.6,0c0.5,0,1.2,0.4,1.1,0.9c-0.1,0.4-0.6,0.4-0.9,0.4c-0.9,0-1.8,0-2.7-0.1c0,0.5-0.1,1.1-0.2,1.6
		c-0.2,0.9-0.3,1.8-0.5,2.7c0.5,0,1,0,1.5,0c0.6,0,1.7,0.4,1.5,1c-0.1,0.4-0.6,0.5-1,0.5c-0.2,0-0.4,0-0.5,0c-0.6,0-1.2,0-1.8,0
		L224.5,31z"/>
	<path d="M231.1,32.5c-0.1,0.3-0.3,0.5-0.7,0.5c-0.6,0-1.2-0.5-1.1-1l1.8-8.3c0.1-0.6,0.3-1.2,0.4-1.8c0.1-0.2,0.1-0.5,0.1-0.7
		c-0.2-0.1-0.2-0.3-0.2-0.5c0.1-0.7,1.9-0.8,2.4-0.8c2.7,0,4.9,1.5,4.4,4c-0.4,2-2.5,3.6-4.8,4.2c0.5,0.8,1.1,1.6,1.6,2.5
		c0.3,0.4,0.6,0.8,0.8,1.3c0.1,0.1,0.2,0.3,0.1,0.5c-0.1,0.4-0.5,0.6-0.9,0.6c-0.4,0-0.6-0.1-0.8-0.4c-0.3-0.4-0.5-0.9-0.8-1.3
		c-0.5-0.8-1-1.6-1.5-2.4L231.1,32.5z M236.5,23.4c0.3-1.6-1.1-1.8-2.6-1.8h-0.4c-0.2,0.6-0.3,1.1-0.4,1.7c-0.3,1.2-0.5,2.4-0.7,3.6
		C234.4,26.5,236.1,25.2,236.5,23.4z"/>
	<path d="M243.8,20.9c-0.1-0.1-0.2-0.3-0.2-0.4c0-0.2,0.3-0.3,0.5-0.4c0.2-0.1,0.6-0.1,0.9-0.1s0.7,0,0.9,0h2.2c0.6,0,1.1,0,1.5,0.4
		c0.1,0.1,0.3,0.4,0.3,0.6c0,0.1,0,0.1-0.1,0.1c-0.3,0.3-0.5,0.3-0.9,0.3h-1.3c0,0.1,0,0.2,0,0.3c-0.7,3.1-1.3,6.2-2,9.3
		c-0.1,0.4-0.2,0.8-0.3,1.1c0,0.2-0.1,0.3-0.1,0.5c-0.1,0.3-0.3,0.4-0.6,0.4c-0.6,0-1.2-0.4-1.1-1c0-0.2,0.1-0.5,0.1-0.7
		c0.1-0.4,0.2-0.7,0.3-1.1l1.9-8.8C245,21.4,244.3,21.4,243.8,20.9z"/>
	<path d="M256.2,19.9L256.2,19.9c0.1,0,0.1-0.1,0.2-0.1c0.5,0,0.9,0.5,1,0.9c0.1,0.2-0.3,2.3-0.8,4.5c-0.4,2.2-0.9,4.5-1,5.1
		c-0.1,0.2-0.2,0.8-0.3,1.3c-0.1,0.5-0.3,1-0.6,1.2c-0.1,0.1-0.2,0.1-0.4,0.1c-0.2,0-0.3,0-0.4-0.1c-0.3-0.1-0.5-0.3-0.6-0.5
		c-0.2-0.3-0.1-0.8,0-1.4c0.1-0.6,0.2-1.1,0.3-1.5c0.1-0.3,0.1-0.6,0.2-0.9c-0.4,0-0.8,0-1.2,0s-0.8,0-1.2-0.1
		c-0.3,1.3-0.6,2.6-0.8,3.9c-0.1,0.3-0.2,0.6-0.7,0.6c-0.6,0-1.2-0.5-1.2-1c0-0.3,0.1-0.7,0.2-1c0.1-0.5,0.3-1.1,0.4-1.6
		c0.6-2.8,1.2-5.6,1.8-8.4c0.1-0.3,0.3-1,0.9-1c0.1,0,0.3,0,0.4,0.1c0.8,0.3,0.8,1.1,0.6,1.8c-0.4,1.7-0.7,3.4-1.1,5.1
		c0.2,0,0.4,0,0.5,0c0.6,0,1.3,0,1.9,0c0.3-1.5,0.7-3,1-4.6c0-0.2,0.1-0.6,0.2-1c0.1-0.4,0.2-0.8,0.3-1c0.1-0.1,0.2-0.2,0.2-0.2
		c0,0,0.1,0,0.1-0.1C256.1,20,256.1,20,256.2,19.9L256.2,19.9z"/>
	<path d="M258.7,31c0,0.2-0.1,0.4-0.1,0.6c0.6,0,1.2,0,1.8,0c0.5,0,1.5,0.4,1.4,1c-0.1,0.4-0.6,0.5-1,0.5c-0.1,0-0.3,0-0.4,0h-1.3
		c-0.3,0-0.6,0-0.9-0.1c-0.1,0-0.1,0-0.2,0c-0.1,0-0.1,0-0.2,0c0,0-0.1,0-0.2,0c-0.2,0-0.3,0-0.4-0.1c-0.7-0.2-0.8-0.7-0.7-1.3
		c0.5-2.5,1.1-5,1.7-7.6c0.2-1,0.4-2,0.8-3c-0.1-0.1-0.3-0.2-0.3-0.4c0.1-0.3,0.9-0.4,1.8-0.5c0.9-0.1,1.8-0.1,2-0.1
		c0.2,0,0.4,0,0.6,0c0.5,0,1.2,0.4,1.1,0.9c-0.1,0.4-0.6,0.4-0.9,0.4c-0.9,0-1.8,0-2.7-0.1c0,0.5-0.1,1.1-0.2,1.6
		c-0.2,0.9-0.3,1.8-0.5,2.7c0.5,0,1,0,1.5,0c0.6,0,1.7,0.4,1.5,1c-0.1,0.4-0.6,0.5-1,0.5c-0.2,0-0.4,0-0.5,0c-0.6,0-1.2,0-1.8,0
		L258.7,31z"/>
	<path d="M270,31.3c0.3,0,0.6,0,0.9,0.1c0.6,0.1,1.1,0.3,1.3,0.8c0,0.1,0.1,0.2,0,0.4c-0.1,0.5-1.2,0.5-1.6,0.5c-0.3,0-0.6,0-1,0
		c-0.4,0-0.8,0-1.1-0.1c-0.7-0.1-1.4-0.4-1.5-0.9c-0.1-0.5,0-1,0.1-1.5c0.1-0.4,0.2-0.9,0.2-1.3c0.3-1.3,0.6-2.7,0.9-4
		c0.2-1,0.4-2,0.7-3c0.1-0.4,0.2-0.7,0.3-1.1c0.1-0.3,0.3-0.9,0.6-1.1c0.1,0,0.2-0.1,0.3-0.1c0.4,0,0.9,0.3,1,0.7
		c0.1,0.3-0.1,1.5-0.3,2.7c-0.2,1.2-0.5,2.5-0.6,3c-0.3,1.4-0.6,2.7-0.9,4.1c-0.1,0.3-0.1,0.6-0.2,0.9
		C269.4,31.3,269.7,31.3,270,31.3z"/>
	<path d="M275.4,32.5c-0.3,0.5-0.7,0.6-1.2,0.6c-0.5,0-0.9-0.3-0.8-0.7c0-0.2,0.1-0.4,0.2-0.6c0.1-0.2,0.2-0.4,0.3-0.6
		c0.4-0.9,0.8-1.8,1.2-2.6c0.8-1.8,1.5-3.5,2.3-5.2c0.4-0.9,0.7-1.8,1.2-2.7c0.3-0.5,0.7-0.9,1.4-0.9c0.6,0,0.9,0.4,0.8,0.9
		c0,0,0,0.1,0,0.1c0,0,0,0.2,0.1,0.5c0,0.3,0.1,0.5,0.1,0.6c0.2,0.7,0.2,1.5,0.2,2.2c0.1,2.8,0,5.5,0.1,8.3c0,0,0,0.1,0,0.2
		c-0.1,0.4-0.6,0.6-1.1,0.6c-0.3,0-0.5-0.1-0.6-0.3c-0.1-0.2-0.2-0.9-0.2-1.5c0-0.6,0-1.3,0-1.6c-0.9,0-1.8,0-2.7,0
		c-0.3,0.6-0.6,1.3-0.9,1.9c-0.1,0.2-0.1,0.3-0.2,0.5C275.6,32.2,275.5,32.3,275.4,32.5z M278.6,28.5c0.3,0,0.6,0,0.9,0
		c0-1.6-0.1-3.3-0.1-4.9c-0.7,1.6-1.4,3.3-2.1,4.9C277.7,28.5,278.1,28.5,278.6,28.5z"/>
	<path d="M282.3,31.8c0-0.1,0-0.1,0.1-0.2c0.3-0.6,0.7-1.3,1.1-1.9c0.9-1.6,1.9-3.1,3-4.7l1.8-2.7c0.3-0.4,0.6-0.9,0.9-1.3
		c-0.8,0-1.7,0-2.5,0c-0.1,0-0.3,0-0.5,0c-0.2,0-0.4,0-0.7-0.1c-0.4-0.1-0.8-0.2-0.7-0.6c0.1-0.6,1.6-0.6,2.1-0.6c0.9,0,1.7,0,2.6,0
		c0.2,0,0.4,0,0.6,0c0.2,0,0.4,0,0.6,0c0.4,0.1,0.8,0.3,0.7,0.7c0,0.2-0.1,0.3-0.2,0.5c-0.1,0.2-0.2,0.3-0.3,0.4
		c-0.5,0.7-0.9,1.4-1.4,2.1c-1,1.4-1.9,2.9-2.8,4.3c-0.7,1.2-1.5,2.4-2.2,3.6c0.8,0,1.7,0,2.5,0c0.2,0,0.3,0,0.5,0
		c0.2,0,0.3,0,0.5,0.1c0.3,0.1,0.8,0.3,0.7,0.7c-0.1,0.3-0.4,0.5-0.7,0.5c-0.2,0-0.3,0-0.5,0.1c-0.2,0-0.3,0-0.4,0
		c-1.4,0-2.7,0-4.1,0c-0.5,0-1.1-0.2-1-0.7c0-0.1,0.1-0.2,0.1-0.2c0,0,0.1-0.1,0.1-0.1C282.3,31.9,282.3,31.8,282.3,31.8z"/>
	<path d="M293.9,26C293.9,26,293.9,26,293.9,26c0-0.1-0.1-0.2-0.1-0.3c-0.3-1.3-0.7-2.6-1-3.9c-0.1-0.2-0.2-0.5-0.3-0.7
		c0-0.2-0.1-0.5-0.1-0.7c0.1-0.4,0.7-0.5,1-0.5c0.3,0,0.5,0.1,0.7,0.3c0.6,0.6,1.2,3,1.4,4c0.4-0.6,0.9-1.3,1.4-2
		c0.5-0.7,1.1-1.4,1.7-1.9c0,0,0,0,0.1,0c0,0,0,0,0,0h0c0,0,0,0,0,0c0.1-0.1,0.3-0.1,0.4-0.1c0.2,0,0.4,0.1,0.4,0.3
		c0,0.1-3.3,5.3-3.6,5.6c-0.4,1.9-0.8,3.9-1.2,5.8c-0.1,0.6-0.5,1.2-1.3,1.2c-0.5,0-0.8-0.2-0.8-0.6c0-0.2,0-0.3,0-0.5
		c0-0.2,0.1-0.4,0.1-0.5c0.2-1,0.4-1.9,0.6-2.9C293.6,27.7,293.8,26.9,293.9,26C294,26.1,294,26,293.9,26z"/>
	<path d="M302.6,32.4c0,0-0.1-0.1-0.2-0.1c0,0-0.1-0.1-0.2-0.2c-0.1-0.1-0.1-0.2-0.1-0.4c0-0.2,0.2-0.3,0.4-0.4
		c0.8-3.5,1.5-7,2.3-10.5c-0.1-0.1-0.3-0.2-0.2-0.4c0.1-0.5,0.7-0.5,1.1-0.5c0.4,0,0.8,0.1,1.2,0.1c0.9,0.2,1.8,0.4,2.4,0.9
		c1.3,1,1.6,2.2,1.5,3.8c-0.1,0.7-0.2,1.3-0.3,2c-0.2,0.8-0.5,1.6-0.7,2.4c-0.5,1.4-1.2,2.5-2.9,3.2c-0.6,0.3-1.4,0.4-2.1,0.4
		c-0.3,0-0.6,0-0.9,0c-0.1,0.1-0.3,0.1-0.4,0.1C303.2,33,302.8,32.8,302.6,32.4C302.6,32.5,302.6,32.4,302.6,32.4z M306,31
		c1.3-0.6,1.7-1.6,2.1-2.7c0.2-0.6,0.4-1.2,0.5-1.8c0.2-0.8,0.3-1.5,0.3-2.2c0.1-0.8,0.1-1.6-0.4-2.2c-0.4-0.5-1.1-0.8-1.8-0.9
		c-0.7,3.4-1.4,6.8-2.1,10.2C305,31.3,305.5,31.2,306,31z"/>
	<path d="M318.5,20c0.3,0,0.6,0.1,0.8,0.1c0.6,0.2,1.1,0.5,1.3,0.9c0.8,1.4,0.6,3.7,0.2,5.3c-0.3,1.5-1.2,4-2.4,5.3
		c-0.8,0.9-1.8,1.3-3,1.3c-0.3,0-0.5,0-0.8-0.1c-1.3-0.2-2.1-1.1-2.5-2.1c-0.5-1.4-0.4-3.3-0.1-4.9c0.4-1.6,1.2-4,3-5.2
		C316.2,20.1,317.2,20,318.5,20L318.5,20L318.5,20z M315.5,31.8c0.3,0,0.6-0.3,0.8-0.4c1.1-0.9,2.1-3.7,2.3-4.9
		c0.3-1.5,0.5-2.9,0.1-4.3c-0.1-0.5-0.3-1.1-1-1.1c-0.2,0-0.3,0-0.5,0.1c-2,0.7-2.8,3.2-3.1,4.7c-0.3,1.6-0.6,4.6,0.8,5.6
		C315.1,31.7,315.4,31.8,315.5,31.8z"/>
	<path d="M325.9,27.8c-0.5,0-1.1-0.4-1-0.9c0.1-0.3,0.3-0.5,0.7-0.6c0.1,0,0.1,0,0.2,0c0.1,0,0.2,0,0.2,0c0.7-0.1,1.4-0.1,2-0.1
		c0.7,0,1.3,0.3,1.2,1c0,0.2-0.1,0.5-0.1,0.7c-0.3,1.6-1.5,5.2-4.2,5.2c-3.3,0-3.2-4.5-2.7-6.6c0.3-1.6,1.6-4.8,3.2-5.9
		c0.5-0.3,1.1-0.5,1.7-0.5c1.2,0,2.1,0.7,2.3,1.6c0.1,0.3,0.1,0.6,0.1,0.9c0,0.3,0,0.6,0.1,0.8c0,0,0,0.1,0,0.1s0,0.1,0,0.1
		c-0.1,0.4-0.6,0.6-1,0.6c-0.6,0-1-0.2-0.9-0.7c0-0.2,0.1-0.7,0.1-1.2c0-0.4-0.1-0.8-0.5-0.8c-0.6,0-1.3,1.1-1.6,1.5
		c-0.8,1.3-1.3,2.4-1.6,3.8c-0.1,0.4-0.1,0.7-0.2,1.1c0,0.7,0,3.6,1,3.6c0.8,0,1.8-1.7,2-2.3c0.3-0.5,0.4-1,0.5-1.6
		c-0.2,0-0.4,0-0.7,0.1C326.3,27.8,326.1,27.8,325.9,27.8C325.9,27.8,325.9,27.8,325.9,27.8z"/>
</g>
</svg>
