<?xml version="1.0" encoding="utf-8"?>
<!-- Generator: Adobe Illustrator 26.1.0, SVG Export Plug-In . SVG Version: 6.00 Build 0)  -->
<svg version="1.1" id="Layer_1" xmlns="http://www.w3.org/2000/svg" xmlns:xlink="http://www.w3.org/1999/xlink" x="0px" y="0px"
	 viewBox="0 0 372 36.9" style="enable-background:new 0 0 372 36.9;" xml:space="preserve">
<g>
	<path d="M10.6,5.9c0.4,0,0.6,0.4,0.5,0.7C11,6.7,11,6.8,11,6.9c-0.6,0.7-1.1,0.3-1.6,0.4c-0.3,0-0.6,0-0.9,0
		c-0.4,1.4-1.6,5.1-1,6.1c0.2-0.3,0.7-0.4,1-0.3c0.5,0.4,0,1-0.4,1.4c-0.2,0.2-0.6,0.3-0.9,0.3c-0.3,0-0.6-0.1-0.7-0.2
		C5,13.3,6.6,9.1,7.2,7.3c-0.7,0-1.6,0.4-1.4-0.6C6,6.1,6.6,6.1,7,6.1C7.2,6,7.5,6,7.7,6c0.3-0.8,0.6-1.6,1-2.3
		C8.8,3.3,8.9,3,9.3,2.9c0,0,0.1,0,0.1,0c0.5,0,0.5,0.5,0.2,1c-0.3,0.7-0.5,1.3-0.7,2C9.5,5.8,10,5.8,10.6,5.9z"/>
	<path d="M16.8,10.1c0,0.4-0.1,1-0.3,1.8c-0.3,1.3-0.8,2.7-1.5,3c-0.1,0-0.2,0-0.2,0c-0.5,0-0.5-0.6-0.3-1.1
		c0.1-0.4,0.2-0.8,0.3-1.2c0.2-0.8,0.4-1.1,0.5-2c0.1-0.8,0.3-2.7-0.6-2.8c-1.2,0.3-2.6,4.4-2.8,5.5c-0.1,0.2-0.2,0.9-0.3,1
		c-0.2,0.4-0.7,0.6-1,0.4c-0.7-0.3-0.2-1.6-0.1-2.1c0.2-1.1,0.4-2.2,0.6-3.3c0-0.1,0.1-0.2,0.1-0.4c0.3-1.3,0.6-2.7,1.1-4
		c0.1-0.4,0.2-1.5,0.9-1.9C13.2,3,13.2,3,13.3,3c0.1,0,0.1,0,0.2,0c0.5,0.2,0.1,1-0.1,1.4c-0.4,1.4-0.7,2.7-1,4.1
		C14.9,4.2,17.3,6.8,16.8,10.1z"/>
	<path d="M18.7,11.8c-0.4,1.1,0.5,1.8,1.5,1.5c0.6-0.1,1.2-0.7,1.7-0.5c0.8,0.8-1.1,1.7-1.9,1.9c-0.2,0.1-0.5,0.1-0.7,0.1
		c-1.6,0-2.5-1.3-2.1-2.9c0.1-0.3,0.2-0.6,0.3-0.9c0.6-1.5,3-4.4,4.6-4.4c0.5,0,0.9,0.2,1.2,0.8c0.1,0.4,0.1,0.7,0,1.1
		C22.9,10.3,20.4,12,18.7,11.8z M22.1,8.3c0.2-0.4-0.3-0.5-0.6-0.3c-1,0.6-1.7,1.6-2.3,2.5c0,0,0.5,0.1,0.8-0.1
		C21,10,21.9,9.2,22.1,8.3z"/>
	<path d="M30.3,14.6c-0.2,0.7-0.5,1.4-0.2,2c0.1,0.2,0.6,0,0.8-0.3c0.3-0.4,0.2-0.9,0.7-1.1c0.2-0.1,0.4-0.1,0.6,0
		c0.2,0.2,0.3,0.4,0.2,0.5c0,0.1-0.1,0.2-0.1,0.4C31.8,17.4,30.8,18,30,18c-1.1,0-1.9-1.1-1-3.6c-0.8,0.5-1.9,0.4-2.3-0.2
		c-0.5-0.7-0.5-1.6-0.3-2.5c0.2-0.9,0.6-1.8,1.1-2.6C28.1,8.1,29,7,30.3,6.7c0.2-0.1,0.4-0.1,0.6-0.1c0.8,0,1.4,0.5,1.4,1.3
		c0.4,0.3,0,1-0.1,1.4c-0.2,0.6-0.4,1.1-0.6,1.6C31.1,12.1,30.7,13.4,30.3,14.6z M29.4,8.5c-1,1.1-2,3.1-1.8,4.3
		c0.2,1.1,1.4,0,1.8-0.6c0.8-1.3,1.2-2.5,1.7-3.9C31.2,7.2,29.8,8.1,29.4,8.5z"/>
	<path d="M38.7,13.6c0,0.1,0,0.2,0,0.3c-0.1,0.3-0.4,0.7-0.8,0.7c-0.8,0.1-0.8-0.9-0.9-1.5c-0.5,0.8-1.4,1.6-2.3,1.6
		c-0.2,0-0.5-0.1-0.7-0.2c-1-0.3-1-2.7-0.8-3.2c0-0.3,0.1-0.7,0.2-1.1c0.2-0.9,0.5-1.7,0.8-2.6c0.2-0.5,0.4-1.4,0.9-1.4
		c0.1,0,0.2,0,0.3,0.1c0.4,0.4-0.3,1.5-0.4,2.1c-0.4,1.4-0.7,2.8-0.4,4.1c0.1,0.3,0,0.7,0.5,0.6c1-0.4,1.4-2,1.8-2.7
		c0.4-0.8,0.7-1.7,1.1-2.5c0.2-0.4,0.4-1,0.9-1.2C40.9,6.5,37.7,10.3,38.7,13.6z"/>
	<path d="M41,13.2c-0.1,0.6-0.2,1.6-1,1.6c0,0-0.1,0-0.1,0c-0.6-0.1-0.3-1-0.3-1.4c0.1-0.8,0.2-1.5,0.4-2.3c0.4-1.4,0.7-2.7,1.2-4.2
		c0.4-0.6,1.4-0.5,1.1,0.2C41.8,9.1,41.4,11.2,41,13.2z M42.2,5.3c-1,0-0.7-1.6,0.4-1.6c0.5,0,0.7,0.4,0.6,0.8
		C43.1,4.9,42.7,5.3,42.2,5.3z"/>
	<path d="M42.4,13.4c-0.1-0.5-0.1-1.1,0.1-1.7c0.5-2,2-4.4,3.7-5.4C46.5,6.1,46.8,6,47.1,6c0.5,0,1,0.3,1.2,0.8
		c0.1,0.5,0.3,0.9,0.2,1.3c0,0.2-0.2,0.4-0.4,0.5c-0.4,0.3-1,0.2-0.9-0.3c0-0.3,0-0.7-0.2-0.9c-0.7-0.4-2.2,2.2-2.5,2.8
		c-1.1,2.1-0.9,4.4,1.7,2.1c0.4-0.4,1-0.2,1.1,0.2c0.1,0.8-1,1.3-1.7,1.7c-0.5,0.3-1,0.4-1.4,0.4C43.3,14.7,42.6,14.3,42.4,13.4z"/>
	<path d="M52.7,14c-0.1,0.4-0.4,0.7-0.8,0.7c-0.5,0-0.6-0.4-0.7-0.8c-0.4-0.8-0.6-1.9-1.6-2.1c-0.1,0.6-0.3,1.2-0.4,1.8
		c-0.1,0.5-0.3,1.2-0.9,1.2c-0.1,0-0.2,0-0.3-0.1c-0.3-0.1-0.3-0.4-0.3-0.6c0.2-1.6,0.5-3.3,0.9-4.9c0.4-1.5,0.8-3,1.2-4.5
		c0.1-0.4,0.3-1.9,1.1-1.9c0.1,0,0.2,0,0.2,0c0.3,0.1,0.3,0.5,0.2,0.5c-0.6,2.1-1.1,4.2-1.5,6.3c1.3-1,2-1.5,2.8-3.2
		c0.2-0.3,0.6-0.5,0.9-0.3c0.3,0.1,0.2,0.5,0.2,0.5c-0.2,0.7-0.6,1.3-1,2c-0.3,0.5-1.5,1.5-2.1,1.9C51.9,11.3,52.8,12.6,52.7,14z"/>
	<path d="M59.9,7.8c2.4-2,4.2-1.2,3.7,1.6c0,0,0,0.1,0,0.1c-0.5,2.4-3.5,5.9-6,5.2c-0.1,0.1-0.3,0.2-0.4,0.2c-0.4,0-0.7-0.3-0.6-0.6
		c0.1-0.9,0.3-1.7,0.4-2.6C57.5,9.8,58,8,58.5,6.2c0.2-0.7,0.4-1.4,0.7-2.1c0.1-0.5,0.4-1.2,0.9-1.2c0.1,0,0.1,0,0.2,0
		c0.5,0.2,0.1,0.9,0,1.3c-0.4,1.4-0.7,2.8-1,4.2C59.4,8.3,59.9,7.8,59.9,7.8z M58.2,13.2c2,0.6,4.8-3.4,4.1-5
		c-0.1-0.3-0.5-0.3-0.9-0.1c-1.1,0.7-2.1,1.8-2.7,2.9C58.5,11.8,58.3,12.5,58.2,13.2z"/>
	<path d="M69.3,7.2c0.1,0.1,0.1,0.3,0.1,0.4c-0.1,0.2-0.3,0.5-0.5,0.6c-0.4,0.2-0.6-0.2-0.9-0.3c-1.4-0.4-3.1,4.6-3.2,5.6
		c-0.1,0.3-0.1,0.6-0.2,0.9c-0.1,0.3-0.4,0.5-0.7,0.5c-0.1,0-0.2,0-0.2,0c-0.6-0.2-0.2-1.1-0.1-1.6c0.1-0.6,0.3-1.2,0.4-1.8
		c0.2-0.9,0.4-1.8,0.6-2.7c0.2-0.7,0.3-1.1,0.5-1.8c0.2-0.3,0.5-0.4,0.7-0.4c0.3,0,0.6,0.2,0.5,0.6c-0.1,0.2-0.1,0.4-0.2,0.7
		C67.3,6.4,68.8,6.3,69.3,7.2z"/>
	<path d="M69.7,8.5c0.7-1.2,1.9-2,3-2c0.2,0,0.3,0,0.5,0.1c1.3,0.2,2,1.4,1.9,2.7c0,0.3,0,0.5-0.1,0.8c-0.5,2.2-2.7,4.8-4.4,4.8
		c-0.7,0-1.2-0.4-1.7-1.3c-0.2-0.7-0.1-1.5,0.1-2.3c0.1-0.4,0.1-0.2,0-0.4c-0.1-0.2-0.1-0.4,0-0.7C69.1,9.6,69.5,8.9,69.7,8.5z
		 M70.3,13.2c1,1.5,3.3-2.2,3.3-3.3c0.1-0.4,0.1-0.8,0-1.2c-0.2-0.6-1-1.1-1.8-0.7c-1,0.6-1.3,1.7-1.5,2.6
		C69.9,11.6,70,12.7,70.3,13.2z"/>
	<path d="M80.9,12.6c0.7-1.7,1.2-3.5,0.9-5.1c0-0.2,0-0.5,0.2-0.7c1.2-1.1,1.3,0.7,1.3,1.4c-0.1,0.8-0.2,1.8-0.4,2.7
		c-0.3,1.1-0.7,2.3-1.5,3.2c-1.3,1.3-2.7,0.4-2.8-0.8c-0.7,1.1-1.4,1.5-2,1.5c-1.1,0-1.8-1.7-1.4-3.3c0-0.1,0-0.1,0-0.2
		c0.3-1.3,0.8-2.5,1.4-3.7c0.2-0.4,0.6-1.3,1.1-1.3c0.1,0,0.2,0,0.3,0.1c0.3,0.3,0,0.9-0.2,1.3c-0.2,0.5-0.4,1-0.7,1.6
		c-0.3,1.1-1,2.8-0.4,3.8c0.1,0.1,0.5-0.5,0.4-0.4c0.4-0.6,0.8-1.2,1.1-1.9c0.2-0.4,0.3-0.8,0.8-1c1.1-0.3,0.8,0.8,0.8,1.5
		C80.1,12,80,14.5,80.9,12.6z"/>
	<path d="M87.6,6.7c0,0,0.1,0,0.1,0c0.9,0,1.4,0.7,1.5,1.5c0.2,0.5,0,2.7-0.4,4.5c-0.3,1.2-0.7,2.2-1.1,2.3c-0.1,0-0.1,0-0.2,0
		c-0.4,0-0.6-0.4-0.5-0.6c0.3-1.8,1-3.5,1-5.3c0-0.8-0.3-1.2-0.8-1c-1.2,0.7-1.8,3-2,4.1c-0.1,0.5-0.2,0.9-0.2,1.4
		c0,0.6-0.2,1.2-0.9,1.2c-0.6-0.1-0.4-0.9-0.4-1.4c0-0.7,0.1-1.3,0.1-2c0.1-0.9,0.2-1.8,0.4-2.7c0-0.2,0.1-0.4,0.1-0.7
		c0.1-0.3,0.2-0.5,0.5-0.7c0.3-0.2,0.7,0,0.7,0.4c0,0.3-0.1,0.6-0.2,0.9C85.6,7.9,86.8,6.6,87.6,6.7z"/>
	<path d="M97.3,3.1c0.3-0.2,0.6-0.3,1-0.3c0.5,0,1,0.2,1.1,0.7c0.2,0.4,0.3,1.2,0.1,1.9c-0.1,0.4-0.2,0.7-0.5,0.8
		c-0.4,0.2-0.8-0.1-0.7-0.5c0.2-0.5,0.2-2.3-0.7-1.3c-0.6,0.8-0.9,1.8-1.1,2.7C97,7.1,97.6,7,98.1,7c0.4,0.1,0.5,0.5,0.3,0.9
		c-0.3,0.6-1,0.5-1.5,0.6c-0.2,0-0.6,0.1-0.8,0.1c-0.5,1.6-0.7,3.3-1.1,4.9c-0.1,0.4-0.1,1-0.5,1.3c-0.2,0.1-0.3,0.1-0.4,0.1
		c-0.5,0-0.5-0.7-0.4-1.2c0.2-1.7,0.6-3.3,1-5c-0.6,0-1.2,0-1-0.6c0-0.1,0.1-0.1,0.1-0.2C94,7.3,94.6,7.4,95,7.3
		C95.5,5.9,96,4.2,97.3,3.1z"/>
	<path d="M98.7,8.5c0.7-1.2,1.9-2,3-2c0.2,0,0.3,0,0.5,0.1c1.3,0.2,2,1.4,1.9,2.7c0,0.3,0,0.5-0.1,0.8c-0.5,2.2-2.7,4.8-4.4,4.8
		c-0.7,0-1.2-0.4-1.7-1.3c-0.2-0.7-0.1-1.5,0.1-2.3c0.1-0.4,0.1-0.2,0-0.4c-0.1-0.2-0.1-0.4,0-0.7C98.1,9.6,98.5,8.9,98.7,8.5z
		 M99.3,13.2c1,1.5,3.3-2.2,3.3-3.3c0.1-0.4,0.1-0.8,0-1.2c-0.2-0.6-1-1.1-1.8-0.7c-1,0.6-1.3,1.7-1.5,2.6
		C99,11.6,99,12.7,99.3,13.2z"/>
	<path d="M109.8,6.6c0.1-0.2,0.3-0.3,0.5-0.3c0.2,0,0.3,0.1,0.4,0.2c0.1,0.1,0.1,0.3,0,0.4c-0.1,0.3-0.4,0.5-0.6,0.8
		c-0.8,1.1-1.6,2.1-2.4,3.2c0.2,0.8,0.8,2.3,1,2.9c0.1,0.4-0.2,0.8-0.6,1c-0.4,0.1-0.6-0.1-0.6-0.2c-0.4-0.7-0.7-1.5-0.9-2.2
		c-0.5,0.7-1,1.3-1.4,2c-0.2,0.4-0.6,0.7-1,0.7c-0.1,0-0.3,0-0.4-0.1c-0.2-0.2-0.2-0.3-0.1-0.5c0.1-0.4,0.4-0.8,0.6-1.2
		c0.6-0.9,1.2-1.7,1.9-2.5c-0.2-0.8-1.1-3.5-0.4-4.2c0.6-0.5,0.9,0,1,0.5c0.3,0.8,0.4,1.6,0.5,2.4C108.3,8.3,108.8,7.8,109.8,6.6z"
		/>
	<path d="M118.2,7.2c-0.2,1.2-0.3,2.4-0.5,3.7c-0.2,0.6-0.3,1.4-0.5,2.1c-0.3,1.5-0.8,3-1.9,4.1c-0.5,0.4-1.1,0.7-1.7,0.7
		c-0.3,0-0.6-0.1-0.8-0.2c-0.3-0.2-0.6-0.6-0.5-1.1c0-0.1,0.1-0.3,0.2-0.4c0.3-0.4,0.9-0.5,1.2-0.1c0.1,0.1,0.1,0.3,0.3,0.3
		c0.5-0.1,0.7-0.5,0.9-0.8c1-2.3,1.4-4.6,1.8-7c0.2-0.6-0.1-1.4,0.6-1.7C117.8,6.4,118.3,6.8,118.2,7.2z M118,3.8
		c1,0,0.7,1.6-0.4,1.6C116.6,5.3,117,3.8,118,3.8z"/>
	<path d="M124.5,13.6c0,0.1,0,0.2,0,0.3c-0.1,0.3-0.4,0.7-0.8,0.7c-0.8,0.1-0.8-0.9-0.9-1.5c-0.5,0.8-1.4,1.6-2.3,1.6
		c-0.2,0-0.5-0.1-0.7-0.2c-1-0.3-1-2.7-0.8-3.2c0-0.3,0.1-0.7,0.2-1.1c0.2-0.9,0.5-1.7,0.8-2.6c0.2-0.5,0.4-1.4,0.9-1.4
		c0.1,0,0.2,0,0.3,0.1c0.4,0.4-0.3,1.5-0.4,2.1c-0.4,1.4-0.7,2.8-0.4,4.1c0.1,0.3,0,0.7,0.5,0.6c1-0.4,1.4-2,1.8-2.7
		c0.4-0.8,0.7-1.7,1.1-2.5c0.2-0.4,0.4-1,0.9-1.2C126.7,6.5,123.5,10.3,124.5,13.6z"/>
	<path d="M134.6,8.4c0,1.1-0.1,2.2-0.4,3.3c-0.2,0.9-0.5,1.8-0.9,2.7c-0.1,0.3-0.4,0.5-0.7,0.5c-0.1,0-0.2,0-0.3-0.1
		c-0.2-0.1-0.3-0.3-0.2-0.6c0.3-1.2,0.6-2.4,0.9-3.6c0.2-0.9,0.2-1.2,0.2-2c-0.2-1.5-1.5,0.6-1.7,1.2c-0.2,0.5-0.4,1-0.5,1.5
		c0,0.6-0.4,1.1-1.1,1c-0.7-0.1-0.2-2-0.3-2.6c-0.1-0.6,0.2-2.3-0.5-1.7c-1.1,1.4-1.3,3.1-1.6,4.6c-0.2,0.7,0.1,2.3-1.2,2
		c-0.5-0.2-0.3-1-0.2-1.5c0.1-0.6,0.1-1.3,0.2-2c0.1-0.9,0.2-1.8,0.2-2.6c0-0.2,0-0.5,0.1-0.8c0.1-0.2,0.1-0.4,0.3-0.5
		c0.6-0.4,0.9,0.1,0.8,0.6c0.6-1,1.3-1.4,1.9-1.4c0.7,0,1.3,0.7,1.3,1.8C132.1,6.2,134.4,6.1,134.6,8.4z"/>
	<path d="M140.2,7.5c0.7,1,1,2.4,0.6,3.8c-0.2,1-0.8,2.1-1.7,2.8c-1.2,1-2.8,0.6-3.3,0c-0.2,0.8-0.5,3.6-1.2,3.9
		c-0.1,0.1-0.3,0.1-0.4,0.1c-0.3,0-0.5-0.2-0.5-0.5c0.1-1,0.3-2,0.5-3c0.3-1.2,0.6-2.4,0.9-3.6c0.2-0.6,0.3-1.2,0.5-1.8
		c0.1-0.3,0.1-0.5,0.3-0.7c0.8-1.2,1.8-1.8,2.6-1.8C139.1,6.7,139.7,7,140.2,7.5z M139.2,12.1c0.5-1.2,0.5-2.4,0-3.5
		c-0.5-0.8-1.4-0.9-2.1,0.1c-0.1,0.8-0.4,1.6-0.5,2.4C136.2,12.9,137.9,14.6,139.2,12.1z"/>
	<path d="M142.7,14.3c-0.4-0.3-1-0.9-0.5-1.5c0.4-0.5,1-0.3,1.2,0c0.3,0.3,0.7,0.5,1.1,0.6c0.5,0.1,0.9-0.4,0.6-0.7
		c-0.9-1.1-3.4-2.1-3-3.9c0.1-0.3,0.3-0.7,0.6-1.1c0.8-0.8,2.1-1.4,3.2-1.4c0.7,0,1.3,0.2,1.6,0.7c0.2,0.3,0.4,0.6,0,1
		c-0.3,0.3-0.8,0.4-1,0.1c-0.1-0.3-0.3-0.5-0.6-0.5c-0.7-0.1-1.6,0.2-2.3,0.8c-1.1,0.9,1.2,2,1.6,2.4c1,0.6,1.3,1.5,1.2,2.3
		c-0.2,0.9-1.1,1.7-2.2,1.7C143.8,14.9,143.2,14.7,142.7,14.3z"/>
	<path d="M151.7,8.5c0.7-1.2,1.9-2,3-2c0.2,0,0.3,0,0.5,0.1c1.3,0.2,2,1.4,1.9,2.7c0,0.3,0,0.5-0.1,0.8c-0.5,2.2-2.7,4.8-4.4,4.8
		c-0.7,0-1.2-0.4-1.7-1.3c-0.2-0.7-0.1-1.5,0.1-2.3c0.1-0.4,0.1-0.2,0-0.4c-0.1-0.2-0.1-0.4,0-0.7C151,9.6,151.5,8.9,151.7,8.5z
		 M152.2,13.2c1,1.5,3.3-2.2,3.3-3.3c0.1-0.4,0.1-0.8,0-1.2c-0.2-0.6-1-1.1-1.8-0.7c-1,0.6-1.3,1.7-1.5,2.6
		C151.9,11.6,151.9,12.7,152.2,13.2z"/>
	<path d="M161.8,8.1c0.4-0.5,0.8-1.6,1.5-1.6c0.4,0,0.6,0.5,0.5,0.8c0,0.1-0.1,0.2-0.1,0.3c-1.1,1.7-2.2,3.4-3.2,5.2
		c-0.4,0.6-0.6,2.1-1.6,2.1c-0.1,0-0.2,0-0.2,0c-0.5-0.2-0.4-1-0.4-1.5c-0.1-1.6-0.2-4.7-0.3-6c0-0.1,0-0.1,0-0.2
		c0.1-0.3,0.4-0.6,0.8-0.6c0.5,0.1,0.5,0.7,0.5,1.1c0.1,1.3,0.3,2.6,0.4,3.9C160.3,10.4,161.1,9.2,161.8,8.1z"/>
	<path d="M164.2,11.8c-0.4,1.1,0.5,1.8,1.5,1.5c0.6-0.1,1.2-0.7,1.7-0.5c0.8,0.8-1.1,1.7-1.9,1.9c-0.2,0.1-0.5,0.1-0.7,0.1
		c-1.6,0-2.5-1.3-2.1-2.9c0.1-0.3,0.2-0.6,0.3-0.9c0.6-1.5,3-4.4,4.6-4.4c0.5,0,0.9,0.2,1.2,0.8c0.1,0.4,0.1,0.7,0,1.1
		C168.4,10.3,166,12,164.2,11.8z M167.7,8.3c0.2-0.4-0.3-0.5-0.6-0.3c-1,0.6-1.7,1.6-2.3,2.5c0,0,0.5,0.1,0.8-0.1
		C166.6,10,167.4,9.2,167.7,8.3z"/>
	<path d="M174.2,7.2c0.1,0.1,0.1,0.3,0.1,0.4c-0.1,0.2-0.3,0.5-0.5,0.6c-0.4,0.2-0.6-0.2-0.9-0.3c-1.4-0.4-3.1,4.6-3.2,5.6
		c-0.1,0.3-0.1,0.6-0.2,0.9c-0.1,0.3-0.4,0.5-0.7,0.5c-0.1,0-0.2,0-0.2,0c-0.6-0.2-0.2-1.1-0.1-1.6c0.1-0.6,0.3-1.2,0.4-1.8
		c0.2-0.9,0.4-1.8,0.6-2.7c0.2-0.7,0.3-1.1,0.5-1.8c0.2-0.3,0.5-0.4,0.7-0.4c0.3,0,0.6,0.2,0.5,0.6c-0.1,0.2-0.1,0.4-0.2,0.7
		C172.2,6.4,173.7,6.3,174.2,7.2z"/>
	<path d="M183,5.9c0.4,0,0.6,0.4,0.5,0.7c0,0.1-0.1,0.2-0.1,0.3c-0.6,0.7-1.1,0.3-1.6,0.4c-0.3,0-0.6,0-0.9,0
		c-0.4,1.4-1.6,5.1-1,6.1c0.2-0.3,0.7-0.4,1-0.3c0.5,0.4,0,1-0.4,1.4c-0.2,0.2-0.6,0.3-0.9,0.3c-0.3,0-0.6-0.1-0.7-0.2
		c-1.4-1.2,0.2-5.4,0.8-7.3c-0.7,0-1.6,0.4-1.4-0.6c0.2-0.5,0.8-0.5,1.2-0.6c0.2,0,0.5-0.1,0.7-0.1c0.3-0.8,0.6-1.6,1-2.3
		c0.1-0.3,0.2-0.7,0.6-0.8c0,0,0.1,0,0.1,0c0.5,0,0.5,0.5,0.2,1c-0.3,0.7-0.5,1.3-0.7,2C181.9,5.8,182.4,5.8,183,5.9z"/>
	<path d="M189.3,10.1c0,0.4-0.1,1-0.3,1.8c-0.3,1.3-0.8,2.7-1.5,3c-0.1,0-0.2,0-0.2,0c-0.5,0-0.5-0.6-0.3-1.1
		c0.1-0.4,0.2-0.8,0.3-1.2c0.2-0.8,0.4-1.1,0.5-2c0.1-0.8,0.3-2.7-0.6-2.8c-1.2,0.3-2.6,4.4-2.8,5.5c-0.1,0.2-0.2,0.9-0.3,1
		c-0.2,0.4-0.7,0.6-1,0.4c-0.7-0.3-0.2-1.6-0.1-2.1c0.2-1.1,0.4-2.2,0.6-3.3c0-0.1,0.1-0.2,0.1-0.4c0.3-1.3,0.6-2.7,1.1-4
		c0.1-0.4,0.2-1.5,0.9-1.9c0.1,0,0.2-0.1,0.3-0.1c0.1,0,0.1,0,0.2,0c0.5,0.2,0.1,1-0.1,1.4c-0.4,1.4-0.7,2.7-1,4.1
		C187.4,4.2,189.7,6.8,189.3,10.1z"/>
	<path d="M191.1,11.8c-0.4,1.1,0.5,1.8,1.5,1.5c0.6-0.1,1.2-0.7,1.7-0.5c0.8,0.8-1.1,1.7-1.9,1.9c-0.2,0.1-0.5,0.1-0.7,0.1
		c-1.6,0-2.5-1.3-2.1-2.9c0.1-0.3,0.2-0.6,0.3-0.9c0.6-1.5,3-4.4,4.6-4.4c0.5,0,0.9,0.2,1.2,0.8c0.1,0.4,0.1,0.7,0,1.1
		C195.3,10.3,192.9,12,191.1,11.8z M194.6,8.3c0.2-0.4-0.3-0.5-0.6-0.3c-1,0.6-1.7,1.6-2.3,2.5c0,0,0.5,0.1,0.9-0.1
		C193.4,10,194.3,9.2,194.6,8.3z"/>
	<path d="M200.1,13.4c0.2,0,0.3,0.1,0.4,0.3c0.1,0.1,0.1,0.3,0,0.4c0,0,0,0.1-0.1,0.1c-0.1,0.3-0.4,0.5-0.6,0.5c-0.2,0-0.3,0-0.3,0
		c-0.1,0-0.2,0-0.3-0.1c-0.6-0.3-0.6-1.3-0.6-2c0-0.1,0-0.3,0.1-0.4c0.1-0.8,0.2-1.5,0.4-2.3c0.3-1.2,0.6-2.4,1-3.5
		c0.7-2.1,1.1-3.4,1-3c0,0,0-0.1,0.1-0.1c0.1-0.2,0.2-0.3,0.4-0.3c0.1,0,0.2-0.1,0.3-0.1c0.1,0,0.1,0,0.2,0c0.1,0.1,0.2,0.2,0.2,0.3
		c0,0,0,0.1,0,0.1c0,0,0,0.1,0,0.1c-0.2,0.7-0.4,1.5-0.6,2.2c-0.1,0.5-0.3,1-0.4,1.5c-0.2,0.8-0.4,1.6-0.5,2.4
		c-0.1,0.3-0.1,0.6-0.2,0.9c-0.1,0.3-0.1,0.4-0.1,0.6c-0.1,0.4-0.1,0.8-0.2,1.2c0,0.3-0.1,0.6-0.1,0.9
		C200.1,13.4,200.1,13.4,200.1,13.4z"/>
	<path d="M207.7,12.4c0.3,0.1,0.4,0.4,0.4,0.7c-0.1,0.3-0.3,0.5-0.6,0.6c-0.1,0.4-0.1,0.8-0.6,1c-0.4,0.2-0.9,0-0.9-0.4
		c-1,0.3-2,0.7-3,0.7c-1.4-0.1-1.8-0.8-1.6-1.8c0.5-2,3.6-4.7,5.3-3.1c0-0.5,0.4-2.3,0-2.4c-1.1,0.4-2,0.9-3,1.5
		c-0.8,0.2-0.7-0.9-0.2-1.1c1.3-0.7,2.8-1.7,3.7-1.7c0.7,0,1.1,0.5,1,2C208.2,9.5,207.9,11.1,207.7,12.4z M203,13.5
		c0.8,0.4,2.2-0.4,3.1-0.6c0.1-2.8-2.4-2-3.3,0.3C202.8,13.3,203,13.5,203,13.5z"/>
	<path d="M212.9,12.8c0.2,0,1.1-0.1,1.1,0.3c0.1,0.1,0.1,0.3,0.1,0.4c-0.1,0.3-0.4,0.6-0.7,0.6c-1.2,0.2-2.8,0.3-4,0.7
		c-0.1,0-0.2,0-0.2,0c-0.1,0-0.2,0-0.3-0.1c-0.3-0.2-0.3-0.5,0-1c0.7-1,1.4-2,2.1-2.9c0.8-1.1,1.6-2.2,2.4-3.2c-0.7,0-1.4,0-2.1,0.1
		c-0.6,0.1-1.5,0.3-1.3-0.6c0.2-0.5,0.7-0.5,1.2-0.5c0.4-0.1,0.8-0.1,1.3-0.1c0.4,0,0.9-0.1,1.3-0.1c0.7,0,0.8,0,1,0
		c0.2,0,0.3,0.1,0.4,0.2c0.2,0.2,0.2,0.4-0.1,0.8c-1.3,1.9-2.6,3.9-4,5.8C211.7,12.9,212.3,12.9,212.9,12.8z"/>
	<path d="M217.5,13c1.5-1.3,2.1-3.3,2.5-5c0.1-0.6,0.3-1.5,1-1.5c0.1,0,0.2,0,0.3,0.1c0.6,0.1,0.1,1.3,0.1,1.8
		c-0.3,1.6-0.4,3.2-0.8,4.8c-0.3,1.1-0.6,2.3-1.1,3.4c-0.4,1-1.2,1.6-2.1,1.6c-0.2,0-0.5,0-0.7-0.1c-0.5-0.2-1.9-0.8-1.6-1.5
		c0.2-0.5,0.9-0.7,1.1-0.5c0.2,0.1,0.3,0.2,0.5,0.3c0.4,0.2,1,0.5,1.3,0c0.6-1,0.8-2.1,1.1-3.2c-0.8,1.1-2.4,2-3.4,0.9
		c-0.7-0.8-0.6-1.9-0.4-3.1c0.1-0.6,0.3-1.1,0.5-1.7c0.4-1.1,0.4-1,0.9-2.4c0.1-0.4,0.6-0.5,0.9-0.3c0.3,0.2,0.1,0.6,0.1,0.6
		c-0.5,1.4-0.9,2.8-1.1,4.2C216.6,12,216.6,13.3,217.5,13z"/>
	<path d="M232.1,3.4c0.1-0.3,0.4-0.5,0.7-0.5c0.3,0,0.5,0.2,0.4,0.5c0,0,0,0.1,0,0.1c-0.5,1.4-0.9,2.9-1.3,4.3
		c-0.4,1.3-0.7,2.7-1.1,4.1c-0.3,1-0.3,2.4-1.3,3.1c-0.1,0-0.2,0.1-0.3,0.1c-0.7,0-0.5-1.1-0.4-1.7c-1.5,1.5-4.1,2.5-4.2-0.2
		c0-0.3,0.1-0.7,0.1-1.1c0.6-2.7,3.4-5.8,6.1-5.2C231.2,5.9,231.8,4.2,232.1,3.4z M226.8,10.4c-0.8,1.5-1.1,2.9-0.2,3.1
		c1.3-0.3,2.5-1.9,3.2-2.9c0.2-0.8,0.5-1.5,0.7-2.2C229.1,7.8,227.5,9.1,226.8,10.4z"/>
	<path d="M232.8,8.5c0.7-1.2,1.9-2,3-2c0.2,0,0.3,0,0.5,0.1c1.3,0.2,2,1.4,1.9,2.7c0,0.3,0,0.5-0.1,0.8c-0.5,2.2-2.7,4.8-4.4,4.8
		c-0.7,0-1.2-0.4-1.7-1.3c-0.2-0.7-0.1-1.5,0.1-2.3c0.1-0.4,0.1-0.2,0-0.4c-0.1-0.2-0.1-0.4,0-0.7C232.2,9.6,232.6,8.9,232.8,8.5z
		 M233.4,13.2c1,1.5,3.3-2.2,3.3-3.3c0.1-0.4,0.1-0.8,0-1.2c-0.2-0.6-1-1.1-1.8-0.7c-1,0.6-1.3,1.7-1.5,2.6
		C233.1,11.6,233.1,12.7,233.4,13.2z"/>
	<path d="M245.2,8c-0.2,1.1-0.4,2.2-0.6,3.3c-0.3,1-0.4,2-0.6,3c-0.2,1-0.5,1.9-1.2,2.7c-0.5,0.5-1.1,0.7-1.7,0.7
		c-0.6,0-1.1-0.2-1.5-0.4c-0.4-0.3-1-0.5-0.9-1.1c0.1-0.4,0.4-0.8,0.9-0.6c0.6,0.3,1.3,0.7,2.1,0.5c0.8-0.5,0.8-1.9,1-2.6
		c0-0.1,0.1-0.3,0-0.1c-2.4,2.4-4.8,0.8-4.2-1.8c0-0.2,0.1-0.3,0.1-0.5c0.5-1.7,1.7-3.5,3.5-4.3c0.4-0.2,0.9-0.3,1.3-0.3
		c0.7,0,1.4,0.3,1.7,0.9C245.2,7.6,245.2,7.9,245.2,8z M239.8,11.4c-0.3,1.1,0.3,2.4,1.5,1.4c1.4-1.3,2.1-3.3,2.5-4.9
		C242.1,6.9,240.1,9.9,239.8,11.4z"/>
	<path d="M12.8,20.6c0.3,0,0.5,0.3,0.4,0.6c0,0.1-0.1,0.1-0.1,0.2c-0.4,0.6-1.3,0.4-1.8,0.5c-0.4,0-0.9,0.1-1.3,0.2
		c-0.8,3.2-1.4,6.4-1.8,9.6c-0.1,0.4-0.1,0.9-0.6,1.2c-0.1,0.1-0.2,0.1-0.4,0.1c-0.3,0-0.6-0.2-0.6-0.5C6.9,29,8,25.5,8.8,22.2
		c-0.5,0.1-1,0.2-1.6,0.4c-0.2,0.1-0.5,0.2-0.7,0.1c-0.2-0.1-0.2-0.3-0.2-0.5c0,0,0-0.1,0-0.1c0.3-0.6,2-0.9,2.6-1
		C10.2,20.8,11.6,20.7,12.8,20.6z"/>
	<path d="M18.1,21.4c0.1-0.3,0.5-0.5,0.9-0.5c0.2,0.1,0.3,0.2,0.2,0.4c0,0,0,0,0,0.1c-0.4,1.3-0.8,2.5-1.1,3.8
		c-0.6,2-0.9,4.2-1.6,6.1c-0.2,0.4-0.7,0.6-1,0.5c-1-0.2,0.4-3.5,0.6-4.4c-0.9,0.1-1.9,0.2-2.8,0.4c-0.2,1.1-0.4,2.2-0.7,3.3
		c-0.2,0.5-0.1,1.3-0.7,1.6c-0.1,0.1-0.2,0.1-0.3,0.1c-0.4,0-0.6-0.3-0.6-0.6c0.1-1,0.3-2,0.5-2.9c0.5-2.1,1.2-4.3,2-6.4
		c0.1-0.3,0.3-1.6,0.9-1.9c0.1-0.1,0.2-0.1,0.3-0.1c0.2,0,0.4,0.1,0.3,0.5c-0.3,0.8-0.5,1.6-0.8,2.5c-0.3,1.2-0.4,1.6-0.8,3.1
		c1-0.2,1.9-0.3,2.9-0.5C16.9,24.9,17.6,22.8,18.1,21.4z"/>
	<path d="M21.2,30c0.5-0.2,1,0.2,0.9,0.7c-0.1,0.6-1.3,0.9-1.8,1.3c-0.6,0.2-1.5,0.9-2.1,0.9c-0.1,0-0.2,0-0.3-0.1
		c-0.2-0.1-0.2-0.3-0.1-0.5c0.2-0.8,0.3-1.6,0.5-2.5c0.6-2.5,1.1-5,2.1-7.4c-0.3-0.7,0.5-1,1.1-1.2c0.5-0.2,1.1-0.3,1.6-0.4
		c0.2,0,0.3-0.1,0.5-0.1c0.2,0,0.4,0,0.5,0.1c0.6,0.4-0.1,1.1-0.7,1.1c-0.7,0.1-1.4,0.3-2,0.5c-0.5,1.7-0.8,3.3-1.2,5
		c0.5-0.2,1.1-0.4,1.5-0.6c0.4-0.2,1-0.4,1.3-0.2c0.2,0.1,0.2,0.3,0.2,0.6c0,0.1-0.1,0.3-0.2,0.4c-0.2,0.2-0.7,0.3-0.8,0.4
		c-0.8,0.3-1.6,0.6-2.4,0.9c-0.2,0.7-0.3,1.4-0.5,2.1C19.9,30.7,20.6,30.3,21.2,30z"/>
	<path d="M32.2,31.5c0.1,0.2,0.1,0.4,0,0.6c-0.1,0.3-0.3,0.6-0.6,0.5c-0.6-0.1-0.7-0.7-0.9-1.2c-0.7,0.9-1.5,1.3-2.2,1.3
		c-0.8,0-1.4-0.5-1.7-1.3c-0.3-1.2-0.2-2.9,0.2-4.5c0.3-1.3,0.8-2.6,1.2-3.6c1-1.8,2.2-2.6,3.2-2.6c1.4,0,2.4,1.6,2,4
		c-0.3,1.5-0.6,3.1-1.4,4.6c-0.4,0.7-0.5,0.5-0.4,0.7c0.1,0.2,0.2,0.4,0.2,0.6C32,31,32.1,31.1,32.2,31.5z M28.3,31.1
		c0.1,0.3,0.5,0.5,0.9,0.4c0.4-0.3,0.7-0.7,1-1.2c-0.3-0.7-0.6-1.3-0.8-1.9c-0.2-0.6,0.7-1.4,1.1-0.8c0.2,0.4,0.4,0.7,0.5,1.1
		c0.7-1.6,1.1-3.3,1.1-4.7c-0.1-1-0.2-1.6-1-1.9c-0.9,0-1.9,1.8-2.1,2.6C28.4,26.7,27.6,29.5,28.3,31.1z"/>
	<path d="M39.7,21.2c0.2-0.3,0.5-0.4,0.7-0.4c0.1,0,0.1,0,0.2,0c0.6,0.1,0.2,0.9,0.1,1.3c-0.1,0.2-0.1,0.5-0.2,0.8
		c-0.7,2.9-2.4,9.8-5,9.8c-3.3-0.1-0.7-8.3-0.3-10.7c0-0.1,0-0.2,0.1-0.3c0.1-0.5,0.4-0.9,1.1-0.8c0.5,0.1,0.3,0.7,0.2,1.2
		c-0.5,2.2-1.9,7.9-0.6,9.4c0.9-0.8,1.2-1.9,1.7-2.9C38.5,26.2,39.1,23.7,39.7,21.2z"/>
	<path d="M41.4,32.2c-0.1,0.4-0.5,0.6-0.8,0.6c-0.3,0-0.5-0.2-0.5-0.5c0.1-1.5,0.4-3,0.7-4.5c0.4-1.8,0.9-3.5,1.4-5.3
		c0.4-1.2,0.3-1.5,0.8-1.8c0.1-0.1,0.2-0.1,0.3-0.1c0.3,0,0.6,0.2,0.5,0.6c-0.2,0.8-0.4,1.6-0.7,2.5c-0.2,0.7-0.6,2.6-0.7,2.9
		c-0.3,1.5-0.5,3.2-0.8,4.7C41.5,31.7,41.4,31.9,41.4,32.2z"/>
	<path d="M44.4,29.2c0,0.4,0,0.7,0.1,1.1c0.2,0.6,0.6,1.3,1.3,1.2c0.3-0.1,0.6-0.2,0.9-0.5c0.3-0.2,0.5-0.5,0.7-0.8
		c0-0.1,0.1-0.1,0.1-0.1c0.2-0.2,0.4-0.3,0.6-0.3c0.2,0,0.4,0.1,0.5,0.2c0.2,0.2,0.2,0.3,0.2,0.5c0,0.1-0.1,0.2-0.1,0.2
		c-0.3,0.5-0.7,1-1.2,1.3c-0.4,0.3-0.7,0.5-1.1,0.6c0,0-0.4,0.2-1,0.2c-0.2,0-0.5,0-0.7-0.1c-0.5-0.2-0.8-0.4-1.1-0.8
		c-0.2-0.3-0.3-0.7-0.4-1c-0.2-1-0.2-2,0-3.1c0,0,0-0.1,0-0.1c0.1-0.6,0.3-1.1,0.5-1.7c0.3-0.7,0.6-1.4,1-2.1
		c0.2-0.3,0.3-0.5,0.4-0.7c0.3-0.5,0.6-0.9,1-1.3c0.2-0.2,0.3-0.3,0.5-0.4c0.5-0.3,1-0.5,1.5-0.5c0.3,0,0.5,0.1,0.7,0.1
		c0.4,0.2,0.7,0.5,0.9,0.9c0.3,0.6,0.4,1.1,0.4,1.3c0,0.1,0,0.1,0,0.1c0,0.2-0.1,0.3-0.2,0.4c-0.1,0.1-0.3,0.2-0.4,0.2
		c-0.1,0-0.1,0-0.1,0c-0.3-0.1-0.3-0.3-0.3-0.5c-0.1-0.2-0.1-0.3-0.2-0.5c-0.1-0.2-0.2-0.3-0.3-0.5c-0.2-0.2-0.5-0.4-0.9-0.3
		c-0.1,0-0.2,0.1-0.2,0.1c-0.2,0.2-0.4,0.4-0.5,0.6c-0.2,0.3-0.3,0.5-0.4,0.6c-0.4,0.6-0.7,1.3-1,1.9c-0.2,0.4-0.3,0.9-0.5,1.3
		c-0.2,0.8-0.4,1.6-0.4,2.4C44.4,29,44.4,29.1,44.4,29.2z"/>
	<path d="M54.7,29.8c0.4,0.2,0.5,0.5,0.5,0.8c-0.1,0.4-0.4,0.7-1,0.7c-0.4,0-0.7-0.4-1-0.6c-0.6-0.5-1.1-0.9-1.7-1.4
		c-0.1,0.7-0.2,1.3-0.4,2c-0.1,0.5-0.1,1.1-0.7,1.5c-0.2,0.1-0.4,0.1-0.5,0.1c-1,0-0.2-2-0.1-2.7c0.3-1.4,0.6-3.2,1-4.9
		c0.3-1.4,0.7-2.9,1.1-4c0.1-0.2,0.2-0.3,0.3-0.3c0.9-0.4,0.7,0.5,0.6,1c-0.2,1.3-0.4,2.6-0.7,3.9c1.1-1.5,2.7-3.6,3.7-5.1
		c0.2-0.2,0.4-0.3,0.6-0.3c0.2,0,0.3,0.1,0.4,0.2c0.1,0.1,0,0.3-0.1,0.4c-0.4,0.6-0.7,1.1-1.1,1.7c-1.1,1.7-2.2,3.4-3.4,5.1
		C53.1,28.5,53.8,29.2,54.7,29.8z"/>
	<path d="M63.4,31.1c-1.2,0.9-2.3,1.8-3.6,1.8c-0.1,0-0.1,0-0.2,0c-0.3,0-0.6-0.2-0.6-0.5c-0.1-0.1,0-0.3,0.1-0.4
		c0.3-2.2,0.8-4.4,1.2-6.6c0.1-0.6,0.3-1.3,0.5-1.9c-0.1,0-0.1-0.1-0.2-0.2c0-0.1,0-0.1,0-0.2c0.1-0.2,0.3-0.4,0.4-0.6
		c0.1-0.3,0.2-0.7,0.3-1c0.2-0.4,0.8-0.4,0.9,0c0.6-0.4,1.5-0.7,2.3-0.7c0.7,0,1.2,0.3,1.3,1.2c-0.1,1.6-1.3,3.2-2.5,4.5
		c1.5,0.2,2,1.2,1.7,2.4C64.8,29.6,64.2,30.4,63.4,31.1z M62,30.7c0.5-0.4,0.8-0.6,1.2-1c1-1.1,0.4-2.5-1-2.2
		c-0.4,0.4-0.8,0.7-1.3,1c-0.2,1-0.3,2-0.5,3C60.9,31.5,61.6,31,62,30.7z M64.1,23.5c0.2-0.5,0.5-1.3,0.3-1.6
		c-0.7-0.2-1.6,0.3-2.3,0.8c-0.2,1.2-0.7,3.4-0.9,4.3C62.1,26.2,63.8,24.3,64.1,23.5z"/>
	<path d="M70.1,30.4c0.3,0.3,0.2,0.7-0.2,0.9c-1,0.3-2.2-1-2.9-1.5c-0.2,0.7-0.2,2.3-0.8,2.8c-0.2,0.1-0.3,0.2-0.5,0.2
		c-0.4,0-0.5-0.5-0.4-1c0.1-1.4,0.4-2.8,0.7-4.2c0.3-1.5,0.8-3.1,1.2-4.6c-0.1-0.2,0-0.4,0.2-0.6c0.1-0.2,0.3-0.3,0.5-0.3
		c1.2-1,2.3-1.4,3.1-1.4c1.3,0,2,1,1.6,2.5c-0.2,0.7-0.5,1.5-1.1,2.3c-1,1.2-2.3,2.2-3.5,3.1c0,0,0.1,0,0.1,0.1c0,0,0.1,0,0.1,0.1
		C68.7,29.3,69.6,29.7,70.1,30.4z M70.9,24.2c0.4-0.7,0.5-1.4,0.2-2c-0.6-0.8-2,0.2-2.8,0.7c-0.4,1.4-0.8,3.3-1,4.7
		C68.7,26.6,70,25.5,70.9,24.2z"/>
	<path d="M75.2,21.4c0.5-0.4,1.1-0.6,1.5-0.6c0.9,0,1.7,0.6,1.9,1.3c0.3,0.9,0.3,2.4-0.1,3.9c-0.6,2.6-2,5.4-3.8,6.4
		c-0.3,0.2-0.6,0.2-0.9,0.2c-0.9,0-1.4-0.6-1.6-1.3c-0.4-1.3-0.2-2.8,0.1-4.2c0.2-0.6,0.3-1.3,0.5-1.9
		C73.2,23.9,73.9,22.4,75.2,21.4z M74.2,31.5c1.1,0.2,2.2-2.8,2.5-3.7c0.5-1.3,0.6-2.1,0.6-2.3c0.2-1.2,0.4-2.8-0.8-3.3
		c-0.9,0-1.9,1.8-2.1,2.6C74,26.3,72.5,30.9,74.2,31.5z"/>
	<path d="M86.9,21.1c0,0.2-0.1,0.5-0.1,0.7c-0.2,1-0.7,2-1,2.9c-0.6,1.5-0.9,2.7-1.3,4.2c-0.2,0.8-0.4,1.6-0.6,2.4
		c-0.1,0.6-0.2,1.4-1,1.4c-0.4,0-0.4-0.3-0.4-0.4c-0.2-1.6-0.4-3.4-0.5-4.9c-0.5,0.8-0.9,1.7-1.3,2.5c-0.4,0.6-0.7,1.7-1.3,2
		c-0.7,0.4-0.9-0.1-0.7-0.7c0.1-0.7,0.2-1.7,0.3-2.3c0.2-0.8,0.4-2.2,0.7-3.5c0.4-1.7,0.9-3.5,1.7-4.3c1.4-0.7,0.3,1.6,0.2,2.2
		c-0.4,1.5-0.7,2.9-1,4.4c0.3-0.6,0.7-1.3,1.1-1.9c0.3-0.5,0.8-1.3,1.4-1.1c0.4,0.2,0.3,0.6,0.3,1c0,0.9,0,1.7,0.1,2.5
		c0.4-1.2,2-7.1,3-7.5c0.1,0,0.2-0.1,0.2-0.1C86.8,20.8,86.9,21,86.9,21.1z"/>
	<path d="M92.6,21.2c0.2-0.3,0.4-0.4,0.6-0.4c0.1,0,0.2,0,0.3,0.1c0.3,0.1,0.3,0.5,0.2,0.8c-0.1,0.5-0.5,1.2-0.5,1.3
		c-1,3-1.7,6.1-2.2,9.2c-0.1,0.4-0.4,0.6-0.8,0.6c0,0-0.1,0-0.1,0c-0.6-0.1-0.6-0.9-0.7-1.3c-0.2-0.7-0.4-1.4-0.6-2.2
		c-0.2-1-0.4-2-0.6-3c-0.2,1-0.3,1.9-0.4,2.8c-0.1,0.9-0.1,1.8-0.3,2.6c-0.2,0.4-0.7,0.6-1,0.5c-0.1,0-0.4-0.1-0.4-0.5
		c0-0.7,0.1-1.4,0.2-2.1c0.2-1.4,0.5-2.9,0.8-4.3c0.1-0.6,0.3-1.2,0.4-1.7c0.1-0.2,0.1-0.4,0.3-1.1c0.1-0.4,0.6-0.6,0.9-0.6
		c0.6,0.1,0.5,1,0.5,1.5c0.2,2,0.6,3.9,1.1,5.8C90.8,26.7,91.6,23.6,92.6,21.2z"/>
	<path d="M102.4,20.8c0.3,0.1,0.5,0.3,0.4,0.6c0,0.2-0.2,0.4-0.5,0.5c-0.4,0.2-0.8,0.1-1.1,0.1c-0.8,0-1.6,0.1-2.4,0.2
		c-0.2,0.8-0.5,1.8-0.7,2.6c0.6-0.2,1.3-0.3,1.9-0.3c0.5,0,1.2-0.1,1.4,0.4c0.1,0.3-0.2,0.7-0.5,0.8c-0.5,0.2-0.9,0.1-1.4,0.1
		c-0.5,0-1.1,0.1-1.6,0.3c-0.5,1.8-0.8,3.6-1.1,5.5c-0.1,0.4-0.3,0.9-0.7,1.2c-0.1,0.1-0.2,0.1-0.4,0.1c-0.3,0-0.5-0.2-0.5-0.3
		c-0.1-0.7,0-1.4,0.2-2.1c0.2-0.6,0.3-1.3,0.4-1.9c0.5-2.2,1.2-4.3,1.9-6.5c0-0.4,0.4-0.7,0.7-0.7c0.7-0.2,1.5-0.3,2.2-0.4
		c0.5,0,0.9-0.1,1.4-0.1C102.2,20.8,102.3,20.8,102.4,20.8z"/>
	<path d="M104.8,21.4c0.5-0.4,1.1-0.6,1.5-0.6c0.9,0,1.7,0.6,1.9,1.3c0.3,0.9,0.3,2.4-0.1,3.9c-0.6,2.6-2,5.4-3.8,6.4
		c-0.3,0.2-0.6,0.2-0.9,0.2c-0.9,0-1.4-0.6-1.6-1.3c-0.4-1.3-0.2-2.8,0.1-4.2c0.2-0.6,0.3-1.3,0.5-1.9
		C102.8,23.9,103.5,22.4,104.8,21.4z M103.8,31.5c1.1,0.2,2.2-2.8,2.5-3.7c0.5-1.3,0.6-2.1,0.6-2.3c0.2-1.2,0.4-2.8-0.8-3.3
		c-0.9,0-1.9,1.8-2.1,2.6C103.5,26.3,102.1,30.9,103.8,31.5z"/>
	<path d="M112.7,32.1c0,0,0,0.1,0,0.1c-0.1,0.4-0.8,0.8-1,0.3c-0.5-1.3-1-2.5-1.2-3.9c-0.4,0.8-0.9,1.7-1.3,2.5
		c-0.3,0.6-0.5,1.4-1.2,1.7c-0.1,0-0.1,0-0.1,0c-0.5,0-0.4-0.6-0.2-1c0.7-1.8,1.6-3.5,2.5-5.1c-0.2-1.7-0.5-3.3-0.3-5.1
		c0,0,0-0.1,0-0.1c0.1-0.3,0.3-0.7,0.6-0.7c0.9-0.1,0.6,3.1,0.9,3.8c0.3-0.6,2.3-3.9,2.9-3.8c0,0,0.1,0,0.1,0c0.4,0,0.5,0.4,0.3,0.6
		c-1,1.8-2,3.5-3.1,5.2C111.9,28.4,112.3,30.2,112.7,32.1z"/>
	<path d="M124.2,20.4c0.6-0.1,0.3-0.1,1-0.2c0.1,0,0.1,0,0.2,0c0.1,0,0.1,0,0.2,0c0.3,0.1,0.4,0.3,0.3,0.5c-0.1,0.3-0.4,0.7-0.8,0.7
		c-0.4,0.1-0.7,0.1-1.1,0.2c-0.3,2.9-0.9,5.9-2.4,8.7c-0.5,0.9-1.1,1.8-2,2.3c-0.3,0.1-0.5,0.2-0.7,0.2c-1,0-1.6-0.9-1.7-1.8
		c-0.1-0.3-0.1-0.8,0.1-1.2c0.1-0.5,0.4-1,0.9-0.8c0.6,0.3,0.1,1.3,0.5,1.8c0.1,0.2,0.2,0.6,0.5,0.6c0.5-0.2,0.8-0.8,1.1-1.2
		c1.4-2.7,1.7-5.5,2.3-8.2c-0.5,0.1-1.1,0.4-1.6,0.4c-0.4-0.1-0.4-0.6,0-0.9c0.7-0.3,1.4-0.4,2.1-0.7
		C123.3,20.6,123.7,20.5,124.2,20.4z"/>
	<path d="M130.6,21.2c0.2-0.3,0.5-0.4,0.7-0.4c0.1,0,0.1,0,0.2,0c0.6,0.1,0.2,0.9,0.1,1.3c-0.1,0.2-0.1,0.5-0.2,0.8
		c-0.7,2.9-2.4,9.8-5,9.8c-3.3-0.1-0.7-8.3-0.3-10.7c0-0.1,0-0.2,0.1-0.3c0.1-0.5,0.4-0.9,1.1-0.8c0.5,0.1,0.3,0.7,0.2,1.2
		c-0.5,2.2-1.9,7.9-0.6,9.4c0.9-0.8,1.2-1.9,1.7-2.9C129.4,26.2,130,23.7,130.6,21.2z"/>
	<path d="M138.9,21.6c-0.2,1.2-0.4,2.3-0.5,3.5c-0.2,1.6-0.5,3.9-0.7,5.7c-0.1,0.3-0.1,0.7-0.2,1.1c-0.1,0.5-0.4,1-1,1
		c0,0-0.1,0-0.1,0c-0.4-0.1-0.4-0.4-0.4-0.5c0.3-2.4,0.6-4.8,1-7.2c-0.4,0.8-1.4,3-1.7,3.6c-0.2,0.4-0.5,0.6-0.9,0.6
		c-1.4,0-1.3-2-1.6-3c-0.4,1.3-0.7,2.7-1.1,4c-0.2,0.5-0.1,1.5-0.8,1.8c-0.4,0.1-0.8-0.1-0.7-0.5c0,0,0,0,0-0.1
		c0.9-3.2,1.5-6,2.6-9.3c0.2-0.3,0.6-0.5,1-0.4c0.5,0.1,0.4,0.5,0.4,1c0,1.6,0.1,3.1,0.4,4.5c0.8-1.7,1.8-3.4,2.6-5
		c0.2-0.5,0.4-1.2,1-1.4c0.1,0,0.1,0,0.2,0C138.7,20.9,139,21.2,138.9,21.6z"/>
	<path d="M140.6,22.4c0.2-0.2,0.4-0.4,0.7-0.6c0.8-0.7,1.7-1.1,2.6-1.2c0.1,0,0.2,0,0.3,0c1.5,0,1.9,0.9,1.7,2.1
		c-0.1,0.4-0.3,0.9-0.6,1.4c-1.1,1.6-3.2,3.3-4.9,3.9c-0.2,1-0.4,1.8-0.5,2.9c-0.1,0.2-0.1,0.6-0.2,0.7c0,0.2,0,0.4-0.2,0.7
		c-0.2,0.3-0.5,0.5-0.8,0.5c-0.2,0-0.4-0.1-0.4-0.3c-0.1-0.7,0.1-1.3,0.3-2c0.3-1.6,0.7-3.1,1.1-4.7c0.2-0.6,0.4-1.3,0.6-1.9
		c0.2-0.5,0.2-0.4,0.1-0.5h0c-0.1-0.1-0.2-0.2-0.1-0.3C140.2,22.8,140.4,22.6,140.6,22.4z M140.7,26.6c1.4-0.8,2.8-2,3.6-3.3
		c0.2-0.5,0.4-1.2-0.1-1.4c-0.8-0.3-1.8,0.3-2.5,0.9C141.4,24.1,141.1,25.3,140.7,26.6z"/>
	<path d="M149.4,29.8c-0.3-1.8-1.9-3-2.5-4.6c-1-2.5,1.6-4.3,3.7-4.3c1.1,0,2,0.5,2.2,1.8c0,0,0,0.1,0,0.1c0,0.2-0.2,0.3-0.3,0.4
		c-1.1,0.4-0.7-0.4-1.2-0.9c-0.5-0.5-1.5-0.3-2.3,0.2c-2.1,1.5,0.1,3.4,0.8,4.5c0.5,0.7,0.9,1.4,1.1,2.3c0.3,2.2-1.7,3.6-3.5,3.6
		c-0.8,0-1.6-0.3-2.1-1c-0.2-0.3-0.5-0.7-0.4-1.2c0-0.2,0.1-0.3,0.3-0.4c0.3-0.2,0.7-0.3,0.9,0c0.1,0.3,0.2,0.5,0.4,0.7
		C147.2,32.1,149.5,31.5,149.4,29.8z"/>
	<path d="M158.3,21.4c0.5-0.4,1.1-0.6,1.5-0.6c0.9,0,1.7,0.6,1.9,1.3c0.3,0.9,0.3,2.4-0.1,3.9c-0.6,2.6-2,5.4-3.8,6.4
		c-0.3,0.2-0.6,0.2-0.9,0.2c-0.9,0-1.4-0.6-1.6-1.3c-0.4-1.3-0.2-2.8,0.1-4.2c0.2-0.6,0.3-1.3,0.5-1.9
		C156.3,23.9,157,22.4,158.3,21.4z M157.3,31.5c1.1,0.2,2.2-2.8,2.5-3.7c0.5-1.3,0.6-2.1,0.6-2.3c0.2-1.2,0.4-2.8-0.8-3.3
		c-0.9,0-1.9,1.8-2.1,2.6C157,26.3,155.6,30.9,157.3,31.5z"/>
	<path d="M168.1,21c0.2-0.2,0.4-0.3,0.6-0.3c0.1,0,0.2,0,0.2,0.1c0.2,0.1,0.2,0.2,0.2,0.4c-0.1,0.3-0.4,0.7-0.5,0.9
		c-0.3,0.6-0.6,1.1-0.9,1.7c-1,1.8-1.8,3.7-2.6,5.5c-0.3,0.8-0.6,1.5-0.9,2.3c-0.2,0.6-0.4,1.2-1,1.2c0,0-0.1,0-0.1,0
		c0,0-0.4-0.1-0.4-0.4c0-0.8-0.1-1.5-0.1-2.3c0-2.5,0-5.3,0.4-8c0,0,0,0,0,0c0.1-0.4,0.6-0.7,1-0.6c0.3,0.1,0.4,0.3,0.4,0.5
		c-0.1,0.7-0.1,1.3-0.2,2c-0.2,1.8-0.3,3.4-0.3,5.2C165.2,26.5,166.6,23.6,168.1,21z"/>
	<path d="M170.9,30c0.5-0.2,1,0.2,0.9,0.7c-0.1,0.6-1.3,0.9-1.8,1.3c-0.6,0.2-1.5,0.9-2.1,0.9c-0.1,0-0.2,0-0.3-0.1
		c-0.2-0.1-0.2-0.3-0.1-0.5c0.2-0.8,0.3-1.6,0.5-2.5c0.6-2.5,1.1-5,2.1-7.4c-0.3-0.7,0.5-1,1.1-1.2c0.5-0.2,1.1-0.3,1.6-0.4
		c0.2,0,0.3-0.1,0.5-0.1c0.2,0,0.4,0,0.5,0.1c0.6,0.4-0.1,1.1-0.7,1.1c-0.7,0.1-1.4,0.3-2,0.5c-0.5,1.7-0.8,3.3-1.2,5
		c0.5-0.2,1.1-0.4,1.5-0.6c0.4-0.2,1-0.4,1.3-0.2c0.2,0.1,0.2,0.3,0.2,0.6c0,0.1-0.1,0.3-0.2,0.4c-0.2,0.2-0.7,0.3-0.8,0.4
		c-0.8,0.3-1.6,0.6-2.4,0.9c-0.2,0.7-0.3,1.4-0.5,2.1C169.6,30.7,170.2,30.3,170.9,30z"/>
	<path d="M177.6,30.4c0.3,0.3,0.2,0.7-0.2,0.9c-1,0.3-2.2-1-2.9-1.5c-0.2,0.7-0.2,2.3-0.8,2.8c-0.2,0.1-0.3,0.2-0.5,0.2
		c-0.4,0-0.5-0.5-0.4-1c0.1-1.4,0.4-2.8,0.7-4.2c0.3-1.5,0.8-3.1,1.2-4.6c-0.1-0.2,0-0.4,0.2-0.6c0.1-0.2,0.3-0.3,0.5-0.3
		c1.2-1,2.3-1.4,3.1-1.4c1.3,0,2,1,1.6,2.5c-0.2,0.7-0.5,1.5-1.1,2.3c-1,1.2-2.3,2.2-3.5,3.1c0,0,0.1,0,0.1,0.1c0,0,0.1,0,0.1,0.1
		C176.2,29.3,177.1,29.7,177.6,30.4z M178.4,24.2c0.4-0.7,0.5-1.4,0.2-2c-0.6-0.8-2,0.2-2.8,0.7c-0.4,1.4-0.8,3.3-1,4.7
		C176.2,26.6,177.6,25.5,178.4,24.2z"/>
	<path d="M190.6,20.6c0.3,0,0.5,0.3,0.4,0.6c0,0.1-0.1,0.1-0.1,0.2c-0.4,0.6-1.3,0.4-1.8,0.5c-0.4,0-0.9,0.1-1.3,0.2
		c-0.8,3.2-1.4,6.4-1.8,9.6c-0.1,0.4-0.1,0.9-0.6,1.2c-0.1,0.1-0.2,0.1-0.4,0.1c-0.3,0-0.6-0.2-0.6-0.5c0.2-3.3,1.3-6.8,2.1-10.1
		c-0.5,0.1-1,0.2-1.6,0.4c-0.2,0.1-0.5,0.2-0.7,0.1c-0.2-0.1-0.2-0.3-0.2-0.5c0,0,0-0.1,0-0.1c0.3-0.6,2-0.9,2.6-1
		C188,20.8,189.4,20.7,190.6,20.6z"/>
	<path d="M195.8,21.4c0.1-0.3,0.5-0.5,0.8-0.5c0.2,0.1,0.3,0.2,0.2,0.4c0,0,0,0,0,0.1c-0.4,1.3-0.8,2.5-1.1,3.8
		c-0.6,2-0.9,4.2-1.6,6.1c-0.2,0.4-0.7,0.6-1,0.5c-1-0.2,0.4-3.5,0.6-4.4c-0.9,0.1-1.9,0.2-2.8,0.4c-0.2,1.1-0.4,2.2-0.7,3.3
		c-0.2,0.5-0.1,1.3-0.7,1.6c-0.1,0.1-0.2,0.1-0.3,0.1c-0.4,0-0.6-0.3-0.6-0.6c0.1-1,0.3-2,0.5-2.9c0.5-2.1,1.2-4.3,2-6.4
		c0.1-0.3,0.3-1.6,0.9-1.9c0.1-0.1,0.2-0.1,0.3-0.1c0.2,0,0.4,0.1,0.3,0.5c-0.3,0.8-0.5,1.6-0.8,2.5c-0.3,1.2-0.4,1.6-0.8,3.1
		c1-0.2,1.9-0.3,2.9-0.5C194.6,24.9,195.3,22.8,195.8,21.4z"/>
	<path d="M198.9,30c0.5-0.2,1,0.2,0.9,0.7c-0.1,0.6-1.3,0.9-1.8,1.3c-0.6,0.2-1.5,0.9-2.1,0.9c-0.1,0-0.2,0-0.3-0.1
		c-0.2-0.1-0.2-0.3-0.1-0.5c0.2-0.8,0.3-1.6,0.5-2.5c0.6-2.5,1.1-5,2.1-7.4c-0.3-0.7,0.5-1,1.1-1.2c0.5-0.2,1.1-0.3,1.6-0.4
		c0.2,0,0.3-0.1,0.5-0.1c0.2,0,0.4,0,0.5,0.1c0.6,0.4-0.1,1.1-0.7,1.1c-0.7,0.1-1.4,0.3-2,0.5c-0.5,1.7-0.8,3.3-1.2,5
		c0.5-0.2,1.1-0.4,1.5-0.6c0.4-0.2,1-0.4,1.3-0.2c0.2,0.1,0.2,0.3,0.2,0.6c0,0.1-0.1,0.3-0.2,0.4c-0.2,0.2-0.7,0.3-0.8,0.4
		c-0.8,0.3-1.6,0.6-2.4,0.9c-0.2,0.7-0.3,1.4-0.5,2.1C197.7,30.7,198.3,30.3,198.9,30z"/>
	<path d="M207.7,29.6c0.6-0.2,1-0.5,1.4-0.2c0.2,0.1,0.3,0.3,0.2,0.5c0,0.2-0.2,0.3-0.4,0.4c-1.2,0.6-2.4,1.1-3.5,1.7
		c-0.5,0.2-1.2,0.7-1.6,0.7c-0.2,0-0.4-0.2-0.2-0.6c0-0.1,0-0.1,0-0.1c0.7-3,1.5-6,2.2-9c0.2-0.6,0.5-2.4,1.3-2.4c0.1,0,0.1,0,0.2,0
		c0.3,0.1,0.2,0.3,0.2,0.3c0,0.7-0.3,1.6-0.4,2.2c-0.5,2.5-1.2,5-1.8,7.5C206.2,30.3,207,30,207.7,29.6z"/>
	<path d="M215.6,30.9c0,0.4-0.1,0.9-0.2,1.3c-0.1,0.2-0.1,0.4-0.2,0.4c-1.4,1-1.1-1.7-1.1-2.5c-0.8,0.1-1.7,0.3-2.5,0.4
		c-0.3,0.7-0.8,1.4-1.1,2.1c-0.1,0.2-0.3,0.3-0.5,0.3c-0.2,0-0.4-0.1-0.4-0.3c0-0.1,0.1-0.2,0.1-0.3c0.2-0.8,0.5-1.6,0.8-2.4
		c1.5-3.4,2.3-5.3,4.1-8.4c0.1-0.3,0.4-0.4,0.7-0.4c0.3,0,0.5,0.2,0.4,0.5c0.1,2.2,0,4.5,0,6.7C215.6,29.1,215.6,30,215.6,30.9z
		 M212.2,29.1c0.6-0.1,1.3-0.2,1.9-0.2c0.1-1.5,0.1-3.1,0.3-4.6C213.5,26.2,212.9,27.5,212.2,29.1z"/>
	<path d="M222.4,31.3c0,0.4-0.3,1-1,0.9c-0.9-0.1-1.9-0.2-2.9,0c-0.9,0.1-1.4,0.5-1.8,0.5c-0.2,0-0.3-0.1-0.5-0.3
		c-0.1-0.1-0.1-0.2,0-0.3c0.1-0.4,0.4-0.7,0.6-1c2.2-3.1,4.4-6.2,6.7-9.3c-1.1,0.1-2.6,0.1-3.7,0.2c-0.4,0.1-0.6-0.3-0.4-0.7
		c0.3-0.4,0.6-0.4,1.1-0.4c1-0.1,2-0.2,2.9-0.2c0.4-0.1,0.6-0.1,0.8-0.1c0.7,0,0.9,0.3,0.8,0.7c-0.1,0.6-0.8,1.4-1.3,2.2
		c-1.8,2.5-3.5,5-5.3,7.5C219.2,30.8,222.4,30.5,222.4,31.3z"/>
	<path d="M230.3,20.7c0.2-0.2,0.5-0.2,0.7-0.2c0.2,0.1,0.3,0.2,0.2,0.4c-0.1,0.3-0.3,0.6-0.4,0.8c-1.3,2.7-2.9,5.6-4.2,8.4
		c-0.5,0.7-0.9,2.6-1.9,2.6l0,0c-1.1-0.3,0.4-2.2,0.6-2.9c0.5-1.1,1.1-2.1,1.6-3.2c-0.3-0.7-0.4-1.6-0.6-2.3
		c-0.2-1.1-0.5-2.2-0.4-3.3c0,0,0-0.1,0-0.1c0.1-0.2,0.3-0.4,0.6-0.4c0.4,0,0.4,0.3,0.5,0.6c0.4,1.1,0.6,2.4,1,3.6
		C228.8,23.2,229.4,22.1,230.3,20.7z"/>
	<path d="M235.1,22.5c-0.1,0-0.2-0.1-0.2-0.1c-0.1-0.1-0.1-0.2-0.1-0.4c0,0,0-0.1,0-0.1c0.1-0.4,0.6-0.5,1-0.7
		c0.4-0.2,0.8-0.3,1.2-0.4c0.3-0.1,0.7-0.1,1-0.1c0.1,0,0.1,0,0.2,0c1,0.1,1.6,0.8,1.4,0.6c0.1,0.1,0.1,0.2,0.2,0.2
		c0.2,0.3,0.3,0.6,0.4,1c0,0.4,0,0.8-0.1,1.3c0,0.1,0,0.1,0,0.2c-0.3,1.1-1,2.2-1.6,3.2c-0.3,0.4-0.6,0.9-0.9,1.3
		c-0.6,0.8-1.3,1.6-2,2.4c-0.3,0.4-0.6,0.7-1,1c-0.6,0.5-0.6,0.6-0.8,0.7c-0.1,0.1-0.1,0.1-0.1,0.1c-0.1,0.1-0.3,0.1-0.4,0.1
		c-0.2,0-0.3-0.1-0.4-0.2c0,0-0.1-0.1-0.1-0.1c-0.1-0.2,0-0.3,0.1-0.5c0-0.3,0.1-0.6,0.1-0.9c0.1-0.3,0.1-0.5,0.2-0.7
		c0.1-0.5,0.2-0.6,0.2-0.6c0.1-0.4,0.2-0.8,0.3-1.2c0.1-0.3,0.1-0.5,0.2-0.8c0.2-0.9,0.5-1.9,0.7-2.8c0.1-0.5,0.3-1,0.4-1.5
		c0.1-0.2,0.1-0.3,0.2-0.5C235,22.8,235,22.7,235.1,22.5z M234.3,30.3c0.1-0.1,0.3-0.2,0.4-0.4c0.3-0.3,0.5-0.5,0.6-0.6
		c0.4-0.5,0.2-0.2,0.6-0.7c0.3-0.3,0.5-0.6,0.7-0.9c0.6-0.8,0.9-1.3,1-1.4c0.2-0.4,0.5-0.7,0.7-1.1c0.2-0.5,0.4-0.9,0.5-1.4
		c0-0.1,0.1-0.7-0.1-1.3c-0.1-0.3-0.3-0.5-0.6-0.6c-0.2-0.1-0.5,0-0.7,0c-0.4,0.1-0.7,0.2-1.1,0.3c-0.2,0.8-0.1,0.4-0.2,1.2
		c-0.1,0.5-0.2,1-0.4,1.5c-0.3,0.9-0.5,1.9-0.7,2.8c-0.1,0.3-0.1,0.5-0.2,0.8c-0.1,0.5-0.3,1-0.4,1.4
		C234.4,30,234.4,30.1,234.3,30.3C234.4,30.2,234.4,30.3,234.3,30.3z"/>
	<path d="M242.8,21.4c0.5-0.4,1.1-0.6,1.5-0.6c0.9,0,1.7,0.6,1.9,1.3c0.3,0.9,0.3,2.4-0.1,3.9c-0.6,2.6-2,5.4-3.8,6.4
		c-0.3,0.2-0.6,0.2-0.9,0.2c-0.9,0-1.4-0.6-1.6-1.3c-0.4-1.3-0.2-2.8,0.1-4.2c0.2-0.6,0.3-1.3,0.5-1.9
		C240.8,23.9,241.5,22.4,242.8,21.4z M241.8,31.5c1.1,0.2,2.2-2.8,2.5-3.7c0.5-1.3,0.6-2.1,0.6-2.3c0.2-1.2,0.4-2.8-0.8-3.3
		c-0.9,0-1.9,1.8-2.1,2.6C241.6,26.3,240.1,30.9,241.8,31.5z"/>
	<path d="M250.6,26.8c0.9-0.3,1.4-0.7,1.9-0.3c0.1,0.1,0.1,0.2,0.1,0.3c0,0,0,0.1-0.1,0.1c-0.2,0.5-0.5,0.9-0.7,1.4
		c-0.8,1.3-2.4,4.5-4.1,4.5c-0.2,0-0.5-0.1-0.7-0.2c-0.5-0.4-0.6-1.3-0.6-2c-0.1-1.4,0.1-2.8,0.4-4.2c0.3-1,0.6-2.1,1-3.1
		c0.5-1.2,1.6-2.5,2.8-2.5c0.3,0,0.7,0.1,1,0.4c0.5,0.4,1,2.6,0.1,3.1c-0.4,0.2-0.9,0.1-0.9-0.3c0.1-0.7,0.1-1.6-0.5-1.8
		c-1.3,0.1-2.1,3.9-2.3,4.8c-0.2,1-0.4,2.4-0.3,3.3c0,0.3,0.2,1.2,0.6,0.6c0.9-0.9,1.6-2,2.2-3c-0.4,0.2-0.8,0.5-1.2,0.7
		c-0.3,0.3-0.3,0.4-0.7,0.4c-0.6,0-0.9-0.7-0.3-1.1C249.2,27.5,249.7,27.2,250.6,26.8z"/>
</g>
</svg>
