<?xml version="1.0" encoding="utf-8"?>
<!-- Generator: Adobe Illustrator 26.1.0, SVG Export Plug-In . SVG Version: 6.00 Build 0)  -->
<svg version="1.1" id="Layer_1" xmlns="http://www.w3.org/2000/svg" xmlns:xlink="http://www.w3.org/1999/xlink" x="0px" y="0px"
	 viewBox="0 0 372 36.9" style="enable-background:new 0 0 372 36.9;" xml:space="preserve">
<rect width="372" height="36.9" fill="white"/>
<g>
	<path d="M8.4,5.8C8.8,5.8,9,6.1,9,6.4C9,6.8,8.8,7.1,8.4,7C7.8,7,7.2,7,6.6,7C6.5,8.2,6,12.6,7.1,13.3c0.1-0.4,0.5-0.5,0.8-0.3
		c0.6,0.3,0.2,1-0.1,1.3c-0.2,0.2-0.5,0.3-0.7,0.3c-0.4,0-0.8-0.2-1-0.5C4.8,12.8,5.3,8.8,5.5,7C5.2,7,4.8,7.1,4.4,7.1
		c-0.3,0-0.5-0.3-0.5-0.6c0,0,0,0,0,0C3.9,6,4.6,6.1,5,6c0.2,0,0.5-0.1,0.7-0.1C5.8,5.1,6,4.3,6.1,3.5c0.1-0.3,0.1-0.6,0.4-0.7
		c0,0,0.1,0,0.1,0c0.5,0,0.5,0.5,0.4,0.9C6.9,4.4,6.8,5.1,6.7,5.8C7.1,5.8,8.1,5.8,8.4,5.8z"/>
	<path d="M12.9,6.2c1,0.1,1.6,1,2,1.8c0.5,1.3,0.6,2.3,0.6,3.4c0,0.5,0,1-0.1,1.6c-0.1,0.5-0.1,1.4-0.7,1.7c-0.1,0-0.1,0-0.2,0
		c-0.5,0-0.5-0.6-0.5-1.1c0-0.4,0-0.8,0.1-1.2c0.1-0.7,0.1-1.3,0.1-2.1c-0.1-0.8-0.4-2.9-1.3-2.8c-0.8,0.1-1,1.5-1.2,2.1
		c-0.3,1.2-0.5,3-0.5,4.3c0,0.4-0.4,0.7-0.8,0.5c-0.7-0.3-0.5-1.7-0.6-2.1c-0.1-1.1-0.2-2.2-0.2-3.3c0-0.1,0-0.2,0-0.4
		c0-1.3,0-2.7,0.1-4C9.7,4.5,9.6,3,10.4,3c0.1,0,0.1,0,0.2,0c0.5,0.2,0.2,1,0.2,1.3c-0.1,1.5-0.1,3-0.1,4.6
		C11.1,7.9,11.5,6.2,12.9,6.2z"/>
	<path d="M19.5,13.3c0.4-0.1,0.7-0.2,1-0.4c0.3-0.2,0.6,0,0.7,0.3c0.1,0.3-0.1,0.5-0.4,0.7c-0.4,0.3-0.8,0.5-1.3,0.6
		c-0.2,0.1-0.4,0.1-0.6,0.1c-1.3,0-2.3-1-2.5-1.6c-0.1-0.4-0.2-0.8-0.2-1.2c0-1,0.4-2,0.9-2.9c0.5-1,1.7-2.4,2.8-2.3
		c0.3,0,0.6,0.1,1,0.4c0.4,0.4,0.6,0.9,0.6,1.4c0,1.7-2.2,3.6-4,3.3C17.4,12.8,18.3,13.7,19.5,13.3z M20.2,7.8
		c-0.1-0.2-0.6-0.2-0.9,0.1c-0.4,0.4-0.9,1-1.1,1.4c-0.2,0.4-0.4,0.7-0.5,1.1C18.9,10.7,20.8,9,20.2,7.8z"/>
	<path d="M29.6,14.5c-0.1,0.6-0.1,1.1,0.1,1.7c0.1,0.6,0.8,0.6,1,0.1c0.2-0.3,0.1-0.8,0.4-1.1c0.3-0.2,0.8,0.2,0.8,0.4c0,0,0,0,0,0
		c0,0.1,0,0.3,0,0.4c-0.1,1.1-1,1.8-1.8,1.8c-1.1,0-2.1-1.1-1.8-3.7c-0.7,0.6-1.8,0.6-2.4-0.1c-0.6-0.7-0.9-1.5-0.9-2.4
		c0-0.9,0.2-1.8,0.5-2.5c0.5-1.1,1.1-2.1,2.3-2.4c0.2-0.1,0.4-0.1,0.6-0.1c0.7,0,1.5,0.5,1.6,1.3c0.5,0.2,0.2,1,0.2,1.3
		c-0.1,0.5-0.1,1-0.2,1.6C29.9,12,29.8,13.3,29.6,14.5z M28.8,7.6c-0.5-0.1-1,0.2-1.4,0.8c-0.6,1-1,2.1-1,3.2
		c0.1,0.9,0.2,1.4,0.7,1.6c1,0.2,1.4-1.2,1.6-1.8c0.4-1.1,0.5-2.2,0.6-3.3C29.1,8,29.1,7.7,28.8,7.6z"/>
	<path d="M32,12.6c-0.2-0.9-0.3-1.6-0.3-2.4c0-0.8,0.1-1.6,0.2-2.6C32,7.4,32,7,32.1,6.7c0-0.2,0.1-0.3,0.3-0.3c0,0,0.1,0,0.1,0
		c0.1,0,0.2,0,0.3,0.1c0.3,0.2,0.2,0.6,0.2,1c-0.1,0.4-0.1,0.7-0.1,1.1c-0.1,1.3-0.1,2.7,0.4,3.9c0.1,0.3,0.2,0.7,0.5,0.9
		c0.2,0.1,0.4,0,0.5,0c0.6-0.4,0.7-1.3,0.9-1.9c0.3-1.3,0.5-2.4,0.7-3.7C36,7.3,36,7,36.4,6.8c0.3-0.1,0.8,0,0.7,0.5
		c-0.3,2.4-0.4,4.5,0.5,6.2c0.1,0.1,0.1,0.2,0.1,0.3c0,0.3-0.2,0.6-0.6,0.6c-0.7,0.1-1-1.1-1.2-1.6c-0.4,1.2-1.2,1.8-1.9,1.8
		C33.2,14.6,32.4,13.9,32,12.6z"/>
	<path d="M39.6,13.2c0,0.4,0.2,1.1-0.2,1.4c-0.1,0.1-0.3,0.1-0.4,0.1c-0.5,0-0.6-0.9-0.6-1.4c-0.1-0.7-0.1-1.5-0.1-2.3
		c0-1.5,0.1-2.7,0.3-4.2c0.2-0.5,1-0.5,1,0.2C39.5,9.1,39.6,11.1,39.6,13.2z M39.1,5.1c-0.9,0-0.9-1.4,0-1.4c0.5,0,0.7,0.3,0.7,0.7
		S39.6,5.1,39.1,5.1z"/>
	<path d="M45.6,12.6c0.2,0.4-0.1,0.7-0.4,1c-0.7,0.7-1.5,1.1-2.2,1.1c-1.2,0-2.2-0.9-2.2-2.7c0-0.1,0-0.1,0-0.2
		c0-1.9,1.3-5.7,3.3-5.7c0.1,0,0.2,0,0.4,0c0.6,0.2,1.3,1.2,1.3,1.9c0,0.4-0.2,0.6-0.6,0.6c-0.6,0-0.4-1.1-0.8-1.4
		c-0.7-0.3-1,0.6-1.3,1.1c-0.6,1.1-1,2.2-0.9,3.5c0.1,2,1.6,1.7,2.6,0.5C44.9,12.1,45.4,12.2,45.6,12.6z"/>
	<path d="M48.8,10.7c0.1,0.1,0.2,0.2,0.4,0.2c0.5,0.4,0.9,0.8,1.2,1.2c0.2,0.2,0.3,0.5,0.5,0.7c0.1,0.2,0.2,0.5,0.3,0.9
		c0,0,0,0.1,0,0.1c0,0.2-0.1,0.3-0.2,0.4c-0.1,0.1-0.3,0.2-0.4,0.2c-0.4,0-0.6-0.4-0.8-0.7c-0.2-0.3-0.4-0.7-0.6-1
		c-0.2-0.2-0.3-0.4-0.5-0.6c-0.3-0.3-0.6-0.5-1.1-0.6c0,0.6,0,1.3,0.1,1.9c0,0.4,0.1,0.9-0.3,1.1c-0.1,0-0.2,0.1-0.3,0.1
		c-0.1,0-0.1,0-0.2,0c-0.3-0.1-0.4-0.4-0.4-0.5c-0.1-1.6-0.2-3.3-0.2-4.9c0-1.5,0.1-3,0.2-4.5c0-0.2-0.2-1.5,0.4-1.8
		c0.1,0,0.2-0.1,0.2-0.1c0.1,0,0.1,0,0.2,0c0,0,0.3,0.1,0.3,0.4c-0.1,1-0.1,2-0.1,3c0,1.2,0,2.2,0.1,3.5c0.4-0.3,0.8-0.7,1.2-1.1
		c0.2-0.2,0.4-0.5,0.5-0.7c0.4-0.7,0.4-1.2,0.4-1.3c0-0.2,0.1-0.3,0.3-0.4c0.1-0.1,0.3-0.1,0.4,0c0.3,0.1,0.3,0.4,0.3,0.4
		c-0.1,0.4-0.1,0.8-0.2,1.2c-0.1,0.3-0.2,0.5-0.3,0.8c-0.1,0.2-0.3,0.5-0.5,0.7c-0.2,0.2-0.4,0.4-0.6,0.6c-0.2,0.2-0.4,0.4-0.6,0.6
		C48.6,10.6,48.7,10.7,48.8,10.7z"/>
	<path d="M61,9.3C61,9.3,61,9.3,61,9.3c0,2.4-2.1,5.9-4.8,5.2c-0.1,0.1-0.3,0.2-0.4,0.2c-0.3,0-0.6-0.2-0.6-0.6
		C55,13.2,55,12.4,55,11.5c0-1.8,0.1-3.6,0.2-5.4c0.1-0.7,0.1-1.4,0.2-2.1c0-0.3,0-0.8,0.3-1c0.1,0,0.2-0.1,0.3-0.1
		c0.5,0,0.4,0.9,0.4,1.2c-0.1,1.5-0.1,3-0.1,4.5C58.1,6,60.7,5.8,61,9.3z M56.3,13.2c2.3,0.9,4.7-4.4,2.7-5.4
		c-1-0.1-2.5,2.2-2.7,3.1C56.3,11.7,56.3,12.4,56.3,13.2z"/>
	<path d="M65.9,7.2C66,7.3,66,7.4,66,7.5c0,0.2-0.1,0.4-0.3,0.5c-0.3,0.1-0.5-0.1-0.8-0.3c-1.5-0.7-2,3.5-2.1,4.4c0,0.5,0,1.1,0,1.6
		c0,0.3,0.1,0.5-0.2,0.7c-0.1,0.1-0.2,0.1-0.4,0.1c-0.1,0-0.2,0-0.2,0c-0.3-0.1-0.4-0.5-0.4-0.9c0-0.3,0-0.5,0-0.6
		c0-2.1-0.1-4.2,0.1-6.3c0.1-0.3,0.3-0.4,0.5-0.4c0.3,0,0.5,0.2,0.5,0.5c0,0.3,0,0.7,0,1C63.6,6.5,65.1,6.1,65.9,7.2z"/>
	<path d="M66.3,10.3C66.3,10.3,66.3,10.2,66.3,10.3c0-1.8,0.9-3.9,2.7-3.9c0.2,0,0.3,0,0.5,0.1C71.3,6.8,72,8.3,72,9.9
		c0,1.1-0.3,2.3-0.9,3.1c-0.6,1-1.4,1.6-2.3,1.6c-0.7,0-1.4-0.4-1.9-1.2c-0.4-0.8-0.5-1.7-0.4-2.6C66.4,10.7,66.3,10.5,66.3,10.3z
		 M68.1,13c1.5,1.5,2.9-2.2,2.7-3.3c0-1.2-1.3-2.7-2.4-2c-0.9,0.5-0.9,1.7-1,2.6C67.3,11.3,67.7,12.6,68.1,13z"/>
	<path d="M74.4,7.6c-0.2,1-0.4,1.9-0.4,2.9c0,1.1,0,1.4,0.3,2.2c0.4,0.8,0.6,0.4,0.7,0c0.3-0.6,0.5-1.2,0.7-1.9
		c0.1-0.4,0.1-0.8,0.5-1c0.5-0.2,0.8,0.2,0.9,0.7c0.2,0.7,0.4,2.4,0.9,2.8c0.5,0,0.5-0.7,0.6-1.1c0.3-1.4,0.2-3.8-0.3-4.9
		c-0.2-0.4,0.1-0.8,0.5-0.9c0.7-0.1,0.9,1.1,1.1,1.6c0.1,0.7,0.2,1.7,0.2,2.6c0,1.2-0.2,2.4-0.7,3.2c-1.1,1.3-2.5,0.3-2.9-1
		c-0.5,1.2-1.1,1.6-1.6,1.6c-1.1,0-2.1-1.6-2.1-3.3c0-0.1,0-0.1,0-0.2c0-1.3,0.2-2.4,0.6-3.7c0.1-0.3,0.2-1.1,0.7-1.2
		c0,0,0.1,0,0.1,0C74.7,6.3,74.5,7.2,74.4,7.6z"/>
	<path d="M85.9,9.4c0.1,1,0.3,2.1,0.3,3.1c0,0.5,0,0.9-0.1,1.4c-0.1,0.3-0.1,0.9-0.4,1c-0.1,0-0.1,0-0.1,0c-0.3,0-0.5-0.1-0.6-0.5
		c0-1.1,0-2.1,0-3.2c-0.1-0.9,0-3.2-1.2-3.2c-1.4,0.2-1.4,4.2-1.3,5.3c0,0.6,0.3,1.4-0.5,1.4c-0.6-0.1-0.6-1-0.7-1.3
		c-0.2-0.6-0.3-1.3-0.4-2c-0.1-0.9-0.2-1.8-0.2-2.7c0-0.2-0.1-0.4-0.1-0.6c0-0.3,0.1-0.5,0.3-0.6c0.5-0.2,0.7,0.2,0.7,0.6
		c0,0.4,0,0.7,0.1,1c0.5-1.6,1.3-2.4,2.1-2.4C84.7,6.7,85.7,7.7,85.9,9.4z"/>
	<path d="M93.5,2.8c0.1,0,0.1,0,0.2,0.1c0.8,0.2,1.1,1,1.3,1.8c0,0.2,0.1,0.5,0.1,0.8c0,0.3-0.1,0.5-0.3,0.6c-0.1,0.1-0.3,0.1-0.4,0
		c-0.2-0.1-0.3-0.2-0.3-0.4c0-0.5-0.2-1.8-0.8-1.7c-0.2,0-0.3,0.2-0.3,0.3c-0.4,0.9-0.4,1.9-0.5,2.8c0.5-0.1,1-0.1,1.4-0.2
		c0.2,0,0.4,0.1,0.5,0.3c0.2,0.6-0.2,1-0.7,1c-0.4,0-0.9,0.1-1.3,0.1c-0.1,1.7,0,3.3,0.1,5c0,0.4,0.2,1-0.2,1.2
		c-0.1,0.1-0.2,0.1-0.3,0.1c0,0-0.1,0-0.1,0c-0.5-0.1-0.5-0.7-0.5-1.1c-0.3-1.7-0.2-3.4-0.2-5.1c-0.2,0-0.4,0-0.7,0
		c-0.2,0-0.3-0.1-0.4-0.3C90,8.1,90,8,90,7.9c0-0.1,0-0.1,0-0.2c0.1-0.2,0.2-0.3,0.4-0.3c0.3-0.1,0.5-0.1,0.8-0.2
		C91.3,5.8,91.4,2.7,93.5,2.8C93.4,2.8,93.4,2.8,93.5,2.8z"/>
	<path d="M94.6,10.3C94.6,10.3,94.6,10.2,94.6,10.3c0-1.8,0.9-3.9,2.7-3.9c0.2,0,0.3,0,0.5,0.1c1.8,0.3,2.5,1.9,2.5,3.5
		c0,1.1-0.3,2.3-0.9,3.1c-0.6,1-1.4,1.6-2.3,1.6c-0.7,0-1.4-0.4-1.9-1.2c-0.4-0.8-0.5-1.7-0.4-2.6C94.7,10.7,94.6,10.5,94.6,10.3z
		 M96.4,13c1.5,1.5,2.9-2.2,2.7-3.3c0-1.2-1.3-2.7-2.4-2c-0.9,0.5-0.9,1.7-1,2.6C95.7,11.3,96,12.6,96.4,13z"/>
	<path d="M105.3,6.4c0.1-0.2,0.2-0.2,0.4-0.2c0.2,0,0.3,0.1,0.4,0.2c0,0,0.1,0.1,0.1,0.3c0,0.1,0,0.1-0.1,0.2
		c-0.3,0.6-0.6,1.2-1,1.7c-0.4,0.7-0.7,1.3-1.1,2c0.4,0.8,1.4,2.3,1.7,3c0.2,0.3,0,0.7-0.4,0.8c-0.1,0-0.3,0.1-0.6-0.2
		c-0.6-0.7-1.1-1.5-1.5-2.4c-0.4,0.7-0.8,1.4-1,2.2c-0.1,0.4-0.4,0.6-0.7,0.6c-0.1,0-0.3-0.1-0.4-0.1c-0.2-0.1-0.2-0.3-0.2-0.5
		c0-0.4,0.3-0.8,0.4-1.1c0.4-0.9,0.8-1.7,1.3-2.6c-0.4-0.9-1.9-3.4-1.4-4.2c0.4-0.4,0.8,0.1,1,0.5c0.4,0.8,0.8,1.7,1.1,2.5
		C104,8.4,104.8,7.3,105.3,6.4z"/>
	<path d="M110.7,17.3c-0.4-0.2-0.7-0.6-0.7-1c0-0.3,0.2-0.5,0.6-0.6c0.8-0.1,0.6,1.2,1.5,0.1c0.8-2.3,0.5-5,0.4-7.4
		c0-0.5-0.4-1.3,0.2-1.7c0.5-0.2,0.9,0.2,0.9,0.5c0.1,1,0.4,3.3,0.4,5.4c0,2.5-0.5,4.9-2.3,4.9C111.3,17.5,111,17.4,110.7,17.3z
		 M112.7,3.7c0.9,0,0.9,1.4,0,1.4S111.8,3.7,112.7,3.7z"/>
	<path d="M115.6,12.6c-0.2-0.9-0.3-1.6-0.3-2.4c0-0.8,0.1-1.6,0.2-2.6c0.1-0.3,0.1-0.6,0.1-0.9c0-0.2,0.1-0.3,0.3-0.3
		c0,0,0.1,0,0.1,0c0.1,0,0.2,0,0.3,0.1c0.3,0.2,0.2,0.6,0.2,1c-0.1,0.4-0.1,0.7-0.1,1.1c-0.1,1.3-0.1,2.7,0.4,3.9
		c0.1,0.3,0.2,0.7,0.5,0.9c0.2,0.1,0.4,0,0.5,0c0.6-0.4,0.7-1.3,0.9-1.9c0.3-1.3,0.5-2.4,0.7-3.7c0.1-0.3,0.1-0.7,0.5-0.8
		c0.3-0.1,0.8,0,0.7,0.5c-0.3,2.4-0.4,4.5,0.5,6.2c0.1,0.1,0.1,0.2,0.1,0.3c0,0.3-0.2,0.6-0.6,0.6c-0.7,0.1-1-1.1-1.2-1.6
		c-0.4,1.2-1.2,1.8-1.9,1.8C116.7,14.6,115.9,13.9,115.6,12.6z"/>
	<path d="M129.9,8.3c0.3,1.1,0.4,2.2,0.4,3.3c0,0.9-0.1,1.9-0.3,2.8c-0.1,0.2-0.3,0.3-0.5,0.3c-0.3,0-0.7-0.2-0.6-0.6
		c0.1-1.9,0.2-3.8-0.2-5.6c-0.1-0.4-0.2-0.5-0.6-0.6c-0.7,0.3-0.8,1.2-1,1.9c-0.1,0.5-0.2,1-0.2,1.5c0,0.3,0.1,0.6-0.3,0.8
		c-1.1,0.5-1-1-1.1-1.6c-0.1-0.3-0.4-1.5-0.4-1.5c-0.1-0.3-0.2-1.4-0.7-1.2c-1,0.5-0.9,3.8-0.8,4.8c0,0.6,0.1,1,0.2,1.6
		c-0.1,0.3-0.4,0.5-0.7,0.4c-0.5-0.2-0.5-0.9-0.5-1.4c-0.2-1.5-0.4-3.1-0.6-4.6c-0.1-0.2-0.1-0.5-0.1-0.8c0-0.3,0.1-0.6,0.6-0.6
		c0.5,0.1,0.4,0.7,0.5,1c0.2-0.8,0.8-1.7,1.7-1.7c0.1,0,0.2,0,0.4,0.1c0.7,0.4,1,1.2,1.3,1.9C127,6.2,129.2,6,129.9,8.3z"/>
	<path d="M135.1,7.4c0.9,0.8,1.3,2,1.5,3.2c0,0.2,0.1,0.4,0.1,0.6c0,2.5-2.3,4.5-4.4,2.6c0,1.3,0.1,2.3,0,3.6c0,0.2-0.1,0.3-0.3,0.4
		c-0.1,0.1-0.2,0.1-0.3,0.1c-0.2,0-0.5-0.2-0.5-0.4c-0.2-1-0.2-2-0.2-3c0-1.2,0.1-2.4,0.1-3.6c0-0.6,0-1.2,0-1.8
		c0-0.2,0-0.5,0.2-0.7c0,0,0,0,0,0c0.5-1.1,1.3-1.8,2.1-1.8C133.9,6.6,134.5,6.9,135.1,7.4z M132.7,12.3c0.2,0.4,0.9,1,1.3,1
		c0.4,0.1,0.8-0.2,1-0.6c0.6-1,0.4-1.6,0.3-2.6c-0.2-1.4-1.9-3.6-3.1-1.5c0.1,0.8,0,1.6,0,2.4C132.3,11.3,132.6,12.1,132.7,12.3z"/>
	<path d="M138.3,13.3c-0.2-0.3,0-0.7,0.3-0.8c0.5-0.1,0.9,0.5,1.3,0.7c0.4,0.2,1,0.5,1.3,0.1c0.4-0.6-0.4-1-0.8-1.3
		c-0.7-0.4-1.3-0.8-2-1.3c-0.9-0.6-1.2-1.3-1.2-1.9c0-1.2,1.4-2.3,3.1-2.4c0.7,0,1.4,0.1,1.8,0.6c0.4,0.3,0.5,1-0.1,1.1
		c-0.3,0.1-0.5-0.2-0.6-0.4c-0.2-0.2-0.3-0.2-0.6-0.3c-0.9-0.1-2.1,0.5-2.4,1.1c-0.2,1.4,3.6,2.3,4,3.8c0.1,0.3,0.1,0.5,0.1,0.7
		c0,1.1-0.8,1.6-1.8,1.6C139.8,14.7,138.7,14.2,138.3,13.3z"/>
	<path d="M146.3,10.3C146.3,10.3,146.3,10.2,146.3,10.3c0-1.8,0.9-3.9,2.7-3.9c0.2,0,0.3,0,0.5,0.1c1.8,0.3,2.5,1.9,2.5,3.5
		c0,1.1-0.3,2.3-0.9,3.1c-0.6,1-1.4,1.6-2.3,1.6c-0.7,0-1.4-0.4-1.9-1.2c-0.4-0.8-0.5-1.7-0.4-2.6C146.4,10.7,146.3,10.5,146.3,10.3
		z M148.2,13c1.5,1.5,2.9-2.2,2.7-3.3c0-1.2-1.3-2.7-2.4-2c-0.9,0.5-0.9,1.7-1,2.6C147.4,11.3,147.8,12.6,148.2,13z"/>
	<path d="M157.2,6.6c0.1-0.1,0.2-0.2,0.4-0.2c0.3,0,0.6,0.3,0.6,0.7c0,0.1,0,0.2-0.1,0.2c-0.4,1-0.9,2-1.3,3c-0.3,1-0.7,1.9-0.9,2.9
		c-0.1,0.4-0.2,1.4-0.8,1.4c-0.1,0-0.2,0-0.2-0.1c-0.3-0.1-0.4-0.3-0.4-0.4c-0.5-1.9-1.5-5.4-2-7c0-0.1,0-0.1,0-0.2
		c0-0.3,0.3-0.5,0.6-0.5c0.5,0.1,0.6,0.7,0.7,1.1c0.5,1.4,0.9,2.8,1.4,4.1C155.7,10,156.3,8.3,157.2,6.6z"/>
	<path d="M161.4,13.3c0.4-0.1,0.7-0.2,1-0.4c0.3-0.2,0.6,0,0.7,0.3c0.1,0.3-0.1,0.5-0.4,0.7c-0.4,0.3-0.8,0.5-1.3,0.6
		c-0.2,0.1-0.4,0.1-0.6,0.1c-1.3,0-2.3-1-2.5-1.6c-0.1-0.4-0.2-0.8-0.2-1.2c0-1,0.4-2,0.9-2.9c0.5-1,1.7-2.4,2.8-2.3
		c0.3,0,0.6,0.1,1,0.4c0.4,0.4,0.6,0.9,0.6,1.4c0,1.7-2.2,3.6-4,3.3C159.3,12.8,160.2,13.7,161.4,13.3z M162.2,7.8
		c-0.1-0.2-0.6-0.2-0.9,0.1c-0.4,0.4-0.9,1-1.1,1.4c-0.2,0.4-0.4,0.7-0.5,1.1C160.9,10.7,162.8,9,162.2,7.8z"/>
	<path d="M168.2,7.2c0.1,0.1,0.1,0.2,0.1,0.4c0,0.2-0.1,0.4-0.3,0.5c-0.3,0.1-0.5-0.1-0.8-0.3c-1.5-0.7-2,3.5-2.1,4.4
		c0,0.5,0,1.1,0,1.6c0,0.3,0.1,0.5-0.2,0.7c-0.1,0.1-0.2,0.1-0.4,0.1c-0.1,0-0.2,0-0.2,0c-0.3-0.1-0.4-0.5-0.4-0.9
		c0-0.3,0-0.5,0-0.6c0-2.1-0.1-4.2,0.1-6.3c0.1-0.3,0.3-0.4,0.5-0.4c0.3,0,0.5,0.2,0.5,0.5c0,0.3,0,0.7,0,1
		C165.9,6.5,167.5,6.1,168.2,7.2z"/>
	<path d="M176.6,5.8c0.4,0,0.6,0.3,0.6,0.6c0,0.3-0.2,0.6-0.6,0.6C176,7,175.3,7,174.7,7c-0.1,1.2-0.5,5.6,0.5,6.3
		c0.1-0.4,0.5-0.5,0.8-0.3c0.6,0.3,0.2,1-0.1,1.3c-0.2,0.2-0.5,0.3-0.7,0.3c-0.4,0-0.8-0.2-1-0.5c-1.3-1.3-0.7-5.2-0.5-7.1
		c-0.4,0-0.8,0.1-1.1,0.1c-0.3,0-0.5-0.3-0.5-0.6c0,0,0,0,0,0c0-0.4,0.7-0.4,1-0.5c0.2,0,0.5-0.1,0.7-0.1c0.1-0.8,0.3-1.6,0.4-2.4
		c0.1-0.3,0.1-0.6,0.4-0.7c0,0,0.1,0,0.1,0c0.5,0,0.5,0.5,0.4,0.9c-0.1,0.7-0.2,1.4-0.3,2.1C175.3,5.8,176.3,5.8,176.6,5.8z"/>
	<path d="M181.1,6.2c1,0.1,1.6,1,2,1.8c0.5,1.3,0.6,2.3,0.6,3.4c0,0.5,0,1-0.1,1.6c-0.1,0.5-0.1,1.4-0.7,1.7c-0.1,0-0.1,0-0.2,0
		c-0.5,0-0.5-0.6-0.5-1.1c0-0.4,0-0.8,0.1-1.2c0.1-0.7,0.1-1.3,0.1-2.1c-0.1-0.8-0.4-2.9-1.3-2.8c-0.8,0.1-1,1.5-1.2,2.1
		c-0.3,1.2-0.5,3-0.5,4.3c0,0.4-0.4,0.7-0.8,0.5c-0.7-0.3-0.5-1.7-0.6-2.1c-0.1-1.1-0.2-2.2-0.2-3.3c0-0.1,0-0.2,0-0.4
		c0-1.3,0-2.7,0.1-4c0-0.3-0.2-1.8,0.6-1.8c0.1,0,0.1,0,0.2,0c0.5,0.2,0.2,1,0.2,1.3c-0.1,1.5-0.1,3-0.1,4.6
		C179.2,7.9,179.7,6.2,181.1,6.2z"/>
	<path d="M187.6,13.3c0.4-0.1,0.7-0.2,1-0.4c0.3-0.2,0.6,0,0.7,0.3c0.1,0.3-0.1,0.5-0.4,0.7c-0.4,0.3-0.8,0.5-1.3,0.6
		c-0.2,0.1-0.4,0.1-0.6,0.1c-1.3,0-2.3-1-2.5-1.6c-0.1-0.4-0.2-0.8-0.2-1.2c0-1,0.4-2,0.9-2.9c0.5-1,1.7-2.4,2.8-2.3
		c0.3,0,0.6,0.1,1,0.4c0.4,0.4,0.6,0.9,0.6,1.4c0,1.7-2.2,3.6-4,3.3C185.5,12.8,186.5,13.7,187.6,13.3z M188.4,7.8
		c-0.1-0.2-0.6-0.2-0.9,0.1c-0.4,0.4-0.9,1-1.1,1.4c-0.2,0.4-0.4,0.7-0.5,1.1C187.1,10.7,189,9,188.4,7.8z"/>
	<path d="M195.1,14.6c-0.1,0-0.1,0-0.1,0c-1.3,0-1.7-2.2-1.7-4.6c0-2.9,0.5-6.2,0.5-6.7c0-0.3,0.2-0.4,0.5-0.4
		c0.2,0,0.3,0.1,0.4,0.3c0.1,0.8-0.1,1.6,0,2.4c0,2.6-0.3,5.3,0.4,7.9c0.4,0,0.5,0.3,0.5,0.6C195.5,14.4,195.4,14.6,195.1,14.6z"/>
	<path d="M200.2,7.6c-0.7,0.3-1.5,0.7-2.1,1.2c-0.4,0.3-0.3,0.2-0.5,0.4c-0.3,0.1-0.5-0.1-0.6-0.4c-0.1-0.7,1.6-1.4,2.1-1.8
		c0.5-0.4,1-0.5,1.3-0.5c1.1,0,1.4,1.5,1.5,2.9c0,0.5,0.2,2.4,0.2,3.1c0.3,0,0.5,0.3,0.5,0.6c0,0.3-0.1,0.5-0.4,0.6
		c0,0.3,0.1,0.8-0.3,1c-0.4,0.2-0.9,0-1-0.4c-1.2,0.5-2.2,0.7-2.9,0.7c-1.3,0-1.9-0.8-1.9-1.7c0-1.7,1.9-4.1,4-3.3
		c0.2,0.1,0.4,0.2,0.6,0.4C200.7,9.8,200.7,7.7,200.2,7.6z M197.7,13.5c0.9,0.4,2.2-0.4,3.1-0.6c-0.5-2.9-3-2.2-3.4,0.2
		C197.4,13.3,197.7,13.5,197.7,13.5z"/>
	<path d="M208.4,13.1c0.1,0.1,0.1,0.3,0.1,0.4c0,0.3-0.2,0.5-0.4,0.5c-1.2,0.2-2.8,0.3-3.8,0.7c-0.1,0-0.1,0-0.2,0
		c-0.1,0-0.2,0-0.3-0.1c-0.3-0.2-0.4-0.6-0.2-0.9c0.5-1,0.9-2,1.4-2.9c0.6-1.2,1.1-2.2,1.7-3.4c-0.8,0-1.7,0-2.5,0.1
		c-0.5,0.1-1,0.1-1-0.5c0,0,0,0,0,0c0.1-0.5,0.6-0.4,1-0.5c0.4-0.1,0.8-0.1,1.3-0.1c0.4,0,0.9-0.1,1.3-0.1c0.7,0,0.8,0,1,0
		c0.2,0,0.3,0.1,0.4,0.2c0.2,0.2,0.2,0.4,0.1,0.7c-0.9,2-1.8,4-2.7,5.9C206,13,208,12.5,208.4,13.1z"/>
	<path d="M209.6,12.9c-0.3-0.8-0.4-1.5-0.4-2.2c0-1.3,0.3-2.5,0.5-4c0.1-0.6,1-0.4,0.9,0.2c-0.2,1.6-0.4,3.4,0,5
		c1,2.3,2-0.2,2.3-1.4c0.2-0.9,0.3-1.9,0.3-2.8c0.1-0.5-0.1-1.1,0.3-1.3c0.1-0.1,0.2-0.1,0.3-0.1c0.7,0,0.6,1.2,0.6,1.8
		c0.1,0.9,0.1,1.7,0.2,2.5c0,0.6,0.1,1.6,0.1,2.5c0,1.7-0.2,3.5-1,4.3c-0.3,0.2-0.6,0.3-1,0.3c-0.6,0-1.2-0.2-1.6-0.5
		c-0.6-0.4-1-0.5-0.9-1c0.1-0.5,0.7-0.6,0.9-0.4c0.2,0.1,0.4,0.2,0.6,0.3c0.4,0.2,1.2,0.5,1.4-0.1c0.4-1.1,0.4-2.4,0.4-3.5
		C212.7,14.6,210.7,15,209.6,12.9z"/>
	<path d="M224.1,3.4c0,0,0-0.1,0-0.1c0.1-0.2,0.3-0.3,0.5-0.3c0.2,0,0.4,0.2,0.4,0.5c-0.1,0.8-0.2,1.7-0.2,2.5
		c-0.1,1.4-0.1,2.9-0.2,4.3c0,0.4-0.1,1.1-0.1,1.5c0,0.9,0.1,1.8-0.2,2.6c-0.1,0.3-0.3,0.5-0.5,0.5c-0.1,0-0.1,0-0.2,0
		c-0.6-0.2-0.5-1.3-0.5-1.8c-0.9,1.2-2.9,2.7-4,0.7c-0.3-0.5-0.4-1.1-0.4-1.7c0-2.7,2.3-5.9,4.9-5.1C223.8,5.9,224,4.2,224.1,3.4z
		 M220,12.6c0.7,2.4,3.1-1.1,3.3-2.2c0.1-0.8,0.1-1.6,0.2-2.3c-0.8-0.3-1.6-0.1-2.2,0.5C220.1,9.6,219.7,11.6,220,12.6z"/>
	<path d="M225.4,10.3C225.4,10.3,225.4,10.2,225.4,10.3c0-1.8,0.8-3.9,2.7-3.9c0.2,0,0.3,0,0.5,0.1c1.8,0.3,2.5,1.9,2.5,3.5
		c0,1.1-0.3,2.3-0.9,3.1c-0.6,1-1.4,1.6-2.3,1.6c-0.7,0-1.4-0.4-1.9-1.2c-0.4-0.8-0.5-1.7-0.4-2.6C225.5,10.7,225.4,10.5,225.4,10.3
		z M227.3,13c1.5,1.5,2.9-2.2,2.7-3.3c0-1.2-1.3-2.7-2.4-2c-0.9,0.5-0.9,1.7-1,2.6C226.5,11.3,226.9,12.6,227.3,13z"/>
	<path d="M237.7,8.9c0.1,1.5,0.1,3,0.1,4.6c0,0.3,0,0.6,0,0.8c0,1.8-0.5,3.2-2,3.2c-0.4,0-1-0.1-1.6-0.4c-0.9-0.5-1.3-0.6-1-1.4
		c0.2-0.2,0.5-0.2,0.5-0.1c3.2,1.4,2.8-0.1,2.7-2.7c-1.7,2.7-4.6,1.3-4.6-1.4c0-0.2,0-0.3,0-0.5c0.2-1.7,0.9-3.5,2.5-4.2
		c0.4-0.2,0.8-0.2,1.2-0.2c0.7,0,1.4,0.3,1.9,0.9C237.9,7.7,237.6,8.4,237.7,8.9z M233.1,11.3c0,1.4,1,2.4,2,1.5
		c1.1-1.4,1.4-3.3,1.4-5C234.5,6.6,233.1,9.6,233.1,11.3z"/>
	<path d="M9.1,20.6c0.2,0,0.4-0.1,0.7-0.1c0.2,0,0.4,0.1,0.5,0.2c0,0.1,0.1,0.2,0.1,0.3c0,0.2-0.1,0.4-0.5,0.5
		c-0.8,0.1-1.7,0.2-2.5,0.3c0,0.7,0,1.3,0,2c0,1.7,0,3.4,0.2,5.1c0.1,0.9,0.2,1.7,0.2,2.5c0.1,0.5,0,1.2-0.5,1.2c-0.1,0-0.1,0-0.2,0
		c-1.2,0.1-0.7-9.1-0.7-10.1c0-0.2,0-0.3,0-0.5c-0.1,0-0.2,0-0.2,0c-0.3,0.1-1,0.3-1.5,0.4c-0.2,0.1-0.3,0.1-0.5,0.1
		c-0.2-0.1-0.2-0.2-0.2-0.4c0,0,0-0.1,0-0.1c0.1-0.3,0.3-0.3,0.5-0.4C5,21.3,5.6,21.1,6.2,21C7.2,20.9,8.2,20.7,9.1,20.6z"/>
	<path d="M15.3,21.4c0.1-0.3,0.4-0.4,0.6-0.4c0.2,0.1,0.3,0.2,0.3,0.3c0,0,0,0,0,0c-0.1,1.3-0.2,2.5-0.2,3.8c-0.2,2,0.1,4.1-0.2,6.1
		c-0.1,0.3-0.5,0.5-0.8,0.4c-0.9-0.2-0.3-3.6-0.3-4.4c-1,0.1-1.9,0.2-2.9,0.4c0,1.3,0.1,2.6,0.1,3.9c0,0.4,0.1,0.9-0.3,1.1
		c-0.1,0.1-0.2,0.1-0.3,0.1c-0.3,0-0.7-0.3-0.6-0.5c-0.1-1-0.1-1.9-0.1-2.9c0-2.1,0.2-4.3,0.5-6.4c0-0.1-0.1-1.9,0.6-1.9
		c0.1,0,0.1,0,0.1,0c0.2,0,0.3,0.3,0.2,0.4c-0.2,1.9-0.3,3.8-0.3,5.6c1-0.2,2-0.3,3-0.5C14.9,25,15.1,22.8,15.3,21.4z"/>
	<path d="M19.7,30.4c0.5-0.4,1.1-0.5,1.4,0.1c0.2,0.7-1,1-1.4,1.3c-0.5,0.2-1.3,0.8-1.8,0.8c-0.1,0-0.2,0-0.3-0.1
		c-0.3-0.3-0.2-0.9-0.2-1.2c0-0.6,0-1.1,0-1.7c0-2.5,0-5,0.3-7.4c0,0,0,0,0,0c-0.4-0.6,0.4-0.9,0.8-1c0.5-0.2,1.3-0.5,2-0.5
		c0.2,0,0.4,0,0.6,0.1c0.3,0.1,0.4,0.6,0.2,0.7c-0.3,0.3-0.7,0.2-1.1,0.3c-0.5,0.1-1,0.3-1.5,0.4c-0.1,1.8-0.1,3.5-0.1,5.2
		c0.5-0.2,1-0.5,1.5-0.7c0.3-0.2,1-0.4,1.2-0.2c0.2,0.1,0.3,0.3,0.3,0.5c0,0.1-0.1,0.2-0.1,0.3c-0.3,0.3-0.7,0.4-1.1,0.5
		c-0.6,0.3-1.2,0.5-1.8,0.8c0,0.8,0,1.5,0,2.3C18.9,30.8,19.3,30.6,19.7,30.4z"/>
	<path d="M31.4,31.8c0,0.1,0,0.1,0,0.2c0,0.4-0.4,0.5-0.8,0.2c-0.3-0.3-0.6-0.7-0.8-1.1c-0.5,1-1.2,1.4-1.9,1.4c-1,0-2-1-2.3-2.4
		c-0.3-0.9-0.4-2.1-0.4-3.2c0-0.5,0-1,0.1-1.5c0-1.2,0.3-2.4,0.8-3.4c0.4-0.8,1.2-1.3,2-1.3c0.5,0,0.9,0.2,1.3,0.5
		c1,0.8,1.3,2.1,1.4,3.4c0.1,1.5,0.1,3.1-0.3,4.6c-0.2,0.7-0.1,0.4-0.2,0.7c0.1,0.2,0.3,0.4,0.4,0.6C31,30.9,31.2,31.3,31.4,31.8z
		 M27.3,31c0.9,1,1.5,0.1,1.9-0.9c-0.4-0.6-0.9-1.3-1.3-2c-0.3-0.5,0.3-1.2,0.8-0.7c0.3,0.4,0.6,0.9,0.9,1.2
		c0.4-1.5,0.4-3.3,0.1-4.9c-0.3-1.1-0.8-1.9-1.5-2c-1,0-1.6,1.9-1.6,2.7C26.4,26.5,26.2,29.4,27.3,31z"/>
	<path d="M35.3,30.7c0.3-0.7,0.4-1.5,0.6-2.2c0.4-2.4,0.5-4.8,0.5-7.2c0-0.2,0.1-0.3,0.3-0.4c0.1,0,0.2-0.1,0.3-0.1
		c0.1,0,0.1,0,0.2,0c0.3,0.1,0.4,0.3,0.4,0.4c0,0.7,0,1.3,0,2c0,0.9,0,1.8-0.1,2.7c-0.2,1.8-0.4,3.5-0.9,5.1
		c-0.1,0.2-0.1,0.3-0.2,0.5c-0.2,0.4-0.5,0.8-0.9,1c-0.2,0.1-0.4,0.1-0.6,0.1c0,0,0,0,0,0c-0.5,0-1-0.3-1.3-0.7
		c-0.1-0.1-0.2-0.3-0.3-0.4c0-0.1-0.2-0.3-0.3-0.5c-0.1-0.3-0.2-0.6-0.3-1c-0.1-0.2-0.1-0.4-0.1-0.7c-0.3-2.3-0.4-4.6-0.4-6.9
		c0-0.2,0-0.4,0-0.5c0-0.2,0-0.3,0-0.4c0-0.3,0.1-0.5,0.3-0.6c0.1-0.1,0.3-0.1,0.4,0c0.5,0.1,0.3,0.7,0.3,1.1c0,1.1,0,2.1,0,3.2
		c0.1,1,0.2,2,0.3,3c0.1,0.4,0.1,0.8,0.2,1.2c0.1,0.5,0.2,0.6,0.3,0.9c0.1,0.2,0.2,0.4,0.3,0.6c0.4,0.7,0.6,0.8,1,0.1
		C35.3,30.9,35.3,30.8,35.3,30.7z"/>
	<path d="M40.2,32.1c0,0.3-0.3,0.5-0.6,0.6c-0.2,0-0.4-0.1-0.5-0.4c-0.2-1.5-0.3-2.9-0.3-4.4c0-1.8,0.1-3.5,0.2-5.3
		c0.1-1.2-0.1-1.4,0.4-1.8c0.1,0,0.2-0.1,0.3-0.1c0.2,0,0.4,0.1,0.5,0.5c0,0.8-0.1,1.6-0.1,2.5c0,0.7,0,2.6,0,2.9
		c0,1.5,0.2,3.2,0.2,4.7C40.3,31.6,40.3,31.8,40.2,32.1z"/>
	<path d="M46.9,29.9c0.1,0.1,0.2,0.3,0.2,0.4c0,0.1,0,0.1,0,0.2c-0.3,0.9-1,1.6-1.9,1.9c-0.3,0.1-0.6,0.2-1,0.2
		c-2.2,0-3.2-2.8-3.2-5c0-2.1,0.4-4.7,1.9-6.3c0.4-0.3,0.8-0.5,1.3-0.5c0.7,0,1.3,0.4,1.8,1c0.4,0.6,0.6,1,0.7,1.3
		c0,0.2-0.2,0.4-0.4,0.5c-0.3,0-0.4-0.3-0.5-0.5c-0.3-0.7-0.9-1.6-1.8-1.3c-0.5,0.2-0.7,0.9-1,1.4c-0.7,1.9-1,4-0.6,6
		c0.4,2.1,2.3,3.5,3.5,1C46.1,29.7,46.6,29.7,46.9,29.9z"/>
	<path d="M52.7,29.8c0.4,0.2,0.6,0.4,0.6,0.7c0,0.4-0.4,0.8-1,0.5c-1-0.6-1.9-1.3-2.9-2c0,1,0.1,2,0.1,3c0,0.4-0.3,0.7-0.6,0.7
		c-0.2,0-0.4-0.1-0.6-0.4c-0.3-1.5-0.1-3-0.2-4.5c0-0.7,0-1.6,0-2.5c0-1.5,0-3,0.2-4.1c0.1-0.4,0.8-0.4,0.8-0.1
		c0.2,1.6,0.2,3.4,0.3,5.1c0.8-1.7,1.9-3.8,2.7-5.4c0.1-0.2,0.3-0.3,0.4-0.3c0.2,0,0.3,0.1,0.4,0.2c0.1,0.2,0,0.4,0,0.4
		c-1,2.3-1.9,4.6-3,6.9C50.7,28.4,51.7,29.2,52.7,29.8z"/>
	<path d="M60.4,26.5C60.4,26.5,60.4,26.5,60.4,26.5c0.5,0.1,0.8,0.2,1.1,0.4c0.3,0.2,0.5,0.4,0.7,0.6c0.3,0.4,0.4,0.8,0.4,1.2
		c0,0.3-0.1,0.7-0.2,1c-0.2,0.4-0.5,0.8-0.8,1.2c-0.5,0.5-1.1,1-1.7,1.3c-0.2,0.1-0.4,0.2-0.7,0.3c-0.3,0.1-0.5,0.1-0.8,0.1
		c-0.1,0-0.1,0-0.2,0c0,0-0.1,0-0.1,0c-0.1,0-0.2-0.1-0.3-0.1c-0.1-0.1-0.2-0.2-0.2-0.3c0,0,0,0,0,0c0,0,0,0,0-0.1
		c0-0.1-0.1-0.1-0.1-0.1c0,0,0-0.1,0-0.1c0,0,0-0.1,0-0.1c-0.2-2.2-0.3-4.4-0.3-6.7c0-0.7,0-1.3,0-2c0,0-0.1,0-0.1,0
		c-0.1,0-0.1-0.1-0.1-0.1c0-0.1,0-0.1,0-0.1c0-0.1,0.1-0.2,0.1-0.3c0.1-0.1,0.1-0.2,0.2-0.2c0-0.3,0-0.5,0.1-0.9
		c0-0.1,0.1-0.2,0.2-0.3c0.1-0.1,0.2-0.1,0.3,0c0.1,0,0.2,0.1,0.2,0.3c0.1-0.1,0.3-0.2,0.5-0.3c0.1-0.1,0.3-0.1,0.4-0.2
		c0.4-0.2,0.8-0.3,1.3-0.3c0,0,0.1,0,0.1,0c0.3,0,0.5,0.1,0.8,0.2c0.4,0.3,0.5,0.7,0.6,0.9c0.1,0.5,0.1,0.9,0,1.4
		c-0.1,0.4-0.3,0.9-0.4,1.3c-0.4,0.7-0.6,1.2-1.1,1.8C60.3,26.5,60.3,26.5,60.4,26.5z M58.9,26.5c0.3-0.4,0.6-0.7,0.8-1.1
		c0.6-1,0.7-1.5,0.9-1.9c0.1-0.2,0-0.1,0.1-0.3c0-0.2,0.1-0.3,0.1-0.5c0-0.3,0-0.5-0.2-0.7c0-0.1-0.1-0.1-0.1-0.1
		c-0.1,0-0.1-0.1-0.2-0.1c-0.1,0-0.1,0-0.2,0c-0.1,0-0.1,0-0.2,0c-0.3,0.1-0.5,0.1-0.8,0.2c-0.1,0.1-0.3,0.1-0.4,0.2
		c-0.2,0.1-0.4,0.3-0.6,0.4c0.1,1.3,0.1,3.5,0.2,4.6C58.8,26.7,58.6,26.9,58.9,26.5z M59.1,31.5c0.2-0.1,0.3-0.2,0.4-0.2
		c0.3-0.2,0.5-0.4,0.7-0.5c0.3-0.3,0.2-0.2,0.4-0.4c0.2-0.2,0.4-0.4,0.5-0.7c0.3-0.6,0.4-1.3,0-1.8c-0.2-0.2-0.4-0.3-0.6-0.4
		c-0.3-0.1-0.6-0.1-0.9-0.1c-0.2,0.2-0.3,0.4-0.5,0.6c-0.2,0.2-0.4,0.4-0.5,0.5c0,0,0,0,0,0c0,0,0,0,0,0c0.1,1.1,0.2,2.1,0.2,3.2
		C58.8,31.6,59,31.5,59.1,31.5z"/>
	<path d="M67.9,30.3c0.3,0.3,0.4,0.6,0,0.8c-0.7,0.3-2.4-1-3-1.4c-0.1-0.1-0.2-0.1-0.3-0.2c0.1,0.6,0.1,1.2,0.1,1.9
		c0,0.4,0.1,0.8-0.2,1.1c-0.2,0.1-0.3,0.1-0.4,0.1c-0.4,0-0.5-0.5-0.5-0.9c-0.2-1.2-0.3-2.4-0.3-3.6c0-0.9,0-1.8,0-2.8
		c0-0.8,0.1-1.6,0.1-2.5c0,0-0.1-0.1-0.1-0.1c-0.1-0.1,0-0.3,0.1-0.4c0.1-0.2,0.2-0.3,0.4-0.3c0.6-0.4,1.1-0.9,1.7-1.2
		c0.4-0.2,0.7-0.2,1.1-0.2c0.8,0,1.4,0.4,1.8,1.2c0.2,0.5,0.3,0.9,0.3,1.4c0,1.7-1.4,3.4-2.6,4.5c-1,0.9-1.2,0.6-0.6,0.9
		C66.3,29.3,67.2,29.6,67.9,30.3z M67.1,24.8c0.5-0.9,0.7-2.3-0.1-3c-0.9-0.4-1.8,0.4-2.6,0.9c-0.1,1.7,0,3.2,0.1,4.9
		C65.5,26.9,66.5,25.9,67.1,24.8z"/>
	<path d="M71.8,20.8c0.1,0,0.3-0.1,0.4-0.1c1,0,1.8,0.8,2.1,1.3c0.5,0.9,0.8,2.3,0.8,3.9c0,2.6-0.7,5.4-2.2,6.4
		c-0.3,0.2-0.6,0.2-0.8,0.2c-0.8,0-1.5-0.6-1.9-1.3c-0.7-1.3-0.8-2.8-0.8-4.2c0-0.6,0-1.3,0.1-1.9C69.6,23.6,70.1,21.4,71.8,20.8z
		 M71,30.1c0.4,1,0.4,1.1,1.1,1.3c1.2,0.2,1.6-2.9,1.8-3.7c0.2-1.3,0.1-2.1,0.1-2.4c-0.1-1.3-0.3-2.9-1.7-3.4
		c-0.3-0.1-0.5,0.1-0.6,0.2c-0.7,0.6-1,1.5-1.1,2.4C70.6,26.4,70.5,28.3,71,30.1z"/>
	<path d="M82.2,21.1c0.1,0.2,0.1,0.4,0.1,0.6c0,0.5-0.1,1-0.2,1.4c-0.1,0.9-0.3,2.5-0.4,3.2c-0.1,1.5-0.2,3-0.2,4.5
		c0,0.2,0,0.4,0,0.6c0,0.4,0.2,0.9-0.2,1.2c-0.1,0.1-0.3,0.2-0.4,0.2c-0.2,0-0.4-0.1-0.4-0.3c-0.6-1.7-1.2-3.5-1.7-5.2
		C78.5,28,78.2,29,78,29.9c-0.1,0.4-0.2,0.9-0.4,1.3c-0.1,0.2-0.2,0.6-0.5,0.7C77,32,76.8,32,76.6,31.9c-0.2-0.2-0.2-0.5-0.2-0.7
		c0-0.3-0.1-0.6-0.1-0.8c-0.1-1.4-0.2-2.9-0.2-4.3c0-1.3,0.1-2.5,0.3-3.8c0.1-0.4,0.2-1.3,0.8-1.2c0.5,0.2,0.1,1.8,0.2,2.3
		c-0.1,1.6-0.1,3.3,0,4.9c0.3-0.9,0.5-1.9,1-2.7c0.1-0.4,0.4-0.9,0.9-0.7c0.4,0.2,0.4,0.6,0.5,1c0.2,1,0.5,2.1,0.8,3
		c0.1-1.6,0.2-3.2,0.4-4.7c0.2-0.9,0.1-2.6,0.8-3.2c0.1,0,0.1-0.1,0.2-0.1C82.1,20.9,82.2,20.9,82.2,21.1z"/>
	<path d="M87.7,23.5c0.1-1.3,0.2-2,0.2-2.1c0-0.3,0.3-0.4,0.5-0.4c0.1,0,0.2,0,0.2,0.1c0.3,0.1,0.3,0.4,0.3,0.8
		c0,0.6-0.2,1.2-0.2,1.3c-0.3,3.1-0.3,6.1-0.1,9.2c0,0.3-0.2,0.5-0.5,0.5c0,0-0.1,0-0.1,0c-0.6-0.1-0.8-0.8-1-1.3
		c-1-1.8-1.9-3.8-2.6-5.6c0,1.9,0.3,3.9,0.5,5.8c0.1,0.7-1.1,0.8-1.3,0.2c-0.4-2.1-0.5-4-0.5-6.1c0-1.1,0-2.1,0.1-3.2
		c0.1-0.3,0.4-0.4,0.7-0.4c0.6,0.1,0.7,1,0.8,1.4c0.7,2.1,1.6,4.2,2.6,6.2C87.4,27.7,87.5,25.6,87.7,23.5z"/>
	<path d="M97.4,20.9c0.3,0,0.5,0.3,0.5,0.5c0,0.2-0.1,0.4-0.3,0.5c-0.5,0.2-1.1,0-1.6,0.1c-0.6,0-1.2,0.1-1.8,0.2
		c-0.1,0.9-0.1,1.8-0.1,2.8c0.6-0.2,1.3-0.3,1.9-0.3c0.3-0.1,0.9-0.1,1.1,0.1c0.6,0.3,0.3,1-0.3,1c-0.9,0-1.8,0.1-2.7,0.3
		c0,1,0,2,0,3c-0.1,1,0.5,3-0.3,3.6c-0.1,0.1-0.3,0.1-0.4,0.1c-0.2,0-0.3-0.1-0.4-0.3c-0.2-0.9-0.3-1.7-0.3-2.6c0-0.4,0-0.9,0-1.3
		c0-2.2,0.2-4.3,0.4-6.5c-0.1-0.3,0.2-0.6,0.5-0.6c0.7-0.2,1.4-0.3,2.2-0.4c0.4,0,0.9-0.1,1.3-0.1C97.2,20.9,97.3,20.9,97.4,20.9z"
		/>
	<path d="M100.7,20.8c0.1,0,0.3-0.1,0.4-0.1c1,0,1.8,0.8,2.1,1.3c0.5,0.9,0.8,2.3,0.8,3.9c0,2.6-0.7,5.4-2.2,6.4
		c-0.3,0.2-0.6,0.2-0.8,0.2c-0.8,0-1.5-0.6-1.9-1.3c-0.7-1.3-0.8-2.8-0.8-4.2c0-0.6,0-1.3,0.1-1.9C98.5,23.6,99,21.4,100.7,20.8z
		 M100,30.1c0.4,1,0.4,1.1,1.1,1.3c1.2,0.2,1.6-2.9,1.8-3.7c0.2-1.3,0.1-2.1,0.1-2.4c-0.1-1.3-0.3-2.9-1.7-3.4
		c-0.3-0.1-0.5,0.1-0.6,0.2c-0.7,0.6-1,1.5-1.1,2.4C99.5,26.4,99.4,28.3,100,30.1z"/>
	<path d="M108.7,29.2c0.4,0.9,0.8,1.9,1.2,2.8c0,0,0,0.1,0,0.1c0,0,0,0.1,0,0.1c0,0.1,0,0.2-0.1,0.2c-0.1,0.1-0.2,0.2-0.3,0.2
		c-0.3,0.1-0.4-0.2-0.4-0.2c-0.8-1.3-1.6-2.7-2.2-4.1c-0.3,1.1-0.6,2.3-1,3.4c0,0.1-0.1,0.3-0.1,0.4c-0.1,0.2-0.2,0.5-0.5,0.5
		c0,0-0.1,0-0.1,0c-0.1,0-0.1,0-0.2,0c-0.3-0.2-0.2-0.6-0.2-0.9c0.3-1.8,0.8-3.5,1.3-5.2c-0.6-1.6-1.1-3.2-1.5-4.8
		c0-0.1,0-0.2,0-0.3c0-0.2,0-0.5,0.2-0.6c0.1-0.1,0.1-0.1,0.2-0.1c0.2,0,0.3,0.1,0.3,0.1c0.1,0.1,0.2,0.2,0.3,0.4
		c0.4,1.1,0.7,2.3,1.1,3.5c0.4-1.1,0.8-2.2,1.4-3.2c0.2-0.3,0.2-0.7,0.6-0.8c0,0,0,0,0,0c0.1,0,0.2,0,0.3,0.1
		c0.1,0.1,0.2,0.3,0.1,0.4c-0.2,0.6-0.4,1.1-0.6,1.7c-0.4,1.1-0.9,2.4-1.3,3.6C107.9,27.3,108.3,28.5,108.7,29.2z"/>
	<path d="M115.5,21.5c0.2-0.2,0.5-0.2,0.7-0.3c0.9-0.3,2.4-0.7,3.3-0.9c0.1,0,0.1,0,0.1,0c0.4,0,0.5,0.2,0.5,0.5
		c0,0.3-0.2,0.5-0.6,0.6c-0.4,0.1-0.8,0.1-1.1,0.2c0.4,2.2,0.7,11-2.5,11.2c0,0,0,0-0.1,0c-1.4,0-2.2-1.8-2.2-2.9
		c0-0.5,0.2-0.9,0.6-0.8c0.3,0.1,0.4,0.3,0.4,0.6c0.1,0.4,0.2,0.8,0.4,1.2c0.2,0.3,0.4,0.6,0.7,0.6c0.5-0.1,0.7-0.8,0.9-1.3
		c0.8-2.7,0.4-5.6,0.4-8.3c-0.5,0.1-1,0.4-1.5,0.4C115.3,22.2,115.2,21.7,115.5,21.5z"/>
	<path d="M124.1,30.7c0.3-0.7,0.4-1.5,0.6-2.2c0.4-2.4,0.5-4.8,0.5-7.2c0-0.2,0.1-0.3,0.3-0.4c0.1,0,0.2-0.1,0.3-0.1
		c0.1,0,0.1,0,0.2,0c0.3,0.1,0.4,0.3,0.4,0.4c0,0.7,0,1.3,0,2c0,0.9,0,1.8-0.1,2.7c-0.2,1.8-0.4,3.5-0.9,5.1
		c-0.1,0.2-0.1,0.3-0.2,0.5c-0.2,0.4-0.5,0.8-0.9,1c-0.2,0.1-0.4,0.1-0.6,0.1c0,0,0,0,0,0c-0.5,0-1-0.3-1.3-0.7
		c-0.1-0.1-0.2-0.3-0.3-0.4c0-0.1-0.2-0.3-0.3-0.5c-0.1-0.3-0.2-0.6-0.3-1c-0.1-0.2-0.1-0.4-0.1-0.7c-0.3-2.3-0.4-4.6-0.4-6.9
		c0-0.2,0-0.4,0-0.5c0-0.2,0-0.3,0-0.4c0-0.3,0.1-0.5,0.3-0.6c0.1-0.1,0.3-0.1,0.4,0c0.5,0.1,0.3,0.7,0.3,1.1c0,1.1,0,2.1,0,3.2
		c0.1,1,0.2,2,0.3,3c0.1,0.4,0.1,0.8,0.2,1.2c0.1,0.5,0.2,0.6,0.3,0.9c0.1,0.2,0.2,0.4,0.3,0.6c0.4,0.7,0.6,0.8,1,0.1
		C124,30.9,124,30.8,124.1,30.7z"/>
	<path d="M133.1,21.5c0.1,1.2,0.2,2.3,0.3,3.5c0.2,2.1,0.6,4.8,0.6,7c0,0,0,0,0,0c0,0.3-0.3,0.6-0.7,0.6c0,0-0.1,0-0.1,0
		c-0.4-0.1-0.4-0.4-0.4-0.4c-0.3-2.5-0.5-5.3-0.7-7.8c-0.2,1-0.8,3.3-1,4.1c-0.1,0.3-0.4,0.6-0.7,0.6c-1.3,0-1.9-2.4-2.3-3.4
		c-0.1,1.7-0.2,3.4-0.2,5.1c0,0.3,0.1,0.9-0.3,1.1c-0.2,0.1-0.6,0-0.7-0.2c0-0.1,0-0.2,0-0.4c0-3,0.2-6.1,0.4-9
		c0.1-0.6,1.1-0.7,1.2-0.1c0.4,1.8,1,3.7,1.7,5.3c0.5-1.8,1-3.5,1.5-5.3c0.1-0.4,0.1-1.2,0.6-1.3c0.1,0,0.1,0,0.2,0
		C132.8,20.9,133.2,21.2,133.1,21.5z"/>
	<path d="M136.1,21.4c0.5-0.4,1.3-0.7,2.1-0.7c0.9,0,1.8,0.4,2.1,1.4c0,0.2,0.1,0.3,0.1,0.5c0,2.2-2.5,4.5-4.4,5.2
		c0,1.2,0.1,2.4,0.2,3.7c0,0.2,0.1,0.5,0,0.6c-0.1,0.3-0.4,0.4-0.6,0.4c0,0,0,0,0,0c-0.4,0-0.6-0.7-0.6-1.1
		c-0.1-2.8-0.1-5.6,0.2-8.3c-0.2,0-0.3-0.2-0.3-0.3c0-0.1,0-0.1,0.1-0.2C135.3,22.3,135.6,21.8,136.1,21.4z M139.1,22.3
		c-0.3-0.9-1.5-0.6-2.1-0.2c-0.3,0.2-0.6,0.5-0.8,0.6c-0.1,1.2-0.2,2.3-0.2,3.5c0,0.6,0,0.3,0,0.6C137.3,26,139.5,23.9,139.1,22.3z"
		/>
	<path d="M142,30.2c0.3,0.4,0.5,0.7,0.9,1c1.2,0.8,2.9,0,2.4-1.5c-0.8-2.6-6.5-5.4-3-8.2c0.6-0.4,1.3-0.6,2-0.6c0.3,0,0.5,0,0.8,0.1
		c0.8,0.2,1.6,1.1,1.8,1.6c0,0,0,0.1,0,0.1c0,0.3-0.4,0.4-0.6,0.4c-0.2,0-0.3-0.1-0.4-0.2c-0.1-0.3-0.3-0.5-0.5-0.7
		c-0.8-0.7-2.2-0.2-2.8,0.6c-0.5,0.8-0.1,1.5,0.4,2.2c1.2,1.5,2.8,2.6,3.5,4.3c0.8,2.1-0.8,3.5-2.6,3.5c-0.8,0-1.7-0.3-2.3-1
		c-0.2-0.2-0.6-0.7-0.6-1.1c0-0.1,0.1-0.3,0.2-0.3C141.4,30,141.8,29.9,142,30.2z"/>
	<path d="M153,20.8c0.1,0,0.3-0.1,0.4-0.1c1,0,1.8,0.8,2.1,1.3c0.5,0.9,0.8,2.3,0.8,3.9c0,2.6-0.7,5.4-2.2,6.4
		c-0.3,0.2-0.6,0.2-0.8,0.2c-0.8,0-1.5-0.6-1.9-1.3c-0.7-1.3-0.8-2.8-0.8-4.2c0-0.6,0-1.3,0.1-1.9C150.8,23.6,151.3,21.4,153,20.8z
		 M152.3,30.1c0.4,1,0.4,1.1,1.1,1.3c1.2,0.2,1.6-2.9,1.8-3.7c0.2-1.3,0.1-2.1,0.1-2.4c-0.1-1.3-0.3-2.9-1.7-3.4
		c-0.3-0.1-0.5,0.1-0.6,0.2c-0.7,0.6-1,1.5-1.1,2.4C151.8,26.4,151.7,28.3,152.3,30.1z"/>
	<path d="M161.7,21C161.7,21,161.7,21,161.7,21c0.1-0.2,0.2-0.3,0.4-0.3c0.1,0,0.1,0,0.2,0c0.1,0,0.2,0,0.2,0
		c0.2,0.1,0.2,0.2,0.2,0.3c0,0.3-0.2,0.7-0.3,0.9c-0.4,1.1-0.7,2.3-1,3.4c-0.5,1.8-0.8,3.7-1.1,5.5c0,0.2-0.1,0.4-0.1,0.6
		c-0.1,0.4,0,0.9-0.4,1.1c-0.1,0-0.2,0.1-0.3,0.1c0,0-0.1,0-0.1,0c-0.3-0.1-0.4-0.3-0.4-0.3c-0.2-0.8-0.4-1.5-0.6-2.3
		c-0.6-2.7-1-4.8-1.4-7.3c0-0.4,0-0.5-0.1-0.6c0,0,0,0,0,0c0-0.2,0.1-0.3,0.3-0.4c0.1-0.1,0.3-0.1,0.5-0.1c0.4,0.1,0.4,0.4,0.4,0.4
		c0.1,0.8,0.2,1.8,0.3,2.6c0.2,1.7,0.5,3.4,1,5C160,26.7,160.8,23.7,161.7,21z"/>
	<path d="M165.8,30.4c0.5-0.4,1.1-0.5,1.4,0.1c0.2,0.7-1,1-1.4,1.3c-0.5,0.2-1.3,0.8-1.8,0.8c-0.1,0-0.2,0-0.3-0.1
		c-0.3-0.3-0.2-0.9-0.2-1.2c0-0.6,0-1.1,0-1.7c0-2.5,0-5,0.3-7.4c0,0,0,0,0,0c-0.4-0.6,0.4-0.9,0.8-1c0.5-0.2,1.3-0.5,2-0.5
		c0.2,0,0.4,0,0.6,0.1c0.3,0.1,0.4,0.6,0.2,0.7c-0.3,0.3-0.7,0.2-1.1,0.3c-0.5,0.1-1,0.3-1.5,0.4c-0.1,1.8-0.1,3.5-0.1,5.2
		c0.5-0.2,1-0.5,1.5-0.7c0.3-0.2,1-0.4,1.2-0.2c0.2,0.1,0.3,0.3,0.3,0.5c0,0.1-0.1,0.2-0.1,0.3c-0.3,0.3-0.7,0.4-1.1,0.5
		c-0.6,0.3-1.2,0.5-1.8,0.8c0,0.8,0,1.5,0,2.3C165,30.8,165.4,30.6,165.8,30.4z"/>
	<path d="M172.9,30.3c0.3,0.3,0.4,0.6,0,0.8c-0.7,0.3-2.4-1-3-1.4c-0.1-0.1-0.2-0.1-0.3-0.2c0.1,0.6,0.1,1.2,0.1,1.9
		c0,0.4,0.1,0.8-0.2,1.1c-0.2,0.1-0.3,0.1-0.4,0.1c-0.4,0-0.5-0.5-0.5-0.9c-0.2-1.2-0.3-2.4-0.3-3.6c0-0.9,0-1.8,0-2.8
		c0-0.8,0.1-1.6,0.1-2.5c0,0-0.1-0.1-0.1-0.1c-0.1-0.1,0-0.3,0.1-0.4c0.1-0.2,0.2-0.3,0.4-0.3c0.6-0.4,1.1-0.9,1.7-1.2
		c0.4-0.2,0.7-0.2,1.1-0.2c0.8,0,1.4,0.4,1.8,1.2c0.2,0.5,0.3,0.9,0.3,1.4c0,1.7-1.4,3.4-2.6,4.5c-1,0.9-1.2,0.6-0.6,0.9
		C171.3,29.3,172.2,29.6,172.9,30.3z M172.1,24.8c0.5-0.9,0.7-2.3-0.1-3c-0.9-0.4-1.8,0.4-2.6,0.9c-0.1,1.7,0,3.2,0.1,4.9
		C170.5,26.9,171.5,25.9,172.1,24.8z"/>
	<path d="M182.7,20.6c0.2,0,0.4-0.1,0.7-0.1c0.2,0,0.4,0.1,0.5,0.2c0,0.1,0.1,0.2,0.1,0.3c0,0.2-0.1,0.4-0.5,0.5
		c-0.8,0.1-1.7,0.2-2.5,0.3c0,0.7,0,1.3,0,2c0,1.7,0,3.4,0.2,5.1c0.1,0.9,0.2,1.7,0.2,2.5c0.1,0.5,0,1.2-0.5,1.2c-0.1,0-0.1,0-0.2,0
		c-1.2,0.1-0.7-9.1-0.7-10.1c0-0.2,0-0.3,0-0.5c-0.1,0-0.2,0-0.2,0c-0.3,0.1-1,0.3-1.5,0.4c-0.2,0.1-0.3,0.1-0.5,0.1
		c-0.2-0.1-0.2-0.2-0.2-0.4c0,0,0-0.1,0-0.1c0.1-0.3,0.3-0.3,0.5-0.4c0.6-0.3,1.2-0.4,1.8-0.5C180.7,20.9,181.7,20.7,182.7,20.6z"/>
	<path d="M188.9,21.4c0.1-0.3,0.4-0.4,0.6-0.4c0.2,0.1,0.3,0.2,0.3,0.3c0,0,0,0,0,0c-0.1,1.3-0.2,2.5-0.2,3.8
		c-0.2,2,0.1,4.1-0.2,6.1c-0.1,0.3-0.5,0.5-0.8,0.4c-0.9-0.2-0.3-3.6-0.3-4.4c-1,0.1-1.9,0.2-2.9,0.4c0,1.3,0.1,2.6,0.1,3.9
		c0,0.4,0.1,0.9-0.3,1.1c-0.1,0.1-0.2,0.1-0.3,0.1c-0.3,0-0.7-0.3-0.6-0.5c-0.1-1-0.1-1.9-0.1-2.9c0-2.1,0.2-4.3,0.5-6.4
		c0-0.1-0.1-1.9,0.6-1.9c0.1,0,0.1,0,0.1,0c0.2,0,0.3,0.3,0.2,0.4c-0.2,1.9-0.3,3.8-0.3,5.6c1-0.2,2-0.3,3-0.5
		C188.4,25,188.7,22.8,188.9,21.4z"/>
	<path d="M193.2,30.4c0.5-0.4,1.1-0.5,1.4,0.1c0.2,0.7-1,1-1.4,1.3c-0.5,0.2-1.3,0.8-1.8,0.8c-0.1,0-0.2,0-0.3-0.1
		c-0.3-0.3-0.2-0.9-0.2-1.2c0-0.6,0-1.1,0-1.7c0-2.5,0-5,0.3-7.4c0,0,0,0,0,0c-0.4-0.6,0.4-0.9,0.8-1c0.5-0.2,1.3-0.5,2-0.5
		c0.2,0,0.4,0,0.6,0.1c0.3,0.1,0.4,0.6,0.2,0.7c-0.3,0.3-0.7,0.2-1.1,0.3c-0.5,0.1-1,0.3-1.5,0.4c-0.1,1.8-0.1,3.5-0.1,5.2
		c0.5-0.2,1-0.5,1.5-0.7c0.3-0.2,1-0.4,1.2-0.2c0.2,0.1,0.3,0.3,0.3,0.5c0,0.1-0.1,0.2-0.1,0.3c-0.3,0.3-0.7,0.4-1.1,0.5
		c-0.6,0.3-1.2,0.5-1.8,0.8c0,0.8,0,1.5,0,2.3C192.4,30.8,192.8,30.6,193.2,30.4z"/>
	<path d="M203.6,29.5c0.2,0.1,0.3,0.3,0.3,0.4c0,0.1-0.1,0.3-0.3,0.4c-1,0.6-2.1,1.1-3.1,1.7c-0.3,0.1-1,0.7-1.4,0.7
		c-0.1,0-0.2-0.1-0.3-0.1c-0.1-0.1-0.1-0.2-0.1-0.5c0,0,0-0.1,0-0.1c0-0.9,0-1.8,0.1-2.7c0.1-2.1,0.1-4.3,0.1-6.3c0-0.8,0-1.3,0.3-2
		c0.1-0.2,0.2-0.2,0.4-0.2c0.1,0,0.1,0,0.1,0C200,20.8,200,21,200,21c0.2,0.7,0.1,1.6,0.1,2.2c0,2.6,0,5.1,0,7.7
		C200.9,30.5,202.9,29.1,203.6,29.5z"/>
	<path d="M210.3,32c0,0.2,0,0.3-0.1,0.5c-0.1,0.2-0.6,0.2-0.7,0.1c-0.6-0.7-0.7-1.7-0.9-2.6c-0.9,0.1-1.7,0.3-2.6,0.4
		c-0.1,0.6-0.3,1.2-0.5,1.8c0,0.3-0.2,0.6-0.5,0.6c-0.1,0-0.1,0-0.2,0c-0.2-0.1-0.2-0.3-0.2-0.7c0-1.2,0.6-3.3,0.6-3.8
		c0.6-2.8,0.9-4,1.9-6.7c0.1-0.2,0.3-0.3,0.5-0.3c0.2,0,0.5,0.2,0.5,0.4C208.9,25,209.6,28.5,210.3,32z M206.3,29.1
		c0.7-0.1,1.4-0.2,2.1-0.2c-0.3-1.6-0.7-3.5-0.9-5.2C207.1,25.7,206.7,27.4,206.3,29.1z"/>
	<path d="M216.4,31c0.7,0.2,0.4,1.3-0.3,1.2c-1.3-0.2-3.2-0.1-4.3,0.5c-0.1,0-0.2,0.1-0.2,0.1c-0.2,0-0.4-0.1-0.5-0.3
		c-0.1-0.1-0.1-0.2-0.1-0.3c0-0.4,0.3-0.7,0.4-1c1.5-3.1,3.1-6.3,4.6-9.4c-1.1,0.1-2.8,0.1-3.8,0.2c-0.2,0-0.3,0-0.4-0.1
		c-0.1-0.1-0.1-0.3,0-0.5c0.2-0.4,0.5-0.3,0.9-0.4c1-0.1,1.9-0.2,2.9-0.2c0.3,0,0.6-0.1,1-0.1c0.1,0,0.3,0,0.4,0.1
		c0.2,0.1,0.3,0.3,0.3,0.6c0,0.7-0.7,1.6-0.8,2.1c-1.2,2.5-2.4,5.1-3.7,7.7C214,30.8,215.2,30.8,216.4,31z"/>
	<path d="M222.2,20.8C222.2,20.8,222.2,20.8,222.2,20.8c0.1-0.1,0.2-0.2,0.3-0.2c0.1,0,0.2,0,0.3,0c0.2,0.1,0.3,0.2,0.3,0.4
		c0,0.3-0.2,0.7-0.2,0.8c-0.1,0.5-0.3,1.1-0.4,1.6c-0.7,2.4-1.4,5.2-2.1,7.7c-0.1,0.2-0.1,0.4-0.2,0.7c0,0.1-0.1,0.3-0.1,0.4
		c-0.1,0.2-0.2,0.5-0.5,0.6c-0.1,0-0.2,0-0.2,0c0,0,0,0-0.1,0c-0.3,0-0.4-0.4-0.5-0.6c0-0.2,0-0.4,0.1-0.6c0.4-1.6,0.9-3.2,1.3-4.8
		c-0.1-0.1-0.2-0.3-0.3-0.4c-0.5-1.2-1.1-2.4-1.6-3.6c-0.1-0.3-0.2-0.5-0.3-0.8c-0.1-0.3-0.1-0.4-0.2-0.8c0,0,0-0.1,0-0.1
		c0-0.1,0.1-0.2,0.1-0.2c0.1-0.1,0.2-0.1,0.3-0.1c0.2,0,0.3,0.2,0.3,0.2c0.8,1.3,1.4,2.7,2.1,4.1C221.2,23.6,221.8,22,222.2,20.8z"
		/>
	<path d="M227.8,21.3c0.4-0.2,0.7-0.3,1.1-0.4c0.3-0.1,0.5-0.1,0.8-0.1c0.8,0,1.5,0.3,1.8,0.6c0.7,0.6,1,1.5,1,2.4
		c0,2.4-1.9,5.4-3,7.1c-0.5,0.7-0.8,1.1-1.5,1.8c-0.1,0.1-0.2,0.1-0.3,0.1c-0.4,0-0.8-0.3-0.5-0.6c-0.1-0.8-0.1-1.4,0-2.3
		c0.1-2.4,0.3-7.3,0.3-7.3s-0.2,0.1-0.5-0.3c-0.1-0.1-0.1-0.1-0.1-0.2C226.9,21.7,227.4,21.5,227.8,21.3z M231.5,23.9
		c-0.1-2.1-1.6-2.4-3.1-1.6c0.1,2.8-0.2,5.6-0.1,8.4C229.6,29.1,231.5,25.8,231.5,23.9z"/>
	<path d="M235.5,20.8c0.1,0,0.3-0.1,0.4-0.1c1,0,1.8,0.8,2.1,1.3c0.5,0.9,0.8,2.3,0.8,3.9c0,2.6-0.7,5.4-2.2,6.4
		c-0.3,0.2-0.6,0.2-0.8,0.2c-0.8,0-1.5-0.6-1.9-1.3c-0.7-1.3-0.8-2.8-0.8-4.2c0-0.6,0-1.3,0.1-1.9C233.3,23.6,233.8,21.4,235.5,20.8
		z M234.8,30.1c0.4,1,0.4,1.1,1.1,1.3c1.2,0.2,1.6-2.9,1.8-3.7c0.2-1.3,0.1-2.1,0.1-2.4c-0.1-1.3-0.3-2.9-1.7-3.4
		c-0.3-0.1-0.5,0.1-0.6,0.2c-0.7,0.6-1,1.5-1.1,2.4C234.3,26.4,234.2,28.3,234.8,30.1z"/>
	<path d="M243.4,26.7c0.6-0.3,0.9-0.4,1.1-0.4c0,0,0.1,0,0.1,0c0.1,0,0.2,0,0.3,0c0.1,0,0.2,0.1,0.2,0.2c0.1,0.1,0.1,0.2,0.1,0.3
		c0,0,0,0.1,0,0.1c-0.1,0.5-0.2,0.9-0.4,1.4c-0.1,0.3-0.2,0.6-0.3,0.9c-0.2,0.6-0.5,1.2-0.8,1.8c-0.1,0.2-0.3,0.5-0.4,0.7
		c-0.2,0.3-0.3,0.4-0.5,0.5c-0.2,0.2-0.3,0.3-0.5,0.4c-0.2,0.1-0.3,0.1-0.5,0.1c-0.3,0-0.5-0.1-0.7-0.2c-0.2-0.2-0.4-0.4-0.5-0.6
		c-0.1-0.3-0.3-0.6-0.4-0.9c-0.1-0.2-0.1-0.2-0.1-0.5c-0.2-0.8-0.4-1.6-0.5-2.4c-0.1-0.6-0.1-1.1-0.1-1.7c0-1,0.1-2.1,0.3-3.1
		c0.1-0.4,0.2-0.8,0.4-1.3c0.3-0.5,0.7-1,1.4-1.1c0.2,0,0.2-0.1,0.4-0.1c0,0,0,0,0,0c0.4,0,0.7,0.1,1,0.4c0.4,0.3,0.6,0.7,0.8,1.1
		c0.1,0.4,0.2,0.7,0.3,1.1c0,0.3,0,0.5-0.2,0.7c-0.1,0.1-0.3,0.1-0.4,0.1c-0.2-0.1-0.3-0.2-0.4-0.3c0-0.1,0-0.2,0-0.3
		c0-0.2-0.1-0.4-0.1-0.6c-0.1-0.2-0.1-0.3-0.2-0.5c-0.2-0.3-0.4-0.4-0.5-0.5c-0.1,0-0.1-0.1-0.1-0.1c-0.2,0-0.3,0-0.4,0.1
		c-0.2,0.2-0.3,0.4-0.4,0.6c-0.3,0.8-0.4,1.7-0.5,2.6c0,0.5,0,1.1,0,1.6c0,0.6,0,0.7,0.1,1.4c0.1,0.3,0.1,0.6,0.2,0.9
		c0,0.2,0.1,0.4,0.1,0.6c0.1,0.2,0.1,0.5,0.1,0.5c0,0.1,0.1,0.2,0.1,0.4c0,0.1,0.1,0.1,0.1,0.2c0,0,0.1,0.1,0.2,0.2c0,0,0,0,0.1,0.1
		c0.1,0,0.1,0,0.2,0c0.1,0,0.2-0.1,0.2-0.2c0.1-0.1,0.1-0.1,0.2-0.3c0.3-0.5,0.6-0.9,0.8-1.4c0.2-0.3,0.3-0.6,0.4-0.9
		c0.2-0.4,0.1-0.2,0.2-0.6c-0.2,0.1-0.5,0.3-0.7,0.4c-0.2,0.1-0.3,0.3-0.5,0.4c-0.1,0.1-0.1,0.1-0.2,0.2c-0.2,0.2-0.3,0.5-0.6,0.5
		c-0.1,0-0.1,0-0.2,0c-0.2-0.1-0.3-0.2-0.4-0.3c-0.2-0.4,0.2-0.7,0.5-1c0.1-0.1,0.2-0.2,0.3-0.3c0.1-0.1,0.2-0.2,0.3-0.2
		c0.1-0.1,0.2-0.1,0.3-0.2C242.9,27,243.2,26.9,243.4,26.7z"/>
</g>
</svg>
