<?xml version="1.0" encoding="utf-8"?>
<!-- Generator: Adobe Illustrator 26.1.0, SVG Export Plug-In . SVG Version: 6.00 Build 0)  -->
<svg version="1.1" id="Layer_1" xmlns="http://www.w3.org/2000/svg" xmlns:xlink="http://www.w3.org/1999/xlink" x="0px" y="0px"
	 viewBox="0 0 372 36.9" style="enable-background:new 0 0 372 36.9;" xml:space="preserve">
<g>
	<path d="M8.4,5.9c0.4,0,0.5,0.3,0.5,0.6C8.9,6.7,8.7,7,8.4,7c-0.6,0-1.3-0.1-1.9-0.1C6.4,7.4,6.3,8,6.3,8.5c0,0.9,0,1.8,0,2.6
		c0,0.4,0,0.8,0.1,1.3c0.1,0.2,0.1,0.5,0.2,0.6c0,0,0.2,0.3,0.3,0.3c0,0,0.1,0,0.1-0.1c0.1-0.2,0.3-0.4,0.5-0.4
		c0.3,0,0.5,0.2,0.5,0.5c-0.1,0.6-0.5,1-1,1c-0.2,0-0.5-0.1-0.7-0.2c-0.9-0.6-1-1.9-1-2.9c0-1.5,0.1-3,0.3-4.4C5.2,6.9,4.8,7,4.5,7
		C4.2,7.1,3.9,6.8,3.9,6.5c0-0.2,0.1-0.3,0.3-0.4C4.7,6.1,5.2,6,5.7,6C5.8,5,6,4.1,6.2,3.2c0-0.2,0.2-0.3,0.3-0.3
		c0.2,0,0.4,0.2,0.4,0.5C6.8,4.2,6.6,5,6.5,5.9C7.1,5.8,7.8,5.8,8.4,5.9z"/>
	<path d="M15,9.3c0.1,0.7,0.2,1.5,0.2,2.3c0,0.9-0.1,1.8-0.4,2.6c-0.1,0.2-0.3,0.3-0.4,0.3c-0.2,0-0.4-0.1-0.4-0.4
		c-0.1-1.3,0.2-2.5,0.1-3.8c-0.1-0.7-0.4-3-1.4-2.9c-0.9,0.1-1.4,2.4-1.5,3.1c-0.2,1.1-0.2,2.3-0.3,3.4c0,0.7-1,0.6-1.1,0
		c-0.2-1.9-0.3-3.7-0.3-5.6c0-1.6,0.1-3.3,0.2-4.9c0-0.3,0.2-0.4,0.4-0.4c0.2,0,0.4,0.1,0.4,0.4c-0.2,2-0.2,3.9-0.1,5.9
		c0-0.1,0-0.2,0.1-0.2c0.3-0.9,0.9-2.9,2.2-2.8C14,6.4,14.8,8.2,15,9.3z"/>
	<path d="M17.5,11.5c-0.2,0-0.4,0-0.5-0.1c-0.1,0.4,0,0.8,0.2,1.2c0.3,0.6,0.8,0.8,1.3,0.8c0.5,0,1.1-0.3,1.6-0.5
		c0.1-0.1,0.1-0.1,0.2-0.1c0.3,0,0.5,0.4,0.3,0.7c-0.6,0.6-1.4,1-2.1,1c-1.6,0-2.6-1.2-2.6-2.7c0-1.6,1-3.4,2-4.4
		c0.4-0.4,1-0.8,1.6-0.8c0.9,0,1.3,0.9,1.3,1.7C20.9,9.9,19.1,11.5,17.5,11.5z M18.6,8.1c-0.6,0.5-1.2,1.7-1.4,2.4
		c1,0.3,2.4-0.8,2.7-1.7c0.2-0.5,0.4-1.4-0.6-1.2C19,7.6,18.8,7.9,18.6,8.1z"/>
	<path d="M31.2,15.7c0,0.1,0,0.1,0,0.2c0,1.2-0.9,1.9-1.7,1.9c-0.7,0-1.3-0.4-1.6-1.4c-0.2-0.7-0.1-1.5-0.1-2.3c0,0,0,0-0.1,0.1
		c-1.4,1.1-2.8,0.1-3.1-1.4c-0.1-0.3-0.1-0.7-0.1-1.1c0-1.4,0.6-3,1.5-4c0.5-0.5,1.2-0.9,1.8-0.9c0.7,0,1.3,0.4,1.5,1.2
		c0.2,0.1,0.3,0.3,0.3,0.5c-0.2,1.7-0.4,3.5-0.6,5.2c-0.1,0.7-0.2,1.4-0.1,2.1c0.1,0.4,0.2,1.5,1,1.1c0.4-0.2,0.5-0.7,0.5-1.1
		C30.5,15.1,31.2,15.2,31.2,15.7z M27.5,12.9c0.3-0.4,0.5-0.9,0.6-1.3c0.1-0.4,0.2-0.8,0.3-1.2c0.1-0.7,0.2-1.4,0.3-2.2
		c0,0,0-0.1-0.1-0.1c-0.3-1.2-1.6-0.4-2,0.2c-0.3,0.4-0.5,0.9-0.7,1.4c-0.3,1-0.5,2.1-0.1,3C26.3,13.6,27,13.5,27.5,12.9z"/>
	<path d="M36.8,13.5c0.1,0.1,0.1,0.2,0.1,0.3c0,0.5-0.7,0.8-1,0.3c-0.3-0.5-0.5-1-0.6-1.6c-0.3,0.9-0.9,2-1.9,2c-0.1,0-0.2,0-0.3,0
		c-1.3-0.3-1.7-2.1-1.9-3.2c-0.1-0.4-0.1-0.7-0.1-1c0-1.2,0.2-2.3,0.4-3.5c0-0.2,0.2-0.3,0.3-0.3c0.2,0,0.5,0.2,0.4,0.5
		C32,8,32,9.2,32,10.3c0,0.6,0.1,1.2,0.3,1.7c0.1,0.3,0.2,0.6,0.3,0.8c0.2,0.4,0.3,0.6,0.7,0.5c0.9-0.2,1.1-2.1,1.3-2.9
		c0.2-1.1,0.4-2.2,0.7-3.2c0.1-0.5,1-0.4,1,0.1C36.1,9.4,35.8,11.6,36.8,13.5z"/>
	<path d="M38.7,6.9c-0.2,2.4,0,4.7,0.1,7.1c0,0.3-0.3,0.5-0.5,0.5c-0.2,0-0.4-0.1-0.4-0.3c-0.2-1.1-0.2-2.1-0.2-3.2
		c0-1.3,0.1-2.7,0.2-4C37.9,6.4,38.7,6.4,38.7,6.9z M38.8,4.2c0,0.1,0,0.1,0,0.2v0c0,0.1,0,0.2-0.1,0.2c0,0.1-0.1,0.1-0.1,0.2
		c-0.1,0.1-0.1,0.1-0.2,0.1c-0.1,0-0.2,0.1-0.2,0.1c-0.1,0-0.2,0-0.3-0.1c-0.1,0-0.1-0.1-0.1-0.1c-0.1-0.1-0.1-0.2-0.2-0.3
		c0-0.1,0-0.1,0-0.2c0-0.1,0-0.2,0.1-0.2c0-0.1,0.1-0.2,0.1-0.2c0.1-0.1,0.1-0.1,0.2-0.1s0.2-0.1,0.2-0.1h0c0.1,0,0.2,0,0.3,0.1
		c0,0,0.1,0.1,0.1,0.1C38.7,4,38.8,4.1,38.8,4.2z"/>
	<path d="M43.6,12.4c0.4-0.5,1.2,0.2,0.7,0.7c-0.6,0.6-1.5,1.3-2.5,1.3c-0.3,0-0.6-0.1-0.8-0.2c-1-0.5-1.3-1.6-1.3-2.7
		c0-0.4,0.1-0.9,0.1-1.2c0.3-1.3,1-3.3,2.2-4c0.3-0.2,0.6-0.3,0.8-0.3c0.9,0,1.5,1,1.6,1.9c0,0,0,0.1,0,0.1c0,0.5-0.8,0.7-0.9,0.2
		c-0.1-0.6-0.4-1.4-1.1-1C42.3,7.4,42,8,41.8,8.3C41.4,9,41.1,9.8,41,10.6c-0.2,0.8-0.2,2.6,0.9,2.7C42.5,13.4,43.2,12.8,43.6,12.4z
		"/>
	<path d="M49.9,13.8c0,0,0,0.1,0,0.1c0,0.5-0.6,0.7-1,0.3c-0.7-1-1.3-2.6-2.7-2.7c0,0.9,0.1,1.7,0.1,2.6c0,0.3-0.2,0.5-0.4,0.5
		c-0.2,0-0.5-0.2-0.5-0.5c-0.2-1.4-0.2-2.9-0.2-4.4c0-2.1,0.1-4.2,0.3-6.4c0-0.3,0.2-0.4,0.4-0.4c0.2,0,0.4,0.1,0.4,0.4
		c-0.1,2.2-0.1,4.4,0,6.7c1.1-0.9,2.1-1.9,2.3-3.4c0.1-0.5,0.9-0.5,0.8,0c-0.1,1-0.4,1.9-1,2.7c-0.4,0.5-0.8,0.9-1.3,1.3
		c0.4,0.1,0.8,0.4,1.2,0.7C48.9,11.8,49.7,12.8,49.9,13.8z"/>
	<path d="M59,7.5c0.3,0.6,0.4,1.2,0.4,1.8c0,1.1-0.4,2.2-1,3c-0.8,1.2-2.2,2.4-3.8,1.9c-0.1,0.1-0.2,0.2-0.4,0.2
		c-0.3,0-0.5-0.2-0.6-0.5c-0.1-0.8-0.1-1.6-0.1-2.4c0-1.1,0.1-2.1,0.1-3.2c0-1.7,0.2-3.4,0.4-5.1c0-0.2,0.2-0.4,0.4-0.4
		c0.2,0,0.4,0.1,0.3,0.4c-0.1,1.8-0.1,3.7-0.1,5.5c0.2-0.4,0.5-0.7,0.8-1.1C56.6,6.7,58.1,6,59,7.5z M54.9,13.2
		c2.1,0.6,3.8-2.8,3.4-4.5c-0.1-0.7-0.6-1.4-1.4-0.9c-0.5,0.3-0.8,0.7-1.2,1.2c-0.4,0.6-0.8,1.2-1,1.9c0,0.8,0,1.6,0,2.3
		C54.8,13.2,54.9,13.2,54.9,13.2z"/>
	<path d="M63.1,6.6c0.4,0,1.3,0.4,1.3,0.9c0,0.2-0.2,0.4-0.4,0.4c-0.1,0-0.2,0-0.3-0.1c-0.2-0.2-0.4-0.3-0.6-0.3
		c-1.4,0-1.9,4.1-1.9,5.2c0,0.4,0,0.9,0,1.3c0,0.3-0.2,0.5-0.5,0.5c-0.3,0-0.5-0.2-0.5-0.5c0-1-0.1-2-0.1-2.9c0-1.4,0-2.8,0.1-4.3
		c0-0.3,0.3-0.4,0.5-0.4c0.2,0,0.4,0.2,0.4,0.4c0,0.4,0,0.9,0,1.3c0,0,0-0.1,0-0.1C61.5,7.3,62.3,6.6,63.1,6.6z"/>
	<path d="M70.2,10c0,1.7-1.2,4.6-3.1,4.6c-0.3,0-0.6-0.1-0.9-0.2c-1.3-0.7-1.5-2.2-1.4-3.6c-0.1-0.1-0.2-0.2-0.2-0.4
		c0-1.6,0.7-3.8,2.7-3.8C69.2,6.5,70.2,8.2,70.2,10z M67,13.5c0.9,0,1.7-1.7,1.9-2.4c0.3-1.2,0.3-3-1.2-3.5
		c-0.2-0.1-0.4-0.1-0.6-0.1c-0.9,0-1.3,0.9-1.5,1.8c-0.2,1.2-0.3,2.8,0.6,3.7C66.5,13.4,66.8,13.5,67,13.5z"/>
	<path d="M78,10.3c0,1.2,0,4.1-1.8,4.1c-1,0-1.5-0.9-1.7-1.8c-0.2,0.7-0.8,1.8-1.6,1.8c-0.4,0-0.9-0.3-1.2-0.7
		C71.1,13,70.9,12,70.9,11c0-1.5,0.5-3.2,0.9-4.4c0.1-0.2,0.2-0.3,0.4-0.3c0.2,0,0.5,0.2,0.4,0.5c-0.3,1.6-0.8,3.4-0.5,5
		c0.1,0.3,0.3,1.4,0.7,1.4c0.2,0,0.3-0.3,0.4-0.5c0.3-0.8,0.6-1.6,0.9-2.5c0.1-0.2,0.3-0.4,0.5-0.4s0.4,0.1,0.5,0.4
		c0.2,0.8,0.3,1.5,0.5,2.3c0.1,0.3,0.2,0.9,0.5,0.9c0.1,0,0.2-0.1,0.3-0.2c0.2-0.2,0.3-0.7,0.3-1c0.3-1.5,0.3-3.5-0.3-4.9
		c-0.2-0.4,0.1-0.8,0.5-0.8c0.2,0,0.3,0.1,0.4,0.3C77.9,7.8,77.9,9.1,78,10.3z"/>
	<path d="M83.7,9.3c0.2,1,0.3,2,0.3,3.1c0,0.7-0.1,1.3-0.2,2c-0.1,0.2-0.2,0.3-0.4,0.3c-0.2,0-0.5-0.2-0.5-0.4
		c-0.1-1.1,0.5-6.6-1.3-6.5c-0.9,0-1.3,2.1-1.3,2.8c-0.1,1.1-0.1,2.2,0.1,3.3c0,0.4-0.2,0.6-0.5,0.6c-0.2,0-0.3-0.1-0.4-0.3
		c-0.6-2.1-0.8-4.2-0.8-6.4c0-0.3,0.2-0.4,0.4-0.4c0.2,0,0.4,0.1,0.4,0.4c0,0.6,0.1,1.2,0.1,1.8c0-0.1,0-0.1,0-0.1
		c0.2-0.9,0.9-2.6,2-2.7C82.9,6.7,83.6,8.1,83.7,9.3z"/>
	<path d="M91.2,2.8c1.1,0.2,1.5,1.6,1.5,2.6c0,0.3,0,0.6-0.4,0.6c-0.2,0-0.4-0.1-0.4-0.4c0-0.4-0.2-2.1-1-1.8
		c-0.3,0.1-0.5,0.8-0.6,1c-0.2,0.7-0.2,1.5-0.3,2.3c0.5-0.1,1.1-0.1,1.6-0.2c0.7-0.1,0.7,1,0,1.1c-0.5,0.1-1.1,0.1-1.6,0.2
		c-0.1,2,0,3.9,0.1,5.8c0,0.3-0.2,0.4-0.5,0.4c-0.2,0-0.4-0.1-0.4-0.3c-0.3-1.7-0.3-3.4-0.3-5.1c0-0.1,0-0.1,0-0.2V8.5
		c0-0.1,0-0.1,0-0.2c-0.1,0-0.1,0-0.2,0l-0.4,0c-0.1,0-0.1,0-0.2,0c-0.3,0-0.4-0.2-0.4-0.4c0-0.2,0.1-0.4,0.4-0.4l0.9-0.2
		c0-0.9,0.1-1.7,0.3-2.5C89.4,4,90,2.8,91,2.8C91,2.8,91.1,2.8,91.2,2.8z"/>
	<path d="M97.8,10c0,1.7-1.2,4.6-3.1,4.6c-0.3,0-0.6-0.1-0.9-0.2c-1.3-0.7-1.5-2.2-1.4-3.6c-0.1-0.1-0.2-0.2-0.2-0.4
		c0-1.6,0.7-3.8,2.7-3.8C96.8,6.5,97.8,8.2,97.8,10z M94.7,13.5c0.9,0,1.7-1.7,1.9-2.4c0.3-1.2,0.3-3-1.2-3.5
		c-0.2-0.1-0.4-0.1-0.6-0.1c-0.9,0-1.3,0.9-1.5,1.8c-0.2,1.2-0.3,2.8,0.6,3.7C94.2,13.4,94.4,13.5,94.7,13.5z"/>
	<path d="M103.5,6.9c-0.7,1.2-1.3,2.5-2,3.8v0c0.6,1,1.2,2,1.7,3c0.2,0.5-0.4,1-0.8,0.6c-0.6-0.8-1.1-1.6-1.5-2.5
		c-0.4,0.7-0.8,1.5-1.1,2.3c0,0,0,0.1,0,0.1c0,0.1,0,0.1-0.1,0.2c-0.1,0.3-0.3,0.4-0.6,0.4c-0.3,0-0.5-0.2-0.5-0.5
		c0-0.1,0-0.1,0-0.2c0.4-1.2,1-2.4,1.7-3.5c-0.6-1.2-1.3-2.5-1.5-3.8c-0.1-0.4,0.5-0.7,0.7-0.3c0.6,0.9,1,2,1.4,3.1
		c0.7-1,1.3-2.1,2-3.1c0.1-0.1,0.2-0.2,0.3-0.2c0.2,0,0.4,0.2,0.4,0.4C103.5,6.8,103.5,6.8,103.5,6.9z"/>
	<path d="M110.7,7.1c0.2,1.8,0.4,3.5,0.4,5.2c0,0.9-0.1,1.9-0.2,2.8c-0.2,0.9-0.5,1.8-1.4,2.2c-0.2,0.1-0.5,0.1-0.7,0.1
		c-0.6,0-1.2-0.3-1.4-0.9c-0.1-0.1-0.1-0.2-0.1-0.2c0-0.5,0.7-0.9,1-0.3c0.3,0.5,0.9,0.1,1.1-0.2c0.2-0.3,0.2-0.7,0.3-1.1
		c0.2-0.8,0.2-1.7,0.2-2.6c0.1-1.7-0.1-3.4-0.2-5C109.7,6.5,110.7,6.5,110.7,7.1z M109.5,4.9c-0.1-0.1-0.1-0.2-0.2-0.3
		c0-0.1,0-0.1,0-0.2c0-0.1,0-0.2,0.1-0.2c0-0.1,0.1-0.1,0.1-0.2c0.1-0.1,0.1-0.1,0.2-0.1c0.1,0,0.1-0.1,0.2-0.1h0
		c0.1,0,0.2,0,0.3,0.1c0.1,0,0.1,0.1,0.1,0.1c0.1,0.1,0.1,0.2,0.2,0.3c0,0.1,0,0.1,0,0.2c0,0.1,0,0.2-0.1,0.2c0,0.1-0.1,0.1-0.1,0.2
		c-0.1,0.1-0.1,0.1-0.2,0.1c-0.1,0-0.2,0.1-0.2,0.1c-0.1,0-0.2,0-0.3-0.1C109.6,4.9,109.5,4.9,109.5,4.9z"/>
	<path d="M118.2,13.5c0.1,0.1,0.1,0.2,0.1,0.3c0,0.5-0.7,0.8-1,0.3c-0.3-0.5-0.5-1-0.6-1.6c-0.3,0.9-0.9,2-1.9,2c-0.1,0-0.2,0-0.3,0
		c-1.3-0.3-1.7-2.1-1.9-3.2c-0.1-0.4-0.1-0.7-0.1-1c0-1.2,0.2-2.3,0.4-3.5c0-0.2,0.2-0.3,0.3-0.3c0.2,0,0.5,0.2,0.4,0.5
		c-0.2,1.1-0.2,2.3-0.2,3.4c0,0.6,0.1,1.2,0.3,1.7c0.1,0.3,0.2,0.6,0.3,0.8c0.2,0.4,0.3,0.6,0.7,0.5c0.9-0.2,1.1-2.1,1.3-2.9
		c0.2-1.1,0.4-2.2,0.7-3.2c0.1-0.5,1-0.4,1,0.1C117.4,9.4,117.1,11.6,118.2,13.5z"/>
	<path d="M127,10.6c0,0.3,0,0.6,0,1c0,0.9-0.1,1.8-0.2,2.6c0,0.3-0.2,0.4-0.4,0.4c-0.3,0-0.5-0.2-0.5-0.5c0-1.6,0.2-3.1-0.1-4.6
		c-0.1-0.4-0.1-1.1-0.4-1.4c-0.5-0.5-0.9-0.1-1.1,0.4c-0.5,1-0.6,2.1-0.6,3.2c0,0.6-0.9,0.7-1,0.1c-0.2-1-0.4-1.9-0.6-2.8
		c-0.1-0.3-0.2-1.1-0.5-1.3c-0.2-0.1-0.5,0.2-0.6,0.3c-0.1,0.2-0.2,0.4-0.2,0.6c-0.5,1.8-0.3,3.7-0.1,5.4c0.1,0.6-0.9,0.6-0.9,0
		c-0.3-2.1-0.5-4.2-0.8-6.3c0,0,0,0,0-0.1c0-0.4,0.7-0.6,0.7-0.1c0.1,0.4,0.1,0.7,0.2,1.1c0.2-0.7,0.4-1.4,1-1.8
		c0.3-0.2,0.5-0.3,0.7-0.3c0.8,0,1.3,1,1.7,2.1c0.1-0.4,0.3-0.8,0.5-1.2c0.6-0.8,1.6-1.1,2.4-0.4C126.9,8,126.9,9.5,127,10.6z"/>
	<path d="M131.8,7.5c0.9,0.8,1.5,2.4,1.5,3.7c0,0.4,0,0.7-0.1,1.1c-0.5,1.7-2,2.8-3.7,1.7c-0.2-0.1-0.4-0.3-0.6-0.5c0,0,0,0,0,0.1
		c0,1.2,0.1,2.5,0,3.8c0,0.3-0.3,0.4-0.5,0.4c-0.2,0-0.3-0.1-0.4-0.3c-0.2-0.9-0.2-1.7-0.2-2.6c0-0.4,0-0.7,0-1.1
		c0-1.2,0.1-2.5,0.1-3.7c0-0.4,0-0.9,0-1.3c0-0.2,0.1-0.3,0.2-0.3c0,0,0,0,0,0c0.3-0.6,0.8-1.4,1.6-1.7c0.1-0.1,0.3-0.1,0.4-0.1
		C130.7,6.7,131.3,7.1,131.8,7.5z M132.1,12c0.3-1,0-2.4-0.5-3.2c-0.3-0.5-1-1.1-1.6-1.1c-0.5,0-0.9,0.5-1.2,0.9
		c0,0.1,0.1,0.1,0.1,0.2c0,0.7,0,1.5,0,2.2c0.1,0.5,0.2,0.9,0.4,1.4c0.3,0.5,0.8,1,1.4,1C131.5,13.5,131.9,12.7,132.1,12z"/>
	<path d="M138.9,12.4c0.1,0.2,0.1,0.4,0.1,0.6c0,1-0.7,1.6-1.7,1.6c-1,0-2-0.6-2.4-1.4c-0.2-0.4,0.1-0.7,0.4-0.7
		c0.1,0,0.2,0,0.3,0.1c0.3,0.2,1.2,0.9,1.8,0.9c0.2,0,0.4-0.1,0.5-0.4c0.3-0.7-1-1.3-1.5-1.6c-0.9-0.6-2.5-1.5-2.6-2.7
		c0,0,0-0.1,0-0.1c0-1.4,1.6-2.3,3.1-2.3c0.8,0,1.5,0.3,1.9,1c0.2,0.3-0.1,0.6-0.4,0.6c-0.1,0-0.3-0.1-0.4-0.2
		c-0.2-0.4-0.6-0.5-1-0.5c-0.5,0-1.2,0.2-1.5,0.5c-0.5,0.3-1,0.7-0.6,1.4c0.2,0.3,0.6,0.5,0.8,0.7C136.9,10.7,138.4,11.2,138.9,12.4
		z"/>
	<path d="M148.4,10c0,1.7-1.2,4.6-3.1,4.6c-0.3,0-0.6-0.1-0.9-0.2c-1.3-0.7-1.5-2.2-1.4-3.6c-0.1-0.1-0.2-0.2-0.2-0.4
		c0-1.6,0.7-3.8,2.7-3.8C147.4,6.5,148.4,8.2,148.4,10z M145.3,13.5c0.9,0,1.7-1.7,1.9-2.4c0.3-1.2,0.3-3-1.2-3.5
		c-0.2-0.1-0.4-0.1-0.6-0.1c-0.9,0-1.3,0.9-1.5,1.8c-0.2,1.2-0.3,2.8,0.6,3.7C144.8,13.4,145,13.5,145.3,13.5z"/>
	<path d="M153.4,6.8c0.1-0.2,0.2-0.3,0.4-0.3c0.3,0,0.6,0.2,0.6,0.6c0,0.1,0,0.2-0.1,0.2c-1,2.2-1.9,4.5-2.4,6.8
		c-0.1,0.3-0.3,0.4-0.5,0.4c-0.2,0-0.4-0.1-0.5-0.4c-0.7-2.3-1.3-4.7-2-7c0-0.1,0-0.1,0-0.1c0-0.4,0.7-0.6,0.9-0.1
		c0.6,1.7,1.2,3.4,1.7,5.1C151.9,10.2,152.6,8.4,153.4,6.8z"/>
	<path d="M156,11.5c-0.2,0-0.4,0-0.5-0.1c-0.1,0.4,0,0.8,0.2,1.2c0.3,0.6,0.8,0.8,1.3,0.8c0.5,0,1.1-0.3,1.6-0.5
		c0.1-0.1,0.1-0.1,0.2-0.1c0.3,0,0.5,0.4,0.3,0.7c-0.6,0.6-1.4,1-2.1,1c-1.6,0-2.6-1.2-2.6-2.7c0-1.6,1-3.4,2-4.4
		c0.4-0.4,1-0.8,1.6-0.8c0.9,0,1.3,0.9,1.3,1.7C159.3,9.9,157.5,11.5,156,11.5z M157.1,8.1c-0.6,0.5-1.2,1.7-1.4,2.4
		c1,0.3,2.4-0.8,2.7-1.7c0.2-0.5,0.4-1.4-0.6-1.2C157.5,7.6,157.3,7.9,157.1,8.1z"/>
	<path d="M163,6.6c0.4,0,1.3,0.4,1.3,0.9c0,0.2-0.2,0.4-0.4,0.4c-0.1,0-0.2,0-0.3-0.1c-0.2-0.2-0.4-0.3-0.6-0.3
		c-1.4,0-1.9,4.1-1.9,5.2c0,0.4,0,0.9,0,1.3c0,0.3-0.2,0.5-0.5,0.5c-0.3,0-0.5-0.2-0.5-0.5c0-1-0.1-2-0.1-2.9c0-1.4,0-2.8,0.1-4.3
		c0-0.3,0.3-0.4,0.5-0.4c0.2,0,0.4,0.2,0.4,0.4c0,0.4,0,0.9,0,1.3c0,0,0-0.1,0-0.1C161.4,7.3,162.2,6.6,163,6.6z"/>
	<path d="M172.4,5.9c0.4,0,0.5,0.3,0.5,0.6c0,0.3-0.2,0.5-0.5,0.5c-0.6,0-1.3-0.1-1.9-0.1c-0.1,0.5-0.1,1.1-0.1,1.6
		c0,0.9,0,1.8,0,2.6c0,0.4,0,0.8,0.1,1.3c0.1,0.2,0.1,0.5,0.2,0.6c0,0,0.2,0.3,0.3,0.3c0,0,0.1,0,0.1-0.1c0.1-0.2,0.3-0.4,0.5-0.4
		c0.3,0,0.5,0.2,0.5,0.5c-0.1,0.6-0.5,1-1,1c-0.2,0-0.5-0.1-0.7-0.2c-0.9-0.6-1-1.9-1-2.9c0-1.5,0.1-3,0.3-4.4c-0.3,0-0.7,0.1-1,0.1
		c-0.3,0.1-0.6-0.2-0.6-0.5c0-0.2,0.1-0.3,0.3-0.4c0.5-0.1,1-0.1,1.4-0.2c0.1-0.9,0.3-1.9,0.5-2.8c0-0.2,0.2-0.3,0.3-0.3
		c0.2,0,0.4,0.2,0.4,0.5c-0.2,0.8-0.3,1.7-0.4,2.5C171.2,5.8,171.8,5.8,172.4,5.9z"/>
	<path d="M179,9.3c0.1,0.7,0.2,1.5,0.2,2.3c0,0.9-0.1,1.8-0.4,2.6c-0.1,0.2-0.3,0.3-0.4,0.3c-0.2,0-0.4-0.1-0.4-0.4
		c-0.1-1.3,0.2-2.5,0.1-3.8c-0.1-0.7-0.4-3-1.4-2.9c-0.9,0.1-1.4,2.4-1.5,3.1c-0.2,1.1-0.2,2.3-0.3,3.4c0,0.7-1,0.6-1.1,0
		c-0.2-1.9-0.3-3.7-0.3-5.6c0-1.6,0.1-3.3,0.2-4.9c0-0.3,0.2-0.4,0.4-0.4c0.2,0,0.4,0.1,0.4,0.4c-0.2,2-0.2,3.9-0.1,5.9
		c0-0.1,0-0.2,0.1-0.2c0.3-0.9,0.9-2.9,2.2-2.8C178.1,6.4,178.8,8.2,179,9.3z"/>
	<path d="M181.6,11.5c-0.2,0-0.4,0-0.5-0.1c-0.1,0.4,0,0.8,0.2,1.2c0.3,0.6,0.8,0.8,1.3,0.8c0.5,0,1.1-0.3,1.6-0.5
		c0.1-0.1,0.1-0.1,0.2-0.1c0.3,0,0.5,0.4,0.3,0.7c-0.6,0.6-1.4,1-2.1,1c-1.6,0-2.6-1.2-2.6-2.7c0-1.6,1-3.4,2-4.4
		c0.4-0.4,1-0.8,1.6-0.8c0.9,0,1.3,0.9,1.3,1.7C184.9,9.9,183.1,11.5,181.6,11.5z M182.6,8.1c-0.6,0.5-1.2,1.7-1.4,2.4
		c1,0.3,2.4-0.8,2.7-1.7c0.2-0.5,0.4-1.4-0.6-1.2C183,7.6,182.8,7.9,182.6,8.1z"/>
	<path d="M189.1,3.3c0-0.2,0.2-0.3,0.4-0.3c0.2,0,0.3,0.1,0.3,0.3c-0.1,1.6-0.1,3.3-0.1,4.9c0,0.9,0,1.8,0.1,2.7
		c0,0.3,0.2,2.5,0.4,2.5c0.3,0,0.5,0.3,0.5,0.5c0,0.4-0.3,0.5-0.6,0.5c-1.1,0-1.5-2.2-1.5-4.6C188.7,7.2,189,4.1,189.1,3.3z"/>
	<path d="M197,10.7l0.1,1.2c0,0.2,0,0.4,0,0.6c0.3-0.1,0.5,0.2,0.5,0.5c0,0.2-0.1,0.3-0.2,0.4l-0.2,0.1c0,0,0,0.1,0,0.1l0,0.2
		c0,0.4-0.1,0.6-0.5,0.6c-0.3,0-0.6-0.2-0.6-0.5c-0.8,0.3-2.2,0.8-3,0.8c-1,0-1.7-0.6-1.7-1.6c0-1.6,1.5-3.4,3.1-3.4
		c0.6,0,1.1,0.3,1.5,0.7c0-0.6-0.1-1.2-0.2-1.8c-0.1-0.3-0.1-1.3-0.5-1.3c-0.2,0-0.5,0.3-0.7,0.3c-0.7,0.3-1.3,0.7-1.9,1.1
		C192.6,9,192.5,9,192.4,9c-0.3,0-0.5-0.5-0.2-0.8c0.6-0.4,2.5-1.7,3.3-1.7c0.3,0,0.6,0.2,0.9,0.6c0.5,0.9,0.5,2.1,0.6,3.1
		C197,10.3,197,10.5,197,10.7z M193.3,13.7c0.5,0,2.2-0.6,2.7-0.8c-0.1-0.8-0.6-2.1-1.5-2.1c-0.9,0-1.8,1-1.9,1.9
		c-0.1,0.4-0.2,0.6,0.2,0.8C192.9,13.6,193.1,13.7,193.3,13.7z"/>
	<path d="M202.9,12.9c0.3,0,0.5,0.3,0.5,0.6c0,0.2-0.1,0.4-0.4,0.4c-1.3,0.2-2.6,0.3-3.8,0.7c-0.1,0-0.1,0-0.2,0
		c-0.4,0-0.6-0.5-0.5-0.9c1-2.2,2.1-4.3,3.2-6.4c-1,0-2.1,0.1-3.1,0.2c-0.3,0.1-0.5-0.2-0.5-0.5c0-0.2,0.1-0.3,0.3-0.3
		c1.4-0.2,2.7-0.3,4.1-0.3c0.4,0,0.5,0.4,0.4,0.7c-0.9,2-1.8,4.1-2.8,6.1C201,12.9,202,12.8,202.9,12.9z"/>
	<path d="M209.2,7.1c0.1,2,0.4,4,0.4,6c0,0.7-0.1,1.5-0.2,2.2c-0.1,0.9-0.2,2.4-1.4,2.6c-0.1,0-0.3,0-0.4,0c-0.8,0-1.7-0.4-2.3-1
		c-0.5-0.3,0.1-1.1,0.6-0.8c0.4,0.3,0.9,0.5,1.3,0.6c0.7,0.1,0.8-0.4,0.9-1c0.2-1,0.3-1.9,0.3-2.9c0-0.2,0-0.3,0-0.5
		c-0.4,0.9-1.1,2-2.2,1.9c-1.3-0.1-2-1.5-2.1-2.6c0-0.3-0.1-0.6-0.1-0.9c0-1.4,0.3-2.7,0.5-4.1c0.1-0.5,0.8-0.3,0.7,0.2
		c-0.2,1.2-0.2,2.4-0.2,3.6c0,0.5,0,1,0.2,1.5c0.2,0.5,0.7,1.2,1.3,0.9c0.4-0.2,0.7-0.9,0.8-1.3c0.2-0.4,0.3-0.9,0.4-1.3
		c0.2-1.1,0.2-2.2,0.2-3.3c0-0.3,0.3-0.5,0.5-0.5C208.9,6.6,209.1,6.7,209.2,7.1z"/>
	<path d="M218.7,3.3c0-0.2,0.2-0.4,0.4-0.4c0.2,0,0.3,0.1,0.3,0.3c0,0,0,0,0,0c-0.2,1.9-0.3,3.7-0.4,5.6c0,0.9-0.1,1.8-0.1,2.8
		c0,0.9,0.1,1.9-0.2,2.7c-0.1,0.2-0.3,0.3-0.4,0.3s-0.3-0.1-0.4-0.3c-0.2-0.5-0.2-1.1-0.2-1.8c-0.2,0.2-0.3,0.5-0.5,0.7
		c-1,1.1-2.6,1.9-3.5,0.3c-0.3-0.5-0.4-1.1-0.4-1.7c0-2.7,2.4-5.9,4.9-5C218.5,5.7,218.6,4.5,218.7,3.3z M216,13.2
		c0.5-0.4,1-0.9,1.3-1.5c0.3-0.4,0.5-0.9,0.7-1.4c0-0.5,0.1-1,0.1-1.5c0-0.1,0-0.1,0-0.2c0,0,0,0,0,0c0-0.3,0.1-0.5,0.1-0.7
		c0,0-0.1,0-0.1,0c-2.4-0.8-4.1,2.5-3.6,4.6C214.7,13.4,215.2,13.7,216,13.2z"/>
	<path d="M225.5,10c0,1.7-1.2,4.6-3.1,4.6c-0.3,0-0.6-0.1-0.9-0.2c-1.3-0.7-1.5-2.2-1.4-3.6c-0.1-0.1-0.2-0.2-0.2-0.4
		c0-1.6,0.7-3.8,2.7-3.8C224.5,6.5,225.5,8.2,225.5,10z M222.4,13.5c0.9,0,1.7-1.7,1.9-2.4c0.3-1.2,0.3-3-1.2-3.5
		c-0.2-0.1-0.4-0.1-0.6-0.1c-0.9,0-1.3,0.9-1.5,1.8c-0.2,1.2-0.3,2.8,0.6,3.7C221.9,13.4,222.1,13.5,222.4,13.5z"/>
	<path d="M231.8,7.9c0,1.9,0.1,3.8,0.1,5.8c0,0.5,0,1,0,1.5c0,0.9-0.3,1.8-1.3,2.1c-0.2,0.1-0.4,0.1-0.6,0.1c-0.8,0-1.8-0.4-2.4-0.9
		c-0.4-0.3-0.2-1,0.4-0.8c0.8,0.3,2.5,1.2,2.8-0.1c0.2-0.8,0.1-1.7,0.1-2.5c0-0.2,0-0.3,0-0.5c-0.1,0.3-0.3,0.5-0.5,0.7
		c-1.1,1.4-3.1,1.3-3.9-0.5c-0.2-0.5-0.3-1-0.3-1.5c0-1.2,0.5-2.5,1.1-3.4c0.6-0.8,1.6-1.3,2.5-1.3c0.6,0,1.2,0.2,1.7,0.7
		c0.1,0.1,0.1,0.1,0.1,0.2C231.7,7.5,231.8,7.7,231.8,7.9z M230.3,11.2c0.4-1.1,0.5-2.2,0.5-3.3c0,0,0-0.1,0-0.1
		c-1.1-1-2.6,0.3-3.1,1.4c-0.4,1-0.7,2.3-0.3,3.3c0.4,0.8,1.3,1.1,1.9,0.4C229.8,12.4,230.1,11.8,230.3,11.2z"/>
	<path d="M9.7,20.6C9.8,20.6,9.8,20.6,9.7,20.6c0.3,0,0.4,0.2,0.4,0.4c0,0.2-0.1,0.4-0.4,0.4c-0.9,0.1-1.7,0.2-2.6,0.3
		c0,0,0,0.1,0,0.1c-0.1,0.9,0,1.8,0,2.6c0,0.9,0,1.7,0.1,2.5c0,0.9,0.1,1.7,0.2,2.5c0.1,0.9,0.2,1.7,0.2,2.5c0,0.3-0.3,0.5-0.5,0.5
		c-0.2,0-0.4-0.1-0.5-0.4c-0.4-1.7-0.3-3.5-0.4-5.3c0-0.9,0-1.7,0.1-2.6c0-0.8,0-1.6,0.1-2.5C6.1,21.9,6,21.9,5.7,22
		c-0.4,0.1-0.9,0.2-1.4,0.4c-0.2,0.1-0.4-0.1-0.4-0.3c0-0.1,0.1-0.2,0.2-0.3c0.3-0.2,0.5-0.2,0.7-0.3c0.2-0.1,0.5-0.2,0.7-0.2
		C6.1,21.1,6.4,21,6.9,21C7.8,20.8,8.8,20.7,9.7,20.6z"/>
	<path d="M15.9,21.2c-0.2,1.7-0.2,3.3-0.3,5c0,0.8,0,1.7,0,2.5c0,0.8,0.1,1.6-0.1,2.4c-0.1,0.5-0.9,0.5-1,0c-0.2-0.8-0.1-1.6,0-2.4
		c0-0.5,0.1-1.1,0.1-1.6c-1,0.1-2.1,0.3-3.1,0.4c0,1.5,0.1,3,0.1,4.5c0,0.3-0.2,0.5-0.5,0.5c-0.2,0-0.5-0.2-0.5-0.4
		c-0.1-1-0.2-1.9-0.2-2.9c0-2.7,0.4-5.4,0.7-8c0-0.2,0.2-0.3,0.4-0.3c0.2,0,0.3,0.1,0.3,0.3c-0.2,1.8-0.3,3.6-0.3,5.4
		c0,0.1,0,0.2,0,0.3c1.1-0.2,2.1-0.4,3.1-0.6c0,0,0-0.1,0-0.1c0.1-1.7,0.3-3.3,0.6-5C15.2,20.9,15.9,20.8,15.9,21.2
		C15.9,21.2,15.9,21.2,15.9,21.2z"/>
	<path d="M19.7,30.1c0.5-0.3,1.3,0.5,0.7,0.9c-0.9,0.5-1.8,1-2.7,1.5c-0.1,0.1-0.2,0.1-0.3,0.1c-0.2,0-0.4-0.1-0.4-0.4
		c-0.1-1-0.1-2-0.1-3c0-0.8,0-1.6,0.1-2.5c0-0.9,0-1.8,0.1-2.7c0-0.5,0.1-1,0.1-1.4c0-0.1,0-0.3,0.1-0.4c0,0-0.1,0-0.1-0.1
		c-0.2-0.2-0.1-0.5,0.1-0.6c0.5-0.2,1-0.4,1.5-0.5c0.2-0.1,0.5-0.1,0.7-0.2c0.2,0,0.3-0.1,0.5-0.1s0.3,0,0.5,0.1
		c0.2,0.1,0.3,0.4,0.1,0.6c-0.2,0.2-0.5,0.2-0.8,0.3c-0.2,0-0.4,0.1-0.6,0.1c-0.2,0.1-0.4,0.1-0.6,0.2c-0.2,0.1-0.3,0.1-0.5,0.2
		c0,0.2,0,0.4,0,0.6c0,0.4,0,0.8,0,1.2c0,0.9,0,1.8,0,2.7c0,0.3,0,0.6,0,0.9c0.3-0.1,0.5-0.3,0.8-0.4s0.5-0.3,0.8-0.4
		c0.3-0.2,0.7-0.4,1.1-0.2c0.2,0.1,0.2,0.2,0.2,0.4c0,0,0,0,0,0c0,0,0,0,0,0c0,0.4-0.5,0.5-0.8,0.7c-0.3,0.1-0.6,0.2-0.8,0.3
		c-0.5,0.2-0.9,0.4-1.4,0.6c0,0.8,0,1.6,0,2.5C18.5,30.8,19.1,30.4,19.7,30.1z"/>
	<path d="M30.6,31.4c0.1,0.2,0.2,0.4,0.2,0.6c0,0.1,0,0.2-0.1,0.3c-0.2,0.1-0.6-0.1-0.8-0.4c-0.3-0.5-0.4-0.5-0.6-1
		c-0.1,0.2-0.2,0.3-0.3,0.5c-0.4,0.6-1,1-1.6,1c-0.3,0-0.7-0.1-1-0.4c-0.9-0.7-1.2-1.9-1.4-2.9c-0.2-0.8-0.2-1.4-0.2-2.1
		c0-0.2,0-0.4,0-0.7c0-0.4,0-0.9,0.1-1.4c0-0.5,0.1-1.2,0.3-1.9c0.3-0.9,0.9-2.1,2-2.4c0.2-0.1,0.3-0.1,0.4-0.1c0.9,0,1.6,0.6,2,1.3
		c0.6,0.9,0.7,2.1,0.7,3.2c0.1,1.5-0.1,3.1-0.6,4.6c0,0,0.1,0.1,0.1,0.1C30.1,30.5,30.1,30.6,30.6,31.4z M27.8,31.5
		c0.3-0.1,0.6-0.6,0.8-1.1c0-0.1,0.1-0.1,0.1-0.2c-0.2-0.3-0.4-0.5-0.5-0.8c-0.1-0.2-0.3-0.4-0.4-0.6c-0.2-0.3-0.2-0.3-0.4-0.6
		c-0.1-0.2,0-0.6,0.1-0.6c0.1-0.1,0.4-0.1,0.5,0.1c0.2,0.3,0.2,0.3,0.4,0.6c0.2,0.2,0.3,0.4,0.5,0.6c0.1,0.1,0.1,0.1,0.1,0.2
		c0.3-1.2,0.4-2.3,0.3-3.7c-0.1-0.9-0.2-1.8-0.6-2.6c-0.3-0.6-1.2-1.3-1.8-0.7c-0.5,0.6-0.8,1-1,2.1c-0.1,0.6-0.1,1.1-0.1,1.7
		c0,0.9-0.1,1.8,0.1,2.8c0.1,0.9,0.3,1.8,0.8,2.5C26.9,31.4,27.4,31.6,27.8,31.5z"/>
	<path d="M36.6,21.2c0,0.7,0.1,1.4,0.1,2.1c0,1.3-0.1,2.7-0.2,4c-0.1,0.9-0.3,1.8-0.5,2.8c-0.2,0.7-0.4,1.4-0.8,2
		c-0.3,0.3-0.7,0.5-1.1,0.5c-0.2,0-0.4-0.1-0.6-0.2c-0.5-0.3-0.9-0.9-1.1-1.4c-0.3-0.7-0.4-1.4-0.5-2.1c-0.1-0.8-0.2-1.6-0.2-2.4
		c-0.1-1-0.1-2.1-0.1-3.1c0-0.7,0-1.3,0-2c0-0.4,0.9-0.5,0.9,0c0,1.7-0.1,3.3,0.1,5.1c0.1,1.3,0.3,2.7,0.7,3.9
		c0.1,0.4,0.5,1.1,0.8,1.2c0.1,0.1,0.2-0.1,0.4-0.2c0.2-0.2,0.3-0.5,0.4-0.7c0.5-1.4,0.6-3.1,0.8-4.6c0.2-1.6,0.2-3.1,0.2-4.7
		c0-0.2,0.2-0.3,0.5-0.3C36.4,20.9,36.6,21,36.6,21.2z"/>
	<path d="M39.1,26.6c0,1.5,0.2,3.1,0.2,4.6c0,0.3,0,0.5,0,0.8c0,0.3-0.3,0.5-0.5,0.5c-0.2,0-0.4-0.1-0.4-0.3
		C38.1,31,38,29.8,38,28.5c0-0.6,0-1.2,0-1.8c0-1.9,0.1-3.7,0.2-5.6c0-0.3,0.2-0.4,0.5-0.4c0.2,0,0.4,0.2,0.4,0.4
		C39.1,23,39,24.8,39.1,26.6z"/>
	<path d="M44.9,30.1c0.2-0.5,1.1-0.3,1.1,0.2c0,0.1,0,0.1,0,0.2c-0.4,1.1-1.5,2-2.7,2c-0.2,0-0.5,0-0.7-0.1
		c-1.3-0.4-1.9-1.7-2.2-2.9c-0.2-0.7-0.3-1.5-0.3-2.2c0-0.8,0.1-1.7,0.3-2.5c0.2-0.8,0.4-1.6,0.8-2.3c0.3-0.6,0.7-1.2,1.3-1.5
		c0.3-0.1,0.5-0.2,0.7-0.2c1.2,0,2,1.2,2.4,2.2c0.1,0.4-0.5,0.6-0.6,0.3c-0.3-0.6-0.7-1.6-1.5-1.7c-0.9-0.1-1.2,0.8-1.4,1.4
		c-0.6,1.5-0.9,3-0.8,4.6c0.1,1.2,0.3,2.7,1.3,3.5C43.4,32,44.5,31.1,44.9,30.1z"/>
	<path d="M51.4,29.8c0.2,0.1,0.4,0.2,0.5,0.5c0,0.1,0,0.1,0,0.2c0,0.3-0.3,0.5-0.6,0.5c-0.3,0-0.5-0.2-0.7-0.3
		c-0.2-0.1-0.3-0.2-0.5-0.3c-0.3-0.2-0.6-0.4-0.9-0.6c-0.4-0.3-0.8-0.6-1.2-0.9c0,0.3,0,0.5,0,0.8c0,0.5,0.1,1,0.1,1.5
		c0,0.4,0.1,0.8-0.1,1.1c-0.1,0.2-0.3,0.3-0.4,0.3c-0.1,0-0.2,0-0.2-0.1c-0.4-0.2-0.4-0.6-0.4-1c0-0.5,0-1-0.1-1.5
		c0-1,0-1.9-0.1-2.9c0-0.8,0-1.5,0-2.3c0-1.2,0-2.5,0.2-3.7c0-0.3,0.6-0.4,0.6-0.1c0.2,1.8,0.3,3.6,0.3,5.4c0-0.1,0.1-0.2,0.1-0.2
		c0.3-0.6,0.6-1.2,0.9-1.8c0.6-1.2,1.3-2.5,1.9-3.7c0.1-0.1,0.2-0.2,0.4-0.2c0.2,0,0.5,0.2,0.3,0.4c-0.6,1.2-1.1,2.5-1.6,3.8
		c-0.3,0.6-0.5,1-0.7,1.6c-0.1,0.3-0.3,0.6-0.4,0.9c-0.1,0.2-0.2,0.4-0.3,0.6c0.5,0.4,0.9,0.7,1.4,1c0.4,0.2,0.7,0.5,1,0.7
		C51,29.6,51.2,29.7,51.4,29.8z"/>
	<path d="M59,26.5c1.1,0.1,2,0.9,2.1,2c0,0.1,0,0.1,0,0.2c0,1.2-0.8,2.1-1.7,2.8c-0.6,0.5-1.5,1.1-2.4,1c-0.1,0-0.1,0-0.2,0
		c-0.2,0-0.5-0.1-0.5-0.3c0,0,0-0.1,0-0.1c0,0,0,0,0-0.1c-0.1-0.1-0.1-0.2-0.1-0.3c-0.2-1.6-0.2-3.3-0.3-5c0-1.2-0.1-2.5,0-3.7
		c-0.1,0-0.2-0.1-0.2-0.2c0,0,0-0.1,0-0.1c0.1-0.2,0.2-0.3,0.3-0.4c0-0.3,0.1-0.6,0.1-0.9c0-0.3,0.5-0.3,0.6,0c0,0.1,0,0.1,0,0.2
		c0.4-0.3,0.8-0.6,1.3-0.7c0.3-0.1,0.6-0.1,0.9-0.1c0.7,0,1.2,0.3,1.4,1.1c0.2,1.2-0.3,2.4-0.9,3.5c-0.2,0.4-0.5,0.8-0.7,1.2
		C58.8,26.5,58.9,26.5,59,26.5z M58.2,21.6c-0.6,0.1-1.1,0.4-1.5,0.8c0.1,1.5,0.1,2.9,0.2,4.4c0,0.2,0,0.3,0,0.4c0,0,0,0,0,0
		c1-1.2,2-2.4,2.4-3.9c0.1-0.4,0.2-1,0.1-1.4c-0.1-0.3-0.2-0.4-0.5-0.4C58.6,21.5,58.4,21.5,58.2,21.6z M60,28.8
		c0.2-1.2-1-1.9-2-1.6c-0.3,0.4-0.7,0.7-1.1,1c0,0-0.1,0-0.1,0.1c0.1,1.1,0.2,2.2,0.2,3.3c0.6,0,1.2-0.5,1.6-0.9
		C59.4,30.2,59.9,29.6,60,28.8z"/>
	<path d="M64.3,29c0.7,0.5,1.6,0.8,2.1,1.5c0.2,0.3-0.2,0.6-0.5,0.5c-0.7-0.2-1.2-0.5-1.8-0.9c-0.3-0.2-0.6-0.4-0.9-0.6
		c-0.1-0.1-0.3-0.2-0.4-0.3c0.1,0.9,0.1,1.8,0.1,2.7c0,0.3-0.3,0.5-0.5,0.5c-0.2,0-0.3-0.1-0.4-0.3c-0.3-1.3-0.4-2.7-0.4-4
		c0-0.3,0-0.5,0-0.8c0-1.5,0-3.1,0.1-4.6c-0.1-0.1-0.1-0.3,0.1-0.4c0-0.2,0.2-0.3,0.4-0.3c0.9-0.6,1.6-1.4,2.7-1.5
		c0.1,0,0.1,0,0.1,0c1.2,0.1,1.9,1.2,1.9,2.2c0,0.1,0,0.2,0,0.2c0,2.2-1.9,3.9-3.6,5.3C63.7,28.7,64,28.8,64.3,29z M65.9,23.7
		c0.2-0.7-0.1-2.2-1.1-2.2c-0.8,0-1.5,0.6-2.2,1.1c-0.1,1.6,0,3.1,0.1,4.7c0,0.1,0,0.3,0,0.4c0.6-0.5,1.2-0.9,1.7-1.4
		C65.1,25.6,65.8,24.6,65.9,23.7z"/>
	<path d="M72.5,22.2c0.6,0.9,0.7,2.1,0.7,3.2c0,0.2,0,0.5,0,0.7c0,1.9-0.4,3.9-1.4,5.5c-0.4,0.6-1,0.9-1.6,0.9
		c-0.4,0-0.7-0.1-1.1-0.4c-0.9-0.6-1.2-1.9-1.4-2.8c-0.2-0.8-0.2-1.4-0.2-2.1c0-0.2,0-0.4,0-0.6c0-0.4,0.1-0.8,0.1-1.4
		c0-0.5,0.1-1.2,0.3-1.9c0.3-0.9,0.9-2.1,2-2.4c0.2,0,0.3-0.1,0.5-0.1C71.4,20.9,72.1,21.5,72.5,22.2z M71.6,30.3
		c0.5-1.7,0.8-3.2,0.7-5c-0.1-0.9-0.2-1.8-0.6-2.6c-0.4-0.6-1.2-1.3-1.8-0.7c-0.5,0.6-0.8,1-1,2.1c-0.1,0.6-0.1,1.1-0.1,1.7
		c0,0.9-0.1,1.8,0.1,2.7c0.1,0.9,0.3,1.7,0.8,2.5c0.2,0.4,0.8,0.5,1.1,0.4C71,31.4,71.5,30.8,71.6,30.3z"/>
	<path d="M80.2,21c0.1,0.3,0.1,0.4,0.1,0.6s0,0.3-0.1,0.6c-0.1,0.5-0.1,0.6-0.1,1.1c-0.1,1-0.3,1.9-0.4,2.9
		c-0.2,1.9-0.3,3.9-0.2,5.8c0,0.3-0.3,0.5-0.5,0.5c-0.1,0-0.3-0.1-0.3-0.2c-0.6-1.8-1.3-3.6-1.8-5.5c-0.2,0.5-0.4,1.1-0.6,1.7
		c-0.3,1-0.5,2-0.9,3c-0.1,0.1-0.2,0.2-0.3,0.2c-0.2,0.2-0.6,0.1-0.6-0.2c-0.1-0.9-0.2-1.8-0.2-2.7c-0.1-0.9-0.1-1.7-0.1-2.6
		c0-0.1,0-0.3,0-0.4c0-0.8,0-1.5,0.1-2.3c0-0.4,0.1-0.9,0.2-1.3c0.1-0.4,0.1-0.7,0.4-1c0.1-0.1,0.4-0.2,0.5,0c0.2,0.4,0.1,0.7,0,1.1
		c0,0.4-0.1,0.8-0.1,1.3c0,0.9-0.1,1.8,0,2.7c0,0.9,0.1,1.7,0.1,2.5c0.1-0.2,0.1-0.4,0.2-0.6c0.3-1.1,0.6-2.1,1.1-3.1
		c0.2-0.4,0.8-0.4,0.9,0.1c0.3,1.4,0.7,2.7,1.1,4.1c0-1,0.1-2,0.2-3s0.2-2,0.3-2.9c0.1-0.5,0.1-0.7,0.2-1.2s0.1-0.6,0.4-1.1
		c0.1-0.1,0.2-0.2,0.3-0.2C80.1,20.9,80.2,20.9,80.2,21z"/>
	<path d="M85.9,21.2c0-0.2,0.2-0.3,0.4-0.3c0.2,0,0.4,0.1,0.4,0.4c0,0,0,0,0,0.1c-0.4,3.8-0.5,7-0.2,10.8c0,0.3-0.2,0.4-0.4,0.4
		c-0.2,0-0.4-0.1-0.5-0.3c-1.3-2.3-2.3-4.6-3.3-7c0,0.6,0,1.2,0.1,1.8c0.1,1.5,0.3,3,0.5,4.5c0.1,0.6-1,0.7-1.1,0.1
		c-0.3-1.5-0.4-3.1-0.5-4.6c0-0.6,0-1.2,0-1.7c0-1,0-1.9,0.1-2.9c0-0.4,0.8-0.5,1-0.1c0.9,2.6,1.9,5.2,3.1,7.6
		C85.4,26.8,85.5,24.3,85.9,21.2z"/>
	<path d="M95,20.8c0.2,0.1,0.4,0.2,0.4,0.4c0,0.1,0,0.1,0,0.1c-0.1,0.2-0.2,0.3-0.4,0.3h0c-0.3,0.1-0.7,0-1,0c-0.3,0-0.6,0-0.9,0.1
		c-0.5,0-0.9,0.1-1.4,0.2c-0.1,1-0.1,2-0.1,2.9c0.4-0.1,0.7-0.2,1.1-0.3c0.3,0,0.6-0.1,0.9-0.1c0.3,0,0.7-0.1,1.1,0.1
		c0.2,0.1,0.3,0.2,0.3,0.4c0,0.2-0.1,0.3-0.3,0.4c-0.2,0.1-0.4,0.1-0.6,0.1c-0.1,0-0.2,0-0.4,0c-0.3,0-0.5,0.1-0.8,0.1
		c-0.4,0.1-0.9,0.2-1.3,0.3c0,0.4,0,0.7,0,1.1c0,0.9,0,1.8,0.1,2.6c0,0.8,0.2,1.8,0,2.6c-0.1,0.2-0.3,0.4-0.5,0.4
		c-0.2,0-0.3-0.1-0.4-0.3c-0.4-0.8-0.3-1.9-0.3-2.8c0-0.4,0-0.8,0-1.2c0-0.5,0-0.9,0-1.4c0-1.7,0.2-3.4,0.3-5.2c0,0,0,0,0-0.1
		c0-0.1,0.1-0.2,0.2-0.3c0.1-0.1,0.2-0.1,0.3-0.1c0.6-0.1,1.2-0.3,1.8-0.3c0.3-0.1,0.6-0.1,0.9-0.1c0.2,0,0.3,0,0.5,0
		c0.1,0,0.3,0,0.4,0C94.9,20.8,94.9,20.8,95,20.8z"/>
	<path d="M100.7,22.2c0.6,0.9,0.7,2.1,0.7,3.2c0,0.2,0,0.5,0,0.7c0,1.9-0.4,3.9-1.4,5.5c-0.4,0.6-1,0.9-1.6,0.9
		c-0.4,0-0.7-0.1-1.1-0.4c-0.9-0.6-1.2-1.9-1.4-2.8c-0.2-0.8-0.2-1.4-0.2-2.1c0-0.2,0-0.4,0-0.6c0-0.4,0.1-0.8,0.1-1.4
		c0-0.5,0.1-1.2,0.3-1.9c0.3-0.9,0.9-2.1,2-2.4c0.2,0,0.3-0.1,0.5-0.1C99.5,20.9,100.3,21.5,100.7,22.2z M99.8,30.3
		c0.5-1.7,0.8-3.2,0.7-5c-0.1-0.9-0.2-1.8-0.6-2.6c-0.4-0.6-1.2-1.3-1.8-0.7c-0.5,0.6-0.8,1-1,2.1C97,24.8,97,25.3,97,25.8
		c0,0.9-0.1,1.8,0.1,2.7c0.1,0.9,0.3,1.7,0.8,2.5c0.2,0.4,0.8,0.5,1.1,0.4C99.2,31.4,99.6,30.8,99.8,30.3z"/>
	<path d="M107.1,31.9c0,0.1,0,0.1,0,0.1c0,0.3-0.5,0.5-0.7,0.2c-0.6-1-1.1-1.9-1.6-2.8c-0.2-0.5-0.4-1-0.6-1.5
		c-0.2,0.5-0.3,1-0.4,1.4c-0.2,0.5-0.3,1-0.4,1.5c-0.2,0.5-0.2,1-0.5,1.4c-0.1,0.1-0.2,0.1-0.2,0.1c-0.1,0-0.3-0.1-0.3-0.2
		c-0.1-0.5,0.1-1,0.1-1.5c0.1-0.5,0.2-1.1,0.4-1.6c0.2-0.9,0.5-1.8,0.8-2.7c-0.3-0.9-0.7-1.9-1-2.8c-0.2-0.5-0.3-1-0.4-1.5
		c-0.1-0.3-0.1-0.5-0.1-0.7c0-0.1,0-0.2,0-0.4c0.1-0.2,0.4-0.4,0.5-0.2c0.3,0.4,0.3,0.5,0.5,1c0.2,0.4,0.3,0.9,0.4,1.3
		c0.2,0.6,0.4,1.2,0.6,1.8c0.2-0.6,0.4-1.2,0.7-1.8c0.4-1,0.6-1.2,1.1-2.2c0.1-0.1,0.2-0.2,0.3-0.2c0.2,0,0.4,0.2,0.3,0.4
		c-0.4,1-0.4,1.3-0.8,2.3c-0.4,1-0.7,2-1.1,3c0,0,0,0,0,0c0.4,0.9,0.8,1.9,1.2,2.8C106.3,30.1,106.7,31,107.1,31.9z"/>
	<path d="M116.6,20.3c0,0,0.1,0,0.1,0c0.2,0,0.4,0.1,0.4,0.4c0,0,0,0,0,0c0,0.3-0.2,0.4-0.5,0.5c-0.4,0.1-0.8,0.1-1.2,0.2
		c0.3,1.7,0.3,3.6,0.2,5.3c-0.1,1.6-0.4,3.3-1.1,4.8c-0.3,0.6-0.7,1-1.4,1c0,0,0,0,0,0c-0.6,0-1.1-0.3-1.4-0.7
		c-0.4-0.5-0.7-1.3-0.7-2c0-0.3,0.1-0.5,0.2-0.7c0.1-0.2,0.5-0.1,0.6,0.1c0.2,0.2,0.2,0.6,0.3,0.9c0.1,0.4,0.3,0.6,0.5,0.9
		c0.2,0.3,0.7,0.6,1,0.2c0.4-0.5,0.5-1,0.7-1.6c0.3-1.3,0.4-2.7,0.4-4c0-1.3-0.2-2.7-0.1-4c-0.5,0.1-1,0.3-1.4,0.4
		c-0.2,0.1-0.4-0.1-0.4-0.2c-0.1-0.2,0.1-0.4,0.3-0.4C114.1,20.9,115.3,20.5,116.6,20.3z"/>
	<path d="M123,21.2c0,0.7,0.1,1.4,0.1,2.1c0,1.3-0.1,2.7-0.2,4c-0.1,0.9-0.3,1.8-0.5,2.8c-0.2,0.7-0.4,1.4-0.8,2
		c-0.3,0.3-0.7,0.5-1.1,0.5c-0.2,0-0.4-0.1-0.6-0.2c-0.5-0.3-0.9-0.9-1.1-1.4c-0.3-0.7-0.4-1.4-0.5-2.1c-0.1-0.8-0.2-1.6-0.2-2.4
		c-0.1-1-0.1-2.1-0.1-3.1c0-0.7,0-1.3,0-2c0-0.4,0.9-0.5,0.9,0c0,1.7-0.1,3.3,0.1,5.1c0.1,1.3,0.3,2.7,0.7,3.9
		c0.1,0.4,0.5,1.1,0.8,1.2c0.1,0.1,0.2-0.1,0.4-0.2c0.2-0.2,0.3-0.5,0.4-0.7c0.5-1.4,0.6-3.1,0.8-4.6c0.2-1.6,0.2-3.1,0.2-4.7
		c0-0.2,0.2-0.3,0.5-0.3C122.8,20.9,123,21,123,21.2z"/>
	<path d="M130.3,26.1c0.2,2,0.5,3.9,0.5,5.8c0,0.3-0.3,0.5-0.6,0.5c-0.2,0-0.4-0.1-0.5-0.4c-0.3-2.4-0.6-5.9-0.8-8.4
		c-0.3,1.6-0.7,3.1-1.1,4.7c-0.1,0.5-0.7,0.6-1.1,0.4c-0.5-0.3-0.8-0.9-1-1.4c-0.3-0.7-0.4-0.8-0.5-1.2c-0.1-0.1-0.3-0.8-0.3-1
		c-0.1,1.8-0.2,4.4-0.3,6.2c0,0.5-0.8,0.4-0.8-0.1c0.1-3.1,0.2-6.1,0.4-9.2c0-0.5,1-0.6,1.1-0.1c0.2,1.2,0.6,2.4,1,3.5
		c0.2,0.6,0.5,1.2,0.7,1.9c0,0,0.1,0.1,0.1,0.1c0.6-2.4,1.2-4,1.8-6.4c0.1-0.3,0.3-0.4,0.5-0.4c0.3,0,0.6,0.2,0.6,0.5
		C130,23.2,130.1,24.3,130.3,26.1z"/>
	<path d="M136.3,21.2c0.4,0.4,0.6,0.8,0.6,1.4c0,0.5-0.1,1-0.3,1.4c-0.4,0.9-1.1,1.7-1.8,2.4c-0.7,0.6-1.4,1.2-2.2,1.4c0,0,0,0,0,0
		c0,0.8,0.1,1.6,0.1,2.4c0,0.5,0.1,0.9,0.1,1.4c0,0.4,0.1,0.2,0,0.6c-0.1,0.2-0.3,0.4-0.5,0.4c-0.1,0-0.3-0.1-0.3-0.2
		c-0.3-0.8-0.2-1.1-0.2-2s0-1.7,0-2.5c0-1.6,0.1-3.1,0.3-4.6c-0.2,0-0.3-0.1-0.3-0.2c0-0.1,0-0.1,0.1-0.1c0.6-0.7,1.1-1.4,1.9-1.7
		c0.4-0.2,0.9-0.3,1.4-0.3C135.4,20.7,135.9,20.8,136.3,21.2z M134.8,24.9c0.6-0.7,1.3-1.8,1-2.7c-0.2-0.8-1.3-0.7-2-0.4
		c-0.4,0.2-0.4,0.2-0.8,0.5c-0.1,0.1-0.2,0.2-0.3,0.2c-0.2,1.4-0.1,2.5-0.2,4.2c0.1,0,0.1,0,0.2-0.1
		C133.5,26.2,134.2,25.6,134.8,24.9z"/>
	<path d="M138.8,23.3c0,1.4,1.6,2.6,2.5,3.6c0.9,1,1.9,2.3,1.7,3.7c-0.2,1.2-1.4,1.9-2.6,1.9c-0.1,0-0.2,0-0.3,0
		c-1.2-0.1-2.2-0.9-2.5-2c0,0,0-0.1,0-0.1c0-0.3,0.7-0.6,0.9-0.3c0.4,0.5,0.8,1.1,1.5,1.3c0.6,0.2,1.4,0,1.8-0.5
		c0.9-1.3-0.7-2.9-1.5-3.8c-1-1-2.2-2.1-2.4-3.5c-0.2-1.3,1-2.4,2.4-2.7c0.2-0.1,0.5-0.1,0.7-0.1c1.1,0,2,0.6,2.4,1.7c0,0,0,0,0,0.1
		c0,0.3-0.7,0.4-0.8,0.1c-0.3-0.9-1.1-1.3-2.1-1C139.5,21.9,138.8,22.4,138.8,23.3z"/>
	<path d="M151.8,22.2c0.6,0.9,0.7,2.1,0.7,3.2c0,0.2,0,0.5,0,0.7c0,1.9-0.4,3.9-1.4,5.5c-0.4,0.6-1,0.9-1.6,0.9
		c-0.4,0-0.7-0.1-1.1-0.4c-0.9-0.6-1.2-1.9-1.4-2.8c-0.2-0.8-0.2-1.4-0.2-2.1c0-0.2,0-0.4,0-0.6c0-0.4,0.1-0.8,0.1-1.4
		c0-0.5,0.1-1.2,0.3-1.9c0.3-0.9,0.9-2.1,2-2.4c0.2,0,0.3-0.1,0.5-0.1C150.6,20.9,151.4,21.5,151.8,22.2z M150.9,30.3
		c0.5-1.7,0.8-3.2,0.7-5c-0.1-0.9-0.2-1.8-0.6-2.6c-0.4-0.6-1.2-1.3-1.8-0.7c-0.5,0.6-0.8,1-1,2.1c-0.1,0.6-0.1,1.1-0.1,1.7
		c0,0.9-0.1,1.8,0.1,2.7c0.1,0.9,0.3,1.7,0.8,2.5c0.2,0.4,0.8,0.5,1.1,0.4C150.3,31.4,150.7,30.8,150.9,30.3z"/>
	<path d="M157.9,21c0.1-0.2,0.3-0.3,0.5-0.3c0.2,0,0.4,0.1,0.4,0.3c0,0,0,0.1,0,0.1c-0.6,1.8-1.1,3.6-1.5,5.5
		c-0.4,1.9-0.7,3.7-1,5.6c0,0.2-0.3,0.3-0.5,0.3c-0.2,0-0.4-0.1-0.4-0.3c-0.5-1.7-0.9-3.4-1.2-5.1c-0.2-0.9-0.3-1.7-0.5-2.6
		c-0.1-0.8-0.3-1.7-0.3-2.6c0,0,0,0,0,0c0-0.5,0.9-0.6,1-0.1c0.2,0.8,0.2,1.7,0.3,2.6c0.1,0.8,0.2,1.7,0.4,2.5c0.2,1,0.4,2,0.6,2.9
		C156.1,26.9,156.9,23.9,157.9,21z"/>
	<path d="M162.2,30.1c0.5-0.3,1.3,0.5,0.7,0.9c-0.9,0.5-1.8,1-2.7,1.5c-0.1,0.1-0.2,0.1-0.3,0.1c-0.2,0-0.4-0.1-0.4-0.4
		c-0.1-1-0.1-2-0.1-3c0-0.8,0-1.6,0.1-2.5c0-0.9,0-1.8,0.1-2.7c0-0.5,0.1-1,0.1-1.4c0-0.1,0-0.3,0.1-0.4c0,0-0.1,0-0.1-0.1
		c-0.2-0.2-0.1-0.5,0.1-0.6c0.5-0.2,1-0.4,1.5-0.5c0.2-0.1,0.5-0.1,0.7-0.2c0.2,0,0.3-0.1,0.5-0.1s0.3,0,0.5,0.1
		c0.2,0.1,0.3,0.4,0.1,0.6c-0.2,0.2-0.5,0.2-0.8,0.3c-0.2,0-0.4,0.1-0.6,0.1c-0.2,0.1-0.4,0.1-0.6,0.2c-0.2,0.1-0.3,0.1-0.5,0.2
		c0,0.2,0,0.4,0,0.6c0,0.4,0,0.8,0,1.2c0,0.9,0,1.8,0,2.7c0,0.3,0,0.6,0,0.9c0.3-0.1,0.5-0.3,0.8-0.4s0.5-0.3,0.8-0.4
		c0.3-0.2,0.7-0.4,1.1-0.2c0.2,0.1,0.2,0.2,0.2,0.4c0,0,0,0,0,0c0,0,0,0,0,0c0,0.4-0.5,0.5-0.8,0.7c-0.3,0.1-0.6,0.2-0.8,0.3
		c-0.5,0.2-0.9,0.4-1.4,0.6c0,0.8,0,1.6,0,2.5C161,30.8,161.6,30.4,162.2,30.1z"/>
	<path d="M166.6,29c0.7,0.5,1.6,0.8,2.1,1.5c0.2,0.3-0.2,0.6-0.5,0.5c-0.7-0.2-1.2-0.5-1.8-0.9c-0.3-0.2-0.6-0.4-0.9-0.6
		c-0.1-0.1-0.3-0.2-0.4-0.3c0.1,0.9,0.1,1.8,0.1,2.7c0,0.3-0.3,0.5-0.5,0.5c-0.2,0-0.3-0.1-0.4-0.3c-0.3-1.3-0.4-2.7-0.4-4
		c0-0.3,0-0.5,0-0.8c0-1.5,0-3.1,0.1-4.6c-0.1-0.1-0.1-0.3,0.1-0.4c0-0.2,0.2-0.3,0.4-0.3c0.9-0.6,1.6-1.4,2.7-1.5
		c0.1,0,0.1,0,0.1,0c1.2,0.1,1.9,1.2,1.9,2.2c0,0.1,0,0.2,0,0.2c0,2.2-1.9,3.9-3.6,5.3C166.1,28.7,166.4,28.8,166.6,29z M168.3,23.7
		c0.2-0.7-0.1-2.2-1.1-2.2c-0.8,0-1.5,0.6-2.2,1.1c-0.1,1.6,0,3.1,0.1,4.7c0,0.1,0,0.3,0,0.4c0.6-0.5,1.2-0.9,1.7-1.4
		C167.5,25.6,168.1,24.6,168.3,23.7z"/>
	<path d="M179,20.6C179,20.6,179,20.6,179,20.6c0.3,0,0.4,0.2,0.4,0.4c0,0.2-0.1,0.4-0.4,0.4c-0.9,0.1-1.7,0.2-2.6,0.3
		c0,0,0,0.1,0,0.1c-0.1,0.9,0,1.8,0,2.6c0,0.9,0,1.7,0.1,2.5c0,0.9,0.1,1.7,0.2,2.5c0.1,0.9,0.2,1.7,0.2,2.5c0,0.3-0.3,0.5-0.5,0.5
		c-0.2,0-0.4-0.1-0.5-0.4c-0.4-1.7-0.3-3.5-0.4-5.3c0-0.9,0-1.7,0.1-2.6c0-0.8,0-1.6,0.1-2.5c-0.3,0.1-0.4,0.1-0.7,0.1
		c-0.4,0.1-0.9,0.2-1.4,0.4c-0.2,0.1-0.4-0.1-0.4-0.3c0-0.1,0.1-0.2,0.2-0.3c0.3-0.2,0.5-0.2,0.7-0.3c0.2-0.1,0.5-0.2,0.7-0.2
		c0.5-0.1,0.9-0.2,1.4-0.3C177.1,20.8,178,20.7,179,20.6z"/>
	<path d="M185.1,21.2c-0.2,1.7-0.2,3.3-0.3,5c0,0.8,0,1.7,0,2.5c0,0.8,0.1,1.6-0.1,2.4c-0.1,0.5-0.9,0.5-1,0c-0.2-0.8-0.1-1.6,0-2.4
		c0-0.5,0.1-1.1,0.1-1.6c-1,0.1-2.1,0.3-3.1,0.4c0,1.5,0.1,3,0.1,4.5c0,0.3-0.2,0.5-0.5,0.5c-0.2,0-0.5-0.2-0.5-0.4
		c-0.1-1-0.2-1.9-0.2-2.9c0-2.7,0.4-5.4,0.7-8c0-0.2,0.2-0.3,0.4-0.3c0.2,0,0.3,0.1,0.3,0.3c-0.2,1.8-0.3,3.6-0.3,5.4
		c0,0.1,0,0.2,0,0.3c1.1-0.2,2.1-0.4,3.1-0.6c0,0,0-0.1,0-0.1c0.1-1.7,0.3-3.3,0.6-5C184.4,20.9,185.1,20.8,185.1,21.2
		C185.1,21.2,185.1,21.2,185.1,21.2z"/>
	<path d="M188.9,30.1c0.5-0.3,1.3,0.5,0.7,0.9c-0.9,0.5-1.8,1-2.7,1.5c-0.1,0.1-0.2,0.1-0.3,0.1c-0.2,0-0.4-0.1-0.4-0.4
		c-0.1-1-0.1-2-0.1-3c0-0.8,0-1.6,0.1-2.5c0-0.9,0-1.8,0.1-2.7c0-0.5,0.1-1,0.1-1.4c0-0.1,0-0.3,0.1-0.4c0,0-0.1,0-0.1-0.1
		c-0.2-0.2-0.1-0.5,0.1-0.6c0.5-0.2,1-0.4,1.5-0.5c0.2-0.1,0.5-0.1,0.7-0.2c0.2,0,0.3-0.1,0.5-0.1c0.2,0,0.3,0,0.5,0.1
		c0.2,0.1,0.3,0.4,0.1,0.6c-0.2,0.2-0.5,0.2-0.8,0.3c-0.2,0-0.4,0.1-0.6,0.1c-0.2,0.1-0.4,0.1-0.6,0.2c-0.2,0.1-0.3,0.1-0.5,0.2
		c0,0.2,0,0.4,0,0.6c0,0.4,0,0.8,0,1.2c0,0.9,0,1.8,0,2.7c0,0.3,0,0.6,0,0.9c0.3-0.1,0.5-0.3,0.8-0.4c0.3-0.1,0.5-0.3,0.8-0.4
		c0.3-0.2,0.7-0.4,1.1-0.2c0.2,0.1,0.2,0.2,0.2,0.4c0,0,0,0,0,0c0,0,0,0,0,0c0,0.4-0.5,0.5-0.8,0.7c-0.3,0.1-0.6,0.2-0.8,0.3
		c-0.5,0.2-0.9,0.4-1.4,0.6c0,0.8,0,1.6,0,2.5C187.7,30.8,188.3,30.4,188.9,30.1z"/>
	<path d="M198.1,29.4c0.4-0.1,0.8,0.1,0.8,0.4c0,0.1-0.1,0.2-0.2,0.3c-1.4,0.7-2.8,1.4-4.1,2.2c-0.2,0.1-0.3,0.2-0.4,0.2
		c-0.2,0-0.2-0.2-0.2-0.6c0,0,0-0.1,0-0.1c0-2,0.1-3.9,0.1-5.8c0-1,0-2.2,0-3.1c0-1,0-1.1,0.3-2c0-0.1,0.2-0.2,0.3-0.2
		c0.1,0,0.3,0.1,0.3,0.2c0.2,0.9,0.1,1.3,0.1,2.2c0,1,0,2,0,2.9c0,1.4,0,3.2,0,4.9C196,30.4,197.1,29.7,198.1,29.4z"/>
	<path d="M205,31c0.1,0.3,0.2,0.6,0.2,0.9c0,0.1,0,0.2-0.1,0.4c-0.1,0.2-0.5,0.3-0.6,0.1c-0.3-0.3-0.5-0.8-0.6-1.3
		c-0.1-0.5-0.2-0.9-0.3-1.3c0,0,0-0.1,0-0.1c-1,0.2-1.7,0.3-2.7,0.4c-0.2,0.8-0.4,1.3-0.6,2.1c-0.1,0.2-0.2,0.2-0.4,0.2
		c-0.2,0-0.3-0.1-0.3-0.3v0c0.1-1.8,0.5-3.7,0.9-5.5c0.4-1.8,1-3.6,1.6-5.4c0.1-0.2,0.3-0.3,0.4-0.3c0.2,0,0.4,0.1,0.4,0.3
		c0.5,1.8,0.9,3.6,1.3,5.5c0.2,0.9,0.4,1.9,0.6,2.8C204.8,30.1,204.9,30.6,205,31z M201.1,29.2c0.9-0.2,1.4-0.2,2.3-0.2
		c-0.1-0.7-0.3-1.6-0.4-2.3c-0.3-1.4-0.3-2-0.5-3.4c-0.3,1.3-0.5,2.2-0.8,3.6C201.5,27.7,201.3,28.4,201.1,29.2z"/>
	<path d="M211.1,30.9c0.7,0.1,0.5,1.1-0.2,1c-1.5-0.2-3-0.2-4.4,0.5c-0.1,0-0.1,0-0.2,0c-0.3,0-0.5-0.2-0.5-0.4c0-0.1,0-0.1,0.1-0.2
		c0.9-1.8,1.7-3.5,2.6-5.3c0.4-0.9,0.9-1.7,1.3-2.6c0.2-0.5,0.4-0.9,0.7-1.3c0.2-0.3,0.3-0.6,0.5-1c-1.3,0.1-2.6,0.1-4,0.2
		c-0.7,0.1-0.3-0.7-0.1-0.7c1.4-0.1,3.1-0.3,4.5-0.4c0,0,0.1,0,0.1,0c0.4,0,0.6,0.2,0.6,0.5c0,0.5-0.7,1.8-1.1,2.6
		c-0.4,0.9-0.9,1.8-1.3,2.7c-0.7,1.5-1.5,3.1-2.2,4.6C208.7,30.8,209.8,30.8,211.1,30.9z"/>
	<path d="M216.9,20.7c0.1-0.2,0.7-0.3,0.7,0c0,0,0,0,0,0c-0.4,2.2-0.9,3.2-1.4,5.3c-0.3,1.1-0.6,2.2-0.8,3.2
		c-0.1,0.5-0.3,1.1-0.4,1.6c-0.1,0.5-0.2,1-0.5,1.4c-0.1,0.1-0.2,0.2-0.4,0.2c-0.1,0-0.2,0-0.3-0.1c-0.3-0.4-0.1-0.9,0-1.3
		c0.1-0.6,0.3-1.1,0.4-1.7c0.3-1,0.5-1.9,0.8-2.9c-0.3-0.3-0.4-0.8-0.6-1.1c-0.3-0.6-0.5-1.1-0.7-1.7c-0.5-1.2-0.7-1.6-1-2.9
		c0,0,0,0,0-0.1c0-0.2,0.2-0.3,0.3-0.3c0.1,0,0.2,0.1,0.2,0.1c0.6,1,0.8,1.3,1.3,2.4c0.3,0.5,0.5,1.1,0.8,1.6
		c0.1,0.1,0.1,0.2,0.2,0.4C216,23.2,216.2,22.4,216.9,20.7z"/>
	<path d="M225.8,21.3c0.7,0.6,1,1.4,1,2.3c0,0.5-0.1,1-0.2,1.5c-0.4,1.4-1.1,2.8-1.8,4c-0.6,1.1-1.4,2.3-2.3,3.2
		c-0.1,0.1-0.3,0.1-0.4,0.1c-0.3,0-0.6-0.2-0.4-0.5c0,0,0,0,0,0c-0.1-0.7-0.1-1.6,0-2.3c0-0.9,0-1.7,0-2.6c0-1.7,0-3.2,0.3-4.8
		c-0.3,0.1-0.5-0.2-0.5-0.5c0-0.1,0.1-0.2,0.2-0.3c0.8-0.4,1.7-0.8,2.6-0.8C224.7,20.7,225.3,20.9,225.8,21.3z M225.3,26.2
		c0.6-1.3,1-2.7,0.2-4c-0.7-1.1-1.8-0.7-2.9-0.3c0,0,0,0.1,0,0.1c0.2,1.7,0,3.2,0,4.9c0,0.9,0,1.7,0,2.6c0,0.4,0,0.8,0,1.2
		c0.4-0.4,0.7-0.9,1-1.3C224.3,28.3,224.8,27.3,225.3,26.2z"/>
	<path d="M232.3,22.2c0.6,0.9,0.7,2.1,0.7,3.2c0,0.2,0,0.5,0,0.7c0,1.9-0.4,3.9-1.4,5.5c-0.4,0.6-1,0.9-1.6,0.9
		c-0.4,0-0.7-0.1-1.1-0.4c-0.8-0.6-1.2-1.9-1.4-2.8c-0.2-0.8-0.2-1.4-0.2-2.1c0-0.2,0-0.4,0-0.6c0-0.4,0.1-0.8,0.1-1.4
		c0-0.5,0.1-1.2,0.3-1.9c0.3-0.9,0.9-2.1,2-2.4c0.2,0,0.3-0.1,0.5-0.1C231.1,20.9,231.9,21.5,232.3,22.2z M231.4,30.3
		c0.5-1.7,0.8-3.2,0.7-5c-0.1-0.9-0.2-1.8-0.6-2.6c-0.4-0.6-1.2-1.3-1.8-0.7c-0.5,0.6-0.8,1-1,2.1c-0.1,0.6-0.1,1.1-0.1,1.7
		c0,0.9-0.1,1.8,0.1,2.7c0.1,0.9,0.3,1.7,0.8,2.5c0.2,0.4,0.8,0.5,1.1,0.4C230.8,31.4,231.2,30.8,231.4,30.3z"/>
	<path d="M238.7,26.4c0.2-0.1,0.5,0.1,0.5,0.3c0,0,0,0.1,0,0.1c-0.3,1-0.6,2-1,2.9c-0.3,0.8-0.7,1.7-1.4,2.3c-0.3,0.3-0.6,0.4-1,0.4
		c-0.2,0-0.4-0.1-0.6-0.2c-0.6-0.4-0.8-1.2-1-1.9c-0.4-1.3-0.5-2.7-0.5-4c0-0.5,0-1,0.1-1.4c0.1-1.3,0.3-3.6,1.9-4
		c0.1,0,0.3-0.1,0.4-0.1c1.3,0,1.9,1.7,2,2.8c0.1,0.6-0.8,0.7-0.9,0.2c0-0.6-0.3-1.5-0.9-1.8c-0.7-0.4-1.1,0.8-1.2,1.2
		c-0.4,1.6-0.4,3.5-0.2,5.1c0.1,0.8,0.2,1.2,0.4,2c0.1,0.3,0.2,0.6,0.5,0.8c0.4,0.3,0.6-0.1,0.8-0.4c0.8-1.2,1.1-2,1.6-3.2
		c-0.8,0.4-1.3,0.7-1.8,1.4c-0.5,0.5-1.3-0.2-0.8-0.6C236.4,27.4,237.5,26.7,238.7,26.4z"/>
</g>
</svg>
