<?xml version="1.0" encoding="utf-8"?>
<!-- Generator: Adobe Illustrator 26.1.0, SVG Export Plug-In . SVG Version: 6.00 Build 0)  -->
<svg version="1.1" id="Layer_1" xmlns="http://www.w3.org/2000/svg" xmlns:xlink="http://www.w3.org/1999/xlink" x="0px" y="0px"
	 viewBox="0 0 372 36.9" style="enable-background:new 0 0 372 36.9;" xml:space="preserve">
<g>
	<path d="M10.4,5.9c0.3,0,0.5,0.3,0.4,0.6C10.7,6.7,10.5,7,10.1,7c-0.6,0-1.3-0.1-1.9-0.1C7.6,8.5,7,10.8,6.9,12.4
		c0,0.2,0,0.5,0.1,0.6c0,0,0.2,0.3,0.3,0.3c0,0,0.1,0,0.1-0.1c0.1-0.2,0.4-0.4,0.6-0.4c0.3,0,0.5,0.2,0.4,0.5c-0.2,0.6-0.7,1-1.3,1
		c-0.2,0-0.4-0.1-0.6-0.2c-0.8-0.6-0.6-1.9-0.4-2.9c0.3-1.5,0.7-3,1.3-4.4L6.8,7C6.6,7,6.4,7,6.2,7C5.9,7.1,5.7,6.8,5.8,6.5
		c0-0.2,0.2-0.3,0.4-0.4C6.7,6.1,7.2,6,7.7,6C8,5,8.4,4.1,8.8,3.2C8.9,3,9.1,2.9,9.2,2.9c0.2,0,0.4,0.2,0.3,0.5
		C9.1,4.2,8.8,5,8.5,5.9C9.1,5.8,9.7,5.8,10.4,5.9z"/>
	<path d="M16.2,9.3c0,0.7-0.1,1.5-0.3,2.3c-0.2,0.9-0.5,1.8-1,2.6c-0.1,0.2-0.3,0.3-0.5,0.3c-0.2,0-0.4-0.1-0.3-0.4
		c0.3-1.3,0.8-2.5,1-3.8c0.1-0.7,0.3-3-0.7-2.9c-0.9,0.1-1.9,2.4-2.2,3.1c-0.5,1.1-0.7,2.3-1,3.4c-0.2,0.7-1.1,0.6-1.1,0
		c0.2-1.9,0.5-3.7,0.9-5.6c0.4-1.6,0.9-3.3,1.4-4.9c0.1-0.3,0.3-0.4,0.5-0.4c0.2,0,0.4,0.1,0.3,0.4c-0.6,2-1.1,3.9-1.5,5.9
		c0-0.1,0.1-0.2,0.1-0.2c0.5-0.9,1.6-2.9,2.8-2.8C15.9,6.4,16.2,8.2,16.2,9.3z"/>
	<path d="M22.1,8.8c-0.6,1.3-2.5,2.7-3.9,2.7c-0.2,0-0.4,0-0.5-0.1c-0.2,0.4-0.2,0.8-0.1,1.2c0.2,0.6,0.6,0.8,1.1,0.8
		c0.6,0,1.2-0.3,1.8-0.5c0.1-0.1,0.2-0.1,0.2-0.1c0.3,0,0.4,0.4,0.1,0.7c-0.7,0.6-1.6,1-2.4,1c-1,0-1.8-0.5-2-1.5
		c-0.1-0.3-0.1-0.7,0-1.1c0.4-1.6,1.8-3.4,3-4.4c0.5-0.4,1.2-0.8,1.8-0.8c0.2,0,0.4,0.1,0.5,0.2c0.5,0.3,0.6,0.9,0.4,1.5
		C22.2,8.5,22.2,8.7,22.1,8.8z M20.1,8.1c-0.7,0.5-1.6,1.6-2,2.4c1,0.3,2.5-0.8,3-1.7c0.3-0.5,0.7-1.4-0.3-1.2
		C20.6,7.6,20.3,7.9,20.1,8.1z"/>
	<path d="M31,15.7c0,0.1,0,0.1,0,0.2c-0.3,1.2-1.3,1.9-2.1,1.9c-0.7,0-1.2-0.4-1.3-1.4c0-0.7,0.2-1.5,0.5-2.3c0,0-0.1,0-0.1,0.1
		c-1.6,1.1-2.8,0.1-2.8-1.4c0-0.3,0.1-0.7,0.1-1.1c0.3-1.4,1.2-3,2.4-4c0.6-0.5,1.4-0.9,2-0.9C30.4,6.6,31,7,31,7.9
		c0.2,0.1,0.2,0.3,0.1,0.5c-0.6,1.7-1.2,3.5-1.8,5.2c-0.2,0.7-0.5,1.4-0.6,2.1c-0.1,0.4-0.2,1.5,0.7,1.1c0.4-0.2,0.6-0.7,0.8-1.1
		C30.4,15.1,31,15.2,31,15.7z M27.9,12.9c0.4-0.4,0.7-0.9,0.9-1.3c0.2-0.4,0.4-0.8,0.6-1.2c0.3-0.7,0.6-1.4,0.8-2.2c0,0,0-0.1,0-0.1
		c0-1.2-1.5-0.4-2.1,0.2c-0.4,0.4-0.7,0.9-1,1.4c-0.5,1-1,2.1-0.8,3C26.5,13.6,27.2,13.5,27.9,12.9z"/>
	<path d="M37,13.5c0,0.1,0,0.2,0,0.3c-0.1,0.5-0.9,0.8-1.1,0.3c-0.2-0.5-0.3-1-0.3-1.6c-0.5,0.9-1.3,2-2.4,2c-0.1,0-0.2,0-0.3,0
		c-1.3-0.3-1.2-2.1-1.1-3.2c0.1-0.4,0.1-0.7,0.2-1c0.3-1.2,0.8-2.3,1.2-3.5c0.1-0.2,0.2-0.3,0.4-0.3c0.2,0,0.4,0.2,0.3,0.5
		c-0.4,1.1-0.8,2.3-1,3.4c-0.1,0.6-0.1,1.2-0.1,1.7c0,0.3,0.1,0.6,0.1,0.8c0.1,0.4,0.2,0.6,0.6,0.5c1-0.2,1.6-2.1,2-2.9
		c0.5-1.1,0.9-2.2,1.4-3.2c0.3-0.5,1.1-0.4,0.9,0.1C37.2,9.4,36.5,11.6,37,13.5z"/>
	<path d="M40.4,6.9c-0.7,2.4-1.1,4.7-1.6,7.1c-0.1,0.3-0.4,0.5-0.6,0.5c-0.2,0-0.4-0.1-0.4-0.3c0.1-1.1,0.3-2.1,0.5-3.2
		c0.3-1.3,0.7-2.7,1.2-4C39.7,6.4,40.6,6.4,40.4,6.9z M41.2,4.2c0,0.1,0,0.1,0,0.2l0,0c0,0.1,0,0.2-0.1,0.2c0,0.1-0.1,0.1-0.2,0.2
		c-0.1,0.1-0.1,0.1-0.2,0.1c-0.1,0-0.2,0.1-0.3,0.1c-0.1,0-0.2,0-0.3-0.1c0,0-0.1-0.1-0.1-0.1c-0.1-0.1-0.1-0.2-0.1-0.3
		c0-0.1,0-0.1,0-0.2c0-0.1,0.1-0.2,0.1-0.2c0-0.1,0.1-0.2,0.2-0.2c0.1-0.1,0.2-0.1,0.2-0.1c0.1,0,0.2-0.1,0.2-0.1h0
		c0.1,0,0.2,0,0.3,0.1c0,0,0.1,0.1,0.1,0.1C41.2,4,41.2,4.1,41.2,4.2z"/>
	<path d="M44.1,12.4c0.6-0.5,1.1,0.2,0.6,0.7c-0.7,0.6-1.8,1.3-2.8,1.3c-0.3,0-0.5-0.1-0.8-0.2c-0.8-0.5-0.9-1.6-0.7-2.7
		c0.1-0.4,0.3-0.9,0.4-1.2c0.6-1.3,1.8-3.3,3.2-4c0.3-0.2,0.6-0.3,0.9-0.3c0.9,0,1.3,1,1.2,1.9c0,0,0,0.1,0,0.1
		c-0.1,0.5-1,0.7-0.9,0.2c0.1-0.6,0-1.4-0.9-1c-0.4,0.2-0.8,0.7-1.1,1.1c-0.5,0.7-1,1.5-1.4,2.3c-0.4,0.8-0.8,2.6,0.3,2.7
		C42.8,13.4,43.6,12.8,44.1,12.4z"/>
	<path d="M50.1,13.8c0,0,0,0.1,0,0.1c-0.1,0.5-0.8,0.7-1,0.3c-0.5-1-0.7-2.6-2-2.7c-0.2,0.9-0.4,1.7-0.5,2.6
		c-0.1,0.3-0.3,0.5-0.5,0.5c-0.2,0-0.5-0.2-0.4-0.5c0.2-1.4,0.4-2.9,0.8-4.4c0.5-2.1,1.1-4.2,1.8-6.4c0.1-0.3,0.3-0.4,0.5-0.4
		c0.2,0,0.4,0.1,0.3,0.4c-0.6,2.2-1.1,4.4-1.5,6.7c1.3-0.9,2.5-1.9,3.1-3.4c0.2-0.5,1-0.5,0.8,0c-0.4,1-0.8,1.9-1.7,2.7
		c-0.5,0.5-1,0.9-1.6,1.3c0.4,0.1,0.7,0.4,1,0.7C49.5,11.8,50.1,12.8,50.1,13.8z"/>
	<path d="M60.6,7.5c0.2,0.6,0.2,1.2,0,1.8c-0.2,1.1-0.9,2.2-1.7,3c-1.1,1.2-2.7,2.4-4.2,1.9c-0.1,0.1-0.3,0.2-0.4,0.2
		c-0.3,0-0.5-0.2-0.5-0.5c0.1-0.8,0.2-1.6,0.4-2.4c0.3-1.1,0.6-2.1,0.8-3.2c0.4-1.7,1-3.4,1.6-5.1C56.8,3,57,2.9,57.2,2.9
		s0.3,0.1,0.3,0.4c-0.5,1.8-1,3.7-1.4,5.5c0.3-0.4,0.7-0.7,1.1-1.1C58.4,6.7,60.1,6,60.6,7.5z M55.2,13.2c2,0.6,4.4-2.8,4.5-4.5
		c0-0.7-0.3-1.4-1.2-0.9c-0.5,0.3-1,0.7-1.4,1.2c-0.6,0.6-1.1,1.2-1.4,1.9c-0.2,0.8-0.4,1.6-0.5,2.3C55.1,13.2,55.2,13.2,55.2,13.2z
		"/>
	<path d="M64.9,6.6c0.4,0,0.7,0.2,1,0.6C66,7.3,66,7.4,65.9,7.5c-0.1,0.2-0.3,0.4-0.5,0.4c-0.1,0-0.2,0-0.3-0.1
		c-0.2-0.2-0.4-0.3-0.6-0.3c-0.9,0-1.8,1.9-2.1,2.5c-0.6,1.3-0.9,2.5-1.2,3.9c-0.1,0.3-0.3,0.5-0.6,0.5c-0.3,0-0.5-0.2-0.4-0.5
		c0.5-2.4,1-4.8,1.7-7.2c0.1-0.3,0.3-0.4,0.6-0.4c0.2,0,0.4,0.2,0.3,0.4c-0.1,0.4-0.2,0.9-0.3,1.3l0,0C63.2,7.3,64.1,6.6,64.9,6.6z"
		/>
	<path d="M69.5,6.6c1.7,0.3,2,1.9,1.7,3.5c-0.1,0.4-0.2,0.7-0.4,1.1c-0.6,1.3-2.2,3.5-3.7,3.5c-0.3,0-0.6-0.1-0.9-0.2
		c-1.1-0.7-1-2.2-0.6-3.6c-0.1-0.1-0.2-0.2-0.1-0.4c0,0,0,0,0-0.1c0.4-1.7,1.6-3.8,3.5-3.8C69.2,6.5,69.4,6.5,69.5,6.6z M67.3,13.5
		c0.9,0,2.1-1.7,2.5-2.4c0.6-1.2,1-3-0.4-3.5c-0.2-0.1-0.4-0.1-0.6-0.1c-0.9,0-1.5,0.9-1.9,1.8c-0.5,1.2-0.9,2.8-0.3,3.7
		C66.8,13.4,67,13.5,67.3,13.5z"/>
	<path d="M78.9,10.3C78.9,10.4,78.9,10.4,78.9,10.3l-0.1,0.3c0,0,0,0.1,0,0.1c-0.3,1.2-1,3.7-2.6,3.7c-1,0-1.3-0.9-1.3-1.8
		c-0.4,0.7-1.2,1.8-2.1,1.8c-0.4,0-0.8-0.3-1-0.7C71.4,13,71.4,12,71.7,11c0.3-1.5,1.2-3.2,1.9-4.4c0.1-0.2,0.3-0.3,0.5-0.3
		c0.2,0,0.4,0.2,0.3,0.5c-0.7,1.6-1.5,3.4-1.6,5c0,0.4,0,0.7,0.1,1.1c0.1,0.2,0.2,0.3,0.3,0.3c0.5,0,1.8-2.6,2-3
		c0.1-0.2,0.4-0.4,0.6-0.4c0.2,0,0.4,0.1,0.4,0.4c0,0.8-0.1,1.5,0,2.3c0,0.3,0,0.9,0.3,0.9c0.1,0,0.2-0.1,0.4-0.2
		c0.3-0.2,0.4-0.7,0.5-1c0.6-1.5,1.1-3.5,0.8-4.9c-0.1-0.4,0.3-0.8,0.6-0.8c0.2,0,0.3,0.1,0.4,0.3C79.5,7.8,79.2,9.1,78.9,10.3z"/>
	<path d="M84.9,9.3c-0.1,1.7-0.4,3.5-1.1,5c-0.1,0.2-0.3,0.3-0.4,0.3c-0.2,0-0.4-0.2-0.4-0.4c0.1-1.1,2-6.6,0.2-6.5
		c-0.9,0-1.7,2.1-2,2.8c-0.4,1.1-0.6,2.2-0.7,3.3c0,0.4-0.4,0.6-0.6,0.6c-0.2,0-0.3-0.1-0.3-0.3c-0.1-2.1,0.2-4.2,0.6-6.4
		c0.1-0.3,0.3-0.4,0.5-0.4S81,7.5,81,7.8c-0.1,0.6-0.2,1.2-0.3,1.8c0-0.1,0-0.1,0.1-0.1c0.4-0.9,1.5-2.6,2.6-2.7c0,0,0.1,0,0.1,0
		C84.7,6.7,85,8.2,84.9,9.3z"/>
	<path d="M93.8,2.8c1.1,0.2,1.1,1.6,0.9,2.6c0,0.1,0,0.1,0,0.2C94.6,5.8,94.4,6,94.2,6s-0.3-0.1-0.3-0.4c0.1-0.4,0.3-2.1-0.6-1.8
		c-0.3,0.1-0.7,0.8-0.8,1c-0.4,0.7-0.6,1.5-0.8,2.3c0.5-0.1,1.1-0.1,1.6-0.2c0.7-0.1,0.5,1-0.3,1.1c-0.6,0.1-1.1,0.1-1.7,0.2
		c-0.5,2-0.9,3.9-1.3,5.8c-0.1,0.3-0.3,0.4-0.5,0.4c-0.2,0-0.4-0.1-0.4-0.3c0-1.7,0.5-3.4,0.9-5.1c0-0.1,0-0.1,0.1-0.2l0.1-0.4
		c0-0.1,0-0.1,0.1-0.2c-0.1,0-0.1,0-0.2,0l-0.4,0c-0.1,0-0.1,0-0.2,0c-0.3,0-0.3-0.2-0.3-0.4c0.1-0.2,0.2-0.4,0.5-0.4
		c0.3-0.1,0.6-0.1,0.9-0.2C91,6,92,2.8,93.7,2.8C93.7,2.8,93.8,2.8,93.8,2.8z"/>
	<path d="M97.2,6.6c1.7,0.3,2,1.9,1.7,3.5c-0.1,0.4-0.2,0.7-0.4,1.1c-0.6,1.3-2.2,3.5-3.7,3.5c-0.3,0-0.6-0.1-0.9-0.2
		c-1.1-0.7-1-2.2-0.6-3.6c-0.1-0.1-0.2-0.2-0.1-0.4c0,0,0,0,0-0.1c0.4-1.7,1.6-3.8,3.5-3.8C96.8,6.5,97,6.5,97.2,6.6z M94.9,13.5
		c0.9,0,2.1-1.7,2.5-2.4c0.6-1.2,1-3-0.4-3.5c-0.2-0.1-0.4-0.1-0.6-0.1c-0.9,0-1.5,0.9-1.9,1.8c-0.5,1.2-0.9,2.8-0.3,3.7
		C94.4,13.4,94.6,13.5,94.9,13.5z"/>
	<path d="M105.2,6.9c-1,1.2-1.9,2.5-2.9,3.8v0c0.3,1,0.7,2,1,3c0.1,0.5-0.6,1-0.9,0.6c-0.4-0.8-0.7-1.6-1-2.5
		c-0.6,0.7-1.2,1.5-1.6,2.3c0,0,0,0.1-0.1,0.1c0,0.1-0.1,0.1-0.1,0.2c-0.2,0.3-0.4,0.4-0.6,0.4c-0.3,0-0.5-0.2-0.4-0.5
		c0-0.1,0.1-0.1,0.1-0.2c0.7-1.2,1.5-2.4,2.5-3.5c-0.3-1.2-0.7-2.5-0.6-3.8c0-0.4,0.6-0.7,0.7-0.3c0.4,0.9,0.5,2,0.7,3.1
		c0.9-1,1.8-2.1,2.7-3.1c0.1-0.1,0.2-0.2,0.4-0.2c0.2,0,0.4,0.2,0.3,0.4C105.3,6.8,105.3,6.8,105.2,6.9z"/>
	<path d="M112.4,7.1c-0.2,1.8-0.4,3.5-0.8,5.2c-0.2,0.9-0.5,1.9-0.9,2.8c-0.4,0.9-1,1.8-1.9,2.2c-0.3,0.1-0.5,0.1-0.7,0.1
		c-0.6,0-1.1-0.3-1.2-0.9c0-0.1,0-0.2,0-0.2c0.1-0.5,0.9-0.9,1.1-0.3c0.2,0.5,0.9,0.1,1.2-0.2c0.3-0.3,0.4-0.7,0.5-1.1
		c0.4-0.8,0.6-1.7,0.8-2.6c0.4-1.7,0.7-3.4,1-5C111.5,6.5,112.5,6.5,112.4,7.1z M111.7,4.9c-0.1-0.1-0.1-0.2-0.1-0.3
		c0-0.1,0-0.1,0-0.2c0-0.1,0-0.2,0.1-0.2c0-0.1,0.1-0.1,0.2-0.2c0.1-0.1,0.1-0.1,0.2-0.1c0.1,0,0.1-0.1,0.2-0.1h0
		c0.1,0,0.2,0,0.3,0.1c0.1,0,0.1,0.1,0.1,0.1c0.1,0.1,0.1,0.2,0.1,0.3c0,0.1,0,0.1,0,0.2c0,0.1-0.1,0.2-0.1,0.2
		c0,0.1-0.1,0.1-0.2,0.2c-0.1,0.1-0.2,0.1-0.2,0.1c-0.1,0-0.2,0.1-0.2,0.1c-0.1,0-0.2,0-0.3-0.1C111.8,4.9,111.7,4.9,111.7,4.9z"/>
	<path d="M118.4,13.5c0,0.1,0,0.2,0,0.3c-0.1,0.5-0.9,0.8-1.1,0.3c-0.2-0.5-0.3-1-0.3-1.6c-0.5,0.9-1.3,2-2.4,2c-0.1,0-0.2,0-0.3,0
		c-1.3-0.3-1.2-2.1-1.1-3.2c0.1-0.4,0.1-0.7,0.2-1c0.3-1.2,0.8-2.3,1.2-3.5c0.1-0.2,0.2-0.3,0.4-0.3c0.2,0,0.4,0.2,0.3,0.5
		c-0.4,1.1-0.8,2.3-1,3.4c-0.1,0.6-0.1,1.2-0.1,1.7c0,0.3,0.1,0.6,0.1,0.8c0.1,0.4,0.2,0.6,0.6,0.5c1-0.2,1.6-2.1,2-2.9
		c0.5-1.1,0.9-2.2,1.4-3.2c0.3-0.5,1.1-0.4,0.9,0.1C118.6,9.4,117.8,11.6,118.4,13.5z"/>
	<path d="M127.9,10.6c-0.1,0.3-0.1,0.6-0.2,1c-0.2,0.9-0.5,1.8-0.8,2.6c-0.1,0.3-0.3,0.4-0.5,0.4c-0.3,0-0.5-0.2-0.4-0.5
		c0.4-1.6,0.9-3.1,1-4.6c0.1-0.4,0.2-1.1,0-1.4c-0.4-0.5-0.9-0.1-1.2,0.4c-0.7,1-1.1,2.1-1.3,3.2c-0.1,0.6-1.1,0.7-1,0.1
		c0-1,0.1-1.9,0-2.8c0-0.3,0-1.1-0.3-1.3c-0.2-0.1-0.5,0.2-0.7,0.3s-0.3,0.4-0.4,0.6c-1,1.8-1.2,3.7-1.4,5.4c-0.1,0.6-1,0.6-0.9,0
		c0.2-2.1,0.4-4.2,0.6-6.3c0,0,0,0,0-0.1c0.1-0.4,0.8-0.6,0.8-0.1c0,0.4-0.1,0.7-0.1,1.1c0.3-0.7,0.8-1.4,1.4-1.8
		c0.3-0.2,0.6-0.3,0.8-0.3c0.8,0,1.1,1,1.2,2.1c0.2-0.4,0.5-0.8,0.8-1.2c0.8-0.8,1.9-1.1,2.4-0.4C128.4,8,128.1,9.5,127.9,10.6z"/>
	<path d="M133.4,7.5c0.7,0.8,0.9,2.4,0.6,3.7c-0.1,0.4-0.2,0.7-0.4,1.1c-0.9,1.7-2.7,2.8-4.1,1.7c-0.2-0.1-0.3-0.3-0.5-0.5
		c0,0,0,0,0,0.1c-0.3,1.2-0.5,2.5-0.9,3.8c-0.1,0.3-0.4,0.4-0.6,0.4c-0.2,0-0.3-0.1-0.3-0.3c0-0.9,0.2-1.7,0.4-2.6
		c0.1-0.4,0.2-0.7,0.3-1.1c0.3-1.2,0.6-2.5,0.9-3.7c0.1-0.4,0.2-0.9,0.3-1.3c0-0.2,0.1-0.3,0.2-0.3c0,0,0,0,0,0
		c0.5-0.6,1.2-1.4,2-1.7c0.2-0.1,0.3-0.1,0.5-0.1C132.4,6.7,133,7.1,133.4,7.5z M132.7,12c0.5-1,0.5-2.4,0.3-3.2
		c-0.2-0.5-0.7-1.1-1.4-1.1c-0.5,0-1,0.5-1.4,0.9c0,0.1,0,0.1,0,0.2c-0.2,0.7-0.3,1.5-0.5,2.2c-0.1,0.5,0,0.9,0.1,1.4
		c0.2,0.5,0.5,1,1.1,1C131.7,13.5,132.3,12.7,132.7,12z"/>
	<path d="M139.4,12.4c0,0.2,0,0.4,0,0.6c-0.3,1-1.1,1.6-2.1,1.6c-1,0-1.9-0.6-2.1-1.4c-0.1-0.4,0.3-0.7,0.6-0.7c0.1,0,0.2,0,0.3,0.1
		c0.2,0.2,1,0.9,1.6,0.9c0.2,0,0.5-0.1,0.6-0.4c0.4-0.7-0.7-1.3-1.1-1.6c-0.7-0.6-2.1-1.5-2-2.7c0,0,0-0.1,0-0.1
		c0.3-1.4,2.2-2.3,3.6-2.3c0.8,0,1.5,0.3,1.7,1c0.1,0.3-0.3,0.6-0.5,0.6c-0.1,0-0.3-0.1-0.3-0.2c-0.1-0.4-0.5-0.5-0.9-0.5
		c-0.5,0-1.2,0.2-1.6,0.5c-0.6,0.3-1.2,0.7-0.9,1.4c0.1,0.3,0.5,0.5,0.7,0.7C137.8,10.7,139.2,11.2,139.4,12.4z"/>
	<path d="M147.8,6.6c1.7,0.3,2,1.9,1.7,3.5c-0.1,0.4-0.2,0.7-0.4,1.1c-0.6,1.3-2.2,3.5-3.7,3.5c-0.3,0-0.6-0.1-0.9-0.2
		c-1.1-0.7-1-2.2-0.6-3.6c-0.1-0.1-0.2-0.2-0.1-0.4c0,0,0,0,0-0.1c0.4-1.7,1.6-3.8,3.5-3.8C147.4,6.5,147.6,6.5,147.8,6.6z
		 M145.5,13.5c0.9,0,2.1-1.7,2.5-2.4c0.6-1.2,1-3-0.4-3.5c-0.2-0.1-0.4-0.1-0.6-0.1c-0.9,0-1.5,0.9-1.9,1.8
		c-0.5,1.2-0.9,2.8-0.3,3.7C145,13.4,145.2,13.5,145.5,13.5z"/>
	<path d="M155.2,6.8c0.1-0.2,0.3-0.3,0.4-0.3c0.3,0,0.5,0.2,0.4,0.6c0,0.1-0.1,0.2-0.1,0.2c-1.5,2.2-2.9,4.5-4,6.8
		c-0.1,0.3-0.4,0.4-0.6,0.4c-0.2,0-0.4-0.1-0.4-0.4c-0.1-2.3-0.3-4.7-0.4-7c0-0.1,0-0.1,0-0.1c0.1-0.4,0.8-0.6,0.9-0.1
		c0.2,1.7,0.4,3.4,0.5,5.1C152.9,10.2,154,8.4,155.2,6.8z"/>
	<path d="M160.6,8.8c-0.6,1.3-2.5,2.7-3.9,2.7c-0.2,0-0.4,0-0.5-0.1c-0.2,0.4-0.2,0.8-0.1,1.2c0.2,0.6,0.6,0.8,1.1,0.8
		c0.6,0,1.2-0.3,1.8-0.5c0.1-0.1,0.2-0.1,0.2-0.1c0.3,0,0.4,0.4,0.1,0.7c-0.7,0.6-1.6,1-2.4,1c-1,0-1.8-0.5-2-1.5
		c-0.1-0.3-0.1-0.7,0-1.1c0.4-1.6,1.8-3.4,3-4.4c0.5-0.4,1.2-0.8,1.8-0.8c0.2,0,0.4,0.1,0.5,0.2c0.5,0.3,0.6,0.9,0.4,1.5
		C160.7,8.5,160.6,8.7,160.6,8.8z M158.6,8.1c-0.7,0.5-1.6,1.6-2,2.4c1,0.3,2.5-0.8,3-1.7c0.3-0.5,0.7-1.4-0.3-1.2
		C159.1,7.6,158.8,7.9,158.6,8.1z"/>
	<path d="M164.8,6.6c0.4,0,0.7,0.2,1,0.6c0.1,0.1,0.1,0.2,0.1,0.3c-0.1,0.2-0.3,0.4-0.5,0.4c-0.1,0-0.2,0-0.3-0.1
		c-0.2-0.2-0.4-0.3-0.6-0.3c-0.9,0-1.8,1.9-2.1,2.5c-0.6,1.3-0.9,2.5-1.2,3.9c-0.1,0.3-0.3,0.5-0.6,0.5c-0.3,0-0.5-0.2-0.4-0.5
		c0.5-2.4,1-4.8,1.7-7.2c0.1-0.3,0.3-0.4,0.6-0.4c0.2,0,0.4,0.2,0.3,0.4c-0.1,0.4-0.2,0.9-0.3,1.3l0,0C163.1,7.3,164,6.6,164.8,6.6z
		"/>
	<path d="M174.4,5.9c0.3,0,0.5,0.3,0.4,0.6c-0.1,0.3-0.3,0.5-0.6,0.5c-0.6,0-1.3-0.1-1.9-0.1c-0.6,1.6-1.2,3.9-1.3,5.5
		c0,0.2,0,0.5,0.1,0.6c0,0,0.2,0.3,0.3,0.3c0,0,0.1,0,0.1-0.1c0.1-0.2,0.4-0.4,0.6-0.4c0.3,0,0.5,0.2,0.4,0.5c-0.2,0.6-0.7,1-1.3,1
		c-0.2,0-0.4-0.1-0.6-0.2c-0.8-0.6-0.6-1.9-0.4-2.9c0.3-1.5,0.7-3,1.3-4.4L170.8,7c-0.2,0-0.4,0-0.5,0.1c-0.4,0.1-0.5-0.2-0.5-0.5
		c0-0.2,0.2-0.3,0.4-0.4c0.5-0.1,1-0.1,1.5-0.2c0.4-0.9,0.8-1.9,1.2-2.8c0.1-0.2,0.2-0.3,0.4-0.3c0.2,0,0.4,0.2,0.3,0.5
		c-0.3,0.8-0.7,1.7-1,2.5C173.1,5.8,173.8,5.8,174.4,5.9z"/>
	<path d="M180.2,9.3c0,0.7-0.1,1.5-0.3,2.3c-0.2,0.9-0.5,1.8-1,2.6c-0.1,0.2-0.3,0.3-0.5,0.3c-0.2,0-0.4-0.1-0.3-0.4
		c0.3-1.3,0.8-2.5,1-3.8c0.1-0.7,0.3-3-0.7-2.9c-0.9,0.1-1.9,2.4-2.2,3.1c-0.5,1.1-0.7,2.3-1,3.4c-0.2,0.7-1.1,0.6-1.1,0
		c0.2-1.9,0.5-3.7,0.9-5.6c0.4-1.6,0.9-3.3,1.4-4.9c0.1-0.3,0.3-0.4,0.5-0.4c0.2,0,0.4,0.1,0.3,0.4c-0.6,2-1.1,3.9-1.5,5.9
		c0-0.1,0.1-0.2,0.1-0.2c0.5-0.9,1.6-2.9,2.8-2.8C179.9,6.4,180.2,8.2,180.2,9.3z"/>
	<path d="M186.1,8.8c-0.6,1.3-2.5,2.7-3.9,2.7c-0.2,0-0.4,0-0.5-0.1c-0.2,0.4-0.2,0.8-0.1,1.2c0.2,0.6,0.6,0.8,1.1,0.8
		c0.6,0,1.2-0.3,1.8-0.5c0.1-0.1,0.2-0.1,0.2-0.1c0.3,0,0.4,0.4,0.1,0.7c-0.7,0.6-1.6,1-2.4,1c-1,0-1.8-0.5-2-1.5
		c-0.1-0.3-0.1-0.7,0-1.1c0.4-1.6,1.8-3.4,3-4.4c0.5-0.4,1.2-0.8,1.8-0.8c0.2,0,0.4,0.1,0.5,0.2c0.5,0.3,0.6,0.9,0.4,1.5
		C186.3,8.5,186.2,8.7,186.1,8.8z M184.1,8.1c-0.7,0.5-1.6,1.6-2,2.4c1,0.3,2.5-0.8,3-1.7c0.3-0.5,0.7-1.4-0.3-1.2
		C184.6,7.6,184.3,7.9,184.1,8.1z"/>
	<path d="M191.7,3.3c0.1-0.2,0.3-0.3,0.5-0.3c0.2,0,0.3,0.1,0.2,0.3c-0.4,1.6-0.8,3.3-1.2,4.9c-0.2,0.9-0.4,1.8-0.6,2.7
		c-0.1,0.3-0.4,2.5-0.2,2.5c0.3,0,0.4,0.3,0.4,0.5c-0.1,0.2-0.2,0.4-0.5,0.5c-0.1,0-0.2,0-0.2,0c-1.1,0-1-2.2-0.4-4.6
		C190.4,7.2,191.4,4.1,191.7,3.3z"/>
	<path d="M197.6,12.5c0.3-0.1,0.5,0.2,0.4,0.5c0,0.2-0.1,0.3-0.3,0.4c-0.1,0-0.2,0.1-0.3,0.1c0,0,0,0.1,0,0.1l0,0.2c0,0,0,0.1,0,0.1
		c-0.1,0.4-0.4,0.5-0.6,0.5c-0.3,0-0.5-0.2-0.5-0.5c-0.8,0.3-2.4,0.8-3.2,0.8c-0.2,0-0.4,0-0.6-0.1c-0.7-0.2-0.8-0.9-0.7-1.5
		c0.4-1.6,2.3-3.4,3.9-3.4c0.6,0,1,0.3,1.3,0.7c0.1-0.6,0.2-1.2,0.2-1.8c0-0.3,0.2-1.3-0.3-1.3c-0.2,0-0.6,0.3-0.8,0.3
		c-0.7,0.3-1.5,0.7-2.2,1.1c-0.5,0.3-0.7-0.4-0.3-0.7c0.6-0.4,2.9-1.7,3.7-1.7c0.3,0,0.6,0.2,0.7,0.6c0.3,0.9,0,2.1-0.1,3.1
		C197.8,10.9,197.7,11.7,197.6,12.5z M193.5,13.7c0.3,0,0.7-0.1,1-0.2c0.6-0.2,1.2-0.4,1.9-0.6c0-0.7-0.1-1.4-0.5-1.8
		c-0.2-0.2-0.4-0.3-0.6-0.3c-0.9,0-2,1-2.3,1.9c-0.2,0.4-0.3,0.6,0,0.8C193.1,13.6,193.3,13.7,193.5,13.7z"/>
	<path d="M203.3,12.9c0.3,0,0.4,0.3,0.4,0.6c-0.1,0.2-0.2,0.4-0.5,0.4c-1.3,0.2-2.6,0.3-4,0.7c-0.1,0-0.1,0-0.2,0
		c-0.4,0-0.5-0.5-0.3-0.9c1.5-2.2,3.1-4.3,4.6-6.4c-1,0-2.1,0.1-3.1,0.2c-0.3,0.1-0.5-0.2-0.4-0.5c0-0.2,0.2-0.3,0.4-0.3
		c1.4-0.2,2.8-0.3,4.1-0.3c0.4,0,0.5,0.4,0.3,0.7c-1.4,2-2.8,4.1-4.2,6.1C201.4,12.9,202.4,12.8,203.3,12.9z"/>
	<path d="M210.9,7.1c-0.4,2-0.5,4-1,6c-0.2,0.7-0.4,1.5-0.7,2.2c-0.3,0.9-0.8,2.4-2,2.6c-0.1,0-0.3,0-0.4,0c-0.8,0-1.6-0.4-2.1-1
		c-0.4-0.3,0.4-1.1,0.7-0.8c0.4,0.3,0.7,0.5,1.2,0.6c0.7,0.1,0.9-0.4,1.1-1c0.4-1,0.7-1.9,0.9-2.9c0-0.2,0.1-0.3,0.1-0.5
		c-0.6,0.9-1.6,2-2.6,1.9c-1.2-0.1-1.6-1.5-1.5-2.6c0-0.3,0.1-0.6,0.2-0.9c0.3-1.4,0.9-2.7,1.4-4.1c0.2-0.5,0.9-0.3,0.7,0.2
		c-0.5,1.2-0.8,2.4-1,3.6c-0.1,0.5-0.2,1-0.2,1.5c0.1,0.5,0.4,1.2,1.1,0.9c0.4-0.2,0.9-0.9,1.2-1.3c0.3-0.4,0.5-0.9,0.7-1.3
		c0.5-1.1,0.7-2.2,1-3.3c0.1-0.3,0.4-0.5,0.6-0.5C210.7,6.6,210.9,6.7,210.9,7.1z"/>
	<path d="M221.3,3.3c0.1-0.2,0.3-0.4,0.5-0.4c0.2,0,0.3,0.1,0.3,0.3c0,0,0,0,0,0c-0.6,1.9-1.2,3.7-1.6,5.6c-0.3,0.9-0.5,1.8-0.7,2.8
		c-0.2,0.9-0.3,1.9-0.9,2.7c-0.1,0.2-0.3,0.3-0.5,0.3s-0.3-0.1-0.4-0.3c-0.1-0.5,0.1-1.1,0.3-1.8c-0.2,0.2-0.4,0.5-0.7,0.7
		c-1.2,1.1-3,1.9-3.5,0.3c-0.2-0.5-0.2-1.1,0-1.7c0.6-2.7,3.7-5.9,6.1-5C220.5,5.7,220.9,4.5,221.3,3.3z M216.3,13.2
		c0.6-0.4,1.2-0.9,1.7-1.5c0.4-0.4,0.7-0.9,1-1.4c0.2-0.5,0.3-1,0.5-1.5c0-0.1,0-0.1,0.1-0.2c0,0,0,0,0,0c0.1-0.3,0.2-0.5,0.3-0.7
		c0,0-0.1,0-0.1,0c-2.2-0.8-4.7,2.5-4.7,4.6C214.9,13.4,215.4,13.7,216.3,13.2z"/>
	<path d="M224.9,6.6c1.7,0.3,2,1.9,1.7,3.5c-0.1,0.4-0.2,0.7-0.4,1.1c-0.6,1.3-2.2,3.5-3.7,3.5c-0.3,0-0.6-0.1-0.9-0.2
		c-1.1-0.7-1-2.2-0.6-3.6c-0.1-0.1-0.2-0.2-0.1-0.4c0,0,0,0,0-0.1c0.4-1.7,1.6-3.8,3.5-3.8C224.5,6.5,224.7,6.5,224.9,6.6z
		 M222.6,13.5c0.9,0,2.1-1.7,2.5-2.4c0.6-1.2,1-3-0.4-3.5c-0.2-0.1-0.4-0.1-0.6-0.1c-0.9,0-1.5,0.9-1.9,1.8
		c-0.5,1.2-0.9,2.8-0.3,3.7C222.1,13.4,222.3,13.5,222.6,13.5z"/>
	<path d="M233.4,7.9c-0.4,1.9-0.7,3.8-1.2,5.8c-0.1,0.5-0.3,1-0.4,1.5c-0.2,0.9-0.7,1.8-1.7,2.1c-0.2,0.1-0.5,0.1-0.7,0.1
		c-0.9,0-1.7-0.4-2.2-0.9c-0.3-0.3,0.1-1,0.5-0.8c0.7,0.3,2.3,1.2,2.8-0.1c0.4-0.8,0.4-1.7,0.6-2.5c0-0.2,0.1-0.3,0.1-0.5
		c-0.2,0.3-0.4,0.5-0.7,0.7c-1.4,1.4-3.4,1.3-3.7-0.5c-0.1-0.5-0.1-1,0.1-1.5c0.3-1.2,1.1-2.5,1.9-3.4c0.8-0.8,1.9-1.3,2.8-1.3
		c0.6,0,1.2,0.2,1.5,0.7c0,0.1,0.1,0.1,0.1,0.2C233.3,7.5,233.4,7.7,233.4,7.9z M231,11.2c0.6-1.1,1.1-2.2,1.3-3.3c0,0,0-0.1,0-0.1
		c-0.9-1-2.7,0.3-3.4,1.4c-0.7,1-1.3,2.3-1,3.3c0.2,0.8,1,1.1,1.8,0.4C230.3,12.4,230.7,11.8,231,11.2z"/>
	<path d="M12.5,20.6C12.5,20.6,12.5,20.6,12.5,20.6c0.3,0,0.4,0.2,0.4,0.4c0,0.2-0.2,0.4-0.5,0.4c-0.9,0.1-1.8,0.2-2.7,0.3
		c0,0,0,0.1,0,0.1c-0.3,0.9-0.4,1.8-0.6,2.6c-0.2,0.9-0.4,1.7-0.5,2.5c-0.2,0.9-0.3,1.7-0.4,2.5C8,30.3,7.9,31.2,7.8,32
		c-0.1,0.3-0.4,0.5-0.6,0.5c-0.2,0-0.4-0.1-0.4-0.4c0-1.7,0.5-3.5,0.9-5.3C7.8,26,8,25.2,8.2,24.3c0.2-0.8,0.4-1.6,0.6-2.5
		c-0.3,0.1-0.4,0.1-0.7,0.1c-0.5,0.1-1,0.2-1.5,0.4c-0.2,0.1-0.4-0.1-0.3-0.3c0-0.1,0.1-0.2,0.2-0.3c0.3-0.2,0.5-0.2,0.8-0.3
		c0.3-0.1,0.5-0.2,0.8-0.2C8.7,21.1,9,21,9.6,21C10.5,20.8,11.5,20.7,12.5,20.6z"/>
	<path d="M18.5,21.2c-0.5,1.7-1,3.3-1.5,5c-0.2,0.8-0.4,1.7-0.6,2.5c-0.2,0.8-0.3,1.6-0.6,2.4c-0.2,0.5-1,0.5-1,0
		c0-0.8,0.3-1.6,0.5-2.4c0.1-0.5,0.3-1.1,0.5-1.6c-1.1,0.1-2.1,0.3-3.2,0.4c-0.3,1.5-0.6,3-0.9,4.5c-0.1,0.3-0.3,0.5-0.6,0.5
		c-0.2,0-0.5-0.2-0.4-0.4c0.1-1,0.3-1.9,0.5-2.9c0.6-2.7,1.6-5.4,2.5-8c0.1-0.2,0.3-0.3,0.5-0.3c0.2,0,0.3,0.1,0.2,0.3
		c-0.6,1.8-1.1,3.6-1.5,5.4c0,0.1-0.1,0.2-0.1,0.3c1.1-0.2,2.2-0.4,3.3-0.6c0,0,0-0.1,0-0.1c0.5-1.7,1.1-3.3,1.7-5
		C17.9,20.9,18.6,20.8,18.5,21.2C18.5,21.2,18.5,21.2,18.5,21.2z"/>
	<path d="M20.3,30.1c0.6-0.3,1.2,0.5,0.5,0.9c-1,0.5-2,1-3,1.5c-0.1,0.1-0.2,0.1-0.3,0.1c-0.2,0-0.4-0.1-0.3-0.4c0.2-1,0.4-2,0.6-3
		c0.2-0.8,0.4-1.6,0.6-2.5c0.2-0.9,0.4-1.8,0.7-2.7c0.1-0.5,0.3-1,0.5-1.4c0-0.1,0.1-0.3,0.2-0.4c0,0-0.1,0-0.1-0.1
		c-0.1-0.2,0-0.5,0.3-0.6c0.5-0.2,1.1-0.4,1.6-0.5c0.3-0.1,0.5-0.1,0.7-0.2c0.2,0,0.3-0.1,0.5-0.1c0.2,0,0.3,0,0.4,0.1
		c0.2,0.1,0.2,0.4,0,0.6c-0.3,0.2-0.5,0.2-0.8,0.3c-0.2,0-0.4,0.1-0.7,0.1c-0.2,0.1-0.5,0.1-0.7,0.2c-0.2,0.1-0.3,0.1-0.6,0.2
		c-0.1,0.2-0.1,0.4-0.2,0.6c-0.1,0.4-0.2,0.8-0.3,1.2c-0.2,0.9-0.4,1.8-0.6,2.7c-0.1,0.3-0.2,0.6-0.2,0.9c0.3-0.1,0.6-0.3,0.9-0.4
		c0.3-0.1,0.6-0.3,0.9-0.4c0.3-0.2,0.8-0.4,1.2-0.2c0.1,0.1,0.2,0.2,0.2,0.4c0,0,0,0,0,0c0,0,0,0,0,0c-0.1,0.4-0.6,0.5-0.9,0.7
		c-0.3,0.1-0.6,0.2-0.9,0.3c-0.5,0.2-1,0.4-1.5,0.6c-0.2,0.8-0.4,1.6-0.6,2.5C18.9,30.8,19.6,30.4,20.3,30.1z"/>
	<path d="M30.8,31.4c0.1,0.2,0.1,0.4,0,0.6c0,0.1-0.1,0.2-0.2,0.3c-0.2,0.1-0.6-0.1-0.7-0.4c-0.2-0.5-0.3-0.5-0.4-1
		c-0.2,0.2-0.3,0.3-0.4,0.5c-0.5,0.6-1.2,1-1.8,1c-0.3,0-0.7-0.1-1-0.4c-0.7-0.7-0.8-1.9-0.7-2.9c0-0.8,0.2-1.4,0.3-2.1
		c0.1-0.2,0.1-0.4,0.2-0.7c0.1-0.4,0.2-0.9,0.4-1.4c0.2-0.5,0.4-1.2,0.7-1.9c0.5-0.9,1.4-2.1,2.5-2.4c0.2-0.1,0.3-0.1,0.4-0.1
		c0.8,0,1.5,0.6,1.7,1.3c0.4,0.9,0.2,2.1,0,3.2c-0.3,1.5-0.8,3.1-1.6,4.6c0,0,0,0.1,0.1,0.1C30.6,30.5,30.6,30.6,30.8,31.4z
		 M28,31.5c0.3-0.1,0.8-0.6,1.1-1.1c0.1-0.1,0.1-0.1,0.1-0.2c-0.1-0.3-0.3-0.5-0.4-0.8c-0.1-0.2-0.2-0.4-0.3-0.6
		c-0.1-0.3-0.1-0.3-0.2-0.6c-0.1-0.2,0.1-0.6,0.3-0.6c0.1-0.1,0.4-0.1,0.5,0.1c0.1,0.3,0.2,0.3,0.3,0.6c0.1,0.2,0.2,0.4,0.3,0.6
		c0,0.1,0.1,0.1,0.1,0.2c0.6-1.2,1-2.3,1.2-3.7c0.1-0.9,0.2-1.8,0-2.6c-0.2-0.6-0.9-1.3-1.6-0.7c-0.7,0.6-1,1-1.5,2.1
		c-0.2,0.6-0.3,1.1-0.5,1.7c-0.3,0.9-0.5,1.8-0.6,2.8c-0.1,0.9-0.1,1.8,0.2,2.5C27.1,31.4,27.6,31.6,28,31.5z"/>
	<path d="M39.2,21.2c-0.1,0.7-0.3,1.4-0.4,2.1c-0.3,1.3-0.7,2.7-1.1,4c-0.3,0.9-0.7,1.8-1.1,2.8c-0.3,0.7-0.7,1.4-1.3,2
		c-0.4,0.3-0.8,0.5-1.3,0.5c-0.2,0-0.4-0.1-0.6-0.2c-0.5-0.3-0.7-0.9-0.8-1.4c-0.1-0.7-0.1-1.4,0-2.1c0.1-0.8,0.2-1.6,0.4-2.4
		c0.2-1,0.4-2.1,0.6-3.1c0.2-0.7,0.3-1.3,0.5-2c0.1-0.4,1-0.5,0.9,0c-0.4,1.7-0.8,3.3-1.1,5.1c-0.2,1.3-0.3,2.7-0.2,3.9
		c0.1,0.4,0.2,1.1,0.5,1.2c0.1,0.1,0.3-0.1,0.4-0.2c0.2-0.2,0.4-0.5,0.6-0.7c0.8-1.4,1.4-3.1,1.9-4.6c0.5-1.6,0.9-3.1,1.3-4.7
		c0-0.2,0.3-0.3,0.5-0.3C39.1,20.9,39.3,21,39.2,21.2z"/>
	<path d="M40.4,26.6c-0.3,1.5-0.5,3.1-0.8,4.6c-0.1,0.3-0.1,0.5-0.2,0.8c-0.1,0.3-0.4,0.5-0.6,0.5c-0.2,0-0.3-0.1-0.3-0.3
		c0.1-1.2,0.3-2.4,0.6-3.6c0.2-0.6,0.3-1.2,0.4-1.8c0.4-1.9,0.9-3.7,1.5-5.6c0.1-0.3,0.3-0.4,0.5-0.4c0.2,0,0.4,0.2,0.3,0.4
		C41.3,23,40.8,24.8,40.4,26.6z"/>
	<path d="M45.4,30.1c0.3-0.5,1.1-0.3,1,0.2c0,0.1,0,0.1-0.1,0.2c-0.6,1.1-1.9,2-3.1,2c-0.2,0-0.5,0-0.7-0.1C41.3,32,41,30.7,41,29.5
		c0-0.7,0.1-1.5,0.2-2.2c0.2-0.8,0.5-1.7,0.9-2.5c0.4-0.8,0.8-1.6,1.3-2.3c0.4-0.6,1-1.2,1.7-1.5c0.3-0.1,0.5-0.2,0.7-0.2
		c1.2,0,1.7,1.2,1.9,2.2c0,0.4-0.6,0.6-0.7,0.3c-0.1-0.6-0.4-1.6-1.2-1.7c-0.8-0.1-1.4,0.8-1.8,1.4c-0.9,1.5-1.6,3-1.8,4.6
		c-0.2,1.2-0.3,2.7,0.5,3.5C43.5,32,44.8,31.1,45.4,30.1z"/>
	<path d="M52,29.8c0.2,0.1,0.4,0.2,0.4,0.5c0,0.1,0,0.1,0,0.2c-0.1,0.3-0.4,0.5-0.7,0.5c-0.3,0-0.4-0.2-0.6-0.3
		c-0.1-0.1-0.3-0.2-0.4-0.3c-0.3-0.2-0.5-0.4-0.8-0.6c-0.4-0.3-0.7-0.6-1-0.9c-0.1,0.3-0.1,0.5-0.2,0.8c-0.1,0.5-0.2,1-0.3,1.5
		c-0.1,0.4-0.1,0.8-0.3,1.1c-0.1,0.2-0.3,0.3-0.5,0.3c-0.1,0-0.2,0-0.2-0.1c-0.4-0.2-0.2-0.6-0.2-1c0.1-0.5,0.2-1,0.3-1.5
		c0.2-1,0.4-1.9,0.6-2.9c0.2-0.8,0.3-1.5,0.5-2.3c0.3-1.2,0.6-2.5,1-3.7c0.1-0.3,0.7-0.4,0.6-0.1c-0.2,1.8-0.6,3.6-1,5.4
		c0.1-0.1,0.1-0.2,0.2-0.2c0.4-0.6,0.9-1.2,1.3-1.8c0.9-1.2,1.8-2.5,2.7-3.7c0.1-0.1,0.3-0.2,0.4-0.2c0.2,0,0.4,0.2,0.3,0.4
		c-0.9,1.2-1.6,2.5-2.4,3.8c-0.4,0.6-0.7,1-1.1,1.6c-0.2,0.3-0.4,0.6-0.6,0.9c-0.2,0.2-0.3,0.4-0.4,0.6c0.4,0.4,0.7,0.7,1.2,1
		c0.3,0.2,0.6,0.5,0.9,0.7C51.7,29.6,51.9,29.7,52,29.8z"/>
	<path d="M60.4,26.5c1.1,0.1,1.8,0.9,1.6,2c0,0.1,0,0.1,0,0.2c-0.3,1.2-1.3,2.1-2.4,2.8c-0.7,0.5-1.8,1.1-2.6,1c-0.1,0-0.1,0-0.2,0
		c-0.2,0-0.4-0.1-0.5-0.3c0,0,0-0.1,0-0.1c0,0,0,0,0-0.1c-0.1-0.1,0-0.2,0-0.3c0.2-1.6,0.5-3.3,0.9-5c0.3-1.2,0.5-2.5,0.9-3.7
		c-0.1,0-0.2-0.1-0.2-0.2c0,0,0-0.1,0-0.1c0.1-0.2,0.2-0.3,0.3-0.4c0.1-0.3,0.2-0.6,0.3-0.9c0.1-0.3,0.6-0.3,0.6,0
		c0,0.1,0,0.1,0,0.2c0.5-0.3,1-0.6,1.5-0.7c0.3-0.1,0.6-0.1,0.9-0.1c0.7,0,1.2,0.3,1.2,1.1c0,1.2-0.9,2.4-1.7,3.5
		c-0.3,0.4-0.6,0.8-1,1.2C60.1,26.5,60.2,26.5,60.4,26.5z M60.9,28.8c0.4-1.2-0.6-1.9-1.6-1.6c-0.4,0.4-0.8,0.7-1.3,1
		c0,0-0.1,0-0.1,0.1c-0.2,1.1-0.3,2.2-0.5,3.3c0.6,0,1.3-0.5,1.8-0.9C59.9,30.2,60.6,29.6,60.9,28.8z M60.7,21.6
		c-0.6,0.1-1.2,0.4-1.6,0.8c-0.3,1.5-0.6,2.9-0.8,4.4c0,0.2-0.1,0.3-0.1,0.4c0,0,0,0,0.1,0c1.3-1.2,2.5-2.4,3.2-3.9
		c0.2-0.4,0.4-1,0.4-1.4c0-0.3-0.1-0.4-0.4-0.4C61.1,21.5,60.9,21.5,60.7,21.6z"/>
	<path d="M65.1,29c0.6,0.5,1.4,0.8,1.8,1.5c0.2,0.3-0.3,0.6-0.6,0.5c-0.6-0.2-1.1-0.5-1.6-0.9c-0.2-0.2-0.5-0.4-0.7-0.6
		c-0.1-0.1-0.2-0.2-0.4-0.3c-0.1,0.9-0.3,1.8-0.5,2.7c-0.1,0.3-0.4,0.5-0.6,0.5c-0.2,0-0.3-0.1-0.3-0.3c0-1.3,0.2-2.7,0.5-4
		c0.1-0.3,0.1-0.5,0.2-0.8c0.4-1.5,0.7-3.1,1.2-4.6c-0.1-0.1-0.1-0.3,0.1-0.4c0.1-0.2,0.3-0.3,0.4-0.3c1-0.6,1.9-1.4,3.1-1.5
		c0.1,0,0.1,0,0.1,0c1.2,0.1,1.6,1.2,1.4,2.2c0,0.1,0,0.2-0.1,0.2c-0.5,2.2-2.8,3.9-4.8,5.3C64.6,28.7,64.8,28.8,65.1,29z M68,23.7
		c0.3-0.7,0.4-2.2-0.6-2.2c-0.8,0-1.6,0.6-2.4,1.1c-0.4,1.6-0.7,3.1-1,4.7c0,0.1,0,0.3-0.1,0.4c0.7-0.5,1.4-0.9,2-1.4
		C66.7,25.6,67.6,24.6,68,23.7z"/>
	<path d="M74.9,22.2c0.4,0.9,0.2,2.1,0,3.2c0,0.2-0.1,0.5-0.1,0.7c-0.4,1.9-1.3,3.9-2.7,5.5c-0.5,0.6-1.2,0.9-1.8,0.9
		c-0.4,0-0.7-0.1-1-0.4c-0.7-0.6-0.7-1.9-0.7-2.8c0-0.8,0.1-1.4,0.3-2.1c0.1-0.2,0.1-0.4,0.2-0.6c0.1-0.4,0.3-0.8,0.4-1.4
		c0.2-0.5,0.4-1.2,0.7-1.9c0.5-0.9,1.4-2.1,2.5-2.4c0.2,0,0.3-0.1,0.5-0.1C74,20.9,74.6,21.5,74.9,22.2z M72.1,30.3
		c0.9-1.7,1.6-3.2,1.8-5c0.1-0.9,0.3-1.8,0-2.6c-0.2-0.6-0.9-1.3-1.6-0.7c-0.7,0.6-1,1-1.5,2.1c-0.2,0.6-0.3,1.1-0.5,1.7
		c-0.3,0.9-0.5,1.8-0.6,2.7c-0.1,0.9-0.1,1.7,0.2,2.5c0.2,0.4,0.7,0.5,1,0.4C71.3,31.4,71.8,30.8,72.1,30.3z"/>
	<path d="M82.8,21c0,0.3,0,0.4-0.1,0.6c0,0.2-0.1,0.3-0.2,0.6c-0.2,0.5-0.2,0.6-0.4,1.1c-0.4,1-0.7,1.9-1,2.9
		c-0.6,1.9-1.2,3.9-1.5,5.8c-0.1,0.3-0.4,0.5-0.7,0.5c-0.1,0-0.3-0.1-0.3-0.2c-0.2-1.8-0.4-3.6-0.5-5.5c-0.4,0.5-0.7,1.1-1,1.7
		c-0.5,1-1,2-1.6,3c-0.1,0.1-0.2,0.2-0.3,0.2c-0.2,0.2-0.6,0.1-0.6-0.2c0.2-0.9,0.2-1.8,0.4-2.7c0.2-0.9,0.3-1.7,0.5-2.6
		c0-0.1,0.1-0.3,0.1-0.4c0.2-0.8,0.4-1.5,0.6-2.3c0.1-0.4,0.3-0.9,0.5-1.3c0.2-0.4,0.3-0.7,0.6-1c0.1-0.1,0.5-0.2,0.5,0
		c0.1,0.4-0.1,0.7-0.2,1.1c-0.1,0.4-0.2,0.8-0.4,1.3c-0.2,0.9-0.5,1.8-0.6,2.7c-0.2,0.9-0.3,1.7-0.5,2.5c0.1-0.2,0.2-0.4,0.3-0.6
		c0.5-1.1,1.1-2.1,1.9-3.1c0.3-0.4,0.9-0.4,0.9,0.1c0,1.4,0.1,2.7,0.2,4.1c0.3-1,0.5-2,0.8-3c0.3-1,0.7-2,1-2.9
		c0.2-0.5,0.2-0.7,0.5-1.2c0.2-0.5,0.3-0.6,0.6-1.1c0.1-0.1,0.2-0.2,0.4-0.2C82.7,20.9,82.8,20.9,82.8,21z"/>
	<path d="M88.5,21.2c0.1-0.2,0.3-0.3,0.5-0.3c0.2,0,0.4,0.1,0.4,0.4c0,0,0,0,0,0.1c-1.3,3.8-2.2,7-2.7,10.8c0,0.3-0.3,0.4-0.5,0.4
		c-0.2,0-0.4-0.1-0.4-0.3c-0.7-2.3-1.3-4.6-1.7-7c-0.1,0.6-0.2,1.2-0.3,1.8c-0.3,1.5-0.4,3-0.5,4.5C83,32.1,82,32.2,82,31.6
		c0-1.5,0.3-3.1,0.6-4.6c0.1-0.6,0.2-1.2,0.3-1.7c0.2-1,0.5-1.9,0.7-2.9c0.1-0.4,1-0.5,1-0.1c0.3,2.6,0.7,5.2,1.4,7.6
		C86.7,26.8,87.4,24.3,88.5,21.2z"/>
	<path d="M97.7,20.8c0.2,0.1,0.4,0.2,0.4,0.4c0,0.1-0.1,0.1-0.1,0.1c-0.1,0.2-0.3,0.3-0.5,0.3h0c-0.3,0.1-0.7,0-1,0
		c-0.3,0-0.6,0-0.9,0.1c-0.5,0-1,0.1-1.4,0.2c-0.3,1-0.5,2-0.8,2.9c0.4-0.1,0.8-0.2,1.2-0.3c0.3,0,0.6-0.1,0.9-0.1
		c0.3,0,0.8-0.1,1.1,0.1c0.2,0.1,0.3,0.2,0.2,0.4c0,0.2-0.2,0.3-0.4,0.4c-0.2,0.1-0.4,0.1-0.6,0.1c-0.1,0-0.2,0-0.4,0
		c-0.3,0-0.5,0.1-0.8,0.1c-0.4,0.1-0.9,0.2-1.4,0.3c-0.1,0.4-0.2,0.7-0.2,1.1c-0.2,0.9-0.4,1.8-0.6,2.6c-0.2,0.8-0.2,1.8-0.6,2.6
		c-0.1,0.2-0.4,0.4-0.6,0.4c-0.2,0-0.3-0.1-0.3-0.3c-0.2-0.8,0.2-1.9,0.4-2.8c0.1-0.4,0.2-0.8,0.3-1.2c0.1-0.5,0.2-0.9,0.3-1.4
		c0.4-1.7,1-3.4,1.5-5.2c0,0,0,0,0-0.1c0-0.1,0.1-0.2,0.2-0.3c0.1-0.1,0.2-0.1,0.3-0.1c0.6-0.1,1.2-0.3,1.8-0.3
		c0.3-0.1,0.6-0.1,0.9-0.1c0.2,0,0.4,0,0.5,0c0.1,0,0.3,0,0.4,0C97.5,20.8,97.6,20.8,97.7,20.8z"/>
	<path d="M103.1,22.2c0.4,0.9,0.2,2.1,0,3.2c0,0.2-0.1,0.5-0.1,0.7c-0.4,1.9-1.3,3.9-2.7,5.5c-0.5,0.6-1.2,0.9-1.8,0.9
		c-0.4,0-0.7-0.1-1-0.4c-0.7-0.6-0.7-1.9-0.7-2.8c0-0.8,0.1-1.4,0.3-2.1c0.1-0.2,0.1-0.4,0.2-0.6c0.1-0.4,0.3-0.8,0.4-1.4
		c0.2-0.5,0.4-1.2,0.7-1.9c0.5-0.9,1.4-2.1,2.5-2.4c0.2,0,0.3-0.1,0.5-0.1C102.2,20.9,102.8,21.5,103.1,22.2z M100.3,30.3
		c0.9-1.7,1.6-3.2,1.8-5c0.1-0.9,0.3-1.8,0-2.6c-0.2-0.6-0.9-1.3-1.6-0.7c-0.7,0.6-1,1-1.5,2.1c-0.2,0.6-0.3,1.1-0.5,1.7
		c-0.3,0.9-0.5,1.8-0.6,2.7c-0.1,0.9-0.1,1.7,0.2,2.5c0.2,0.4,0.7,0.5,1,0.4C99.5,31.4,100,30.8,100.3,30.3z"/>
	<path d="M107.3,31.9c0,0.1,0,0.1,0,0.1c-0.1,0.3-0.6,0.5-0.7,0.2c-0.3-1-0.7-1.9-1-2.8c-0.1-0.5-0.2-1-0.3-1.5
		c-0.3,0.5-0.5,1-0.8,1.4c-0.3,0.5-0.5,1-0.7,1.5c-0.3,0.5-0.5,1-0.9,1.4c-0.1,0.1-0.2,0.1-0.3,0.1c-0.1,0-0.2-0.1-0.3-0.2
		c0-0.5,0.3-1,0.5-1.5c0.2-0.5,0.5-1.1,0.7-1.6c0.4-0.9,0.9-1.8,1.4-2.7c-0.1-0.9-0.2-1.9-0.3-2.8c0-0.5-0.1-1-0.1-1.5
		c0-0.3,0-0.5,0-0.7c0-0.1,0.1-0.2,0.1-0.4c0.1-0.2,0.5-0.4,0.6-0.2c0.2,0.4,0.2,0.5,0.2,1c0.1,0.4,0.1,0.9,0.1,1.3
		c0,0.6,0.1,1.2,0.2,1.8c0.3-0.6,0.7-1.2,1.1-1.8c0.6-1,0.9-1.2,1.6-2.2c0.1-0.1,0.2-0.2,0.4-0.2c0.2,0,0.4,0.2,0.2,0.4
		c-0.6,1-0.7,1.3-1.3,2.3c-0.6,1-1.2,2-1.8,3c0,0,0,0,0,0c0.1,0.9,0.3,1.9,0.5,2.8C106.9,30.1,107,31,107.3,31.9z"/>
	<path d="M119.5,20.3c0,0,0.1,0,0.1,0c0.2,0,0.4,0.1,0.3,0.4c0,0,0,0,0,0c-0.1,0.3-0.3,0.4-0.6,0.5c-0.4,0.1-0.9,0.1-1.3,0.2
		c-0.1,1.7-0.5,3.6-1,5.3c-0.4,1.6-1.1,3.3-2.2,4.8c-0.4,0.6-1,1-1.7,1c0,0,0,0,0,0c-0.6,0-1-0.3-1.2-0.7c-0.3-0.5-0.4-1.3-0.3-2
		c0.1-0.3,0.2-0.5,0.3-0.7c0.2-0.2,0.5-0.1,0.5,0.1c0.2,0.2,0.1,0.6,0.1,0.9c0,0.4,0.1,0.6,0.3,0.9c0.1,0.3,0.5,0.6,1,0.2
		c0.5-0.5,0.8-1,1.1-1.6c0.6-1.3,1-2.7,1.3-4c0.3-1.3,0.4-2.7,0.8-4c-0.5,0.1-1,0.3-1.5,0.4c-0.2,0.1-0.4-0.1-0.4-0.2
		c0-0.2,0.2-0.4,0.4-0.4C116.8,20.9,118.1,20.5,119.5,20.3z"/>
	<path d="M125.6,21.2c-0.1,0.7-0.3,1.4-0.4,2.1c-0.3,1.3-0.7,2.7-1.1,4c-0.3,0.9-0.7,1.8-1.1,2.8c-0.3,0.7-0.7,1.4-1.3,2
		c-0.4,0.3-0.8,0.5-1.3,0.5c-0.2,0-0.4-0.1-0.6-0.2c-0.5-0.3-0.7-0.9-0.8-1.4c-0.1-0.7-0.1-1.4,0-2.1c0.1-0.8,0.2-1.6,0.4-2.4
		c0.2-1,0.4-2.1,0.6-3.1c0.2-0.7,0.3-1.3,0.5-2c0.1-0.4,1-0.5,0.9,0c-0.4,1.7-0.8,3.3-1.1,5.1c-0.2,1.3-0.3,2.7-0.2,3.9
		c0.1,0.4,0.2,1.1,0.5,1.2c0.1,0.1,0.3-0.1,0.4-0.2c0.2-0.2,0.4-0.5,0.6-0.7c0.8-1.4,1.4-3.1,1.9-4.6c0.5-1.6,0.9-3.1,1.3-4.7
		c0-0.2,0.3-0.3,0.5-0.3C125.5,20.9,125.7,21,125.6,21.2z"/>
	<path d="M131.8,26.1c-0.3,2-0.4,3.9-0.8,5.8c-0.1,0.3-0.4,0.5-0.7,0.5c-0.2,0-0.4-0.1-0.4-0.4c0.2-2.4,0.8-5.9,1.2-8.4
		c-0.7,1.6-1.5,3.1-2.2,4.7c-0.2,0.5-0.8,0.6-1.2,0.4c-0.5-0.3-0.6-0.9-0.7-1.4c-0.2-0.7-0.2-0.8-0.3-1.2c0-0.1-0.1-0.8-0.1-1
		c-0.5,1.8-1.3,4.4-1.7,6.2c-0.1,0.5-0.9,0.4-0.8-0.1c0.8-3.1,1.6-6.1,2.5-9.2c0.2-0.5,1.1-0.6,1.1-0.1c-0.1,1.2,0,2.4,0.2,3.5
		c0.1,0.6,0.2,1.2,0.3,1.9c0,0,0,0.1,0,0.1c1.1-2.4,2.1-4,3.2-6.4c0.1-0.3,0.4-0.4,0.6-0.4c0.3,0,0.5,0.2,0.5,0.5
		C132.1,23.2,132,24.3,131.8,26.1z"/>
	<path d="M138.9,21.2c0.3,0.4,0.4,0.8,0.2,1.4c-0.1,0.5-0.3,1-0.6,1.4c-0.6,0.9-1.5,1.7-2.4,2.4c-0.8,0.6-1.6,1.2-2.5,1.4
		c0,0,0,0-0.1,0c-0.1,0.8-0.3,1.6-0.4,2.4c-0.1,0.5-0.2,0.9-0.2,1.4c-0.1,0.4,0.1,0.2-0.2,0.6c-0.1,0.2-0.4,0.4-0.6,0.4
		c-0.1,0-0.2-0.1-0.3-0.2c-0.1-0.8,0.1-1.1,0.2-2c0.2-0.8,0.4-1.7,0.6-2.5c0.3-1.6,0.8-3.1,1.3-4.6c-0.2,0-0.3-0.1-0.3-0.2
		c0-0.1,0-0.1,0.1-0.1c0.7-0.7,1.4-1.4,2.3-1.7c0.4-0.2,0.9-0.3,1.4-0.3C138.1,20.7,138.6,20.8,138.9,21.2z M136.5,24.9
		c0.7-0.7,1.7-1.8,1.6-2.7c-0.1-0.8-1.1-0.7-1.9-0.4c-0.4,0.2-0.4,0.2-0.9,0.5c-0.2,0.1-0.3,0.2-0.3,0.2c-0.5,1.4-0.7,2.5-1.2,4.2
		c0.1,0,0.1,0,0.2-0.1C134.9,26.2,135.8,25.6,136.5,24.9z"/>
	<path d="M140.9,23.3c-0.3,1.4,1,2.6,1.7,3.6c0.7,1,1.4,2.3,0.9,3.7c-0.4,1.2-1.8,1.9-3.1,1.9c-0.1,0-0.2,0-0.3,0
		c-1.2-0.1-2-0.9-2.1-2c0,0,0-0.1,0-0.1c0.1-0.3,0.8-0.6,0.9-0.3c0.3,0.5,0.5,1.1,1.2,1.3c0.6,0.2,1.4,0,1.9-0.5
		c1.2-1.3,0-2.9-0.6-3.8c-0.7-1-1.7-2.1-1.6-3.5c0.2-1.3,1.5-2.4,3-2.7c0.2-0.1,0.5-0.1,0.7-0.1c1.1,0,1.9,0.6,2,1.7c0,0,0,0,0,0.1
		c-0.1,0.3-0.8,0.4-0.9,0.1c-0.1-0.9-0.8-1.3-1.8-1C142,21.9,141.1,22.4,140.9,23.3z"/>
	<path d="M154.2,22.2c0.4,0.9,0.2,2.1,0,3.2c0,0.2-0.1,0.5-0.1,0.7c-0.4,1.9-1.3,3.9-2.7,5.5c-0.5,0.6-1.2,0.9-1.8,0.9
		c-0.4,0-0.7-0.1-1-0.4c-0.7-0.6-0.7-1.9-0.7-2.8c0-0.8,0.1-1.4,0.3-2.1c0.1-0.2,0.1-0.4,0.2-0.6c0.1-0.4,0.3-0.8,0.4-1.4
		c0.2-0.5,0.4-1.2,0.7-1.9c0.5-0.9,1.4-2.1,2.5-2.4c0.2,0,0.3-0.1,0.5-0.1C153.3,20.9,153.9,21.5,154.2,22.2z M151.4,30.3
		c0.9-1.7,1.6-3.2,1.8-5c0.1-0.9,0.3-1.8,0-2.6c-0.2-0.6-0.9-1.3-1.6-0.7c-0.7,0.6-1,1-1.5,2.1c-0.2,0.6-0.3,1.1-0.5,1.7
		c-0.3,0.9-0.5,1.8-0.6,2.7c-0.1,0.9-0.1,1.7,0.2,2.5c0.2,0.4,0.7,0.5,1,0.4C150.6,31.4,151.1,30.8,151.4,30.3z"/>
	<path d="M160.5,21c0.1-0.2,0.3-0.3,0.5-0.3c0.2,0,0.3,0.1,0.3,0.3c0,0,0,0.1,0,0.1c-1,1.8-2,3.6-2.8,5.5c-0.9,1.9-1.6,3.7-2.3,5.6
		c-0.1,0.2-0.3,0.3-0.6,0.3c-0.2,0-0.4-0.1-0.4-0.3c-0.1-1.7-0.1-3.4-0.1-5.1c0-0.9,0.1-1.7,0.1-2.6c0.1-0.8,0.1-1.7,0.3-2.6
		c0,0,0,0,0,0c0.1-0.5,1-0.6,1-0.1c0,0.8-0.2,1.7-0.3,2.6c-0.1,0.8-0.1,1.7-0.2,2.5c0,1-0.1,2,0,2.9C157.4,26.9,158.9,23.9,160.5,21
		z"/>
	<path d="M162.7,30.1c0.6-0.3,1.2,0.5,0.5,0.9c-1,0.5-2,1-3,1.5c-0.1,0.1-0.2,0.1-0.3,0.1c-0.2,0-0.4-0.1-0.3-0.4c0.2-1,0.4-2,0.6-3
		c0.2-0.8,0.4-1.6,0.6-2.5c0.2-0.9,0.4-1.8,0.7-2.7c0.1-0.5,0.3-1,0.5-1.4c0-0.1,0.1-0.3,0.2-0.4c0,0-0.1,0-0.1-0.1
		c-0.1-0.2,0-0.5,0.3-0.6c0.5-0.2,1.1-0.4,1.6-0.5c0.3-0.1,0.5-0.1,0.7-0.2c0.2,0,0.3-0.1,0.5-0.1c0.2,0,0.3,0,0.4,0.1
		c0.2,0.1,0.2,0.4,0,0.6c-0.3,0.2-0.5,0.2-0.8,0.3c-0.2,0-0.4,0.1-0.7,0.1c-0.2,0.1-0.5,0.1-0.7,0.2c-0.2,0.1-0.3,0.1-0.6,0.2
		c-0.1,0.2-0.1,0.4-0.2,0.6c-0.1,0.4-0.2,0.8-0.3,1.2c-0.2,0.9-0.4,1.8-0.6,2.7c-0.1,0.3-0.2,0.6-0.2,0.9c0.3-0.1,0.6-0.3,0.9-0.4
		c0.3-0.1,0.6-0.3,0.9-0.4c0.3-0.2,0.8-0.4,1.2-0.2c0.1,0.1,0.2,0.2,0.2,0.4c0,0,0,0,0,0c0,0,0,0,0,0c-0.1,0.4-0.6,0.5-0.9,0.7
		c-0.3,0.1-0.6,0.2-0.9,0.3c-0.5,0.2-1,0.4-1.5,0.6c-0.2,0.8-0.4,1.6-0.6,2.5C161.4,30.8,162.1,30.4,162.7,30.1z"/>
	<path d="M167.4,29c0.6,0.5,1.4,0.8,1.8,1.5c0.2,0.3-0.3,0.6-0.6,0.5c-0.6-0.2-1.1-0.5-1.6-0.9c-0.2-0.2-0.5-0.4-0.7-0.6
		c-0.1-0.1-0.2-0.2-0.4-0.3c-0.1,0.9-0.3,1.8-0.5,2.7c-0.1,0.3-0.4,0.5-0.6,0.5c-0.2,0-0.3-0.1-0.3-0.3c0-1.3,0.2-2.7,0.5-4
		c0.1-0.3,0.1-0.5,0.2-0.8c0.4-1.5,0.7-3.1,1.2-4.6c-0.1-0.1-0.1-0.3,0.1-0.4c0.1-0.2,0.3-0.3,0.4-0.3c1-0.6,1.9-1.4,3.1-1.5
		c0.1,0,0.1,0,0.1,0c1.2,0.1,1.6,1.2,1.4,2.2c0,0.1,0,0.2-0.1,0.2c-0.5,2.2-2.8,3.9-4.8,5.3C167,28.7,167.2,28.8,167.4,29z
		 M170.3,23.7c0.3-0.7,0.4-2.2-0.6-2.2c-0.8,0-1.6,0.6-2.4,1.1c-0.4,1.6-0.7,3.1-1,4.7c0,0.1,0,0.3-0.1,0.4c0.7-0.5,1.4-0.9,2-1.4
		C169.1,25.6,169.9,24.6,170.3,23.7z"/>
	<path d="M181.7,20.6C181.7,20.6,181.7,20.6,181.7,20.6c0.3,0,0.4,0.2,0.4,0.4c0,0.2-0.2,0.4-0.5,0.4c-0.9,0.1-1.8,0.2-2.7,0.3
		c0,0,0,0.1,0,0.1c-0.3,0.9-0.4,1.8-0.6,2.6c-0.2,0.9-0.4,1.7-0.5,2.5c-0.2,0.9-0.3,1.7-0.4,2.5c-0.1,0.9-0.2,1.7-0.4,2.5
		c-0.1,0.3-0.4,0.5-0.6,0.5c-0.2,0-0.4-0.1-0.4-0.4c0-1.7,0.5-3.5,0.9-5.3c0.2-0.9,0.4-1.7,0.6-2.6c0.2-0.8,0.4-1.6,0.6-2.5
		c-0.3,0.1-0.4,0.1-0.7,0.1c-0.5,0.1-1,0.2-1.5,0.4c-0.2,0.1-0.4-0.1-0.3-0.3c0-0.1,0.1-0.2,0.2-0.3c0.3-0.2,0.5-0.2,0.8-0.3
		c0.3-0.1,0.5-0.2,0.8-0.2c0.6-0.1,0.9-0.2,1.4-0.3C179.7,20.8,180.7,20.7,181.7,20.6z"/>
	<path d="M187.7,21.2c-0.5,1.7-1,3.3-1.5,5c-0.2,0.8-0.4,1.7-0.6,2.5c-0.2,0.8-0.3,1.6-0.6,2.4c-0.2,0.5-1,0.5-1,0
		c0-0.8,0.3-1.6,0.5-2.4c0.1-0.5,0.3-1.1,0.5-1.6c-1.1,0.1-2.1,0.3-3.2,0.4c-0.3,1.5-0.6,3-0.9,4.5c-0.1,0.3-0.3,0.5-0.6,0.5
		c-0.2,0-0.5-0.2-0.4-0.4c0.1-1,0.3-1.9,0.5-2.9c0.6-2.7,1.6-5.4,2.5-8c0.1-0.2,0.3-0.3,0.5-0.3c0.2,0,0.3,0.1,0.2,0.3
		c-0.6,1.8-1.1,3.6-1.5,5.4c0,0.1-0.1,0.2-0.1,0.3c1.1-0.2,2.2-0.4,3.3-0.6c0,0,0-0.1,0-0.1c0.5-1.7,1.1-3.3,1.7-5
		C187.1,20.9,187.8,20.8,187.7,21.2C187.7,21.2,187.7,21.2,187.7,21.2z"/>
	<path d="M189.5,30.1c0.6-0.3,1.2,0.5,0.5,0.9c-1,0.5-2,1-3,1.5c-0.1,0.1-0.2,0.1-0.3,0.1c-0.2,0-0.4-0.1-0.3-0.4c0.2-1,0.4-2,0.6-3
		c0.2-0.8,0.4-1.6,0.6-2.5c0.2-0.9,0.4-1.8,0.7-2.7c0.1-0.5,0.3-1,0.5-1.4c0-0.1,0.1-0.3,0.2-0.4c0,0-0.1,0-0.1-0.1
		c-0.1-0.2,0-0.5,0.3-0.6c0.5-0.2,1.1-0.4,1.6-0.5c0.3-0.1,0.5-0.1,0.7-0.2c0.2,0,0.3-0.1,0.5-0.1c0.2,0,0.3,0,0.4,0.1
		c0.2,0.1,0.2,0.4,0,0.6c-0.3,0.2-0.5,0.2-0.8,0.3c-0.2,0-0.4,0.1-0.7,0.1c-0.2,0.1-0.5,0.1-0.7,0.2c-0.2,0.1-0.3,0.1-0.6,0.2
		c-0.1,0.2-0.1,0.4-0.2,0.6c-0.1,0.4-0.2,0.8-0.3,1.2c-0.2,0.9-0.4,1.8-0.6,2.7c-0.1,0.3-0.2,0.6-0.2,0.9c0.3-0.1,0.6-0.3,0.9-0.4
		c0.3-0.1,0.6-0.3,0.9-0.4c0.3-0.2,0.8-0.4,1.2-0.2c0.1,0.1,0.2,0.2,0.2,0.4c0,0,0,0,0,0c0,0,0,0,0,0c-0.1,0.4-0.6,0.5-0.9,0.7
		c-0.3,0.1-0.6,0.2-0.9,0.3c-0.5,0.2-1,0.4-1.5,0.6c-0.2,0.8-0.4,1.6-0.6,2.5C188.1,30.8,188.8,30.4,189.5,30.1z"/>
	<path d="M198.8,29.4c0.4-0.1,0.7,0.1,0.7,0.4c0,0.1-0.1,0.2-0.3,0.3c-1.5,0.7-3.1,1.4-4.6,2.2c-0.2,0.1-0.4,0.2-0.5,0.2
		c-0.2,0-0.2-0.2-0.1-0.6c0,0,0-0.1,0-0.1c0.5-2,1-3.9,1.5-5.8c0.2-1,0.5-2.2,0.7-3.1c0.3-1,0.3-1.1,0.8-2c0.1-0.1,0.2-0.2,0.3-0.2
		c0.1,0,0.2,0.1,0.2,0.2c0,0.9-0.2,1.3-0.4,2.2c-0.2,1-0.4,2-0.7,2.9c-0.4,1.4-0.8,3.2-1.1,4.9C196.4,30.4,197.7,29.7,198.8,29.4z"
		/>
	<path d="M205.3,31c0,0.3,0,0.6,0,0.9c-0.1,0.1-0.1,0.2-0.2,0.4c-0.1,0.2-0.5,0.3-0.6,0.1c-0.2-0.3-0.3-0.8-0.3-1.3
		c0-0.5,0-0.9,0-1.3c0,0,0-0.1,0-0.1c-1,0.2-1.8,0.3-2.8,0.4c-0.4,0.8-0.7,1.3-1.1,2.1c-0.1,0.2-0.2,0.2-0.4,0.2
		c-0.2,0-0.3-0.1-0.3-0.3v0c0.5-1.8,1.4-3.7,2.2-5.5c0.9-1.8,1.8-3.6,2.8-5.4c0.1-0.2,0.3-0.3,0.5-0.3c0.2,0,0.4,0.1,0.3,0.3
		c0.1,1.8,0.1,3.6,0,5.5c0,0.9-0.1,1.9-0.1,2.8C205.4,30.1,205.4,30.6,205.3,31z M201.9,29.2c0.9-0.2,1.4-0.2,2.4-0.2
		c0-0.7,0.1-1.6,0.1-2.3c0-1.4,0.2-2,0.2-3.4c-0.6,1.3-1,2.2-1.6,3.6C202.6,27.7,202.3,28.4,201.9,29.2z"/>
	<path d="M211.4,30.9c0.7,0.1,0.3,1.1-0.4,1c-1.4-0.2-2.9-0.2-4.5,0.5c-0.1,0-0.1,0-0.2,0c-0.3,0-0.5-0.2-0.4-0.4
		c0-0.1,0.1-0.1,0.1-0.2c1.3-1.8,2.5-3.5,3.8-5.3c0.6-0.9,1.3-1.7,1.9-2.6c0.3-0.5,0.7-0.9,1-1.3c0.2-0.3,0.4-0.6,0.7-1
		c-1.3,0.1-2.7,0.1-4,0.2c-0.7,0.1-0.1-0.7,0.1-0.7c1.4-0.1,3.1-0.3,4.6-0.4c0,0,0.1,0,0.1,0c0.4,0,0.5,0.2,0.5,0.5
		c-0.1,0.5-1.1,1.8-1.6,2.6c-0.7,0.9-1.3,1.8-1.9,2.7c-1.1,1.5-2.2,3.1-3.3,4.6C209,30.8,210.2,30.8,211.4,30.9z"/>
	<path d="M219.6,20.7c0.1-0.2,0.8-0.3,0.7,0c0,0,0,0,0,0c-0.9,2.2-1.6,3.2-2.7,5.3c-0.5,1.1-1.1,2.2-1.6,3.2
		c-0.3,0.5-0.5,1.1-0.7,1.6c-0.3,0.5-0.4,1-0.8,1.4c-0.1,0.1-0.3,0.2-0.4,0.2c-0.1,0-0.2,0-0.2-0.1c-0.2-0.4,0.1-0.9,0.3-1.3
		c0.3-0.6,0.5-1.1,0.8-1.7c0.5-1,1-1.9,1.5-2.9c-0.2-0.3-0.3-0.8-0.3-1.1c-0.1-0.6-0.2-1.1-0.3-1.7c-0.2-1.2-0.4-1.6-0.3-2.9
		c0,0,0,0,0-0.1c0-0.2,0.2-0.3,0.4-0.3c0.1,0,0.2,0.1,0.2,0.1c0.4,1,0.5,1.3,0.7,2.4c0.1,0.5,0.3,1.1,0.4,1.6
		c0.1,0.1,0.1,0.2,0.1,0.4C218.1,23.2,218.5,22.4,219.6,20.7z"/>
	<path d="M228.4,21.3c0.6,0.6,0.6,1.4,0.4,2.3c-0.1,0.5-0.3,1-0.6,1.5c-0.7,1.4-1.7,2.8-2.7,4c-0.9,1.1-1.9,2.3-3.1,3.2
		c-0.1,0.1-0.3,0.1-0.4,0.1c-0.3,0-0.6-0.2-0.3-0.5c0,0,0,0,0,0c0-0.7,0.3-1.6,0.5-2.3c0.2-0.9,0.4-1.7,0.6-2.6
		c0.4-1.7,0.7-3.2,1.4-4.8c-0.3,0.1-0.4-0.2-0.4-0.5c0-0.1,0.1-0.2,0.2-0.3c0.9-0.4,1.9-0.8,2.8-0.8C227.4,20.7,228,20.9,228.4,21.3
		z M226.7,26.2c0.9-1.3,1.7-2.7,1.2-4c-0.4-1.1-1.6-0.7-2.8-0.3c0,0,0,0.1,0,0.1c-0.3,1.7-0.8,3.2-1.2,4.9c-0.2,0.9-0.4,1.7-0.6,2.6
		c-0.1,0.4-0.2,0.8-0.2,1.2c0.4-0.4,0.9-0.9,1.3-1.3C225.2,28.3,226,27.3,226.7,26.2z"/>
	<path d="M234.7,22.2c0.4,0.9,0.2,2.1,0,3.2c0,0.2-0.1,0.5-0.1,0.7c-0.4,1.9-1.3,3.9-2.7,5.5c-0.5,0.6-1.2,0.9-1.8,0.9
		c-0.4,0-0.7-0.1-1-0.4c-0.7-0.6-0.7-1.9-0.7-2.8c0-0.8,0.1-1.4,0.3-2.1c0.1-0.2,0.1-0.4,0.2-0.6c0.1-0.4,0.3-0.8,0.4-1.4
		c0.2-0.5,0.4-1.2,0.7-1.9c0.5-0.9,1.4-2.1,2.5-2.4c0.2,0,0.3-0.1,0.5-0.1C233.8,20.9,234.4,21.5,234.7,22.2z M231.9,30.3
		c0.9-1.7,1.6-3.2,1.8-5c0.1-0.9,0.3-1.8,0-2.6c-0.2-0.6-0.9-1.3-1.6-0.7c-0.7,0.6-1,1-1.5,2.1c-0.2,0.6-0.3,1.1-0.5,1.7
		c-0.3,0.9-0.5,1.8-0.6,2.7c-0.1,0.9-0.1,1.7,0.2,2.5c0.2,0.4,0.7,0.5,1,0.4C231,31.4,231.6,30.8,231.9,30.3z"/>
	<path d="M240.1,26.4c0.3-0.1,0.5,0.1,0.5,0.3c0,0,0,0.1,0,0.1c-0.5,1-1,2-1.7,2.9c-0.5,0.8-1.1,1.7-1.9,2.3
		c-0.3,0.3-0.7,0.4-1.1,0.4c-0.2,0-0.4-0.1-0.6-0.2c-0.5-0.4-0.5-1.2-0.6-1.9c-0.1-1.3,0.1-2.7,0.4-4c0.1-0.5,0.2-1,0.4-1.4
		c0.4-1.3,1.1-3.6,2.9-4c0.2,0,0.3-0.1,0.4-0.1c1.3,0,1.5,1.7,1.3,2.8c-0.1,0.6-1,0.7-0.9,0.2c0.1-0.6,0.1-1.5-0.5-1.8
		c-0.6-0.4-1.3,0.8-1.5,1.2c-0.8,1.6-1.2,3.5-1.4,5.1c-0.1,0.8-0.1,1.2,0,2c0,0.3,0.1,0.6,0.3,0.8c0.3,0.3,0.6-0.1,0.9-0.4
		c1.1-1.2,1.5-2,2.3-3.2c-0.8,0.4-1.4,0.7-2.1,1.4c-0.6,0.5-1.3-0.2-0.7-0.6C237.5,27.4,238.8,26.7,240.1,26.4z"/>
</g>
</svg>
