<?xml version="1.0" encoding="utf-8"?>
<!-- Generator: Adobe Illustrator 26.1.0, SVG Export Plug-In . SVG Version: 6.00 Build 0)  -->
<svg version="1.1" id="Layer_1" xmlns="http://www.w3.org/2000/svg" xmlns:xlink="http://www.w3.org/1999/xlink" x="0px" y="0px"
	 viewBox="0 0 372 36.9" style="enable-background:new 0 0 372 36.9;" xml:space="preserve">
<rect width="372" height="36.9" fill="white"/>
<g>
	<path d="M10.4,5.8c0.4,0,0.5,0.3,0.5,0.6c-0.1,0.3-0.4,0.6-0.7,0.6C9.5,7,8.9,7,8.3,7c-0.3,1.2-1.8,5.6-1,6.3
		c0.2-0.4,0.6-0.5,0.9-0.3c0.5,0.3-0.1,1-0.4,1.3c-0.3,0.2-0.5,0.3-0.8,0.3c-0.4,0-0.8-0.2-0.9-0.5c-1-1.3,0.5-5.2,1.1-7.1
		C6.9,7,6.5,7.1,6.1,7.1c-0.3,0-0.4-0.3-0.4-0.6c0,0,0,0,0,0C5.9,6,6.5,6.1,6.9,6c0.2,0,0.5-0.1,0.7-0.1c0.3-0.8,0.7-1.6,1-2.4
		c0.1-0.3,0.2-0.6,0.5-0.7c0,0,0.1,0,0.1,0c0.5,0,0.4,0.5,0.2,0.9C9.2,4.4,8.9,5.1,8.7,5.8C9.1,5.8,10.2,5.8,10.4,5.8z"/>
	<path d="M14.8,6.2c1,0.1,1.4,1,1.6,1.8c0.2,1.3,0.1,2.3-0.2,3.4c-0.1,0.5-0.3,1-0.4,1.6c-0.2,0.5-0.5,1.4-1.1,1.7
		c-0.1,0-0.1,0-0.2,0c-0.5,0-0.4-0.6-0.3-1.1c0.1-0.4,0.2-0.8,0.3-1.2c0.2-0.7,0.4-1.3,0.5-2.1c0.1-0.8,0.2-2.9-0.7-2.8
		c-0.8,0.1-1.3,1.5-1.7,2.1c-0.6,1.2-1.2,3-1.4,4.3c-0.1,0.4-0.6,0.7-0.9,0.5c-0.6-0.3-0.2-1.7-0.1-2.1c0.1-1.1,0.3-2.2,0.6-3.3
		c0-0.1,0.1-0.2,0.1-0.4c0.3-1.3,0.7-2.7,1.1-4C12.1,4.5,12.3,3,13,3c0.1,0,0.1,0,0.2,0c0.4,0.2,0,1-0.1,1.3c-0.5,1.5-0.8,3-1.1,4.6
		C12.6,7.9,13.4,6.2,14.8,6.2z"/>
	<path d="M19.7,13.3c0.4-0.1,0.8-0.2,1.1-0.4c0.3-0.2,0.6,0,0.6,0.3c0,0.3-0.3,0.5-0.5,0.7c-0.4,0.3-1,0.5-1.4,0.6
		c-0.2,0.1-0.4,0.1-0.6,0.1c-1.3,0-2.1-1-2.1-1.6c-0.1-0.4,0-0.8,0.1-1.2c0.2-1,0.9-2,1.5-2.9c0.8-1,2.2-2.4,3.3-2.3
		c0.3,0,0.6,0.1,0.9,0.4c0.3,0.4,0.4,0.9,0.3,1.4c-0.4,1.7-3.1,3.6-4.7,3.3C17.8,12.8,18.5,13.7,19.7,13.3z M21.8,7.8
		c-0.1-0.2-0.6-0.2-0.9,0.1c-0.5,0.4-1.1,1-1.4,1.4c-0.3,0.4-0.6,0.7-0.8,1.1C19.8,10.7,22.1,9,21.8,7.8z"/>
	<path d="M29.6,14.5c-0.2,0.6-0.3,1.1-0.3,1.7c0,0.6,0.6,0.6,1,0.1c0.3-0.3,0.3-0.8,0.6-1.1c0.4-0.2,0.7,0.2,0.7,0.4c0,0,0,0,0,0
		c0,0.1-0.1,0.3-0.1,0.4c-0.4,1.1-1.4,1.8-2.2,1.8c-1.1,0-1.9-1.1-0.9-3.7c-0.8,0.6-1.9,0.6-2.4-0.1c-0.5-0.7-0.5-1.5-0.3-2.4
		c0.2-0.9,0.6-1.8,1.1-2.5c0.7-1.1,1.6-2.1,2.8-2.4c0.2-0.1,0.4-0.1,0.6-0.1c0.7,0,1.3,0.5,1.3,1.3c0.4,0.2,0,1-0.1,1.3
		c-0.2,0.5-0.4,1-0.6,1.6C30.5,12,30.1,13.3,29.6,14.5z M30.4,7.6c-0.5-0.1-1,0.2-1.6,0.8c-0.9,1-1.5,2.1-1.7,3.2
		c-0.1,0.9-0.2,1.4,0.3,1.6c1,0.2,1.7-1.2,2-1.8c0.6-1.1,1-2.2,1.4-3.3C30.6,8,30.6,7.7,30.4,7.6z"/>
	<path d="M32.5,12.6c0-0.9,0.1-1.6,0.2-2.4c0.2-0.8,0.5-1.6,0.8-2.6c0.1-0.3,0.2-0.6,0.4-0.9c0.1-0.2,0.2-0.3,0.4-0.3
		c0,0,0.1,0,0.1,0c0.1,0,0.2,0,0.3,0.1c0.3,0.2,0.1,0.6-0.1,1c-0.1,0.4-0.2,0.7-0.3,1.1c-0.4,1.3-0.7,2.7-0.5,3.9
		c0.1,0.3,0.1,0.7,0.3,0.9c0.2,0.1,0.4,0,0.5,0c0.7-0.4,1-1.3,1.3-1.9c0.6-1.3,1-2.4,1.6-3.7c0.2-0.3,0.3-0.7,0.7-0.8
		c0.3-0.1,0.8,0,0.6,0.5c-0.9,2.4-1.4,4.5-1,6.2c0,0.1,0.1,0.2,0,0.3c-0.1,0.3-0.4,0.6-0.7,0.6c-0.8,0.1-0.7-1.1-0.8-1.6
		c-0.7,1.2-1.6,1.8-2.3,1.8C33.1,14.6,32.5,13.9,32.5,12.6z"/>
	<path d="M40,13.2c-0.1,0.4-0.1,1.1-0.5,1.4c-0.2,0.1-0.3,0.1-0.4,0.1c-0.5,0-0.4-0.9-0.3-1.4c0.1-0.7,0.2-1.5,0.4-2.3
		c0.4-1.5,0.7-2.7,1.2-4.2c0.3-0.5,1.1-0.5,1,0.2C40.8,9.1,40.4,11.1,40,13.2z M41.2,5.1c-0.9,0-0.6-1.4,0.4-1.4
		c0.5,0,0.6,0.3,0.5,0.7S41.7,5.1,41.2,5.1z"/>
	<path d="M46,12.6c0.1,0.4-0.3,0.7-0.6,1c-0.9,0.7-1.7,1.1-2.4,1.1c-1.2,0-2-0.9-1.6-2.7c0-0.1,0-0.1,0-0.2C41.9,9.9,44,6.1,46,6.1
		c0.1,0,0.2,0,0.3,0c0.6,0.2,1,1.2,0.9,1.9c-0.1,0.4-0.3,0.6-0.8,0.6c-0.5,0-0.1-1.1-0.5-1.4c-0.6-0.3-1.2,0.6-1.6,1.1
		c-0.8,1.1-1.5,2.2-1.7,3.5c-0.4,2,1.2,1.7,2.5,0.5C45.4,12.1,45.9,12.2,46,12.6z"/>
	<path d="M49.7,10.7c0.1,0.1,0.2,0.2,0.3,0.2c0.4,0.4,0.7,0.8,1,1.2c0.1,0.2,0.2,0.5,0.3,0.7c0.1,0.2,0.1,0.5,0.1,0.9
		c0,0,0,0.1,0,0.1c-0.1,0.2-0.1,0.3-0.3,0.4c-0.2,0.1-0.3,0.2-0.5,0.2c-0.4,0-0.5-0.4-0.7-0.7c-0.1-0.3-0.3-0.7-0.4-1
		c-0.1-0.2-0.2-0.4-0.4-0.6c-0.2-0.3-0.5-0.5-0.9-0.6c-0.1,0.6-0.3,1.3-0.4,1.9c-0.1,0.4-0.1,0.9-0.5,1.1c-0.1,0-0.2,0.1-0.3,0.1
		c-0.1,0-0.1,0-0.2,0c-0.3-0.1-0.3-0.4-0.3-0.5c0.2-1.6,0.5-3.3,0.9-4.9c0.4-1.5,0.8-3,1.2-4.5c0.1-0.2,0.2-1.5,0.8-1.8
		c0.1,0,0.2-0.1,0.3-0.1c0.1,0,0.1,0,0.2,0c0,0,0.3,0.1,0.2,0.4c-0.3,1-0.5,2-0.8,3c-0.3,1.2-0.5,2.2-0.7,3.5c0.5-0.3,1-0.7,1.4-1.1
		c0.2-0.2,0.5-0.5,0.7-0.7c0.5-0.7,0.7-1.2,0.8-1.3c0.1-0.2,0.2-0.3,0.4-0.4c0.2-0.1,0.3-0.1,0.4,0c0.3,0.1,0.2,0.4,0.2,0.4
		C52.4,7,52.2,7.4,52,7.8c-0.2,0.3-0.3,0.5-0.5,0.8c-0.2,0.2-0.4,0.5-0.7,0.7c-0.2,0.2-0.5,0.4-0.7,0.6c-0.3,0.2-0.5,0.4-0.8,0.6
		C49.5,10.6,49.6,10.7,49.7,10.7z"/>
	<path d="M62.2,9.3C62.2,9.3,62.2,9.3,62.2,9.3c-0.6,2.4-3.5,5.9-6,5.2c-0.2,0.1-0.3,0.2-0.5,0.2c-0.3,0-0.6-0.2-0.5-0.6
		c0.1-0.9,0.3-1.7,0.4-2.6c0.4-1.8,0.9-3.6,1.4-5.4c0.2-0.7,0.4-1.4,0.7-2.1c0.1-0.3,0.2-0.8,0.6-1c0.1,0,0.2-0.1,0.3-0.1
		c0.5,0,0.2,0.9,0.1,1.2c-0.4,1.5-0.7,3-1.1,4.5C60,6,62.8,5.8,62.2,9.3z M56.6,13.2c2.1,0.9,5.7-4.4,3.9-5.4c-1-0.1-3,2.2-3.4,3.1
		C57,11.7,56.8,12.4,56.6,13.2z"/>
	<path d="M67.6,7.2c0.1,0.1,0.1,0.2,0.1,0.4c-0.1,0.2-0.2,0.4-0.4,0.5c-0.3,0.1-0.5-0.1-0.7-0.3c-1.4-0.7-2.8,3.5-3.1,4.4
		c-0.2,0.5-0.3,1.1-0.4,1.6c-0.1,0.3-0.1,0.5-0.3,0.7c-0.1,0.1-0.3,0.1-0.4,0.1c-0.1,0-0.1,0-0.2,0c-0.3-0.1-0.3-0.5-0.2-0.9
		c0.1-0.3,0.1-0.5,0.2-0.6c0.5-2.1,0.9-4.2,1.6-6.3c0.1-0.3,0.4-0.4,0.6-0.4c0.3,0,0.5,0.2,0.4,0.5c-0.1,0.3-0.2,0.7-0.3,1
		C65.4,6.5,67.1,6.1,67.6,7.2z"/>
	<path d="M67.2,10.3C67.2,10.3,67.2,10.2,67.2,10.3c0.4-1.8,1.8-3.9,3.6-3.9c0.2,0,0.3,0,0.5,0.1c1.7,0.3,2.1,1.9,1.7,3.5
		c-0.3,1.1-0.8,2.3-1.6,3.1c-0.8,1-1.8,1.6-2.6,1.6c-0.7,0-1.3-0.4-1.6-1.2c-0.2-0.8-0.1-1.7,0.2-2.6C67.2,10.7,67.2,10.5,67.2,10.3
		z M68.5,13c1.1,1.5,3.4-2.2,3.5-3.3c0.3-1.2-0.6-2.7-2-2c-1,0.5-1.3,1.7-1.6,2.6C68.1,11.3,68.1,12.6,68.5,13z"/>
	<path d="M76,7.6c-0.4,1-0.8,1.9-1.1,2.9c-0.3,1.1-0.3,1.4-0.2,2.2c0.2,0.8,0.5,0.4,0.7,0c0.4-0.6,0.8-1.2,1.1-1.9
		c0.2-0.4,0.3-0.8,0.7-1c0.6-0.2,0.8,0.2,0.7,0.7c0,0.7-0.2,2.4,0.2,2.8c0.5,0,0.7-0.7,0.8-1.1c0.6-1.4,1.1-3.8,0.8-4.9
		c-0.1-0.4,0.3-0.8,0.7-0.9c0.8-0.1,0.6,1.1,0.7,1.6c-0.1,0.7-0.2,1.7-0.4,2.6c-0.3,1.2-0.7,2.4-1.5,3.2c-1.3,1.3-2.6,0.3-2.6-1
		c-0.7,1.2-1.4,1.6-2,1.6c-1.1,0-1.7-1.6-1.3-3.3c0-0.1,0-0.1,0.1-0.2c0.3-1.3,0.8-2.4,1.4-3.7c0.2-0.3,0.4-1.1,1-1.2
		c0,0,0.1,0,0.1,0C76.6,6.3,76.2,7.2,76,7.6z"/>
	<path d="M87.1,9.4c-0.1,1-0.2,2.1-0.5,3.1c-0.1,0.5-0.2,0.9-0.4,1.4c-0.1,0.3-0.3,0.9-0.7,1c-0.1,0-0.1,0-0.1,0
		c-0.3,0-0.5-0.1-0.5-0.5c0.2-1.1,0.5-2.1,0.7-3.2c0.1-0.9,0.7-3.2-0.5-3.2c-1.4,0.2-2.3,4.2-2.5,5.3c-0.1,0.6,0,1.4-0.9,1.4
		c-0.5-0.1-0.4-1-0.4-1.3c0-0.6,0-1.3,0.1-2c0.1-0.9,0.2-1.8,0.4-2.7c0-0.2,0-0.4,0.1-0.6c0.1-0.3,0.2-0.5,0.4-0.6
		c0.5-0.2,0.7,0.2,0.5,0.6c-0.1,0.4-0.1,0.7-0.2,1c0.9-1.6,1.9-2.4,2.7-2.4C86.5,6.7,87.2,7.7,87.1,9.4z"/>
	<path d="M96.2,2.8c0.1,0,0.1,0,0.2,0.1c0.7,0.2,0.9,1,0.9,1.8c0,0.2,0,0.5-0.1,0.8c-0.1,0.3-0.2,0.5-0.4,0.6
		c-0.2,0.1-0.3,0.1-0.4,0c-0.2-0.1-0.2-0.2-0.2-0.4c0.1-0.5,0.3-1.8-0.4-1.7c-0.2,0-0.3,0.2-0.4,0.3c-0.6,0.9-0.9,1.9-1.2,2.8
		c0.5-0.1,1-0.1,1.5-0.2c0.2,0,0.4,0.1,0.5,0.3c0.1,0.6-0.4,1-1,1c-0.4,0-0.9,0.1-1.3,0.1c-0.5,1.7-0.8,3.3-1.1,5
		c-0.1,0.4,0,1-0.5,1.2c-0.1,0.1-0.2,0.1-0.4,0.1c0,0-0.1,0-0.1,0c-0.4-0.1-0.3-0.7-0.3-1.1c0.1-1.7,0.6-3.4,1-5.1
		c-0.2,0-0.4,0-0.7,0c-0.2,0-0.3-0.1-0.4-0.3c0-0.1,0-0.2,0-0.2c0-0.1,0.1-0.1,0.1-0.2c0.1-0.2,0.3-0.3,0.5-0.3
		c0.3-0.1,0.5-0.1,0.8-0.2C93.3,5.8,94.2,2.7,96.2,2.8C96.1,2.8,96.2,2.8,96.2,2.8z"/>
	<path d="M95.5,10.3C95.6,10.3,95.6,10.2,95.5,10.3c0.4-1.8,1.8-3.9,3.6-3.9c0.2,0,0.3,0,0.5,0.1c1.7,0.3,2.1,1.9,1.7,3.5
		c-0.3,1.1-0.8,2.3-1.6,3.1c-0.8,1-1.8,1.6-2.6,1.6c-0.7,0-1.3-0.4-1.6-1.2c-0.2-0.8-0.1-1.7,0.2-2.6C95.6,10.7,95.5,10.5,95.5,10.3
		z M96.8,13c1.1,1.5,3.4-2.2,3.5-3.3c0.3-1.2-0.6-2.7-2-2c-1,0.5-1.3,1.7-1.6,2.6C96.4,11.3,96.5,12.6,96.8,13z"/>
	<path d="M107.2,6.4c0.1-0.2,0.3-0.2,0.4-0.2c0.2,0,0.3,0.1,0.4,0.2c0,0,0.1,0.1,0,0.3c0,0.1-0.1,0.1-0.1,0.2
		c-0.5,0.6-0.9,1.2-1.4,1.7c-0.6,0.7-1,1.3-1.5,2c0.3,0.8,0.8,2.3,1,3c0.1,0.3-0.2,0.7-0.6,0.8c-0.1,0-0.4,0.1-0.5-0.2
		c-0.4-0.7-0.7-1.5-0.9-2.4c-0.6,0.7-1.1,1.4-1.5,2.2c-0.2,0.4-0.5,0.6-0.9,0.6c-0.1,0-0.2-0.1-0.3-0.1c-0.1-0.1-0.2-0.3-0.1-0.5
		c0.1-0.4,0.5-0.8,0.6-1.1c0.6-0.9,1.2-1.7,1.9-2.6c-0.2-0.9-1.1-3.4-0.4-4.2c0.5-0.4,0.8,0.1,0.9,0.5c0.3,0.8,0.4,1.7,0.5,2.5
		C105.4,8.4,106.4,7.3,107.2,6.4z"/>
	<path d="M110,17.3c-0.3-0.2-0.5-0.6-0.4-1c0.1-0.3,0.3-0.5,0.7-0.6c0.8-0.1,0.3,1.2,1.5,0.1c1.3-2.3,1.6-5,2.1-7.4
		c0.2-0.5-0.1-1.3,0.5-1.7c0.5-0.2,0.9,0.2,0.8,0.5c-0.2,1-0.4,3.3-0.9,5.4c-0.6,2.5-1.6,4.9-3.5,4.9
		C110.6,17.5,110.4,17.4,110,17.3z M115.2,3.7c0.9,0,0.6,1.4-0.4,1.4C113.9,5.1,114.3,3.7,115.2,3.7z"/>
	<path d="M116,12.6c0-0.9,0.1-1.6,0.2-2.4c0.2-0.8,0.5-1.6,0.8-2.6c0.1-0.3,0.2-0.6,0.4-0.9c0.1-0.2,0.2-0.3,0.4-0.3
		c0,0,0.1,0,0.1,0c0.1,0,0.2,0,0.3,0.1c0.3,0.2,0.1,0.6-0.1,1c-0.1,0.4-0.2,0.7-0.3,1.1c-0.4,1.3-0.7,2.7-0.5,3.9
		c0.1,0.3,0.1,0.7,0.3,0.9c0.2,0.1,0.4,0,0.5,0c0.7-0.4,1-1.3,1.3-1.9c0.6-1.3,1-2.4,1.6-3.7c0.2-0.3,0.3-0.7,0.7-0.8
		c0.3-0.1,0.8,0,0.6,0.5c-0.9,2.4-1.4,4.5-1,6.2c0,0.1,0.1,0.2,0,0.3c-0.1,0.3-0.4,0.6-0.7,0.6c-0.8,0.1-0.7-1.1-0.8-1.6
		c-0.7,1.2-1.6,1.8-2.3,1.8C116.7,14.6,116,13.9,116,12.6z"/>
	<path d="M131.3,8.3c0,1.1-0.1,2.2-0.4,3.3c-0.2,0.9-0.5,1.9-0.9,2.8c-0.1,0.2-0.3,0.3-0.5,0.3c-0.3,0-0.6-0.2-0.5-0.6
		c0.5-1.9,1.1-3.8,1.1-5.6c0-0.4-0.1-0.5-0.4-0.6c-0.8,0.3-1.1,1.2-1.4,1.9c-0.2,0.5-0.4,1-0.5,1.5c-0.1,0.3-0.1,0.6-0.4,0.8
		c-1.2,0.5-0.7-1-0.8-1.6c0-0.3,0-1.5,0-1.5c-0.1-0.3,0.1-1.4-0.4-1.2c-1.1,0.5-1.8,3.8-1.9,4.8c-0.1,0.6-0.1,1-0.2,1.6
		c-0.1,0.3-0.5,0.5-0.8,0.4c-0.5-0.2-0.3-0.9-0.2-1.4c0.2-1.5,0.3-3.1,0.5-4.6c0-0.2,0-0.5,0-0.8c0.1-0.3,0.3-0.6,0.7-0.6
		c0.5,0.1,0.2,0.7,0.2,1c0.4-0.8,1.2-1.7,2.1-1.7c0.1,0,0.2,0,0.4,0.1c0.6,0.4,0.8,1.2,0.9,1.9C128.9,6.2,131.1,6,131.3,8.3z"/>
	<path d="M136.8,7.4c0.7,0.8,0.9,2,0.7,3.2c0,0.2,0,0.4-0.1,0.6c-0.6,2.5-3.3,4.5-5,2.6c-0.3,1.3-0.4,2.3-0.9,3.6
		c-0.1,0.2-0.2,0.3-0.3,0.4c-0.1,0.1-0.3,0.1-0.4,0.1c-0.2,0-0.4-0.2-0.4-0.4c0.1-1,0.2-2,0.5-3c0.3-1.2,0.6-2.4,0.9-3.6
		c0.2-0.6,0.3-1.2,0.5-1.8c0.1-0.2,0.1-0.5,0.3-0.7c0,0,0,0,0,0c0.8-1.1,1.7-1.8,2.5-1.8C135.7,6.6,136.3,6.9,136.8,7.4z
		 M133.2,12.3c0.1,0.4,0.7,1,1.1,1c0.4,0.1,0.9-0.2,1.2-0.6c0.8-1,0.8-1.6,0.9-2.6c0.1-1.4-1.1-3.6-2.7-1.5
		c-0.1,0.8-0.4,1.6-0.5,2.4C133,11.3,133.1,12.1,133.2,12.3z"/>
	<path d="M138.6,13.3c-0.1-0.3,0.1-0.7,0.5-0.8c0.6-0.1,0.8,0.5,1.2,0.7c0.4,0.2,0.9,0.5,1.3,0.1c0.5-0.6-0.2-1-0.5-1.3
		c-0.6-0.4-1.1-0.8-1.6-1.3c-0.7-0.6-0.9-1.3-0.8-1.9c0.3-1.2,1.9-2.3,3.6-2.4c0.7,0,1.3,0.1,1.7,0.6c0.3,0.3,0.2,1-0.4,1.1
		c-0.3,0.1-0.4-0.2-0.5-0.4c-0.1-0.2-0.3-0.2-0.5-0.3c-0.9-0.1-2.2,0.5-2.7,1.1c-0.5,1.4,3,2.3,3.1,3.8c0,0.3,0,0.5-0.1,0.7
		c-0.3,1.1-1.2,1.6-2.1,1.6C139.8,14.7,138.8,14.2,138.6,13.3z"/>
	<path d="M147.3,10.3C147.3,10.3,147.3,10.2,147.3,10.3c0.4-1.8,1.8-3.9,3.6-3.9c0.2,0,0.3,0,0.5,0.1c1.7,0.3,2.1,1.9,1.7,3.5
		c-0.3,1.1-0.8,2.3-1.6,3.1c-0.8,1-1.8,1.6-2.6,1.6c-0.7,0-1.3-0.4-1.6-1.2c-0.2-0.8-0.1-1.7,0.2-2.6
		C147.3,10.7,147.2,10.5,147.3,10.3z M148.5,13c1.1,1.5,3.4-2.2,3.5-3.3c0.3-1.2-0.6-2.7-2-2c-1,0.5-1.3,1.7-1.6,2.6
		C148.2,11.3,148.2,12.6,148.5,13z"/>
	<path d="M159,6.6c0.1-0.1,0.3-0.2,0.4-0.2c0.3,0,0.6,0.3,0.5,0.7c0,0.1-0.1,0.2-0.1,0.2c-0.7,1-1.3,2-2,3c-0.6,1-1.1,1.9-1.6,2.9
		c-0.2,0.4-0.5,1.4-1.1,1.4c-0.1,0-0.2,0-0.2-0.1c-0.3-0.1-0.3-0.3-0.3-0.4c-0.1-1.9-0.3-5.4-0.4-7c0-0.1,0-0.1,0-0.2
		c0.1-0.3,0.4-0.5,0.7-0.5c0.5,0.1,0.4,0.7,0.4,1.1c0.2,1.4,0.3,2.8,0.4,4.1C156.7,10,157.7,8.3,159,6.6z"/>
	<path d="M161.7,13.3c0.4-0.1,0.8-0.2,1.1-0.4c0.3-0.2,0.6,0,0.6,0.3c0,0.3-0.3,0.5-0.5,0.7c-0.4,0.3-1,0.5-1.4,0.6
		c-0.2,0.1-0.4,0.1-0.6,0.1c-1.3,0-2.1-1-2.1-1.6c-0.1-0.4,0-0.8,0.1-1.2c0.2-1,0.9-2,1.5-2.9c0.8-1,2.2-2.4,3.3-2.3
		c0.3,0,0.6,0.1,0.9,0.4c0.3,0.4,0.4,0.9,0.3,1.4c-0.4,1.7-3.1,3.6-4.7,3.3C159.7,12.8,160.4,13.7,161.7,13.3z M163.7,7.8
		c-0.1-0.2-0.6-0.2-0.9,0.1c-0.5,0.4-1.1,1-1.4,1.4c-0.3,0.4-0.6,0.7-0.8,1.1C161.8,10.7,164,9,163.7,7.8z"/>
	<path d="M169.9,7.2c0.1,0.1,0.1,0.2,0.1,0.4c-0.1,0.2-0.2,0.4-0.4,0.5c-0.3,0.1-0.5-0.1-0.7-0.3c-1.4-0.7-2.8,3.5-3.1,4.4
		c-0.2,0.5-0.3,1.1-0.4,1.6c-0.1,0.3-0.1,0.5-0.3,0.7c-0.1,0.1-0.3,0.1-0.4,0.1c-0.1,0-0.1,0-0.2,0c-0.3-0.1-0.3-0.5-0.2-0.9
		c0.1-0.3,0.1-0.5,0.2-0.6c0.5-2.1,0.9-4.2,1.6-6.3c0.1-0.3,0.4-0.4,0.6-0.4c0.3,0,0.5,0.2,0.4,0.5c-0.1,0.3-0.2,0.7-0.3,1
		C167.8,6.5,169.4,6.1,169.9,7.2z"/>
	<path d="M178.6,5.8c0.4,0,0.5,0.3,0.5,0.6c-0.1,0.3-0.4,0.6-0.7,0.6c-0.6,0-1.3-0.1-1.9-0.1c-0.3,1.2-1.8,5.6-1,6.3
		c0.2-0.4,0.6-0.5,0.9-0.3c0.5,0.3-0.1,1-0.4,1.3c-0.3,0.2-0.5,0.3-0.8,0.3c-0.4,0-0.8-0.2-0.9-0.5c-1-1.3,0.5-5.2,1.1-7.1
		c-0.4,0-0.8,0.1-1.1,0.1c-0.3,0-0.4-0.3-0.4-0.6c0,0,0,0,0,0c0.1-0.4,0.8-0.4,1.2-0.5c0.2,0,0.5-0.1,0.7-0.1c0.3-0.8,0.7-1.6,1-2.4
		c0.1-0.3,0.2-0.6,0.5-0.7c0,0,0.1,0,0.1,0c0.5,0,0.4,0.5,0.2,0.9c-0.3,0.7-0.6,1.4-0.8,2.1C177.3,5.8,178.3,5.8,178.6,5.8z"/>
	<path d="M183,6.2c1,0.1,1.4,1,1.6,1.8c0.2,1.3,0.1,2.3-0.2,3.4c-0.1,0.5-0.3,1-0.4,1.6c-0.2,0.5-0.5,1.4-1.1,1.7
		c-0.1,0-0.1,0-0.2,0c-0.5,0-0.4-0.6-0.3-1.1c0.1-0.4,0.2-0.8,0.3-1.2c0.2-0.7,0.4-1.3,0.5-2.1c0.1-0.8,0.2-2.9-0.7-2.8
		c-0.8,0.1-1.3,1.5-1.7,2.1c-0.6,1.2-1.2,3-1.4,4.3c-0.1,0.4-0.6,0.7-0.9,0.5c-0.6-0.3-0.2-1.7-0.1-2.1c0.1-1.1,0.3-2.2,0.6-3.3
		c0-0.1,0.1-0.2,0.1-0.4c0.3-1.3,0.7-2.7,1.1-4c0.1-0.3,0.3-1.8,1-1.8c0.1,0,0.1,0,0.2,0c0.4,0.2,0,1-0.1,1.3
		c-0.5,1.5-0.8,3-1.1,4.6C180.7,7.9,181.6,6.2,183,6.2z"/>
	<path d="M187.9,13.3c0.4-0.1,0.8-0.2,1.1-0.4c0.3-0.2,0.6,0,0.6,0.3c0,0.3-0.3,0.5-0.5,0.7c-0.4,0.3-1,0.5-1.4,0.6
		c-0.2,0.1-0.4,0.1-0.6,0.1c-1.3,0-2.1-1-2.1-1.6c-0.1-0.4,0-0.8,0.1-1.2c0.2-1,0.9-2,1.5-2.9c0.8-1,2.2-2.4,3.3-2.3
		c0.3,0,0.6,0.1,0.8,0.4c0.3,0.4,0.4,0.9,0.3,1.4c-0.4,1.7-3.1,3.6-4.7,3.3C185.9,12.8,186.7,13.7,187.9,13.3z M189.9,7.8
		c-0.1-0.2-0.6-0.2-0.9,0.1c-0.5,0.4-1.1,1-1.4,1.4c-0.3,0.4-0.6,0.7-0.8,1.1C188,10.7,190.2,9,189.9,7.8z"/>
	<path d="M195.1,14.6c-0.1,0-0.1,0-0.1,0c-1.3,0-1.2-2.2-0.6-4.6c0.7-2.9,2-6.2,2-6.7c0.1-0.3,0.3-0.4,0.6-0.4
		c0.2,0,0.3,0.1,0.3,0.3c-0.1,0.8-0.4,1.6-0.6,2.4c-0.6,2.6-1.5,5.3-1.4,7.9c0.4,0,0.5,0.3,0.4,0.6
		C195.5,14.4,195.3,14.6,195.1,14.6z"/>
	<path d="M201.8,7.6c-0.8,0.3-1.6,0.7-2.4,1.2C198.9,9,199,9,198.7,9.1c-0.3,0.1-0.5-0.1-0.5-0.4c0-0.7,2-1.4,2.5-1.8
		c0.6-0.4,1.1-0.5,1.4-0.5c1.1,0,1.1,1.5,0.9,2.9c-0.1,0.5-0.4,2.4-0.5,3.1c0.3,0,0.4,0.3,0.4,0.6c-0.1,0.3-0.3,0.5-0.6,0.6
		c0,0.3-0.1,0.8-0.5,1c-0.4,0.2-0.9,0-0.9-0.4c-1.3,0.5-2.3,0.7-3,0.7c-1.3,0-1.7-0.8-1.5-1.7c0.4-1.7,2.8-4.1,4.8-3.3
		c0.2,0.1,0.3,0.2,0.5,0.4C201.8,9.8,202.3,7.7,201.8,7.6z M197.9,13.5c0.8,0.4,2.3-0.4,3.3-0.6c0.2-2.9-2.5-2.2-3.5,0.2
		C197.6,13.3,197.9,13.5,197.9,13.5z"/>
	<path d="M208.7,13.1c0.1,0.1,0.1,0.3,0,0.4c-0.1,0.3-0.3,0.5-0.6,0.5c-1.2,0.2-2.8,0.3-4,0.7c-0.1,0-0.1,0-0.2,0
		c-0.1,0-0.2,0-0.3-0.1c-0.2-0.2-0.2-0.6,0-0.9c0.7-1,1.4-2,2.1-2.9c0.9-1.2,1.6-2.2,2.5-3.4c-0.8,0-1.7,0-2.6,0.1
		c-0.5,0.1-1,0.1-0.9-0.5c0,0,0,0,0,0c0.2-0.5,0.7-0.4,1.1-0.5c0.4-0.1,0.9-0.1,1.3-0.1c0.4,0,0.9-0.1,1.3-0.1c0.7,0,0.8,0,1,0
		s0.3,0.1,0.4,0.2c0.1,0.2,0.1,0.4-0.1,0.7c-1.3,2-2.7,4-4.1,5.9C206.4,13,208.5,12.5,208.7,13.1z"/>
	<path d="M210,12.9c-0.1-0.8-0.1-1.5,0.1-2.2c0.3-1.3,0.9-2.5,1.4-4c0.2-0.6,1-0.4,0.8,0.2c-0.6,1.6-1.1,3.4-1.2,5
		c0.5,2.3,2.1-0.2,2.7-1.4c0.4-0.9,0.7-1.9,0.9-2.8c0.2-0.5,0.1-1.1,0.6-1.3c0.2-0.1,0.3-0.1,0.4-0.1c0.7,0,0.3,1.2,0.2,1.8
		c-0.1,0.9-0.3,1.7-0.4,2.5c-0.1,0.6-0.3,1.6-0.5,2.5c-0.4,1.7-1,3.5-2,4.3c-0.3,0.2-0.7,0.3-1.1,0.3c-0.6,0-1.1-0.2-1.5-0.5
		c-0.5-0.4-0.8-0.5-0.6-1c0.2-0.5,0.8-0.6,1-0.4c0.2,0.1,0.3,0.2,0.5,0.3c0.4,0.2,1.1,0.5,1.4-0.1c0.6-1.1,0.9-2.4,1.2-3.5
		C212.7,14.6,210.6,15,210,12.9z"/>
	<path d="M226.6,3.4c0,0,0-0.1,0.1-0.1c0.1-0.2,0.4-0.3,0.6-0.3c0.2,0,0.4,0.2,0.3,0.5c-0.3,0.8-0.5,1.7-0.8,2.5
		c-0.4,1.4-0.8,2.9-1.2,4.3c-0.1,0.4-0.3,1.1-0.4,1.5c-0.2,0.9-0.3,1.8-0.8,2.6c-0.1,0.3-0.4,0.5-0.6,0.5c-0.1,0-0.1,0-0.2,0
		c-0.5-0.2-0.2-1.3-0.1-1.8c-1.2,1.2-3.5,2.7-4.2,0.7c-0.2-0.5-0.2-1.1,0-1.7c0.6-2.7,3.6-5.9,6.1-5.1
		C225.8,5.9,226.4,4.2,226.6,3.4z M220.4,12.6c0.2,2.4,3.3-1.1,3.8-2.2c0.3-0.8,0.5-1.6,0.7-2.3c-0.7-0.3-1.6-0.1-2.3,0.5
		C221.3,9.6,220.4,11.6,220.4,12.6z"/>
	<path d="M226.4,10.3C226.4,10.3,226.4,10.2,226.4,10.3c0.4-1.8,1.8-3.9,3.6-3.9c0.2,0,0.3,0,0.5,0.1c1.7,0.3,2.1,1.9,1.7,3.5
		c-0.3,1.1-0.8,2.3-1.6,3.1c-0.8,1-1.8,1.6-2.6,1.6c-0.7,0-1.3-0.4-1.6-1.2c-0.2-0.8-0.1-1.7,0.2-2.6
		C226.4,10.7,226.3,10.5,226.4,10.3z M227.6,13c1.1,1.5,3.4-2.2,3.5-3.3c0.3-1.2-0.6-2.7-2-2c-1,0.5-1.3,1.7-1.6,2.6
		C227.3,11.3,227.3,12.6,227.6,13z"/>
	<path d="M239,8.9c-0.3,1.5-0.6,3-0.9,4.6c-0.1,0.3-0.1,0.6-0.2,0.8c-0.4,1.8-1.3,3.2-2.8,3.2c-0.4,0-1-0.1-1.5-0.4
		c-0.8-0.5-1.2-0.6-0.6-1.4c0.3-0.2,0.5-0.2,0.6-0.1c2.8,1.4,2.8-0.1,3.3-2.7c-2.3,2.7-4.9,1.3-4.3-1.4c0-0.2,0.1-0.3,0.1-0.5
		c0.6-1.7,1.7-3.5,3.5-4.2c0.4-0.2,0.8-0.2,1.2-0.2c0.7,0,1.4,0.3,1.7,0.9C239.4,7.7,239,8.4,239,8.9z M233.8,11.3
		c-0.3,1.4,0.4,2.4,1.6,1.5c1.4-1.4,2.1-3.3,2.6-5C236.3,6.6,234.2,9.6,233.8,11.3z"/>
	<path d="M11.9,20.6c0.2,0,0.5-0.1,0.7-0.1c0.2,0,0.3,0.1,0.4,0.2c0,0.1,0,0.2,0,0.3c-0.1,0.2-0.2,0.4-0.6,0.5
		c-0.8,0.1-1.7,0.2-2.6,0.3c-0.2,0.7-0.3,1.3-0.5,2c-0.4,1.7-0.7,3.4-1,5.1c-0.1,0.9-0.2,1.7-0.3,2.5c0,0.5-0.2,1.2-0.8,1.2
		c-0.1,0-0.1,0-0.2,0c-1.2,0.1,1.4-9.1,1.6-10.1c0-0.2,0.1-0.3,0.1-0.5c-0.1,0-0.2,0-0.2,0c-0.4,0.1-1.1,0.3-1.6,0.4
		c-0.2,0.1-0.3,0.1-0.5,0.1c-0.1-0.1-0.2-0.2-0.1-0.4c0,0,0-0.1,0-0.1c0.1-0.3,0.4-0.3,0.6-0.4c0.6-0.3,1.3-0.4,1.9-0.5
		C9.9,20.9,10.9,20.7,11.9,20.6z"/>
	<path d="M17.9,21.4c0.1-0.3,0.5-0.4,0.7-0.4c0.1,0.1,0.2,0.2,0.2,0.3c0,0,0,0,0,0c-0.4,1.3-0.8,2.5-1.1,3.8c-0.6,2-0.9,4.1-1.6,6.1
		c-0.2,0.3-0.6,0.5-0.9,0.4c-0.9-0.2,0.5-3.6,0.7-4.4c-1,0.1-2,0.2-3,0.4c-0.3,1.3-0.5,2.6-0.8,3.9C12,32,12,32.5,11.6,32.7
		c-0.1,0.1-0.2,0.1-0.3,0.1c-0.3,0-0.6-0.3-0.5-0.5c0.1-1,0.3-1.9,0.5-2.9c0.5-2.1,1.2-4.3,2-6.4c0-0.1,0.3-1.9,1.1-1.9
		c0.1,0,0.1,0,0.1,0c0.2,0,0.2,0.3,0.2,0.4c-0.6,1.9-1.1,3.8-1.6,5.6c1-0.2,2.1-0.3,3.1-0.5C16.6,25,17.4,22.8,17.9,21.4z"/>
	<path d="M20.2,30.4c0.6-0.4,1.2-0.5,1.4,0.1c0.1,0.7-1.2,1-1.7,1.3c-0.5,0.2-1.5,0.8-2,0.8c-0.1,0-0.2,0-0.3-0.1
		c-0.3-0.3,0-0.9,0-1.2c0.1-0.6,0.2-1.1,0.4-1.7c0.6-2.5,1.2-5,2.1-7.4c0,0,0,0,0,0c-0.3-0.6,0.6-0.9,1.1-1c0.6-0.2,1.4-0.5,2.1-0.5
		c0.2,0,0.4,0,0.6,0.1c0.3,0.1,0.2,0.6,0,0.7c-0.4,0.3-0.8,0.2-1.2,0.3c-0.5,0.1-1.1,0.3-1.6,0.4c-0.5,1.8-0.9,3.5-1.3,5.2
		c0.5-0.2,1.2-0.5,1.7-0.7c0.3-0.2,1.1-0.4,1.2-0.2c0.2,0.1,0.2,0.3,0.2,0.5c0,0.1-0.1,0.2-0.2,0.3c-0.4,0.3-0.8,0.4-1.2,0.5
		c-0.7,0.3-1.3,0.5-2,0.8c-0.2,0.8-0.4,1.5-0.5,2.3C19.2,30.8,19.7,30.6,20.2,30.4z"/>
	<path d="M31.5,31.8c0,0.1,0,0.1,0,0.2c-0.1,0.4-0.5,0.5-0.9,0.2c-0.3-0.3-0.4-0.7-0.6-1.1c-0.7,1-1.5,1.4-2.2,1.4
		c-1,0-1.8-1-1.8-2.4c-0.1-0.9,0.1-2.1,0.4-3.2c0.1-0.5,0.3-1,0.4-1.5c0.3-1.2,0.8-2.4,1.6-3.4c0.6-0.8,1.5-1.3,2.3-1.3
		c0.5,0,0.9,0.2,1.2,0.5c0.8,0.8,0.8,2.1,0.6,3.4c-0.3,1.5-0.6,3.1-1.4,4.6c-0.4,0.7-0.2,0.4-0.4,0.7c0.1,0.2,0.2,0.4,0.2,0.6
		C31.3,30.9,31.5,31.3,31.5,31.8z M27.6,31c0.7,1,1.5,0.1,2-0.9c-0.3-0.6-0.6-1.3-0.9-2c-0.1-0.5,0.6-1.2,1-0.7
		c0.2,0.4,0.4,0.9,0.6,1.2c0.7-1.5,1.1-3.3,1.2-4.9c-0.1-1.1-0.3-1.9-1-2c-1,0-2,1.9-2.2,2.7C27.8,26.5,27,29.4,27.6,31z"/>
	<path d="M35.8,30.7c0.5-0.7,0.8-1.5,1.1-2.2c0.9-2.4,1.6-4.8,2.2-7.2c0-0.2,0.2-0.3,0.4-0.4c0.1,0,0.2-0.1,0.3-0.1
		c0.1,0,0.1,0,0.1,0c0.3,0.1,0.3,0.3,0.3,0.4c-0.2,0.7-0.3,1.3-0.4,2c-0.2,0.9-0.4,1.8-0.7,2.7c-0.6,1.8-1.2,3.5-2,5.1
		c-0.1,0.2-0.2,0.3-0.3,0.5c-0.3,0.4-0.7,0.8-1.2,1c-0.2,0.1-0.4,0.1-0.6,0.1c0,0,0,0,0,0c-0.5,0-0.9-0.3-1.2-0.7
		c-0.1-0.1-0.1-0.3-0.2-0.4c0-0.1-0.1-0.3-0.1-0.5c-0.1-0.3-0.1-0.6-0.1-1c0-0.2,0-0.4,0.1-0.7c0.2-2.3,0.7-4.6,1.2-6.9
		c0.1-0.2,0.1-0.4,0.1-0.5c0-0.2,0.1-0.3,0.1-0.4c0.1-0.3,0.2-0.5,0.5-0.6c0.2-0.1,0.3-0.1,0.4,0c0.5,0.1,0.2,0.7,0.1,1.1
		c-0.2,1.1-0.5,2.1-0.7,3.2c-0.2,1-0.3,2-0.4,3c0,0.4-0.1,0.8-0.1,1.2c0,0.5,0,0.6,0.1,0.9c0,0.2,0.1,0.4,0.1,0.6
		c0.2,0.7,0.4,0.8,0.9,0.1C35.7,30.9,35.7,30.8,35.8,30.7z"/>
	<path d="M40.3,32.1c-0.1,0.3-0.4,0.5-0.7,0.6c-0.2,0-0.4-0.1-0.4-0.4c0.1-1.5,0.4-2.9,0.7-4.4c0.4-1.8,0.9-3.5,1.4-5.3
		c0.4-1.2,0.2-1.4,0.8-1.8c0.1,0,0.2-0.1,0.3-0.1c0.2,0,0.4,0.1,0.3,0.5c-0.2,0.8-0.4,1.6-0.6,2.5c-0.2,0.7-0.6,2.6-0.7,2.9
		c-0.3,1.5-0.5,3.2-0.9,4.7C40.5,31.6,40.4,31.8,40.3,32.1z"/>
	<path d="M47.5,29.9c0.1,0.1,0.2,0.3,0.1,0.4c0,0.1-0.1,0.1-0.1,0.2c-0.5,0.9-1.4,1.6-2.3,1.9c-0.4,0.1-0.7,0.2-1,0.2
		c-2.2,0-2.6-2.8-2.1-5c0.5-2.1,1.5-4.7,3.3-6.3c0.5-0.3,1-0.5,1.4-0.5c0.7,0,1.3,0.4,1.6,1c0.3,0.6,0.4,1,0.4,1.3
		c-0.1,0.2-0.3,0.4-0.6,0.5c-0.3,0-0.3-0.3-0.4-0.5c-0.2-0.7-0.5-1.6-1.4-1.3c-0.6,0.2-1,0.9-1.3,1.4c-1.2,1.9-1.9,4-2,6
		c-0.1,2.1,1.5,3.5,3.2,1C46.7,29.7,47.2,29.7,47.5,29.9z"/>
	<path d="M53.3,29.8c0.4,0.2,0.5,0.4,0.4,0.7c-0.1,0.4-0.6,0.8-1.2,0.5c-0.8-0.6-1.6-1.3-2.4-2c-0.2,1-0.3,2-0.6,3
		c-0.1,0.4-0.5,0.7-0.8,0.7c-0.2,0-0.4-0.1-0.5-0.4c0-1.5,0.6-3,0.8-4.5c0.2-0.7,0.4-1.6,0.6-2.5c0.4-1.5,0.7-3,1.1-4.1
		c0.2-0.4,0.9-0.4,0.8-0.1c-0.2,1.6-0.6,3.4-0.9,5.1c1.2-1.7,2.8-3.8,3.9-5.4c0.1-0.2,0.3-0.3,0.5-0.3c0.2,0,0.3,0.1,0.4,0.2
		c0.1,0.2-0.1,0.4-0.1,0.4c-1.5,2.3-3,4.6-4.6,6.9C51.7,28.4,52.4,29.2,53.3,29.8z"/>
	<path d="M61.7,26.5C61.8,26.5,61.8,26.5,61.7,26.5c0.4,0.1,0.8,0.2,1.1,0.4c0.2,0.2,0.4,0.4,0.6,0.6c0.2,0.4,0.2,0.8,0.1,1.2
		c-0.1,0.3-0.2,0.7-0.5,1c-0.3,0.4-0.6,0.8-1.1,1.2c-0.6,0.5-1.3,1-2,1.3c-0.2,0.1-0.5,0.2-0.7,0.3c-0.3,0.1-0.6,0.1-0.9,0.1
		c-0.1,0-0.1,0-0.2,0c0,0-0.1,0-0.1,0c-0.1,0-0.2-0.1-0.2-0.1c-0.1-0.1-0.2-0.2-0.2-0.3c0,0,0,0,0,0c0,0,0,0,0-0.1
		c0-0.1,0-0.1,0-0.1c0,0,0-0.1,0-0.1c0,0,0-0.1,0.1-0.1c0.3-2.2,0.8-4.4,1.2-6.7c0.2-0.7,0.3-1.3,0.5-2c0,0-0.1,0-0.1,0
		c0,0-0.1-0.1-0.1-0.1c0-0.1,0-0.1,0-0.1c0-0.1,0.1-0.2,0.2-0.3c0.1-0.1,0.1-0.2,0.2-0.2c0.1-0.3,0.2-0.5,0.3-0.9
		c0-0.1,0.1-0.2,0.3-0.3c0.1-0.1,0.2-0.1,0.3,0c0.1,0,0.2,0.1,0.2,0.3c0.2-0.1,0.3-0.2,0.5-0.3c0.2-0.1,0.3-0.1,0.5-0.2
		c0.4-0.2,0.9-0.3,1.3-0.3c0,0,0.1,0,0.1,0c0.3,0,0.5,0.1,0.7,0.2c0.4,0.3,0.4,0.7,0.4,0.9c0,0.5-0.2,0.9-0.4,1.4
		c-0.2,0.4-0.4,0.9-0.7,1.3c-0.5,0.7-0.9,1.2-1.5,1.8C61.7,26.5,61.7,26.5,61.7,26.5z M59.4,31.5c0.2-0.1,0.3-0.2,0.5-0.2
		c0.4-0.2,0.6-0.4,0.8-0.5c0.4-0.3,0.2-0.2,0.5-0.4c0.3-0.2,0.5-0.4,0.7-0.7c0.5-0.6,0.7-1.3,0.4-1.8c-0.1-0.2-0.3-0.3-0.5-0.4
		c-0.3-0.1-0.6-0.1-0.9-0.1c-0.2,0.2-0.4,0.4-0.7,0.6c-0.3,0.2-0.5,0.4-0.6,0.5c0,0,0,0,0,0c0,0,0,0,0,0c-0.2,1.1-0.3,2.1-0.5,3.2
		C59.1,31.6,59.2,31.5,59.4,31.5z M60.3,26.5c0.4-0.4,0.7-0.7,1.1-1.1c0.8-1,1.1-1.5,1.3-1.9c0.1-0.2,0.1-0.1,0.1-0.3
		c0.1-0.2,0.1-0.3,0.2-0.5c0.1-0.3,0.1-0.5,0-0.7c0-0.1,0-0.1-0.1-0.1c-0.1,0-0.1-0.1-0.2-0.1c-0.1,0-0.1,0-0.2,0
		c-0.1,0-0.1,0-0.2,0c-0.3,0.1-0.6,0.1-0.8,0.2c-0.2,0.1-0.3,0.1-0.4,0.2c-0.2,0.1-0.5,0.3-0.7,0.4c-0.2,1.3-0.7,3.5-0.9,4.6
		C60.1,26.7,59.9,26.9,60.3,26.5z"/>
	<path d="M68.4,30.3c0.2,0.3,0.2,0.6-0.2,0.8c-0.7,0.3-2.2-1-2.7-1.4c-0.1-0.1-0.2-0.1-0.2-0.2c-0.1,0.6-0.2,1.2-0.3,1.9
		c-0.1,0.4-0.1,0.8-0.5,1.1c-0.2,0.1-0.3,0.1-0.4,0.1c-0.4,0-0.4-0.5-0.3-0.9c0.1-1.2,0.3-2.4,0.6-3.6c0.2-0.9,0.4-1.8,0.6-2.8
		c0.2-0.8,0.4-1.6,0.7-2.5c0,0-0.1-0.1,0-0.1c0-0.1,0.1-0.3,0.2-0.4c0.1-0.2,0.3-0.3,0.5-0.3c0.6-0.4,1.3-0.9,2-1.2
		c0.4-0.2,0.8-0.2,1.1-0.2c0.8,0,1.3,0.4,1.5,1.2c0.1,0.5,0.1,0.9,0,1.4c-0.4,1.7-2.1,3.4-3.7,4.5c-1.2,0.9-1.3,0.6-0.8,0.9
		C67,29.3,67.9,29.6,68.4,30.3z M68.9,24.8c0.7-0.9,1.3-2.3,0.6-3c-0.8-0.4-1.9,0.4-2.8,0.9c-0.5,1.7-0.7,3.2-1.1,4.9
		C66.8,26.9,68,25.9,68.9,24.8z"/>
	<path d="M74.5,20.8c0.1,0,0.3-0.1,0.5-0.1c1,0,1.6,0.8,1.8,1.3c0.3,0.9,0.2,2.3-0.1,3.9c-0.6,2.6-2,5.4-3.7,6.4
		c-0.3,0.2-0.6,0.2-0.9,0.2c-0.8,0-1.4-0.6-1.6-1.3c-0.4-1.3-0.2-2.8,0.1-4.2c0.1-0.6,0.3-1.3,0.5-1.9
		C71.6,23.6,72.6,21.4,74.5,20.8z M71.6,30.1c0.2,1,0.2,1.1,0.8,1.3c1.1,0.2,2.3-2.9,2.6-3.7c0.5-1.3,0.6-2.1,0.6-2.4
		c0.2-1.3,0.4-2.9-0.9-3.4c-0.3-0.1-0.5,0.1-0.6,0.2c-0.8,0.6-1.3,1.5-1.6,2.4C72,26.4,71.4,28.3,71.6,30.1z"/>
	<path d="M84.9,21.1c0,0.2,0,0.4-0.1,0.6c-0.1,0.5-0.3,1-0.5,1.4c-0.3,0.9-0.9,2.5-1.1,3.2c-0.5,1.5-0.9,3-1.3,4.5
		c0,0.2-0.1,0.4-0.1,0.6c-0.1,0.4-0.1,0.9-0.4,1.2c-0.1,0.1-0.3,0.2-0.4,0.2c-0.2,0-0.4-0.1-0.4-0.3c-0.2-1.7-0.4-3.5-0.5-5.2
		c-0.5,0.8-1,1.9-1.5,2.8c-0.2,0.4-0.4,0.9-0.7,1.3c-0.1,0.2-0.3,0.6-0.6,0.7c-0.2,0.1-0.4,0.2-0.5,0.1c-0.2-0.2-0.1-0.5-0.1-0.7
		c0-0.3,0.1-0.6,0.1-0.8c0.2-1.4,0.4-2.9,0.7-4.3c0.3-1.3,0.7-2.5,1.1-3.8c0.2-0.4,0.5-1.3,1.1-1.2c0.5,0.2-0.3,1.8-0.4,2.3
		c-0.5,1.6-0.8,3.3-1.1,4.9c0.5-0.9,1-1.9,1.6-2.7c0.2-0.4,0.6-0.9,1.1-0.7c0.4,0.2,0.2,0.6,0.2,1c0,1,0.1,2.1,0.1,3
		c0.4-1.6,0.9-3.2,1.5-4.7c0.4-0.9,0.7-2.6,1.6-3.2c0.1,0,0.1-0.1,0.2-0.1C84.8,20.9,84.9,20.9,84.9,21.1z"/>
	<path d="M89.7,23.5c0.4-1.3,0.7-2,0.7-2.1c0.1-0.3,0.4-0.4,0.6-0.4c0.1,0,0.2,0,0.2,0.1c0.2,0.1,0.2,0.4,0.2,0.8
		c-0.1,0.6-0.5,1.2-0.5,1.3c-1,3.1-1.7,6.1-2.2,9.2c-0.1,0.3-0.4,0.5-0.7,0.5c0,0-0.1,0-0.1,0c-0.6-0.1-0.6-0.8-0.7-1.3
		c-0.5-1.8-1-3.8-1.3-5.6c-0.4,1.9-0.6,3.9-0.8,5.8c-0.1,0.7-1.3,0.8-1.3,0.2c0.1-2.1,0.4-4,0.9-6.1c0.3-1.1,0.5-2.1,0.9-3.2
		c0.2-0.3,0.5-0.4,0.7-0.4c0.6,0.1,0.4,1,0.5,1.4c0.3,2.1,0.6,4.2,1.2,6.2C88.5,27.7,89.1,25.6,89.7,23.5z"/>
	<path d="M100,20.9c0.3,0,0.4,0.3,0.4,0.5c-0.1,0.2-0.2,0.4-0.4,0.5c-0.6,0.2-1.1,0-1.7,0.1c-0.6,0-1.2,0.1-1.8,0.2
		c-0.3,0.9-0.5,1.8-0.7,2.8c0.7-0.2,1.3-0.3,2-0.3c0.3-0.1,1-0.1,1.1,0.1c0.5,0.3,0.1,1-0.5,1c-0.9,0-1.9,0.1-2.8,0.3
		c-0.2,1-0.4,2-0.7,3c-0.3,1-0.2,3-1.1,3.6c-0.1,0.1-0.3,0.1-0.4,0.1c-0.2,0-0.3-0.1-0.3-0.3c0-0.9,0.1-1.7,0.3-2.6
		c0.1-0.4,0.2-0.9,0.3-1.3c0.5-2.2,1.2-4.3,1.9-6.5c-0.1-0.3,0.3-0.6,0.6-0.6c0.8-0.2,1.5-0.3,2.3-0.4c0.4,0,0.9-0.1,1.3-0.1
		C99.9,20.9,100,20.9,100,20.9z"/>
	<path d="M103.4,20.8c0.1,0,0.3-0.1,0.5-0.1c1,0,1.6,0.8,1.8,1.3c0.3,0.9,0.2,2.3-0.1,3.9c-0.6,2.6-2,5.4-3.7,6.4
		c-0.3,0.2-0.6,0.2-0.9,0.2c-0.8,0-1.4-0.6-1.6-1.3c-0.4-1.3-0.2-2.8,0.1-4.2c0.1-0.6,0.3-1.3,0.5-1.9
		C100.6,23.6,101.5,21.4,103.4,20.8z M100.5,30.1c0.2,1,0.2,1.1,0.8,1.3c1.1,0.2,2.3-2.9,2.6-3.7c0.5-1.3,0.6-2.1,0.6-2.4
		c0.2-1.3,0.4-2.9-0.9-3.4c-0.3-0.1-0.5,0.1-0.6,0.2c-0.8,0.6-1.3,1.5-1.6,2.4C100.9,26.4,100.4,28.3,100.5,30.1z"/>
	<path d="M109.4,29.2c0.2,0.9,0.3,1.9,0.6,2.8c0,0,0,0.1,0,0.1c0,0,0,0.1,0,0.1c0,0.1-0.1,0.2-0.1,0.2c-0.1,0.1-0.2,0.2-0.3,0.2
		c-0.3,0.1-0.4-0.2-0.4-0.2c-0.5-1.3-1-2.7-1.2-4.1c-0.6,1.1-1.2,2.3-1.7,3.4c-0.1,0.1-0.2,0.3-0.2,0.4c-0.2,0.2-0.3,0.5-0.6,0.5
		c0,0-0.1,0-0.1,0c-0.1,0-0.1,0-0.2,0c-0.3-0.2-0.1-0.6,0-0.9c0.7-1.8,1.6-3.5,2.5-5.2c-0.2-1.6-0.4-3.2-0.3-4.8c0-0.1,0-0.2,0-0.3
		c0.1-0.2,0.1-0.5,0.4-0.6c0.1-0.1,0.2-0.1,0.3-0.1c0.2,0,0.2,0.1,0.3,0.1c0.1,0.1,0.1,0.2,0.2,0.4c0.2,1.1,0.2,2.3,0.3,3.5
		c0.6-1.1,1.3-2.2,2.2-3.2c0.3-0.3,0.4-0.7,0.8-0.8c0,0,0,0,0,0c0.1,0,0.2,0,0.3,0.1c0.1,0.1,0.1,0.3,0,0.4c-0.4,0.6-0.7,1.1-1,1.7
		c-0.6,1.1-1.5,2.4-2.1,3.6C109,27.3,109.3,28.5,109.4,29.2z"/>
	<path d="M118,21.5c0.2-0.2,0.6-0.2,0.8-0.3c1-0.3,2.6-0.7,3.5-0.9c0.1,0,0.1,0,0.1,0c0.4,0,0.5,0.2,0.4,0.5
		c-0.1,0.3-0.3,0.5-0.7,0.6c-0.4,0.1-0.8,0.1-1.2,0.2c-0.1,2.2-1.9,11-5,11.2c0,0,0,0-0.1,0c-1.4,0-1.8-1.8-1.5-2.9
		c0.1-0.5,0.4-0.9,0.8-0.8c0.2,0.1,0.3,0.3,0.3,0.6c0,0.4-0.1,0.8,0.1,1.2c0.2,0.3,0.2,0.6,0.6,0.6c0.5-0.1,0.9-0.8,1.2-1.3
		c1.5-2.7,1.7-5.6,2.3-8.3c-0.5,0.1-1.1,0.4-1.6,0.4C117.7,22.2,117.7,21.7,118,21.5z"/>
	<path d="M124.5,30.7c0.5-0.7,0.8-1.5,1.1-2.2c0.9-2.4,1.6-4.8,2.2-7.2c0-0.2,0.2-0.3,0.4-0.4c0.1,0,0.2-0.1,0.3-0.1
		c0.1,0,0.1,0,0.1,0c0.3,0.1,0.3,0.3,0.3,0.4c-0.2,0.7-0.3,1.3-0.4,2c-0.2,0.9-0.4,1.8-0.7,2.7c-0.6,1.8-1.2,3.5-2,5.1
		c-0.1,0.2-0.2,0.3-0.3,0.5c-0.3,0.4-0.7,0.8-1.2,1c-0.2,0.1-0.4,0.1-0.6,0.1c0,0,0,0,0,0c-0.5,0-0.9-0.3-1.2-0.7
		c-0.1-0.1-0.1-0.3-0.2-0.4c0-0.1-0.1-0.3-0.1-0.5c-0.1-0.3-0.1-0.6-0.1-1c0-0.2,0-0.4,0.1-0.7c0.2-2.3,0.7-4.6,1.2-6.9
		c0.1-0.2,0.1-0.4,0.1-0.5c0-0.2,0.1-0.3,0.1-0.4c0.1-0.3,0.2-0.5,0.5-0.6c0.2-0.1,0.3-0.1,0.4,0c0.5,0.1,0.2,0.7,0.1,1.1
		c-0.2,1.1-0.5,2.1-0.7,3.2c-0.2,1-0.3,2-0.4,3c0,0.4-0.1,0.8-0.1,1.2c0,0.5,0,0.6,0.1,0.9c0,0.2,0.1,0.4,0.1,0.6
		c0.2,0.7,0.4,0.8,0.9,0.1C124.4,30.9,124.4,30.8,124.5,30.7z"/>
	<path d="M135.7,21.5c-0.2,1.2-0.4,2.3-0.5,3.5c-0.3,2.1-0.5,4.8-1,7c0,0,0,0,0,0c-0.1,0.3-0.4,0.6-0.8,0.6c0,0-0.1,0-0.1,0
		c-0.4-0.1-0.3-0.4-0.3-0.4c0.2-2.5,0.7-5.3,1.1-7.8c-0.4,1-1.6,3.3-1.9,4.1c-0.2,0.3-0.5,0.6-0.8,0.6c-1.3,0-1.4-2.4-1.6-3.4
		c-0.5,1.7-1,3.4-1.4,5.1c-0.1,0.3-0.1,0.9-0.6,1.1c-0.3,0.1-0.6,0-0.6-0.2c0-0.1,0.1-0.2,0.1-0.4c0.7-3,1.6-6.1,2.4-9
		c0.2-0.6,1.3-0.7,1.2-0.1c-0.1,1.8,0.1,3.7,0.5,5.3c0.9-1.8,1.8-3.5,2.7-5.3c0.2-0.4,0.4-1.2,0.9-1.3c0.1,0,0.1,0,0.2,0
		C135.5,20.9,135.8,21.2,135.7,21.5z"/>
	<path d="M138.7,21.4c0.6-0.4,1.5-0.7,2.2-0.7c0.9,0,1.7,0.4,1.7,1.4c0,0.2,0,0.3-0.1,0.5c-0.5,2.2-3.5,4.5-5.6,5.2
		c-0.2,1.2-0.5,2.4-0.7,3.7c0,0.2-0.1,0.5-0.2,0.6c-0.1,0.3-0.5,0.4-0.7,0.4c0,0,0,0,0,0c-0.4,0-0.4-0.7-0.3-1.1
		c0.6-2.8,1.2-5.6,2.2-8.3c-0.2,0-0.3-0.2-0.2-0.3c0-0.1,0.1-0.1,0.1-0.2C137.6,22.3,138.1,21.8,138.7,21.4z M141.4,22.3
		c-0.1-0.9-1.3-0.6-2-0.2c-0.3,0.2-0.7,0.5-0.9,0.6c-0.4,1.2-0.7,2.3-1,3.5c-0.2,0.6-0.1,0.3-0.2,0.6
		C138.8,26,141.4,23.9,141.4,22.3z"/>
	<path d="M142.5,30.2c0.2,0.4,0.4,0.7,0.7,1c1,0.8,2.9,0,2.8-1.5c-0.2-2.6-5.3-5.4-1.1-8.2c0.7-0.4,1.5-0.6,2.2-0.6
		c0.3,0,0.5,0,0.7,0.1c0.8,0.2,1.4,1.1,1.4,1.6c0,0,0,0.1,0,0.1c-0.1,0.3-0.4,0.4-0.7,0.4c-0.2,0-0.3-0.1-0.3-0.2
		c-0.1-0.3-0.1-0.5-0.3-0.7c-0.7-0.7-2.1-0.2-2.9,0.6c-0.6,0.8-0.4,1.5-0.1,2.2c0.9,1.5,2.2,2.6,2.5,4.3c0.3,2.1-1.6,3.5-3.4,3.5
		c-0.8,0-1.6-0.3-2.1-1c-0.2-0.2-0.4-0.7-0.4-1.1c0-0.1,0.1-0.3,0.2-0.3C142,30,142.3,29.9,142.5,30.2z"/>
	<path d="M155.7,20.8c0.1,0,0.3-0.1,0.5-0.1c1,0,1.6,0.8,1.8,1.3c0.3,0.9,0.2,2.3-0.1,3.9c-0.6,2.6-2,5.4-3.7,6.4
		c-0.3,0.2-0.6,0.2-0.9,0.2c-0.8,0-1.4-0.6-1.6-1.3c-0.4-1.3-0.2-2.8,0.1-4.2c0.1-0.6,0.3-1.3,0.5-1.9
		C152.9,23.6,153.8,21.4,155.7,20.8z M152.8,30.1c0.2,1,0.2,1.1,0.8,1.3c1.1,0.2,2.3-2.9,2.6-3.7c0.5-1.3,0.6-2.1,0.6-2.4
		c0.2-1.3,0.4-2.9-0.9-3.4c-0.3-0.1-0.5,0.1-0.6,0.2c-0.8,0.6-1.3,1.5-1.6,2.4C153.2,26.4,152.6,28.3,152.8,30.1z"/>
	<path d="M164.4,21C164.4,21,164.4,21,164.4,21c0.2-0.2,0.3-0.3,0.4-0.3c0.1,0,0.1,0,0.2,0c0.1,0,0.2,0,0.2,0
		c0.1,0.1,0.2,0.2,0.1,0.3c-0.1,0.3-0.4,0.7-0.5,0.9c-0.6,1.1-1.2,2.3-1.8,3.4c-0.9,1.8-1.7,3.7-2.4,5.5c-0.1,0.2-0.2,0.4-0.2,0.6
		c-0.1,0.4-0.2,0.9-0.6,1.1c-0.1,0-0.2,0.1-0.3,0.1c0,0-0.1,0-0.1,0c-0.3-0.1-0.3-0.3-0.3-0.3c-0.1-0.8-0.1-1.5-0.1-2.3
		c0-2.7,0.1-4.8,0.3-7.3c0.1-0.4,0.1-0.5,0.1-0.6c0,0,0,0,0,0c0-0.2,0.2-0.3,0.4-0.4c0.2-0.1,0.3-0.1,0.5-0.1
		c0.4,0.1,0.3,0.4,0.3,0.4c-0.1,0.8-0.2,1.8-0.3,2.6c-0.2,1.7-0.2,3.4-0.2,5C161.3,26.7,162.8,23.7,164.4,21z"/>
	<path d="M166.3,30.4c0.6-0.4,1.2-0.5,1.4,0.1c0.1,0.7-1.2,1-1.7,1.3c-0.5,0.2-1.5,0.8-2,0.8c-0.1,0-0.2,0-0.3-0.1
		c-0.3-0.3,0-0.9,0-1.2c0.1-0.6,0.2-1.1,0.4-1.7c0.6-2.5,1.2-5,2.1-7.4c0,0,0,0,0,0c-0.3-0.6,0.6-0.9,1.1-1c0.6-0.2,1.4-0.5,2.1-0.5
		c0.2,0,0.4,0,0.6,0.1c0.3,0.1,0.2,0.6,0,0.7c-0.4,0.3-0.8,0.2-1.2,0.3c-0.5,0.1-1.1,0.3-1.6,0.4c-0.5,1.8-0.9,3.5-1.3,5.2
		c0.5-0.2,1.2-0.5,1.7-0.7c0.3-0.2,1.1-0.4,1.2-0.2c0.2,0.1,0.2,0.3,0.2,0.5c0,0.1-0.1,0.2-0.2,0.3c-0.4,0.3-0.8,0.4-1.2,0.5
		c-0.7,0.3-1.3,0.5-2,0.8c-0.2,0.8-0.4,1.5-0.5,2.3C165.4,30.8,165.9,30.6,166.3,30.4z"/>
	<path d="M173.4,30.3c0.2,0.3,0.2,0.6-0.2,0.8c-0.7,0.3-2.2-1-2.7-1.4c-0.1-0.1-0.2-0.1-0.2-0.2c-0.1,0.6-0.2,1.2-0.3,1.9
		c-0.1,0.4-0.1,0.8-0.5,1.1c-0.2,0.1-0.3,0.1-0.4,0.1c-0.4,0-0.4-0.5-0.3-0.9c0.1-1.2,0.3-2.4,0.6-3.6c0.2-0.9,0.4-1.8,0.6-2.8
		c0.2-0.8,0.4-1.6,0.7-2.5c0,0-0.1-0.1,0-0.1c0-0.1,0.1-0.3,0.2-0.4c0.1-0.2,0.3-0.3,0.5-0.3c0.6-0.4,1.3-0.9,2-1.2
		c0.4-0.2,0.8-0.2,1.1-0.2c0.8,0,1.3,0.4,1.5,1.2c0.1,0.5,0.1,0.9,0,1.4c-0.4,1.7-2.1,3.4-3.7,4.5c-1.2,0.9-1.3,0.6-0.8,0.9
		C172,29.3,172.9,29.6,173.4,30.3z M173.9,24.8c0.7-0.9,1.3-2.3,0.6-3c-0.8-0.4-1.9,0.4-2.8,0.9c-0.5,1.7-0.7,3.2-1.1,4.9
		C171.8,26.9,173,25.9,173.9,24.8z"/>
	<path d="M185.4,20.6c0.2,0,0.5-0.1,0.7-0.1c0.2,0,0.3,0.1,0.4,0.2c0,0.1,0,0.2,0,0.3c-0.1,0.2-0.2,0.4-0.6,0.5
		c-0.8,0.1-1.7,0.2-2.6,0.3c-0.2,0.7-0.3,1.3-0.5,2c-0.4,1.7-0.7,3.4-1,5.1c-0.1,0.9-0.2,1.7-0.3,2.5c0,0.5-0.2,1.2-0.8,1.2
		c-0.1,0-0.1,0-0.2,0c-1.2,0.1,1.4-9.1,1.6-10.1c0-0.2,0.1-0.3,0.1-0.5c-0.1,0-0.2,0-0.2,0c-0.4,0.1-1.1,0.3-1.6,0.4
		c-0.2,0.1-0.3,0.1-0.5,0.1c-0.1-0.1-0.2-0.2-0.1-0.4c0,0,0-0.1,0-0.1c0.1-0.3,0.4-0.3,0.6-0.4c0.6-0.3,1.3-0.4,1.9-0.5
		C183.4,20.9,184.4,20.7,185.4,20.6z"/>
	<path d="M191.4,21.4c0.1-0.3,0.5-0.4,0.7-0.4c0.1,0.1,0.2,0.2,0.2,0.3c0,0,0,0,0,0c-0.4,1.3-0.8,2.5-1.1,3.8
		c-0.6,2-0.9,4.1-1.6,6.1c-0.2,0.3-0.6,0.5-0.9,0.4c-0.9-0.2,0.5-3.6,0.7-4.4c-1,0.1-2,0.2-3,0.4c-0.3,1.3-0.5,2.6-0.8,3.9
		c-0.1,0.4-0.1,0.9-0.5,1.1c-0.1,0.1-0.2,0.1-0.3,0.1c-0.3,0-0.6-0.3-0.5-0.5c0.1-1,0.3-1.9,0.5-2.9c0.5-2.1,1.2-4.3,2-6.4
		c0-0.1,0.3-1.9,1.1-1.9c0.1,0,0.1,0,0.1,0c0.2,0,0.2,0.3,0.2,0.4c-0.6,1.9-1.1,3.8-1.6,5.6c1-0.2,2.1-0.3,3.1-0.5
		C190.2,25,190.9,22.8,191.4,21.4z"/>
	<path d="M193.7,30.4c0.6-0.4,1.2-0.5,1.4,0.1c0.1,0.7-1.2,1-1.7,1.3c-0.5,0.2-1.5,0.8-2,0.8c-0.1,0-0.2,0-0.3-0.1
		c-0.3-0.3,0-0.9,0-1.2c0.1-0.6,0.2-1.1,0.4-1.7c0.6-2.5,1.2-5,2.1-7.4c0,0,0,0,0,0c-0.3-0.6,0.6-0.9,1.1-1c0.6-0.2,1.4-0.5,2.1-0.5
		c0.2,0,0.4,0,0.6,0.1c0.3,0.1,0.2,0.6,0,0.7c-0.4,0.3-0.8,0.2-1.2,0.3c-0.5,0.1-1.1,0.3-1.6,0.4c-0.5,1.8-0.9,3.5-1.3,5.2
		c0.5-0.2,1.2-0.5,1.7-0.7c0.3-0.2,1.1-0.4,1.2-0.2c0.2,0.1,0.2,0.3,0.2,0.5c0,0.1-0.1,0.2-0.2,0.3c-0.4,0.3-0.8,0.4-1.2,0.5
		c-0.7,0.3-1.3,0.5-2,0.8c-0.2,0.8-0.4,1.5-0.5,2.3C192.8,30.8,193.3,30.6,193.7,30.4z"/>
	<path d="M204.3,29.5c0.2,0.1,0.3,0.3,0.2,0.4c0,0.1-0.2,0.3-0.3,0.4c-1.2,0.6-2.4,1.1-3.5,1.7c-0.4,0.1-1.2,0.7-1.6,0.7
		c-0.1,0-0.2-0.1-0.2-0.1c0-0.1-0.1-0.2,0-0.5c0,0,0-0.1,0-0.1c0.2-0.9,0.4-1.8,0.7-2.7c0.5-2.1,1.1-4.3,1.6-6.3
		c0.2-0.8,0.3-1.3,0.8-2c0.1-0.2,0.3-0.2,0.4-0.2c0.1,0,0.1,0,0.1,0c0.2,0.1,0.2,0.3,0.2,0.2c0,0.7-0.3,1.6-0.4,2.2
		c-0.6,2.6-1.2,5.1-1.8,7.7C201.3,30.5,203.7,29.1,204.3,29.5z"/>
	<path d="M210.4,32c-0.1,0.2-0.1,0.3-0.2,0.5c-0.2,0.2-0.6,0.2-0.7,0.1c-0.5-0.7-0.3-1.7-0.3-2.6c-0.9,0.1-1.8,0.3-2.7,0.4
		c-0.3,0.6-0.6,1.2-1,1.8c-0.1,0.3-0.4,0.6-0.6,0.6c-0.1,0-0.1,0-0.2,0c-0.1-0.1-0.1-0.3-0.1-0.7c0.3-1.2,1.3-3.3,1.5-3.8
		c1.3-2.8,1.9-4,3.4-6.7c0.1-0.2,0.4-0.3,0.6-0.3c0.2,0,0.4,0.2,0.4,0.4C210.7,25,210.6,28.5,210.4,32z M207.1,29.1
		c0.7-0.1,1.4-0.2,2.1-0.2c0.1-1.6,0.1-3.5,0.3-5.2C208.6,25.7,207.8,27.4,207.1,29.1z"/>
	<path d="M216.8,31c0.7,0.2,0.1,1.3-0.6,1.2c-1.3-0.2-3.2-0.1-4.5,0.5c-0.1,0-0.2,0.1-0.2,0.1c-0.2,0-0.4-0.1-0.4-0.3
		c0-0.1-0.1-0.2,0-0.3c0.1-0.4,0.5-0.7,0.6-1c2.2-3.1,4.5-6.3,6.8-9.4c-1.1,0.1-2.8,0.1-3.8,0.2c-0.2,0-0.3,0-0.4-0.1
		c-0.1-0.1,0-0.3,0.1-0.5c0.3-0.4,0.5-0.3,1-0.4c1-0.1,1.9-0.2,2.9-0.2c0.3,0,0.7-0.1,1-0.1c0.1,0,0.3,0,0.4,0.1
		c0.2,0.1,0.3,0.3,0.2,0.6c-0.2,0.7-1.1,1.6-1.3,2.1c-1.8,2.5-3.6,5.1-5.5,7.7C214.4,30.8,215.6,30.8,216.8,31z"/>
	<path d="M224.9,20.8C224.9,20.8,224.9,20.8,224.9,20.8c0.1-0.1,0.2-0.2,0.3-0.2c0.1,0,0.2,0,0.3,0c0.2,0.1,0.2,0.2,0.2,0.4
		c-0.1,0.3-0.3,0.7-0.4,0.8c-0.2,0.5-0.5,1.1-0.8,1.6c-1.3,2.4-2.6,5.2-3.8,7.7c-0.1,0.2-0.2,0.4-0.3,0.7c-0.1,0.1-0.1,0.3-0.2,0.4
		c-0.2,0.2-0.3,0.5-0.6,0.6c-0.1,0-0.2,0-0.2,0c0,0,0,0-0.1,0c-0.3,0-0.4-0.4-0.3-0.6c0.1-0.2,0.1-0.4,0.2-0.6
		c0.8-1.6,1.6-3.2,2.4-4.8c-0.1-0.1-0.1-0.3-0.2-0.4c-0.3-1.2-0.5-2.4-0.7-3.6c0-0.3-0.1-0.5-0.1-0.8c0-0.3,0-0.4,0-0.8
		c0,0,0-0.1,0-0.1c0-0.1,0.1-0.2,0.2-0.2c0.1-0.1,0.2-0.1,0.3-0.1c0.2,0,0.3,0.2,0.3,0.2c0.5,1.3,0.8,2.7,1.2,4.1
		C223.3,23.6,224.2,22,224.9,20.8z"/>
	<path d="M230.4,21.3c0.4-0.2,0.8-0.3,1.2-0.4c0.3-0.1,0.6-0.1,0.8-0.1c0.8,0,1.5,0.3,1.7,0.6c0.5,0.6,0.6,1.5,0.4,2.4
		c-0.6,2.4-3.2,5.4-4.6,7.1c-0.7,0.7-1,1.1-1.9,1.8c-0.1,0.1-0.2,0.1-0.4,0.1c-0.4,0-0.7-0.3-0.4-0.6c0.1-0.8,0.3-1.4,0.5-2.3
		c0.6-2.4,1.9-7.3,1.9-7.3s-0.2,0.1-0.4-0.3c0-0.1,0-0.1,0-0.2C229.4,21.7,229.9,21.5,230.4,21.3z M233.5,23.9
		c0.4-2.1-1.1-2.4-2.7-1.6c-0.5,2.8-1.4,5.6-2,8.4C230.4,29.1,233.1,25.8,233.5,23.9z"/>
	<path d="M238.2,20.8c0.1,0,0.3-0.1,0.5-0.1c1,0,1.6,0.8,1.8,1.3c0.3,0.9,0.2,2.3-0.1,3.9c-0.6,2.6-2,5.4-3.7,6.4
		c-0.3,0.2-0.6,0.2-0.9,0.2c-0.8,0-1.4-0.6-1.6-1.3c-0.4-1.3-0.2-2.8,0.1-4.2c0.1-0.6,0.3-1.3,0.5-1.9
		C235.4,23.6,236.4,21.4,238.2,20.8z M235.3,30.1c0.2,1,0.2,1.1,0.8,1.3c1.1,0.2,2.3-2.9,2.6-3.7c0.5-1.3,0.6-2.1,0.6-2.4
		c0.2-1.3,0.4-2.9-0.9-3.4c-0.3-0.1-0.5,0.1-0.6,0.2c-0.8,0.6-1.3,1.5-1.6,2.4C235.8,26.4,235.2,28.3,235.3,30.1z"/>
	<path d="M244.8,26.7c0.6-0.3,1-0.4,1.2-0.4c0.1,0,0.1,0,0.1,0c0.1,0,0.2,0,0.2,0c0.1,0,0.2,0.1,0.2,0.2c0.1,0.1,0.1,0.2,0.1,0.3
		c0,0,0,0.1,0,0.1c-0.2,0.5-0.5,0.9-0.7,1.4c-0.2,0.3-0.3,0.6-0.5,0.9c-0.4,0.6-0.8,1.2-1.2,1.8c-0.2,0.2-0.4,0.5-0.6,0.7
		c-0.3,0.3-0.4,0.4-0.6,0.5c-0.2,0.2-0.4,0.3-0.6,0.4c-0.2,0.1-0.4,0.1-0.5,0.1c-0.3,0-0.5-0.1-0.6-0.2c-0.2-0.2-0.3-0.4-0.4-0.6
		c-0.1-0.3-0.1-0.6-0.2-0.9c0-0.2,0-0.2,0-0.5c0-0.8,0-1.6,0.1-2.4c0.1-0.6,0.2-1.1,0.3-1.7c0.3-1,0.6-2.1,1-3.1
		c0.2-0.4,0.4-0.8,0.7-1.3c0.4-0.5,1-1,1.6-1.1c0.2,0,0.2-0.1,0.4-0.1c0,0,0,0,0,0c0.4,0,0.7,0.1,0.9,0.4c0.3,0.3,0.4,0.7,0.5,1.1
		c0.1,0.4,0.1,0.7,0,1.1c0,0.3-0.1,0.5-0.4,0.7c-0.2,0.1-0.3,0.1-0.5,0.1c-0.2-0.1-0.3-0.2-0.3-0.3c0-0.1,0-0.2,0.1-0.3
		c0-0.2,0-0.4,0-0.6c0-0.2-0.1-0.3-0.1-0.5c-0.2-0.3-0.3-0.4-0.4-0.5c-0.1,0-0.1-0.1-0.1-0.1c-0.1,0-0.3,0-0.4,0.1
		c-0.2,0.2-0.4,0.4-0.6,0.6c-0.5,0.8-0.8,1.7-1.1,2.6c-0.2,0.5-0.3,1.1-0.4,1.6c-0.1,0.6-0.1,0.7-0.2,1.4c0,0.3-0.1,0.6-0.1,0.9
		c0,0.2,0,0.4,0,0.6c0,0.2,0,0.5,0,0.5c0,0.1,0,0.2,0.1,0.4c0,0.1,0,0.1,0.1,0.2c0,0,0.1,0.1,0.2,0.2c0,0,0,0,0.1,0.1
		c0.1,0,0.1,0,0.2,0c0.1,0,0.2-0.1,0.3-0.2c0.1-0.1,0.1-0.1,0.3-0.3c0.4-0.5,0.8-0.9,1.2-1.4c0.2-0.3,0.4-0.6,0.6-0.9
		c0.3-0.4,0.1-0.2,0.4-0.6c-0.3,0.1-0.5,0.3-0.8,0.4c-0.2,0.1-0.4,0.3-0.6,0.4c-0.1,0.1-0.2,0.1-0.2,0.2c-0.2,0.2-0.4,0.5-0.7,0.5
		c-0.1,0-0.1,0-0.2,0c-0.2-0.1-0.3-0.2-0.4-0.3c-0.1-0.4,0.4-0.7,0.7-1c0.1-0.1,0.2-0.2,0.4-0.3c0.1-0.1,0.2-0.2,0.3-0.2
		c0.1-0.1,0.2-0.1,0.3-0.2C244.2,27,244.5,26.9,244.8,26.7z"/>
</g>
</svg>
