<?xml version="1.0" encoding="utf-8"?>
<!-- Generator: Adobe Illustrator 26.1.0, SVG Export Plug-In . SVG Version: 6.00 Build 0)  -->
<svg version="1.1" id="Layer_1" xmlns="http://www.w3.org/2000/svg" xmlns:xlink="http://www.w3.org/1999/xlink" x="0px" y="0px"
	 viewBox="0 0 372 36.9" style="enable-background:new 0 0 372 36.9;" xml:space="preserve">
<rect width="372" height="36.9" fill="white"/>
<g>
	<path d="M8.5,5.9c0.4,0,0.7,0.4,0.7,0.7c0,0.1,0,0.2,0,0.3c-0.4,0.7-1,0.3-1.5,0.4c-0.3,0-0.6,0-0.9,0c-0.1,1.4-0.5,5.1,0.4,6.1
		C7.3,12.9,7.7,12.8,8,13c0.6,0.4,0.3,1-0.1,1.4c-0.2,0.2-0.5,0.3-0.8,0.3c-0.3,0-0.6-0.1-0.8-0.2c-1.7-1.2-1-5.4-0.9-7.3
		C4.8,7.3,4,7.6,3.9,6.6C4,6.1,4.6,6.1,5.1,6.1C5.3,6,5.5,6,5.7,6C5.8,5.2,6,4.4,6.1,3.6C6.2,3.3,6.2,3,6.6,2.9c0,0,0.1,0,0.1,0
		c0.5,0,0.6,0.5,0.5,1C7.1,4.5,7,5.2,6.9,5.9C7.4,5.8,8,5.8,8.5,5.9z"/>
	<path d="M15.8,10.1c0.1,0.4,0.1,1,0.1,1.8c0,1.3-0.2,2.7-0.8,3c-0.1,0-0.2,0-0.2,0c-0.5,0-0.6-0.6-0.6-1.1c0-0.4,0-0.8,0.1-1.2
		c0.1-0.8,0.1-1.1,0.1-2c-0.1-0.8-0.3-2.7-1.3-2.8c-1.2,0.3-1.6,4.4-1.6,5.5c0,0.2,0,0.9-0.1,1c-0.1,0.4-0.5,0.6-0.9,0.4
		c-0.7-0.3-0.6-1.6-0.6-2.1c-0.1-1.1-0.2-2.2-0.2-3.3c0-0.1,0-0.2,0-0.4c0-1.3,0-2.7,0.1-4c0-0.4-0.2-1.5,0.4-1.9
		C10.5,3,10.6,3,10.7,3c0.1,0,0.1,0,0.2,0c0.5,0.2,0.3,1,0.3,1.4C11,5.8,11,7.1,11.1,8.5C12.5,4.2,15.5,6.8,15.8,10.1z"/>
	<path d="M18,11.8c-0.1,1.1,0.9,1.8,1.9,1.5c0.5-0.1,1-0.7,1.6-0.5c1,0.8-0.7,1.7-1.5,1.9c-0.2,0.1-0.5,0.1-0.7,0.1
		c-1.6,0-2.8-1.3-2.8-2.9c0-0.3,0.1-0.6,0.1-0.9c0.3-1.5,2-4.4,3.6-4.4c0.5,0,0.9,0.2,1.4,0.8c0.2,0.4,0.2,0.7,0.2,1.1
		C21.9,10.3,19.8,12,18,11.8z M20.7,8.3C20.8,7.9,20.3,7.8,20,8c-0.8,0.6-1.3,1.6-1.7,2.5c0,0,0.5,0.1,0.8-0.1
		C19.9,10,20.6,9.2,20.7,8.3z"/>
	<path d="M30.3,14.6c-0.1,0.7-0.1,1.4,0.3,2c0.2,0.2,0.6,0,0.7-0.3c0.2-0.4,0.1-0.9,0.4-1.1c0.2-0.1,0.4-0.1,0.6,0
		c0.3,0.2,0.3,0.4,0.3,0.5c0,0.1,0,0.2,0,0.4c-0.2,1.2-1,1.9-1.8,1.9c-1.1,0-2.2-1.1-1.9-3.6c-0.7,0.5-1.8,0.4-2.4-0.2
		c-0.6-0.7-0.9-1.6-0.9-2.5c0-0.9,0.2-1.8,0.5-2.6c0.5-1.1,1.1-2.1,2.3-2.5c0.2-0.1,0.4-0.1,0.6-0.1c0.8,0,1.5,0.5,1.7,1.3
		c0.5,0.3,0.2,1,0.2,1.4c-0.1,0.6-0.1,1.1-0.2,1.6C30.6,12.1,30.5,13.4,30.3,14.6z M28,8.5c-0.7,1.1-1.3,3.1-0.8,4.3
		c0.5,1.1,1.5,0,1.6-0.6c0.5-1.3,0.6-2.5,0.8-3.9C29.5,7.2,28.3,8.1,28,8.5z"/>
	<path d="M38.4,13.6c0.1,0.1,0.1,0.2,0.1,0.3c0,0.3-0.3,0.7-0.6,0.7c-0.8,0.1-1-0.9-1.2-1.5c-0.4,0.8-1,1.6-1.9,1.6
		c-0.2,0-0.5-0.1-0.7-0.2c-1-0.3-1.6-2.7-1.6-3.2c-0.1-0.3-0.1-0.7-0.1-1.1c0-0.9,0.1-1.7,0.2-2.6c0.1-0.5,0.1-1.4,0.6-1.4
		c0.1,0,0.2,0,0.4,0.1c0.5,0.4,0.1,1.5,0.1,2.1c-0.1,1.4-0.1,2.8,0.5,4.1c0.2,0.3,0.2,0.7,0.6,0.6c0.9-0.4,1-2,1.2-2.7
		c0.2-0.8,0.3-1.7,0.5-2.5c0.1-0.4,0.1-1,0.6-1.2C39.1,6.5,36.7,10.3,38.4,13.6z"/>
	<path d="M40.7,13.2c0.1,0.6,0.2,1.6-0.7,1.6c0,0-0.1,0-0.1,0c-0.6-0.1-0.5-1-0.6-1.4c-0.1-0.8-0.1-1.5-0.1-2.3
		c0-1.4,0.1-2.7,0.3-4.2c0.2-0.6,1.2-0.5,1.2,0.2C40.5,9.1,40.7,11.2,40.7,13.2z M40.1,5.3c-1,0-1-1.6,0-1.6c0.5,0,0.8,0.4,0.8,0.8
		C40.9,4.9,40.6,5.3,40.1,5.3z"/>
	<path d="M42.1,13.4c-0.2-0.5-0.3-1.1-0.3-1.7c0-2,1-4.4,2.4-5.4C44.5,6.1,44.8,6,45.1,6c0.5,0,1.1,0.3,1.4,0.8
		C46.7,7.3,47,7.7,47,8.1c0,0.2-0.1,0.4-0.2,0.5c-0.3,0.3-0.9,0.2-1-0.3c-0.1-0.3-0.1-0.7-0.4-0.9c-0.8-0.4-1.7,2.2-1.9,2.8
		c-0.7,2.1,0.1,4.4,2.2,2.1c0.3-0.4,0.9-0.2,1.1,0.2c0.3,0.8-0.7,1.3-1.3,1.7c-0.4,0.3-0.9,0.4-1.3,0.4
		C43.3,14.7,42.5,14.3,42.1,13.4z"/>
	<path d="M52.6,14c0,0.4-0.3,0.7-0.6,0.7c-0.5,0-0.7-0.4-0.9-0.8c-0.5-0.8-1-1.9-2.1-2.1c0,0.6,0,1.2,0,1.8c0.1,0.5,0,1.2-0.6,1.2
		c-0.1,0-0.2,0-0.3-0.1c-0.3-0.1-0.4-0.4-0.4-0.6c-0.2-1.6-0.2-3.3-0.2-4.9c0-1.5,0.1-3,0.2-4.5c0-0.4-0.1-1.9,0.7-1.9
		c0.1,0,0.2,0,0.2,0C49,3.1,49,3.4,49,3.5c-0.1,2.1-0.1,4.2,0,6.3c1.1-1,1.7-1.5,2-3.2c0.1-0.3,0.5-0.5,0.8-0.3
		c0.4,0.1,0.3,0.5,0.3,0.5c-0.1,0.7-0.3,1.3-0.6,2c-0.2,0.5-1.1,1.5-1.6,1.9C51.2,11.3,52.4,12.6,52.6,14z"/>
	<path d="M58.3,7.8c1.9-2,4-1.2,4.1,1.6c0,0,0,0.1,0,0.1c0,2.4-2.1,5.9-4.8,5.2c-0.1,0.1-0.3,0.2-0.4,0.2c-0.4,0-0.7-0.3-0.7-0.6
		c-0.1-0.9-0.1-1.7-0.2-2.6c0-1.8,0.1-3.6,0.2-5.4c0.1-0.7,0.1-1.4,0.2-2.1c0-0.5,0.1-1.2,0.6-1.2c0.1,0,0.1,0,0.2,0
		c0.5,0.2,0.3,0.9,0.3,1.3c-0.1,1.4-0.1,2.8-0.1,4.2C57.9,8.3,58.3,7.8,58.3,7.8z M57.8,13.2c2.1,0.6,4-3.4,3-5
		c-0.2-0.3-0.6-0.3-0.9-0.1c-1,0.7-1.7,1.8-2.1,2.9C57.8,11.8,57.8,12.5,57.8,13.2z"/>
	<path d="M67.6,7.2c0.1,0.1,0.2,0.3,0.2,0.4c0,0.2-0.1,0.5-0.4,0.6c-0.4,0.2-0.7-0.2-1-0.3c-1.5-0.4-2,4.6-1.9,5.6
		c0,0.3,0,0.6,0,0.9c0,0.3-0.3,0.5-0.6,0.5c-0.1,0-0.2,0-0.2,0c-0.6-0.2-0.4-1.1-0.5-1.6c0-0.6,0-1.2,0-1.8c0-0.9,0-1.8,0-2.7
		c0.1-0.7,0-1.1,0.1-1.8c0.1-0.3,0.4-0.4,0.6-0.4c0.3,0,0.6,0.2,0.6,0.6c0,0.2,0,0.4,0,0.7C65.4,6.4,66.8,6.3,67.6,7.2z"/>
	<path d="M68.3,8.5c0.4-1.2,1.4-2,2.5-2c0.2,0,0.3,0,0.5,0.1c1.4,0.2,2.3,1.4,2.5,2.7c0.1,0.3,0.1,0.5,0.1,0.8
		c0,2.2-1.5,4.8-3.3,4.8c-0.7,0-1.3-0.4-2-1.3c-0.4-0.7-0.5-1.5-0.5-2.3c0-0.4,0.1-0.2-0.1-0.4C68,10.8,68,10.5,68,10.2
		C68,9.6,68.2,8.9,68.3,8.5z M70,13.2c1.4,1.5,2.8-2.2,2.6-3.3c0-0.4-0.1-0.8-0.3-1.2c-0.4-0.6-1.3-1.1-2-0.7
		c-0.8,0.6-0.9,1.7-0.9,2.6C69.2,11.6,69.5,12.7,70,13.2z"/>
	<path d="M80.4,12.6c0.3-1.7,0.4-3.5-0.3-5.1c-0.1-0.2-0.1-0.5,0.1-0.7c1-1.1,1.5,0.7,1.6,1.4C81.9,9,82,9.9,82,10.9
		c0,1.1-0.2,2.3-0.8,3.2c-1,1.3-2.6,0.4-2.9-0.8c-0.5,1.1-1.1,1.5-1.6,1.5c-1.1,0-2.2-1.7-2.1-3.3c0-0.1,0-0.1,0-0.2
		c0-1.3,0.2-2.5,0.6-3.7c0.1-0.4,0.3-1.3,0.8-1.3c0.1,0,0.2,0,0.4,0.1c0.4,0.3,0.2,0.9,0.1,1.3c-0.1,0.5-0.2,1-0.3,1.6
		c-0.1,1.1-0.4,2.8,0.4,3.8c0.1,0.1,0.4-0.5,0.3-0.4c0.3-0.6,0.5-1.2,0.7-1.9c0.1-0.4,0.2-0.8,0.6-1c1-0.3,1,0.8,1.2,1.5
		C79.5,12,79.9,14.5,80.4,12.6z"/>
	<path d="M85.8,6.7c0,0,0.1,0,0.1,0c0.9,0,1.5,0.7,1.9,1.5c0.3,0.5,0.6,2.7,0.6,4.5c0,1.2-0.2,2.2-0.6,2.3c-0.1,0-0.1,0-0.2,0
		c-0.4,0-0.7-0.4-0.6-0.6c-0.1-1.8,0.2-3.5-0.2-5.3c-0.2-0.8-0.5-1.2-1.1-1c-1,0.7-1.1,3-1.1,4.1c0,0.5,0,0.9,0.1,1.4
		c0.1,0.6,0.1,1.2-0.6,1.2c-0.6-0.1-0.6-0.9-0.7-1.4c-0.1-0.7-0.3-1.3-0.4-2c-0.1-0.9-0.2-1.8-0.2-2.7c0-0.2-0.1-0.4-0.1-0.7
		c0-0.3,0.1-0.5,0.3-0.7c0.3-0.2,0.7,0,0.8,0.4c0,0.3,0,0.6,0.1,0.9C84.1,7.9,85,6.6,85.8,6.7z"/>
	<path d="M94.7,3.1c0.2-0.2,0.5-0.3,0.9-0.3c0.5,0,1,0.2,1.3,0.7c0.2,0.4,0.6,1.2,0.6,1.9c0,0.4-0.1,0.7-0.3,0.8
		c-0.4,0.2-0.8-0.1-0.8-0.5c0-0.5-0.4-2.3-1-1.3c-0.4,0.8-0.4,1.8-0.5,2.7C95.3,7.1,95.9,7,96.3,7C96.8,7,97,7.5,96.8,7.9
		c-0.2,0.6-0.9,0.5-1.4,0.6c-0.2,0-0.5,0.1-0.7,0.1c-0.1,1.6,0,3.3,0.1,4.9c0,0.4,0.2,1-0.3,1.3c-0.2,0.1-0.3,0.1-0.4,0.1
		c-0.5,0-0.7-0.7-0.7-1.2c-0.2-1.7-0.2-3.3-0.1-5c-0.6,0-1.2,0-1.2-0.6c0-0.1,0-0.1,0-0.2c0.2-0.5,0.8-0.4,1.2-0.5
		C93.5,5.9,93.5,4.2,94.7,3.1z"/>
	<path d="M97.3,8.5c0.4-1.2,1.4-2,2.5-2c0.2,0,0.3,0,0.5,0.1c1.4,0.2,2.3,1.4,2.5,2.7c0.1,0.3,0.1,0.5,0.1,0.8
		c0,2.2-1.5,4.8-3.3,4.8c-0.7,0-1.3-0.4-2-1.3c-0.4-0.7-0.5-1.5-0.5-2.3c0-0.4,0.1-0.2-0.1-0.4C97,10.8,97,10.5,97,10.2
		C97,9.6,97.2,8.9,97.3,8.5z M99,13.2c1.4,1.5,2.8-2.2,2.6-3.3c0-0.4-0.1-0.8-0.3-1.2c-0.4-0.6-1.3-1.1-2-0.7
		c-0.8,0.6-0.9,1.7-0.9,2.6C98.3,11.6,98.6,12.7,99,13.2z"/>
	<path d="M107.9,6.6c0.1-0.2,0.3-0.3,0.5-0.3c0.2,0,0.4,0.1,0.5,0.2c0.1,0.1,0.1,0.3,0.1,0.4c0,0.3-0.3,0.5-0.4,0.8
		c-0.6,1.1-1.1,2.1-1.7,3.2c0.4,0.8,1.3,2.3,1.6,2.9c0.2,0.4,0,0.8-0.4,1c-0.4,0.1-0.6-0.1-0.7-0.2c-0.5-0.7-1.1-1.5-1.4-2.2
		c-0.3,0.7-0.7,1.3-1,2c-0.1,0.4-0.4,0.7-0.8,0.7c-0.1,0-0.3,0-0.4-0.1c-0.2-0.2-0.3-0.3-0.3-0.5c0-0.4,0.3-0.8,0.4-1.2
		c0.4-0.9,0.8-1.7,1.3-2.5c-0.4-0.8-1.9-3.5-1.3-4.2c0.5-0.5,0.9,0,1.1,0.5c0.4,0.8,0.7,1.6,1.1,2.4C106.8,8.3,107.2,7.8,107.9,6.6z
		"/>
	<path d="M116.5,7.2c0.1,1.2,0.2,2.4,0.3,3.7c0,0.6,0,1.4,0,2.1c0,1.5-0.1,3-1,4.1c-0.4,0.4-1,0.7-1.5,0.7c-0.3,0-0.6-0.1-0.9-0.2
		c-0.4-0.2-0.7-0.6-0.7-1.1c0-0.1,0-0.3,0.1-0.4c0.2-0.4,0.8-0.5,1.1-0.1c0.1,0.1,0.2,0.3,0.3,0.3c0.5-0.1,0.6-0.5,0.7-0.8
		c0.5-2.3,0.4-4.6,0.2-7c0-0.6-0.4-1.4,0.2-1.7C115.9,6.4,116.5,6.8,116.5,7.2z M115.5,3.8c1,0,1,1.6,0,1.6
		C114.5,5.3,114.5,3.8,115.5,3.8z"/>
	<path d="M124.2,13.6c0.1,0.1,0.1,0.2,0.1,0.3c0,0.3-0.3,0.7-0.6,0.7c-0.8,0.1-1-0.9-1.2-1.5c-0.4,0.8-1,1.6-1.9,1.6
		c-0.2,0-0.5-0.1-0.7-0.2c-1-0.3-1.6-2.7-1.6-3.2c-0.1-0.3-0.1-0.7-0.1-1.1c0-0.9,0.1-1.7,0.2-2.6c0.1-0.5,0.1-1.4,0.6-1.4
		c0.1,0,0.2,0,0.4,0.1c0.5,0.4,0.1,1.5,0.1,2.1c-0.1,1.4-0.1,2.8,0.5,4.1c0.2,0.3,0.2,0.7,0.6,0.6c0.9-0.4,1-2,1.2-2.7
		c0.2-0.8,0.3-1.7,0.5-2.5c0.1-0.4,0.1-1,0.6-1.2C124.9,6.5,122.5,10.3,124.2,13.6z"/>
	<path d="M133.1,8.4c0.3,1.1,0.4,2.2,0.4,3.3c0,0.9-0.1,1.8-0.2,2.7c0,0.3-0.3,0.5-0.6,0.5c-0.1,0-0.2,0-0.3-0.1
		c-0.2-0.1-0.4-0.3-0.4-0.6c0-1.2,0.1-2.4,0.1-3.6c-0.1-0.9-0.1-1.2-0.2-2c-0.6-1.5-1.3,0.6-1.4,1.2c-0.1,0.5-0.2,1-0.2,1.5
		c0.1,0.6-0.2,1.1-0.8,1c-0.7-0.1-0.7-2-0.9-2.6c-0.2-0.6-0.3-2.3-0.9-1.7c-0.8,1.4-0.6,3.1-0.5,4.6c0,0.7,0.6,2.3-0.7,2
		c-0.6-0.2-0.5-1-0.6-1.5c-0.1-0.6-0.2-1.3-0.3-2c-0.1-0.9-0.2-1.8-0.4-2.6c0-0.2-0.1-0.5-0.1-0.8c0-0.2,0.1-0.4,0.2-0.5
		c0.5-0.4,0.9,0.1,0.9,0.6c0.4-1,1-1.4,1.6-1.4c0.7,0,1.4,0.7,1.7,1.8C130.2,6.2,132.5,6.1,133.1,8.4z"/>
	<path d="M138.5,7.5c1,1,1.5,2.4,1.5,3.8c0,1-0.3,2.1-1.1,2.8c-1,1-2.6,0.6-3.3,0c-0.1,0.8,0.3,3.6-0.3,3.9
		c-0.1,0.1-0.2,0.1-0.4,0.1c-0.3,0-0.5-0.2-0.6-0.5c-0.2-1-0.2-2-0.2-3c0-1.2,0.1-2.4,0.1-3.6c0-0.6,0-1.2,0-1.8
		c0-0.3,0-0.5,0.2-0.7c0.5-1.2,1.3-1.8,2.2-1.8C137.3,6.7,137.9,7,138.5,7.5z M138.6,12.1c0.2-1.2,0-2.4-0.8-3.5
		c-0.7-0.8-1.6-0.9-2.1,0.1c0.1,0.8,0,1.6,0,2.4C135.8,12.9,137.9,14.6,138.6,12.1z"/>
	<path d="M142.6,14.3c-0.4-0.3-1.2-0.9-0.9-1.5c0.3-0.5,0.9-0.3,1.2,0c0.4,0.3,0.8,0.5,1.3,0.6c0.5,0.1,0.8-0.4,0.4-0.7
		c-1.2-1.1-3.9-2.1-3.9-3.9c0-0.3,0.1-0.7,0.4-1.1c0.6-0.8,1.8-1.4,2.9-1.4c0.7,0,1.3,0.2,1.8,0.7c0.3,0.3,0.5,0.6,0.3,1
		c-0.2,0.3-0.7,0.4-1,0.1c-0.2-0.3-0.4-0.5-0.7-0.5c-0.8-0.1-1.5,0.2-2.2,0.8c-0.9,0.9,1.6,2,2.2,2.4c1.2,0.6,1.7,1.5,1.7,2.3
		c0,0.9-0.7,1.7-1.8,1.7C143.8,14.9,143.3,14.7,142.6,14.3z"/>
	<path d="M150.3,8.5c0.4-1.2,1.4-2,2.5-2c0.2,0,0.3,0,0.5,0.1c1.4,0.2,2.3,1.4,2.5,2.7c0.1,0.3,0.1,0.5,0.1,0.8
		c0,2.2-1.5,4.8-3.3,4.8c-0.7,0-1.3-0.4-2-1.3c-0.4-0.7-0.5-1.5-0.5-2.3c0-0.4,0.1-0.2-0.1-0.4c-0.1-0.2-0.2-0.4-0.2-0.7
		C149.9,9.6,150.1,8.9,150.3,8.5z M151.9,13.2c1.4,1.5,2.8-2.2,2.6-3.3c0-0.4-0.1-0.8-0.3-1.2c-0.4-0.6-1.3-1.1-2-0.7
		c-0.8,0.6-0.9,1.7-0.9,2.6C151.2,11.6,151.5,12.7,151.9,13.2z"/>
	<path d="M160.3,8.1c0.3-0.5,0.4-1.6,1.1-1.6c0.4,0,0.7,0.5,0.7,0.8c0,0.1,0,0.2-0.1,0.3c-0.7,1.7-1.4,3.4-2,5.2
		c-0.3,0.6-0.2,2.1-1.1,2.1c-0.1,0-0.2,0-0.2,0c-0.6-0.2-0.6-1-0.7-1.5c-0.5-1.6-1.3-4.7-1.7-6c0-0.1,0-0.1,0-0.2
		c0-0.3,0.3-0.6,0.6-0.6c0.6,0.1,0.6,0.7,0.8,1.1c0.4,1.3,0.9,2.6,1.3,3.9C159.4,10.4,159.8,9.2,160.3,8.1z"/>
	<path d="M163.6,11.8c-0.1,1.1,0.9,1.8,1.9,1.5c0.5-0.1,1-0.7,1.6-0.5c1,0.8-0.7,1.7-1.5,1.9c-0.2,0.1-0.5,0.1-0.7,0.1
		c-1.6,0-2.8-1.3-2.8-2.9c0-0.3,0.1-0.6,0.1-0.9c0.3-1.5,2-4.4,3.6-4.4c0.5,0,0.9,0.2,1.4,0.8c0.2,0.4,0.2,0.7,0.2,1.1
		C167.4,10.3,165.4,12,163.6,11.8z M166.2,8.3c0.1-0.4-0.4-0.5-0.7-0.3c-0.8,0.6-1.3,1.6-1.7,2.5c0,0,0.5,0.1,0.8-0.1
		C165.5,10,166.2,9.2,166.2,8.3z"/>
	<path d="M172.5,7.2c0.1,0.1,0.2,0.3,0.2,0.4c0,0.2-0.1,0.5-0.4,0.6c-0.4,0.2-0.7-0.2-1-0.3c-1.5-0.4-2,4.6-1.9,5.6
		c0,0.3,0,0.6,0,0.9c0,0.3-0.3,0.5-0.6,0.5c-0.1,0-0.2,0-0.2,0c-0.6-0.2-0.4-1.1-0.5-1.6c0-0.6,0-1.2,0-1.8c0-0.9,0-1.8,0-2.7
		c0.1-0.7,0-1.1,0.1-1.8c0.1-0.3,0.4-0.4,0.6-0.4c0.3,0,0.6,0.2,0.6,0.6c0,0.2,0,0.4,0,0.7C170.3,6.4,171.8,6.3,172.5,7.2z"/>
	<path d="M181,5.9c0.4,0,0.7,0.4,0.7,0.7c0,0.1,0,0.2,0,0.3c-0.4,0.7-1,0.3-1.5,0.4c-0.3,0-0.6,0-0.9,0c-0.1,1.4-0.5,5.1,0.4,6.1
		c0.2-0.3,0.6-0.4,0.9-0.3c0.6,0.4,0.3,1-0.1,1.4c-0.2,0.2-0.5,0.3-0.8,0.3c-0.3,0-0.6-0.1-0.8-0.2c-1.7-1.2-1-5.4-0.9-7.3
		c-0.7,0-1.5,0.4-1.6-0.6c0.1-0.5,0.7-0.5,1.1-0.6c0.2,0,0.5-0.1,0.6-0.1c0.1-0.8,0.3-1.6,0.4-2.3c0.1-0.3,0.1-0.7,0.5-0.8
		c0,0,0.1,0,0.1,0c0.5,0,0.6,0.5,0.5,1c-0.1,0.7-0.2,1.3-0.3,2C179.9,5.8,180.4,5.8,181,5.9z"/>
	<path d="M188.2,10.1c0.1,0.4,0.1,1,0.1,1.8c0,1.3-0.2,2.7-0.8,3c-0.1,0-0.2,0-0.2,0c-0.5,0-0.6-0.6-0.6-1.1c0-0.4,0-0.8,0.1-1.2
		c0.1-0.8,0.1-1.1,0.1-2c-0.1-0.8-0.3-2.7-1.3-2.8c-1.2,0.3-1.6,4.4-1.6,5.5c0,0.2,0,0.9-0.1,1c-0.1,0.4-0.5,0.6-0.9,0.4
		c-0.7-0.3-0.6-1.6-0.6-2.1c-0.1-1.1-0.2-2.2-0.2-3.3c0-0.1,0-0.2,0-0.4c0-1.3,0-2.7,0.1-4c0-0.4-0.2-1.5,0.4-1.9
		c0.1,0,0.2-0.1,0.3-0.1c0.1,0,0.1,0,0.2,0c0.5,0.2,0.3,1,0.3,1.4c-0.1,1.4-0.1,2.7-0.1,4.1C185,4.2,187.9,6.8,188.2,10.1z"/>
	<path d="M190.5,11.8c-0.1,1.1,0.9,1.8,1.9,1.5c0.5-0.1,1-0.7,1.6-0.5c1,0.8-0.7,1.7-1.5,1.9c-0.2,0.1-0.5,0.1-0.7,0.1
		c-1.6,0-2.8-1.3-2.8-2.9c0-0.3,0.1-0.6,0.1-0.9c0.3-1.5,2-4.4,3.6-4.4c0.5,0,0.9,0.2,1.4,0.8c0.2,0.4,0.2,0.7,0.2,1.1
		C194.3,10.3,192.3,12,190.5,11.8z M193.1,8.3c0.1-0.4-0.4-0.5-0.7-0.3c-0.8,0.6-1.3,1.6-1.7,2.5c0,0,0.5,0.1,0.8-0.1
		C192.4,10,193.1,9.2,193.1,8.3z"/>
	<path d="M199.9,13.4c0.2,0,0.4,0.1,0.5,0.3c0.1,0.1,0.1,0.3,0.1,0.4c0,0,0,0.1,0,0.1c-0.1,0.3-0.3,0.5-0.5,0.5c-0.2,0-0.3,0-0.3,0
		c-0.1,0-0.2,0-0.3-0.1c-0.7-0.3-0.9-1.3-1.1-2c0-0.1,0-0.3-0.1-0.4c-0.1-0.8-0.1-1.5-0.1-2.3c0-1.2,0.1-2.4,0.2-3.5
		c0.2-2.1,0.3-3.4,0.3-3c0,0,0-0.1,0-0.1c0-0.2,0.1-0.3,0.3-0.3c0.1,0,0.2-0.1,0.3-0.1c0.1,0,0.1,0,0.2,0c0.1,0.1,0.2,0.2,0.3,0.3
		c0,0,0,0.1,0,0.1c0,0,0,0.1,0,0.1c0,0.7-0.1,1.5-0.1,2.2c0,0.5,0,1,0,1.5c0,0.8,0,1.6,0,2.4c0,0.3,0,0.6,0,0.9c0,0.3,0,0.4,0,0.6
		c0,0.4,0.1,0.8,0.1,1.2c0,0.3,0.1,0.6,0.1,0.9C199.8,13.4,199.9,13.4,199.9,13.4z"/>
	<path d="M207.2,12.4c0.3,0.1,0.5,0.4,0.5,0.7c0,0.3-0.1,0.5-0.4,0.6c0,0.4,0.1,0.8-0.3,1c-0.4,0.2-0.9,0-1-0.4
		c-1,0.3-1.8,0.7-2.8,0.7c-1.4-0.1-2-0.8-2-1.8c0-2,2.5-4.7,4.6-3.1c-0.1-0.5-0.1-2.3-0.5-2.4c-1,0.4-1.8,0.9-2.7,1.5
		c-0.7,0.2-0.9-0.9-0.5-1.1c1.1-0.7,2.4-1.7,3.3-1.7c0.7,0,1.2,0.5,1.5,2C207.1,9.5,207.1,11.1,207.2,12.4z M202.8,13.5
		c0.9,0.4,2.1-0.4,3-0.6c-0.5-2.8-2.8-2-3.2,0.3C202.5,13.3,202.7,13.5,202.8,13.5z"/>
	<path d="M212.5,12.8c0.2,0,1-0.1,1.2,0.3c0.1,0.1,0.1,0.3,0.1,0.4c0,0.3-0.2,0.6-0.5,0.6c-1.2,0.2-2.7,0.3-3.8,0.7
		c-0.1,0-0.2,0-0.2,0c-0.1,0-0.2,0-0.4-0.1c-0.3-0.2-0.4-0.5-0.3-1c0.5-1,0.9-2,1.4-2.9c0.5-1.1,1.1-2.2,1.6-3.2
		c-0.7,0-1.4,0-2.1,0.1c-0.6,0.1-1.4,0.3-1.4-0.6c0.1-0.5,0.6-0.5,1-0.5c0.4-0.1,0.8-0.1,1.3-0.1s0.9-0.1,1.3-0.1c0.7,0,0.8,0,1,0
		c0.2,0,0.3,0.1,0.4,0.2c0.2,0.2,0.3,0.4,0.1,0.8c-0.9,1.9-1.8,3.9-2.7,5.8C211.3,12.9,211.9,12.9,212.5,12.8z"/>
	<path d="M217.2,13c1.3-1.3,1.3-3.3,1.4-5c-0.1-0.6,0-1.5,0.7-1.5c0.1,0,0.2,0,0.3,0.1c0.6,0.1,0.4,1.3,0.5,1.8
		c0.1,1.6,0.3,3.2,0.3,4.8c0,1.1-0.1,2.3-0.3,3.4c-0.2,1-0.9,1.6-1.8,1.6c-0.2,0-0.5,0-0.7-0.1c-0.6-0.2-2.1-0.8-1.9-1.5
		c0.1-0.5,0.7-0.7,1-0.5c0.2,0.1,0.4,0.2,0.5,0.3c0.4,0.2,1.1,0.5,1.3,0c0.3-1,0.4-2.1,0.4-3.2c-0.6,1.1-2,2-3.2,0.9
		c-0.9-0.8-1.1-1.9-1.1-3.1c0-0.6,0.1-1.1,0.1-1.7c0.1-1.1,0.2-1,0.4-2.4c0.1-0.4,0.5-0.5,0.8-0.3c0.3,0.2,0.2,0.6,0.2,0.6
		c-0.2,1.4-0.2,2.8-0.1,4.2C216,12,216.3,13.3,217.2,13z"/>
	<path d="M229.5,3.4c0.1-0.3,0.3-0.5,0.6-0.5c0.3,0,0.5,0.2,0.5,0.5c0,0,0,0.1,0,0.1c-0.2,1.4-0.3,2.9-0.3,4.3
		c-0.1,1.3-0.1,2.7-0.2,4.1c-0.1,1,0.3,2.4-0.6,3.1c-0.1,0-0.2,0.1-0.3,0.1c-0.7,0-0.7-1.1-0.7-1.7c-1.2,1.5-3.5,2.5-4.2-0.2
		c-0.1-0.3-0.1-0.7-0.1-1.1c0-2.7,2.1-5.8,4.9-5.2C229.2,5.9,229.5,4.2,229.5,3.4z M225.8,10.4c-0.5,1.5-0.4,2.9,0.5,3.1
		c1.2-0.3,2.1-1.9,2.5-2.9c0.1-0.8,0.1-1.5,0.2-2.2C227.5,7.8,226.3,9.1,225.8,10.4z"/>
	<path d="M231.4,8.5c0.4-1.2,1.4-2,2.5-2c0.2,0,0.3,0,0.5,0.1c1.4,0.2,2.3,1.4,2.5,2.7c0.1,0.3,0.1,0.5,0.1,0.8
		c0,2.2-1.5,4.8-3.3,4.8c-0.7,0-1.3-0.4-2-1.3c-0.4-0.7-0.5-1.5-0.5-2.3c0-0.4,0.1-0.2-0.1-0.4c-0.1-0.2-0.2-0.4-0.2-0.7
		C231.1,9.6,231.3,8.9,231.4,8.5z M233.1,13.2c1.4,1.5,2.8-2.2,2.6-3.3c0-0.4-0.1-0.8-0.3-1.2c-0.4-0.6-1.3-1.1-2-0.7
		c-0.8,0.6-0.9,1.7-0.9,2.6C232.4,11.6,232.6,12.7,233.1,13.2z"/>
	<path d="M243.6,8c0,1.1,0.1,2.2,0.1,3.3c-0.1,1,0.1,2,0.1,3c0,1-0.1,1.9-0.6,2.7c-0.4,0.5-1,0.7-1.5,0.7c-0.6,0-1.2-0.2-1.6-0.4
		c-0.4-0.3-1.1-0.5-1.1-1.1c0-0.4,0.3-0.8,0.8-0.6c0.7,0.3,1.5,0.7,2.2,0.5c0.7-0.5,0.4-1.9,0.4-2.6c0-0.1,0-0.3-0.1-0.1
		c-1.9,2.4-4.6,0.8-4.6-1.8c0-0.2,0-0.3,0-0.5c0.2-1.7,0.9-3.5,2.5-4.3c0.4-0.2,0.8-0.3,1.2-0.3c0.7,0,1.5,0.3,1.9,0.9
		C243.5,7.6,243.7,7.9,243.6,8z M239.1,11.4c-0.1,1.1,0.8,2.4,1.8,1.4c1.1-1.3,1.4-3.3,1.4-4.9C240.4,6.9,239.1,9.9,239.1,11.4z"/>
	<path d="M10,20.6c0.3,0,0.5,0.3,0.5,0.6c0,0.1,0,0.1,0,0.2c-0.2,0.6-1.2,0.4-1.7,0.5c-0.4,0-0.9,0.1-1.3,0.2
		c-0.1,3.2,0.1,6.4,0.4,9.6c0,0.4,0.1,0.9-0.3,1.2c-0.1,0.1-0.2,0.1-0.3,0.1c-0.3,0-0.6-0.2-0.7-0.5C6.1,29,6.3,25.5,6.4,22.2
		c-0.5,0.1-1,0.2-1.5,0.4c-0.2,0.1-0.5,0.2-0.7,0.1c-0.2-0.1-0.3-0.3-0.3-0.5c0,0,0-0.1,0-0.1c0.1-0.6,1.8-0.9,2.3-1
		C7.5,20.8,8.8,20.7,10,20.6z"/>
	<path d="M15.5,21.4c0.1-0.3,0.4-0.5,0.7-0.5c0.2,0.1,0.3,0.2,0.3,0.4c0,0,0,0,0,0.1c-0.1,1.3-0.2,2.5-0.2,3.8
		c-0.2,2,0.1,4.2-0.2,6.1c-0.1,0.4-0.5,0.6-0.9,0.5c-1-0.2-0.4-3.5-0.4-4.4c-0.9,0.1-1.8,0.2-2.7,0.4c0,1.1,0.1,2.2,0.1,3.3
		c-0.1,0.5,0.2,1.3-0.3,1.6c-0.1,0.1-0.2,0.1-0.3,0.1c-0.4,0-0.7-0.3-0.7-0.6c-0.1-1-0.1-2-0.1-2.9c0-2.1,0.2-4.3,0.5-6.4
		c0-0.3-0.1-1.6,0.5-1.9c0.1-0.1,0.2-0.1,0.3-0.1c0.2,0,0.4,0.1,0.4,0.5c-0.1,0.8-0.2,1.6-0.2,2.5c-0.1,1.2-0.1,1.6-0.1,3.1
		c0.9-0.2,1.9-0.3,2.8-0.5C15.1,24.9,15.3,22.8,15.5,21.4z"/>
	<path d="M20.6,30c0.5-0.2,1,0.2,1,0.7c0,0.6-1.1,0.9-1.5,1.3c-0.5,0.2-1.3,0.9-1.9,0.9c-0.1,0-0.3,0-0.4-0.1
		c-0.2-0.1-0.2-0.3-0.2-0.5c0-0.8-0.1-1.6-0.1-2.5c0-2.5,0-5,0.3-7.4c-0.5-0.7,0.3-1,0.9-1.2c0.5-0.2,1-0.3,1.6-0.4
		c0.2,0,0.3-0.1,0.5-0.1c0.2,0,0.4,0,0.5,0.1c0.7,0.4,0.2,1.1-0.5,1.1c-0.6,0.1-1.3,0.3-1.9,0.5c-0.1,1.7-0.1,3.3-0.1,5
		c0.4-0.2,1-0.4,1.4-0.6c0.4-0.2,0.9-0.4,1.3-0.2c0.2,0.1,0.3,0.3,0.3,0.6c0,0.1-0.1,0.3-0.2,0.4c-0.1,0.2-0.6,0.3-0.7,0.4
		c-0.7,0.3-1.4,0.6-2.1,0.9c0,0.7,0,1.4,0,2.1C19.5,30.7,20,30.3,20.6,30z"/>
	<path d="M31.9,31.5c0.1,0.2,0.2,0.4,0.2,0.6c0,0.3-0.1,0.6-0.5,0.5c-0.6-0.1-0.8-0.7-1.1-1.2c-0.5,0.9-1.2,1.3-1.9,1.3
		c-0.8,0-1.5-0.5-2-1.3c-0.6-1.2-0.9-2.9-0.9-4.5c0-1.3,0.2-2.6,0.4-3.6c0.6-1.8,1.6-2.6,2.6-2.6c1.4,0,2.8,1.6,2.9,4
		c0.1,1.5,0.1,3.1-0.3,4.6c-0.2,0.7-0.4,0.5-0.2,0.7c0.1,0.2,0.3,0.4,0.4,0.6C31.7,31,31.7,31.1,31.9,31.5z M28,31.1
		c0.2,0.3,0.7,0.5,0.9,0.4c0.4-0.3,0.6-0.7,0.7-1.2c-0.4-0.7-0.9-1.3-1.3-1.9c-0.3-0.6,0.4-1.4,0.9-0.8c0.3,0.4,0.5,0.7,0.8,1.1
		c0.4-1.6,0.3-3.3,0-4.7c-0.3-1-0.5-1.6-1.4-1.9c-0.9,0-1.5,1.8-1.5,2.6C27.1,26.7,26.9,29.5,28,31.1z"/>
	<path d="M37.1,21.2c0.1-0.3,0.4-0.4,0.6-0.4c0.1,0,0.1,0,0.2,0c0.6,0.1,0.4,0.9,0.4,1.3c0,0.2,0,0.5,0,0.8c0,2.9-0.2,9.8-2.8,9.8
		c-3.3-0.1-2.7-8.3-2.8-10.7c0-0.1,0-0.2,0-0.3c0-0.5,0.2-0.9,0.9-0.8c0.6,0.1,0.4,0.7,0.4,1.2c0,2.2-0.1,7.9,1.5,9.4
		c0.7-0.8,0.8-1.9,1-2.9C37,26.2,37,23.7,37.1,21.2z"/>
	<path d="M41.3,32.2c0,0.4-0.4,0.6-0.7,0.6c-0.3,0-0.5-0.2-0.6-0.5c-0.2-1.5-0.3-3-0.3-4.5c0-1.8,0.1-3.5,0.2-5.3
		c0.1-1.2-0.1-1.5,0.4-1.8c0.1-0.1,0.2-0.1,0.3-0.1c0.3,0,0.6,0.2,0.6,0.6c0,0.8-0.1,1.6-0.1,2.5c0,0.7,0,2.6,0,2.9
		c0,1.5,0.2,3.2,0.2,4.7C41.3,31.7,41.3,31.9,41.3,32.2z"/>
	<path d="M43.6,29.2c0.1,0.4,0.2,0.7,0.4,1.1c0.3,0.6,0.9,1.3,1.6,1.2c0.3-0.1,0.6-0.2,0.8-0.5c0.2-0.2,0.4-0.5,0.5-0.8
		c0-0.1,0-0.1,0.1-0.1c0.1-0.2,0.3-0.3,0.5-0.3s0.4,0.1,0.6,0.2c0.2,0.2,0.3,0.3,0.3,0.5c0,0.1,0,0.2,0,0.2c-0.2,0.5-0.5,1-0.9,1.3
		c-0.3,0.3-0.6,0.5-1,0.6c0,0-0.4,0.2-1,0.2c-0.2,0-0.5,0-0.7-0.1c-0.5-0.2-0.9-0.4-1.3-0.8c-0.3-0.3-0.5-0.7-0.7-1
		c-0.4-1-0.6-2-0.7-3.1c0,0,0-0.1,0-0.1c0-0.6,0-1.1,0.1-1.7c0.1-0.7,0.3-1.4,0.5-2.1c0.1-0.3,0.2-0.5,0.3-0.7
		c0.2-0.5,0.4-0.9,0.7-1.3c0.1-0.2,0.3-0.3,0.4-0.4c0.4-0.3,0.9-0.5,1.4-0.5c0.3,0,0.5,0.1,0.7,0.1c0.4,0.2,0.8,0.5,1.1,0.9
		c0.5,0.6,0.6,1.1,0.7,1.3c0,0.1,0,0.1,0,0.1c0,0.2-0.1,0.3-0.1,0.4c-0.1,0.1-0.2,0.2-0.4,0.2c-0.1,0-0.1,0-0.1,0
		c-0.3-0.1-0.4-0.3-0.5-0.5c-0.1-0.2-0.2-0.3-0.3-0.5c-0.1-0.2-0.2-0.3-0.4-0.5c-0.3-0.2-0.6-0.4-1-0.3c-0.1,0-0.2,0.1-0.2,0.1
		c-0.2,0.2-0.3,0.4-0.4,0.6c-0.1,0.3-0.2,0.5-0.3,0.6c-0.2,0.6-0.4,1.3-0.6,1.9c-0.1,0.4-0.1,0.9-0.2,1.3c-0.1,0.8,0,1.6,0.1,2.4
		C43.6,29,43.6,29.1,43.6,29.2z"/>
	<path d="M54,29.8c0.4,0.2,0.6,0.5,0.6,0.8c0,0.4-0.3,0.7-0.8,0.7c-0.4,0-0.8-0.4-1.1-0.6c-0.7-0.5-1.3-0.9-2-1.4
		c0,0.7,0.1,1.3,0.1,2c0,0.5,0.1,1.1-0.3,1.5c-0.2,0.1-0.3,0.1-0.4,0.1c-1,0-0.7-2-0.8-2.7c0-1.4-0.1-3.2-0.1-4.9
		c0-1.4,0.1-2.9,0.2-4c0-0.2,0.1-0.3,0.2-0.3c0.8-0.4,0.8,0.5,0.8,1c0.1,1.3,0.2,2.6,0.2,3.9c0.7-1.5,1.8-3.6,2.5-5.1
		c0.1-0.2,0.3-0.3,0.5-0.3c0.2,0,0.3,0.1,0.4,0.2c0.1,0.1,0.1,0.3,0,0.4c-0.3,0.6-0.5,1.1-0.7,1.7c-0.7,1.7-1.4,3.4-2.2,5.1
		C52.1,28.5,53,29.2,54,29.8z"/>
	<path d="M63.1,31.1c-1,0.9-1.9,1.8-3.2,1.8c-0.1,0-0.1,0-0.2,0c-0.3,0-0.6-0.2-0.7-0.5c-0.1-0.1-0.1-0.3-0.1-0.4
		c-0.2-2.2-0.2-4.4-0.3-6.6c0-0.6,0-1.3,0-1.9c-0.1,0-0.2-0.1-0.2-0.2c0-0.1,0-0.1,0-0.2c0-0.2,0.2-0.4,0.3-0.6c0-0.3,0-0.7,0.1-1
		c0.1-0.4,0.7-0.4,0.8,0c0.6-0.4,1.4-0.7,2.1-0.7c0.7,0,1.3,0.3,1.5,1.2c0.3,1.6-0.6,3.2-1.5,4.5c1.5,0.2,2.2,1.2,2.2,2.4
		C64.1,29.6,63.7,30.4,63.1,31.1z M62,23.5c0.1-0.5,0.3-1.3-0.1-1.6c-0.8-0.2-1.6,0.3-2.2,0.8c0.1,1.2,0.1,3.4,0.2,4.3
		C60.6,26.2,61.9,24.3,62,23.5z M61.6,30.7c0.4-0.4,0.6-0.6,1-1c0.7-1.1-0.2-2.5-1.5-2.2c-0.3,0.4-0.7,0.7-1.1,1c0.1,1,0.2,2,0.2,3
		C60.7,31.5,61.3,31,61.6,30.7z"/>
	<path d="M69.6,30.4c0.3,0.3,0.4,0.7,0,0.9c-1,0.3-2.4-1-3.3-1.5c0,0.7,0.4,2.3-0.2,2.8c-0.2,0.1-0.3,0.2-0.4,0.2
		c-0.4,0-0.6-0.5-0.6-1c-0.2-1.4-0.3-2.8-0.3-4.2c0-1.5,0.1-3.1,0.1-4.6c-0.1-0.2-0.1-0.4,0.1-0.6c0.1-0.2,0.3-0.3,0.5-0.3
		c1-1,2-1.4,2.8-1.4c1.3,0,2.2,1,2.2,2.5c0,0.7-0.2,1.5-0.6,2.3c-0.7,1.2-1.8,2.2-2.8,3.1c0,0,0.1,0,0.1,0.1c0,0,0.1,0,0.1,0.1
		C67.9,29.3,68.9,29.7,69.6,30.4z M68.9,24.2c0.2-0.7,0.2-1.4-0.2-2c-0.8-0.8-1.9,0.2-2.7,0.7c-0.1,1.4,0,3.3,0.1,4.7
		C67.3,26.6,68.4,25.5,68.9,24.2z"/>
	<path d="M72.6,21.4c0.4-0.4,0.9-0.6,1.4-0.6c0.9,0,1.8,0.6,2.2,1.3c0.5,0.9,0.8,2.4,0.8,3.9c0,2.6-0.7,5.4-2.3,6.4
		c-0.3,0.2-0.6,0.2-0.9,0.2c-0.9,0-1.6-0.6-2-1.3c-0.7-1.3-0.8-2.8-0.8-4.2c0-0.6,0-1.3,0.1-1.9C71.2,23.9,71.6,22.4,72.6,21.4z
		 M73.9,31.5c1.1,0.2,1.5-2.8,1.7-3.7c0.2-1.3,0.1-2.1,0.1-2.3c-0.1-1.2-0.3-2.8-1.6-3.3c-0.9,0-1.5,1.8-1.5,2.6
		C72.5,26.3,72.1,30.9,73.9,31.5z"/>
	<path d="M84.3,21.1c0,0.2,0.1,0.5,0.1,0.7c0,1-0.3,2-0.4,2.9c-0.2,1.5-0.3,2.7-0.4,4.2c0,0.8-0.1,1.6,0,2.4
		c0.1,0.6,0.1,1.4-0.7,1.4c-0.4,0-0.5-0.3-0.5-0.4c-0.6-1.6-1.2-3.4-1.6-4.9c-0.3,0.8-0.5,1.7-0.7,2.5c-0.2,0.6-0.3,1.7-0.9,2
		c-0.6,0.4-0.9-0.1-0.9-0.7c-0.1-0.7-0.2-1.7-0.2-2.3c0-0.8-0.1-2.2-0.1-3.5c0-1.7,0.1-3.5,0.7-4.3c1.3-0.7,0.7,1.6,0.7,2.2
		c-0.1,1.5-0.1,2.9,0,4.4c0.2-0.6,0.4-1.3,0.7-1.9c0.2-0.5,0.5-1.3,1.2-1.1c0.4,0.2,0.4,0.6,0.5,1c0.2,0.9,0.4,1.7,0.7,2.5
		c0.1-1.2,0.4-7.1,1.3-7.5c0.1,0,0.1-0.1,0.2-0.1C84,20.8,84.2,21,84.3,21.1z"/>
	<path d="M89.9,21.2c0.1-0.3,0.3-0.4,0.6-0.4c0.1,0,0.2,0,0.3,0.1c0.3,0.1,0.4,0.5,0.4,0.8c0,0.5-0.2,1.2-0.2,1.3
		c-0.3,3-0.3,6.1-0.1,9.2c0,0.4-0.3,0.6-0.6,0.6c0,0-0.1,0-0.1,0c-0.6-0.1-0.8-0.9-1.1-1.3c-0.4-0.7-0.7-1.4-1.1-2.2
		c-0.5-1-0.9-2-1.3-3c0,1,0.1,1.9,0.2,2.8c0.1,0.9,0.3,1.8,0.3,2.6c-0.1,0.4-0.5,0.6-0.9,0.5c-0.1,0-0.5-0.1-0.5-0.5
		c-0.1-0.7-0.2-1.4-0.3-2.1c-0.1-1.4-0.2-2.9-0.2-4.3c0-0.6,0-1.2,0-1.7c0-0.2,0-0.4,0.1-1.1c0-0.4,0.4-0.6,0.8-0.6
		c0.7,0.1,0.7,1,0.9,1.5c0.7,2,1.5,3.9,2.4,5.8C89.4,26.7,89.6,23.6,89.9,21.2z"/>
	<path d="M99.7,20.8c0.4,0.1,0.6,0.3,0.6,0.6c0,0.2-0.1,0.4-0.3,0.5c-0.3,0.2-0.7,0.1-1.1,0.1c-0.8,0-1.6,0.1-2.3,0.2
		c-0.1,0.8-0.1,1.8-0.1,2.6c0.6-0.2,1.2-0.3,1.8-0.3c0.5,0,1.2-0.1,1.5,0.4c0.2,0.3-0.1,0.7-0.4,0.8c-0.4,0.2-0.9,0.1-1.3,0.1
		c-0.5,0-1.1,0.1-1.6,0.3c0,1.8,0.1,3.6,0.2,5.5c0,0.4,0,0.9-0.4,1.2c-0.1,0.1-0.2,0.1-0.3,0.1c-0.3,0-0.5-0.2-0.5-0.3
		c-0.2-0.7-0.3-1.4-0.3-2.1c0-0.6,0-1.3,0-1.9c0-2.2,0.2-4.3,0.4-6.5c-0.1-0.4,0.3-0.7,0.6-0.7c0.7-0.2,1.4-0.3,2.2-0.4
		c0.5,0,0.9-0.1,1.3-0.1C99.5,20.8,99.6,20.8,99.7,20.8z"/>
	<path d="M102.2,21.4c0.4-0.4,0.9-0.6,1.4-0.6c0.9,0,1.8,0.6,2.2,1.3c0.5,0.9,0.8,2.4,0.8,3.9c0,2.6-0.7,5.4-2.3,6.4
		c-0.3,0.2-0.6,0.2-0.9,0.2c-0.9,0-1.6-0.6-2-1.3c-0.7-1.3-0.8-2.8-0.8-4.2c0-0.6,0-1.3,0.1-1.9C100.8,23.9,101.2,22.4,102.2,21.4z
		 M103.5,31.5c1.1,0.2,1.5-2.8,1.7-3.7c0.2-1.3,0.1-2.1,0.1-2.3c-0.1-1.2-0.3-2.8-1.6-3.3c-0.9,0-1.5,1.8-1.5,2.6
		C102.1,26.3,101.7,30.9,103.5,31.5z"/>
	<path d="M112.6,32.1c0,0,0,0.1,0,0.1c0,0.4-0.6,0.8-1,0.3c-0.8-1.3-1.5-2.5-2.1-3.9c-0.2,0.8-0.5,1.7-0.7,2.5
		c-0.2,0.6-0.2,1.4-0.8,1.7c-0.1,0-0.1,0-0.1,0c-0.5,0-0.5-0.6-0.5-1c0.3-1.8,0.8-3.5,1.3-5.1c-0.6-1.7-1.2-3.3-1.5-5.1
		c0,0,0-0.1,0-0.1c0-0.3,0.1-0.7,0.5-0.7c0.9-0.1,1.3,3.1,1.7,3.8c0.2-0.6,1.4-3.9,2-3.8c0,0,0.1,0,0.1,0c0.4,0,0.6,0.4,0.5,0.6
		c-0.6,1.8-1.2,3.5-1.9,5.2C111,28.4,111.8,30.2,112.6,32.1z"/>
	<path d="M121.3,20.4c0.6-0.1,0.3-0.1,0.9-0.2c0.1,0,0.1,0,0.2,0c0.1,0,0.1,0,0.2,0c0.3,0.1,0.4,0.3,0.4,0.5c0,0.3-0.3,0.7-0.6,0.7
		c-0.4,0.1-0.7,0.1-1.1,0.2c0.4,2.9,0.4,5.9-0.4,8.7c-0.3,0.9-0.6,1.8-1.5,2.3c-0.2,0.1-0.5,0.2-0.7,0.2c-1,0-1.8-0.9-2.1-1.8
		c-0.1-0.3-0.2-0.8-0.2-1.2c0-0.5,0.2-1,0.7-0.8c0.7,0.3,0.4,1.3,0.9,1.8c0.2,0.2,0.3,0.6,0.7,0.6c0.5-0.2,0.6-0.8,0.8-1.2
		c0.8-2.7,0.4-5.5,0.4-8.2c-0.5,0.1-1,0.4-1.5,0.4c-0.4-0.1-0.5-0.6-0.2-0.9c0.6-0.3,1.3-0.4,1.9-0.7
		C120.5,20.6,120.9,20.5,121.3,20.4z"/>
	<path d="M128,21.2c0.1-0.3,0.4-0.4,0.6-0.4c0.1,0,0.1,0,0.2,0c0.6,0.1,0.4,0.9,0.4,1.3c0,0.2,0,0.5,0,0.8c0,2.9-0.2,9.8-2.8,9.8
		c-3.3-0.1-2.7-8.3-2.8-10.7c0-0.1,0-0.2,0-0.3c0-0.5,0.2-0.9,0.9-0.8c0.6,0.1,0.4,0.7,0.4,1.2c0,2.2-0.1,7.9,1.5,9.4
		c0.7-0.8,0.8-1.9,1-2.9C127.9,26.2,128,23.7,128,21.2z"/>
	<path d="M136.4,21.6c0.1,1.2,0.2,2.3,0.3,3.5c0.2,1.6,0.4,3.9,0.6,5.7c0,0.3,0.1,0.7,0.1,1.1c0,0.5-0.1,1-0.8,1c0,0-0.1,0-0.1,0
		c-0.4-0.1-0.5-0.4-0.5-0.5c-0.3-2.4-0.5-4.8-0.7-7.2c-0.2,0.8-0.7,3-0.9,3.6c-0.1,0.4-0.4,0.6-0.8,0.6c-1.4,0-1.8-2-2.3-3
		c-0.1,1.3-0.1,2.7-0.2,4c-0.1,0.5,0.2,1.5-0.4,1.8c-0.3,0.1-0.8-0.1-0.8-0.5c0,0,0,0,0-0.1c0.1-3.2,0.1-6,0.4-9.3
		c0.1-0.3,0.5-0.5,0.9-0.4c0.5,0.1,0.5,0.5,0.6,1c0.3,1.6,0.9,3.1,1.5,4.5c0.4-1.7,1-3.4,1.4-5c0.1-0.5,0.1-1.2,0.7-1.4
		c0.1,0,0.1,0,0.2,0C136,20.9,136.4,21.2,136.4,21.6z"/>
	<path d="M138.3,22.4c0.2-0.2,0.4-0.4,0.5-0.6c0.6-0.7,1.4-1.1,2.3-1.2c0.1,0,0.2,0,0.3,0c1.5,0,2.2,0.9,2.2,2.1
		c0,0.4-0.1,0.9-0.3,1.4c-0.7,1.6-2.5,3.3-4.1,3.9c0,1,0.1,1.8,0.1,2.9c0,0.2,0,0.6,0,0.7c0,0.2,0.1,0.4,0,0.7
		c-0.1,0.3-0.4,0.5-0.7,0.5c-0.2,0-0.4-0.1-0.5-0.3c-0.3-0.7-0.2-1.3-0.2-2c0-1.6,0-3.1,0.1-4.7c0-0.6,0.1-1.3,0.2-1.9
		c0-0.5,0.2-0.4-0.1-0.5h0c-0.2-0.1-0.2-0.2-0.2-0.3C138,22.8,138.1,22.6,138.3,22.4z M139.4,26.6c1.2-0.8,2.4-2,2.9-3.3
		c0.1-0.5,0.2-1.2-0.4-1.4c-0.9-0.3-1.7,0.3-2.3,0.9C139.4,24.1,139.4,25.3,139.4,26.6z"/>
	<path d="M148.7,29.8c-0.7-1.8-2.5-3-3.6-4.6c-1.6-2.5,0.6-4.3,2.7-4.3c1.1,0,2.1,0.5,2.6,1.8c0,0,0,0.1,0,0.1
		c0,0.2-0.1,0.3-0.2,0.4c-1,0.4-0.8-0.4-1.4-0.9c-0.7-0.5-1.6-0.3-2.2,0.2c-1.8,1.5,0.9,3.4,1.9,4.5c0.6,0.7,1.2,1.4,1.6,2.3
		c0.8,2.2-0.9,3.6-2.7,3.6c-0.9,0-1.7-0.3-2.4-1c-0.2-0.3-0.6-0.7-0.6-1.2c0-0.2,0.1-0.3,0.2-0.4c0.3-0.2,0.7-0.3,0.9,0
		c0.2,0.3,0.3,0.5,0.6,0.7C147,32.1,149.2,31.5,148.7,29.8z"/>
	<path d="M155.7,21.4c0.4-0.4,0.9-0.6,1.4-0.6c0.9,0,1.8,0.6,2.2,1.3c0.5,0.9,0.8,2.4,0.8,3.9c0,2.6-0.7,5.4-2.3,6.4
		c-0.3,0.2-0.6,0.2-0.9,0.2c-0.9,0-1.6-0.6-2-1.3c-0.7-1.3-0.8-2.8-0.8-4.2c0-0.6,0-1.3,0.1-1.9C154.3,23.9,154.7,22.4,155.7,21.4z
		 M157,31.5c1.1,0.2,1.5-2.8,1.7-3.7c0.2-1.3,0.1-2.1,0.1-2.3c-0.1-1.2-0.3-2.8-1.6-3.3c-0.9,0-1.5,1.8-1.5,2.6
		C155.6,26.3,155.2,30.9,157,31.5z"/>
	<path d="M165.5,21c0.1-0.2,0.3-0.3,0.6-0.3c0.1,0,0.2,0,0.3,0.1c0.2,0.1,0.3,0.2,0.3,0.4c0,0.3-0.2,0.7-0.3,0.9
		c-0.2,0.6-0.4,1.1-0.5,1.7c-0.5,1.8-1,3.7-1.3,5.5c-0.1,0.8-0.3,1.5-0.4,2.3c0,0.6-0.1,1.2-0.7,1.2c0,0-0.1,0-0.1,0
		c0,0-0.4-0.1-0.5-0.4c-0.2-0.8-0.4-1.5-0.6-2.3c-0.6-2.5-1.2-5.3-1.4-8c0,0,0,0,0,0c0-0.4,0.5-0.7,0.9-0.6c0.3,0.1,0.4,0.3,0.5,0.5
		c0.1,0.7,0.2,1.3,0.2,2c0.2,1.8,0.5,3.4,0.9,5.2C163.8,26.5,164.5,23.6,165.5,21z"/>
	<path d="M170.3,30c0.5-0.2,1,0.2,1,0.7c0,0.6-1.1,0.9-1.5,1.3c-0.5,0.2-1.3,0.9-1.9,0.9c-0.1,0-0.3,0-0.4-0.1
		c-0.2-0.1-0.2-0.3-0.2-0.5c0-0.8-0.1-1.6-0.1-2.5c0-2.5,0-5,0.3-7.4c-0.5-0.7,0.3-1,0.9-1.2c0.5-0.2,1-0.3,1.6-0.4
		c0.2,0,0.3-0.1,0.5-0.1c0.2,0,0.4,0,0.5,0.1c0.7,0.4,0.2,1.1-0.5,1.1c-0.6,0.1-1.3,0.3-1.9,0.5c-0.1,1.7-0.1,3.3-0.1,5
		c0.4-0.2,1-0.4,1.4-0.6c0.4-0.2,0.9-0.4,1.3-0.2c0.2,0.1,0.3,0.3,0.3,0.6c0,0.1-0.1,0.3-0.2,0.4c-0.1,0.2-0.6,0.3-0.7,0.4
		c-0.7,0.3-1.4,0.6-2.1,0.9c0,0.7,0,1.4,0,2.1C169.2,30.7,169.7,30.3,170.3,30z"/>
	<path d="M177.1,30.4c0.3,0.3,0.4,0.7,0,0.9c-1,0.3-2.4-1-3.3-1.5c0,0.7,0.4,2.3-0.2,2.8c-0.2,0.1-0.3,0.2-0.4,0.2
		c-0.4,0-0.6-0.5-0.6-1c-0.2-1.4-0.3-2.8-0.3-4.2c0-1.5,0.1-3.1,0.1-4.6c-0.1-0.2-0.1-0.4,0.1-0.6c0.1-0.2,0.3-0.3,0.5-0.3
		c1-1,2-1.4,2.8-1.4c1.3,0,2.2,1,2.2,2.5c0,0.7-0.2,1.5-0.6,2.3c-0.7,1.2-1.8,2.2-2.8,3.1c0,0,0.1,0,0.1,0.1c0,0,0.1,0,0.1,0.1
		C175.5,29.3,176.4,29.7,177.1,30.4z M176.5,24.2c0.2-0.7,0.2-1.4-0.2-2c-0.8-0.8-1.9,0.2-2.7,0.7c-0.1,1.4,0,3.3,0.1,4.7
		C174.9,26.6,176,25.5,176.5,24.2z"/>
	<path d="M187.8,20.6c0.3,0,0.5,0.3,0.5,0.6c0,0.1,0,0.1,0,0.2c-0.2,0.6-1.2,0.4-1.7,0.5c-0.4,0-0.9,0.1-1.3,0.2
		c-0.1,3.2,0.1,6.4,0.4,9.6c0,0.4,0.1,0.9-0.3,1.2c-0.1,0.1-0.2,0.1-0.3,0.1c-0.3,0-0.6-0.2-0.7-0.5c-0.6-3.3-0.3-6.8-0.3-10.1
		c-0.5,0.1-1,0.2-1.5,0.4c-0.2,0.1-0.5,0.2-0.7,0.1c-0.2-0.1-0.3-0.3-0.3-0.5c0,0,0-0.1,0-0.1c0.1-0.6,1.8-0.9,2.3-1
		C185.3,20.8,186.6,20.7,187.8,20.6z"/>
	<path d="M193.3,21.4c0.1-0.3,0.4-0.5,0.7-0.5c0.2,0.1,0.3,0.2,0.3,0.4c0,0,0,0,0,0.1c-0.1,1.3-0.2,2.5-0.2,3.8
		c-0.2,2,0.1,4.2-0.2,6.1c-0.1,0.4-0.5,0.6-0.9,0.5c-1-0.2-0.4-3.5-0.4-4.4c-0.9,0.1-1.8,0.2-2.7,0.4c0,1.1,0.1,2.2,0.1,3.3
		c-0.1,0.5,0.2,1.3-0.3,1.6c-0.1,0.1-0.2,0.1-0.3,0.1c-0.4,0-0.7-0.3-0.7-0.6c-0.1-1-0.1-2-0.1-2.9c0-2.1,0.2-4.3,0.5-6.4
		c0-0.3-0.1-1.6,0.5-1.9c0.1-0.1,0.2-0.1,0.3-0.1c0.2,0,0.4,0.1,0.4,0.5c-0.1,0.8-0.2,1.6-0.2,2.5c-0.1,1.2-0.1,1.6-0.1,3.1
		c0.9-0.2,1.9-0.3,2.8-0.5C192.8,24.9,193.1,22.8,193.3,21.4z"/>
	<path d="M198.3,30c0.5-0.2,1,0.2,1,0.7c0,0.6-1.1,0.9-1.5,1.3c-0.5,0.2-1.3,0.9-1.9,0.9c-0.1,0-0.3,0-0.4-0.1
		c-0.2-0.1-0.2-0.3-0.2-0.5c0-0.8-0.1-1.6-0.1-2.5c0-2.5,0-5,0.3-7.4c-0.5-0.7,0.3-1,0.8-1.2c0.5-0.2,1-0.3,1.6-0.4
		c0.2,0,0.3-0.1,0.5-0.1c0.2,0,0.4,0,0.5,0.1c0.7,0.4,0.2,1.1-0.5,1.1c-0.6,0.1-1.3,0.3-1.9,0.5c-0.1,1.7-0.1,3.3-0.1,5
		c0.4-0.2,1-0.4,1.4-0.6c0.4-0.2,0.9-0.4,1.3-0.2c0.2,0.1,0.3,0.3,0.3,0.6c0,0.1-0.1,0.3-0.2,0.4c-0.1,0.2-0.6,0.3-0.7,0.4
		c-0.7,0.3-1.4,0.6-2.1,0.9c0,0.7,0,1.4,0,2.1C197.3,30.7,197.8,30.3,198.3,30z"/>
	<path d="M207,29.6c0.5-0.2,0.9-0.5,1.4-0.2c0.2,0.1,0.4,0.3,0.4,0.5c0,0.2-0.1,0.3-0.3,0.4c-1,0.6-2.1,1.1-3.1,1.7
		c-0.4,0.2-1.1,0.7-1.5,0.7c-0.2,0-0.4-0.2-0.4-0.6c0-0.1,0-0.1,0-0.1c0.1-3,0.2-6,0.2-9c0.1-0.6,0-2.4,0.8-2.4c0.1,0,0.1,0,0.2,0
		c0.3,0.1,0.3,0.3,0.3,0.3c0.2,0.7,0.1,1.6,0.1,2.2c0,2.5,0,5,0,7.5C205.7,30.3,206.3,30,207,29.6z"/>
	<path d="M215.2,30.9c0.1,0.4,0.1,0.9,0.1,1.3c0,0.2,0,0.4-0.1,0.4c-1.2,1-1.5-1.7-1.7-2.5c-0.8,0.1-1.6,0.3-2.4,0.4
		c-0.2,0.7-0.4,1.4-0.7,2.1c-0.1,0.2-0.3,0.3-0.5,0.3c-0.2,0-0.5-0.1-0.5-0.3c0-0.1,0-0.2,0-0.3c0-0.8,0.2-1.6,0.3-2.4
		c0.7-3.4,1.1-5.3,2.2-8.4c0.1-0.3,0.3-0.4,0.6-0.4c0.3,0,0.5,0.2,0.5,0.5c0.6,2.2,1.1,4.5,1.5,6.7C214.8,29.1,215,30,215.2,30.9z
		 M211.4,29.1c0.6-0.1,1.3-0.2,1.9-0.2c-0.3-1.5-0.6-3.1-0.8-4.6C212.1,26.2,211.7,27.5,211.4,29.1z"/>
	<path d="M222.1,31.3c0.1,0.4-0.1,1-0.8,0.9c-1-0.1-2-0.2-2.9,0c-0.9,0.1-1.2,0.5-1.6,0.5c-0.2,0-0.3-0.1-0.6-0.3
		c-0.1-0.1-0.1-0.2-0.1-0.3c0-0.4,0.3-0.7,0.4-1c1.5-3.1,3-6.2,4.5-9.3c-1.1,0.1-2.6,0.1-3.7,0.2c-0.4,0.1-0.7-0.3-0.5-0.7
		c0.2-0.4,0.5-0.4,1-0.4c1-0.1,1.9-0.2,2.9-0.2c0.3-0.1,0.6-0.1,0.8-0.1c0.7,0,1,0.3,1,0.7c0,0.6-0.4,1.4-0.8,2.2
		c-1.2,2.5-2.4,5-3.6,7.5C218.8,30.8,221.9,30.5,222.1,31.3z"/>
	<path d="M227.5,20.7c0.2-0.2,0.4-0.2,0.7-0.2c0.2,0.1,0.3,0.2,0.3,0.4c0,0.3-0.2,0.6-0.2,0.8c-0.7,2.7-1.6,5.6-2.3,8.4
		c-0.3,0.7-0.3,2.6-1.3,2.6l0,0c-1.2-0.3-0.2-2.2-0.1-2.9c0.3-1.1,0.6-2.1,0.9-3.2c-0.5-0.7-0.7-1.6-1.1-2.3c-0.4-1.1-1-2.2-1.2-3.3
		c0,0,0-0.1,0-0.1c0-0.2,0.2-0.4,0.5-0.4c0.4,0,0.5,0.3,0.6,0.6c0.7,1.1,1.2,2.4,1.8,3.6C226.6,23.2,227,22.1,227.5,20.7z"/>
	<path d="M232.7,22.5c-0.1,0-0.2-0.1-0.3-0.1c-0.1-0.1-0.2-0.2-0.2-0.4c0,0,0-0.1,0-0.1c0-0.4,0.5-0.5,0.9-0.7
		c0.4-0.2,0.7-0.3,1.1-0.4c0.3-0.1,0.6-0.1,1-0.1c0.1,0,0.1,0,0.2,0c1,0.1,1.8,0.8,1.6,0.6c0.1,0.1,0.2,0.2,0.2,0.2
		c0.3,0.3,0.5,0.6,0.6,1c0.1,0.4,0.2,0.8,0.2,1.3c0,0.1,0,0.1,0,0.2c-0.1,1.1-0.5,2.2-0.9,3.2c-0.2,0.4-0.4,0.9-0.6,1.3
		c-0.5,0.8-0.9,1.6-1.5,2.4c-0.2,0.4-0.5,0.7-0.8,1c-0.5,0.5-0.5,0.6-0.6,0.7c-0.1,0.1-0.1,0.1-0.1,0.1c-0.1,0.1-0.3,0.1-0.4,0.1
		c-0.2,0-0.3-0.1-0.5-0.2c0,0-0.1-0.1-0.1-0.1c-0.1-0.2-0.1-0.3,0-0.5c0-0.3-0.1-0.6-0.1-0.9c0-0.3,0-0.5,0-0.7c0-0.5,0-0.6,0-0.6
		c0-0.4,0-0.8,0-1.2c0-0.3,0-0.5,0-0.8c0-0.9,0-1.9,0.1-2.8c0-0.5,0.1-1,0.1-1.5c0-0.2,0-0.3,0.1-0.5
		C232.7,22.8,232.7,22.7,232.7,22.5z M233.8,30.3c0.1-0.1,0.2-0.2,0.3-0.4c0.2-0.3,0.4-0.5,0.4-0.6c0.3-0.5,0.2-0.2,0.4-0.7
		c0.2-0.3,0.4-0.6,0.5-0.9c0.4-0.8,0.6-1.3,0.7-1.4c0.2-0.4,0.3-0.7,0.4-1.1c0.1-0.5,0.2-0.9,0.2-1.4c0-0.1,0-0.7-0.4-1.3
		c-0.2-0.3-0.4-0.5-0.8-0.6c-0.2-0.1-0.5,0-0.7,0c-0.4,0.1-0.7,0.2-1,0.3c0.1,0.8,0,0.4,0.1,1.2c0,0.5,0,1,0,1.5
		c-0.1,0.9-0.1,1.9-0.1,2.8c0,0.3,0,0.5,0,0.8c0,0.5,0,1,0,1.4C233.8,30,233.8,30.1,233.8,30.3C233.8,30.2,233.8,30.3,233.8,30.3z"
		/>
	<path d="M240.2,21.4c0.4-0.4,0.9-0.6,1.4-0.6c0.9,0,1.8,0.6,2.2,1.3c0.5,0.9,0.8,2.4,0.8,3.9c0,2.6-0.7,5.4-2.3,6.4
		c-0.3,0.2-0.6,0.2-0.8,0.2c-0.9,0-1.6-0.6-2-1.3c-0.7-1.3-0.8-2.8-0.8-4.2c0-0.6,0-1.3,0.1-1.9C238.8,23.9,239.2,22.4,240.2,21.4z
		 M241.5,31.5c1.1,0.2,1.5-2.8,1.7-3.7c0.2-1.3,0.1-2.1,0.1-2.3c-0.1-1.2-0.3-2.8-1.6-3.3c-0.9,0-1.5,1.8-1.5,2.6
		C240.1,26.3,239.7,30.9,241.5,31.5z"/>
	<path d="M249.2,26.8c0.8-0.3,1.3-0.7,1.8-0.3c0.1,0.1,0.1,0.2,0.1,0.3c0,0,0,0.1,0,0.1c-0.1,0.5-0.3,0.9-0.4,1.4
		c-0.5,1.3-1.4,4.5-3.1,4.5c-0.2,0-0.5-0.1-0.8-0.2c-0.6-0.4-0.9-1.3-1.1-2c-0.4-1.4-0.6-2.8-0.6-4.2c0-1,0.1-2.1,0.3-3.1
		c0.2-1.2,1.1-2.5,2.2-2.5c0.3,0,0.7,0.1,1.1,0.4c0.6,0.4,1.6,2.6,0.8,3.1c-0.3,0.2-0.8,0.1-0.9-0.3c-0.1-0.7-0.2-1.6-0.9-1.8
		c-1.2,0.1-1.2,3.9-1.2,4.8c0,1,0.2,2.4,0.5,3.3c0.1,0.3,0.5,1.2,0.8,0.6c0.7-0.9,1.2-2,1.6-3c-0.4,0.2-0.7,0.5-1,0.7
		c-0.3,0.3-0.2,0.4-0.6,0.4c-0.6,0-1.1-0.7-0.5-1.1C248,27.5,248.4,27.2,249.2,26.8z"/>
</g>
</svg>
