<?xml version="1.0" encoding="utf-8"?>
<!-- Generator: Adobe Illustrator 26.1.0, SVG Export Plug-In . SVG Version: 6.00 Build 0)  -->
<svg version="1.1" id="Layer_1" xmlns="http://www.w3.org/2000/svg" xmlns:xlink="http://www.w3.org/1999/xlink" x="0px" y="0px"
	 viewBox="0 0 372 36.9" style="enable-background:new 0 0 372 36.9;" xml:space="preserve">
<rect width="372" height="36.9" fill="white"/>
<g>
	<path d="M9.4,6.1L7.5,6.7l-0.2,9.4H6.2L5.8,7L3.9,7.4V5.7l5.7-0.9L9.4,6.1z"/>
	<path d="M17.4,5.3l-0.9,10.6h-0.9l-0.2-3.6l-3.4,0.2l-0.2,2.8l-1.1,0.6L10.4,5.1l1.9-0.6L11.9,11l3.4-0.2V5L17.4,5.3z"/>
	<path d="M22.8,5l0.6,1.3l-3.8,0.4v2.5l2.5-0.6l0.2,1.5l-2.5,0.6v3.2l3.6-1.3v1.7l-4.9,1.7l-0.4-9.8L22.8,5z"/>
	<path d="M34.9,15.5l-0.8-0.9c-0.4,0.9-1.1,1.5-2.1,1.5c-4.2,0-6-11.7-0.2-11.1c2.5,0.2,3.4,4.7,2.8,7.9l1.3,1.3L34.9,15.5z
		 M33.6,13.8l-2.8-3.8l0.8-0.9l2.5,2.8c0.2-2.3-0.9-5.3-2.1-5.7c-3.6-0.9-2.5,9.3,0.6,8.7C33,14.8,33.4,14.4,33.6,13.8z"/>
	<path d="M38.1,5c0,0-0.6,8.3,0.6,9.6c2.1,2.3,1.9-9.8,1.9-9.8h1.7c0,0,0.9,11.3-3.4,11.3c-3.8,0-2.6-11.3-2.6-11.3L38.1,5z"/>
	<path d="M44.9,4.8l-0.4,11l-1.1,0.4l-0.2-11L44.9,4.8z"/>
	<path d="M49.7,8.5c0,0,0.2-0.8-0.4-1.9c-1.1-2.1-2.1,0.6-2.1,2.1C47,9.3,47,14.2,48.3,14c1.1-0.2,1.3-2.8,1.3-2.8l1.7,0.8
		c0,0-0.8,4.2-3,4c-2.5-0.2-2.5-4.3-2.5-4.3s-0.9-7,2.3-7c3,0.2,2.6,3.4,2.6,3.4L49.7,8.5z"/>
	<path d="M54.2,12.1l3.4,2.1L57,15.9l-3.4-2.6v2.3l-1.1,0.4L51.7,5.1l1.7-0.4v5.9l2.6-5.9l1.5,1.5L54.2,12.1z"/>
	<path d="M64.6,15.7v0.4l-1.5-0.4l-0.8-9.1c0,0,2.1-1.7,3.6-1.7c0.8,0,1.5,0.4,1.9,1.3c0.8,1.7,0,3.2-0.9,3.8
		c0.6,0.2,1.3,0.4,1.7,1.1C69.9,14.6,66.8,15.3,64.6,15.7z M63.6,6.8l0.2,3.2c1.1-0.2,3.6-1.5,2.8-2.8C65.9,6.1,64.6,6.3,63.6,6.8z
		 M67,11.8c-0.8-1.7-2.3-0.9-3-0.6l0.4,2.8C65.7,14,68,13.5,67,11.8z"/>
	<path d="M72.3,12.3l3.8,2.1L74,15.7l-3.2-2.8v2.6l-1.1,0.6V6.3c0.9-0.9,2.1-1.5,3-1.5c1.3,0,2.3,0.8,2.8,1.7
		C77.4,9.9,74.6,11.6,72.3,12.3z M70.6,6.8V11c0.9-0.2,4.7-1.1,3.6-3.8C73.5,5.3,71,6.7,70.6,6.8z"/>
	<path d="M80.3,16.1c-4.2,0-5.3-11.9,0.6-11.3C84.6,5.1,84.4,16.1,80.3,16.1z M80.8,6.5l-0.6-0.2c-2.6-0.8-2.3,8.7,0.2,8.1
		C83.8,13.3,82.7,6.8,80.8,6.5z"/>
	<path d="M88.8,15.9l-1.3-3.4l-1.1,3.6l-1.7-0.2L84.4,5.5l1.7-0.2l-0.8,7.9l2.5-5.5l1.7,6.2L89.9,5l1.7,0.9l-0.8,9.4L88.8,15.9z"/>
	<path d="M94,4.6l2.6,9.1l0.4-9.1L99,5.1l-0.4,10.4l-2.5,0.6l-2.3-8.3l0.2,8.1l-1.7-0.2L92.5,5L94,4.6z"/>
	<path d="M109,4.8v1.7h-3.4v2.6l2.8-0.4v1.7l-2.8,0.6v5.1l-1.5-0.2l0.2-10.6L109,4.8z"/>
	<path d="M112.9,16.1c-4.2,0-5.3-11.9,0.6-11.3C117.3,5.1,117.1,16.1,112.9,16.1z M113.5,6.5l-0.6-0.2c-2.6-0.8-2.3,8.7,0.2,8.1
		C116.5,13.3,115.4,6.8,113.5,6.5z"/>
	<path d="M120.7,10.8l2.1,4.3l-0.9,0.6l-1.9-3.2l-1.9,3.6l-0.8-0.9l1.9-4.2l-2.5-4.3l0.9-1.7l2.1,4.2l1.7-4h2.1L120.7,10.8z"/>
	<path d="M133.5,6.3l-1.1,0.2c-0.2,2.8-0.8,9.6-2.5,9.6c-0.4,0-0.9-0.8-1.7-2.3l1.1-1.1c0,0,0.8,2.1,0.9,0.6c0-1.1,0.2-5.1,0.4-6.8
		l-2.1,0.2l0.2-1.7l5.1-0.2L133.5,6.3z"/>
	<path d="M136.4,5c0,0-0.6,8.3,0.6,9.6c2.1,2.3,1.9-9.8,1.9-9.8h1.7c0,0,0.9,11.3-3.4,11.3c-3.8,0-2.6-11.3-2.6-11.3L136.4,5z"/>
	<path d="M143,4.8l2.1,6l2.3-6l1.5,0.4l-0.2,10.8h-1.7l0.8-7.7l-2.6,5.7l-2.6-5.7l0.4,7.9l-1.3-0.6V5L143,4.8z"/>
	<path d="M151.3,12.7l0.2,3.2l-1.7,0.2L149.6,5c5.7-0.2,5.7,2.3,5.9,3.4C156,11.6,153,12.5,151.3,12.7z M150.7,6.7l0.4,4.2
		c1.1,0,3-0.2,3.2-2.1C154.5,6.7,152,6.7,150.7,6.7z"/>
	<path d="M160.7,7.8c0,0,0.6-2.6-2.1-1.1s0.9,2.5,3.2,4.3c2.6,2.5-0.2,4.7-1.9,5.1c-1.7,0.4-4-2.6-4-2.6l1.7-1.3c0,0,1.3,3,2.6,2.5
		c2.3-0.8,0-3.4-2.5-4.2c-3.2-0.9-1.7-5.5,1.3-5.9c4.5-0.2,2.8,3.8,2.8,3.8L160.7,7.8z"/>
	<path d="M171.3,16.1c-4.2,0-5.3-11.9,0.6-11.3C175.6,5.1,175.5,16.1,171.3,16.1z M171.9,6.5l-0.6-0.2c-2.6-0.8-2.3,8.7,0.2,8.1
		C174.9,13.3,173.8,6.8,171.9,6.5z"/>
	<path d="M175.1,5.5l1.7-0.4l1.5,8.9l1.7-9.3l1.5,0.6l-2.3,10.6l-2.1,0.2L175.1,5.5z"/>
	<path d="M186.8,5l0.6,1.3l-3.8,0.4v2.5l2.5-0.6l0.2,1.5l-2.5,0.6v3.2l3.6-1.3v1.7l-4.9,1.7l-0.4-9.8L186.8,5z"/>
	<path d="M190.8,12.3l3.8,2.1l-2.1,1.3l-3.2-2.8v2.6l-1.1,0.6V6.3c0.9-0.9,2.1-1.5,3-1.5c1.3,0,2.3,0.8,2.8,1.7
		C195.9,9.9,193,11.6,190.8,12.3z M189.1,6.8V11c0.9-0.2,4.7-1.1,3.6-3.8C191.9,5.3,189.4,6.7,189.1,6.8z"/>
	<path d="M204.9,6.1L203,6.7l-0.2,9.4h-1.1L201.3,7l-1.9,0.4V5.7l5.7-0.9L204.9,6.1z"/>
	<path d="M212.9,5.3l-0.9,10.6H211l-0.2-3.6l-3.4,0.2l-0.2,2.8l-1.1,0.6l-0.2-10.8l1.9-0.6l-0.4,6.4l3.4-0.2V5L212.9,5.3z"/>
	<path d="M218.3,5l0.6,1.3l-3.8,0.4v2.5l2.5-0.6l0.2,1.5l-2.5,0.6v3.2l3.6-1.3v1.7l-4.9,1.7l-0.4-9.8L218.3,5z"/>
	<path d="M225.3,13.8l3-0.9l0.9,1.7l-5.3,1.5v-11l1.9-0.4L225.3,13.8z"/>
	<path d="M236.1,14.8l-1.5,1.1l-0.9-3.4l-2.3,0.9l-0.6,2.1l-1.1,0.6L232.1,5h1.7L236.1,14.8z M233.4,11l-0.8-3.6l-0.9,4.2L233.4,11z
		"/>
	<path d="M238.2,14.6l4.5-1.1v2.3l-5.9,0.4l-0.4-1.7l4.5-7.7l-4.3,0.2l0.2-1.9l6.4-0.2L238.2,14.6z"/>
	<path d="M250.8,5.5l-4,10.8l-1.5-0.4l1.7-5.7l-3.4-4.2l1.1-1.1l3,4l1.3-4L250.8,5.5z"/>
	<path d="M257.6,15.5v0.4l-1.7,0.4v-11c5.1-1.5,5.7,1.7,5.7,2.6C262.2,12.7,259.1,14.8,257.6,15.5z M260.5,8.9
		c0-2.5-2.1-2.3-3.4-1.9l0.4,7C258.6,13.6,260.3,12.5,260.5,8.9z"/>
	<path d="M265.7,16.1c-4.2,0-5.3-11.9,0.6-11.3C270.1,5.1,269.9,16.1,265.7,16.1z M266.3,6.5l-0.6-0.2c-2.6-0.8-2.3,8.7,0.2,8.1
		C269.3,13.3,268.2,6.8,266.3,6.5z"/>
	<path d="M275.6,12.1c0.6,3.8-2.5,4-2.5,4s-4.3,0.6-3.4-6.4c0.6-3.8,1.7-4.7,2.8-4.7c1.5,0,3,2.1,3,2.1l-1.3,1.1
		c0,0-1.1-1.3-1.3-1.5c-2.1-2.3-2.6,9.1,0,8.1c1.3-0.4,1.5-1.7,1.3-2.6l-1.5-0.2l-0.4-1.1l3.6-0.8l0.8,2.1H275.6z"/>
	<path d="M9.8,22.7l-1.7,0.2l-0.2,8.7l-1.1,0.4L6.6,23l-2.5,0.2l0.6-1.7l5.5-0.8L9.8,22.7z"/>
	<path d="M17.5,20.8l-0.9,10.8l-0.8,0.4l-0.2-4.2l-3.6,0.8l-0.2,3.2l-0.9-0.9l-0.4-9.3l1.9-0.8L12.1,27l3.6-0.8l-0.2-4.5L17.5,20.8z
		"/>
	<path d="M23.2,20.8l-0.6,1.7l-3.4,0.4l0.2,3l3.8-1.5l-0.6,2.1l-3.2,0.9l0.2,2.5l3.6-1.3v1.7l-5.1,1.7l-0.2-9.6L23.2,20.8z"/>
	<path d="M34.4,31.9L33.8,31c-0.4,0.8-1.1,1.1-1.9,1.1c-4.2,0-6-11.7-0.2-11.3c2.5,0.4,3.6,5.1,2.8,8.5l0.9,1.3L34.4,31.9z M33.4,30
		l-2.6-4.3l0.8-0.4l2.5,3.2c0.2-2.5-1.1-6-2.5-6.2c-2.5-0.6-1.7,9.3,0.6,8.5C32.7,30.8,33,30.4,33.4,30z"/>
	<path d="M37.9,20.8c0,0-0.6,8.5,0.6,10c1.9,2.3,1.7-9.8,1.7-9.8l1.5,0.4c0,0,0.9,10.8-3.2,10.8c-3.4,0-2.5-10.6-2.5-10.6L37.9,20.8
		z"/>
	<path d="M44.4,21L44,31.3l-1.1,0.8l-0.2-10.2L44.4,21z"/>
	<path d="M49.3,25.7c0,0-0.4-1.9-0.9-2.8c-0.9-2.1-1.5,0.9-1.5,1.5c0,0.6-0.4,6.2,0.9,5.9c0.9-0.2,1.3-2.1,1.3-2.1l1.7,0.9
		c0,0-0.6,2.5-3,3c-2.3,0.6-2.5-4.3-2.5-4.3s-0.6-7,2.5-6.8c2.6,0,2.6,4.2,2.6,4.2L49.3,25.7z"/>
	<path d="M53.6,27.8l3.6,2.1l-0.4,1.5l-4-2.6l0.2,2.8l-1.1,0.6l-0.8-10.4l1.7-0.9v5.9l3.6-5.5l1.3,1.7L53.6,27.8z"/>
	<path d="M64.8,31.5v0.6l-1.5-0.4L62.5,23c0,0,2.3-2.1,4-2.1c0.8,0,1.3,0.4,1.7,1.1c0.8,1.5,0,2.5-1.1,3.2c0.8,0.2,1.3,0.6,1.9,1.5
		C70.4,30.2,67.2,31,64.8,31.5z M64,23.4l0.2,2.1c1.1-0.4,3.4-1.1,2.6-2.5C66.3,21.9,64.8,23,64,23.4z M67.4,27.6
		c-0.6-1.5-1.9-1.3-3.2-1.1l0.4,3.6C65.9,29.8,68.2,29.1,67.4,27.6z"/>
	<path d="M71.6,28.7l0.2,2.8l-1.7,0.6L70.2,21c0-0.2,0-0.2,0-0.2c5.9-0.4,6,1.5,6.2,2.1c0.4,3.4-2.1,4.9-4,5.5l3.6,1.9l-1.5,1.5
		L71.6,28.7z M71.4,22.5l0.2,4.5c0.9,0,3-0.4,3.2-2.6C75,22.5,72.7,22.5,71.4,22.5z"/>
	<path d="M80.6,32.1c-4.2,0-5.3-11.9,0.6-11.3C85,21.1,84.8,32.1,80.6,32.1z M81.2,22.5c-2.8-0.8-3.2,8.5-0.8,7.7
		C83.8,29.3,82.9,22.8,81.2,22.5z"/>
	<path d="M89.3,31.9l-1.7-3.6l-0.9,3.4L85,31.5l-0.2-9.8l1.9-0.4l-0.6,8.1l1.9-4.7l2.5,4.9V21l1.5,0.9l-0.8,9.4L89.3,31.9z"/>
	<path d="M94.4,20.8l3.4,8.9l-0.4-8.9l1.9,0.2L99,31l-2.5,1.3L93.9,24l0.6,7.6l-1.7,0.4l0.2-10.8L94.4,20.8z"/>
	<path d="M109.2,20.8v2.1h-3.6l0.2,2.6l3-0.8l-0.4,1.7l-2.8,0.8v4.7l-1.3-0.2V21.5L109.2,20.8z"/>
	<path d="M113.1,32.1c-4.2,0-5.3-11.9,0.6-11.3C117.5,21.1,117.3,32.1,113.1,32.1z M113.7,22.5c-2.8-0.8-3.2,8.5-0.8,7.7
		C116.3,29.3,115.4,22.8,113.7,22.5z"/>
	<path d="M120.9,26.8l2.1,4.3l-1.1,0.9l-1.9-3.8l-1.9,3.8l-0.8-0.9l1.9-4.3l-2.3-4.7L118,21l2.1,4.2l1.7-4.2h1.9L120.9,26.8z"/>
	<path d="M133.7,22.5l-1.1,0.2c-0.4,2.8-1.1,9.6-2.6,9.6c-0.4,0-0.9-0.8-1.5-2.3l0.9-1.3c0,0,0.9,3.2,1.1,1.7c0-1.1,0.2-5.7,0.4-7.6
		l-2.1,0.2l0.6-1.5l4.5-0.6L133.7,22.5z"/>
	<path d="M136.4,20.8c0,0-0.6,8.5,0.6,10c1.9,2.3,1.7-9.8,1.7-9.8l1.5,0.4c0,0,0.9,10.8-3.2,10.8c-3.4,0-2.5-10.6-2.5-10.6
		L136.4,20.8z"/>
	<path d="M142.8,21l2.1,5.9l2.5-6l1.3,0.6l-0.6,10.4l-1.5,0.2l0.8-7.6l-2.6,5.7l-2.5-5.7l0.2,7.7l-1.5-0.4l0.2-10.4L142.8,21z"/>
	<path d="M151.1,28.7v2.8l-1.5,0.6V20.8c5.9-0.4,6,1.5,6.2,2.1C156.4,27,152.8,28.3,151.1,28.7z M150.7,22.5l0.2,4.5
		c1.1,0.2,2.8-0.4,3.2-2.5C154.5,21.9,151.8,22.1,150.7,22.5z"/>
	<path d="M160.7,24.9c0,0,1.3-4-1.9-1.7c-2.1,1.3,1.5,2.6,3.4,4.5c2.6,2.5-0.4,4-2.1,4.3c-1.7,0.4-3-3-3-3l1.3-0.9
		c0,0,0.8,2.8,2.1,2.5c2.3-0.6-0.4-3.2-2.6-4.2c-3-1.1-0.9-5.5,2.1-5.7c3,0,2.8,3.4,2.8,3.4L160.7,24.9z"/>
	<path d="M171.7,32.1c-4.2,0-5.3-11.9,0.6-11.3C176,21.1,175.8,32.1,171.7,32.1z M172.2,22.5c-2.8-0.8-3.2,8.5-0.8,7.7
		C174.9,29.3,173.9,22.8,172.2,22.5z"/>
	<path d="M175.5,21l1.9-0.2l1.5,9.3l1.9-9.1l1.3,0.9l-2.5,9.6l-1.9,0.6L175.5,21z"/>
	<path d="M187.7,20.8l-0.6,1.7l-3.4,0.4l0.2,3l3.8-1.5l-0.6,2.1l-3.2,0.9l0.2,2.5l3.6-1.3v1.7l-5.1,1.7l-0.2-9.6L187.7,20.8z"/>
	<path d="M189.8,28.7l0.2,2.8l-1.7,0.6l0.2-11.1c0-0.2,0-0.2,0-0.2c5.9-0.4,6,1.5,6.2,2.1c0.4,3.4-2.1,4.9-4,5.5l3.6,1.9l-1.5,1.5
		L189.8,28.7z M189.6,22.5l0.2,4.5c0.9,0,3-0.4,3.2-2.6C193.2,22.5,190.9,22.5,189.6,22.5z"/>
	<path d="M205.5,22.7l-1.7,0.2l-0.2,8.7l-1.1,0.4l-0.2-8.9l-2.5,0.2l0.6-1.7l5.5-0.8L205.5,22.7z"/>
	<path d="M213.2,20.8l-0.9,10.8l-0.8,0.4l-0.2-4.2l-3.6,0.8l-0.2,3.2l-0.9-0.9l-0.4-9.3l1.9-0.8l-0.4,6.2l3.6-0.8l-0.2-4.5
		L213.2,20.8z"/>
	<path d="M218.9,20.8l-0.6,1.7l-3.4,0.4l0.2,3l3.8-1.5l-0.6,2.1l-3.2,0.9l0.2,2.5l3.6-1.3v1.7l-5.1,1.7l-0.2-9.6L218.9,20.8z"/>
	<path d="M225.3,30.2l3.2-2.3l1.1,1.7l-5.7,2.5l0.2-10.4l1.9-0.8L225.3,30.2z"/>
	<path d="M236.5,30.8l-1.3,1.1l-0.6-2.1l-3,0.9l-0.4,1.1l-1.1,0.2l2.6-11.1h1.5L236.5,30.8z M234.4,28.1l-1.3-4.7l-1.1,5.5
		L234.4,28.1z"/>
	<path d="M238.7,30.4l4.9-1.5l-0.6,2.3l-5.3,0.9l-0.6-2.3l4.7-7.6l-4.9,0.4l0.6-1.5l6.6-0.4L238.7,30.4z"/>
	<path d="M251.8,21.3l-4.2,10.8l-0.9-0.6l1.3-4.7l-3.4-4.2l1.3-1.7l2.5,4.7l1.5-4.9L251.8,21.3z"/>
	<path d="M258.2,31.3l0.2,0.4l-1.7,0.6l-0.2-10.4c1.5-0.8,2.5-0.9,3.2-0.9c2.1,0,2.5,1.5,2.5,2.3C262.3,27.9,259.7,30.2,258.2,31.3z
		 M261,24.2c0.2-2.3-2.3-1.5-3.4-0.8l0.6,6.4C259.3,28.9,260.5,27.4,261,24.2z"/>
	<path d="M266.3,32.1c-4.2,0-5.3-11.9,0.6-11.3C270.7,21.1,270.5,32.1,266.3,32.1z M266.9,22.5c-2.8-0.8-3.2,8.5-0.8,7.7
		C269.5,29.3,268.6,22.8,266.9,22.5z"/>
	<path d="M275.9,27.6c0.9,4.2-2.1,4.5-2.1,4.5s-4.3,0.4-3.8-6.6c0.4-3.6,1.3-4.7,2.5-4.7c1.3,0,2.8,1.9,2.8,1.9l-1.3,1.5
		c0,0-0.9-1.1-1.1-1.5c-1.7-2.1-1.7,8.7,0.6,7.9c1.7-0.4,1.1-2.1,0.8-2.8h-0.9l-0.4-0.6l3.2-1.5l1.1,1.9H275.9z"/>
</g>
</svg>
