<?xml version="1.0" encoding="utf-8"?>
<!-- Generator: Adobe Illustrator 26.1.0, SVG Export Plug-In . SVG Version: 6.00 Build 0)  -->
<svg version="1.1" id="Layer_1" xmlns="http://www.w3.org/2000/svg" xmlns:xlink="http://www.w3.org/1999/xlink" x="0px" y="0px"
	 viewBox="0 0 372 36.9" style="enable-background:new 0 0 372 36.9;" xml:space="preserve">
<rect width="372" height="36.9" fill="white"/>
<g>
	<path d="M11.7,6.1L9.8,6.7l-2.5,9.4H6.2L7.9,7L6,7.4l0.4-1.7l5.9-0.9L11.7,6.1z"/>
	<path d="M19.8,5.3l-3.4,10.6h-0.9l0.8-3.6l-3.6,0.2l-0.8,2.8l-1.3,0.6l2.3-10.8l2.1-0.6L13,11l3.4-0.2L17.9,5L19.8,5.3z"/>
	<path d="M25.5,5l0.2,1.3l-3.8,0.4l-0.6,2.5l2.5-0.6l-0.2,1.5l-2.5,0.6l-0.8,3.2l3.8-1.3l-0.4,1.7l-5.3,1.7l1.9-9.8L25.5,5z"/>
	<path d="M35.1,15.5l-0.6-0.9c-0.6,0.9-1.5,1.5-2.5,1.5c-4.2,0-3.4-11.7,2.5-11.1c2.3,0.2,2.3,4.7,0.9,7.9l0.9,1.3L35.1,15.5z
		 M34.2,13.8l-2.1-3.8l1.1-0.9l1.7,2.8c0.8-2.3,0.4-5.3-0.8-5.7c-3.4-0.9-4.5,9.3-1.5,8.7C33.4,14.8,33.8,14.4,34.2,13.8z"/>
	<path d="M40.8,5c0,0-2.6,8.3-1.7,9.6c1.5,2.3,4.2-9.8,4.2-9.8h1.7c0,0-1.7,11.3-6,11.3c-3.8,0,0-11.3,0-11.3L40.8,5z"/>
	<path d="M47.6,4.8l-3,11l-1.1,0.4l2.3-11L47.6,4.8z"/>
	<path d="M51.4,8.5c0,0,0.4-0.8,0.2-1.9c-0.8-2.1-2.3,0.6-2.6,2.1c-0.4,0.6-1.5,5.5,0,5.3c1.1-0.2,1.9-2.8,1.9-2.8l1.5,0.8
		c0,0-1.7,4.2-4,4c-2.5-0.2-1.3-4.3-1.3-4.3s0.6-7,3.8-7c3,0.2,1.9,3.4,1.9,3.4L51.4,8.5z"/>
	<path d="M55.1,12.1l2.8,2.1L57,15.9l-2.8-2.6l-0.4,2.3l-1.3,0.4l1.7-10.8l1.9-0.4l-1.3,5.9l4-5.9l1.1,1.5L55.1,12.1z"/>
	<path d="M64.6,15.7v0.4l-1.5-0.4l1.5-9.1c0,0,2.3-1.7,4-1.7c0.8,0,1.3,0.4,1.5,1.3c0.4,1.7-0.8,3.2-1.9,3.8
		c0.6,0.2,1.3,0.4,1.5,1.1C70.2,14.6,67,15.3,64.6,15.7z M68,11.8c-0.4-1.7-2.1-0.9-2.8-0.6L65,14C66.3,14,68.5,13.5,68,11.8z
		 M65.7,6.8l-0.6,3.2c1.3-0.2,4-1.5,3.6-2.8C68.2,6.1,66.8,6.3,65.7,6.8z"/>
	<path d="M73.3,12.3l3.2,2.1L74,15.7l-2.5-2.8L71,15.5l-1.3,0.6l2.3-9.8c1.1-0.9,2.5-1.5,3.4-1.5c1.1,0,2.1,0.8,2.5,1.7
		C78.9,9.9,75.7,11.6,73.3,12.3z M72.7,6.8L71.8,11c0.9-0.2,5.1-1.1,4.5-3.8C75.9,5.3,73.3,6.7,72.7,6.8z"/>
	<path d="M80.3,16.1c-4.2,0-2.5-11.9,3.2-11.3C87.1,5.1,84.4,16.1,80.3,16.1z M83.1,6.5l-0.6-0.2c-2.5-0.8-4.3,8.7-1.7,8.1
		C84.4,13.3,84.8,6.8,83.1,6.5z"/>
	<path d="M88.8,15.9l-0.6-3.4l-1.9,3.6l-1.7-0.2l2.3-10.4l1.7-0.2l-2.6,7.9l3.8-5.5l0.4,6.2L92.5,5l1.3,0.9L91,15.3L88.8,15.9z"/>
	<path d="M96.7,4.6l0.6,9.1l2.5-9.1l1.7,0.6l-2.6,10.4l-2.6,0.6l-0.4-8.3L94,15.9l-1.7-0.2L95.2,5L96.7,4.6z"/>
	<path d="M111.6,4.8l-0.4,1.7h-3.4l-0.6,2.6l2.8-0.4l-0.4,1.7l-3,0.6l-1.1,5.1l-1.5-0.2l2.6-10.6L111.6,4.8z"/>
	<path d="M112.9,16.1c-4.2,0-2.5-11.9,3.2-11.3C119.7,5.1,117.1,16.1,112.9,16.1z M115.8,6.5l-0.6-0.2c-2.5-0.8-4.3,8.7-1.7,8.1
		C117.1,13.3,117.5,6.8,115.8,6.5z"/>
	<path d="M121.8,10.8l1.1,4.3l-1.1,0.6l-1.1-3.2l-2.6,3.6l-0.6-0.9l2.8-4.2L119,6.7l1.3-1.7l1.1,4.2l2.5-4h2.1L121.8,10.8z"/>
	<path d="M135.8,6.3l-1.1,0.2c-0.9,2.8-3.2,9.6-4.7,9.6c-0.4,0-0.9-0.8-1.1-2.3l1.3-1.1c0,0,0.4,2.1,0.8,0.6
		c0.4-1.1,1.5-5.1,2.1-6.8l-2.1,0.2l0.6-1.7l5.1-0.2L135.8,6.3z"/>
	<path d="M139,5c0,0-2.6,8.3-1.7,9.6c1.5,2.3,4.2-9.8,4.2-9.8h1.7c0,0-1.7,11.3-6,11.3c-3.8,0,0-11.3,0-11.3L139,5z"/>
	<path d="M145.6,4.8l0.6,6l3.8-6l1.3,0.4l-2.6,10.8h-1.7l2.6-7.7l-4,5.7l-1.3-5.7l-1.5,7.9l-1.1-0.6L144.1,5L145.6,4.8z"/>
	<path d="M152,12.7l-0.6,3.2l-1.7,0.2L152.2,5c5.7-0.2,5.1,2.3,4.9,3.4C157.1,11.6,153.7,12.5,152,12.7z M153,6.7l-0.8,4.2
		c1.1,0,3.2-0.2,3.8-2.1C156.8,6.7,154.3,6.7,153,6.7z"/>
	<path d="M162.6,7.8c0,0,1.1-2.6-1.7-1.1c-3,1.5,0.4,2.5,2.1,4.3c2.1,2.5-1.3,4.7-3,5.1c-1.7,0.4-3.4-2.6-3.4-2.6l2.1-1.3
		c0,0,0.6,3,2.1,2.5c2.5-0.8,0.8-3.4-1.5-4.2c-3-0.9-0.4-5.5,2.6-5.9c4.5-0.2,1.9,3.8,1.9,3.8L162.6,7.8z"/>
	<path d="M171.3,16.1c-4.2,0-2.5-11.9,3.2-11.3C178.1,5.1,175.5,16.1,171.3,16.1z M174.1,6.5l-0.6-0.2c-2.5-0.8-4.3,8.7-1.7,8.1
		C175.5,13.3,175.8,6.8,174.1,6.5z"/>
	<path d="M177.5,5.5l1.7-0.4l-0.4,8.9l3.8-9.3l1.3,0.6l-4.7,10.6l-2.1,0.2L177.5,5.5z"/>
	<path d="M189.4,5l0.2,1.3l-3.8,0.4l-0.6,2.5l2.5-0.6l-0.2,1.5l-2.5,0.6l-0.8,3.2l3.8-1.3l-0.4,1.7l-5.3,1.7l1.9-9.8L189.4,5z"/>
	<path d="M191.7,12.3l3.2,2.1l-2.5,1.3l-2.5-2.8l-0.6,2.6l-1.3,0.6l2.3-9.8c1.1-0.9,2.5-1.5,3.4-1.5c1.1,0,2.1,0.8,2.5,1.7
		C197.4,9.9,194.2,11.6,191.7,12.3z M191.1,6.8l-0.9,4.2c0.9-0.2,5.1-1.1,4.5-3.8C194.3,5.3,191.7,6.7,191.1,6.8z"/>
	<path d="M207.2,6.1l-1.9,0.6l-2.5,9.4h-1.1l1.7-9.1l-1.9,0.4l0.4-1.7l5.9-0.9L207.2,6.1z"/>
	<path d="M215.3,5.3l-3.4,10.6H211l0.8-3.6l-3.6,0.2l-0.8,2.8l-1.3,0.6l2.3-10.8l2.1-0.6l-1.9,6.4l3.4-0.2l1.5-5.9L215.3,5.3z"/>
	<path d="M221,5l0.2,1.3l-3.8,0.4l-0.6,2.5l2.5-0.6l-0.2,1.5l-2.5,0.6l-0.8,3.2l3.8-1.3l-0.4,1.7l-5.3,1.7l1.9-9.8L221,5z"/>
	<path d="M225.9,13.8l3.2-0.9l0.6,1.7l-5.7,1.5l2.5-11l2.1-0.4L225.9,13.8z"/>
	<path d="M236.5,14.8l-1.9,1.1l-0.2-3.4l-2.5,0.9l-0.9,2.1l-1.3,0.6L234.8,5h1.7V14.8z M234.6,11l0.2-3.6l-1.9,4.2L234.6,11z"/>
	<path d="M238.5,14.6l4.7-1.1l-0.6,2.3l-5.9,0.4v-1.7l6.4-7.7l-4.5,0.2l0.8-1.9l6.4-0.2L238.5,14.6z"/>
	<path d="M253.3,5.5l-6.4,10.8l-1.5-0.4l3-5.7l-2.5-4.2l1.5-1.1l2.1,4l2.3-4L253.3,5.5z"/>
	<path d="M257.8,15.5l-0.2,0.4l-1.7,0.4l2.5-11c5.5-1.5,5.3,1.7,5.1,2.6C262.9,12.7,259.5,14.8,257.8,15.5z M262.2,8.9
		c0.6-2.5-1.5-2.3-3-1.9l-1.1,7C259.1,13.6,261,12.5,262.2,8.9z"/>
	<path d="M265.7,16.1c-4.2,0-2.5-11.9,3.2-11.3C272.5,5.1,269.9,16.1,265.7,16.1z M268.6,6.5L268,6.3c-2.5-0.8-4.3,8.7-1.7,8.1
		C269.9,13.3,270.3,6.8,268.6,6.5z"/>
	<path d="M276.5,12.1c-0.4,3.8-3.4,4-3.4,4s-4.5,0.6-1.9-6.4c1.3-3.8,2.8-4.7,3.8-4.7c1.7,0,2.6,2.1,2.6,2.1l-1.5,1.1
		c0,0-0.9-1.3-0.9-1.5c-1.7-2.3-4.9,9.1-1.9,8.1c1.3-0.4,1.9-1.7,1.9-2.6l-1.5-0.2l-0.2-1.1l3.8-0.8l0.4,2.1H276.5z"/>
	<path d="M12.1,22.7l-1.9,0.2l-2.1,8.7l-1.3,0.4L8.7,23l-2.5,0.2l0.9-1.7l5.7-0.8L12.1,22.7z"/>
	<path d="M20.2,20.8l-3.4,10.8l-0.9,0.4l0.8-4.2l-3.8,0.8l-0.9,3.2l-0.6-0.9l1.7-9.3l2.1-0.8L13.2,27l3.8-0.8l0.9-4.5L20.2,20.8z"/>
	<path d="M25.9,20.8l-0.9,1.7l-3.6,0.4l-0.4,3l4-1.5L24,26.4l-3.4,0.9l-0.4,2.5l3.8-1.3l-0.4,1.7l-5.5,1.7l2.1-9.6L25.9,20.8z"/>
	<path d="M34.4,31.9L34,31c-0.6,0.8-1.3,1.1-2.1,1.1c-4.2,0-3.4-11.7,2.5-11.3c2.3,0.4,2.5,5.1,0.8,8.5l0.8,1.3L34.4,31.9z M34,30
		l-1.7-4.3l0.8-0.4l1.7,3.2c0.8-2.5,0.4-6-0.9-6.2c-2.3-0.6-3.8,9.3-1.3,8.5C33,30.8,33.4,30.4,34,30z"/>
	<path d="M40.6,20.8c0,0-2.6,8.5-1.7,10c1.3,2.3,4-9.8,4-9.8l1.3,0.4c0,0-1.5,10.8-5.7,10.8c-3.4,0,0-10.6,0-10.6L40.6,20.8z"/>
	<path d="M47,21l-2.8,10.4l-1.3,0.8l2.1-10.2L47,21z"/>
	<path d="M50.8,25.7c0,0,0-1.9-0.4-2.8c-0.4-2.1-1.7,0.9-1.9,1.5c0,0.6-1.7,6.2-0.4,5.9c1.1-0.2,1.9-2.1,1.9-2.1l1.5,0.9
		c0,0-1.1,2.5-3.8,3c-2.5,0.6-1.5-4.3-1.5-4.3s1.1-7,4.2-6.8c2.6,0,1.7,4.2,1.7,4.2L50.8,25.7z"/>
	<path d="M54.6,27.8l3.2,2.1L57,31.3l-3.4-2.6l-0.4,2.8l-1.3,0.6l1.7-10.4l1.9-0.9l-1.3,5.9l4.7-5.5l0.9,1.7L54.6,27.8z"/>
	<path d="M65,31.5l-0.2,0.6l-1.5-0.4l1.3-8.7c0,0,2.8-2.1,4.5-2.1c0.6,0,1.1,0.4,1.3,1.1c0.4,1.5-0.6,2.5-1.9,3.2
		c0.8,0.2,1.3,0.6,1.5,1.5C70.8,30.2,67.4,31,65,31.5z M68.5,27.6c-0.4-1.5-1.7-1.3-3-1.1L65.1,30C66.5,29.8,68.9,29.1,68.5,27.6z
		 M66.1,23.4l-0.4,2.1c1.3-0.4,3.6-1.1,3.2-2.5C68.5,21.9,66.8,23,66.1,23.4z"/>
	<path d="M72.3,28.7l-0.4,2.8l-1.9,0.6L72.9,21c0-0.2,0-0.2,0-0.2c5.9-0.4,5.7,1.5,5.7,2.1c-0.4,3.4-3.2,4.9-5.1,5.5l3,1.9l-1.9,1.5
		L72.3,28.7z M73.6,22.5L72.7,27c0.9,0,3.2-0.4,3.8-2.6C77.2,22.5,75,22.5,73.6,22.5z"/>
	<path d="M80.6,32.1c-4.2,0-2.5-11.9,3.2-11.3C87.4,21.1,84.8,32.1,80.6,32.1z M83.5,22.5c-2.6-0.8-5.3,8.5-2.6,7.7
		C84.4,29.3,85,22.8,83.5,22.5z"/>
	<path d="M89.3,31.9l-0.8-3.6l-1.9,3.4l-1.5-0.2l2.1-9.8l1.9-0.4l-2.5,8.1l3-4.7l1.3,4.9l2.1-8.7l1.1,0.9l-2.8,9.4L89.3,31.9z"/>
	<path d="M97.1,20.8l1.3,8.9l1.7-8.9L102,21l-2.8,10l-2.6,1.3L95.7,24l-1.1,7.6l-1.9,0.4l2.6-10.8L97.1,20.8z"/>
	<path d="M111.8,20.8l-0.6,2.1h-3.6l-0.4,2.6l3.2-0.8l-0.8,1.7l-3,0.8l-1.1,4.7l-1.3-0.2l2.5-10.2L111.8,20.8z"/>
	<path d="M113.1,32.1c-4.2,0-2.5-11.9,3.2-11.3C119.9,21.1,117.3,32.1,113.1,32.1z M116,22.5c-2.6-0.8-5.3,8.5-2.6,7.7
		C116.9,29.3,117.5,22.8,116,22.5z"/>
	<path d="M122,26.8l1.1,4.3l-1.3,0.9l-0.9-3.8l-2.8,3.8l-0.6-0.9l2.8-4.3l-1.1-4.7l1.5-1.1l1.1,4.2l2.6-4.2h1.9L122,26.8z"/>
	<path d="M136,22.5l-1.1,0.2c-0.9,2.8-3.4,9.6-4.9,9.6c-0.4,0-0.8-0.8-0.9-2.3l1.1-1.3c0,0,0.2,3.2,0.8,1.7c0.2-1.1,1.5-5.7,2.1-7.6
		l-2.1,0.2l0.9-1.5l4.7-0.6L136,22.5z"/>
	<path d="M139,20.8c0,0-2.6,8.5-1.7,10c1.3,2.3,4-9.8,4-9.8l1.3,0.4c0,0-1.5,10.8-5.7,10.8c-3.4,0,0-10.6,0-10.6L139,20.8z"/>
	<path d="M145.4,21l0.6,5.9l4-6l1.1,0.6l-3,10.4l-1.5,0.2l2.5-7.6l-3.8,5.7l-1.3-5.7l-1.5,7.7l-1.5-0.4l2.6-10.4L145.4,21z"/>
	<path d="M151.8,28.7l-0.6,2.8l-1.7,0.6l2.6-11.3c5.9-0.4,5.7,1.5,5.7,2.1C157.5,27,153.7,28.3,151.8,28.7z M153,22.5L152,27
		c1.1,0.2,3-0.4,3.8-2.5C156.8,21.9,154.1,22.1,153,22.5z"/>
	<path d="M162.4,24.9c0,0,2.3-4-1.5-1.7c-2.5,1.3,0.9,2.6,2.3,4.5c2.1,2.5-1.3,4-3,4.3c-1.7,0.4-2.3-3-2.3-3l1.5-0.9
		c0,0,0,2.8,1.5,2.5c2.5-0.6,0.4-3.2-1.7-4.2c-2.8-1.1,0.4-5.5,3.4-5.7c3,0,2.1,3.4,2.1,3.4L162.4,24.9z"/>
	<path d="M171.7,32.1c-4.2,0-2.5-11.9,3.2-11.3C178.5,21.1,175.8,32.1,171.7,32.1z M174.5,22.5c-2.6-0.8-5.3,8.5-2.6,7.7
		C175.5,29.3,176,22.8,174.5,22.5z"/>
	<path d="M178.1,21l1.9-0.2l-0.6,9.3l4-9.1l0.9,0.9l-4.5,9.6l-2.1,0.6L178.1,21z"/>
	<path d="M190.4,20.8l-0.9,1.7l-3.6,0.4l-0.4,3l4-1.5l-0.9,2.1l-3.4,0.9l-0.4,2.5l3.8-1.3l-0.4,1.7l-5.5,1.7l2.1-9.6L190.4,20.8z"/>
	<path d="M190.6,28.7l-0.4,2.8l-1.9,0.6l2.8-11.1c0-0.2,0-0.2,0-0.2c5.9-0.4,5.7,1.5,5.7,2.1c-0.4,3.4-3.2,4.9-5.1,5.5l3,1.9
		l-1.9,1.5L190.6,28.7z M191.9,22.5l-0.9,4.5c0.9,0,3.2-0.4,3.8-2.6C195.5,22.5,193.2,22.5,191.9,22.5z"/>
	<path d="M207.8,22.7l-1.9,0.2l-2.1,8.7l-1.3,0.4l1.9-8.9l-2.5,0.2l0.9-1.7l5.7-0.8L207.8,22.7z"/>
	<path d="M215.9,20.8l-3.4,10.8l-0.9,0.4l0.8-4.2l-3.8,0.8l-0.9,3.2l-0.6-0.9l1.7-9.3l2.1-0.8l-1.9,6.2l3.8-0.8l0.9-4.5L215.9,20.8z
		"/>
	<path d="M221.5,20.8l-0.9,1.7l-3.6,0.4l-0.4,3l4-1.5l-0.9,2.1l-3.4,0.9l-0.4,2.5l3.8-1.3l-0.4,1.7l-5.5,1.7l2.1-9.6L221.5,20.8z"/>
	<path d="M225.7,30.2l3.8-2.3l0.8,1.7l-6.2,2.5l2.6-10.4l2.1-0.8L225.7,30.2z"/>
	<path d="M236.8,30.8l-1.7,1.1v-2.1l-3.2,0.9l-0.8,1.1l-1.1,0.2l5.3-11.1h1.5V30.8z M235.3,28.1l-0.2-4.7l-2.5,5.5L235.3,28.1z"/>
	<path d="M239.1,30.4l5.3-1.5l-1.1,2.3l-5.5,0.9v-2.3l6.4-7.6l-4.9,0.4l0.8-1.5l6.8-0.4L239.1,30.4z"/>
	<path d="M254.2,21.3l-6.6,10.8l-0.8-0.6l2.3-4.7l-2.3-4.2l1.7-1.7l1.3,4.7l2.6-4.9L254.2,21.3z"/>
	<path d="M258.4,31.3v0.4l-1.7,0.6l2.1-10.4c1.5-0.8,2.6-0.9,3.6-0.9c1.9,0,2.1,1.5,1.9,2.3C263.3,27.9,260.1,30.2,258.4,31.3z
		 M262.9,24.2c0.6-2.3-1.9-1.5-3.2-0.8l-0.9,6.4C260.1,28.9,261.6,27.4,262.9,24.2z"/>
	<path d="M266.3,32.1c-4.2,0-2.5-11.9,3.2-11.3C273.1,21.1,270.5,32.1,266.3,32.1z M269.1,22.5c-2.6-0.8-5.3,8.5-2.6,7.7
		C270.1,29.3,270.7,22.8,269.1,22.5z"/>
	<path d="M277.1,27.6c-0.2,4.2-3.2,4.5-3.2,4.5s-4.3,0.4-2.3-6.6c1.1-3.6,2.5-4.7,3.4-4.7c1.5,0,2.6,1.9,2.6,1.9l-1.7,1.5
		c0,0-0.8-1.1-0.8-1.5c-1.3-2.1-3.8,8.7-1.3,7.9c1.7-0.4,1.5-2.1,1.3-2.8h-0.9l-0.2-0.6l3.6-1.5l0.8,1.9H277.1z"/>
</g>
</svg>
